G04 #@! TF.GenerationSoftware,KiCad,Pcbnew,5.1.2-f72e74a~84~ubuntu16.04.1*
G04 #@! TF.CreationDate,2019-07-13T03:40:42-04:00*
G04 #@! TF.ProjectId,arcade_joystick_pcb,61726361-6465-45f6-9a6f-79737469636b,rev?*
G04 #@! TF.SameCoordinates,Original*
G04 #@! TF.FileFunction,Legend,Bot*
G04 #@! TF.FilePolarity,Positive*
%FSLAX46Y46*%
G04 Gerber Fmt 4.6, Leading zero omitted, Abs format (unit mm)*
G04 Created by KiCad (PCBNEW 5.1.2-f72e74a~84~ubuntu16.04.1) date 2019-07-13 03:40:42*
%MOMM*%
%LPD*%
G04 APERTURE LIST*
%ADD10C,0.150000*%
G04 APERTURE END LIST*
D10*
X134135523Y-79987666D02*
X133659333Y-79987666D01*
X134230761Y-80273380D02*
X133897428Y-79273380D01*
X133564095Y-80273380D01*
X133230761Y-80273380D02*
X133230761Y-79606714D01*
X133230761Y-79797190D02*
X133183142Y-79701952D01*
X133135523Y-79654333D01*
X133040285Y-79606714D01*
X132945047Y-79606714D01*
X132183142Y-80225761D02*
X132278380Y-80273380D01*
X132468857Y-80273380D01*
X132564095Y-80225761D01*
X132611714Y-80178142D01*
X132659333Y-80082904D01*
X132659333Y-79797190D01*
X132611714Y-79701952D01*
X132564095Y-79654333D01*
X132468857Y-79606714D01*
X132278380Y-79606714D01*
X132183142Y-79654333D01*
X131326000Y-80273380D02*
X131326000Y-79749571D01*
X131373619Y-79654333D01*
X131468857Y-79606714D01*
X131659333Y-79606714D01*
X131754571Y-79654333D01*
X131326000Y-80225761D02*
X131421238Y-80273380D01*
X131659333Y-80273380D01*
X131754571Y-80225761D01*
X131802190Y-80130523D01*
X131802190Y-80035285D01*
X131754571Y-79940047D01*
X131659333Y-79892428D01*
X131421238Y-79892428D01*
X131326000Y-79844809D01*
X130421238Y-80273380D02*
X130421238Y-79273380D01*
X130421238Y-80225761D02*
X130516476Y-80273380D01*
X130706952Y-80273380D01*
X130802190Y-80225761D01*
X130849809Y-80178142D01*
X130897428Y-80082904D01*
X130897428Y-79797190D01*
X130849809Y-79701952D01*
X130802190Y-79654333D01*
X130706952Y-79606714D01*
X130516476Y-79606714D01*
X130421238Y-79654333D01*
X129564095Y-80225761D02*
X129659333Y-80273380D01*
X129849809Y-80273380D01*
X129945047Y-80225761D01*
X129992666Y-80130523D01*
X129992666Y-79749571D01*
X129945047Y-79654333D01*
X129849809Y-79606714D01*
X129659333Y-79606714D01*
X129564095Y-79654333D01*
X129516476Y-79749571D01*
X129516476Y-79844809D01*
X129992666Y-79940047D01*
X134278380Y-80923380D02*
X134278380Y-81637666D01*
X134326000Y-81780523D01*
X134421238Y-81875761D01*
X134564095Y-81923380D01*
X134659333Y-81923380D01*
X133659333Y-81923380D02*
X133754571Y-81875761D01*
X133802190Y-81828142D01*
X133849809Y-81732904D01*
X133849809Y-81447190D01*
X133802190Y-81351952D01*
X133754571Y-81304333D01*
X133659333Y-81256714D01*
X133516476Y-81256714D01*
X133421238Y-81304333D01*
X133373619Y-81351952D01*
X133326000Y-81447190D01*
X133326000Y-81732904D01*
X133373619Y-81828142D01*
X133421238Y-81875761D01*
X133516476Y-81923380D01*
X133659333Y-81923380D01*
X132992666Y-81256714D02*
X132754571Y-81923380D01*
X132516476Y-81256714D02*
X132754571Y-81923380D01*
X132849809Y-82161476D01*
X132897428Y-82209095D01*
X132992666Y-82256714D01*
X132183142Y-81875761D02*
X132087904Y-81923380D01*
X131897428Y-81923380D01*
X131802190Y-81875761D01*
X131754571Y-81780523D01*
X131754571Y-81732904D01*
X131802190Y-81637666D01*
X131897428Y-81590047D01*
X132040285Y-81590047D01*
X132135523Y-81542428D01*
X132183142Y-81447190D01*
X132183142Y-81399571D01*
X132135523Y-81304333D01*
X132040285Y-81256714D01*
X131897428Y-81256714D01*
X131802190Y-81304333D01*
X131468857Y-81256714D02*
X131087904Y-81256714D01*
X131326000Y-80923380D02*
X131326000Y-81780523D01*
X131278380Y-81875761D01*
X131183142Y-81923380D01*
X131087904Y-81923380D01*
X130754571Y-81923380D02*
X130754571Y-81256714D01*
X130754571Y-80923380D02*
X130802190Y-80971000D01*
X130754571Y-81018619D01*
X130706952Y-80971000D01*
X130754571Y-80923380D01*
X130754571Y-81018619D01*
X129849809Y-81875761D02*
X129945047Y-81923380D01*
X130135523Y-81923380D01*
X130230761Y-81875761D01*
X130278380Y-81828142D01*
X130326000Y-81732904D01*
X130326000Y-81447190D01*
X130278380Y-81351952D01*
X130230761Y-81304333D01*
X130135523Y-81256714D01*
X129945047Y-81256714D01*
X129849809Y-81304333D01*
X129421238Y-81923380D02*
X129421238Y-80923380D01*
X129326000Y-81542428D02*
X129040285Y-81923380D01*
X129040285Y-81256714D02*
X129421238Y-81637666D01*
X134897428Y-83573380D02*
X134897428Y-82573380D01*
X134421238Y-82906714D02*
X134421238Y-83573380D01*
X134421238Y-83001952D02*
X134373619Y-82954333D01*
X134278380Y-82906714D01*
X134135523Y-82906714D01*
X134040285Y-82954333D01*
X133992666Y-83049571D01*
X133992666Y-83573380D01*
X133659333Y-82906714D02*
X133278380Y-82906714D01*
X133516476Y-82573380D02*
X133516476Y-83430523D01*
X133468857Y-83525761D01*
X133373619Y-83573380D01*
X133278380Y-83573380D01*
X132564095Y-83525761D02*
X132659333Y-83573380D01*
X132849809Y-83573380D01*
X132945047Y-83525761D01*
X132992666Y-83430523D01*
X132992666Y-83049571D01*
X132945047Y-82954333D01*
X132849809Y-82906714D01*
X132659333Y-82906714D01*
X132564095Y-82954333D01*
X132516476Y-83049571D01*
X132516476Y-83144809D01*
X132992666Y-83240047D01*
X132087904Y-83573380D02*
X132087904Y-82906714D01*
X132087904Y-83097190D02*
X132040285Y-83001952D01*
X131992666Y-82954333D01*
X131897428Y-82906714D01*
X131802190Y-82906714D01*
X131611714Y-82906714D02*
X131230761Y-82906714D01*
X131468857Y-83573380D02*
X131468857Y-82716238D01*
X131421238Y-82621000D01*
X131326000Y-82573380D01*
X131230761Y-82573380D01*
X130468857Y-83573380D02*
X130468857Y-83049571D01*
X130516476Y-82954333D01*
X130611714Y-82906714D01*
X130802190Y-82906714D01*
X130897428Y-82954333D01*
X130468857Y-83525761D02*
X130564095Y-83573380D01*
X130802190Y-83573380D01*
X130897428Y-83525761D01*
X130945047Y-83430523D01*
X130945047Y-83335285D01*
X130897428Y-83240047D01*
X130802190Y-83192428D01*
X130564095Y-83192428D01*
X130468857Y-83144809D01*
X129564095Y-83525761D02*
X129659333Y-83573380D01*
X129849809Y-83573380D01*
X129945047Y-83525761D01*
X129992666Y-83478142D01*
X130040285Y-83382904D01*
X130040285Y-83097190D01*
X129992666Y-83001952D01*
X129945047Y-82954333D01*
X129849809Y-82906714D01*
X129659333Y-82906714D01*
X129564095Y-82954333D01*
X128754571Y-83525761D02*
X128849809Y-83573380D01*
X129040285Y-83573380D01*
X129135523Y-83525761D01*
X129183142Y-83430523D01*
X129183142Y-83049571D01*
X129135523Y-82954333D01*
X129040285Y-82906714D01*
X128849809Y-82906714D01*
X128754571Y-82954333D01*
X128706952Y-83049571D01*
X128706952Y-83144809D01*
X129183142Y-83240047D01*
X134706952Y-84223380D02*
X134373619Y-85223380D01*
X134040285Y-84223380D01*
X133326000Y-85175761D02*
X133421238Y-85223380D01*
X133611714Y-85223380D01*
X133706952Y-85175761D01*
X133754571Y-85080523D01*
X133754571Y-84699571D01*
X133706952Y-84604333D01*
X133611714Y-84556714D01*
X133421238Y-84556714D01*
X133326000Y-84604333D01*
X133278380Y-84699571D01*
X133278380Y-84794809D01*
X133754571Y-84890047D01*
X132849809Y-85223380D02*
X132849809Y-84556714D01*
X132849809Y-84747190D02*
X132802190Y-84651952D01*
X132754571Y-84604333D01*
X132659333Y-84556714D01*
X132564095Y-84556714D01*
X132230761Y-85128142D02*
X132183142Y-85175761D01*
X132230761Y-85223380D01*
X132278380Y-85175761D01*
X132230761Y-85128142D01*
X132230761Y-85223380D01*
X130468857Y-85223380D02*
X131040285Y-85223380D01*
X130754571Y-85223380D02*
X130754571Y-84223380D01*
X130849809Y-84366238D01*
X130945047Y-84461476D01*
X131040285Y-84509095D01*
X130040285Y-85128142D02*
X129992666Y-85175761D01*
X130040285Y-85223380D01*
X130087904Y-85175761D01*
X130040285Y-85128142D01*
X130040285Y-85223380D01*
X129373619Y-84223380D02*
X129278380Y-84223380D01*
X129183142Y-84271000D01*
X129135523Y-84318619D01*
X129087904Y-84413857D01*
X129040285Y-84604333D01*
X129040285Y-84842428D01*
X129087904Y-85032904D01*
X129135523Y-85128142D01*
X129183142Y-85175761D01*
X129278380Y-85223380D01*
X129373619Y-85223380D01*
X129468857Y-85175761D01*
X129516476Y-85128142D01*
X129564095Y-85032904D01*
X129611714Y-84842428D01*
X129611714Y-84604333D01*
X129564095Y-84413857D01*
X129516476Y-84318619D01*
X129468857Y-84271000D01*
X129373619Y-84223380D01*
X124740001Y-92835000D02*
X124740001Y-87235000D01*
X126740001Y-87235000D02*
X124740001Y-87235000D01*
X126740001Y-92835000D02*
X124740001Y-92835000D01*
X126740001Y-86985000D02*
X138840001Y-86985000D01*
X126740001Y-93085000D02*
X138840001Y-93085000D01*
X138840001Y-93085000D02*
X138840001Y-86985000D01*
X126740001Y-93085000D02*
X126740001Y-86985000D01*
X141039523Y-86852380D02*
X141372857Y-86376190D01*
X141610952Y-86852380D02*
X141610952Y-85852380D01*
X141230000Y-85852380D01*
X141134761Y-85900000D01*
X141087142Y-85947619D01*
X141039523Y-86042857D01*
X141039523Y-86185714D01*
X141087142Y-86280952D01*
X141134761Y-86328571D01*
X141230000Y-86376190D01*
X141610952Y-86376190D01*
X140610952Y-86471428D02*
X139849047Y-86471428D01*
X140230000Y-86852380D02*
X140230000Y-86090476D01*
X141634761Y-83282380D02*
X141634761Y-84091904D01*
X141587142Y-84187142D01*
X141539523Y-84234761D01*
X141444285Y-84282380D01*
X141253809Y-84282380D01*
X141158571Y-84234761D01*
X141110952Y-84187142D01*
X141063333Y-84091904D01*
X141063333Y-83282380D01*
X140587142Y-83901428D02*
X139825238Y-83901428D01*
X141610952Y-91932380D02*
X141610952Y-90932380D01*
X141372857Y-90932380D01*
X141230000Y-90980000D01*
X141134761Y-91075238D01*
X141087142Y-91170476D01*
X141039523Y-91360952D01*
X141039523Y-91503809D01*
X141087142Y-91694285D01*
X141134761Y-91789523D01*
X141230000Y-91884761D01*
X141372857Y-91932380D01*
X141610952Y-91932380D01*
X140610952Y-91551428D02*
X139849047Y-91551428D01*
X140230000Y-91932380D02*
X140230000Y-91170476D01*
X141089523Y-89312380D02*
X141422857Y-88836190D01*
X141660952Y-89312380D02*
X141660952Y-88312380D01*
X141280000Y-88312380D01*
X141184761Y-88360000D01*
X141137142Y-88407619D01*
X141089523Y-88502857D01*
X141089523Y-88645714D01*
X141137142Y-88740952D01*
X141184761Y-88788571D01*
X141280000Y-88836190D01*
X141660952Y-88836190D01*
X140660952Y-88931428D02*
X139899047Y-88931428D01*
X141129523Y-96942380D02*
X141605714Y-96942380D01*
X141605714Y-95942380D01*
X140796190Y-96561428D02*
X140034285Y-96561428D01*
X140415238Y-96942380D02*
X140415238Y-96180476D01*
X141600952Y-94432380D02*
X141600952Y-93432380D01*
X141362857Y-93432380D01*
X141220000Y-93480000D01*
X141124761Y-93575238D01*
X141077142Y-93670476D01*
X141029523Y-93860952D01*
X141029523Y-94003809D01*
X141077142Y-94194285D01*
X141124761Y-94289523D01*
X141220000Y-94384761D01*
X141362857Y-94432380D01*
X141600952Y-94432380D01*
X140600952Y-94051428D02*
X139839047Y-94051428D01*
X141634761Y-80682380D02*
X141634761Y-81491904D01*
X141587142Y-81587142D01*
X141539523Y-81634761D01*
X141444285Y-81682380D01*
X141253809Y-81682380D01*
X141158571Y-81634761D01*
X141110952Y-81587142D01*
X141063333Y-81491904D01*
X141063333Y-80682380D01*
X140587142Y-81301428D02*
X139825238Y-81301428D01*
X140206190Y-81682380D02*
X140206190Y-80920476D01*
X141129523Y-99392380D02*
X141605714Y-99392380D01*
X141605714Y-98392380D01*
X140796190Y-99011428D02*
X140034285Y-99011428D01*
X133556333Y-93813380D02*
X133556333Y-94527666D01*
X133603952Y-94670523D01*
X133699190Y-94765761D01*
X133842047Y-94813380D01*
X133937285Y-94813380D01*
X132556333Y-94813380D02*
X133127761Y-94813380D01*
X132842047Y-94813380D02*
X132842047Y-93813380D01*
X132937285Y-93956238D01*
X133032523Y-94051476D01*
X133127761Y-94099095D01*
M02*
