G04 #@! TF.GenerationSoftware,KiCad,Pcbnew,5.1.5-52549c5~84~ubuntu16.04.1*
G04 #@! TF.CreationDate,2020-03-17T21:52:37-04:00*
G04 #@! TF.ProjectId,arcade_joystick_pcb,61726361-6465-45f6-9a6f-79737469636b,1.0*
G04 #@! TF.SameCoordinates,Original*
G04 #@! TF.FileFunction,Copper,L2,Bot*
G04 #@! TF.FilePolarity,Positive*
%FSLAX46Y46*%
G04 Gerber Fmt 4.6, Leading zero omitted, Abs format (unit mm)*
G04 Created by KiCad (PCBNEW 5.1.5-52549c5~84~ubuntu16.04.1) date 2020-03-17 21:52:37*
%MOMM*%
%LPD*%
G04 APERTURE LIST*
%ADD10O,1.700000X1.700000*%
%ADD11R,1.700000X1.700000*%
%ADD12O,2.000000X1.600000*%
%ADD13C,0.800000*%
%ADD14C,0.250000*%
%ADD15C,0.254000*%
G04 APERTURE END LIST*
D10*
X143510000Y-99060000D03*
X143510000Y-96520000D03*
X143510000Y-93980000D03*
X143510000Y-91440000D03*
X143510000Y-88900000D03*
X143510000Y-86360000D03*
X143510000Y-83820000D03*
D11*
X143510000Y-81280000D03*
D12*
X138040001Y-87735000D03*
X136940001Y-92335000D03*
X129940001Y-92335000D03*
X132940001Y-92335000D03*
D13*
X128524000Y-82296000D03*
X138049000Y-97917000D03*
D14*
X134190001Y-92335000D02*
X132940001Y-92335000D01*
X136356015Y-91209990D02*
X135315011Y-91209990D01*
X142334999Y-85231006D02*
X136356015Y-91209990D01*
X135315011Y-91209990D02*
X134190001Y-92335000D01*
X142334999Y-84995001D02*
X142334999Y-85231006D01*
X143510000Y-83820000D02*
X142334999Y-84995001D01*
X142660001Y-95670001D02*
X143510000Y-96520000D01*
X142334999Y-90075001D02*
X142334999Y-95344999D01*
X142334999Y-95344999D02*
X142660001Y-95670001D01*
X143510000Y-88900000D02*
X142334999Y-90075001D01*
D15*
G36*
X136556331Y-79550976D02*
G01*
X136324906Y-79897328D01*
X136165498Y-80282173D01*
X136084232Y-80690723D01*
X136084232Y-81107277D01*
X136165498Y-81515827D01*
X136324906Y-81900672D01*
X136556331Y-82247024D01*
X136850879Y-82541572D01*
X137197231Y-82772997D01*
X137582076Y-82932405D01*
X137990626Y-83013671D01*
X138407180Y-83013671D01*
X138815730Y-82932405D01*
X139200575Y-82772997D01*
X139546927Y-82541572D01*
X139841475Y-82247024D01*
X140072900Y-81900672D01*
X140232308Y-81515827D01*
X140313574Y-81107277D01*
X140313574Y-80690723D01*
X140261713Y-80430000D01*
X142021928Y-80430000D01*
X142025000Y-80994250D01*
X142183750Y-81153000D01*
X143383000Y-81153000D01*
X143383000Y-79953750D01*
X143637000Y-79953750D01*
X143637000Y-81153000D01*
X144836250Y-81153000D01*
X144995000Y-80994250D01*
X144998072Y-80430000D01*
X144985812Y-80305518D01*
X144949502Y-80185820D01*
X144890537Y-80075506D01*
X144811185Y-79978815D01*
X144714494Y-79899463D01*
X144604180Y-79840498D01*
X144484482Y-79804188D01*
X144360000Y-79791928D01*
X143795750Y-79795000D01*
X143637000Y-79953750D01*
X143383000Y-79953750D01*
X143224250Y-79795000D01*
X142660000Y-79791928D01*
X142535518Y-79804188D01*
X142415820Y-79840498D01*
X142305506Y-79899463D01*
X142208815Y-79978815D01*
X142129463Y-80075506D01*
X142070498Y-80185820D01*
X142034188Y-80305518D01*
X142021928Y-80430000D01*
X140261713Y-80430000D01*
X140232308Y-80282173D01*
X140072900Y-79897328D01*
X139841475Y-79550976D01*
X139715499Y-79425000D01*
X144746496Y-79425000D01*
X144892992Y-79439364D01*
X145001670Y-79472176D01*
X145101918Y-79525479D01*
X145189897Y-79597232D01*
X145262263Y-79684707D01*
X145316263Y-79784579D01*
X145349833Y-79893027D01*
X145365000Y-80037331D01*
X145365001Y-100296486D01*
X145350636Y-100442992D01*
X145317823Y-100551672D01*
X145264522Y-100651917D01*
X145192769Y-100739895D01*
X145105292Y-100812263D01*
X145005420Y-100866263D01*
X144896973Y-100899833D01*
X144752669Y-100915000D01*
X134380103Y-100915000D01*
X134698024Y-100702572D01*
X134992572Y-100408024D01*
X135223997Y-100061672D01*
X135383405Y-99676827D01*
X135464671Y-99268277D01*
X135464671Y-98851723D01*
X135383405Y-98443173D01*
X135223997Y-98058328D01*
X134992572Y-97711976D01*
X134698024Y-97417428D01*
X134351672Y-97186003D01*
X133966827Y-97026595D01*
X133558277Y-96945329D01*
X133141723Y-96945329D01*
X132733173Y-97026595D01*
X132348328Y-97186003D01*
X132001976Y-97417428D01*
X131707428Y-97711976D01*
X131476003Y-98058328D01*
X131316595Y-98443173D01*
X131235329Y-98851723D01*
X131235329Y-99268277D01*
X131316595Y-99676827D01*
X131476003Y-100061672D01*
X131707428Y-100408024D01*
X132001976Y-100702572D01*
X132319897Y-100915000D01*
X128303504Y-100915000D01*
X128157008Y-100900636D01*
X128048328Y-100867823D01*
X127948083Y-100814522D01*
X127860105Y-100742769D01*
X127787737Y-100655292D01*
X127733737Y-100555420D01*
X127700167Y-100446973D01*
X127685000Y-100302669D01*
X127685000Y-92335000D01*
X128298058Y-92335000D01*
X128325765Y-92616309D01*
X128407819Y-92886808D01*
X128541069Y-93136101D01*
X128720393Y-93354608D01*
X128938900Y-93533932D01*
X129188193Y-93667182D01*
X129458692Y-93749236D01*
X129669509Y-93770000D01*
X130210493Y-93770000D01*
X130421310Y-93749236D01*
X130691809Y-93667182D01*
X130941102Y-93533932D01*
X131159609Y-93354608D01*
X131338933Y-93136101D01*
X131440001Y-92947016D01*
X131541069Y-93136101D01*
X131720393Y-93354608D01*
X131938900Y-93533932D01*
X132188193Y-93667182D01*
X132458692Y-93749236D01*
X132669509Y-93770000D01*
X133210493Y-93770000D01*
X133421310Y-93749236D01*
X133691809Y-93667182D01*
X133941102Y-93533932D01*
X134159609Y-93354608D01*
X134338933Y-93136101D01*
X134372158Y-93073941D01*
X134482248Y-93040546D01*
X134614277Y-92969974D01*
X134730002Y-92875001D01*
X134753804Y-92845998D01*
X134915763Y-92684039D01*
X135348097Y-92684039D01*
X135358557Y-92741730D01*
X135464450Y-93003421D01*
X135619362Y-93239425D01*
X135817339Y-93440673D01*
X136050774Y-93599430D01*
X136310695Y-93709596D01*
X136587114Y-93766937D01*
X136813001Y-93614474D01*
X136813001Y-92462000D01*
X137067001Y-92462000D01*
X137067001Y-93614474D01*
X137292888Y-93766937D01*
X137569307Y-93709596D01*
X137829228Y-93599430D01*
X138062663Y-93440673D01*
X138260640Y-93239425D01*
X138415552Y-93003421D01*
X138521445Y-92741730D01*
X138531905Y-92684039D01*
X138409916Y-92462000D01*
X137067001Y-92462000D01*
X136813001Y-92462000D01*
X135470086Y-92462000D01*
X135348097Y-92684039D01*
X134915763Y-92684039D01*
X135442328Y-92157476D01*
X135470086Y-92208000D01*
X136813001Y-92208000D01*
X136813001Y-92188000D01*
X137067001Y-92188000D01*
X137067001Y-92208000D01*
X138409916Y-92208000D01*
X138531905Y-91985961D01*
X138521445Y-91928270D01*
X138415552Y-91666579D01*
X138260640Y-91430575D01*
X138062663Y-91229327D01*
X137829228Y-91070570D01*
X137647332Y-90993474D01*
X142153805Y-86487002D01*
X142189844Y-86487002D01*
X142068524Y-86716890D01*
X142113175Y-86864099D01*
X142238359Y-87126920D01*
X142412412Y-87360269D01*
X142628645Y-87555178D01*
X142745534Y-87624805D01*
X142563368Y-87746525D01*
X142356525Y-87953368D01*
X142194010Y-88196589D01*
X142082068Y-88466842D01*
X142025000Y-88753740D01*
X142025000Y-89046260D01*
X142068791Y-89266408D01*
X141824002Y-89511197D01*
X141794998Y-89535000D01*
X141739870Y-89602175D01*
X141700025Y-89650725D01*
X141655993Y-89733102D01*
X141629453Y-89782755D01*
X141585996Y-89926016D01*
X141574999Y-90037669D01*
X141574999Y-90037679D01*
X141571323Y-90075001D01*
X141574999Y-90112324D01*
X141575000Y-95307667D01*
X141571323Y-95344999D01*
X141585997Y-95493984D01*
X141629453Y-95637245D01*
X141700025Y-95769275D01*
X141771200Y-95856001D01*
X141794999Y-95885000D01*
X141823997Y-95908798D01*
X142068791Y-96153592D01*
X142025000Y-96373740D01*
X142025000Y-96666260D01*
X142082068Y-96953158D01*
X142194010Y-97223411D01*
X142356525Y-97466632D01*
X142563368Y-97673475D01*
X142737760Y-97790000D01*
X142563368Y-97906525D01*
X142356525Y-98113368D01*
X142194010Y-98356589D01*
X142082068Y-98626842D01*
X142025000Y-98913740D01*
X142025000Y-99206260D01*
X142082068Y-99493158D01*
X142194010Y-99763411D01*
X142356525Y-100006632D01*
X142563368Y-100213475D01*
X142806589Y-100375990D01*
X143076842Y-100487932D01*
X143363740Y-100545000D01*
X143656260Y-100545000D01*
X143943158Y-100487932D01*
X144213411Y-100375990D01*
X144456632Y-100213475D01*
X144663475Y-100006632D01*
X144825990Y-99763411D01*
X144937932Y-99493158D01*
X144995000Y-99206260D01*
X144995000Y-98913740D01*
X144937932Y-98626842D01*
X144825990Y-98356589D01*
X144663475Y-98113368D01*
X144456632Y-97906525D01*
X144282240Y-97790000D01*
X144456632Y-97673475D01*
X144663475Y-97466632D01*
X144825990Y-97223411D01*
X144937932Y-96953158D01*
X144995000Y-96666260D01*
X144995000Y-96373740D01*
X144937932Y-96086842D01*
X144825990Y-95816589D01*
X144663475Y-95573368D01*
X144456632Y-95366525D01*
X144282240Y-95250000D01*
X144456632Y-95133475D01*
X144663475Y-94926632D01*
X144825990Y-94683411D01*
X144937932Y-94413158D01*
X144995000Y-94126260D01*
X144995000Y-93833740D01*
X144937932Y-93546842D01*
X144825990Y-93276589D01*
X144663475Y-93033368D01*
X144456632Y-92826525D01*
X144282240Y-92710000D01*
X144456632Y-92593475D01*
X144663475Y-92386632D01*
X144825990Y-92143411D01*
X144937932Y-91873158D01*
X144995000Y-91586260D01*
X144995000Y-91293740D01*
X144937932Y-91006842D01*
X144825990Y-90736589D01*
X144663475Y-90493368D01*
X144456632Y-90286525D01*
X144282240Y-90170000D01*
X144456632Y-90053475D01*
X144663475Y-89846632D01*
X144825990Y-89603411D01*
X144937932Y-89333158D01*
X144995000Y-89046260D01*
X144995000Y-88753740D01*
X144937932Y-88466842D01*
X144825990Y-88196589D01*
X144663475Y-87953368D01*
X144456632Y-87746525D01*
X144274466Y-87624805D01*
X144391355Y-87555178D01*
X144607588Y-87360269D01*
X144781641Y-87126920D01*
X144906825Y-86864099D01*
X144951476Y-86716890D01*
X144830155Y-86487000D01*
X143637000Y-86487000D01*
X143637000Y-86507000D01*
X143383000Y-86507000D01*
X143383000Y-86487000D01*
X143363000Y-86487000D01*
X143363000Y-86233000D01*
X143383000Y-86233000D01*
X143383000Y-86213000D01*
X143637000Y-86213000D01*
X143637000Y-86233000D01*
X144830155Y-86233000D01*
X144951476Y-86003110D01*
X144906825Y-85855901D01*
X144781641Y-85593080D01*
X144607588Y-85359731D01*
X144391355Y-85164822D01*
X144274466Y-85095195D01*
X144456632Y-84973475D01*
X144663475Y-84766632D01*
X144825990Y-84523411D01*
X144937932Y-84253158D01*
X144995000Y-83966260D01*
X144995000Y-83673740D01*
X144937932Y-83386842D01*
X144825990Y-83116589D01*
X144663475Y-82873368D01*
X144531620Y-82741513D01*
X144604180Y-82719502D01*
X144714494Y-82660537D01*
X144811185Y-82581185D01*
X144890537Y-82484494D01*
X144949502Y-82374180D01*
X144985812Y-82254482D01*
X144998072Y-82130000D01*
X144995000Y-81565750D01*
X144836250Y-81407000D01*
X143637000Y-81407000D01*
X143637000Y-81427000D01*
X143383000Y-81427000D01*
X143383000Y-81407000D01*
X142183750Y-81407000D01*
X142025000Y-81565750D01*
X142021928Y-82130000D01*
X142034188Y-82254482D01*
X142070498Y-82374180D01*
X142129463Y-82484494D01*
X142208815Y-82581185D01*
X142305506Y-82660537D01*
X142415820Y-82719502D01*
X142488380Y-82741513D01*
X142356525Y-82873368D01*
X142194010Y-83116589D01*
X142082068Y-83386842D01*
X142025000Y-83673740D01*
X142025000Y-83966260D01*
X142068791Y-84186408D01*
X141824002Y-84431197D01*
X141794998Y-84455000D01*
X141739870Y-84522175D01*
X141700025Y-84570725D01*
X141648454Y-84667207D01*
X141629453Y-84702755D01*
X141585996Y-84846016D01*
X141579529Y-84911674D01*
X139480165Y-87011038D01*
X139438933Y-86933899D01*
X139259609Y-86715392D01*
X139041102Y-86536068D01*
X138791809Y-86402818D01*
X138521310Y-86320764D01*
X138310493Y-86300000D01*
X137769509Y-86300000D01*
X137558692Y-86320764D01*
X137288193Y-86402818D01*
X137038900Y-86536068D01*
X136820393Y-86715392D01*
X136641069Y-86933899D01*
X136507819Y-87183192D01*
X136425765Y-87453691D01*
X136398058Y-87735000D01*
X136425765Y-88016309D01*
X136507819Y-88286808D01*
X136641069Y-88536101D01*
X136820393Y-88754608D01*
X137038900Y-88933932D01*
X137288193Y-89067182D01*
X137392409Y-89098795D01*
X136375001Y-90116203D01*
X136375001Y-89933061D01*
X136335227Y-89733102D01*
X136257206Y-89544744D01*
X136143938Y-89375226D01*
X135999775Y-89231063D01*
X135830257Y-89117795D01*
X135641899Y-89039774D01*
X135441940Y-89000000D01*
X135238062Y-89000000D01*
X135038103Y-89039774D01*
X134849745Y-89117795D01*
X134680227Y-89231063D01*
X134536064Y-89375226D01*
X134422796Y-89544744D01*
X134344775Y-89733102D01*
X134305001Y-89933061D01*
X134305001Y-90136939D01*
X134344775Y-90336898D01*
X134422796Y-90525256D01*
X134536064Y-90694774D01*
X134645744Y-90804454D01*
X134145987Y-91304212D01*
X133941102Y-91136068D01*
X133691809Y-91002818D01*
X133421310Y-90920764D01*
X133210493Y-90900000D01*
X132669509Y-90900000D01*
X132458692Y-90920764D01*
X132188193Y-91002818D01*
X131938900Y-91136068D01*
X131720393Y-91315392D01*
X131541069Y-91533899D01*
X131440001Y-91722984D01*
X131338933Y-91533899D01*
X131159609Y-91315392D01*
X130941102Y-91136068D01*
X130691809Y-91002818D01*
X130421310Y-90920764D01*
X130210493Y-90900000D01*
X129669509Y-90900000D01*
X129458692Y-90920764D01*
X129188193Y-91002818D01*
X128938900Y-91136068D01*
X128720393Y-91315392D01*
X128541069Y-91533899D01*
X128407819Y-91783192D01*
X128325765Y-92053691D01*
X128298058Y-92335000D01*
X127685000Y-92335000D01*
X127685000Y-90842126D01*
X127849745Y-90952205D01*
X128038103Y-91030226D01*
X128238062Y-91070000D01*
X128441940Y-91070000D01*
X128641899Y-91030226D01*
X128830257Y-90952205D01*
X128999775Y-90838937D01*
X129143938Y-90694774D01*
X129257206Y-90525256D01*
X129335227Y-90336898D01*
X129375001Y-90136939D01*
X129375001Y-89933061D01*
X129335227Y-89733102D01*
X129257206Y-89544744D01*
X129143938Y-89375226D01*
X128999775Y-89231063D01*
X128830257Y-89117795D01*
X128641899Y-89039774D01*
X128441940Y-89000000D01*
X128238062Y-89000000D01*
X128038103Y-89039774D01*
X127849745Y-89117795D01*
X127685000Y-89227874D01*
X127685000Y-80043504D01*
X127699364Y-79897008D01*
X127732176Y-79788330D01*
X127785479Y-79688082D01*
X127857232Y-79600103D01*
X127944707Y-79527737D01*
X128044579Y-79473737D01*
X128153027Y-79440167D01*
X128297331Y-79425000D01*
X136682307Y-79425000D01*
X136556331Y-79550976D01*
G37*
X136556331Y-79550976D02*
X136324906Y-79897328D01*
X136165498Y-80282173D01*
X136084232Y-80690723D01*
X136084232Y-81107277D01*
X136165498Y-81515827D01*
X136324906Y-81900672D01*
X136556331Y-82247024D01*
X136850879Y-82541572D01*
X137197231Y-82772997D01*
X137582076Y-82932405D01*
X137990626Y-83013671D01*
X138407180Y-83013671D01*
X138815730Y-82932405D01*
X139200575Y-82772997D01*
X139546927Y-82541572D01*
X139841475Y-82247024D01*
X140072900Y-81900672D01*
X140232308Y-81515827D01*
X140313574Y-81107277D01*
X140313574Y-80690723D01*
X140261713Y-80430000D01*
X142021928Y-80430000D01*
X142025000Y-80994250D01*
X142183750Y-81153000D01*
X143383000Y-81153000D01*
X143383000Y-79953750D01*
X143637000Y-79953750D01*
X143637000Y-81153000D01*
X144836250Y-81153000D01*
X144995000Y-80994250D01*
X144998072Y-80430000D01*
X144985812Y-80305518D01*
X144949502Y-80185820D01*
X144890537Y-80075506D01*
X144811185Y-79978815D01*
X144714494Y-79899463D01*
X144604180Y-79840498D01*
X144484482Y-79804188D01*
X144360000Y-79791928D01*
X143795750Y-79795000D01*
X143637000Y-79953750D01*
X143383000Y-79953750D01*
X143224250Y-79795000D01*
X142660000Y-79791928D01*
X142535518Y-79804188D01*
X142415820Y-79840498D01*
X142305506Y-79899463D01*
X142208815Y-79978815D01*
X142129463Y-80075506D01*
X142070498Y-80185820D01*
X142034188Y-80305518D01*
X142021928Y-80430000D01*
X140261713Y-80430000D01*
X140232308Y-80282173D01*
X140072900Y-79897328D01*
X139841475Y-79550976D01*
X139715499Y-79425000D01*
X144746496Y-79425000D01*
X144892992Y-79439364D01*
X145001670Y-79472176D01*
X145101918Y-79525479D01*
X145189897Y-79597232D01*
X145262263Y-79684707D01*
X145316263Y-79784579D01*
X145349833Y-79893027D01*
X145365000Y-80037331D01*
X145365001Y-100296486D01*
X145350636Y-100442992D01*
X145317823Y-100551672D01*
X145264522Y-100651917D01*
X145192769Y-100739895D01*
X145105292Y-100812263D01*
X145005420Y-100866263D01*
X144896973Y-100899833D01*
X144752669Y-100915000D01*
X134380103Y-100915000D01*
X134698024Y-100702572D01*
X134992572Y-100408024D01*
X135223997Y-100061672D01*
X135383405Y-99676827D01*
X135464671Y-99268277D01*
X135464671Y-98851723D01*
X135383405Y-98443173D01*
X135223997Y-98058328D01*
X134992572Y-97711976D01*
X134698024Y-97417428D01*
X134351672Y-97186003D01*
X133966827Y-97026595D01*
X133558277Y-96945329D01*
X133141723Y-96945329D01*
X132733173Y-97026595D01*
X132348328Y-97186003D01*
X132001976Y-97417428D01*
X131707428Y-97711976D01*
X131476003Y-98058328D01*
X131316595Y-98443173D01*
X131235329Y-98851723D01*
X131235329Y-99268277D01*
X131316595Y-99676827D01*
X131476003Y-100061672D01*
X131707428Y-100408024D01*
X132001976Y-100702572D01*
X132319897Y-100915000D01*
X128303504Y-100915000D01*
X128157008Y-100900636D01*
X128048328Y-100867823D01*
X127948083Y-100814522D01*
X127860105Y-100742769D01*
X127787737Y-100655292D01*
X127733737Y-100555420D01*
X127700167Y-100446973D01*
X127685000Y-100302669D01*
X127685000Y-92335000D01*
X128298058Y-92335000D01*
X128325765Y-92616309D01*
X128407819Y-92886808D01*
X128541069Y-93136101D01*
X128720393Y-93354608D01*
X128938900Y-93533932D01*
X129188193Y-93667182D01*
X129458692Y-93749236D01*
X129669509Y-93770000D01*
X130210493Y-93770000D01*
X130421310Y-93749236D01*
X130691809Y-93667182D01*
X130941102Y-93533932D01*
X131159609Y-93354608D01*
X131338933Y-93136101D01*
X131440001Y-92947016D01*
X131541069Y-93136101D01*
X131720393Y-93354608D01*
X131938900Y-93533932D01*
X132188193Y-93667182D01*
X132458692Y-93749236D01*
X132669509Y-93770000D01*
X133210493Y-93770000D01*
X133421310Y-93749236D01*
X133691809Y-93667182D01*
X133941102Y-93533932D01*
X134159609Y-93354608D01*
X134338933Y-93136101D01*
X134372158Y-93073941D01*
X134482248Y-93040546D01*
X134614277Y-92969974D01*
X134730002Y-92875001D01*
X134753804Y-92845998D01*
X134915763Y-92684039D01*
X135348097Y-92684039D01*
X135358557Y-92741730D01*
X135464450Y-93003421D01*
X135619362Y-93239425D01*
X135817339Y-93440673D01*
X136050774Y-93599430D01*
X136310695Y-93709596D01*
X136587114Y-93766937D01*
X136813001Y-93614474D01*
X136813001Y-92462000D01*
X137067001Y-92462000D01*
X137067001Y-93614474D01*
X137292888Y-93766937D01*
X137569307Y-93709596D01*
X137829228Y-93599430D01*
X138062663Y-93440673D01*
X138260640Y-93239425D01*
X138415552Y-93003421D01*
X138521445Y-92741730D01*
X138531905Y-92684039D01*
X138409916Y-92462000D01*
X137067001Y-92462000D01*
X136813001Y-92462000D01*
X135470086Y-92462000D01*
X135348097Y-92684039D01*
X134915763Y-92684039D01*
X135442328Y-92157476D01*
X135470086Y-92208000D01*
X136813001Y-92208000D01*
X136813001Y-92188000D01*
X137067001Y-92188000D01*
X137067001Y-92208000D01*
X138409916Y-92208000D01*
X138531905Y-91985961D01*
X138521445Y-91928270D01*
X138415552Y-91666579D01*
X138260640Y-91430575D01*
X138062663Y-91229327D01*
X137829228Y-91070570D01*
X137647332Y-90993474D01*
X142153805Y-86487002D01*
X142189844Y-86487002D01*
X142068524Y-86716890D01*
X142113175Y-86864099D01*
X142238359Y-87126920D01*
X142412412Y-87360269D01*
X142628645Y-87555178D01*
X142745534Y-87624805D01*
X142563368Y-87746525D01*
X142356525Y-87953368D01*
X142194010Y-88196589D01*
X142082068Y-88466842D01*
X142025000Y-88753740D01*
X142025000Y-89046260D01*
X142068791Y-89266408D01*
X141824002Y-89511197D01*
X141794998Y-89535000D01*
X141739870Y-89602175D01*
X141700025Y-89650725D01*
X141655993Y-89733102D01*
X141629453Y-89782755D01*
X141585996Y-89926016D01*
X141574999Y-90037669D01*
X141574999Y-90037679D01*
X141571323Y-90075001D01*
X141574999Y-90112324D01*
X141575000Y-95307667D01*
X141571323Y-95344999D01*
X141585997Y-95493984D01*
X141629453Y-95637245D01*
X141700025Y-95769275D01*
X141771200Y-95856001D01*
X141794999Y-95885000D01*
X141823997Y-95908798D01*
X142068791Y-96153592D01*
X142025000Y-96373740D01*
X142025000Y-96666260D01*
X142082068Y-96953158D01*
X142194010Y-97223411D01*
X142356525Y-97466632D01*
X142563368Y-97673475D01*
X142737760Y-97790000D01*
X142563368Y-97906525D01*
X142356525Y-98113368D01*
X142194010Y-98356589D01*
X142082068Y-98626842D01*
X142025000Y-98913740D01*
X142025000Y-99206260D01*
X142082068Y-99493158D01*
X142194010Y-99763411D01*
X142356525Y-100006632D01*
X142563368Y-100213475D01*
X142806589Y-100375990D01*
X143076842Y-100487932D01*
X143363740Y-100545000D01*
X143656260Y-100545000D01*
X143943158Y-100487932D01*
X144213411Y-100375990D01*
X144456632Y-100213475D01*
X144663475Y-100006632D01*
X144825990Y-99763411D01*
X144937932Y-99493158D01*
X144995000Y-99206260D01*
X144995000Y-98913740D01*
X144937932Y-98626842D01*
X144825990Y-98356589D01*
X144663475Y-98113368D01*
X144456632Y-97906525D01*
X144282240Y-97790000D01*
X144456632Y-97673475D01*
X144663475Y-97466632D01*
X144825990Y-97223411D01*
X144937932Y-96953158D01*
X144995000Y-96666260D01*
X144995000Y-96373740D01*
X144937932Y-96086842D01*
X144825990Y-95816589D01*
X144663475Y-95573368D01*
X144456632Y-95366525D01*
X144282240Y-95250000D01*
X144456632Y-95133475D01*
X144663475Y-94926632D01*
X144825990Y-94683411D01*
X144937932Y-94413158D01*
X144995000Y-94126260D01*
X144995000Y-93833740D01*
X144937932Y-93546842D01*
X144825990Y-93276589D01*
X144663475Y-93033368D01*
X144456632Y-92826525D01*
X144282240Y-92710000D01*
X144456632Y-92593475D01*
X144663475Y-92386632D01*
X144825990Y-92143411D01*
X144937932Y-91873158D01*
X144995000Y-91586260D01*
X144995000Y-91293740D01*
X144937932Y-91006842D01*
X144825990Y-90736589D01*
X144663475Y-90493368D01*
X144456632Y-90286525D01*
X144282240Y-90170000D01*
X144456632Y-90053475D01*
X144663475Y-89846632D01*
X144825990Y-89603411D01*
X144937932Y-89333158D01*
X144995000Y-89046260D01*
X144995000Y-88753740D01*
X144937932Y-88466842D01*
X144825990Y-88196589D01*
X144663475Y-87953368D01*
X144456632Y-87746525D01*
X144274466Y-87624805D01*
X144391355Y-87555178D01*
X144607588Y-87360269D01*
X144781641Y-87126920D01*
X144906825Y-86864099D01*
X144951476Y-86716890D01*
X144830155Y-86487000D01*
X143637000Y-86487000D01*
X143637000Y-86507000D01*
X143383000Y-86507000D01*
X143383000Y-86487000D01*
X143363000Y-86487000D01*
X143363000Y-86233000D01*
X143383000Y-86233000D01*
X143383000Y-86213000D01*
X143637000Y-86213000D01*
X143637000Y-86233000D01*
X144830155Y-86233000D01*
X144951476Y-86003110D01*
X144906825Y-85855901D01*
X144781641Y-85593080D01*
X144607588Y-85359731D01*
X144391355Y-85164822D01*
X144274466Y-85095195D01*
X144456632Y-84973475D01*
X144663475Y-84766632D01*
X144825990Y-84523411D01*
X144937932Y-84253158D01*
X144995000Y-83966260D01*
X144995000Y-83673740D01*
X144937932Y-83386842D01*
X144825990Y-83116589D01*
X144663475Y-82873368D01*
X144531620Y-82741513D01*
X144604180Y-82719502D01*
X144714494Y-82660537D01*
X144811185Y-82581185D01*
X144890537Y-82484494D01*
X144949502Y-82374180D01*
X144985812Y-82254482D01*
X144998072Y-82130000D01*
X144995000Y-81565750D01*
X144836250Y-81407000D01*
X143637000Y-81407000D01*
X143637000Y-81427000D01*
X143383000Y-81427000D01*
X143383000Y-81407000D01*
X142183750Y-81407000D01*
X142025000Y-81565750D01*
X142021928Y-82130000D01*
X142034188Y-82254482D01*
X142070498Y-82374180D01*
X142129463Y-82484494D01*
X142208815Y-82581185D01*
X142305506Y-82660537D01*
X142415820Y-82719502D01*
X142488380Y-82741513D01*
X142356525Y-82873368D01*
X142194010Y-83116589D01*
X142082068Y-83386842D01*
X142025000Y-83673740D01*
X142025000Y-83966260D01*
X142068791Y-84186408D01*
X141824002Y-84431197D01*
X141794998Y-84455000D01*
X141739870Y-84522175D01*
X141700025Y-84570725D01*
X141648454Y-84667207D01*
X141629453Y-84702755D01*
X141585996Y-84846016D01*
X141579529Y-84911674D01*
X139480165Y-87011038D01*
X139438933Y-86933899D01*
X139259609Y-86715392D01*
X139041102Y-86536068D01*
X138791809Y-86402818D01*
X138521310Y-86320764D01*
X138310493Y-86300000D01*
X137769509Y-86300000D01*
X137558692Y-86320764D01*
X137288193Y-86402818D01*
X137038900Y-86536068D01*
X136820393Y-86715392D01*
X136641069Y-86933899D01*
X136507819Y-87183192D01*
X136425765Y-87453691D01*
X136398058Y-87735000D01*
X136425765Y-88016309D01*
X136507819Y-88286808D01*
X136641069Y-88536101D01*
X136820393Y-88754608D01*
X137038900Y-88933932D01*
X137288193Y-89067182D01*
X137392409Y-89098795D01*
X136375001Y-90116203D01*
X136375001Y-89933061D01*
X136335227Y-89733102D01*
X136257206Y-89544744D01*
X136143938Y-89375226D01*
X135999775Y-89231063D01*
X135830257Y-89117795D01*
X135641899Y-89039774D01*
X135441940Y-89000000D01*
X135238062Y-89000000D01*
X135038103Y-89039774D01*
X134849745Y-89117795D01*
X134680227Y-89231063D01*
X134536064Y-89375226D01*
X134422796Y-89544744D01*
X134344775Y-89733102D01*
X134305001Y-89933061D01*
X134305001Y-90136939D01*
X134344775Y-90336898D01*
X134422796Y-90525256D01*
X134536064Y-90694774D01*
X134645744Y-90804454D01*
X134145987Y-91304212D01*
X133941102Y-91136068D01*
X133691809Y-91002818D01*
X133421310Y-90920764D01*
X133210493Y-90900000D01*
X132669509Y-90900000D01*
X132458692Y-90920764D01*
X132188193Y-91002818D01*
X131938900Y-91136068D01*
X131720393Y-91315392D01*
X131541069Y-91533899D01*
X131440001Y-91722984D01*
X131338933Y-91533899D01*
X131159609Y-91315392D01*
X130941102Y-91136068D01*
X130691809Y-91002818D01*
X130421310Y-90920764D01*
X130210493Y-90900000D01*
X129669509Y-90900000D01*
X129458692Y-90920764D01*
X129188193Y-91002818D01*
X128938900Y-91136068D01*
X128720393Y-91315392D01*
X128541069Y-91533899D01*
X128407819Y-91783192D01*
X128325765Y-92053691D01*
X128298058Y-92335000D01*
X127685000Y-92335000D01*
X127685000Y-90842126D01*
X127849745Y-90952205D01*
X128038103Y-91030226D01*
X128238062Y-91070000D01*
X128441940Y-91070000D01*
X128641899Y-91030226D01*
X128830257Y-90952205D01*
X128999775Y-90838937D01*
X129143938Y-90694774D01*
X129257206Y-90525256D01*
X129335227Y-90336898D01*
X129375001Y-90136939D01*
X129375001Y-89933061D01*
X129335227Y-89733102D01*
X129257206Y-89544744D01*
X129143938Y-89375226D01*
X128999775Y-89231063D01*
X128830257Y-89117795D01*
X128641899Y-89039774D01*
X128441940Y-89000000D01*
X128238062Y-89000000D01*
X128038103Y-89039774D01*
X127849745Y-89117795D01*
X127685000Y-89227874D01*
X127685000Y-80043504D01*
X127699364Y-79897008D01*
X127732176Y-79788330D01*
X127785479Y-79688082D01*
X127857232Y-79600103D01*
X127944707Y-79527737D01*
X128044579Y-79473737D01*
X128153027Y-79440167D01*
X128297331Y-79425000D01*
X136682307Y-79425000D01*
X136556331Y-79550976D01*
M02*
