G04 #@! TF.GenerationSoftware,KiCad,Pcbnew,5.1.5-52549c5~84~ubuntu16.04.1*
G04 #@! TF.CreationDate,2020-03-17T21:52:37-04:00*
G04 #@! TF.ProjectId,arcade_joystick_pcb,61726361-6465-45f6-9a6f-79737469636b,1.0*
G04 #@! TF.SameCoordinates,Original*
G04 #@! TF.FileFunction,Legend,Top*
G04 #@! TF.FilePolarity,Positive*
%FSLAX46Y46*%
G04 Gerber Fmt 4.6, Leading zero omitted, Abs format (unit mm)*
G04 Created by KiCad (PCBNEW 5.1.5-52549c5~84~ubuntu16.04.1) date 2020-03-17 21:52:37*
%MOMM*%
%LPD*%
G04 APERTURE LIST*
%ADD10C,0.120000*%
%ADD11C,0.150000*%
G04 APERTURE END LIST*
D10*
X130777064Y-94975000D02*
X129572936Y-94975000D01*
X130777064Y-96795000D02*
X129572936Y-96795000D01*
X135705436Y-85365000D02*
X136909564Y-85365000D01*
X135705436Y-83545000D02*
X136909564Y-83545000D01*
X137127064Y-94975000D02*
X135922936Y-94975000D01*
X137127064Y-96795000D02*
X135922936Y-96795000D01*
X129355436Y-85365000D02*
X130559564Y-85365000D01*
X129355436Y-83545000D02*
X130559564Y-83545000D01*
X142180000Y-79950000D02*
X143510000Y-79950000D01*
X142180000Y-81280000D02*
X142180000Y-79950000D01*
X142180000Y-82550000D02*
X144840000Y-82550000D01*
X144840000Y-82550000D02*
X144840000Y-100390000D01*
X142180000Y-82550000D02*
X142180000Y-100390000D01*
X142180000Y-100390000D02*
X144840000Y-100390000D01*
D11*
X130008333Y-98157380D02*
X129675000Y-97681190D01*
X129436904Y-98157380D02*
X129436904Y-97157380D01*
X129817857Y-97157380D01*
X129913095Y-97205000D01*
X129960714Y-97252619D01*
X130008333Y-97347857D01*
X130008333Y-97490714D01*
X129960714Y-97585952D01*
X129913095Y-97633571D01*
X129817857Y-97681190D01*
X129436904Y-97681190D01*
X130865476Y-97490714D02*
X130865476Y-98157380D01*
X130627380Y-97109761D02*
X130389285Y-97824047D01*
X131008333Y-97824047D01*
X136140833Y-83087380D02*
X135807500Y-82611190D01*
X135569404Y-83087380D02*
X135569404Y-82087380D01*
X135950357Y-82087380D01*
X136045595Y-82135000D01*
X136093214Y-82182619D01*
X136140833Y-82277857D01*
X136140833Y-82420714D01*
X136093214Y-82515952D01*
X136045595Y-82563571D01*
X135950357Y-82611190D01*
X135569404Y-82611190D01*
X136474166Y-82087380D02*
X137093214Y-82087380D01*
X136759880Y-82468333D01*
X136902738Y-82468333D01*
X136997976Y-82515952D01*
X137045595Y-82563571D01*
X137093214Y-82658809D01*
X137093214Y-82896904D01*
X137045595Y-82992142D01*
X136997976Y-83039761D01*
X136902738Y-83087380D01*
X136617023Y-83087380D01*
X136521785Y-83039761D01*
X136474166Y-82992142D01*
X136358333Y-98157380D02*
X136025000Y-97681190D01*
X135786904Y-98157380D02*
X135786904Y-97157380D01*
X136167857Y-97157380D01*
X136263095Y-97205000D01*
X136310714Y-97252619D01*
X136358333Y-97347857D01*
X136358333Y-97490714D01*
X136310714Y-97585952D01*
X136263095Y-97633571D01*
X136167857Y-97681190D01*
X135786904Y-97681190D01*
X136739285Y-97252619D02*
X136786904Y-97205000D01*
X136882142Y-97157380D01*
X137120238Y-97157380D01*
X137215476Y-97205000D01*
X137263095Y-97252619D01*
X137310714Y-97347857D01*
X137310714Y-97443095D01*
X137263095Y-97585952D01*
X136691666Y-98157380D01*
X137310714Y-98157380D01*
X129790833Y-83087380D02*
X129457500Y-82611190D01*
X129219404Y-83087380D02*
X129219404Y-82087380D01*
X129600357Y-82087380D01*
X129695595Y-82135000D01*
X129743214Y-82182619D01*
X129790833Y-82277857D01*
X129790833Y-82420714D01*
X129743214Y-82515952D01*
X129695595Y-82563571D01*
X129600357Y-82611190D01*
X129219404Y-82611190D01*
X130743214Y-83087380D02*
X130171785Y-83087380D01*
X130457500Y-83087380D02*
X130457500Y-82087380D01*
X130362261Y-82230238D01*
X130267023Y-82325476D01*
X130171785Y-82373095D01*
X140382666Y-100290380D02*
X140382666Y-101004666D01*
X140335047Y-101147523D01*
X140239809Y-101242761D01*
X140096952Y-101290380D01*
X140001714Y-101290380D01*
X140811238Y-100385619D02*
X140858857Y-100338000D01*
X140954095Y-100290380D01*
X141192190Y-100290380D01*
X141287428Y-100338000D01*
X141335047Y-100385619D01*
X141382666Y-100480857D01*
X141382666Y-100576095D01*
X141335047Y-100718952D01*
X140763619Y-101290380D01*
X141382666Y-101290380D01*
X140085238Y-98382380D02*
X140085238Y-99191904D01*
X140132857Y-99287142D01*
X140180476Y-99334761D01*
X140275714Y-99382380D01*
X140466190Y-99382380D01*
X140561428Y-99334761D01*
X140609047Y-99287142D01*
X140656666Y-99191904D01*
X140656666Y-98382380D01*
X141132857Y-99001428D02*
X141894761Y-99001428D01*
X139955238Y-95912380D02*
X139955238Y-96721904D01*
X140002857Y-96817142D01*
X140050476Y-96864761D01*
X140145714Y-96912380D01*
X140336190Y-96912380D01*
X140431428Y-96864761D01*
X140479047Y-96817142D01*
X140526666Y-96721904D01*
X140526666Y-95912380D01*
X141002857Y-96531428D02*
X141764761Y-96531428D01*
X141383809Y-96912380D02*
X141383809Y-96150476D01*
X140580476Y-94422380D02*
X140247142Y-93946190D01*
X140009047Y-94422380D02*
X140009047Y-93422380D01*
X140390000Y-93422380D01*
X140485238Y-93470000D01*
X140532857Y-93517619D01*
X140580476Y-93612857D01*
X140580476Y-93755714D01*
X140532857Y-93850952D01*
X140485238Y-93898571D01*
X140390000Y-93946190D01*
X140009047Y-93946190D01*
X141009047Y-94041428D02*
X141770952Y-94041428D01*
X140490476Y-91882380D02*
X140157142Y-91406190D01*
X139919047Y-91882380D02*
X139919047Y-90882380D01*
X140300000Y-90882380D01*
X140395238Y-90930000D01*
X140442857Y-90977619D01*
X140490476Y-91072857D01*
X140490476Y-91215714D01*
X140442857Y-91310952D01*
X140395238Y-91358571D01*
X140300000Y-91406190D01*
X139919047Y-91406190D01*
X140919047Y-91501428D02*
X141680952Y-91501428D01*
X141300000Y-91882380D02*
X141300000Y-91120476D01*
X139849047Y-89302380D02*
X139849047Y-88302380D01*
X140087142Y-88302380D01*
X140230000Y-88350000D01*
X140325238Y-88445238D01*
X140372857Y-88540476D01*
X140420476Y-88730952D01*
X140420476Y-88873809D01*
X140372857Y-89064285D01*
X140325238Y-89159523D01*
X140230000Y-89254761D01*
X140087142Y-89302380D01*
X139849047Y-89302380D01*
X140849047Y-88921428D02*
X141610952Y-88921428D01*
X139879047Y-86842380D02*
X139879047Y-85842380D01*
X140117142Y-85842380D01*
X140260000Y-85890000D01*
X140355238Y-85985238D01*
X140402857Y-86080476D01*
X140450476Y-86270952D01*
X140450476Y-86413809D01*
X140402857Y-86604285D01*
X140355238Y-86699523D01*
X140260000Y-86794761D01*
X140117142Y-86842380D01*
X139879047Y-86842380D01*
X140879047Y-86461428D02*
X141640952Y-86461428D01*
X141260000Y-86842380D02*
X141260000Y-86080476D01*
X140390476Y-84252380D02*
X139914285Y-84252380D01*
X139914285Y-83252380D01*
X140723809Y-83871428D02*
X141485714Y-83871428D01*
X140340476Y-81672380D02*
X139864285Y-81672380D01*
X139864285Y-80672380D01*
X140673809Y-81291428D02*
X141435714Y-81291428D01*
X141054761Y-81672380D02*
X141054761Y-80910476D01*
M02*
