G04 #@! TF.GenerationSoftware,KiCad,Pcbnew,5.1.5-52549c5~84~ubuntu16.04.1*
G04 #@! TF.CreationDate,2020-03-17T21:52:37-04:00*
G04 #@! TF.ProjectId,arcade_joystick_pcb,61726361-6465-45f6-9a6f-79737469636b,1.0*
G04 #@! TF.SameCoordinates,Original*
G04 #@! TF.FileFunction,Copper,L1,Top*
G04 #@! TF.FilePolarity,Positive*
%FSLAX46Y46*%
G04 Gerber Fmt 4.6, Leading zero omitted, Abs format (unit mm)*
G04 Created by KiCad (PCBNEW 5.1.5-52549c5~84~ubuntu16.04.1) date 2020-03-17 21:52:37*
%MOMM*%
%LPD*%
G04 APERTURE LIST*
%ADD10C,0.100000*%
%ADD11O,1.700000X1.700000*%
%ADD12R,1.700000X1.700000*%
%ADD13O,2.000000X1.600000*%
%ADD14C,0.800000*%
%ADD15C,0.250000*%
%ADD16C,0.254000*%
G04 APERTURE END LIST*
G04 #@! TA.AperFunction,SMDPad,CuDef*
D10*
G36*
X129174504Y-95011204D02*
G01*
X129198773Y-95014804D01*
X129222571Y-95020765D01*
X129245671Y-95029030D01*
X129267849Y-95039520D01*
X129288893Y-95052133D01*
X129308598Y-95066747D01*
X129326777Y-95083223D01*
X129343253Y-95101402D01*
X129357867Y-95121107D01*
X129370480Y-95142151D01*
X129380970Y-95164329D01*
X129389235Y-95187429D01*
X129395196Y-95211227D01*
X129398796Y-95235496D01*
X129400000Y-95260000D01*
X129400000Y-96510000D01*
X129398796Y-96534504D01*
X129395196Y-96558773D01*
X129389235Y-96582571D01*
X129380970Y-96605671D01*
X129370480Y-96627849D01*
X129357867Y-96648893D01*
X129343253Y-96668598D01*
X129326777Y-96686777D01*
X129308598Y-96703253D01*
X129288893Y-96717867D01*
X129267849Y-96730480D01*
X129245671Y-96740970D01*
X129222571Y-96749235D01*
X129198773Y-96755196D01*
X129174504Y-96758796D01*
X129150000Y-96760000D01*
X128400000Y-96760000D01*
X128375496Y-96758796D01*
X128351227Y-96755196D01*
X128327429Y-96749235D01*
X128304329Y-96740970D01*
X128282151Y-96730480D01*
X128261107Y-96717867D01*
X128241402Y-96703253D01*
X128223223Y-96686777D01*
X128206747Y-96668598D01*
X128192133Y-96648893D01*
X128179520Y-96627849D01*
X128169030Y-96605671D01*
X128160765Y-96582571D01*
X128154804Y-96558773D01*
X128151204Y-96534504D01*
X128150000Y-96510000D01*
X128150000Y-95260000D01*
X128151204Y-95235496D01*
X128154804Y-95211227D01*
X128160765Y-95187429D01*
X128169030Y-95164329D01*
X128179520Y-95142151D01*
X128192133Y-95121107D01*
X128206747Y-95101402D01*
X128223223Y-95083223D01*
X128241402Y-95066747D01*
X128261107Y-95052133D01*
X128282151Y-95039520D01*
X128304329Y-95029030D01*
X128327429Y-95020765D01*
X128351227Y-95014804D01*
X128375496Y-95011204D01*
X128400000Y-95010000D01*
X129150000Y-95010000D01*
X129174504Y-95011204D01*
G37*
G04 #@! TD.AperFunction*
G04 #@! TA.AperFunction,SMDPad,CuDef*
G36*
X131974504Y-95011204D02*
G01*
X131998773Y-95014804D01*
X132022571Y-95020765D01*
X132045671Y-95029030D01*
X132067849Y-95039520D01*
X132088893Y-95052133D01*
X132108598Y-95066747D01*
X132126777Y-95083223D01*
X132143253Y-95101402D01*
X132157867Y-95121107D01*
X132170480Y-95142151D01*
X132180970Y-95164329D01*
X132189235Y-95187429D01*
X132195196Y-95211227D01*
X132198796Y-95235496D01*
X132200000Y-95260000D01*
X132200000Y-96510000D01*
X132198796Y-96534504D01*
X132195196Y-96558773D01*
X132189235Y-96582571D01*
X132180970Y-96605671D01*
X132170480Y-96627849D01*
X132157867Y-96648893D01*
X132143253Y-96668598D01*
X132126777Y-96686777D01*
X132108598Y-96703253D01*
X132088893Y-96717867D01*
X132067849Y-96730480D01*
X132045671Y-96740970D01*
X132022571Y-96749235D01*
X131998773Y-96755196D01*
X131974504Y-96758796D01*
X131950000Y-96760000D01*
X131200000Y-96760000D01*
X131175496Y-96758796D01*
X131151227Y-96755196D01*
X131127429Y-96749235D01*
X131104329Y-96740970D01*
X131082151Y-96730480D01*
X131061107Y-96717867D01*
X131041402Y-96703253D01*
X131023223Y-96686777D01*
X131006747Y-96668598D01*
X130992133Y-96648893D01*
X130979520Y-96627849D01*
X130969030Y-96605671D01*
X130960765Y-96582571D01*
X130954804Y-96558773D01*
X130951204Y-96534504D01*
X130950000Y-96510000D01*
X130950000Y-95260000D01*
X130951204Y-95235496D01*
X130954804Y-95211227D01*
X130960765Y-95187429D01*
X130969030Y-95164329D01*
X130979520Y-95142151D01*
X130992133Y-95121107D01*
X131006747Y-95101402D01*
X131023223Y-95083223D01*
X131041402Y-95066747D01*
X131061107Y-95052133D01*
X131082151Y-95039520D01*
X131104329Y-95029030D01*
X131127429Y-95020765D01*
X131151227Y-95014804D01*
X131175496Y-95011204D01*
X131200000Y-95010000D01*
X131950000Y-95010000D01*
X131974504Y-95011204D01*
G37*
G04 #@! TD.AperFunction*
G04 #@! TA.AperFunction,SMDPad,CuDef*
G36*
X138107004Y-83581204D02*
G01*
X138131273Y-83584804D01*
X138155071Y-83590765D01*
X138178171Y-83599030D01*
X138200349Y-83609520D01*
X138221393Y-83622133D01*
X138241098Y-83636747D01*
X138259277Y-83653223D01*
X138275753Y-83671402D01*
X138290367Y-83691107D01*
X138302980Y-83712151D01*
X138313470Y-83734329D01*
X138321735Y-83757429D01*
X138327696Y-83781227D01*
X138331296Y-83805496D01*
X138332500Y-83830000D01*
X138332500Y-85080000D01*
X138331296Y-85104504D01*
X138327696Y-85128773D01*
X138321735Y-85152571D01*
X138313470Y-85175671D01*
X138302980Y-85197849D01*
X138290367Y-85218893D01*
X138275753Y-85238598D01*
X138259277Y-85256777D01*
X138241098Y-85273253D01*
X138221393Y-85287867D01*
X138200349Y-85300480D01*
X138178171Y-85310970D01*
X138155071Y-85319235D01*
X138131273Y-85325196D01*
X138107004Y-85328796D01*
X138082500Y-85330000D01*
X137332500Y-85330000D01*
X137307996Y-85328796D01*
X137283727Y-85325196D01*
X137259929Y-85319235D01*
X137236829Y-85310970D01*
X137214651Y-85300480D01*
X137193607Y-85287867D01*
X137173902Y-85273253D01*
X137155723Y-85256777D01*
X137139247Y-85238598D01*
X137124633Y-85218893D01*
X137112020Y-85197849D01*
X137101530Y-85175671D01*
X137093265Y-85152571D01*
X137087304Y-85128773D01*
X137083704Y-85104504D01*
X137082500Y-85080000D01*
X137082500Y-83830000D01*
X137083704Y-83805496D01*
X137087304Y-83781227D01*
X137093265Y-83757429D01*
X137101530Y-83734329D01*
X137112020Y-83712151D01*
X137124633Y-83691107D01*
X137139247Y-83671402D01*
X137155723Y-83653223D01*
X137173902Y-83636747D01*
X137193607Y-83622133D01*
X137214651Y-83609520D01*
X137236829Y-83599030D01*
X137259929Y-83590765D01*
X137283727Y-83584804D01*
X137307996Y-83581204D01*
X137332500Y-83580000D01*
X138082500Y-83580000D01*
X138107004Y-83581204D01*
G37*
G04 #@! TD.AperFunction*
G04 #@! TA.AperFunction,SMDPad,CuDef*
G36*
X135307004Y-83581204D02*
G01*
X135331273Y-83584804D01*
X135355071Y-83590765D01*
X135378171Y-83599030D01*
X135400349Y-83609520D01*
X135421393Y-83622133D01*
X135441098Y-83636747D01*
X135459277Y-83653223D01*
X135475753Y-83671402D01*
X135490367Y-83691107D01*
X135502980Y-83712151D01*
X135513470Y-83734329D01*
X135521735Y-83757429D01*
X135527696Y-83781227D01*
X135531296Y-83805496D01*
X135532500Y-83830000D01*
X135532500Y-85080000D01*
X135531296Y-85104504D01*
X135527696Y-85128773D01*
X135521735Y-85152571D01*
X135513470Y-85175671D01*
X135502980Y-85197849D01*
X135490367Y-85218893D01*
X135475753Y-85238598D01*
X135459277Y-85256777D01*
X135441098Y-85273253D01*
X135421393Y-85287867D01*
X135400349Y-85300480D01*
X135378171Y-85310970D01*
X135355071Y-85319235D01*
X135331273Y-85325196D01*
X135307004Y-85328796D01*
X135282500Y-85330000D01*
X134532500Y-85330000D01*
X134507996Y-85328796D01*
X134483727Y-85325196D01*
X134459929Y-85319235D01*
X134436829Y-85310970D01*
X134414651Y-85300480D01*
X134393607Y-85287867D01*
X134373902Y-85273253D01*
X134355723Y-85256777D01*
X134339247Y-85238598D01*
X134324633Y-85218893D01*
X134312020Y-85197849D01*
X134301530Y-85175671D01*
X134293265Y-85152571D01*
X134287304Y-85128773D01*
X134283704Y-85104504D01*
X134282500Y-85080000D01*
X134282500Y-83830000D01*
X134283704Y-83805496D01*
X134287304Y-83781227D01*
X134293265Y-83757429D01*
X134301530Y-83734329D01*
X134312020Y-83712151D01*
X134324633Y-83691107D01*
X134339247Y-83671402D01*
X134355723Y-83653223D01*
X134373902Y-83636747D01*
X134393607Y-83622133D01*
X134414651Y-83609520D01*
X134436829Y-83599030D01*
X134459929Y-83590765D01*
X134483727Y-83584804D01*
X134507996Y-83581204D01*
X134532500Y-83580000D01*
X135282500Y-83580000D01*
X135307004Y-83581204D01*
G37*
G04 #@! TD.AperFunction*
G04 #@! TA.AperFunction,SMDPad,CuDef*
G36*
X135524504Y-95011204D02*
G01*
X135548773Y-95014804D01*
X135572571Y-95020765D01*
X135595671Y-95029030D01*
X135617849Y-95039520D01*
X135638893Y-95052133D01*
X135658598Y-95066747D01*
X135676777Y-95083223D01*
X135693253Y-95101402D01*
X135707867Y-95121107D01*
X135720480Y-95142151D01*
X135730970Y-95164329D01*
X135739235Y-95187429D01*
X135745196Y-95211227D01*
X135748796Y-95235496D01*
X135750000Y-95260000D01*
X135750000Y-96510000D01*
X135748796Y-96534504D01*
X135745196Y-96558773D01*
X135739235Y-96582571D01*
X135730970Y-96605671D01*
X135720480Y-96627849D01*
X135707867Y-96648893D01*
X135693253Y-96668598D01*
X135676777Y-96686777D01*
X135658598Y-96703253D01*
X135638893Y-96717867D01*
X135617849Y-96730480D01*
X135595671Y-96740970D01*
X135572571Y-96749235D01*
X135548773Y-96755196D01*
X135524504Y-96758796D01*
X135500000Y-96760000D01*
X134750000Y-96760000D01*
X134725496Y-96758796D01*
X134701227Y-96755196D01*
X134677429Y-96749235D01*
X134654329Y-96740970D01*
X134632151Y-96730480D01*
X134611107Y-96717867D01*
X134591402Y-96703253D01*
X134573223Y-96686777D01*
X134556747Y-96668598D01*
X134542133Y-96648893D01*
X134529520Y-96627849D01*
X134519030Y-96605671D01*
X134510765Y-96582571D01*
X134504804Y-96558773D01*
X134501204Y-96534504D01*
X134500000Y-96510000D01*
X134500000Y-95260000D01*
X134501204Y-95235496D01*
X134504804Y-95211227D01*
X134510765Y-95187429D01*
X134519030Y-95164329D01*
X134529520Y-95142151D01*
X134542133Y-95121107D01*
X134556747Y-95101402D01*
X134573223Y-95083223D01*
X134591402Y-95066747D01*
X134611107Y-95052133D01*
X134632151Y-95039520D01*
X134654329Y-95029030D01*
X134677429Y-95020765D01*
X134701227Y-95014804D01*
X134725496Y-95011204D01*
X134750000Y-95010000D01*
X135500000Y-95010000D01*
X135524504Y-95011204D01*
G37*
G04 #@! TD.AperFunction*
G04 #@! TA.AperFunction,SMDPad,CuDef*
G36*
X138324504Y-95011204D02*
G01*
X138348773Y-95014804D01*
X138372571Y-95020765D01*
X138395671Y-95029030D01*
X138417849Y-95039520D01*
X138438893Y-95052133D01*
X138458598Y-95066747D01*
X138476777Y-95083223D01*
X138493253Y-95101402D01*
X138507867Y-95121107D01*
X138520480Y-95142151D01*
X138530970Y-95164329D01*
X138539235Y-95187429D01*
X138545196Y-95211227D01*
X138548796Y-95235496D01*
X138550000Y-95260000D01*
X138550000Y-96510000D01*
X138548796Y-96534504D01*
X138545196Y-96558773D01*
X138539235Y-96582571D01*
X138530970Y-96605671D01*
X138520480Y-96627849D01*
X138507867Y-96648893D01*
X138493253Y-96668598D01*
X138476777Y-96686777D01*
X138458598Y-96703253D01*
X138438893Y-96717867D01*
X138417849Y-96730480D01*
X138395671Y-96740970D01*
X138372571Y-96749235D01*
X138348773Y-96755196D01*
X138324504Y-96758796D01*
X138300000Y-96760000D01*
X137550000Y-96760000D01*
X137525496Y-96758796D01*
X137501227Y-96755196D01*
X137477429Y-96749235D01*
X137454329Y-96740970D01*
X137432151Y-96730480D01*
X137411107Y-96717867D01*
X137391402Y-96703253D01*
X137373223Y-96686777D01*
X137356747Y-96668598D01*
X137342133Y-96648893D01*
X137329520Y-96627849D01*
X137319030Y-96605671D01*
X137310765Y-96582571D01*
X137304804Y-96558773D01*
X137301204Y-96534504D01*
X137300000Y-96510000D01*
X137300000Y-95260000D01*
X137301204Y-95235496D01*
X137304804Y-95211227D01*
X137310765Y-95187429D01*
X137319030Y-95164329D01*
X137329520Y-95142151D01*
X137342133Y-95121107D01*
X137356747Y-95101402D01*
X137373223Y-95083223D01*
X137391402Y-95066747D01*
X137411107Y-95052133D01*
X137432151Y-95039520D01*
X137454329Y-95029030D01*
X137477429Y-95020765D01*
X137501227Y-95014804D01*
X137525496Y-95011204D01*
X137550000Y-95010000D01*
X138300000Y-95010000D01*
X138324504Y-95011204D01*
G37*
G04 #@! TD.AperFunction*
G04 #@! TA.AperFunction,SMDPad,CuDef*
G36*
X131757004Y-83581204D02*
G01*
X131781273Y-83584804D01*
X131805071Y-83590765D01*
X131828171Y-83599030D01*
X131850349Y-83609520D01*
X131871393Y-83622133D01*
X131891098Y-83636747D01*
X131909277Y-83653223D01*
X131925753Y-83671402D01*
X131940367Y-83691107D01*
X131952980Y-83712151D01*
X131963470Y-83734329D01*
X131971735Y-83757429D01*
X131977696Y-83781227D01*
X131981296Y-83805496D01*
X131982500Y-83830000D01*
X131982500Y-85080000D01*
X131981296Y-85104504D01*
X131977696Y-85128773D01*
X131971735Y-85152571D01*
X131963470Y-85175671D01*
X131952980Y-85197849D01*
X131940367Y-85218893D01*
X131925753Y-85238598D01*
X131909277Y-85256777D01*
X131891098Y-85273253D01*
X131871393Y-85287867D01*
X131850349Y-85300480D01*
X131828171Y-85310970D01*
X131805071Y-85319235D01*
X131781273Y-85325196D01*
X131757004Y-85328796D01*
X131732500Y-85330000D01*
X130982500Y-85330000D01*
X130957996Y-85328796D01*
X130933727Y-85325196D01*
X130909929Y-85319235D01*
X130886829Y-85310970D01*
X130864651Y-85300480D01*
X130843607Y-85287867D01*
X130823902Y-85273253D01*
X130805723Y-85256777D01*
X130789247Y-85238598D01*
X130774633Y-85218893D01*
X130762020Y-85197849D01*
X130751530Y-85175671D01*
X130743265Y-85152571D01*
X130737304Y-85128773D01*
X130733704Y-85104504D01*
X130732500Y-85080000D01*
X130732500Y-83830000D01*
X130733704Y-83805496D01*
X130737304Y-83781227D01*
X130743265Y-83757429D01*
X130751530Y-83734329D01*
X130762020Y-83712151D01*
X130774633Y-83691107D01*
X130789247Y-83671402D01*
X130805723Y-83653223D01*
X130823902Y-83636747D01*
X130843607Y-83622133D01*
X130864651Y-83609520D01*
X130886829Y-83599030D01*
X130909929Y-83590765D01*
X130933727Y-83584804D01*
X130957996Y-83581204D01*
X130982500Y-83580000D01*
X131732500Y-83580000D01*
X131757004Y-83581204D01*
G37*
G04 #@! TD.AperFunction*
G04 #@! TA.AperFunction,SMDPad,CuDef*
G36*
X128957004Y-83581204D02*
G01*
X128981273Y-83584804D01*
X129005071Y-83590765D01*
X129028171Y-83599030D01*
X129050349Y-83609520D01*
X129071393Y-83622133D01*
X129091098Y-83636747D01*
X129109277Y-83653223D01*
X129125753Y-83671402D01*
X129140367Y-83691107D01*
X129152980Y-83712151D01*
X129163470Y-83734329D01*
X129171735Y-83757429D01*
X129177696Y-83781227D01*
X129181296Y-83805496D01*
X129182500Y-83830000D01*
X129182500Y-85080000D01*
X129181296Y-85104504D01*
X129177696Y-85128773D01*
X129171735Y-85152571D01*
X129163470Y-85175671D01*
X129152980Y-85197849D01*
X129140367Y-85218893D01*
X129125753Y-85238598D01*
X129109277Y-85256777D01*
X129091098Y-85273253D01*
X129071393Y-85287867D01*
X129050349Y-85300480D01*
X129028171Y-85310970D01*
X129005071Y-85319235D01*
X128981273Y-85325196D01*
X128957004Y-85328796D01*
X128932500Y-85330000D01*
X128182500Y-85330000D01*
X128157996Y-85328796D01*
X128133727Y-85325196D01*
X128109929Y-85319235D01*
X128086829Y-85310970D01*
X128064651Y-85300480D01*
X128043607Y-85287867D01*
X128023902Y-85273253D01*
X128005723Y-85256777D01*
X127989247Y-85238598D01*
X127974633Y-85218893D01*
X127962020Y-85197849D01*
X127951530Y-85175671D01*
X127943265Y-85152571D01*
X127937304Y-85128773D01*
X127933704Y-85104504D01*
X127932500Y-85080000D01*
X127932500Y-83830000D01*
X127933704Y-83805496D01*
X127937304Y-83781227D01*
X127943265Y-83757429D01*
X127951530Y-83734329D01*
X127962020Y-83712151D01*
X127974633Y-83691107D01*
X127989247Y-83671402D01*
X128005723Y-83653223D01*
X128023902Y-83636747D01*
X128043607Y-83622133D01*
X128064651Y-83609520D01*
X128086829Y-83599030D01*
X128109929Y-83590765D01*
X128133727Y-83584804D01*
X128157996Y-83581204D01*
X128182500Y-83580000D01*
X128932500Y-83580000D01*
X128957004Y-83581204D01*
G37*
G04 #@! TD.AperFunction*
D11*
X143510000Y-99060000D03*
X143510000Y-96520000D03*
X143510000Y-93980000D03*
X143510000Y-91440000D03*
X143510000Y-88900000D03*
X143510000Y-86360000D03*
X143510000Y-83820000D03*
D12*
X143510000Y-81280000D03*
D13*
X138040001Y-87735000D03*
X136940001Y-92335000D03*
X129940001Y-92335000D03*
X132940001Y-92335000D03*
D14*
X128524000Y-82296000D03*
X138049000Y-97917000D03*
D15*
X138012500Y-97880500D02*
X138049000Y-97917000D01*
X138012500Y-95885000D02*
X138012500Y-97880500D01*
X128470000Y-82350000D02*
X128524000Y-82296000D01*
X128470000Y-84455000D02*
X128470000Y-82350000D01*
X134820000Y-84455000D02*
X131445000Y-84455000D01*
X132740001Y-92335000D02*
X132940001Y-92335000D01*
X131445000Y-91039999D02*
X132740001Y-92335000D01*
X131445000Y-84455000D02*
X131445000Y-91039999D01*
X142334999Y-90264999D02*
X142660001Y-90590001D01*
X142660001Y-90590001D02*
X143510000Y-91440000D01*
X142334999Y-84995001D02*
X142334999Y-90264999D01*
X143510000Y-83820000D02*
X142334999Y-84995001D01*
X134820000Y-84455000D02*
X134820000Y-83480000D01*
X130140001Y-92335000D02*
X129940001Y-92335000D01*
X131662500Y-93857499D02*
X130140001Y-92335000D01*
X131662500Y-95885000D02*
X131662500Y-93857499D01*
X134225000Y-95885000D02*
X131662500Y-95885000D01*
X135037500Y-95885000D02*
X134225000Y-95885000D01*
X141387999Y-98642001D02*
X135980001Y-98642001D01*
X143510000Y-96520000D02*
X141387999Y-98642001D01*
X135037500Y-97699500D02*
X135037500Y-95885000D01*
X135980001Y-98642001D02*
X135037500Y-97699500D01*
D16*
G36*
X136556331Y-79550976D02*
G01*
X136324906Y-79897328D01*
X136165498Y-80282173D01*
X136084232Y-80690723D01*
X136084232Y-81107277D01*
X136165498Y-81515827D01*
X136324906Y-81900672D01*
X136556331Y-82247024D01*
X136850879Y-82541572D01*
X137197231Y-82772997D01*
X137582076Y-82932405D01*
X137645395Y-82945000D01*
X137580498Y-82945000D01*
X137580498Y-83103748D01*
X137421750Y-82945000D01*
X137082500Y-82941928D01*
X136958018Y-82954188D01*
X136838320Y-82990498D01*
X136728006Y-83049463D01*
X136631315Y-83128815D01*
X136551963Y-83225506D01*
X136492998Y-83335820D01*
X136456688Y-83455518D01*
X136444428Y-83580000D01*
X136447500Y-84169250D01*
X136606250Y-84328000D01*
X137580500Y-84328000D01*
X137580500Y-84308000D01*
X137834500Y-84308000D01*
X137834500Y-84328000D01*
X138808750Y-84328000D01*
X138967500Y-84169250D01*
X138970572Y-83580000D01*
X138958312Y-83455518D01*
X138922002Y-83335820D01*
X138863037Y-83225506D01*
X138783685Y-83128815D01*
X138686994Y-83049463D01*
X138576680Y-82990498D01*
X138555689Y-82984131D01*
X138815730Y-82932405D01*
X139200575Y-82772997D01*
X139546927Y-82541572D01*
X139841475Y-82247024D01*
X140072900Y-81900672D01*
X140232308Y-81515827D01*
X140313574Y-81107277D01*
X140313574Y-80690723D01*
X140232308Y-80282173D01*
X140072900Y-79897328D01*
X139841475Y-79550976D01*
X139715499Y-79425000D01*
X144746496Y-79425000D01*
X144892992Y-79439364D01*
X145001670Y-79472176D01*
X145101918Y-79525479D01*
X145189897Y-79597232D01*
X145262263Y-79684707D01*
X145316263Y-79784579D01*
X145349833Y-79893027D01*
X145365000Y-80037331D01*
X145365001Y-100296486D01*
X145350636Y-100442992D01*
X145317823Y-100551672D01*
X145264522Y-100651917D01*
X145192769Y-100739895D01*
X145105292Y-100812263D01*
X145005420Y-100866263D01*
X144896973Y-100899833D01*
X144752669Y-100915000D01*
X134380103Y-100915000D01*
X134698024Y-100702572D01*
X134992572Y-100408024D01*
X135223997Y-100061672D01*
X135383405Y-99676827D01*
X135464671Y-99268277D01*
X135464671Y-99202249D01*
X135555725Y-99276975D01*
X135687754Y-99347547D01*
X135831015Y-99391004D01*
X135942668Y-99402001D01*
X135942676Y-99402001D01*
X135980001Y-99405677D01*
X136017326Y-99402001D01*
X141350677Y-99402001D01*
X141387999Y-99405677D01*
X141425321Y-99402001D01*
X141425332Y-99402001D01*
X141536985Y-99391004D01*
X141680246Y-99347547D01*
X141812275Y-99276975D01*
X141928000Y-99182002D01*
X141951803Y-99152998D01*
X142025000Y-99079801D01*
X142025000Y-99187002D01*
X142189844Y-99187002D01*
X142068524Y-99416890D01*
X142113175Y-99564099D01*
X142238359Y-99826920D01*
X142412412Y-100060269D01*
X142628645Y-100255178D01*
X142878748Y-100404157D01*
X143153109Y-100501481D01*
X143383000Y-100380814D01*
X143383000Y-99187000D01*
X143637000Y-99187000D01*
X143637000Y-100380814D01*
X143866891Y-100501481D01*
X144141252Y-100404157D01*
X144391355Y-100255178D01*
X144607588Y-100060269D01*
X144781641Y-99826920D01*
X144906825Y-99564099D01*
X144951476Y-99416890D01*
X144830155Y-99187000D01*
X143637000Y-99187000D01*
X143383000Y-99187000D01*
X143363000Y-99187000D01*
X143363000Y-98933000D01*
X143383000Y-98933000D01*
X143383000Y-98913000D01*
X143637000Y-98913000D01*
X143637000Y-98933000D01*
X144830155Y-98933000D01*
X144951476Y-98703110D01*
X144906825Y-98555901D01*
X144781641Y-98293080D01*
X144607588Y-98059731D01*
X144391355Y-97864822D01*
X144274466Y-97795195D01*
X144456632Y-97673475D01*
X144663475Y-97466632D01*
X144825990Y-97223411D01*
X144937932Y-96953158D01*
X144995000Y-96666260D01*
X144995000Y-96373740D01*
X144937932Y-96086842D01*
X144825990Y-95816589D01*
X144663475Y-95573368D01*
X144456632Y-95366525D01*
X144274466Y-95244805D01*
X144391355Y-95175178D01*
X144607588Y-94980269D01*
X144781641Y-94746920D01*
X144906825Y-94484099D01*
X144951476Y-94336890D01*
X144830155Y-94107000D01*
X143637000Y-94107000D01*
X143637000Y-94127000D01*
X143383000Y-94127000D01*
X143383000Y-94107000D01*
X142189845Y-94107000D01*
X142068524Y-94336890D01*
X142113175Y-94484099D01*
X142238359Y-94746920D01*
X142412412Y-94980269D01*
X142628645Y-95175178D01*
X142745534Y-95244805D01*
X142563368Y-95366525D01*
X142356525Y-95573368D01*
X142194010Y-95816589D01*
X142082068Y-96086842D01*
X142025000Y-96373740D01*
X142025000Y-96666260D01*
X142068790Y-96886408D01*
X141073198Y-97882001D01*
X139084000Y-97882001D01*
X139084000Y-97815061D01*
X139044226Y-97615102D01*
X138966205Y-97426744D01*
X138852937Y-97257226D01*
X138821249Y-97225538D01*
X138927962Y-97137962D01*
X139038405Y-97003386D01*
X139120472Y-96849850D01*
X139171008Y-96683254D01*
X139188072Y-96510000D01*
X139188072Y-95260000D01*
X139171008Y-95086746D01*
X139120472Y-94920150D01*
X139038405Y-94766614D01*
X138927962Y-94632038D01*
X138793386Y-94521595D01*
X138639850Y-94439528D01*
X138473254Y-94388992D01*
X138300000Y-94371928D01*
X137550000Y-94371928D01*
X137376746Y-94388992D01*
X137210150Y-94439528D01*
X137056614Y-94521595D01*
X136922038Y-94632038D01*
X136811595Y-94766614D01*
X136729528Y-94920150D01*
X136678992Y-95086746D01*
X136661928Y-95260000D01*
X136661928Y-96510000D01*
X136678992Y-96683254D01*
X136729528Y-96849850D01*
X136811595Y-97003386D01*
X136922038Y-97137962D01*
X137056614Y-97248405D01*
X137199813Y-97324947D01*
X137131795Y-97426744D01*
X137053774Y-97615102D01*
X137014000Y-97815061D01*
X137014000Y-97882001D01*
X136294803Y-97882001D01*
X135797500Y-97384699D01*
X135797500Y-97343319D01*
X135839850Y-97330472D01*
X135993386Y-97248405D01*
X136127962Y-97137962D01*
X136238405Y-97003386D01*
X136320472Y-96849850D01*
X136371008Y-96683254D01*
X136388072Y-96510000D01*
X136388072Y-95260000D01*
X136371008Y-95086746D01*
X136320472Y-94920150D01*
X136238405Y-94766614D01*
X136127962Y-94632038D01*
X135993386Y-94521595D01*
X135839850Y-94439528D01*
X135673254Y-94388992D01*
X135500000Y-94371928D01*
X134750000Y-94371928D01*
X134576746Y-94388992D01*
X134410150Y-94439528D01*
X134256614Y-94521595D01*
X134122038Y-94632038D01*
X134011595Y-94766614D01*
X133929528Y-94920150D01*
X133878992Y-95086746D01*
X133875224Y-95125000D01*
X132824776Y-95125000D01*
X132821008Y-95086746D01*
X132770472Y-94920150D01*
X132688405Y-94766614D01*
X132577962Y-94632038D01*
X132443386Y-94521595D01*
X132422500Y-94510431D01*
X132422500Y-93894824D01*
X132426176Y-93857499D01*
X132422500Y-93820174D01*
X132422500Y-93820166D01*
X132414184Y-93735735D01*
X132458692Y-93749236D01*
X132669509Y-93770000D01*
X133210493Y-93770000D01*
X133421310Y-93749236D01*
X133691809Y-93667182D01*
X133941102Y-93533932D01*
X134159609Y-93354608D01*
X134338933Y-93136101D01*
X134472183Y-92886808D01*
X134554237Y-92616309D01*
X134581944Y-92335000D01*
X135298058Y-92335000D01*
X135325765Y-92616309D01*
X135407819Y-92886808D01*
X135541069Y-93136101D01*
X135720393Y-93354608D01*
X135938900Y-93533932D01*
X136188193Y-93667182D01*
X136458692Y-93749236D01*
X136669509Y-93770000D01*
X137210493Y-93770000D01*
X137421310Y-93749236D01*
X137691809Y-93667182D01*
X137941102Y-93533932D01*
X138159609Y-93354608D01*
X138338933Y-93136101D01*
X138472183Y-92886808D01*
X138554237Y-92616309D01*
X138581944Y-92335000D01*
X138554237Y-92053691D01*
X138472183Y-91783192D01*
X138338933Y-91533899D01*
X138159609Y-91315392D01*
X137941102Y-91136068D01*
X137691809Y-91002818D01*
X137421310Y-90920764D01*
X137210493Y-90900000D01*
X136669509Y-90900000D01*
X136458692Y-90920764D01*
X136188193Y-91002818D01*
X135938900Y-91136068D01*
X135720393Y-91315392D01*
X135541069Y-91533899D01*
X135407819Y-91783192D01*
X135325765Y-92053691D01*
X135298058Y-92335000D01*
X134581944Y-92335000D01*
X134554237Y-92053691D01*
X134472183Y-91783192D01*
X134338933Y-91533899D01*
X134159609Y-91315392D01*
X133941102Y-91136068D01*
X133691809Y-91002818D01*
X133421310Y-90920764D01*
X133210493Y-90900000D01*
X132669509Y-90900000D01*
X132458692Y-90920764D01*
X132414095Y-90934292D01*
X132205000Y-90725198D01*
X132205000Y-89933061D01*
X134305001Y-89933061D01*
X134305001Y-90136939D01*
X134344775Y-90336898D01*
X134422796Y-90525256D01*
X134536064Y-90694774D01*
X134680227Y-90838937D01*
X134849745Y-90952205D01*
X135038103Y-91030226D01*
X135238062Y-91070000D01*
X135441940Y-91070000D01*
X135641899Y-91030226D01*
X135830257Y-90952205D01*
X135999775Y-90838937D01*
X136143938Y-90694774D01*
X136257206Y-90525256D01*
X136335227Y-90336898D01*
X136375001Y-90136939D01*
X136375001Y-89933061D01*
X136335227Y-89733102D01*
X136257206Y-89544744D01*
X136143938Y-89375226D01*
X135999775Y-89231063D01*
X135830257Y-89117795D01*
X135641899Y-89039774D01*
X135441940Y-89000000D01*
X135238062Y-89000000D01*
X135038103Y-89039774D01*
X134849745Y-89117795D01*
X134680227Y-89231063D01*
X134536064Y-89375226D01*
X134422796Y-89544744D01*
X134344775Y-89733102D01*
X134305001Y-89933061D01*
X132205000Y-89933061D01*
X132205000Y-88084039D01*
X136448097Y-88084039D01*
X136458557Y-88141730D01*
X136564450Y-88403421D01*
X136719362Y-88639425D01*
X136917339Y-88840673D01*
X137150774Y-88999430D01*
X137410695Y-89109596D01*
X137687114Y-89166937D01*
X137913001Y-89014474D01*
X137913001Y-87862000D01*
X138167001Y-87862000D01*
X138167001Y-89014474D01*
X138392888Y-89166937D01*
X138669307Y-89109596D01*
X138929228Y-88999430D01*
X139162663Y-88840673D01*
X139360640Y-88639425D01*
X139515552Y-88403421D01*
X139621445Y-88141730D01*
X139631905Y-88084039D01*
X139509916Y-87862000D01*
X138167001Y-87862000D01*
X137913001Y-87862000D01*
X136570086Y-87862000D01*
X136448097Y-88084039D01*
X132205000Y-88084039D01*
X132205000Y-87385961D01*
X136448097Y-87385961D01*
X136570086Y-87608000D01*
X137913001Y-87608000D01*
X137913001Y-86455526D01*
X138167001Y-86455526D01*
X138167001Y-87608000D01*
X139509916Y-87608000D01*
X139631905Y-87385961D01*
X139621445Y-87328270D01*
X139515552Y-87066579D01*
X139360640Y-86830575D01*
X139162663Y-86629327D01*
X138929228Y-86470570D01*
X138669307Y-86360404D01*
X138392888Y-86303063D01*
X138167001Y-86455526D01*
X137913001Y-86455526D01*
X137687114Y-86303063D01*
X137410695Y-86360404D01*
X137150774Y-86470570D01*
X136917339Y-86629327D01*
X136719362Y-86830575D01*
X136564450Y-87066579D01*
X136458557Y-87328270D01*
X136448097Y-87385961D01*
X132205000Y-87385961D01*
X132205000Y-85829569D01*
X132225886Y-85818405D01*
X132360462Y-85707962D01*
X132470905Y-85573386D01*
X132552972Y-85419850D01*
X132603508Y-85253254D01*
X132607276Y-85215000D01*
X133657724Y-85215000D01*
X133661492Y-85253254D01*
X133712028Y-85419850D01*
X133794095Y-85573386D01*
X133904538Y-85707962D01*
X134039114Y-85818405D01*
X134192650Y-85900472D01*
X134359246Y-85951008D01*
X134532500Y-85968072D01*
X135282500Y-85968072D01*
X135455754Y-85951008D01*
X135622350Y-85900472D01*
X135775886Y-85818405D01*
X135910462Y-85707962D01*
X136020905Y-85573386D01*
X136102972Y-85419850D01*
X136130227Y-85330000D01*
X136444428Y-85330000D01*
X136456688Y-85454482D01*
X136492998Y-85574180D01*
X136551963Y-85684494D01*
X136631315Y-85781185D01*
X136728006Y-85860537D01*
X136838320Y-85919502D01*
X136958018Y-85955812D01*
X137082500Y-85968072D01*
X137421750Y-85965000D01*
X137580500Y-85806250D01*
X137580500Y-84582000D01*
X137834500Y-84582000D01*
X137834500Y-85806250D01*
X137993250Y-85965000D01*
X138332500Y-85968072D01*
X138456982Y-85955812D01*
X138576680Y-85919502D01*
X138686994Y-85860537D01*
X138783685Y-85781185D01*
X138863037Y-85684494D01*
X138922002Y-85574180D01*
X138958312Y-85454482D01*
X138970572Y-85330000D01*
X138968826Y-84995001D01*
X141571323Y-84995001D01*
X141574999Y-85032324D01*
X141575000Y-90227667D01*
X141571323Y-90264999D01*
X141575000Y-90302332D01*
X141578405Y-90336898D01*
X141585997Y-90413984D01*
X141629453Y-90557245D01*
X141700025Y-90689275D01*
X141771200Y-90776001D01*
X141794999Y-90805000D01*
X141823997Y-90828798D01*
X142068791Y-91073592D01*
X142025000Y-91293740D01*
X142025000Y-91586260D01*
X142082068Y-91873158D01*
X142194010Y-92143411D01*
X142356525Y-92386632D01*
X142563368Y-92593475D01*
X142745534Y-92715195D01*
X142628645Y-92784822D01*
X142412412Y-92979731D01*
X142238359Y-93213080D01*
X142113175Y-93475901D01*
X142068524Y-93623110D01*
X142189845Y-93853000D01*
X143383000Y-93853000D01*
X143383000Y-93833000D01*
X143637000Y-93833000D01*
X143637000Y-93853000D01*
X144830155Y-93853000D01*
X144951476Y-93623110D01*
X144906825Y-93475901D01*
X144781641Y-93213080D01*
X144607588Y-92979731D01*
X144391355Y-92784822D01*
X144274466Y-92715195D01*
X144456632Y-92593475D01*
X144663475Y-92386632D01*
X144825990Y-92143411D01*
X144937932Y-91873158D01*
X144995000Y-91586260D01*
X144995000Y-91293740D01*
X144937932Y-91006842D01*
X144825990Y-90736589D01*
X144663475Y-90493368D01*
X144456632Y-90286525D01*
X144282240Y-90170000D01*
X144456632Y-90053475D01*
X144663475Y-89846632D01*
X144825990Y-89603411D01*
X144937932Y-89333158D01*
X144995000Y-89046260D01*
X144995000Y-88753740D01*
X144937932Y-88466842D01*
X144825990Y-88196589D01*
X144663475Y-87953368D01*
X144456632Y-87746525D01*
X144282240Y-87630000D01*
X144456632Y-87513475D01*
X144663475Y-87306632D01*
X144825990Y-87063411D01*
X144937932Y-86793158D01*
X144995000Y-86506260D01*
X144995000Y-86213740D01*
X144937932Y-85926842D01*
X144825990Y-85656589D01*
X144663475Y-85413368D01*
X144456632Y-85206525D01*
X144282240Y-85090000D01*
X144456632Y-84973475D01*
X144663475Y-84766632D01*
X144825990Y-84523411D01*
X144937932Y-84253158D01*
X144995000Y-83966260D01*
X144995000Y-83673740D01*
X144937932Y-83386842D01*
X144825990Y-83116589D01*
X144663475Y-82873368D01*
X144531620Y-82741513D01*
X144604180Y-82719502D01*
X144714494Y-82660537D01*
X144811185Y-82581185D01*
X144890537Y-82484494D01*
X144949502Y-82374180D01*
X144985812Y-82254482D01*
X144998072Y-82130000D01*
X144998072Y-80430000D01*
X144985812Y-80305518D01*
X144949502Y-80185820D01*
X144890537Y-80075506D01*
X144811185Y-79978815D01*
X144714494Y-79899463D01*
X144604180Y-79840498D01*
X144484482Y-79804188D01*
X144360000Y-79791928D01*
X142660000Y-79791928D01*
X142535518Y-79804188D01*
X142415820Y-79840498D01*
X142305506Y-79899463D01*
X142208815Y-79978815D01*
X142129463Y-80075506D01*
X142070498Y-80185820D01*
X142034188Y-80305518D01*
X142021928Y-80430000D01*
X142021928Y-82130000D01*
X142034188Y-82254482D01*
X142070498Y-82374180D01*
X142129463Y-82484494D01*
X142208815Y-82581185D01*
X142305506Y-82660537D01*
X142415820Y-82719502D01*
X142488380Y-82741513D01*
X142356525Y-82873368D01*
X142194010Y-83116589D01*
X142082068Y-83386842D01*
X142025000Y-83673740D01*
X142025000Y-83966260D01*
X142068791Y-84186408D01*
X141824002Y-84431197D01*
X141794998Y-84455000D01*
X141764361Y-84492332D01*
X141700025Y-84570725D01*
X141682247Y-84603985D01*
X141629453Y-84702755D01*
X141585996Y-84846016D01*
X141574999Y-84957669D01*
X141574999Y-84957679D01*
X141571323Y-84995001D01*
X138968826Y-84995001D01*
X138967500Y-84740750D01*
X138808750Y-84582000D01*
X137834500Y-84582000D01*
X137580500Y-84582000D01*
X136606250Y-84582000D01*
X136447500Y-84740750D01*
X136444428Y-85330000D01*
X136130227Y-85330000D01*
X136153508Y-85253254D01*
X136170572Y-85080000D01*
X136170572Y-83830000D01*
X136153508Y-83656746D01*
X136102972Y-83490150D01*
X136020905Y-83336614D01*
X135910462Y-83202038D01*
X135775886Y-83091595D01*
X135622350Y-83009528D01*
X135455754Y-82958992D01*
X135368539Y-82950402D01*
X135360001Y-82939999D01*
X135244276Y-82845026D01*
X135112247Y-82774454D01*
X134968986Y-82730997D01*
X134820000Y-82716323D01*
X134671015Y-82730997D01*
X134527754Y-82774454D01*
X134395725Y-82845026D01*
X134280000Y-82939999D01*
X134232979Y-82997294D01*
X134192650Y-83009528D01*
X134039114Y-83091595D01*
X133904538Y-83202038D01*
X133794095Y-83336614D01*
X133712028Y-83490150D01*
X133661492Y-83656746D01*
X133657724Y-83695000D01*
X132607276Y-83695000D01*
X132603508Y-83656746D01*
X132552972Y-83490150D01*
X132470905Y-83336614D01*
X132360462Y-83202038D01*
X132225886Y-83091595D01*
X132072350Y-83009528D01*
X131905754Y-82958992D01*
X131732500Y-82941928D01*
X130982500Y-82941928D01*
X130809246Y-82958992D01*
X130642650Y-83009528D01*
X130489114Y-83091595D01*
X130354538Y-83202038D01*
X130244095Y-83336614D01*
X130162028Y-83490150D01*
X130111492Y-83656746D01*
X130094428Y-83830000D01*
X130094428Y-85080000D01*
X130111492Y-85253254D01*
X130162028Y-85419850D01*
X130244095Y-85573386D01*
X130354538Y-85707962D01*
X130489114Y-85818405D01*
X130642650Y-85900472D01*
X130685000Y-85913319D01*
X130685001Y-91000753D01*
X130421310Y-90920764D01*
X130210493Y-90900000D01*
X129669509Y-90900000D01*
X129458692Y-90920764D01*
X129188193Y-91002818D01*
X128938900Y-91136068D01*
X128720393Y-91315392D01*
X128541069Y-91533899D01*
X128407819Y-91783192D01*
X128325765Y-92053691D01*
X128298058Y-92335000D01*
X128325765Y-92616309D01*
X128407819Y-92886808D01*
X128541069Y-93136101D01*
X128720393Y-93354608D01*
X128938900Y-93533932D01*
X129188193Y-93667182D01*
X129458692Y-93749236D01*
X129669509Y-93770000D01*
X130210493Y-93770000D01*
X130421310Y-93749236D01*
X130465907Y-93735708D01*
X130902501Y-94172302D01*
X130902501Y-94426681D01*
X130860150Y-94439528D01*
X130706614Y-94521595D01*
X130572038Y-94632038D01*
X130461595Y-94766614D01*
X130379528Y-94920150D01*
X130328992Y-95086746D01*
X130311928Y-95260000D01*
X130311928Y-96510000D01*
X130328992Y-96683254D01*
X130379528Y-96849850D01*
X130461595Y-97003386D01*
X130572038Y-97137962D01*
X130706614Y-97248405D01*
X130860150Y-97330472D01*
X131026746Y-97381008D01*
X131200000Y-97398072D01*
X131950000Y-97398072D01*
X132044938Y-97388721D01*
X132001976Y-97417428D01*
X131707428Y-97711976D01*
X131476003Y-98058328D01*
X131316595Y-98443173D01*
X131235329Y-98851723D01*
X131235329Y-99268277D01*
X131316595Y-99676827D01*
X131476003Y-100061672D01*
X131707428Y-100408024D01*
X132001976Y-100702572D01*
X132319897Y-100915000D01*
X128303504Y-100915000D01*
X128157008Y-100900636D01*
X128048328Y-100867823D01*
X127948083Y-100814522D01*
X127860105Y-100742769D01*
X127787737Y-100655292D01*
X127733737Y-100555420D01*
X127700167Y-100446973D01*
X127685000Y-100302669D01*
X127685000Y-97194351D01*
X127698815Y-97211185D01*
X127795506Y-97290537D01*
X127905820Y-97349502D01*
X128025518Y-97385812D01*
X128150000Y-97398072D01*
X128489250Y-97395000D01*
X128648000Y-97236250D01*
X128648000Y-96012000D01*
X128902000Y-96012000D01*
X128902000Y-97236250D01*
X129060750Y-97395000D01*
X129400000Y-97398072D01*
X129524482Y-97385812D01*
X129644180Y-97349502D01*
X129754494Y-97290537D01*
X129851185Y-97211185D01*
X129930537Y-97114494D01*
X129989502Y-97004180D01*
X130025812Y-96884482D01*
X130038072Y-96760000D01*
X130035000Y-96170750D01*
X129876250Y-96012000D01*
X128902000Y-96012000D01*
X128648000Y-96012000D01*
X128628000Y-96012000D01*
X128628000Y-95758000D01*
X128648000Y-95758000D01*
X128648000Y-94533750D01*
X128902000Y-94533750D01*
X128902000Y-95758000D01*
X129876250Y-95758000D01*
X130035000Y-95599250D01*
X130038072Y-95010000D01*
X130025812Y-94885518D01*
X129989502Y-94765820D01*
X129930537Y-94655506D01*
X129851185Y-94558815D01*
X129754494Y-94479463D01*
X129644180Y-94420498D01*
X129524482Y-94384188D01*
X129400000Y-94371928D01*
X129060750Y-94375000D01*
X128902000Y-94533750D01*
X128648000Y-94533750D01*
X128489250Y-94375000D01*
X128150000Y-94371928D01*
X128025518Y-94384188D01*
X127905820Y-94420498D01*
X127795506Y-94479463D01*
X127698815Y-94558815D01*
X127685000Y-94575649D01*
X127685000Y-90842126D01*
X127849745Y-90952205D01*
X128038103Y-91030226D01*
X128238062Y-91070000D01*
X128441940Y-91070000D01*
X128641899Y-91030226D01*
X128830257Y-90952205D01*
X128999775Y-90838937D01*
X129143938Y-90694774D01*
X129257206Y-90525256D01*
X129335227Y-90336898D01*
X129375001Y-90136939D01*
X129375001Y-89933061D01*
X129335227Y-89733102D01*
X129257206Y-89544744D01*
X129143938Y-89375226D01*
X128999775Y-89231063D01*
X128830257Y-89117795D01*
X128641899Y-89039774D01*
X128441940Y-89000000D01*
X128238062Y-89000000D01*
X128038103Y-89039774D01*
X127849745Y-89117795D01*
X127685000Y-89227874D01*
X127685000Y-85815029D01*
X127689114Y-85818405D01*
X127842650Y-85900472D01*
X128009246Y-85951008D01*
X128182500Y-85968072D01*
X128932500Y-85968072D01*
X129105754Y-85951008D01*
X129272350Y-85900472D01*
X129425886Y-85818405D01*
X129560462Y-85707962D01*
X129670905Y-85573386D01*
X129752972Y-85419850D01*
X129803508Y-85253254D01*
X129820572Y-85080000D01*
X129820572Y-83830000D01*
X129803508Y-83656746D01*
X129752972Y-83490150D01*
X129670905Y-83336614D01*
X129560462Y-83202038D01*
X129425886Y-83091595D01*
X129273545Y-83010166D01*
X129327937Y-82955774D01*
X129441205Y-82786256D01*
X129519226Y-82597898D01*
X129559000Y-82397939D01*
X129559000Y-82194061D01*
X129519226Y-81994102D01*
X129441205Y-81805744D01*
X129327937Y-81636226D01*
X129183774Y-81492063D01*
X129014256Y-81378795D01*
X128825898Y-81300774D01*
X128625939Y-81261000D01*
X128422061Y-81261000D01*
X128222102Y-81300774D01*
X128033744Y-81378795D01*
X127864226Y-81492063D01*
X127720063Y-81636226D01*
X127685000Y-81688702D01*
X127685000Y-80043504D01*
X127699364Y-79897008D01*
X127732176Y-79788330D01*
X127785479Y-79688082D01*
X127857232Y-79600103D01*
X127944707Y-79527737D01*
X128044579Y-79473737D01*
X128153027Y-79440167D01*
X128297331Y-79425000D01*
X136682307Y-79425000D01*
X136556331Y-79550976D01*
G37*
X136556331Y-79550976D02*
X136324906Y-79897328D01*
X136165498Y-80282173D01*
X136084232Y-80690723D01*
X136084232Y-81107277D01*
X136165498Y-81515827D01*
X136324906Y-81900672D01*
X136556331Y-82247024D01*
X136850879Y-82541572D01*
X137197231Y-82772997D01*
X137582076Y-82932405D01*
X137645395Y-82945000D01*
X137580498Y-82945000D01*
X137580498Y-83103748D01*
X137421750Y-82945000D01*
X137082500Y-82941928D01*
X136958018Y-82954188D01*
X136838320Y-82990498D01*
X136728006Y-83049463D01*
X136631315Y-83128815D01*
X136551963Y-83225506D01*
X136492998Y-83335820D01*
X136456688Y-83455518D01*
X136444428Y-83580000D01*
X136447500Y-84169250D01*
X136606250Y-84328000D01*
X137580500Y-84328000D01*
X137580500Y-84308000D01*
X137834500Y-84308000D01*
X137834500Y-84328000D01*
X138808750Y-84328000D01*
X138967500Y-84169250D01*
X138970572Y-83580000D01*
X138958312Y-83455518D01*
X138922002Y-83335820D01*
X138863037Y-83225506D01*
X138783685Y-83128815D01*
X138686994Y-83049463D01*
X138576680Y-82990498D01*
X138555689Y-82984131D01*
X138815730Y-82932405D01*
X139200575Y-82772997D01*
X139546927Y-82541572D01*
X139841475Y-82247024D01*
X140072900Y-81900672D01*
X140232308Y-81515827D01*
X140313574Y-81107277D01*
X140313574Y-80690723D01*
X140232308Y-80282173D01*
X140072900Y-79897328D01*
X139841475Y-79550976D01*
X139715499Y-79425000D01*
X144746496Y-79425000D01*
X144892992Y-79439364D01*
X145001670Y-79472176D01*
X145101918Y-79525479D01*
X145189897Y-79597232D01*
X145262263Y-79684707D01*
X145316263Y-79784579D01*
X145349833Y-79893027D01*
X145365000Y-80037331D01*
X145365001Y-100296486D01*
X145350636Y-100442992D01*
X145317823Y-100551672D01*
X145264522Y-100651917D01*
X145192769Y-100739895D01*
X145105292Y-100812263D01*
X145005420Y-100866263D01*
X144896973Y-100899833D01*
X144752669Y-100915000D01*
X134380103Y-100915000D01*
X134698024Y-100702572D01*
X134992572Y-100408024D01*
X135223997Y-100061672D01*
X135383405Y-99676827D01*
X135464671Y-99268277D01*
X135464671Y-99202249D01*
X135555725Y-99276975D01*
X135687754Y-99347547D01*
X135831015Y-99391004D01*
X135942668Y-99402001D01*
X135942676Y-99402001D01*
X135980001Y-99405677D01*
X136017326Y-99402001D01*
X141350677Y-99402001D01*
X141387999Y-99405677D01*
X141425321Y-99402001D01*
X141425332Y-99402001D01*
X141536985Y-99391004D01*
X141680246Y-99347547D01*
X141812275Y-99276975D01*
X141928000Y-99182002D01*
X141951803Y-99152998D01*
X142025000Y-99079801D01*
X142025000Y-99187002D01*
X142189844Y-99187002D01*
X142068524Y-99416890D01*
X142113175Y-99564099D01*
X142238359Y-99826920D01*
X142412412Y-100060269D01*
X142628645Y-100255178D01*
X142878748Y-100404157D01*
X143153109Y-100501481D01*
X143383000Y-100380814D01*
X143383000Y-99187000D01*
X143637000Y-99187000D01*
X143637000Y-100380814D01*
X143866891Y-100501481D01*
X144141252Y-100404157D01*
X144391355Y-100255178D01*
X144607588Y-100060269D01*
X144781641Y-99826920D01*
X144906825Y-99564099D01*
X144951476Y-99416890D01*
X144830155Y-99187000D01*
X143637000Y-99187000D01*
X143383000Y-99187000D01*
X143363000Y-99187000D01*
X143363000Y-98933000D01*
X143383000Y-98933000D01*
X143383000Y-98913000D01*
X143637000Y-98913000D01*
X143637000Y-98933000D01*
X144830155Y-98933000D01*
X144951476Y-98703110D01*
X144906825Y-98555901D01*
X144781641Y-98293080D01*
X144607588Y-98059731D01*
X144391355Y-97864822D01*
X144274466Y-97795195D01*
X144456632Y-97673475D01*
X144663475Y-97466632D01*
X144825990Y-97223411D01*
X144937932Y-96953158D01*
X144995000Y-96666260D01*
X144995000Y-96373740D01*
X144937932Y-96086842D01*
X144825990Y-95816589D01*
X144663475Y-95573368D01*
X144456632Y-95366525D01*
X144274466Y-95244805D01*
X144391355Y-95175178D01*
X144607588Y-94980269D01*
X144781641Y-94746920D01*
X144906825Y-94484099D01*
X144951476Y-94336890D01*
X144830155Y-94107000D01*
X143637000Y-94107000D01*
X143637000Y-94127000D01*
X143383000Y-94127000D01*
X143383000Y-94107000D01*
X142189845Y-94107000D01*
X142068524Y-94336890D01*
X142113175Y-94484099D01*
X142238359Y-94746920D01*
X142412412Y-94980269D01*
X142628645Y-95175178D01*
X142745534Y-95244805D01*
X142563368Y-95366525D01*
X142356525Y-95573368D01*
X142194010Y-95816589D01*
X142082068Y-96086842D01*
X142025000Y-96373740D01*
X142025000Y-96666260D01*
X142068790Y-96886408D01*
X141073198Y-97882001D01*
X139084000Y-97882001D01*
X139084000Y-97815061D01*
X139044226Y-97615102D01*
X138966205Y-97426744D01*
X138852937Y-97257226D01*
X138821249Y-97225538D01*
X138927962Y-97137962D01*
X139038405Y-97003386D01*
X139120472Y-96849850D01*
X139171008Y-96683254D01*
X139188072Y-96510000D01*
X139188072Y-95260000D01*
X139171008Y-95086746D01*
X139120472Y-94920150D01*
X139038405Y-94766614D01*
X138927962Y-94632038D01*
X138793386Y-94521595D01*
X138639850Y-94439528D01*
X138473254Y-94388992D01*
X138300000Y-94371928D01*
X137550000Y-94371928D01*
X137376746Y-94388992D01*
X137210150Y-94439528D01*
X137056614Y-94521595D01*
X136922038Y-94632038D01*
X136811595Y-94766614D01*
X136729528Y-94920150D01*
X136678992Y-95086746D01*
X136661928Y-95260000D01*
X136661928Y-96510000D01*
X136678992Y-96683254D01*
X136729528Y-96849850D01*
X136811595Y-97003386D01*
X136922038Y-97137962D01*
X137056614Y-97248405D01*
X137199813Y-97324947D01*
X137131795Y-97426744D01*
X137053774Y-97615102D01*
X137014000Y-97815061D01*
X137014000Y-97882001D01*
X136294803Y-97882001D01*
X135797500Y-97384699D01*
X135797500Y-97343319D01*
X135839850Y-97330472D01*
X135993386Y-97248405D01*
X136127962Y-97137962D01*
X136238405Y-97003386D01*
X136320472Y-96849850D01*
X136371008Y-96683254D01*
X136388072Y-96510000D01*
X136388072Y-95260000D01*
X136371008Y-95086746D01*
X136320472Y-94920150D01*
X136238405Y-94766614D01*
X136127962Y-94632038D01*
X135993386Y-94521595D01*
X135839850Y-94439528D01*
X135673254Y-94388992D01*
X135500000Y-94371928D01*
X134750000Y-94371928D01*
X134576746Y-94388992D01*
X134410150Y-94439528D01*
X134256614Y-94521595D01*
X134122038Y-94632038D01*
X134011595Y-94766614D01*
X133929528Y-94920150D01*
X133878992Y-95086746D01*
X133875224Y-95125000D01*
X132824776Y-95125000D01*
X132821008Y-95086746D01*
X132770472Y-94920150D01*
X132688405Y-94766614D01*
X132577962Y-94632038D01*
X132443386Y-94521595D01*
X132422500Y-94510431D01*
X132422500Y-93894824D01*
X132426176Y-93857499D01*
X132422500Y-93820174D01*
X132422500Y-93820166D01*
X132414184Y-93735735D01*
X132458692Y-93749236D01*
X132669509Y-93770000D01*
X133210493Y-93770000D01*
X133421310Y-93749236D01*
X133691809Y-93667182D01*
X133941102Y-93533932D01*
X134159609Y-93354608D01*
X134338933Y-93136101D01*
X134472183Y-92886808D01*
X134554237Y-92616309D01*
X134581944Y-92335000D01*
X135298058Y-92335000D01*
X135325765Y-92616309D01*
X135407819Y-92886808D01*
X135541069Y-93136101D01*
X135720393Y-93354608D01*
X135938900Y-93533932D01*
X136188193Y-93667182D01*
X136458692Y-93749236D01*
X136669509Y-93770000D01*
X137210493Y-93770000D01*
X137421310Y-93749236D01*
X137691809Y-93667182D01*
X137941102Y-93533932D01*
X138159609Y-93354608D01*
X138338933Y-93136101D01*
X138472183Y-92886808D01*
X138554237Y-92616309D01*
X138581944Y-92335000D01*
X138554237Y-92053691D01*
X138472183Y-91783192D01*
X138338933Y-91533899D01*
X138159609Y-91315392D01*
X137941102Y-91136068D01*
X137691809Y-91002818D01*
X137421310Y-90920764D01*
X137210493Y-90900000D01*
X136669509Y-90900000D01*
X136458692Y-90920764D01*
X136188193Y-91002818D01*
X135938900Y-91136068D01*
X135720393Y-91315392D01*
X135541069Y-91533899D01*
X135407819Y-91783192D01*
X135325765Y-92053691D01*
X135298058Y-92335000D01*
X134581944Y-92335000D01*
X134554237Y-92053691D01*
X134472183Y-91783192D01*
X134338933Y-91533899D01*
X134159609Y-91315392D01*
X133941102Y-91136068D01*
X133691809Y-91002818D01*
X133421310Y-90920764D01*
X133210493Y-90900000D01*
X132669509Y-90900000D01*
X132458692Y-90920764D01*
X132414095Y-90934292D01*
X132205000Y-90725198D01*
X132205000Y-89933061D01*
X134305001Y-89933061D01*
X134305001Y-90136939D01*
X134344775Y-90336898D01*
X134422796Y-90525256D01*
X134536064Y-90694774D01*
X134680227Y-90838937D01*
X134849745Y-90952205D01*
X135038103Y-91030226D01*
X135238062Y-91070000D01*
X135441940Y-91070000D01*
X135641899Y-91030226D01*
X135830257Y-90952205D01*
X135999775Y-90838937D01*
X136143938Y-90694774D01*
X136257206Y-90525256D01*
X136335227Y-90336898D01*
X136375001Y-90136939D01*
X136375001Y-89933061D01*
X136335227Y-89733102D01*
X136257206Y-89544744D01*
X136143938Y-89375226D01*
X135999775Y-89231063D01*
X135830257Y-89117795D01*
X135641899Y-89039774D01*
X135441940Y-89000000D01*
X135238062Y-89000000D01*
X135038103Y-89039774D01*
X134849745Y-89117795D01*
X134680227Y-89231063D01*
X134536064Y-89375226D01*
X134422796Y-89544744D01*
X134344775Y-89733102D01*
X134305001Y-89933061D01*
X132205000Y-89933061D01*
X132205000Y-88084039D01*
X136448097Y-88084039D01*
X136458557Y-88141730D01*
X136564450Y-88403421D01*
X136719362Y-88639425D01*
X136917339Y-88840673D01*
X137150774Y-88999430D01*
X137410695Y-89109596D01*
X137687114Y-89166937D01*
X137913001Y-89014474D01*
X137913001Y-87862000D01*
X138167001Y-87862000D01*
X138167001Y-89014474D01*
X138392888Y-89166937D01*
X138669307Y-89109596D01*
X138929228Y-88999430D01*
X139162663Y-88840673D01*
X139360640Y-88639425D01*
X139515552Y-88403421D01*
X139621445Y-88141730D01*
X139631905Y-88084039D01*
X139509916Y-87862000D01*
X138167001Y-87862000D01*
X137913001Y-87862000D01*
X136570086Y-87862000D01*
X136448097Y-88084039D01*
X132205000Y-88084039D01*
X132205000Y-87385961D01*
X136448097Y-87385961D01*
X136570086Y-87608000D01*
X137913001Y-87608000D01*
X137913001Y-86455526D01*
X138167001Y-86455526D01*
X138167001Y-87608000D01*
X139509916Y-87608000D01*
X139631905Y-87385961D01*
X139621445Y-87328270D01*
X139515552Y-87066579D01*
X139360640Y-86830575D01*
X139162663Y-86629327D01*
X138929228Y-86470570D01*
X138669307Y-86360404D01*
X138392888Y-86303063D01*
X138167001Y-86455526D01*
X137913001Y-86455526D01*
X137687114Y-86303063D01*
X137410695Y-86360404D01*
X137150774Y-86470570D01*
X136917339Y-86629327D01*
X136719362Y-86830575D01*
X136564450Y-87066579D01*
X136458557Y-87328270D01*
X136448097Y-87385961D01*
X132205000Y-87385961D01*
X132205000Y-85829569D01*
X132225886Y-85818405D01*
X132360462Y-85707962D01*
X132470905Y-85573386D01*
X132552972Y-85419850D01*
X132603508Y-85253254D01*
X132607276Y-85215000D01*
X133657724Y-85215000D01*
X133661492Y-85253254D01*
X133712028Y-85419850D01*
X133794095Y-85573386D01*
X133904538Y-85707962D01*
X134039114Y-85818405D01*
X134192650Y-85900472D01*
X134359246Y-85951008D01*
X134532500Y-85968072D01*
X135282500Y-85968072D01*
X135455754Y-85951008D01*
X135622350Y-85900472D01*
X135775886Y-85818405D01*
X135910462Y-85707962D01*
X136020905Y-85573386D01*
X136102972Y-85419850D01*
X136130227Y-85330000D01*
X136444428Y-85330000D01*
X136456688Y-85454482D01*
X136492998Y-85574180D01*
X136551963Y-85684494D01*
X136631315Y-85781185D01*
X136728006Y-85860537D01*
X136838320Y-85919502D01*
X136958018Y-85955812D01*
X137082500Y-85968072D01*
X137421750Y-85965000D01*
X137580500Y-85806250D01*
X137580500Y-84582000D01*
X137834500Y-84582000D01*
X137834500Y-85806250D01*
X137993250Y-85965000D01*
X138332500Y-85968072D01*
X138456982Y-85955812D01*
X138576680Y-85919502D01*
X138686994Y-85860537D01*
X138783685Y-85781185D01*
X138863037Y-85684494D01*
X138922002Y-85574180D01*
X138958312Y-85454482D01*
X138970572Y-85330000D01*
X138968826Y-84995001D01*
X141571323Y-84995001D01*
X141574999Y-85032324D01*
X141575000Y-90227667D01*
X141571323Y-90264999D01*
X141575000Y-90302332D01*
X141578405Y-90336898D01*
X141585997Y-90413984D01*
X141629453Y-90557245D01*
X141700025Y-90689275D01*
X141771200Y-90776001D01*
X141794999Y-90805000D01*
X141823997Y-90828798D01*
X142068791Y-91073592D01*
X142025000Y-91293740D01*
X142025000Y-91586260D01*
X142082068Y-91873158D01*
X142194010Y-92143411D01*
X142356525Y-92386632D01*
X142563368Y-92593475D01*
X142745534Y-92715195D01*
X142628645Y-92784822D01*
X142412412Y-92979731D01*
X142238359Y-93213080D01*
X142113175Y-93475901D01*
X142068524Y-93623110D01*
X142189845Y-93853000D01*
X143383000Y-93853000D01*
X143383000Y-93833000D01*
X143637000Y-93833000D01*
X143637000Y-93853000D01*
X144830155Y-93853000D01*
X144951476Y-93623110D01*
X144906825Y-93475901D01*
X144781641Y-93213080D01*
X144607588Y-92979731D01*
X144391355Y-92784822D01*
X144274466Y-92715195D01*
X144456632Y-92593475D01*
X144663475Y-92386632D01*
X144825990Y-92143411D01*
X144937932Y-91873158D01*
X144995000Y-91586260D01*
X144995000Y-91293740D01*
X144937932Y-91006842D01*
X144825990Y-90736589D01*
X144663475Y-90493368D01*
X144456632Y-90286525D01*
X144282240Y-90170000D01*
X144456632Y-90053475D01*
X144663475Y-89846632D01*
X144825990Y-89603411D01*
X144937932Y-89333158D01*
X144995000Y-89046260D01*
X144995000Y-88753740D01*
X144937932Y-88466842D01*
X144825990Y-88196589D01*
X144663475Y-87953368D01*
X144456632Y-87746525D01*
X144282240Y-87630000D01*
X144456632Y-87513475D01*
X144663475Y-87306632D01*
X144825990Y-87063411D01*
X144937932Y-86793158D01*
X144995000Y-86506260D01*
X144995000Y-86213740D01*
X144937932Y-85926842D01*
X144825990Y-85656589D01*
X144663475Y-85413368D01*
X144456632Y-85206525D01*
X144282240Y-85090000D01*
X144456632Y-84973475D01*
X144663475Y-84766632D01*
X144825990Y-84523411D01*
X144937932Y-84253158D01*
X144995000Y-83966260D01*
X144995000Y-83673740D01*
X144937932Y-83386842D01*
X144825990Y-83116589D01*
X144663475Y-82873368D01*
X144531620Y-82741513D01*
X144604180Y-82719502D01*
X144714494Y-82660537D01*
X144811185Y-82581185D01*
X144890537Y-82484494D01*
X144949502Y-82374180D01*
X144985812Y-82254482D01*
X144998072Y-82130000D01*
X144998072Y-80430000D01*
X144985812Y-80305518D01*
X144949502Y-80185820D01*
X144890537Y-80075506D01*
X144811185Y-79978815D01*
X144714494Y-79899463D01*
X144604180Y-79840498D01*
X144484482Y-79804188D01*
X144360000Y-79791928D01*
X142660000Y-79791928D01*
X142535518Y-79804188D01*
X142415820Y-79840498D01*
X142305506Y-79899463D01*
X142208815Y-79978815D01*
X142129463Y-80075506D01*
X142070498Y-80185820D01*
X142034188Y-80305518D01*
X142021928Y-80430000D01*
X142021928Y-82130000D01*
X142034188Y-82254482D01*
X142070498Y-82374180D01*
X142129463Y-82484494D01*
X142208815Y-82581185D01*
X142305506Y-82660537D01*
X142415820Y-82719502D01*
X142488380Y-82741513D01*
X142356525Y-82873368D01*
X142194010Y-83116589D01*
X142082068Y-83386842D01*
X142025000Y-83673740D01*
X142025000Y-83966260D01*
X142068791Y-84186408D01*
X141824002Y-84431197D01*
X141794998Y-84455000D01*
X141764361Y-84492332D01*
X141700025Y-84570725D01*
X141682247Y-84603985D01*
X141629453Y-84702755D01*
X141585996Y-84846016D01*
X141574999Y-84957669D01*
X141574999Y-84957679D01*
X141571323Y-84995001D01*
X138968826Y-84995001D01*
X138967500Y-84740750D01*
X138808750Y-84582000D01*
X137834500Y-84582000D01*
X137580500Y-84582000D01*
X136606250Y-84582000D01*
X136447500Y-84740750D01*
X136444428Y-85330000D01*
X136130227Y-85330000D01*
X136153508Y-85253254D01*
X136170572Y-85080000D01*
X136170572Y-83830000D01*
X136153508Y-83656746D01*
X136102972Y-83490150D01*
X136020905Y-83336614D01*
X135910462Y-83202038D01*
X135775886Y-83091595D01*
X135622350Y-83009528D01*
X135455754Y-82958992D01*
X135368539Y-82950402D01*
X135360001Y-82939999D01*
X135244276Y-82845026D01*
X135112247Y-82774454D01*
X134968986Y-82730997D01*
X134820000Y-82716323D01*
X134671015Y-82730997D01*
X134527754Y-82774454D01*
X134395725Y-82845026D01*
X134280000Y-82939999D01*
X134232979Y-82997294D01*
X134192650Y-83009528D01*
X134039114Y-83091595D01*
X133904538Y-83202038D01*
X133794095Y-83336614D01*
X133712028Y-83490150D01*
X133661492Y-83656746D01*
X133657724Y-83695000D01*
X132607276Y-83695000D01*
X132603508Y-83656746D01*
X132552972Y-83490150D01*
X132470905Y-83336614D01*
X132360462Y-83202038D01*
X132225886Y-83091595D01*
X132072350Y-83009528D01*
X131905754Y-82958992D01*
X131732500Y-82941928D01*
X130982500Y-82941928D01*
X130809246Y-82958992D01*
X130642650Y-83009528D01*
X130489114Y-83091595D01*
X130354538Y-83202038D01*
X130244095Y-83336614D01*
X130162028Y-83490150D01*
X130111492Y-83656746D01*
X130094428Y-83830000D01*
X130094428Y-85080000D01*
X130111492Y-85253254D01*
X130162028Y-85419850D01*
X130244095Y-85573386D01*
X130354538Y-85707962D01*
X130489114Y-85818405D01*
X130642650Y-85900472D01*
X130685000Y-85913319D01*
X130685001Y-91000753D01*
X130421310Y-90920764D01*
X130210493Y-90900000D01*
X129669509Y-90900000D01*
X129458692Y-90920764D01*
X129188193Y-91002818D01*
X128938900Y-91136068D01*
X128720393Y-91315392D01*
X128541069Y-91533899D01*
X128407819Y-91783192D01*
X128325765Y-92053691D01*
X128298058Y-92335000D01*
X128325765Y-92616309D01*
X128407819Y-92886808D01*
X128541069Y-93136101D01*
X128720393Y-93354608D01*
X128938900Y-93533932D01*
X129188193Y-93667182D01*
X129458692Y-93749236D01*
X129669509Y-93770000D01*
X130210493Y-93770000D01*
X130421310Y-93749236D01*
X130465907Y-93735708D01*
X130902501Y-94172302D01*
X130902501Y-94426681D01*
X130860150Y-94439528D01*
X130706614Y-94521595D01*
X130572038Y-94632038D01*
X130461595Y-94766614D01*
X130379528Y-94920150D01*
X130328992Y-95086746D01*
X130311928Y-95260000D01*
X130311928Y-96510000D01*
X130328992Y-96683254D01*
X130379528Y-96849850D01*
X130461595Y-97003386D01*
X130572038Y-97137962D01*
X130706614Y-97248405D01*
X130860150Y-97330472D01*
X131026746Y-97381008D01*
X131200000Y-97398072D01*
X131950000Y-97398072D01*
X132044938Y-97388721D01*
X132001976Y-97417428D01*
X131707428Y-97711976D01*
X131476003Y-98058328D01*
X131316595Y-98443173D01*
X131235329Y-98851723D01*
X131235329Y-99268277D01*
X131316595Y-99676827D01*
X131476003Y-100061672D01*
X131707428Y-100408024D01*
X132001976Y-100702572D01*
X132319897Y-100915000D01*
X128303504Y-100915000D01*
X128157008Y-100900636D01*
X128048328Y-100867823D01*
X127948083Y-100814522D01*
X127860105Y-100742769D01*
X127787737Y-100655292D01*
X127733737Y-100555420D01*
X127700167Y-100446973D01*
X127685000Y-100302669D01*
X127685000Y-97194351D01*
X127698815Y-97211185D01*
X127795506Y-97290537D01*
X127905820Y-97349502D01*
X128025518Y-97385812D01*
X128150000Y-97398072D01*
X128489250Y-97395000D01*
X128648000Y-97236250D01*
X128648000Y-96012000D01*
X128902000Y-96012000D01*
X128902000Y-97236250D01*
X129060750Y-97395000D01*
X129400000Y-97398072D01*
X129524482Y-97385812D01*
X129644180Y-97349502D01*
X129754494Y-97290537D01*
X129851185Y-97211185D01*
X129930537Y-97114494D01*
X129989502Y-97004180D01*
X130025812Y-96884482D01*
X130038072Y-96760000D01*
X130035000Y-96170750D01*
X129876250Y-96012000D01*
X128902000Y-96012000D01*
X128648000Y-96012000D01*
X128628000Y-96012000D01*
X128628000Y-95758000D01*
X128648000Y-95758000D01*
X128648000Y-94533750D01*
X128902000Y-94533750D01*
X128902000Y-95758000D01*
X129876250Y-95758000D01*
X130035000Y-95599250D01*
X130038072Y-95010000D01*
X130025812Y-94885518D01*
X129989502Y-94765820D01*
X129930537Y-94655506D01*
X129851185Y-94558815D01*
X129754494Y-94479463D01*
X129644180Y-94420498D01*
X129524482Y-94384188D01*
X129400000Y-94371928D01*
X129060750Y-94375000D01*
X128902000Y-94533750D01*
X128648000Y-94533750D01*
X128489250Y-94375000D01*
X128150000Y-94371928D01*
X128025518Y-94384188D01*
X127905820Y-94420498D01*
X127795506Y-94479463D01*
X127698815Y-94558815D01*
X127685000Y-94575649D01*
X127685000Y-90842126D01*
X127849745Y-90952205D01*
X128038103Y-91030226D01*
X128238062Y-91070000D01*
X128441940Y-91070000D01*
X128641899Y-91030226D01*
X128830257Y-90952205D01*
X128999775Y-90838937D01*
X129143938Y-90694774D01*
X129257206Y-90525256D01*
X129335227Y-90336898D01*
X129375001Y-90136939D01*
X129375001Y-89933061D01*
X129335227Y-89733102D01*
X129257206Y-89544744D01*
X129143938Y-89375226D01*
X128999775Y-89231063D01*
X128830257Y-89117795D01*
X128641899Y-89039774D01*
X128441940Y-89000000D01*
X128238062Y-89000000D01*
X128038103Y-89039774D01*
X127849745Y-89117795D01*
X127685000Y-89227874D01*
X127685000Y-85815029D01*
X127689114Y-85818405D01*
X127842650Y-85900472D01*
X128009246Y-85951008D01*
X128182500Y-85968072D01*
X128932500Y-85968072D01*
X129105754Y-85951008D01*
X129272350Y-85900472D01*
X129425886Y-85818405D01*
X129560462Y-85707962D01*
X129670905Y-85573386D01*
X129752972Y-85419850D01*
X129803508Y-85253254D01*
X129820572Y-85080000D01*
X129820572Y-83830000D01*
X129803508Y-83656746D01*
X129752972Y-83490150D01*
X129670905Y-83336614D01*
X129560462Y-83202038D01*
X129425886Y-83091595D01*
X129273545Y-83010166D01*
X129327937Y-82955774D01*
X129441205Y-82786256D01*
X129519226Y-82597898D01*
X129559000Y-82397939D01*
X129559000Y-82194061D01*
X129519226Y-81994102D01*
X129441205Y-81805744D01*
X129327937Y-81636226D01*
X129183774Y-81492063D01*
X129014256Y-81378795D01*
X128825898Y-81300774D01*
X128625939Y-81261000D01*
X128422061Y-81261000D01*
X128222102Y-81300774D01*
X128033744Y-81378795D01*
X127864226Y-81492063D01*
X127720063Y-81636226D01*
X127685000Y-81688702D01*
X127685000Y-80043504D01*
X127699364Y-79897008D01*
X127732176Y-79788330D01*
X127785479Y-79688082D01*
X127857232Y-79600103D01*
X127944707Y-79527737D01*
X128044579Y-79473737D01*
X128153027Y-79440167D01*
X128297331Y-79425000D01*
X136682307Y-79425000D01*
X136556331Y-79550976D01*
M02*
