G04 #@! TF.GenerationSoftware,KiCad,Pcbnew,5.1.2-f72e74a~84~ubuntu16.04.1*
G04 #@! TF.CreationDate,2019-07-13T03:40:42-04:00*
G04 #@! TF.ProjectId,arcade_joystick_pcb,61726361-6465-45f6-9a6f-79737469636b,rev?*
G04 #@! TF.SameCoordinates,Original*
G04 #@! TF.FileFunction,Soldermask,Top*
G04 #@! TF.FilePolarity,Negative*
%FSLAX46Y46*%
G04 Gerber Fmt 4.6, Leading zero omitted, Abs format (unit mm)*
G04 Created by KiCad (PCBNEW 5.1.2-f72e74a~84~ubuntu16.04.1) date 2019-07-13 03:40:42*
%MOMM*%
%LPD*%
G04 APERTURE LIST*
%ADD10C,0.100000*%
%ADD11C,1.425000*%
%ADD12O,1.700000X1.700000*%
%ADD13R,1.700000X1.700000*%
%ADD14O,2.000000X1.600000*%
%ADD15C,0.800000*%
G04 APERTURE END LIST*
D10*
G36*
X129174504Y-95011204D02*
G01*
X129198773Y-95014804D01*
X129222571Y-95020765D01*
X129245671Y-95029030D01*
X129267849Y-95039520D01*
X129288893Y-95052133D01*
X129308598Y-95066747D01*
X129326777Y-95083223D01*
X129343253Y-95101402D01*
X129357867Y-95121107D01*
X129370480Y-95142151D01*
X129380970Y-95164329D01*
X129389235Y-95187429D01*
X129395196Y-95211227D01*
X129398796Y-95235496D01*
X129400000Y-95260000D01*
X129400000Y-96510000D01*
X129398796Y-96534504D01*
X129395196Y-96558773D01*
X129389235Y-96582571D01*
X129380970Y-96605671D01*
X129370480Y-96627849D01*
X129357867Y-96648893D01*
X129343253Y-96668598D01*
X129326777Y-96686777D01*
X129308598Y-96703253D01*
X129288893Y-96717867D01*
X129267849Y-96730480D01*
X129245671Y-96740970D01*
X129222571Y-96749235D01*
X129198773Y-96755196D01*
X129174504Y-96758796D01*
X129150000Y-96760000D01*
X128225000Y-96760000D01*
X128200496Y-96758796D01*
X128176227Y-96755196D01*
X128152429Y-96749235D01*
X128129329Y-96740970D01*
X128107151Y-96730480D01*
X128086107Y-96717867D01*
X128066402Y-96703253D01*
X128048223Y-96686777D01*
X128031747Y-96668598D01*
X128017133Y-96648893D01*
X128004520Y-96627849D01*
X127994030Y-96605671D01*
X127985765Y-96582571D01*
X127979804Y-96558773D01*
X127976204Y-96534504D01*
X127975000Y-96510000D01*
X127975000Y-95260000D01*
X127976204Y-95235496D01*
X127979804Y-95211227D01*
X127985765Y-95187429D01*
X127994030Y-95164329D01*
X128004520Y-95142151D01*
X128017133Y-95121107D01*
X128031747Y-95101402D01*
X128048223Y-95083223D01*
X128066402Y-95066747D01*
X128086107Y-95052133D01*
X128107151Y-95039520D01*
X128129329Y-95029030D01*
X128152429Y-95020765D01*
X128176227Y-95014804D01*
X128200496Y-95011204D01*
X128225000Y-95010000D01*
X129150000Y-95010000D01*
X129174504Y-95011204D01*
X129174504Y-95011204D01*
G37*
D11*
X128687500Y-95885000D03*
D10*
G36*
X132149504Y-95011204D02*
G01*
X132173773Y-95014804D01*
X132197571Y-95020765D01*
X132220671Y-95029030D01*
X132242849Y-95039520D01*
X132263893Y-95052133D01*
X132283598Y-95066747D01*
X132301777Y-95083223D01*
X132318253Y-95101402D01*
X132332867Y-95121107D01*
X132345480Y-95142151D01*
X132355970Y-95164329D01*
X132364235Y-95187429D01*
X132370196Y-95211227D01*
X132373796Y-95235496D01*
X132375000Y-95260000D01*
X132375000Y-96510000D01*
X132373796Y-96534504D01*
X132370196Y-96558773D01*
X132364235Y-96582571D01*
X132355970Y-96605671D01*
X132345480Y-96627849D01*
X132332867Y-96648893D01*
X132318253Y-96668598D01*
X132301777Y-96686777D01*
X132283598Y-96703253D01*
X132263893Y-96717867D01*
X132242849Y-96730480D01*
X132220671Y-96740970D01*
X132197571Y-96749235D01*
X132173773Y-96755196D01*
X132149504Y-96758796D01*
X132125000Y-96760000D01*
X131200000Y-96760000D01*
X131175496Y-96758796D01*
X131151227Y-96755196D01*
X131127429Y-96749235D01*
X131104329Y-96740970D01*
X131082151Y-96730480D01*
X131061107Y-96717867D01*
X131041402Y-96703253D01*
X131023223Y-96686777D01*
X131006747Y-96668598D01*
X130992133Y-96648893D01*
X130979520Y-96627849D01*
X130969030Y-96605671D01*
X130960765Y-96582571D01*
X130954804Y-96558773D01*
X130951204Y-96534504D01*
X130950000Y-96510000D01*
X130950000Y-95260000D01*
X130951204Y-95235496D01*
X130954804Y-95211227D01*
X130960765Y-95187429D01*
X130969030Y-95164329D01*
X130979520Y-95142151D01*
X130992133Y-95121107D01*
X131006747Y-95101402D01*
X131023223Y-95083223D01*
X131041402Y-95066747D01*
X131061107Y-95052133D01*
X131082151Y-95039520D01*
X131104329Y-95029030D01*
X131127429Y-95020765D01*
X131151227Y-95014804D01*
X131175496Y-95011204D01*
X131200000Y-95010000D01*
X132125000Y-95010000D01*
X132149504Y-95011204D01*
X132149504Y-95011204D01*
G37*
D11*
X131662500Y-95885000D03*
D10*
G36*
X138282004Y-83581204D02*
G01*
X138306273Y-83584804D01*
X138330071Y-83590765D01*
X138353171Y-83599030D01*
X138375349Y-83609520D01*
X138396393Y-83622133D01*
X138416098Y-83636747D01*
X138434277Y-83653223D01*
X138450753Y-83671402D01*
X138465367Y-83691107D01*
X138477980Y-83712151D01*
X138488470Y-83734329D01*
X138496735Y-83757429D01*
X138502696Y-83781227D01*
X138506296Y-83805496D01*
X138507500Y-83830000D01*
X138507500Y-85080000D01*
X138506296Y-85104504D01*
X138502696Y-85128773D01*
X138496735Y-85152571D01*
X138488470Y-85175671D01*
X138477980Y-85197849D01*
X138465367Y-85218893D01*
X138450753Y-85238598D01*
X138434277Y-85256777D01*
X138416098Y-85273253D01*
X138396393Y-85287867D01*
X138375349Y-85300480D01*
X138353171Y-85310970D01*
X138330071Y-85319235D01*
X138306273Y-85325196D01*
X138282004Y-85328796D01*
X138257500Y-85330000D01*
X137332500Y-85330000D01*
X137307996Y-85328796D01*
X137283727Y-85325196D01*
X137259929Y-85319235D01*
X137236829Y-85310970D01*
X137214651Y-85300480D01*
X137193607Y-85287867D01*
X137173902Y-85273253D01*
X137155723Y-85256777D01*
X137139247Y-85238598D01*
X137124633Y-85218893D01*
X137112020Y-85197849D01*
X137101530Y-85175671D01*
X137093265Y-85152571D01*
X137087304Y-85128773D01*
X137083704Y-85104504D01*
X137082500Y-85080000D01*
X137082500Y-83830000D01*
X137083704Y-83805496D01*
X137087304Y-83781227D01*
X137093265Y-83757429D01*
X137101530Y-83734329D01*
X137112020Y-83712151D01*
X137124633Y-83691107D01*
X137139247Y-83671402D01*
X137155723Y-83653223D01*
X137173902Y-83636747D01*
X137193607Y-83622133D01*
X137214651Y-83609520D01*
X137236829Y-83599030D01*
X137259929Y-83590765D01*
X137283727Y-83584804D01*
X137307996Y-83581204D01*
X137332500Y-83580000D01*
X138257500Y-83580000D01*
X138282004Y-83581204D01*
X138282004Y-83581204D01*
G37*
D11*
X137795000Y-84455000D03*
D10*
G36*
X135307004Y-83581204D02*
G01*
X135331273Y-83584804D01*
X135355071Y-83590765D01*
X135378171Y-83599030D01*
X135400349Y-83609520D01*
X135421393Y-83622133D01*
X135441098Y-83636747D01*
X135459277Y-83653223D01*
X135475753Y-83671402D01*
X135490367Y-83691107D01*
X135502980Y-83712151D01*
X135513470Y-83734329D01*
X135521735Y-83757429D01*
X135527696Y-83781227D01*
X135531296Y-83805496D01*
X135532500Y-83830000D01*
X135532500Y-85080000D01*
X135531296Y-85104504D01*
X135527696Y-85128773D01*
X135521735Y-85152571D01*
X135513470Y-85175671D01*
X135502980Y-85197849D01*
X135490367Y-85218893D01*
X135475753Y-85238598D01*
X135459277Y-85256777D01*
X135441098Y-85273253D01*
X135421393Y-85287867D01*
X135400349Y-85300480D01*
X135378171Y-85310970D01*
X135355071Y-85319235D01*
X135331273Y-85325196D01*
X135307004Y-85328796D01*
X135282500Y-85330000D01*
X134357500Y-85330000D01*
X134332996Y-85328796D01*
X134308727Y-85325196D01*
X134284929Y-85319235D01*
X134261829Y-85310970D01*
X134239651Y-85300480D01*
X134218607Y-85287867D01*
X134198902Y-85273253D01*
X134180723Y-85256777D01*
X134164247Y-85238598D01*
X134149633Y-85218893D01*
X134137020Y-85197849D01*
X134126530Y-85175671D01*
X134118265Y-85152571D01*
X134112304Y-85128773D01*
X134108704Y-85104504D01*
X134107500Y-85080000D01*
X134107500Y-83830000D01*
X134108704Y-83805496D01*
X134112304Y-83781227D01*
X134118265Y-83757429D01*
X134126530Y-83734329D01*
X134137020Y-83712151D01*
X134149633Y-83691107D01*
X134164247Y-83671402D01*
X134180723Y-83653223D01*
X134198902Y-83636747D01*
X134218607Y-83622133D01*
X134239651Y-83609520D01*
X134261829Y-83599030D01*
X134284929Y-83590765D01*
X134308727Y-83584804D01*
X134332996Y-83581204D01*
X134357500Y-83580000D01*
X135282500Y-83580000D01*
X135307004Y-83581204D01*
X135307004Y-83581204D01*
G37*
D11*
X134820000Y-84455000D03*
D10*
G36*
X135524504Y-95011204D02*
G01*
X135548773Y-95014804D01*
X135572571Y-95020765D01*
X135595671Y-95029030D01*
X135617849Y-95039520D01*
X135638893Y-95052133D01*
X135658598Y-95066747D01*
X135676777Y-95083223D01*
X135693253Y-95101402D01*
X135707867Y-95121107D01*
X135720480Y-95142151D01*
X135730970Y-95164329D01*
X135739235Y-95187429D01*
X135745196Y-95211227D01*
X135748796Y-95235496D01*
X135750000Y-95260000D01*
X135750000Y-96510000D01*
X135748796Y-96534504D01*
X135745196Y-96558773D01*
X135739235Y-96582571D01*
X135730970Y-96605671D01*
X135720480Y-96627849D01*
X135707867Y-96648893D01*
X135693253Y-96668598D01*
X135676777Y-96686777D01*
X135658598Y-96703253D01*
X135638893Y-96717867D01*
X135617849Y-96730480D01*
X135595671Y-96740970D01*
X135572571Y-96749235D01*
X135548773Y-96755196D01*
X135524504Y-96758796D01*
X135500000Y-96760000D01*
X134575000Y-96760000D01*
X134550496Y-96758796D01*
X134526227Y-96755196D01*
X134502429Y-96749235D01*
X134479329Y-96740970D01*
X134457151Y-96730480D01*
X134436107Y-96717867D01*
X134416402Y-96703253D01*
X134398223Y-96686777D01*
X134381747Y-96668598D01*
X134367133Y-96648893D01*
X134354520Y-96627849D01*
X134344030Y-96605671D01*
X134335765Y-96582571D01*
X134329804Y-96558773D01*
X134326204Y-96534504D01*
X134325000Y-96510000D01*
X134325000Y-95260000D01*
X134326204Y-95235496D01*
X134329804Y-95211227D01*
X134335765Y-95187429D01*
X134344030Y-95164329D01*
X134354520Y-95142151D01*
X134367133Y-95121107D01*
X134381747Y-95101402D01*
X134398223Y-95083223D01*
X134416402Y-95066747D01*
X134436107Y-95052133D01*
X134457151Y-95039520D01*
X134479329Y-95029030D01*
X134502429Y-95020765D01*
X134526227Y-95014804D01*
X134550496Y-95011204D01*
X134575000Y-95010000D01*
X135500000Y-95010000D01*
X135524504Y-95011204D01*
X135524504Y-95011204D01*
G37*
D11*
X135037500Y-95885000D03*
D10*
G36*
X138499504Y-95011204D02*
G01*
X138523773Y-95014804D01*
X138547571Y-95020765D01*
X138570671Y-95029030D01*
X138592849Y-95039520D01*
X138613893Y-95052133D01*
X138633598Y-95066747D01*
X138651777Y-95083223D01*
X138668253Y-95101402D01*
X138682867Y-95121107D01*
X138695480Y-95142151D01*
X138705970Y-95164329D01*
X138714235Y-95187429D01*
X138720196Y-95211227D01*
X138723796Y-95235496D01*
X138725000Y-95260000D01*
X138725000Y-96510000D01*
X138723796Y-96534504D01*
X138720196Y-96558773D01*
X138714235Y-96582571D01*
X138705970Y-96605671D01*
X138695480Y-96627849D01*
X138682867Y-96648893D01*
X138668253Y-96668598D01*
X138651777Y-96686777D01*
X138633598Y-96703253D01*
X138613893Y-96717867D01*
X138592849Y-96730480D01*
X138570671Y-96740970D01*
X138547571Y-96749235D01*
X138523773Y-96755196D01*
X138499504Y-96758796D01*
X138475000Y-96760000D01*
X137550000Y-96760000D01*
X137525496Y-96758796D01*
X137501227Y-96755196D01*
X137477429Y-96749235D01*
X137454329Y-96740970D01*
X137432151Y-96730480D01*
X137411107Y-96717867D01*
X137391402Y-96703253D01*
X137373223Y-96686777D01*
X137356747Y-96668598D01*
X137342133Y-96648893D01*
X137329520Y-96627849D01*
X137319030Y-96605671D01*
X137310765Y-96582571D01*
X137304804Y-96558773D01*
X137301204Y-96534504D01*
X137300000Y-96510000D01*
X137300000Y-95260000D01*
X137301204Y-95235496D01*
X137304804Y-95211227D01*
X137310765Y-95187429D01*
X137319030Y-95164329D01*
X137329520Y-95142151D01*
X137342133Y-95121107D01*
X137356747Y-95101402D01*
X137373223Y-95083223D01*
X137391402Y-95066747D01*
X137411107Y-95052133D01*
X137432151Y-95039520D01*
X137454329Y-95029030D01*
X137477429Y-95020765D01*
X137501227Y-95014804D01*
X137525496Y-95011204D01*
X137550000Y-95010000D01*
X138475000Y-95010000D01*
X138499504Y-95011204D01*
X138499504Y-95011204D01*
G37*
D11*
X138012500Y-95885000D03*
D10*
G36*
X131932004Y-83581204D02*
G01*
X131956273Y-83584804D01*
X131980071Y-83590765D01*
X132003171Y-83599030D01*
X132025349Y-83609520D01*
X132046393Y-83622133D01*
X132066098Y-83636747D01*
X132084277Y-83653223D01*
X132100753Y-83671402D01*
X132115367Y-83691107D01*
X132127980Y-83712151D01*
X132138470Y-83734329D01*
X132146735Y-83757429D01*
X132152696Y-83781227D01*
X132156296Y-83805496D01*
X132157500Y-83830000D01*
X132157500Y-85080000D01*
X132156296Y-85104504D01*
X132152696Y-85128773D01*
X132146735Y-85152571D01*
X132138470Y-85175671D01*
X132127980Y-85197849D01*
X132115367Y-85218893D01*
X132100753Y-85238598D01*
X132084277Y-85256777D01*
X132066098Y-85273253D01*
X132046393Y-85287867D01*
X132025349Y-85300480D01*
X132003171Y-85310970D01*
X131980071Y-85319235D01*
X131956273Y-85325196D01*
X131932004Y-85328796D01*
X131907500Y-85330000D01*
X130982500Y-85330000D01*
X130957996Y-85328796D01*
X130933727Y-85325196D01*
X130909929Y-85319235D01*
X130886829Y-85310970D01*
X130864651Y-85300480D01*
X130843607Y-85287867D01*
X130823902Y-85273253D01*
X130805723Y-85256777D01*
X130789247Y-85238598D01*
X130774633Y-85218893D01*
X130762020Y-85197849D01*
X130751530Y-85175671D01*
X130743265Y-85152571D01*
X130737304Y-85128773D01*
X130733704Y-85104504D01*
X130732500Y-85080000D01*
X130732500Y-83830000D01*
X130733704Y-83805496D01*
X130737304Y-83781227D01*
X130743265Y-83757429D01*
X130751530Y-83734329D01*
X130762020Y-83712151D01*
X130774633Y-83691107D01*
X130789247Y-83671402D01*
X130805723Y-83653223D01*
X130823902Y-83636747D01*
X130843607Y-83622133D01*
X130864651Y-83609520D01*
X130886829Y-83599030D01*
X130909929Y-83590765D01*
X130933727Y-83584804D01*
X130957996Y-83581204D01*
X130982500Y-83580000D01*
X131907500Y-83580000D01*
X131932004Y-83581204D01*
X131932004Y-83581204D01*
G37*
D11*
X131445000Y-84455000D03*
D10*
G36*
X128957004Y-83581204D02*
G01*
X128981273Y-83584804D01*
X129005071Y-83590765D01*
X129028171Y-83599030D01*
X129050349Y-83609520D01*
X129071393Y-83622133D01*
X129091098Y-83636747D01*
X129109277Y-83653223D01*
X129125753Y-83671402D01*
X129140367Y-83691107D01*
X129152980Y-83712151D01*
X129163470Y-83734329D01*
X129171735Y-83757429D01*
X129177696Y-83781227D01*
X129181296Y-83805496D01*
X129182500Y-83830000D01*
X129182500Y-85080000D01*
X129181296Y-85104504D01*
X129177696Y-85128773D01*
X129171735Y-85152571D01*
X129163470Y-85175671D01*
X129152980Y-85197849D01*
X129140367Y-85218893D01*
X129125753Y-85238598D01*
X129109277Y-85256777D01*
X129091098Y-85273253D01*
X129071393Y-85287867D01*
X129050349Y-85300480D01*
X129028171Y-85310970D01*
X129005071Y-85319235D01*
X128981273Y-85325196D01*
X128957004Y-85328796D01*
X128932500Y-85330000D01*
X128007500Y-85330000D01*
X127982996Y-85328796D01*
X127958727Y-85325196D01*
X127934929Y-85319235D01*
X127911829Y-85310970D01*
X127889651Y-85300480D01*
X127868607Y-85287867D01*
X127848902Y-85273253D01*
X127830723Y-85256777D01*
X127814247Y-85238598D01*
X127799633Y-85218893D01*
X127787020Y-85197849D01*
X127776530Y-85175671D01*
X127768265Y-85152571D01*
X127762304Y-85128773D01*
X127758704Y-85104504D01*
X127757500Y-85080000D01*
X127757500Y-83830000D01*
X127758704Y-83805496D01*
X127762304Y-83781227D01*
X127768265Y-83757429D01*
X127776530Y-83734329D01*
X127787020Y-83712151D01*
X127799633Y-83691107D01*
X127814247Y-83671402D01*
X127830723Y-83653223D01*
X127848902Y-83636747D01*
X127868607Y-83622133D01*
X127889651Y-83609520D01*
X127911829Y-83599030D01*
X127934929Y-83590765D01*
X127958727Y-83584804D01*
X127982996Y-83581204D01*
X128007500Y-83580000D01*
X128932500Y-83580000D01*
X128957004Y-83581204D01*
X128957004Y-83581204D01*
G37*
D11*
X128470000Y-84455000D03*
D12*
X143510000Y-99060000D03*
X143510000Y-96520000D03*
X143510000Y-93980000D03*
X143510000Y-91440000D03*
X143510000Y-88900000D03*
X143510000Y-86360000D03*
X143510000Y-83820000D03*
D13*
X143510000Y-81280000D03*
D14*
X138040001Y-87735000D03*
X136940001Y-92335000D03*
X129940001Y-92335000D03*
D15*
X135340001Y-90035000D03*
X128340001Y-90035000D03*
D14*
X132940001Y-92335000D03*
M02*
