G04 #@! TF.GenerationSoftware,KiCad,Pcbnew,5.1.5-52549c5~84~ubuntu16.04.1*
G04 #@! TF.CreationDate,2020-03-17T21:52:37-04:00*
G04 #@! TF.ProjectId,arcade_joystick_pcb,61726361-6465-45f6-9a6f-79737469636b,1.0*
G04 #@! TF.SameCoordinates,Original*
G04 #@! TF.FileFunction,Legend,Bot*
G04 #@! TF.FilePolarity,Positive*
%FSLAX46Y46*%
G04 Gerber Fmt 4.6, Leading zero omitted, Abs format (unit mm)*
G04 Created by KiCad (PCBNEW 5.1.5-52549c5~84~ubuntu16.04.1) date 2020-03-17 21:52:37*
%MOMM*%
%LPD*%
G04 APERTURE LIST*
%ADD10C,0.150000*%
G04 APERTURE END LIST*
D10*
X140089380Y-83995571D02*
X139089380Y-83995571D01*
X140089380Y-84424142D02*
X139565571Y-84424142D01*
X139470333Y-84376523D01*
X139422714Y-84281285D01*
X139422714Y-84138428D01*
X139470333Y-84043190D01*
X139517952Y-83995571D01*
X139422714Y-84757476D02*
X139422714Y-85138428D01*
X139089380Y-84900333D02*
X139946523Y-84900333D01*
X140041761Y-84947952D01*
X140089380Y-85043190D01*
X140089380Y-85138428D01*
X139422714Y-85328904D02*
X139422714Y-85709857D01*
X139089380Y-85471761D02*
X139946523Y-85471761D01*
X140041761Y-85519380D01*
X140089380Y-85614619D01*
X140089380Y-85709857D01*
X139422714Y-86043190D02*
X140422714Y-86043190D01*
X139470333Y-86043190D02*
X139422714Y-86138428D01*
X139422714Y-86328904D01*
X139470333Y-86424142D01*
X139517952Y-86471761D01*
X139613190Y-86519380D01*
X139898904Y-86519380D01*
X139994142Y-86471761D01*
X140041761Y-86424142D01*
X140089380Y-86328904D01*
X140089380Y-86138428D01*
X140041761Y-86043190D01*
X140041761Y-86900333D02*
X140089380Y-86995571D01*
X140089380Y-87186047D01*
X140041761Y-87281285D01*
X139946523Y-87328904D01*
X139898904Y-87328904D01*
X139803666Y-87281285D01*
X139756047Y-87186047D01*
X139756047Y-87043190D01*
X139708428Y-86947952D01*
X139613190Y-86900333D01*
X139565571Y-86900333D01*
X139470333Y-86947952D01*
X139422714Y-87043190D01*
X139422714Y-87186047D01*
X139470333Y-87281285D01*
X139994142Y-87757476D02*
X140041761Y-87805095D01*
X140089380Y-87757476D01*
X140041761Y-87709857D01*
X139994142Y-87757476D01*
X140089380Y-87757476D01*
X139470333Y-87757476D02*
X139517952Y-87805095D01*
X139565571Y-87757476D01*
X139517952Y-87709857D01*
X139470333Y-87757476D01*
X139565571Y-87757476D01*
X139041761Y-88947952D02*
X140327476Y-88090809D01*
X139041761Y-89995571D02*
X140327476Y-89138428D01*
X139422714Y-90757476D02*
X140232238Y-90757476D01*
X140327476Y-90709857D01*
X140375095Y-90662238D01*
X140422714Y-90567000D01*
X140422714Y-90424142D01*
X140375095Y-90328904D01*
X140041761Y-90757476D02*
X140089380Y-90662238D01*
X140089380Y-90471761D01*
X140041761Y-90376523D01*
X139994142Y-90328904D01*
X139898904Y-90281285D01*
X139613190Y-90281285D01*
X139517952Y-90328904D01*
X139470333Y-90376523D01*
X139422714Y-90471761D01*
X139422714Y-90662238D01*
X139470333Y-90757476D01*
X140089380Y-91233666D02*
X139422714Y-91233666D01*
X139089380Y-91233666D02*
X139137000Y-91186047D01*
X139184619Y-91233666D01*
X139137000Y-91281285D01*
X139089380Y-91233666D01*
X139184619Y-91233666D01*
X139422714Y-91567000D02*
X139422714Y-91947952D01*
X139089380Y-91709857D02*
X139946523Y-91709857D01*
X140041761Y-91757476D01*
X140089380Y-91852714D01*
X140089380Y-91947952D01*
X140089380Y-92281285D02*
X139089380Y-92281285D01*
X140089380Y-92709857D02*
X139565571Y-92709857D01*
X139470333Y-92662238D01*
X139422714Y-92567000D01*
X139422714Y-92424142D01*
X139470333Y-92328904D01*
X139517952Y-92281285D01*
X139422714Y-93614619D02*
X140089380Y-93614619D01*
X139422714Y-93186047D02*
X139946523Y-93186047D01*
X140041761Y-93233666D01*
X140089380Y-93328904D01*
X140089380Y-93471761D01*
X140041761Y-93567000D01*
X139994142Y-93614619D01*
X140089380Y-94090809D02*
X139089380Y-94090809D01*
X139470333Y-94090809D02*
X139422714Y-94186047D01*
X139422714Y-94376523D01*
X139470333Y-94471761D01*
X139517952Y-94519380D01*
X139613190Y-94567000D01*
X139898904Y-94567000D01*
X139994142Y-94519380D01*
X140041761Y-94471761D01*
X140089380Y-94376523D01*
X140089380Y-94186047D01*
X140041761Y-94090809D01*
X139994142Y-94995571D02*
X140041761Y-95043190D01*
X140089380Y-94995571D01*
X140041761Y-94947952D01*
X139994142Y-94995571D01*
X140089380Y-94995571D01*
X140041761Y-95900333D02*
X140089380Y-95805095D01*
X140089380Y-95614619D01*
X140041761Y-95519380D01*
X139994142Y-95471761D01*
X139898904Y-95424142D01*
X139613190Y-95424142D01*
X139517952Y-95471761D01*
X139470333Y-95519380D01*
X139422714Y-95614619D01*
X139422714Y-95805095D01*
X139470333Y-95900333D01*
X140089380Y-96471761D02*
X140041761Y-96376523D01*
X139994142Y-96328904D01*
X139898904Y-96281285D01*
X139613190Y-96281285D01*
X139517952Y-96328904D01*
X139470333Y-96376523D01*
X139422714Y-96471761D01*
X139422714Y-96614619D01*
X139470333Y-96709857D01*
X139517952Y-96757476D01*
X139613190Y-96805095D01*
X139898904Y-96805095D01*
X139994142Y-96757476D01*
X140041761Y-96709857D01*
X140089380Y-96614619D01*
X140089380Y-96471761D01*
X140089380Y-97233666D02*
X139422714Y-97233666D01*
X139517952Y-97233666D02*
X139470333Y-97281285D01*
X139422714Y-97376523D01*
X139422714Y-97519380D01*
X139470333Y-97614619D01*
X139565571Y-97662238D01*
X140089380Y-97662238D01*
X139565571Y-97662238D02*
X139470333Y-97709857D01*
X139422714Y-97805095D01*
X139422714Y-97947952D01*
X139470333Y-98043190D01*
X139565571Y-98090809D01*
X140089380Y-98090809D01*
X139041761Y-99281285D02*
X140327476Y-98424142D01*
X141453666Y-85876523D02*
X141453666Y-86352714D01*
X141739380Y-85781285D02*
X140739380Y-86114619D01*
X141739380Y-86447952D01*
X141691761Y-87209857D02*
X141739380Y-87114619D01*
X141739380Y-86924142D01*
X141691761Y-86828904D01*
X141644142Y-86781285D01*
X141548904Y-86733666D01*
X141263190Y-86733666D01*
X141167952Y-86781285D01*
X141120333Y-86828904D01*
X141072714Y-86924142D01*
X141072714Y-87114619D01*
X141120333Y-87209857D01*
X141691761Y-88067000D02*
X141739380Y-87971761D01*
X141739380Y-87781285D01*
X141691761Y-87686047D01*
X141644142Y-87638428D01*
X141548904Y-87590809D01*
X141263190Y-87590809D01*
X141167952Y-87638428D01*
X141120333Y-87686047D01*
X141072714Y-87781285D01*
X141072714Y-87971761D01*
X141120333Y-88067000D01*
X141691761Y-88876523D02*
X141739380Y-88781285D01*
X141739380Y-88590809D01*
X141691761Y-88495571D01*
X141596523Y-88447952D01*
X141215571Y-88447952D01*
X141120333Y-88495571D01*
X141072714Y-88590809D01*
X141072714Y-88781285D01*
X141120333Y-88876523D01*
X141215571Y-88924142D01*
X141310809Y-88924142D01*
X141406047Y-88447952D01*
X141691761Y-89305095D02*
X141739380Y-89400333D01*
X141739380Y-89590809D01*
X141691761Y-89686047D01*
X141596523Y-89733666D01*
X141548904Y-89733666D01*
X141453666Y-89686047D01*
X141406047Y-89590809D01*
X141406047Y-89447952D01*
X141358428Y-89352714D01*
X141263190Y-89305095D01*
X141215571Y-89305095D01*
X141120333Y-89352714D01*
X141072714Y-89447952D01*
X141072714Y-89590809D01*
X141120333Y-89686047D01*
X141691761Y-90114619D02*
X141739380Y-90209857D01*
X141739380Y-90400333D01*
X141691761Y-90495571D01*
X141596523Y-90543190D01*
X141548904Y-90543190D01*
X141453666Y-90495571D01*
X141406047Y-90400333D01*
X141406047Y-90257476D01*
X141358428Y-90162238D01*
X141263190Y-90114619D01*
X141215571Y-90114619D01*
X141120333Y-90162238D01*
X141072714Y-90257476D01*
X141072714Y-90400333D01*
X141120333Y-90495571D01*
X141739380Y-90971761D02*
X141072714Y-90971761D01*
X140739380Y-90971761D02*
X140787000Y-90924142D01*
X140834619Y-90971761D01*
X140787000Y-91019380D01*
X140739380Y-90971761D01*
X140834619Y-90971761D01*
X141739380Y-91447952D02*
X140739380Y-91447952D01*
X141120333Y-91447952D02*
X141072714Y-91543190D01*
X141072714Y-91733666D01*
X141120333Y-91828904D01*
X141167952Y-91876523D01*
X141263190Y-91924142D01*
X141548904Y-91924142D01*
X141644142Y-91876523D01*
X141691761Y-91828904D01*
X141739380Y-91733666D01*
X141739380Y-91543190D01*
X141691761Y-91447952D01*
X141739380Y-92495571D02*
X141691761Y-92400333D01*
X141596523Y-92352714D01*
X140739380Y-92352714D01*
X141691761Y-93257476D02*
X141739380Y-93162238D01*
X141739380Y-92971761D01*
X141691761Y-92876523D01*
X141596523Y-92828904D01*
X141215571Y-92828904D01*
X141120333Y-92876523D01*
X141072714Y-92971761D01*
X141072714Y-93162238D01*
X141120333Y-93257476D01*
X141215571Y-93305095D01*
X141310809Y-93305095D01*
X141406047Y-92828904D01*
X141358428Y-93733666D02*
X141358428Y-94495571D01*
X141453666Y-94924142D02*
X141453666Y-95400333D01*
X141739380Y-94828904D02*
X140739380Y-95162238D01*
X141739380Y-95495571D01*
X141453666Y-95781285D02*
X141453666Y-96257476D01*
X141739380Y-95686047D02*
X140739380Y-96019380D01*
X141739380Y-96352714D01*
X141644142Y-97257476D02*
X141691761Y-97209857D01*
X141739380Y-97067000D01*
X141739380Y-96971761D01*
X141691761Y-96828904D01*
X141596523Y-96733666D01*
X141501285Y-96686047D01*
X141310809Y-96638428D01*
X141167952Y-96638428D01*
X140977476Y-96686047D01*
X140882238Y-96733666D01*
X140787000Y-96828904D01*
X140739380Y-96971761D01*
X140739380Y-97067000D01*
X140787000Y-97209857D01*
X140834619Y-97257476D01*
X134135523Y-79987666D02*
X133659333Y-79987666D01*
X134230761Y-80273380D02*
X133897428Y-79273380D01*
X133564095Y-80273380D01*
X133230761Y-80273380D02*
X133230761Y-79606714D01*
X133230761Y-79797190D02*
X133183142Y-79701952D01*
X133135523Y-79654333D01*
X133040285Y-79606714D01*
X132945047Y-79606714D01*
X132183142Y-80225761D02*
X132278380Y-80273380D01*
X132468857Y-80273380D01*
X132564095Y-80225761D01*
X132611714Y-80178142D01*
X132659333Y-80082904D01*
X132659333Y-79797190D01*
X132611714Y-79701952D01*
X132564095Y-79654333D01*
X132468857Y-79606714D01*
X132278380Y-79606714D01*
X132183142Y-79654333D01*
X131326000Y-80273380D02*
X131326000Y-79749571D01*
X131373619Y-79654333D01*
X131468857Y-79606714D01*
X131659333Y-79606714D01*
X131754571Y-79654333D01*
X131326000Y-80225761D02*
X131421238Y-80273380D01*
X131659333Y-80273380D01*
X131754571Y-80225761D01*
X131802190Y-80130523D01*
X131802190Y-80035285D01*
X131754571Y-79940047D01*
X131659333Y-79892428D01*
X131421238Y-79892428D01*
X131326000Y-79844809D01*
X130421238Y-80273380D02*
X130421238Y-79273380D01*
X130421238Y-80225761D02*
X130516476Y-80273380D01*
X130706952Y-80273380D01*
X130802190Y-80225761D01*
X130849809Y-80178142D01*
X130897428Y-80082904D01*
X130897428Y-79797190D01*
X130849809Y-79701952D01*
X130802190Y-79654333D01*
X130706952Y-79606714D01*
X130516476Y-79606714D01*
X130421238Y-79654333D01*
X129564095Y-80225761D02*
X129659333Y-80273380D01*
X129849809Y-80273380D01*
X129945047Y-80225761D01*
X129992666Y-80130523D01*
X129992666Y-79749571D01*
X129945047Y-79654333D01*
X129849809Y-79606714D01*
X129659333Y-79606714D01*
X129564095Y-79654333D01*
X129516476Y-79749571D01*
X129516476Y-79844809D01*
X129992666Y-79940047D01*
X134278380Y-80923380D02*
X134278380Y-81637666D01*
X134326000Y-81780523D01*
X134421238Y-81875761D01*
X134564095Y-81923380D01*
X134659333Y-81923380D01*
X133659333Y-81923380D02*
X133754571Y-81875761D01*
X133802190Y-81828142D01*
X133849809Y-81732904D01*
X133849809Y-81447190D01*
X133802190Y-81351952D01*
X133754571Y-81304333D01*
X133659333Y-81256714D01*
X133516476Y-81256714D01*
X133421238Y-81304333D01*
X133373619Y-81351952D01*
X133326000Y-81447190D01*
X133326000Y-81732904D01*
X133373619Y-81828142D01*
X133421238Y-81875761D01*
X133516476Y-81923380D01*
X133659333Y-81923380D01*
X132992666Y-81256714D02*
X132754571Y-81923380D01*
X132516476Y-81256714D02*
X132754571Y-81923380D01*
X132849809Y-82161476D01*
X132897428Y-82209095D01*
X132992666Y-82256714D01*
X132183142Y-81875761D02*
X132087904Y-81923380D01*
X131897428Y-81923380D01*
X131802190Y-81875761D01*
X131754571Y-81780523D01*
X131754571Y-81732904D01*
X131802190Y-81637666D01*
X131897428Y-81590047D01*
X132040285Y-81590047D01*
X132135523Y-81542428D01*
X132183142Y-81447190D01*
X132183142Y-81399571D01*
X132135523Y-81304333D01*
X132040285Y-81256714D01*
X131897428Y-81256714D01*
X131802190Y-81304333D01*
X131468857Y-81256714D02*
X131087904Y-81256714D01*
X131326000Y-80923380D02*
X131326000Y-81780523D01*
X131278380Y-81875761D01*
X131183142Y-81923380D01*
X131087904Y-81923380D01*
X130754571Y-81923380D02*
X130754571Y-81256714D01*
X130754571Y-80923380D02*
X130802190Y-80971000D01*
X130754571Y-81018619D01*
X130706952Y-80971000D01*
X130754571Y-80923380D01*
X130754571Y-81018619D01*
X129849809Y-81875761D02*
X129945047Y-81923380D01*
X130135523Y-81923380D01*
X130230761Y-81875761D01*
X130278380Y-81828142D01*
X130326000Y-81732904D01*
X130326000Y-81447190D01*
X130278380Y-81351952D01*
X130230761Y-81304333D01*
X130135523Y-81256714D01*
X129945047Y-81256714D01*
X129849809Y-81304333D01*
X129421238Y-81923380D02*
X129421238Y-80923380D01*
X129326000Y-81542428D02*
X129040285Y-81923380D01*
X129040285Y-81256714D02*
X129421238Y-81637666D01*
X134897428Y-83573380D02*
X134897428Y-82573380D01*
X134421238Y-82906714D02*
X134421238Y-83573380D01*
X134421238Y-83001952D02*
X134373619Y-82954333D01*
X134278380Y-82906714D01*
X134135523Y-82906714D01*
X134040285Y-82954333D01*
X133992666Y-83049571D01*
X133992666Y-83573380D01*
X133659333Y-82906714D02*
X133278380Y-82906714D01*
X133516476Y-82573380D02*
X133516476Y-83430523D01*
X133468857Y-83525761D01*
X133373619Y-83573380D01*
X133278380Y-83573380D01*
X132564095Y-83525761D02*
X132659333Y-83573380D01*
X132849809Y-83573380D01*
X132945047Y-83525761D01*
X132992666Y-83430523D01*
X132992666Y-83049571D01*
X132945047Y-82954333D01*
X132849809Y-82906714D01*
X132659333Y-82906714D01*
X132564095Y-82954333D01*
X132516476Y-83049571D01*
X132516476Y-83144809D01*
X132992666Y-83240047D01*
X132087904Y-83573380D02*
X132087904Y-82906714D01*
X132087904Y-83097190D02*
X132040285Y-83001952D01*
X131992666Y-82954333D01*
X131897428Y-82906714D01*
X131802190Y-82906714D01*
X131611714Y-82906714D02*
X131230761Y-82906714D01*
X131468857Y-83573380D02*
X131468857Y-82716238D01*
X131421238Y-82621000D01*
X131326000Y-82573380D01*
X131230761Y-82573380D01*
X130468857Y-83573380D02*
X130468857Y-83049571D01*
X130516476Y-82954333D01*
X130611714Y-82906714D01*
X130802190Y-82906714D01*
X130897428Y-82954333D01*
X130468857Y-83525761D02*
X130564095Y-83573380D01*
X130802190Y-83573380D01*
X130897428Y-83525761D01*
X130945047Y-83430523D01*
X130945047Y-83335285D01*
X130897428Y-83240047D01*
X130802190Y-83192428D01*
X130564095Y-83192428D01*
X130468857Y-83144809D01*
X129564095Y-83525761D02*
X129659333Y-83573380D01*
X129849809Y-83573380D01*
X129945047Y-83525761D01*
X129992666Y-83478142D01*
X130040285Y-83382904D01*
X130040285Y-83097190D01*
X129992666Y-83001952D01*
X129945047Y-82954333D01*
X129849809Y-82906714D01*
X129659333Y-82906714D01*
X129564095Y-82954333D01*
X128754571Y-83525761D02*
X128849809Y-83573380D01*
X129040285Y-83573380D01*
X129135523Y-83525761D01*
X129183142Y-83430523D01*
X129183142Y-83049571D01*
X129135523Y-82954333D01*
X129040285Y-82906714D01*
X128849809Y-82906714D01*
X128754571Y-82954333D01*
X128706952Y-83049571D01*
X128706952Y-83144809D01*
X129183142Y-83240047D01*
X134706952Y-84223380D02*
X134373619Y-85223380D01*
X134040285Y-84223380D01*
X133326000Y-85175761D02*
X133421238Y-85223380D01*
X133611714Y-85223380D01*
X133706952Y-85175761D01*
X133754571Y-85080523D01*
X133754571Y-84699571D01*
X133706952Y-84604333D01*
X133611714Y-84556714D01*
X133421238Y-84556714D01*
X133326000Y-84604333D01*
X133278380Y-84699571D01*
X133278380Y-84794809D01*
X133754571Y-84890047D01*
X132849809Y-85223380D02*
X132849809Y-84556714D01*
X132849809Y-84747190D02*
X132802190Y-84651952D01*
X132754571Y-84604333D01*
X132659333Y-84556714D01*
X132564095Y-84556714D01*
X132230761Y-85128142D02*
X132183142Y-85175761D01*
X132230761Y-85223380D01*
X132278380Y-85175761D01*
X132230761Y-85128142D01*
X132230761Y-85223380D01*
X130468857Y-85223380D02*
X131040285Y-85223380D01*
X130754571Y-85223380D02*
X130754571Y-84223380D01*
X130849809Y-84366238D01*
X130945047Y-84461476D01*
X131040285Y-84509095D01*
X130040285Y-85128142D02*
X129992666Y-85175761D01*
X130040285Y-85223380D01*
X130087904Y-85175761D01*
X130040285Y-85128142D01*
X130040285Y-85223380D01*
X129040285Y-85223380D02*
X129611714Y-85223380D01*
X129326000Y-85223380D02*
X129326000Y-84223380D01*
X129421238Y-84366238D01*
X129516476Y-84461476D01*
X129611714Y-84509095D01*
X124740001Y-92835000D02*
X124740001Y-87235000D01*
X126740001Y-87235000D02*
X124740001Y-87235000D01*
X126740001Y-92835000D02*
X124740001Y-92835000D01*
X126740001Y-86985000D02*
X138840001Y-86985000D01*
X126740001Y-93085000D02*
X138840001Y-93085000D01*
X138840001Y-93085000D02*
X138840001Y-86985000D01*
X126740001Y-93085000D02*
X126740001Y-86985000D01*
X133556333Y-93813380D02*
X133556333Y-94527666D01*
X133603952Y-94670523D01*
X133699190Y-94765761D01*
X133842047Y-94813380D01*
X133937285Y-94813380D01*
X132556333Y-94813380D02*
X133127761Y-94813380D01*
X132842047Y-94813380D02*
X132842047Y-93813380D01*
X132937285Y-93956238D01*
X133032523Y-94051476D01*
X133127761Y-94099095D01*
M02*
