G04 #@! TF.GenerationSoftware,KiCad,Pcbnew,5.1.3-ffb9f22~84~ubuntu16.04.1*
G04 #@! TF.CreationDate,2019-07-25T12:18:42-04:00*
G04 #@! TF.ProjectId,lightbox_pcb,6c696768-7462-46f7-985f-7063622e6b69,rev?*
G04 #@! TF.SameCoordinates,Original*
G04 #@! TF.FileFunction,Soldermask,Top*
G04 #@! TF.FilePolarity,Negative*
%FSLAX46Y46*%
G04 Gerber Fmt 4.6, Leading zero omitted, Abs format (unit mm)*
G04 Created by KiCad (PCBNEW 5.1.3-ffb9f22~84~ubuntu16.04.1) date 2019-07-25 12:18:42*
%MOMM*%
%LPD*%
G04 APERTURE LIST*
%ADD10C,0.100000*%
G04 APERTURE END LIST*
D10*
G36*
X154299228Y-151581703D02*
G01*
X154454100Y-151645853D01*
X154593481Y-151738985D01*
X154712015Y-151857519D01*
X154805147Y-151996900D01*
X154869297Y-152151772D01*
X154902000Y-152316184D01*
X154902000Y-152483816D01*
X154869297Y-152648228D01*
X154805147Y-152803100D01*
X154712015Y-152942481D01*
X154593481Y-153061015D01*
X154454100Y-153154147D01*
X154299228Y-153218297D01*
X154134816Y-153251000D01*
X153967184Y-153251000D01*
X153802772Y-153218297D01*
X153647900Y-153154147D01*
X153508519Y-153061015D01*
X153389985Y-152942481D01*
X153296853Y-152803100D01*
X153232703Y-152648228D01*
X153200000Y-152483816D01*
X153200000Y-152316184D01*
X153232703Y-152151772D01*
X153296853Y-151996900D01*
X153389985Y-151857519D01*
X153508519Y-151738985D01*
X153647900Y-151645853D01*
X153802772Y-151581703D01*
X153967184Y-151549000D01*
X154134816Y-151549000D01*
X154299228Y-151581703D01*
X154299228Y-151581703D01*
G37*
G36*
X161837823Y-151561313D02*
G01*
X161998242Y-151609976D01*
X162065361Y-151645852D01*
X162146078Y-151688996D01*
X162275659Y-151795341D01*
X162382004Y-151924922D01*
X162382005Y-151924924D01*
X162461024Y-152072758D01*
X162509687Y-152233177D01*
X162526117Y-152400000D01*
X162509687Y-152566823D01*
X162461024Y-152727242D01*
X162420477Y-152803100D01*
X162382004Y-152875078D01*
X162275659Y-153004659D01*
X162146078Y-153111004D01*
X162146076Y-153111005D01*
X161998242Y-153190024D01*
X161837823Y-153238687D01*
X161712804Y-153251000D01*
X161629196Y-153251000D01*
X161504177Y-153238687D01*
X161343758Y-153190024D01*
X161195924Y-153111005D01*
X161195922Y-153111004D01*
X161066341Y-153004659D01*
X160959996Y-152875078D01*
X160921523Y-152803100D01*
X160880976Y-152727242D01*
X160832313Y-152566823D01*
X160815883Y-152400000D01*
X160832313Y-152233177D01*
X160880976Y-152072758D01*
X160959995Y-151924924D01*
X160959996Y-151924922D01*
X161066341Y-151795341D01*
X161195922Y-151688996D01*
X161276639Y-151645852D01*
X161343758Y-151609976D01*
X161504177Y-151561313D01*
X161629196Y-151549000D01*
X161712804Y-151549000D01*
X161837823Y-151561313D01*
X161837823Y-151561313D01*
G37*
G36*
X141853228Y-151454703D02*
G01*
X142008100Y-151518853D01*
X142147481Y-151611985D01*
X142266015Y-151730519D01*
X142359147Y-151869900D01*
X142423297Y-152024772D01*
X142456000Y-152189184D01*
X142456000Y-152356816D01*
X142423297Y-152521228D01*
X142359147Y-152676100D01*
X142266015Y-152815481D01*
X142147481Y-152934015D01*
X142008100Y-153027147D01*
X141853228Y-153091297D01*
X141688816Y-153124000D01*
X141521184Y-153124000D01*
X141356772Y-153091297D01*
X141201900Y-153027147D01*
X141062519Y-152934015D01*
X140943985Y-152815481D01*
X140850853Y-152676100D01*
X140786703Y-152521228D01*
X140754000Y-152356816D01*
X140754000Y-152189184D01*
X140786703Y-152024772D01*
X140850853Y-151869900D01*
X140943985Y-151730519D01*
X141062519Y-151611985D01*
X141201900Y-151518853D01*
X141356772Y-151454703D01*
X141521184Y-151422000D01*
X141688816Y-151422000D01*
X141853228Y-151454703D01*
X141853228Y-151454703D01*
G37*
G36*
X149391823Y-151434313D02*
G01*
X149552242Y-151482976D01*
X149619361Y-151518852D01*
X149700078Y-151561996D01*
X149829659Y-151668341D01*
X149936004Y-151797922D01*
X149936005Y-151797924D01*
X150015024Y-151945758D01*
X150063687Y-152106177D01*
X150080117Y-152273000D01*
X150063687Y-152439823D01*
X150015024Y-152600242D01*
X149974477Y-152676100D01*
X149936004Y-152748078D01*
X149829659Y-152877659D01*
X149700078Y-152984004D01*
X149700076Y-152984005D01*
X149552242Y-153063024D01*
X149391823Y-153111687D01*
X149266804Y-153124000D01*
X149183196Y-153124000D01*
X149058177Y-153111687D01*
X148897758Y-153063024D01*
X148749924Y-152984005D01*
X148749922Y-152984004D01*
X148620341Y-152877659D01*
X148513996Y-152748078D01*
X148475523Y-152676100D01*
X148434976Y-152600242D01*
X148386313Y-152439823D01*
X148369883Y-152273000D01*
X148386313Y-152106177D01*
X148434976Y-151945758D01*
X148513995Y-151797924D01*
X148513996Y-151797922D01*
X148620341Y-151668341D01*
X148749922Y-151561996D01*
X148830639Y-151518852D01*
X148897758Y-151482976D01*
X149058177Y-151434313D01*
X149183196Y-151422000D01*
X149266804Y-151422000D01*
X149391823Y-151434313D01*
X149391823Y-151434313D01*
G37*
G36*
X149783823Y-148646313D02*
G01*
X149944242Y-148694976D01*
X150076906Y-148765886D01*
X150092078Y-148773996D01*
X150221659Y-148880341D01*
X150328004Y-149009922D01*
X150328005Y-149009924D01*
X150407024Y-149157758D01*
X150455687Y-149318177D01*
X150472117Y-149485000D01*
X150455687Y-149651823D01*
X150407024Y-149812242D01*
X150336114Y-149944906D01*
X150328004Y-149960078D01*
X150221659Y-150089659D01*
X150092078Y-150196004D01*
X150092076Y-150196005D01*
X149944242Y-150275024D01*
X149783823Y-150323687D01*
X149658804Y-150336000D01*
X149175196Y-150336000D01*
X149050177Y-150323687D01*
X148889758Y-150275024D01*
X148741924Y-150196005D01*
X148741922Y-150196004D01*
X148612341Y-150089659D01*
X148505996Y-149960078D01*
X148497886Y-149944906D01*
X148426976Y-149812242D01*
X148378313Y-149651823D01*
X148361883Y-149485000D01*
X148378313Y-149318177D01*
X148426976Y-149157758D01*
X148505995Y-149009924D01*
X148505996Y-149009922D01*
X148612341Y-148880341D01*
X148741922Y-148773996D01*
X148757094Y-148765886D01*
X148889758Y-148694976D01*
X149050177Y-148646313D01*
X149175196Y-148634000D01*
X149658804Y-148634000D01*
X149783823Y-148646313D01*
X149783823Y-148646313D01*
G37*
G36*
X145783823Y-148646313D02*
G01*
X145944242Y-148694976D01*
X146076906Y-148765886D01*
X146092078Y-148773996D01*
X146221659Y-148880341D01*
X146328004Y-149009922D01*
X146328005Y-149009924D01*
X146407024Y-149157758D01*
X146455687Y-149318177D01*
X146472117Y-149485000D01*
X146455687Y-149651823D01*
X146407024Y-149812242D01*
X146336114Y-149944906D01*
X146328004Y-149960078D01*
X146221659Y-150089659D01*
X146092078Y-150196004D01*
X146092076Y-150196005D01*
X145944242Y-150275024D01*
X145783823Y-150323687D01*
X145658804Y-150336000D01*
X145175196Y-150336000D01*
X145050177Y-150323687D01*
X144889758Y-150275024D01*
X144741924Y-150196005D01*
X144741922Y-150196004D01*
X144612341Y-150089659D01*
X144505996Y-149960078D01*
X144497886Y-149944906D01*
X144426976Y-149812242D01*
X144378313Y-149651823D01*
X144361883Y-149485000D01*
X144378313Y-149318177D01*
X144426976Y-149157758D01*
X144505995Y-149009924D01*
X144505996Y-149009922D01*
X144612341Y-148880341D01*
X144741922Y-148773996D01*
X144757094Y-148765886D01*
X144889758Y-148694976D01*
X145050177Y-148646313D01*
X145175196Y-148634000D01*
X145658804Y-148634000D01*
X145783823Y-148646313D01*
X145783823Y-148646313D01*
G37*
G36*
X142783823Y-148646313D02*
G01*
X142944242Y-148694976D01*
X143076906Y-148765886D01*
X143092078Y-148773996D01*
X143221659Y-148880341D01*
X143328004Y-149009922D01*
X143328005Y-149009924D01*
X143407024Y-149157758D01*
X143455687Y-149318177D01*
X143472117Y-149485000D01*
X143455687Y-149651823D01*
X143407024Y-149812242D01*
X143336114Y-149944906D01*
X143328004Y-149960078D01*
X143221659Y-150089659D01*
X143092078Y-150196004D01*
X143092076Y-150196005D01*
X142944242Y-150275024D01*
X142783823Y-150323687D01*
X142658804Y-150336000D01*
X142175196Y-150336000D01*
X142050177Y-150323687D01*
X141889758Y-150275024D01*
X141741924Y-150196005D01*
X141741922Y-150196004D01*
X141612341Y-150089659D01*
X141505996Y-149960078D01*
X141497886Y-149944906D01*
X141426976Y-149812242D01*
X141378313Y-149651823D01*
X141361883Y-149485000D01*
X141378313Y-149318177D01*
X141426976Y-149157758D01*
X141505995Y-149009924D01*
X141505996Y-149009922D01*
X141612341Y-148880341D01*
X141741922Y-148773996D01*
X141757094Y-148765886D01*
X141889758Y-148694976D01*
X142050177Y-148646313D01*
X142175196Y-148634000D01*
X142658804Y-148634000D01*
X142783823Y-148646313D01*
X142783823Y-148646313D01*
G37*
G36*
X158981000Y-148155000D02*
G01*
X157879000Y-148155000D01*
X157879000Y-146653000D01*
X158981000Y-146653000D01*
X158981000Y-148155000D01*
X158981000Y-148155000D01*
G37*
G36*
X157081000Y-148155000D02*
G01*
X155979000Y-148155000D01*
X155979000Y-146653000D01*
X157081000Y-146653000D01*
X157081000Y-148155000D01*
X157081000Y-148155000D01*
G37*
G36*
X147948552Y-146751331D02*
G01*
X148030627Y-146785328D01*
X148030629Y-146785329D01*
X148067813Y-146810175D01*
X148104495Y-146834685D01*
X148167315Y-146897505D01*
X148216672Y-146971373D01*
X148250669Y-147053448D01*
X148268000Y-147140579D01*
X148268000Y-147229421D01*
X148250669Y-147316552D01*
X148216672Y-147398627D01*
X148216671Y-147398629D01*
X148167314Y-147472496D01*
X148104496Y-147535314D01*
X148030629Y-147584671D01*
X148030628Y-147584672D01*
X148030627Y-147584672D01*
X147948552Y-147618669D01*
X147861421Y-147636000D01*
X147772579Y-147636000D01*
X147685448Y-147618669D01*
X147603373Y-147584672D01*
X147603372Y-147584672D01*
X147603371Y-147584671D01*
X147529504Y-147535314D01*
X147466686Y-147472496D01*
X147417329Y-147398629D01*
X147417328Y-147398627D01*
X147383331Y-147316552D01*
X147366000Y-147229421D01*
X147366000Y-147140579D01*
X147383331Y-147053448D01*
X147417328Y-146971373D01*
X147466685Y-146897505D01*
X147529505Y-146834685D01*
X147566187Y-146810175D01*
X147603371Y-146785329D01*
X147603373Y-146785328D01*
X147685448Y-146751331D01*
X147772579Y-146734000D01*
X147861421Y-146734000D01*
X147948552Y-146751331D01*
X147948552Y-146751331D01*
G37*
G36*
X140948552Y-146751331D02*
G01*
X141030627Y-146785328D01*
X141030629Y-146785329D01*
X141067813Y-146810175D01*
X141104495Y-146834685D01*
X141167315Y-146897505D01*
X141216672Y-146971373D01*
X141250669Y-147053448D01*
X141268000Y-147140579D01*
X141268000Y-147229421D01*
X141250669Y-147316552D01*
X141216672Y-147398627D01*
X141216671Y-147398629D01*
X141167314Y-147472496D01*
X141104496Y-147535314D01*
X141030629Y-147584671D01*
X141030628Y-147584672D01*
X141030627Y-147584672D01*
X140948552Y-147618669D01*
X140861421Y-147636000D01*
X140772579Y-147636000D01*
X140685448Y-147618669D01*
X140603373Y-147584672D01*
X140603372Y-147584672D01*
X140603371Y-147584671D01*
X140529504Y-147535314D01*
X140466686Y-147472496D01*
X140417329Y-147398629D01*
X140417328Y-147398627D01*
X140383331Y-147316552D01*
X140366000Y-147229421D01*
X140366000Y-147140579D01*
X140383331Y-147053448D01*
X140417328Y-146971373D01*
X140466685Y-146897505D01*
X140529505Y-146834685D01*
X140566187Y-146810175D01*
X140603371Y-146785329D01*
X140603373Y-146785328D01*
X140685448Y-146751331D01*
X140772579Y-146734000D01*
X140861421Y-146734000D01*
X140948552Y-146751331D01*
X140948552Y-146751331D01*
G37*
G36*
X157081000Y-145955000D02*
G01*
X155979000Y-145955000D01*
X155979000Y-144453000D01*
X157081000Y-144453000D01*
X157081000Y-145955000D01*
X157081000Y-145955000D01*
G37*
G36*
X158901000Y-145955000D02*
G01*
X157599000Y-145955000D01*
X157599000Y-144453000D01*
X158901000Y-144453000D01*
X158901000Y-145955000D01*
X158901000Y-145955000D01*
G37*
G36*
X150883823Y-144046313D02*
G01*
X151044242Y-144094976D01*
X151176906Y-144165886D01*
X151192078Y-144173996D01*
X151321659Y-144280341D01*
X151428004Y-144409922D01*
X151428005Y-144409924D01*
X151507024Y-144557758D01*
X151555687Y-144718177D01*
X151572117Y-144885000D01*
X151555687Y-145051823D01*
X151507024Y-145212242D01*
X151436114Y-145344906D01*
X151428004Y-145360078D01*
X151321659Y-145489659D01*
X151192078Y-145596004D01*
X151192076Y-145596005D01*
X151044242Y-145675024D01*
X150883823Y-145723687D01*
X150758804Y-145736000D01*
X150275196Y-145736000D01*
X150150177Y-145723687D01*
X149989758Y-145675024D01*
X149841924Y-145596005D01*
X149841922Y-145596004D01*
X149712341Y-145489659D01*
X149605996Y-145360078D01*
X149597886Y-145344906D01*
X149526976Y-145212242D01*
X149478313Y-145051823D01*
X149461883Y-144885000D01*
X149478313Y-144718177D01*
X149526976Y-144557758D01*
X149605995Y-144409924D01*
X149605996Y-144409922D01*
X149712341Y-144280341D01*
X149841922Y-144173996D01*
X149857094Y-144165886D01*
X149989758Y-144094976D01*
X150150177Y-144046313D01*
X150275196Y-144034000D01*
X150758804Y-144034000D01*
X150883823Y-144046313D01*
X150883823Y-144046313D01*
G37*
G36*
X152951000Y-141951000D02*
G01*
X151049000Y-141951000D01*
X151049000Y-140049000D01*
X152951000Y-140049000D01*
X152951000Y-141951000D01*
X152951000Y-141951000D01*
G37*
G36*
X149737395Y-140085546D02*
G01*
X149910466Y-140157234D01*
X149910467Y-140157235D01*
X150066227Y-140261310D01*
X150198690Y-140393773D01*
X150198691Y-140393775D01*
X150302766Y-140549534D01*
X150374454Y-140722605D01*
X150411000Y-140906333D01*
X150411000Y-141093667D01*
X150374454Y-141277395D01*
X150302766Y-141450466D01*
X150302765Y-141450467D01*
X150198690Y-141606227D01*
X150066227Y-141738690D01*
X149987818Y-141791081D01*
X149910466Y-141842766D01*
X149737395Y-141914454D01*
X149553667Y-141951000D01*
X149366333Y-141951000D01*
X149182605Y-141914454D01*
X149009534Y-141842766D01*
X148932182Y-141791081D01*
X148853773Y-141738690D01*
X148721310Y-141606227D01*
X148617235Y-141450467D01*
X148617234Y-141450466D01*
X148545546Y-141277395D01*
X148509000Y-141093667D01*
X148509000Y-140906333D01*
X148545546Y-140722605D01*
X148617234Y-140549534D01*
X148721309Y-140393775D01*
X148721310Y-140393773D01*
X148853773Y-140261310D01*
X149009533Y-140157235D01*
X149009534Y-140157234D01*
X149182605Y-140085546D01*
X149366333Y-140049000D01*
X149553667Y-140049000D01*
X149737395Y-140085546D01*
X149737395Y-140085546D01*
G37*
G36*
X146552228Y-138881703D02*
G01*
X146707100Y-138945853D01*
X146846481Y-139038985D01*
X146965015Y-139157519D01*
X147058147Y-139296900D01*
X147122297Y-139451772D01*
X147155000Y-139616184D01*
X147155000Y-139783816D01*
X147122297Y-139948228D01*
X147058147Y-140103100D01*
X146965015Y-140242481D01*
X146846481Y-140361015D01*
X146707100Y-140454147D01*
X146552228Y-140518297D01*
X146387816Y-140551000D01*
X146220184Y-140551000D01*
X146055772Y-140518297D01*
X145900900Y-140454147D01*
X145761519Y-140361015D01*
X145642985Y-140242481D01*
X145549853Y-140103100D01*
X145485703Y-139948228D01*
X145453000Y-139783816D01*
X145453000Y-139616184D01*
X145485703Y-139451772D01*
X145549853Y-139296900D01*
X145642985Y-139157519D01*
X145761519Y-139038985D01*
X145900900Y-138945853D01*
X146055772Y-138881703D01*
X146220184Y-138849000D01*
X146387816Y-138849000D01*
X146552228Y-138881703D01*
X146552228Y-138881703D01*
G37*
G36*
X160889943Y-132066248D02*
G01*
X161445189Y-132296238D01*
X161445190Y-132296239D01*
X161944899Y-132630134D01*
X162369866Y-133055101D01*
X162369867Y-133055103D01*
X162703762Y-133554811D01*
X162933752Y-134110057D01*
X163051000Y-134699501D01*
X163051000Y-135300499D01*
X162933752Y-135889943D01*
X162703762Y-136445189D01*
X162703761Y-136445190D01*
X162369866Y-136944899D01*
X161944899Y-137369866D01*
X161693347Y-137537948D01*
X161445189Y-137703762D01*
X160889943Y-137933752D01*
X160300499Y-138051000D01*
X159699501Y-138051000D01*
X159110057Y-137933752D01*
X158554811Y-137703762D01*
X158306653Y-137537948D01*
X158055101Y-137369866D01*
X157630134Y-136944899D01*
X157296239Y-136445190D01*
X157296238Y-136445189D01*
X157066248Y-135889943D01*
X156949000Y-135300499D01*
X156949000Y-134699501D01*
X157066248Y-134110057D01*
X157296238Y-133554811D01*
X157630133Y-133055103D01*
X157630134Y-133055101D01*
X158055101Y-132630134D01*
X158554810Y-132296239D01*
X158554811Y-132296238D01*
X159110057Y-132066248D01*
X159699501Y-131949000D01*
X160300499Y-131949000D01*
X160889943Y-132066248D01*
X160889943Y-132066248D01*
G37*
G36*
X146470823Y-131241313D02*
G01*
X146631242Y-131289976D01*
X146763906Y-131360886D01*
X146779078Y-131368996D01*
X146908659Y-131475341D01*
X147015004Y-131604922D01*
X147015005Y-131604924D01*
X147094024Y-131752758D01*
X147142687Y-131913177D01*
X147159117Y-132080000D01*
X147142687Y-132246823D01*
X147094024Y-132407242D01*
X147023114Y-132539906D01*
X147015004Y-132555078D01*
X146908659Y-132684659D01*
X146779078Y-132791004D01*
X146779076Y-132791005D01*
X146631242Y-132870024D01*
X146470823Y-132918687D01*
X146345804Y-132931000D01*
X146262196Y-132931000D01*
X146137177Y-132918687D01*
X145976758Y-132870024D01*
X145828924Y-132791005D01*
X145828922Y-132791004D01*
X145699341Y-132684659D01*
X145592996Y-132555078D01*
X145584886Y-132539906D01*
X145513976Y-132407242D01*
X145465313Y-132246823D01*
X145448883Y-132080000D01*
X145465313Y-131913177D01*
X145513976Y-131752758D01*
X145592995Y-131604924D01*
X145592996Y-131604922D01*
X145699341Y-131475341D01*
X145828922Y-131368996D01*
X145844094Y-131360886D01*
X145976758Y-131289976D01*
X146137177Y-131241313D01*
X146262196Y-131229000D01*
X146345804Y-131229000D01*
X146470823Y-131241313D01*
X146470823Y-131241313D01*
G37*
G36*
X146552228Y-128086703D02*
G01*
X146707100Y-128150853D01*
X146846481Y-128243985D01*
X146965015Y-128362519D01*
X147058147Y-128501900D01*
X147122297Y-128656772D01*
X147155000Y-128821184D01*
X147155000Y-128988816D01*
X147122297Y-129153228D01*
X147058147Y-129308100D01*
X146965015Y-129447481D01*
X146846481Y-129566015D01*
X146707100Y-129659147D01*
X146552228Y-129723297D01*
X146387816Y-129756000D01*
X146220184Y-129756000D01*
X146055772Y-129723297D01*
X145900900Y-129659147D01*
X145761519Y-129566015D01*
X145642985Y-129447481D01*
X145549853Y-129308100D01*
X145485703Y-129153228D01*
X145453000Y-128988816D01*
X145453000Y-128821184D01*
X145485703Y-128656772D01*
X145549853Y-128501900D01*
X145642985Y-128362519D01*
X145761519Y-128243985D01*
X145900900Y-128150853D01*
X146055772Y-128086703D01*
X146220184Y-128054000D01*
X146387816Y-128054000D01*
X146552228Y-128086703D01*
X146552228Y-128086703D01*
G37*
G36*
X152951000Y-128951000D02*
G01*
X151049000Y-128951000D01*
X151049000Y-127049000D01*
X152951000Y-127049000D01*
X152951000Y-128951000D01*
X152951000Y-128951000D01*
G37*
G36*
X149737395Y-127085546D02*
G01*
X149910466Y-127157234D01*
X149910467Y-127157235D01*
X150066227Y-127261310D01*
X150198690Y-127393773D01*
X150198691Y-127393775D01*
X150302766Y-127549534D01*
X150374454Y-127722605D01*
X150411000Y-127906333D01*
X150411000Y-128093667D01*
X150374454Y-128277395D01*
X150302766Y-128450466D01*
X150302765Y-128450467D01*
X150198690Y-128606227D01*
X150066227Y-128738690D01*
X149987818Y-128791081D01*
X149910466Y-128842766D01*
X149737395Y-128914454D01*
X149553667Y-128951000D01*
X149366333Y-128951000D01*
X149182605Y-128914454D01*
X149009534Y-128842766D01*
X148932182Y-128791081D01*
X148853773Y-128738690D01*
X148721310Y-128606227D01*
X148617235Y-128450467D01*
X148617234Y-128450466D01*
X148545546Y-128277395D01*
X148509000Y-128093667D01*
X148509000Y-127906333D01*
X148545546Y-127722605D01*
X148617234Y-127549534D01*
X148721309Y-127393775D01*
X148721310Y-127393773D01*
X148853773Y-127261310D01*
X149009533Y-127157235D01*
X149009534Y-127157234D01*
X149182605Y-127085546D01*
X149366333Y-127049000D01*
X149553667Y-127049000D01*
X149737395Y-127085546D01*
X149737395Y-127085546D01*
G37*
G36*
X146470823Y-120446313D02*
G01*
X146631242Y-120494976D01*
X146763906Y-120565886D01*
X146779078Y-120573996D01*
X146908659Y-120680341D01*
X147015004Y-120809922D01*
X147015005Y-120809924D01*
X147094024Y-120957758D01*
X147142687Y-121118177D01*
X147159117Y-121285000D01*
X147142687Y-121451823D01*
X147094024Y-121612242D01*
X147023114Y-121744906D01*
X147015004Y-121760078D01*
X146908659Y-121889659D01*
X146779078Y-121996004D01*
X146779076Y-121996005D01*
X146631242Y-122075024D01*
X146470823Y-122123687D01*
X146345804Y-122136000D01*
X146262196Y-122136000D01*
X146137177Y-122123687D01*
X145976758Y-122075024D01*
X145828924Y-121996005D01*
X145828922Y-121996004D01*
X145699341Y-121889659D01*
X145592996Y-121760078D01*
X145584886Y-121744906D01*
X145513976Y-121612242D01*
X145465313Y-121451823D01*
X145448883Y-121285000D01*
X145465313Y-121118177D01*
X145513976Y-120957758D01*
X145592995Y-120809924D01*
X145592996Y-120809922D01*
X145699341Y-120680341D01*
X145828922Y-120573996D01*
X145844094Y-120565886D01*
X145976758Y-120494976D01*
X146137177Y-120446313D01*
X146262196Y-120434000D01*
X146345804Y-120434000D01*
X146470823Y-120446313D01*
X146470823Y-120446313D01*
G37*
G36*
X146470823Y-117271313D02*
G01*
X146631242Y-117319976D01*
X146763906Y-117390886D01*
X146779078Y-117398996D01*
X146908659Y-117505341D01*
X147015004Y-117634922D01*
X147015005Y-117634924D01*
X147094024Y-117782758D01*
X147142687Y-117943177D01*
X147159117Y-118110000D01*
X147142687Y-118276823D01*
X147094024Y-118437242D01*
X147023114Y-118569906D01*
X147015004Y-118585078D01*
X146908659Y-118714659D01*
X146779078Y-118821004D01*
X146779076Y-118821005D01*
X146631242Y-118900024D01*
X146470823Y-118948687D01*
X146345804Y-118961000D01*
X146262196Y-118961000D01*
X146137177Y-118948687D01*
X145976758Y-118900024D01*
X145828924Y-118821005D01*
X145828922Y-118821004D01*
X145699341Y-118714659D01*
X145592996Y-118585078D01*
X145584886Y-118569906D01*
X145513976Y-118437242D01*
X145465313Y-118276823D01*
X145448883Y-118110000D01*
X145465313Y-117943177D01*
X145513976Y-117782758D01*
X145592995Y-117634924D01*
X145592996Y-117634922D01*
X145699341Y-117505341D01*
X145828922Y-117398996D01*
X145844094Y-117390886D01*
X145976758Y-117319976D01*
X146137177Y-117271313D01*
X146262196Y-117259000D01*
X146345804Y-117259000D01*
X146470823Y-117271313D01*
X146470823Y-117271313D01*
G37*
G36*
X152951000Y-115951000D02*
G01*
X151049000Y-115951000D01*
X151049000Y-114049000D01*
X152951000Y-114049000D01*
X152951000Y-115951000D01*
X152951000Y-115951000D01*
G37*
G36*
X149737395Y-114085546D02*
G01*
X149910466Y-114157234D01*
X149910467Y-114157235D01*
X150066227Y-114261310D01*
X150198690Y-114393773D01*
X150241284Y-114457520D01*
X150302766Y-114549534D01*
X150374454Y-114722605D01*
X150411000Y-114906333D01*
X150411000Y-115093667D01*
X150374454Y-115277395D01*
X150302766Y-115450466D01*
X150302765Y-115450467D01*
X150198690Y-115606227D01*
X150066227Y-115738690D01*
X150043092Y-115754148D01*
X149910466Y-115842766D01*
X149737395Y-115914454D01*
X149553667Y-115951000D01*
X149366333Y-115951000D01*
X149182605Y-115914454D01*
X149009534Y-115842766D01*
X148876908Y-115754148D01*
X148853773Y-115738690D01*
X148721310Y-115606227D01*
X148617235Y-115450467D01*
X148617234Y-115450466D01*
X148545546Y-115277395D01*
X148509000Y-115093667D01*
X148509000Y-114906333D01*
X148545546Y-114722605D01*
X148617234Y-114549534D01*
X148678716Y-114457520D01*
X148721310Y-114393773D01*
X148853773Y-114261310D01*
X149009533Y-114157235D01*
X149009534Y-114157234D01*
X149182605Y-114085546D01*
X149366333Y-114049000D01*
X149553667Y-114049000D01*
X149737395Y-114085546D01*
X149737395Y-114085546D01*
G37*
G36*
X156851000Y-115851000D02*
G01*
X155149000Y-115851000D01*
X155149000Y-114149000D01*
X156851000Y-114149000D01*
X156851000Y-115851000D01*
X156851000Y-115851000D01*
G37*
G36*
X163868228Y-114181703D02*
G01*
X164023100Y-114245853D01*
X164162481Y-114338985D01*
X164281015Y-114457519D01*
X164374147Y-114596900D01*
X164438297Y-114751772D01*
X164471000Y-114916184D01*
X164471000Y-115083816D01*
X164438297Y-115248228D01*
X164374147Y-115403100D01*
X164281015Y-115542481D01*
X164162481Y-115661015D01*
X164023100Y-115754147D01*
X163868228Y-115818297D01*
X163703816Y-115851000D01*
X163536184Y-115851000D01*
X163371772Y-115818297D01*
X163216900Y-115754147D01*
X163077519Y-115661015D01*
X162958985Y-115542481D01*
X162865853Y-115403100D01*
X162801703Y-115248228D01*
X162769000Y-115083816D01*
X162769000Y-114916184D01*
X162801703Y-114751772D01*
X162865853Y-114596900D01*
X162958985Y-114457519D01*
X163077519Y-114338985D01*
X163216900Y-114245853D01*
X163371772Y-114181703D01*
X163536184Y-114149000D01*
X163703816Y-114149000D01*
X163868228Y-114181703D01*
X163868228Y-114181703D01*
G37*
G36*
X163868228Y-111641703D02*
G01*
X164023100Y-111705853D01*
X164162481Y-111798985D01*
X164281015Y-111917519D01*
X164374147Y-112056900D01*
X164438297Y-112211772D01*
X164471000Y-112376184D01*
X164471000Y-112543816D01*
X164438297Y-112708228D01*
X164374147Y-112863100D01*
X164281015Y-113002481D01*
X164162481Y-113121015D01*
X164023100Y-113214147D01*
X163868228Y-113278297D01*
X163703816Y-113311000D01*
X163536184Y-113311000D01*
X163371772Y-113278297D01*
X163216900Y-113214147D01*
X163077519Y-113121015D01*
X162958985Y-113002481D01*
X162865853Y-112863100D01*
X162801703Y-112708228D01*
X162769000Y-112543816D01*
X162769000Y-112376184D01*
X162801703Y-112211772D01*
X162865853Y-112056900D01*
X162958985Y-111917519D01*
X163077519Y-111798985D01*
X163216900Y-111705853D01*
X163371772Y-111641703D01*
X163536184Y-111609000D01*
X163703816Y-111609000D01*
X163868228Y-111641703D01*
X163868228Y-111641703D01*
G37*
G36*
X156248228Y-111641703D02*
G01*
X156403100Y-111705853D01*
X156542481Y-111798985D01*
X156661015Y-111917519D01*
X156754147Y-112056900D01*
X156818297Y-112211772D01*
X156851000Y-112376184D01*
X156851000Y-112543816D01*
X156818297Y-112708228D01*
X156754147Y-112863100D01*
X156661015Y-113002481D01*
X156542481Y-113121015D01*
X156403100Y-113214147D01*
X156248228Y-113278297D01*
X156083816Y-113311000D01*
X155916184Y-113311000D01*
X155751772Y-113278297D01*
X155596900Y-113214147D01*
X155457519Y-113121015D01*
X155338985Y-113002481D01*
X155245853Y-112863100D01*
X155181703Y-112708228D01*
X155149000Y-112543816D01*
X155149000Y-112376184D01*
X155181703Y-112211772D01*
X155245853Y-112056900D01*
X155338985Y-111917519D01*
X155457519Y-111798985D01*
X155596900Y-111705853D01*
X155751772Y-111641703D01*
X155916184Y-111609000D01*
X156083816Y-111609000D01*
X156248228Y-111641703D01*
X156248228Y-111641703D01*
G37*
G36*
X146552228Y-109671703D02*
G01*
X146707100Y-109735853D01*
X146846481Y-109828985D01*
X146965015Y-109947519D01*
X147058147Y-110086900D01*
X147122297Y-110241772D01*
X147155000Y-110406184D01*
X147155000Y-110573816D01*
X147122297Y-110738228D01*
X147058147Y-110893100D01*
X146965015Y-111032481D01*
X146846481Y-111151015D01*
X146707100Y-111244147D01*
X146552228Y-111308297D01*
X146387816Y-111341000D01*
X146220184Y-111341000D01*
X146055772Y-111308297D01*
X145900900Y-111244147D01*
X145761519Y-111151015D01*
X145642985Y-111032481D01*
X145549853Y-110893100D01*
X145485703Y-110738228D01*
X145453000Y-110573816D01*
X145453000Y-110406184D01*
X145485703Y-110241772D01*
X145549853Y-110086900D01*
X145642985Y-109947519D01*
X145761519Y-109828985D01*
X145900900Y-109735853D01*
X146055772Y-109671703D01*
X146220184Y-109639000D01*
X146387816Y-109639000D01*
X146552228Y-109671703D01*
X146552228Y-109671703D01*
G37*
G36*
X163868228Y-109101703D02*
G01*
X164023100Y-109165853D01*
X164162481Y-109258985D01*
X164281015Y-109377519D01*
X164374147Y-109516900D01*
X164438297Y-109671772D01*
X164471000Y-109836184D01*
X164471000Y-110003816D01*
X164438297Y-110168228D01*
X164374147Y-110323100D01*
X164281015Y-110462481D01*
X164162481Y-110581015D01*
X164023100Y-110674147D01*
X163868228Y-110738297D01*
X163703816Y-110771000D01*
X163536184Y-110771000D01*
X163371772Y-110738297D01*
X163216900Y-110674147D01*
X163077519Y-110581015D01*
X162958985Y-110462481D01*
X162865853Y-110323100D01*
X162801703Y-110168228D01*
X162769000Y-110003816D01*
X162769000Y-109836184D01*
X162801703Y-109671772D01*
X162865853Y-109516900D01*
X162958985Y-109377519D01*
X163077519Y-109258985D01*
X163216900Y-109165853D01*
X163371772Y-109101703D01*
X163536184Y-109069000D01*
X163703816Y-109069000D01*
X163868228Y-109101703D01*
X163868228Y-109101703D01*
G37*
G36*
X156248228Y-109101703D02*
G01*
X156403100Y-109165853D01*
X156542481Y-109258985D01*
X156661015Y-109377519D01*
X156754147Y-109516900D01*
X156818297Y-109671772D01*
X156851000Y-109836184D01*
X156851000Y-110003816D01*
X156818297Y-110168228D01*
X156754147Y-110323100D01*
X156661015Y-110462481D01*
X156542481Y-110581015D01*
X156403100Y-110674147D01*
X156248228Y-110738297D01*
X156083816Y-110771000D01*
X155916184Y-110771000D01*
X155751772Y-110738297D01*
X155596900Y-110674147D01*
X155457519Y-110581015D01*
X155338985Y-110462481D01*
X155245853Y-110323100D01*
X155181703Y-110168228D01*
X155149000Y-110003816D01*
X155149000Y-109836184D01*
X155181703Y-109671772D01*
X155245853Y-109516900D01*
X155338985Y-109377519D01*
X155457519Y-109258985D01*
X155596900Y-109165853D01*
X155751772Y-109101703D01*
X155916184Y-109069000D01*
X156083816Y-109069000D01*
X156248228Y-109101703D01*
X156248228Y-109101703D01*
G37*
G36*
X156248228Y-106561703D02*
G01*
X156403100Y-106625853D01*
X156542481Y-106718985D01*
X156661015Y-106837519D01*
X156754147Y-106976900D01*
X156818297Y-107131772D01*
X156851000Y-107296184D01*
X156851000Y-107463816D01*
X156818297Y-107628228D01*
X156754147Y-107783100D01*
X156661015Y-107922481D01*
X156542481Y-108041015D01*
X156403100Y-108134147D01*
X156248228Y-108198297D01*
X156083816Y-108231000D01*
X155916184Y-108231000D01*
X155751772Y-108198297D01*
X155596900Y-108134147D01*
X155457519Y-108041015D01*
X155338985Y-107922481D01*
X155245853Y-107783100D01*
X155181703Y-107628228D01*
X155149000Y-107463816D01*
X155149000Y-107296184D01*
X155181703Y-107131772D01*
X155245853Y-106976900D01*
X155338985Y-106837519D01*
X155457519Y-106718985D01*
X155596900Y-106625853D01*
X155751772Y-106561703D01*
X155916184Y-106529000D01*
X156083816Y-106529000D01*
X156248228Y-106561703D01*
X156248228Y-106561703D01*
G37*
G36*
X163868228Y-106561703D02*
G01*
X164023100Y-106625853D01*
X164162481Y-106718985D01*
X164281015Y-106837519D01*
X164374147Y-106976900D01*
X164438297Y-107131772D01*
X164471000Y-107296184D01*
X164471000Y-107463816D01*
X164438297Y-107628228D01*
X164374147Y-107783100D01*
X164281015Y-107922481D01*
X164162481Y-108041015D01*
X164023100Y-108134147D01*
X163868228Y-108198297D01*
X163703816Y-108231000D01*
X163536184Y-108231000D01*
X163371772Y-108198297D01*
X163216900Y-108134147D01*
X163077519Y-108041015D01*
X162958985Y-107922481D01*
X162865853Y-107783100D01*
X162801703Y-107628228D01*
X162769000Y-107463816D01*
X162769000Y-107296184D01*
X162801703Y-107131772D01*
X162865853Y-106976900D01*
X162958985Y-106837519D01*
X163077519Y-106718985D01*
X163216900Y-106625853D01*
X163371772Y-106561703D01*
X163536184Y-106529000D01*
X163703816Y-106529000D01*
X163868228Y-106561703D01*
X163868228Y-106561703D01*
G37*
G36*
X146470823Y-106476313D02*
G01*
X146631242Y-106524976D01*
X146699953Y-106561703D01*
X146779078Y-106603996D01*
X146908659Y-106710341D01*
X147015004Y-106839922D01*
X147015005Y-106839924D01*
X147094024Y-106987758D01*
X147142687Y-107148177D01*
X147159117Y-107315000D01*
X147142687Y-107481823D01*
X147094024Y-107642242D01*
X147023114Y-107774906D01*
X147015004Y-107790078D01*
X146908659Y-107919659D01*
X146779078Y-108026004D01*
X146779076Y-108026005D01*
X146631242Y-108105024D01*
X146470823Y-108153687D01*
X146345804Y-108166000D01*
X146262196Y-108166000D01*
X146137177Y-108153687D01*
X145976758Y-108105024D01*
X145828924Y-108026005D01*
X145828922Y-108026004D01*
X145699341Y-107919659D01*
X145592996Y-107790078D01*
X145584886Y-107774906D01*
X145513976Y-107642242D01*
X145465313Y-107481823D01*
X145448883Y-107315000D01*
X145465313Y-107148177D01*
X145513976Y-106987758D01*
X145592995Y-106839924D01*
X145592996Y-106839922D01*
X145699341Y-106710341D01*
X145828922Y-106603996D01*
X145908047Y-106561703D01*
X145976758Y-106524976D01*
X146137177Y-106476313D01*
X146262196Y-106464000D01*
X146345804Y-106464000D01*
X146470823Y-106476313D01*
X146470823Y-106476313D01*
G37*
G36*
X163868228Y-104021703D02*
G01*
X164023100Y-104085853D01*
X164162481Y-104178985D01*
X164281015Y-104297519D01*
X164374147Y-104436900D01*
X164438297Y-104591772D01*
X164471000Y-104756184D01*
X164471000Y-104923816D01*
X164438297Y-105088228D01*
X164374147Y-105243100D01*
X164281015Y-105382481D01*
X164162481Y-105501015D01*
X164023100Y-105594147D01*
X163868228Y-105658297D01*
X163703816Y-105691000D01*
X163536184Y-105691000D01*
X163371772Y-105658297D01*
X163216900Y-105594147D01*
X163077519Y-105501015D01*
X162958985Y-105382481D01*
X162865853Y-105243100D01*
X162801703Y-105088228D01*
X162769000Y-104923816D01*
X162769000Y-104756184D01*
X162801703Y-104591772D01*
X162865853Y-104436900D01*
X162958985Y-104297519D01*
X163077519Y-104178985D01*
X163216900Y-104085853D01*
X163371772Y-104021703D01*
X163536184Y-103989000D01*
X163703816Y-103989000D01*
X163868228Y-104021703D01*
X163868228Y-104021703D01*
G37*
G36*
X156248228Y-104021703D02*
G01*
X156403100Y-104085853D01*
X156542481Y-104178985D01*
X156661015Y-104297519D01*
X156754147Y-104436900D01*
X156818297Y-104591772D01*
X156851000Y-104756184D01*
X156851000Y-104923816D01*
X156818297Y-105088228D01*
X156754147Y-105243100D01*
X156661015Y-105382481D01*
X156542481Y-105501015D01*
X156403100Y-105594147D01*
X156248228Y-105658297D01*
X156083816Y-105691000D01*
X155916184Y-105691000D01*
X155751772Y-105658297D01*
X155596900Y-105594147D01*
X155457519Y-105501015D01*
X155338985Y-105382481D01*
X155245853Y-105243100D01*
X155181703Y-105088228D01*
X155149000Y-104923816D01*
X155149000Y-104756184D01*
X155181703Y-104591772D01*
X155245853Y-104436900D01*
X155338985Y-104297519D01*
X155457519Y-104178985D01*
X155596900Y-104085853D01*
X155751772Y-104021703D01*
X155916184Y-103989000D01*
X156083816Y-103989000D01*
X156248228Y-104021703D01*
X156248228Y-104021703D01*
G37*
G36*
X156248228Y-101481703D02*
G01*
X156403100Y-101545853D01*
X156542481Y-101638985D01*
X156661015Y-101757519D01*
X156754147Y-101896900D01*
X156818297Y-102051772D01*
X156851000Y-102216184D01*
X156851000Y-102383816D01*
X156818297Y-102548228D01*
X156754147Y-102703100D01*
X156661015Y-102842481D01*
X156542481Y-102961015D01*
X156403100Y-103054147D01*
X156248228Y-103118297D01*
X156083816Y-103151000D01*
X155916184Y-103151000D01*
X155751772Y-103118297D01*
X155596900Y-103054147D01*
X155457519Y-102961015D01*
X155338985Y-102842481D01*
X155245853Y-102703100D01*
X155181703Y-102548228D01*
X155149000Y-102383816D01*
X155149000Y-102216184D01*
X155181703Y-102051772D01*
X155245853Y-101896900D01*
X155338985Y-101757519D01*
X155457519Y-101638985D01*
X155596900Y-101545853D01*
X155751772Y-101481703D01*
X155916184Y-101449000D01*
X156083816Y-101449000D01*
X156248228Y-101481703D01*
X156248228Y-101481703D01*
G37*
G36*
X163868228Y-101481703D02*
G01*
X164023100Y-101545853D01*
X164162481Y-101638985D01*
X164281015Y-101757519D01*
X164374147Y-101896900D01*
X164438297Y-102051772D01*
X164471000Y-102216184D01*
X164471000Y-102383816D01*
X164438297Y-102548228D01*
X164374147Y-102703100D01*
X164281015Y-102842481D01*
X164162481Y-102961015D01*
X164023100Y-103054147D01*
X163868228Y-103118297D01*
X163703816Y-103151000D01*
X163536184Y-103151000D01*
X163371772Y-103118297D01*
X163216900Y-103054147D01*
X163077519Y-102961015D01*
X162958985Y-102842481D01*
X162865853Y-102703100D01*
X162801703Y-102548228D01*
X162769000Y-102383816D01*
X162769000Y-102216184D01*
X162801703Y-102051772D01*
X162865853Y-101896900D01*
X162958985Y-101757519D01*
X163077519Y-101638985D01*
X163216900Y-101545853D01*
X163371772Y-101481703D01*
X163536184Y-101449000D01*
X163703816Y-101449000D01*
X163868228Y-101481703D01*
X163868228Y-101481703D01*
G37*
G36*
X149737395Y-101085546D02*
G01*
X149910466Y-101157234D01*
X149910467Y-101157235D01*
X150066227Y-101261310D01*
X150198690Y-101393773D01*
X150198691Y-101393775D01*
X150302766Y-101549534D01*
X150374454Y-101722605D01*
X150411000Y-101906333D01*
X150411000Y-102093667D01*
X150374454Y-102277395D01*
X150302766Y-102450466D01*
X150302765Y-102450467D01*
X150198690Y-102606227D01*
X150066227Y-102738690D01*
X149987818Y-102791081D01*
X149910466Y-102842766D01*
X149737395Y-102914454D01*
X149553667Y-102951000D01*
X149366333Y-102951000D01*
X149182605Y-102914454D01*
X149009534Y-102842766D01*
X148932182Y-102791081D01*
X148853773Y-102738690D01*
X148721310Y-102606227D01*
X148617235Y-102450467D01*
X148617234Y-102450466D01*
X148545546Y-102277395D01*
X148509000Y-102093667D01*
X148509000Y-101906333D01*
X148545546Y-101722605D01*
X148617234Y-101549534D01*
X148721309Y-101393775D01*
X148721310Y-101393773D01*
X148853773Y-101261310D01*
X149009533Y-101157235D01*
X149009534Y-101157234D01*
X149182605Y-101085546D01*
X149366333Y-101049000D01*
X149553667Y-101049000D01*
X149737395Y-101085546D01*
X149737395Y-101085546D01*
G37*
G36*
X152951000Y-102951000D02*
G01*
X151049000Y-102951000D01*
X151049000Y-101049000D01*
X152951000Y-101049000D01*
X152951000Y-102951000D01*
X152951000Y-102951000D01*
G37*
G36*
X163868228Y-98941703D02*
G01*
X164023100Y-99005853D01*
X164162481Y-99098985D01*
X164281015Y-99217519D01*
X164374147Y-99356900D01*
X164438297Y-99511772D01*
X164471000Y-99676184D01*
X164471000Y-99843816D01*
X164438297Y-100008228D01*
X164374147Y-100163100D01*
X164281015Y-100302481D01*
X164162481Y-100421015D01*
X164023100Y-100514147D01*
X163868228Y-100578297D01*
X163703816Y-100611000D01*
X163536184Y-100611000D01*
X163371772Y-100578297D01*
X163216900Y-100514147D01*
X163077519Y-100421015D01*
X162958985Y-100302481D01*
X162865853Y-100163100D01*
X162801703Y-100008228D01*
X162769000Y-99843816D01*
X162769000Y-99676184D01*
X162801703Y-99511772D01*
X162865853Y-99356900D01*
X162958985Y-99217519D01*
X163077519Y-99098985D01*
X163216900Y-99005853D01*
X163371772Y-98941703D01*
X163536184Y-98909000D01*
X163703816Y-98909000D01*
X163868228Y-98941703D01*
X163868228Y-98941703D01*
G37*
G36*
X156248228Y-98941703D02*
G01*
X156403100Y-99005853D01*
X156542481Y-99098985D01*
X156661015Y-99217519D01*
X156754147Y-99356900D01*
X156818297Y-99511772D01*
X156851000Y-99676184D01*
X156851000Y-99843816D01*
X156818297Y-100008228D01*
X156754147Y-100163100D01*
X156661015Y-100302481D01*
X156542481Y-100421015D01*
X156403100Y-100514147D01*
X156248228Y-100578297D01*
X156083816Y-100611000D01*
X155916184Y-100611000D01*
X155751772Y-100578297D01*
X155596900Y-100514147D01*
X155457519Y-100421015D01*
X155338985Y-100302481D01*
X155245853Y-100163100D01*
X155181703Y-100008228D01*
X155149000Y-99843816D01*
X155149000Y-99676184D01*
X155181703Y-99511772D01*
X155245853Y-99356900D01*
X155338985Y-99217519D01*
X155457519Y-99098985D01*
X155596900Y-99005853D01*
X155751772Y-98941703D01*
X155916184Y-98909000D01*
X156083816Y-98909000D01*
X156248228Y-98941703D01*
X156248228Y-98941703D01*
G37*
G36*
X146552228Y-98876703D02*
G01*
X146707100Y-98940853D01*
X146846481Y-99033985D01*
X146965015Y-99152519D01*
X147058147Y-99291900D01*
X147122297Y-99446772D01*
X147155000Y-99611184D01*
X147155000Y-99778816D01*
X147122297Y-99943228D01*
X147058147Y-100098100D01*
X146965015Y-100237481D01*
X146846481Y-100356015D01*
X146707100Y-100449147D01*
X146552228Y-100513297D01*
X146387816Y-100546000D01*
X146220184Y-100546000D01*
X146055772Y-100513297D01*
X145900900Y-100449147D01*
X145761519Y-100356015D01*
X145642985Y-100237481D01*
X145549853Y-100098100D01*
X145485703Y-99943228D01*
X145453000Y-99778816D01*
X145453000Y-99611184D01*
X145485703Y-99446772D01*
X145549853Y-99291900D01*
X145642985Y-99152519D01*
X145761519Y-99033985D01*
X145900900Y-98940853D01*
X146055772Y-98876703D01*
X146220184Y-98844000D01*
X146387816Y-98844000D01*
X146552228Y-98876703D01*
X146552228Y-98876703D01*
G37*
G36*
X163868228Y-96401703D02*
G01*
X164023100Y-96465853D01*
X164162481Y-96558985D01*
X164281015Y-96677519D01*
X164374147Y-96816900D01*
X164438297Y-96971772D01*
X164471000Y-97136184D01*
X164471000Y-97303816D01*
X164438297Y-97468228D01*
X164374147Y-97623100D01*
X164281015Y-97762481D01*
X164162481Y-97881015D01*
X164023100Y-97974147D01*
X163868228Y-98038297D01*
X163703816Y-98071000D01*
X163536184Y-98071000D01*
X163371772Y-98038297D01*
X163216900Y-97974147D01*
X163077519Y-97881015D01*
X162958985Y-97762481D01*
X162865853Y-97623100D01*
X162801703Y-97468228D01*
X162769000Y-97303816D01*
X162769000Y-97136184D01*
X162801703Y-96971772D01*
X162865853Y-96816900D01*
X162958985Y-96677519D01*
X163077519Y-96558985D01*
X163216900Y-96465853D01*
X163371772Y-96401703D01*
X163536184Y-96369000D01*
X163703816Y-96369000D01*
X163868228Y-96401703D01*
X163868228Y-96401703D01*
G37*
G36*
X156248228Y-96401703D02*
G01*
X156403100Y-96465853D01*
X156542481Y-96558985D01*
X156661015Y-96677519D01*
X156754147Y-96816900D01*
X156818297Y-96971772D01*
X156851000Y-97136184D01*
X156851000Y-97303816D01*
X156818297Y-97468228D01*
X156754147Y-97623100D01*
X156661015Y-97762481D01*
X156542481Y-97881015D01*
X156403100Y-97974147D01*
X156248228Y-98038297D01*
X156083816Y-98071000D01*
X155916184Y-98071000D01*
X155751772Y-98038297D01*
X155596900Y-97974147D01*
X155457519Y-97881015D01*
X155338985Y-97762481D01*
X155245853Y-97623100D01*
X155181703Y-97468228D01*
X155149000Y-97303816D01*
X155149000Y-97136184D01*
X155181703Y-96971772D01*
X155245853Y-96816900D01*
X155338985Y-96677519D01*
X155457519Y-96558985D01*
X155596900Y-96465853D01*
X155751772Y-96401703D01*
X155916184Y-96369000D01*
X156083816Y-96369000D01*
X156248228Y-96401703D01*
X156248228Y-96401703D01*
G37*
G36*
X146470823Y-94411313D02*
G01*
X146631242Y-94459976D01*
X146763906Y-94530886D01*
X146779078Y-94538996D01*
X146908659Y-94645341D01*
X147015004Y-94774922D01*
X147015005Y-94774924D01*
X147094024Y-94922758D01*
X147142687Y-95083177D01*
X147159117Y-95250000D01*
X147142687Y-95416823D01*
X147094024Y-95577242D01*
X147023114Y-95709906D01*
X147015004Y-95725078D01*
X146908659Y-95854659D01*
X146779078Y-95961004D01*
X146779076Y-95961005D01*
X146631242Y-96040024D01*
X146470823Y-96088687D01*
X146345804Y-96101000D01*
X146262196Y-96101000D01*
X146137177Y-96088687D01*
X145976758Y-96040024D01*
X145828924Y-95961005D01*
X145828922Y-95961004D01*
X145699341Y-95854659D01*
X145592996Y-95725078D01*
X145584886Y-95709906D01*
X145513976Y-95577242D01*
X145465313Y-95416823D01*
X145448883Y-95250000D01*
X145465313Y-95083177D01*
X145513976Y-94922758D01*
X145592995Y-94774924D01*
X145592996Y-94774922D01*
X145699341Y-94645341D01*
X145828922Y-94538996D01*
X145844094Y-94530886D01*
X145976758Y-94459976D01*
X146137177Y-94411313D01*
X146262196Y-94399000D01*
X146345804Y-94399000D01*
X146470823Y-94411313D01*
X146470823Y-94411313D01*
G37*
G36*
X163868228Y-93861703D02*
G01*
X164023100Y-93925853D01*
X164162481Y-94018985D01*
X164281015Y-94137519D01*
X164374147Y-94276900D01*
X164438297Y-94431772D01*
X164471000Y-94596184D01*
X164471000Y-94763816D01*
X164438297Y-94928228D01*
X164374147Y-95083100D01*
X164281015Y-95222481D01*
X164162481Y-95341015D01*
X164023100Y-95434147D01*
X163868228Y-95498297D01*
X163703816Y-95531000D01*
X163536184Y-95531000D01*
X163371772Y-95498297D01*
X163216900Y-95434147D01*
X163077519Y-95341015D01*
X162958985Y-95222481D01*
X162865853Y-95083100D01*
X162801703Y-94928228D01*
X162769000Y-94763816D01*
X162769000Y-94596184D01*
X162801703Y-94431772D01*
X162865853Y-94276900D01*
X162958985Y-94137519D01*
X163077519Y-94018985D01*
X163216900Y-93925853D01*
X163371772Y-93861703D01*
X163536184Y-93829000D01*
X163703816Y-93829000D01*
X163868228Y-93861703D01*
X163868228Y-93861703D01*
G37*
G36*
X156248228Y-93861703D02*
G01*
X156403100Y-93925853D01*
X156542481Y-94018985D01*
X156661015Y-94137519D01*
X156754147Y-94276900D01*
X156818297Y-94431772D01*
X156851000Y-94596184D01*
X156851000Y-94763816D01*
X156818297Y-94928228D01*
X156754147Y-95083100D01*
X156661015Y-95222481D01*
X156542481Y-95341015D01*
X156403100Y-95434147D01*
X156248228Y-95498297D01*
X156083816Y-95531000D01*
X155916184Y-95531000D01*
X155751772Y-95498297D01*
X155596900Y-95434147D01*
X155457519Y-95341015D01*
X155338985Y-95222481D01*
X155245853Y-95083100D01*
X155181703Y-94928228D01*
X155149000Y-94763816D01*
X155149000Y-94596184D01*
X155181703Y-94431772D01*
X155245853Y-94276900D01*
X155338985Y-94137519D01*
X155457519Y-94018985D01*
X155596900Y-93925853D01*
X155751772Y-93861703D01*
X155916184Y-93829000D01*
X156083816Y-93829000D01*
X156248228Y-93861703D01*
X156248228Y-93861703D01*
G37*
G36*
X152951000Y-89951000D02*
G01*
X151049000Y-89951000D01*
X151049000Y-88049000D01*
X152951000Y-88049000D01*
X152951000Y-89951000D01*
X152951000Y-89951000D01*
G37*
G36*
X149737395Y-88085546D02*
G01*
X149910466Y-88157234D01*
X149987818Y-88208919D01*
X150066227Y-88261310D01*
X150198690Y-88393773D01*
X150251081Y-88472182D01*
X150302766Y-88549534D01*
X150374454Y-88722605D01*
X150411000Y-88906333D01*
X150411000Y-89093667D01*
X150374454Y-89277395D01*
X150302766Y-89450466D01*
X150302765Y-89450467D01*
X150198690Y-89606227D01*
X150066227Y-89738690D01*
X149987818Y-89791081D01*
X149910466Y-89842766D01*
X149737395Y-89914454D01*
X149553667Y-89951000D01*
X149366333Y-89951000D01*
X149182605Y-89914454D01*
X149009534Y-89842766D01*
X148932182Y-89791081D01*
X148853773Y-89738690D01*
X148721310Y-89606227D01*
X148617235Y-89450467D01*
X148617234Y-89450466D01*
X148545546Y-89277395D01*
X148509000Y-89093667D01*
X148509000Y-88906333D01*
X148545546Y-88722605D01*
X148617234Y-88549534D01*
X148668919Y-88472182D01*
X148721310Y-88393773D01*
X148853773Y-88261310D01*
X148932182Y-88208919D01*
X149009534Y-88157234D01*
X149182605Y-88085546D01*
X149366333Y-88049000D01*
X149553667Y-88049000D01*
X149737395Y-88085546D01*
X149737395Y-88085546D01*
G37*
G36*
X146552228Y-86811703D02*
G01*
X146707100Y-86875853D01*
X146846481Y-86968985D01*
X146965015Y-87087519D01*
X147058147Y-87226900D01*
X147122297Y-87381772D01*
X147155000Y-87546184D01*
X147155000Y-87713816D01*
X147122297Y-87878228D01*
X147058147Y-88033100D01*
X146965015Y-88172481D01*
X146846481Y-88291015D01*
X146707100Y-88384147D01*
X146552228Y-88448297D01*
X146387816Y-88481000D01*
X146220184Y-88481000D01*
X146055772Y-88448297D01*
X145900900Y-88384147D01*
X145761519Y-88291015D01*
X145642985Y-88172481D01*
X145549853Y-88033100D01*
X145485703Y-87878228D01*
X145453000Y-87713816D01*
X145453000Y-87546184D01*
X145485703Y-87381772D01*
X145549853Y-87226900D01*
X145642985Y-87087519D01*
X145761519Y-86968985D01*
X145900900Y-86875853D01*
X146055772Y-86811703D01*
X146220184Y-86779000D01*
X146387816Y-86779000D01*
X146552228Y-86811703D01*
X146552228Y-86811703D01*
G37*
G36*
X146470823Y-81711313D02*
G01*
X146631242Y-81759976D01*
X146763906Y-81830886D01*
X146779078Y-81838996D01*
X146908659Y-81945341D01*
X147015004Y-82074922D01*
X147015005Y-82074924D01*
X147094024Y-82222758D01*
X147142687Y-82383177D01*
X147159117Y-82550000D01*
X147142687Y-82716823D01*
X147094024Y-82877242D01*
X147023114Y-83009906D01*
X147015004Y-83025078D01*
X146908659Y-83154659D01*
X146779078Y-83261004D01*
X146779076Y-83261005D01*
X146631242Y-83340024D01*
X146470823Y-83388687D01*
X146345804Y-83401000D01*
X146262196Y-83401000D01*
X146137177Y-83388687D01*
X145976758Y-83340024D01*
X145828924Y-83261005D01*
X145828922Y-83261004D01*
X145699341Y-83154659D01*
X145592996Y-83025078D01*
X145584886Y-83009906D01*
X145513976Y-82877242D01*
X145465313Y-82716823D01*
X145448883Y-82550000D01*
X145465313Y-82383177D01*
X145513976Y-82222758D01*
X145592995Y-82074924D01*
X145592996Y-82074922D01*
X145699341Y-81945341D01*
X145828922Y-81838996D01*
X145844094Y-81830886D01*
X145976758Y-81759976D01*
X146137177Y-81711313D01*
X146262196Y-81699000D01*
X146345804Y-81699000D01*
X146470823Y-81711313D01*
X146470823Y-81711313D01*
G37*
G36*
X149737395Y-75085546D02*
G01*
X149910466Y-75157234D01*
X149941887Y-75178229D01*
X150066227Y-75261310D01*
X150198690Y-75393773D01*
X150198691Y-75393775D01*
X150302766Y-75549534D01*
X150374454Y-75722605D01*
X150411000Y-75906333D01*
X150411000Y-76093667D01*
X150374454Y-76277395D01*
X150302766Y-76450466D01*
X150302765Y-76450467D01*
X150198690Y-76606227D01*
X150066227Y-76738690D01*
X149987818Y-76791081D01*
X149910466Y-76842766D01*
X149737395Y-76914454D01*
X149553667Y-76951000D01*
X149366333Y-76951000D01*
X149182605Y-76914454D01*
X149009534Y-76842766D01*
X148932182Y-76791081D01*
X148853773Y-76738690D01*
X148721310Y-76606227D01*
X148617235Y-76450467D01*
X148617234Y-76450466D01*
X148545546Y-76277395D01*
X148509000Y-76093667D01*
X148509000Y-75906333D01*
X148545546Y-75722605D01*
X148617234Y-75549534D01*
X148721309Y-75393775D01*
X148721310Y-75393773D01*
X148853773Y-75261310D01*
X148978113Y-75178229D01*
X149009534Y-75157234D01*
X149182605Y-75085546D01*
X149366333Y-75049000D01*
X149553667Y-75049000D01*
X149737395Y-75085546D01*
X149737395Y-75085546D01*
G37*
G36*
X152951000Y-76951000D02*
G01*
X151049000Y-76951000D01*
X151049000Y-75049000D01*
X152951000Y-75049000D01*
X152951000Y-76951000D01*
X152951000Y-76951000D01*
G37*
G36*
X146552228Y-74111703D02*
G01*
X146707100Y-74175853D01*
X146846481Y-74268985D01*
X146965015Y-74387519D01*
X147058147Y-74526900D01*
X147122297Y-74681772D01*
X147155000Y-74846184D01*
X147155000Y-75013816D01*
X147122297Y-75178228D01*
X147058147Y-75333100D01*
X146965015Y-75472481D01*
X146846481Y-75591015D01*
X146707100Y-75684147D01*
X146552228Y-75748297D01*
X146387816Y-75781000D01*
X146220184Y-75781000D01*
X146055772Y-75748297D01*
X145900900Y-75684147D01*
X145761519Y-75591015D01*
X145642985Y-75472481D01*
X145549853Y-75333100D01*
X145485703Y-75178228D01*
X145453000Y-75013816D01*
X145453000Y-74846184D01*
X145485703Y-74681772D01*
X145549853Y-74526900D01*
X145642985Y-74387519D01*
X145761519Y-74268985D01*
X145900900Y-74175853D01*
X146055772Y-74111703D01*
X146220184Y-74079000D01*
X146387816Y-74079000D01*
X146552228Y-74111703D01*
X146552228Y-74111703D01*
G37*
G36*
X146470823Y-69519313D02*
G01*
X146631242Y-69567976D01*
X146763906Y-69638886D01*
X146779078Y-69646996D01*
X146908659Y-69753341D01*
X147015004Y-69882922D01*
X147015005Y-69882924D01*
X147094024Y-70030758D01*
X147142687Y-70191177D01*
X147159117Y-70358000D01*
X147142687Y-70524823D01*
X147094024Y-70685242D01*
X147023114Y-70817906D01*
X147015004Y-70833078D01*
X146908659Y-70962659D01*
X146779078Y-71069004D01*
X146779076Y-71069005D01*
X146631242Y-71148024D01*
X146470823Y-71196687D01*
X146345804Y-71209000D01*
X146262196Y-71209000D01*
X146137177Y-71196687D01*
X145976758Y-71148024D01*
X145828924Y-71069005D01*
X145828922Y-71069004D01*
X145699341Y-70962659D01*
X145592996Y-70833078D01*
X145584886Y-70817906D01*
X145513976Y-70685242D01*
X145465313Y-70524823D01*
X145448883Y-70358000D01*
X145465313Y-70191177D01*
X145513976Y-70030758D01*
X145592995Y-69882924D01*
X145592996Y-69882922D01*
X145699341Y-69753341D01*
X145828922Y-69646996D01*
X145844094Y-69638886D01*
X145976758Y-69567976D01*
X146137177Y-69519313D01*
X146262196Y-69507000D01*
X146345804Y-69507000D01*
X146470823Y-69519313D01*
X146470823Y-69519313D01*
G37*
G36*
X152951000Y-63951000D02*
G01*
X151049000Y-63951000D01*
X151049000Y-62049000D01*
X152951000Y-62049000D01*
X152951000Y-63951000D01*
X152951000Y-63951000D01*
G37*
G36*
X149737395Y-62085546D02*
G01*
X149910466Y-62157234D01*
X149910467Y-62157235D01*
X150066227Y-62261310D01*
X150198690Y-62393773D01*
X150198691Y-62393775D01*
X150302766Y-62549534D01*
X150374454Y-62722605D01*
X150411000Y-62906333D01*
X150411000Y-63093667D01*
X150374454Y-63277395D01*
X150302766Y-63450466D01*
X150274915Y-63492148D01*
X150198690Y-63606227D01*
X150066227Y-63738690D01*
X149987818Y-63791081D01*
X149910466Y-63842766D01*
X149737395Y-63914454D01*
X149553667Y-63951000D01*
X149366333Y-63951000D01*
X149182605Y-63914454D01*
X149009534Y-63842766D01*
X148932182Y-63791081D01*
X148853773Y-63738690D01*
X148721310Y-63606227D01*
X148645085Y-63492148D01*
X148617234Y-63450466D01*
X148545546Y-63277395D01*
X148509000Y-63093667D01*
X148509000Y-62906333D01*
X148545546Y-62722605D01*
X148617234Y-62549534D01*
X148721309Y-62393775D01*
X148721310Y-62393773D01*
X148853773Y-62261310D01*
X149009533Y-62157235D01*
X149009534Y-62157234D01*
X149182605Y-62085546D01*
X149366333Y-62049000D01*
X149553667Y-62049000D01*
X149737395Y-62085546D01*
X149737395Y-62085546D01*
G37*
G36*
X146552228Y-61919703D02*
G01*
X146707100Y-61983853D01*
X146846481Y-62076985D01*
X146965015Y-62195519D01*
X147058147Y-62334900D01*
X147122297Y-62489772D01*
X147155000Y-62654184D01*
X147155000Y-62821816D01*
X147122297Y-62986228D01*
X147058147Y-63141100D01*
X146965015Y-63280481D01*
X146846481Y-63399015D01*
X146707100Y-63492147D01*
X146552228Y-63556297D01*
X146387816Y-63589000D01*
X146220184Y-63589000D01*
X146055772Y-63556297D01*
X145900900Y-63492147D01*
X145761519Y-63399015D01*
X145642985Y-63280481D01*
X145549853Y-63141100D01*
X145485703Y-62986228D01*
X145453000Y-62821816D01*
X145453000Y-62654184D01*
X145485703Y-62489772D01*
X145549853Y-62334900D01*
X145642985Y-62195519D01*
X145761519Y-62076985D01*
X145900900Y-61983853D01*
X146055772Y-61919703D01*
X146220184Y-61887000D01*
X146387816Y-61887000D01*
X146552228Y-61919703D01*
X146552228Y-61919703D01*
G37*
G36*
X160889943Y-57066248D02*
G01*
X161445189Y-57296238D01*
X161465671Y-57309924D01*
X161944899Y-57630134D01*
X162369866Y-58055101D01*
X162369867Y-58055103D01*
X162703762Y-58554811D01*
X162933752Y-59110057D01*
X163051000Y-59699501D01*
X163051000Y-60300499D01*
X162933752Y-60889943D01*
X162703762Y-61445189D01*
X162703761Y-61445190D01*
X162369866Y-61944899D01*
X161944899Y-62369866D01*
X161765447Y-62489772D01*
X161445189Y-62703762D01*
X160889943Y-62933752D01*
X160300499Y-63051000D01*
X159699501Y-63051000D01*
X159110057Y-62933752D01*
X158554811Y-62703762D01*
X158234553Y-62489772D01*
X158055101Y-62369866D01*
X157630134Y-61944899D01*
X157296239Y-61445190D01*
X157296238Y-61445189D01*
X157066248Y-60889943D01*
X156949000Y-60300499D01*
X156949000Y-59699501D01*
X157066248Y-59110057D01*
X157296238Y-58554811D01*
X157630133Y-58055103D01*
X157630134Y-58055101D01*
X158055101Y-57630134D01*
X158534329Y-57309924D01*
X158554811Y-57296238D01*
X159110057Y-57066248D01*
X159699501Y-56949000D01*
X160300499Y-56949000D01*
X160889943Y-57066248D01*
X160889943Y-57066248D01*
G37*
G36*
X146470823Y-56946313D02*
G01*
X146631242Y-56994976D01*
X146763906Y-57065886D01*
X146779078Y-57073996D01*
X146908659Y-57180341D01*
X147015004Y-57309922D01*
X147015005Y-57309924D01*
X147094024Y-57457758D01*
X147142687Y-57618177D01*
X147159117Y-57785000D01*
X147142687Y-57951823D01*
X147094024Y-58112242D01*
X147023114Y-58244906D01*
X147015004Y-58260078D01*
X146908659Y-58389659D01*
X146779078Y-58496004D01*
X146779076Y-58496005D01*
X146631242Y-58575024D01*
X146470823Y-58623687D01*
X146345804Y-58636000D01*
X146262196Y-58636000D01*
X146137177Y-58623687D01*
X145976758Y-58575024D01*
X145828924Y-58496005D01*
X145828922Y-58496004D01*
X145699341Y-58389659D01*
X145592996Y-58260078D01*
X145584886Y-58244906D01*
X145513976Y-58112242D01*
X145465313Y-57951823D01*
X145448883Y-57785000D01*
X145465313Y-57618177D01*
X145513976Y-57457758D01*
X145592995Y-57309924D01*
X145592996Y-57309922D01*
X145699341Y-57180341D01*
X145828922Y-57073996D01*
X145844094Y-57065886D01*
X145976758Y-56994976D01*
X146137177Y-56946313D01*
X146262196Y-56934000D01*
X146345804Y-56934000D01*
X146470823Y-56946313D01*
X146470823Y-56946313D01*
G37*
G36*
X146552228Y-49346703D02*
G01*
X146707100Y-49410853D01*
X146846481Y-49503985D01*
X146965015Y-49622519D01*
X147058147Y-49761900D01*
X147122297Y-49916772D01*
X147155000Y-50081184D01*
X147155000Y-50248816D01*
X147122297Y-50413228D01*
X147058147Y-50568100D01*
X146965015Y-50707481D01*
X146846481Y-50826015D01*
X146707100Y-50919147D01*
X146552228Y-50983297D01*
X146387816Y-51016000D01*
X146220184Y-51016000D01*
X146055772Y-50983297D01*
X145900900Y-50919147D01*
X145761519Y-50826015D01*
X145642985Y-50707481D01*
X145549853Y-50568100D01*
X145485703Y-50413228D01*
X145453000Y-50248816D01*
X145453000Y-50081184D01*
X145485703Y-49916772D01*
X145549853Y-49761900D01*
X145642985Y-49622519D01*
X145761519Y-49503985D01*
X145900900Y-49410853D01*
X146055772Y-49346703D01*
X146220184Y-49314000D01*
X146387816Y-49314000D01*
X146552228Y-49346703D01*
X146552228Y-49346703D01*
G37*
G36*
X152951000Y-50951000D02*
G01*
X151049000Y-50951000D01*
X151049000Y-49049000D01*
X152951000Y-49049000D01*
X152951000Y-50951000D01*
X152951000Y-50951000D01*
G37*
G36*
X149737395Y-49085546D02*
G01*
X149910466Y-49157234D01*
X149910467Y-49157235D01*
X150066227Y-49261310D01*
X150198690Y-49393773D01*
X150198691Y-49393775D01*
X150302766Y-49549534D01*
X150374454Y-49722605D01*
X150411000Y-49906333D01*
X150411000Y-50093667D01*
X150374454Y-50277395D01*
X150302766Y-50450466D01*
X150302765Y-50450467D01*
X150198690Y-50606227D01*
X150066227Y-50738690D01*
X149987818Y-50791081D01*
X149910466Y-50842766D01*
X149737395Y-50914454D01*
X149553667Y-50951000D01*
X149366333Y-50951000D01*
X149182605Y-50914454D01*
X149009534Y-50842766D01*
X148932182Y-50791081D01*
X148853773Y-50738690D01*
X148721310Y-50606227D01*
X148617235Y-50450467D01*
X148617234Y-50450466D01*
X148545546Y-50277395D01*
X148509000Y-50093667D01*
X148509000Y-49906333D01*
X148545546Y-49722605D01*
X148617234Y-49549534D01*
X148721309Y-49393775D01*
X148721310Y-49393773D01*
X148853773Y-49261310D01*
X149009533Y-49157235D01*
X149009534Y-49157234D01*
X149182605Y-49085546D01*
X149366333Y-49049000D01*
X149553667Y-49049000D01*
X149737395Y-49085546D01*
X149737395Y-49085546D01*
G37*
M02*
