M48
; DRILL file {KiCad 5.1.3-ffb9f22~84~ubuntu16.04.1} date Thu 25 Jul 2019 12:18:38 PM EDT
; FORMAT={-:-/ absolute / inch / decimal}
; #@! TF.CreationDate,2019-07-25T12:18:38-04:00
; #@! TF.GenerationSoftware,Kicad,Pcbnew,5.1.3-ffb9f22~84~ubuntu16.04.1
; #@! TF.FileFunction,Plated,1,2,PTH
FMAT,2
INCH
T1C0.0157
T2C0.0315
T3C0.0354
T4C0.0394
T5C0.1181
%
G90
G05
T1
X5.9344Y-4.835
X6.1626Y-5.8774
X6.23Y-5.639
T2
X5.575Y-5.995
X5.875Y-5.995
X5.76Y-1.975
X5.76Y-2.275
X5.76Y-2.95
X5.76Y-3.25
X5.76Y-4.775
X5.76Y-5.075
X5.76Y-2.47
X5.76Y-2.77
X5.76Y-4.35
X5.76Y-4.65
X5.76Y-3.45
X5.76Y-3.75
X5.76Y-3.925
X5.76Y-4.225
X5.76Y-5.2
X5.76Y-5.5
X6.065Y-6.0
X6.365Y-6.0
T3
X5.8843Y-1.9685
X5.9843Y-1.9685
X5.8843Y-3.5039
X5.9843Y-3.5039
X5.8843Y-4.5276
X5.9843Y-4.5276
X5.8843Y-2.4803
X5.9843Y-2.4803
X5.8843Y-2.9921
X5.9843Y-2.9921
X5.8843Y-5.0394
X5.9843Y-5.0394
X5.8843Y-5.5512
X5.9843Y-5.5512
X5.8843Y-4.0157
X5.9843Y-4.0157
T4
X6.1417Y-3.7276
X6.1417Y-3.8276
X6.1417Y-3.9276
X6.1417Y-4.0276
X6.1417Y-4.1276
X6.1417Y-4.2276
X6.1417Y-4.3276
X6.1417Y-4.4276
X6.1417Y-4.5276
X6.4417Y-3.7276
X6.4417Y-3.8276
X6.4417Y-3.9276
X6.4417Y-4.0276
X6.4417Y-4.1276
X6.4417Y-4.2276
X6.4417Y-4.3276
X6.4417Y-4.4276
X6.4417Y-4.5276
T5
X6.2992Y-2.3622
X6.2992Y-5.315
T3
G00X5.6148Y-5.8852
M15
G01X5.5991Y-5.8852
M16
G05
G00X5.733Y-5.8852
M15
G01X5.7172Y-5.8852
M16
G05
G00X5.8904Y-5.8852
M15
G01X5.8747Y-5.8852
M16
G05
G00X5.9337Y-5.7041
M15
G01X5.918Y-5.7041
M16
G05
T0
M30
