G04 #@! TF.GenerationSoftware,KiCad,Pcbnew,5.1.5-52549c5~86~ubuntu16.04.1*
G04 #@! TF.CreationDate,2020-04-28T17:17:38-04:00*
G04 #@! TF.ProjectId,atmega32u4_hub_pcb_2,61746d65-6761-4333-9275-345f6875625f,1.2*
G04 #@! TF.SameCoordinates,Original*
G04 #@! TF.FileFunction,Soldermask,Top*
G04 #@! TF.FilePolarity,Negative*
%FSLAX46Y46*%
G04 Gerber Fmt 4.6, Leading zero omitted, Abs format (unit mm)*
G04 Created by KiCad (PCBNEW 5.1.5-52549c5~86~ubuntu16.04.1) date 2020-04-28 17:17:38*
%MOMM*%
%LPD*%
G04 APERTURE LIST*
%ADD10C,0.100000*%
G04 APERTURE END LIST*
D10*
G36*
X139305331Y-123602811D02*
G01*
X139633092Y-123738574D01*
X139928070Y-123935672D01*
X140178928Y-124186530D01*
X140376026Y-124481508D01*
X140511789Y-124809269D01*
X140581000Y-125157216D01*
X140581000Y-125511984D01*
X140511789Y-125859931D01*
X140376026Y-126187692D01*
X140178928Y-126482670D01*
X139928070Y-126733528D01*
X139633092Y-126930626D01*
X139305331Y-127066389D01*
X138957384Y-127135600D01*
X138602616Y-127135600D01*
X138254669Y-127066389D01*
X137926908Y-126930626D01*
X137631930Y-126733528D01*
X137381072Y-126482670D01*
X137183974Y-126187692D01*
X137048211Y-125859931D01*
X136979000Y-125511984D01*
X136979000Y-125157216D01*
X137048211Y-124809269D01*
X137183974Y-124481508D01*
X137381072Y-124186530D01*
X137631930Y-123935672D01*
X137926908Y-123738574D01*
X138254669Y-123602811D01*
X138602616Y-123533600D01*
X138957384Y-123533600D01*
X139305331Y-123602811D01*
G37*
G36*
X151345331Y-123602811D02*
G01*
X151673092Y-123738574D01*
X151968070Y-123935672D01*
X152218928Y-124186530D01*
X152416026Y-124481508D01*
X152551789Y-124809269D01*
X152621000Y-125157216D01*
X152621000Y-125511984D01*
X152551789Y-125859931D01*
X152416026Y-126187692D01*
X152218928Y-126482670D01*
X151968070Y-126733528D01*
X151673092Y-126930626D01*
X151345331Y-127066389D01*
X150997384Y-127135600D01*
X150642616Y-127135600D01*
X150294669Y-127066389D01*
X149966908Y-126930626D01*
X149671930Y-126733528D01*
X149421072Y-126482670D01*
X149223974Y-126187692D01*
X149088211Y-125859931D01*
X149019000Y-125511984D01*
X149019000Y-125157216D01*
X149088211Y-124809269D01*
X149223974Y-124481508D01*
X149421072Y-124186530D01*
X149671930Y-123935672D01*
X149966908Y-123738574D01*
X150294669Y-123602811D01*
X150642616Y-123533600D01*
X150997384Y-123533600D01*
X151345331Y-123602811D01*
G37*
G36*
X130653512Y-122852727D02*
G01*
X130802812Y-122882424D01*
X130966784Y-122950344D01*
X131114354Y-123048947D01*
X131239853Y-123174446D01*
X131338456Y-123322016D01*
X131406376Y-123485988D01*
X131441000Y-123660059D01*
X131441000Y-123837541D01*
X131406376Y-124011612D01*
X131338456Y-124175584D01*
X131239853Y-124323154D01*
X131114354Y-124448653D01*
X130966784Y-124547256D01*
X130802812Y-124615176D01*
X130653512Y-124644873D01*
X130628742Y-124649800D01*
X130451258Y-124649800D01*
X130426488Y-124644873D01*
X130277188Y-124615176D01*
X130113216Y-124547256D01*
X129965646Y-124448653D01*
X129840147Y-124323154D01*
X129741544Y-124175584D01*
X129673624Y-124011612D01*
X129639000Y-123837541D01*
X129639000Y-123660059D01*
X129673624Y-123485988D01*
X129741544Y-123322016D01*
X129840147Y-123174446D01*
X129965646Y-123048947D01*
X130113216Y-122950344D01*
X130277188Y-122882424D01*
X130426488Y-122852727D01*
X130451258Y-122847800D01*
X130628742Y-122847800D01*
X130653512Y-122852727D01*
G37*
G36*
X128113512Y-122852727D02*
G01*
X128262812Y-122882424D01*
X128426784Y-122950344D01*
X128574354Y-123048947D01*
X128699853Y-123174446D01*
X128798456Y-123322016D01*
X128866376Y-123485988D01*
X128901000Y-123660059D01*
X128901000Y-123837541D01*
X128866376Y-124011612D01*
X128798456Y-124175584D01*
X128699853Y-124323154D01*
X128574354Y-124448653D01*
X128426784Y-124547256D01*
X128262812Y-124615176D01*
X128113512Y-124644873D01*
X128088742Y-124649800D01*
X127911258Y-124649800D01*
X127886488Y-124644873D01*
X127737188Y-124615176D01*
X127573216Y-124547256D01*
X127425646Y-124448653D01*
X127300147Y-124323154D01*
X127201544Y-124175584D01*
X127133624Y-124011612D01*
X127099000Y-123837541D01*
X127099000Y-123660059D01*
X127133624Y-123485988D01*
X127201544Y-123322016D01*
X127300147Y-123174446D01*
X127425646Y-123048947D01*
X127573216Y-122950344D01*
X127737188Y-122882424D01*
X127886488Y-122852727D01*
X127911258Y-122847800D01*
X128088742Y-122847800D01*
X128113512Y-122852727D01*
G37*
G36*
X119516823Y-122538413D02*
G01*
X119677242Y-122587076D01*
X119809906Y-122657986D01*
X119825078Y-122666096D01*
X119954659Y-122772441D01*
X120061004Y-122902022D01*
X120061005Y-122902024D01*
X120140024Y-123049858D01*
X120188687Y-123210277D01*
X120205117Y-123377100D01*
X120188687Y-123543923D01*
X120140024Y-123704342D01*
X120121726Y-123738575D01*
X120061004Y-123852178D01*
X119954659Y-123981759D01*
X119825078Y-124088104D01*
X119825076Y-124088105D01*
X119677242Y-124167124D01*
X119677239Y-124167125D01*
X119649360Y-124175582D01*
X119516823Y-124215787D01*
X119391804Y-124228100D01*
X118908196Y-124228100D01*
X118783177Y-124215787D01*
X118650640Y-124175582D01*
X118622761Y-124167125D01*
X118622758Y-124167124D01*
X118474924Y-124088105D01*
X118474922Y-124088104D01*
X118345341Y-123981759D01*
X118238996Y-123852178D01*
X118178274Y-123738575D01*
X118159976Y-123704342D01*
X118111313Y-123543923D01*
X118094883Y-123377100D01*
X118111313Y-123210277D01*
X118159976Y-123049858D01*
X118238995Y-122902024D01*
X118238996Y-122902022D01*
X118345341Y-122772441D01*
X118474922Y-122666096D01*
X118490094Y-122657986D01*
X118622758Y-122587076D01*
X118783177Y-122538413D01*
X118908196Y-122526100D01*
X119391804Y-122526100D01*
X119516823Y-122538413D01*
G37*
G36*
X178316823Y-122478313D02*
G01*
X178447380Y-122517917D01*
X178474355Y-122526100D01*
X178477242Y-122526976D01*
X178589679Y-122587075D01*
X178625078Y-122605996D01*
X178754659Y-122712341D01*
X178861004Y-122841922D01*
X178861005Y-122841924D01*
X178940024Y-122989758D01*
X178988687Y-123150177D01*
X179005117Y-123317000D01*
X178988687Y-123483823D01*
X178940024Y-123644242D01*
X178907901Y-123704339D01*
X178861004Y-123792078D01*
X178754659Y-123921659D01*
X178625078Y-124028004D01*
X178625076Y-124028005D01*
X178477242Y-124107024D01*
X178316823Y-124155687D01*
X178191804Y-124168000D01*
X177708196Y-124168000D01*
X177583177Y-124155687D01*
X177422758Y-124107024D01*
X177274924Y-124028005D01*
X177274922Y-124028004D01*
X177145341Y-123921659D01*
X177038996Y-123792078D01*
X176992099Y-123704339D01*
X176959976Y-123644242D01*
X176911313Y-123483823D01*
X176894883Y-123317000D01*
X176911313Y-123150177D01*
X176959976Y-122989758D01*
X177038995Y-122841924D01*
X177038996Y-122841922D01*
X177145341Y-122712341D01*
X177274922Y-122605996D01*
X177310321Y-122587075D01*
X177422758Y-122526976D01*
X177425646Y-122526100D01*
X177452620Y-122517917D01*
X177583177Y-122478313D01*
X177708196Y-122466000D01*
X178191804Y-122466000D01*
X178316823Y-122478313D01*
G37*
G36*
X175316823Y-122478313D02*
G01*
X175447380Y-122517917D01*
X175474355Y-122526100D01*
X175477242Y-122526976D01*
X175589679Y-122587075D01*
X175625078Y-122605996D01*
X175754659Y-122712341D01*
X175861004Y-122841922D01*
X175861005Y-122841924D01*
X175940024Y-122989758D01*
X175988687Y-123150177D01*
X176005117Y-123317000D01*
X175988687Y-123483823D01*
X175940024Y-123644242D01*
X175907901Y-123704339D01*
X175861004Y-123792078D01*
X175754659Y-123921659D01*
X175625078Y-124028004D01*
X175625076Y-124028005D01*
X175477242Y-124107024D01*
X175316823Y-124155687D01*
X175191804Y-124168000D01*
X174708196Y-124168000D01*
X174583177Y-124155687D01*
X174422758Y-124107024D01*
X174274924Y-124028005D01*
X174274922Y-124028004D01*
X174145341Y-123921659D01*
X174038996Y-123792078D01*
X173992099Y-123704339D01*
X173959976Y-123644242D01*
X173911313Y-123483823D01*
X173894883Y-123317000D01*
X173911313Y-123150177D01*
X173959976Y-122989758D01*
X174038995Y-122841924D01*
X174038996Y-122841922D01*
X174145341Y-122712341D01*
X174274922Y-122605996D01*
X174310321Y-122587075D01*
X174422758Y-122526976D01*
X174425646Y-122526100D01*
X174452620Y-122517917D01*
X174583177Y-122478313D01*
X174708196Y-122466000D01*
X175191804Y-122466000D01*
X175316823Y-122478313D01*
G37*
G36*
X171316823Y-122478313D02*
G01*
X171447380Y-122517917D01*
X171474355Y-122526100D01*
X171477242Y-122526976D01*
X171589679Y-122587075D01*
X171625078Y-122605996D01*
X171754659Y-122712341D01*
X171861004Y-122841922D01*
X171861005Y-122841924D01*
X171940024Y-122989758D01*
X171988687Y-123150177D01*
X172005117Y-123317000D01*
X171988687Y-123483823D01*
X171940024Y-123644242D01*
X171907901Y-123704339D01*
X171861004Y-123792078D01*
X171754659Y-123921659D01*
X171625078Y-124028004D01*
X171625076Y-124028005D01*
X171477242Y-124107024D01*
X171316823Y-124155687D01*
X171191804Y-124168000D01*
X170708196Y-124168000D01*
X170583177Y-124155687D01*
X170422758Y-124107024D01*
X170274924Y-124028005D01*
X170274922Y-124028004D01*
X170145341Y-123921659D01*
X170038996Y-123792078D01*
X169992099Y-123704339D01*
X169959976Y-123644242D01*
X169911313Y-123483823D01*
X169894883Y-123317000D01*
X169911313Y-123150177D01*
X169959976Y-122989758D01*
X170038995Y-122841924D01*
X170038996Y-122841922D01*
X170145341Y-122712341D01*
X170274922Y-122605996D01*
X170310321Y-122587075D01*
X170422758Y-122526976D01*
X170425646Y-122526100D01*
X170452620Y-122517917D01*
X170583177Y-122478313D01*
X170708196Y-122466000D01*
X171191804Y-122466000D01*
X171316823Y-122478313D01*
G37*
G36*
X146951000Y-121525600D02*
G01*
X146379617Y-121525600D01*
X146355231Y-121528002D01*
X146331782Y-121535115D01*
X146310171Y-121546666D01*
X146291229Y-121562211D01*
X146275684Y-121581153D01*
X146264133Y-121602764D01*
X146257020Y-121626213D01*
X146254618Y-121650599D01*
X146257020Y-121674985D01*
X146264133Y-121698434D01*
X146275684Y-121720045D01*
X146291229Y-121738987D01*
X146310171Y-121754532D01*
X146331771Y-121766077D01*
X146476784Y-121826144D01*
X146624354Y-121924747D01*
X146749853Y-122050246D01*
X146848456Y-122197816D01*
X146916376Y-122361788D01*
X146951000Y-122535859D01*
X146951000Y-122713341D01*
X146916376Y-122887412D01*
X146848456Y-123051384D01*
X146749853Y-123198954D01*
X146624354Y-123324453D01*
X146476784Y-123423056D01*
X146312812Y-123490976D01*
X146163512Y-123520673D01*
X146138742Y-123525600D01*
X145961258Y-123525600D01*
X145936488Y-123520673D01*
X145787188Y-123490976D01*
X145623216Y-123423056D01*
X145475646Y-123324453D01*
X145350147Y-123198954D01*
X145251544Y-123051384D01*
X145183624Y-122887412D01*
X145149000Y-122713341D01*
X145149000Y-122535859D01*
X145183624Y-122361788D01*
X145251544Y-122197816D01*
X145350147Y-122050246D01*
X145475646Y-121924747D01*
X145623216Y-121826144D01*
X145768229Y-121766077D01*
X145789829Y-121754532D01*
X145808771Y-121738987D01*
X145824316Y-121720045D01*
X145835867Y-121698434D01*
X145842980Y-121674985D01*
X145845382Y-121650599D01*
X145842980Y-121626213D01*
X145835867Y-121602764D01*
X145824316Y-121581153D01*
X145808771Y-121562211D01*
X145789829Y-121546666D01*
X145768218Y-121535115D01*
X145744769Y-121528002D01*
X145720383Y-121525600D01*
X145149000Y-121525600D01*
X145149000Y-119723600D01*
X146951000Y-119723600D01*
X146951000Y-121525600D01*
G37*
G36*
X143663512Y-119728527D02*
G01*
X143812812Y-119758224D01*
X143976784Y-119826144D01*
X144124354Y-119924747D01*
X144249853Y-120050246D01*
X144348456Y-120197816D01*
X144416376Y-120361788D01*
X144451000Y-120535859D01*
X144451000Y-120713341D01*
X144416376Y-120887412D01*
X144348456Y-121051384D01*
X144249853Y-121198954D01*
X144124354Y-121324453D01*
X143976784Y-121423056D01*
X143812812Y-121490976D01*
X143757362Y-121502005D01*
X143733922Y-121509116D01*
X143712311Y-121520667D01*
X143693369Y-121536213D01*
X143677824Y-121555155D01*
X143666273Y-121576765D01*
X143659160Y-121600214D01*
X143656758Y-121624600D01*
X143659160Y-121648987D01*
X143666273Y-121672435D01*
X143677824Y-121694046D01*
X143693370Y-121712988D01*
X143712312Y-121728533D01*
X143733922Y-121740084D01*
X143757362Y-121747195D01*
X143812812Y-121758224D01*
X143976784Y-121826144D01*
X144124354Y-121924747D01*
X144249853Y-122050246D01*
X144348456Y-122197816D01*
X144416376Y-122361788D01*
X144451000Y-122535859D01*
X144451000Y-122713341D01*
X144416376Y-122887412D01*
X144348456Y-123051384D01*
X144249853Y-123198954D01*
X144124354Y-123324453D01*
X143976784Y-123423056D01*
X143812812Y-123490976D01*
X143663512Y-123520673D01*
X143638742Y-123525600D01*
X143461258Y-123525600D01*
X143436488Y-123520673D01*
X143287188Y-123490976D01*
X143123216Y-123423056D01*
X142975646Y-123324453D01*
X142850147Y-123198954D01*
X142751544Y-123051384D01*
X142683624Y-122887412D01*
X142649000Y-122713341D01*
X142649000Y-122535859D01*
X142683624Y-122361788D01*
X142751544Y-122197816D01*
X142850147Y-122050246D01*
X142975646Y-121924747D01*
X143123216Y-121826144D01*
X143287188Y-121758224D01*
X143342638Y-121747195D01*
X143366078Y-121740084D01*
X143387689Y-121728533D01*
X143406631Y-121712987D01*
X143422176Y-121694045D01*
X143433727Y-121672435D01*
X143440840Y-121648986D01*
X143443242Y-121624600D01*
X143440840Y-121600213D01*
X143433727Y-121576765D01*
X143422176Y-121555154D01*
X143406630Y-121536212D01*
X143387688Y-121520667D01*
X143366078Y-121509116D01*
X143342638Y-121502005D01*
X143287188Y-121490976D01*
X143123216Y-121423056D01*
X142975646Y-121324453D01*
X142850147Y-121198954D01*
X142751544Y-121051384D01*
X142683624Y-120887412D01*
X142649000Y-120713341D01*
X142649000Y-120535859D01*
X142683624Y-120361788D01*
X142751544Y-120197816D01*
X142850147Y-120050246D01*
X142975646Y-119924747D01*
X143123216Y-119826144D01*
X143287188Y-119758224D01*
X143436488Y-119728527D01*
X143461258Y-119723600D01*
X143638742Y-119723600D01*
X143663512Y-119728527D01*
G37*
G36*
X128113512Y-120312727D02*
G01*
X128262812Y-120342424D01*
X128426784Y-120410344D01*
X128574354Y-120508947D01*
X128699853Y-120634446D01*
X128798456Y-120782016D01*
X128866376Y-120945988D01*
X128901000Y-121120059D01*
X128901000Y-121297541D01*
X128866376Y-121471612D01*
X128798456Y-121635584D01*
X128699853Y-121783154D01*
X128574354Y-121908653D01*
X128426784Y-122007256D01*
X128262812Y-122075176D01*
X128113512Y-122104873D01*
X128088742Y-122109800D01*
X127911258Y-122109800D01*
X127886488Y-122104873D01*
X127737188Y-122075176D01*
X127573216Y-122007256D01*
X127425646Y-121908653D01*
X127300147Y-121783154D01*
X127201544Y-121635584D01*
X127133624Y-121471612D01*
X127099000Y-121297541D01*
X127099000Y-121120059D01*
X127133624Y-120945988D01*
X127201544Y-120782016D01*
X127300147Y-120634446D01*
X127425646Y-120508947D01*
X127573216Y-120410344D01*
X127737188Y-120342424D01*
X127886488Y-120312727D01*
X127911258Y-120307800D01*
X128088742Y-120307800D01*
X128113512Y-120312727D01*
G37*
G36*
X130653512Y-120312727D02*
G01*
X130802812Y-120342424D01*
X130966784Y-120410344D01*
X131114354Y-120508947D01*
X131239853Y-120634446D01*
X131338456Y-120782016D01*
X131406376Y-120945988D01*
X131441000Y-121120059D01*
X131441000Y-121297541D01*
X131406376Y-121471612D01*
X131338456Y-121635584D01*
X131239853Y-121783154D01*
X131114354Y-121908653D01*
X130966784Y-122007256D01*
X130802812Y-122075176D01*
X130653512Y-122104873D01*
X130628742Y-122109800D01*
X130451258Y-122109800D01*
X130426488Y-122104873D01*
X130277188Y-122075176D01*
X130113216Y-122007256D01*
X129965646Y-121908653D01*
X129840147Y-121783154D01*
X129741544Y-121635584D01*
X129673624Y-121471612D01*
X129639000Y-121297541D01*
X129639000Y-121120059D01*
X129673624Y-120945988D01*
X129741544Y-120782016D01*
X129840147Y-120634446D01*
X129965646Y-120508947D01*
X130113216Y-120410344D01*
X130277188Y-120342424D01*
X130426488Y-120312727D01*
X130451258Y-120307800D01*
X130628742Y-120307800D01*
X130653512Y-120312727D01*
G37*
G36*
X109581552Y-120643431D02*
G01*
X109663627Y-120677428D01*
X109663629Y-120677429D01*
X109700813Y-120702275D01*
X109737495Y-120726785D01*
X109800315Y-120789605D01*
X109849672Y-120863473D01*
X109883669Y-120945548D01*
X109901000Y-121032679D01*
X109901000Y-121121521D01*
X109883669Y-121208652D01*
X109849672Y-121290727D01*
X109849671Y-121290729D01*
X109800314Y-121364596D01*
X109737496Y-121427414D01*
X109663629Y-121476771D01*
X109663628Y-121476772D01*
X109663627Y-121476772D01*
X109581552Y-121510769D01*
X109494421Y-121528100D01*
X109405579Y-121528100D01*
X109318448Y-121510769D01*
X109236373Y-121476772D01*
X109236372Y-121476772D01*
X109236371Y-121476771D01*
X109162504Y-121427414D01*
X109099686Y-121364596D01*
X109050329Y-121290729D01*
X109050328Y-121290727D01*
X109016331Y-121208652D01*
X108999000Y-121121521D01*
X108999000Y-121032679D01*
X109016331Y-120945548D01*
X109050328Y-120863473D01*
X109099685Y-120789605D01*
X109162505Y-120726785D01*
X109199187Y-120702275D01*
X109236371Y-120677429D01*
X109236373Y-120677428D01*
X109318448Y-120643431D01*
X109405579Y-120626100D01*
X109494421Y-120626100D01*
X109581552Y-120643431D01*
G37*
G36*
X116581552Y-120643431D02*
G01*
X116663627Y-120677428D01*
X116663629Y-120677429D01*
X116700813Y-120702275D01*
X116737495Y-120726785D01*
X116800315Y-120789605D01*
X116849672Y-120863473D01*
X116883669Y-120945548D01*
X116901000Y-121032679D01*
X116901000Y-121121521D01*
X116883669Y-121208652D01*
X116849672Y-121290727D01*
X116849671Y-121290729D01*
X116800314Y-121364596D01*
X116737496Y-121427414D01*
X116663629Y-121476771D01*
X116663628Y-121476772D01*
X116663627Y-121476772D01*
X116581552Y-121510769D01*
X116494421Y-121528100D01*
X116405579Y-121528100D01*
X116318448Y-121510769D01*
X116236373Y-121476772D01*
X116236372Y-121476772D01*
X116236371Y-121476771D01*
X116162504Y-121427414D01*
X116099686Y-121364596D01*
X116050329Y-121290729D01*
X116050328Y-121290727D01*
X116016331Y-121208652D01*
X115999000Y-121121521D01*
X115999000Y-121032679D01*
X116016331Y-120945548D01*
X116050328Y-120863473D01*
X116099685Y-120789605D01*
X116162505Y-120726785D01*
X116199187Y-120702275D01*
X116236371Y-120677429D01*
X116236373Y-120677428D01*
X116318448Y-120643431D01*
X116405579Y-120626100D01*
X116494421Y-120626100D01*
X116581552Y-120643431D01*
G37*
G36*
X172681552Y-120583331D02*
G01*
X172763627Y-120617328D01*
X172763629Y-120617329D01*
X172800813Y-120642175D01*
X172837495Y-120666685D01*
X172900315Y-120729505D01*
X172949672Y-120803373D01*
X172983669Y-120885448D01*
X173001000Y-120972579D01*
X173001000Y-121061421D01*
X172983669Y-121148552D01*
X172949672Y-121230627D01*
X172904962Y-121297541D01*
X172900314Y-121304496D01*
X172837496Y-121367314D01*
X172763629Y-121416671D01*
X172763628Y-121416672D01*
X172763627Y-121416672D01*
X172681552Y-121450669D01*
X172594421Y-121468000D01*
X172505579Y-121468000D01*
X172418448Y-121450669D01*
X172336373Y-121416672D01*
X172336372Y-121416672D01*
X172336371Y-121416671D01*
X172262504Y-121367314D01*
X172199686Y-121304496D01*
X172195039Y-121297541D01*
X172150328Y-121230627D01*
X172116331Y-121148552D01*
X172099000Y-121061421D01*
X172099000Y-120972579D01*
X172116331Y-120885448D01*
X172150328Y-120803373D01*
X172199685Y-120729505D01*
X172262505Y-120666685D01*
X172299187Y-120642175D01*
X172336371Y-120617329D01*
X172336373Y-120617328D01*
X172418448Y-120583331D01*
X172505579Y-120566000D01*
X172594421Y-120566000D01*
X172681552Y-120583331D01*
G37*
G36*
X179681552Y-120583331D02*
G01*
X179763627Y-120617328D01*
X179763629Y-120617329D01*
X179800813Y-120642175D01*
X179837495Y-120666685D01*
X179900315Y-120729505D01*
X179949672Y-120803373D01*
X179983669Y-120885448D01*
X180001000Y-120972579D01*
X180001000Y-121061421D01*
X179983669Y-121148552D01*
X179949672Y-121230627D01*
X179904962Y-121297541D01*
X179900314Y-121304496D01*
X179837496Y-121367314D01*
X179763629Y-121416671D01*
X179763628Y-121416672D01*
X179763627Y-121416672D01*
X179681552Y-121450669D01*
X179594421Y-121468000D01*
X179505579Y-121468000D01*
X179418448Y-121450669D01*
X179336373Y-121416672D01*
X179336372Y-121416672D01*
X179336371Y-121416671D01*
X179262504Y-121367314D01*
X179199686Y-121304496D01*
X179195039Y-121297541D01*
X179150328Y-121230627D01*
X179116331Y-121148552D01*
X179099000Y-121061421D01*
X179099000Y-120972579D01*
X179116331Y-120885448D01*
X179150328Y-120803373D01*
X179199685Y-120729505D01*
X179262505Y-120666685D01*
X179299187Y-120642175D01*
X179336371Y-120617329D01*
X179336373Y-120617328D01*
X179418448Y-120583331D01*
X179505579Y-120566000D01*
X179594421Y-120566000D01*
X179681552Y-120583331D01*
G37*
G36*
X118416823Y-117938413D02*
G01*
X118577242Y-117987076D01*
X118709906Y-118057986D01*
X118725078Y-118066096D01*
X118854659Y-118172441D01*
X118961004Y-118302022D01*
X118961005Y-118302024D01*
X119040024Y-118449858D01*
X119088687Y-118610277D01*
X119105117Y-118777100D01*
X119088687Y-118943923D01*
X119040024Y-119104342D01*
X118993129Y-119192076D01*
X118961004Y-119252178D01*
X118854659Y-119381759D01*
X118725078Y-119488104D01*
X118725076Y-119488105D01*
X118577242Y-119567124D01*
X118577239Y-119567125D01*
X118547380Y-119576183D01*
X118416823Y-119615787D01*
X118291804Y-119628100D01*
X117808196Y-119628100D01*
X117683177Y-119615787D01*
X117552620Y-119576183D01*
X117522761Y-119567125D01*
X117522758Y-119567124D01*
X117374924Y-119488105D01*
X117374922Y-119488104D01*
X117245341Y-119381759D01*
X117138996Y-119252178D01*
X117106871Y-119192076D01*
X117059976Y-119104342D01*
X117011313Y-118943923D01*
X116994883Y-118777100D01*
X117011313Y-118610277D01*
X117059976Y-118449858D01*
X117138995Y-118302024D01*
X117138996Y-118302022D01*
X117245341Y-118172441D01*
X117374922Y-118066096D01*
X117390094Y-118057986D01*
X117522758Y-117987076D01*
X117683177Y-117938413D01*
X117808196Y-117926100D01*
X118291804Y-117926100D01*
X118416823Y-117938413D01*
G37*
G36*
X114416823Y-117938413D02*
G01*
X114577242Y-117987076D01*
X114709906Y-118057986D01*
X114725078Y-118066096D01*
X114854659Y-118172441D01*
X114961004Y-118302022D01*
X114961005Y-118302024D01*
X115040024Y-118449858D01*
X115088687Y-118610277D01*
X115105117Y-118777100D01*
X115088687Y-118943923D01*
X115040024Y-119104342D01*
X114993129Y-119192076D01*
X114961004Y-119252178D01*
X114854659Y-119381759D01*
X114725078Y-119488104D01*
X114725076Y-119488105D01*
X114577242Y-119567124D01*
X114577239Y-119567125D01*
X114547380Y-119576183D01*
X114416823Y-119615787D01*
X114291804Y-119628100D01*
X113808196Y-119628100D01*
X113683177Y-119615787D01*
X113552620Y-119576183D01*
X113522761Y-119567125D01*
X113522758Y-119567124D01*
X113374924Y-119488105D01*
X113374922Y-119488104D01*
X113245341Y-119381759D01*
X113138996Y-119252178D01*
X113106871Y-119192076D01*
X113059976Y-119104342D01*
X113011313Y-118943923D01*
X112994883Y-118777100D01*
X113011313Y-118610277D01*
X113059976Y-118449858D01*
X113138995Y-118302024D01*
X113138996Y-118302022D01*
X113245341Y-118172441D01*
X113374922Y-118066096D01*
X113390094Y-118057986D01*
X113522758Y-117987076D01*
X113683177Y-117938413D01*
X113808196Y-117926100D01*
X114291804Y-117926100D01*
X114416823Y-117938413D01*
G37*
G36*
X111416823Y-117938413D02*
G01*
X111577242Y-117987076D01*
X111709906Y-118057986D01*
X111725078Y-118066096D01*
X111854659Y-118172441D01*
X111961004Y-118302022D01*
X111961005Y-118302024D01*
X112040024Y-118449858D01*
X112088687Y-118610277D01*
X112105117Y-118777100D01*
X112088687Y-118943923D01*
X112040024Y-119104342D01*
X111993129Y-119192076D01*
X111961004Y-119252178D01*
X111854659Y-119381759D01*
X111725078Y-119488104D01*
X111725076Y-119488105D01*
X111577242Y-119567124D01*
X111577239Y-119567125D01*
X111547380Y-119576183D01*
X111416823Y-119615787D01*
X111291804Y-119628100D01*
X110808196Y-119628100D01*
X110683177Y-119615787D01*
X110552620Y-119576183D01*
X110522761Y-119567125D01*
X110522758Y-119567124D01*
X110374924Y-119488105D01*
X110374922Y-119488104D01*
X110245341Y-119381759D01*
X110138996Y-119252178D01*
X110106871Y-119192076D01*
X110059976Y-119104342D01*
X110011313Y-118943923D01*
X109994883Y-118777100D01*
X110011313Y-118610277D01*
X110059976Y-118449858D01*
X110138995Y-118302024D01*
X110138996Y-118302022D01*
X110245341Y-118172441D01*
X110374922Y-118066096D01*
X110390094Y-118057986D01*
X110522758Y-117987076D01*
X110683177Y-117938413D01*
X110808196Y-117926100D01*
X111291804Y-117926100D01*
X111416823Y-117938413D01*
G37*
G36*
X130653512Y-117772727D02*
G01*
X130802812Y-117802424D01*
X130966784Y-117870344D01*
X131114354Y-117968947D01*
X131239853Y-118094446D01*
X131338456Y-118242016D01*
X131406376Y-118405988D01*
X131441000Y-118580059D01*
X131441000Y-118757541D01*
X131406376Y-118931612D01*
X131338456Y-119095584D01*
X131239853Y-119243154D01*
X131114354Y-119368653D01*
X130966784Y-119467256D01*
X130802812Y-119535176D01*
X130653512Y-119564873D01*
X130628742Y-119569800D01*
X130451258Y-119569800D01*
X130426488Y-119564873D01*
X130277188Y-119535176D01*
X130113216Y-119467256D01*
X129965646Y-119368653D01*
X129840147Y-119243154D01*
X129741544Y-119095584D01*
X129673624Y-118931612D01*
X129639000Y-118757541D01*
X129639000Y-118580059D01*
X129673624Y-118405988D01*
X129741544Y-118242016D01*
X129840147Y-118094446D01*
X129965646Y-117968947D01*
X130113216Y-117870344D01*
X130277188Y-117802424D01*
X130426488Y-117772727D01*
X130451258Y-117767800D01*
X130628742Y-117767800D01*
X130653512Y-117772727D01*
G37*
G36*
X128901000Y-119569800D02*
G01*
X127099000Y-119569800D01*
X127099000Y-117767800D01*
X128901000Y-117767800D01*
X128901000Y-119569800D01*
G37*
G36*
X170216823Y-117878313D02*
G01*
X170347380Y-117917917D01*
X170374355Y-117926100D01*
X170377242Y-117926976D01*
X170455764Y-117968947D01*
X170525078Y-118005996D01*
X170654659Y-118112341D01*
X170761004Y-118241922D01*
X170761005Y-118241924D01*
X170840024Y-118389758D01*
X170888687Y-118550177D01*
X170905117Y-118717000D01*
X170888687Y-118883823D01*
X170840024Y-119044242D01*
X170812582Y-119095582D01*
X170761004Y-119192078D01*
X170654659Y-119321659D01*
X170525078Y-119428004D01*
X170525076Y-119428005D01*
X170377242Y-119507024D01*
X170216823Y-119555687D01*
X170091804Y-119568000D01*
X169608196Y-119568000D01*
X169483177Y-119555687D01*
X169322758Y-119507024D01*
X169174924Y-119428005D01*
X169174922Y-119428004D01*
X169045341Y-119321659D01*
X168938996Y-119192078D01*
X168887418Y-119095582D01*
X168859976Y-119044242D01*
X168811313Y-118883823D01*
X168794883Y-118717000D01*
X168811313Y-118550177D01*
X168859976Y-118389758D01*
X168938995Y-118241924D01*
X168938996Y-118241922D01*
X169045341Y-118112341D01*
X169174922Y-118005996D01*
X169244236Y-117968947D01*
X169322758Y-117926976D01*
X169325646Y-117926100D01*
X169352620Y-117917917D01*
X169483177Y-117878313D01*
X169608196Y-117866000D01*
X170091804Y-117866000D01*
X170216823Y-117878313D01*
G37*
G36*
X112356200Y-113931000D02*
G01*
X110554200Y-113931000D01*
X110554200Y-112129000D01*
X112356200Y-112129000D01*
X112356200Y-113931000D01*
G37*
G36*
X111568712Y-109593927D02*
G01*
X111718012Y-109623624D01*
X111881984Y-109691544D01*
X112029554Y-109790147D01*
X112155053Y-109915646D01*
X112253656Y-110063216D01*
X112321576Y-110227188D01*
X112356200Y-110401259D01*
X112356200Y-110578741D01*
X112321576Y-110752812D01*
X112253656Y-110916784D01*
X112155053Y-111064354D01*
X112029554Y-111189853D01*
X111881984Y-111288456D01*
X111718012Y-111356376D01*
X111568712Y-111386073D01*
X111543942Y-111391000D01*
X111366458Y-111391000D01*
X111341688Y-111386073D01*
X111192388Y-111356376D01*
X111028416Y-111288456D01*
X110880846Y-111189853D01*
X110755347Y-111064354D01*
X110656744Y-110916784D01*
X110588824Y-110752812D01*
X110554200Y-110578741D01*
X110554200Y-110401259D01*
X110588824Y-110227188D01*
X110656744Y-110063216D01*
X110755347Y-109915646D01*
X110880846Y-109790147D01*
X111028416Y-109691544D01*
X111192388Y-109623624D01*
X111341688Y-109593927D01*
X111366458Y-109589000D01*
X111543942Y-109589000D01*
X111568712Y-109593927D01*
G37*
G36*
X171316823Y-109200113D02*
G01*
X171477242Y-109248776D01*
X171609906Y-109319686D01*
X171625078Y-109327796D01*
X171754659Y-109434141D01*
X171861004Y-109563722D01*
X171861005Y-109563724D01*
X171940024Y-109711558D01*
X171988687Y-109871977D01*
X172005117Y-110038800D01*
X171988687Y-110205623D01*
X171940024Y-110366042D01*
X171921200Y-110401259D01*
X171861004Y-110513878D01*
X171754659Y-110643459D01*
X171625078Y-110749804D01*
X171625076Y-110749805D01*
X171477242Y-110828824D01*
X171316823Y-110877487D01*
X171191804Y-110889800D01*
X170708196Y-110889800D01*
X170583177Y-110877487D01*
X170422758Y-110828824D01*
X170274924Y-110749805D01*
X170274922Y-110749804D01*
X170145341Y-110643459D01*
X170038996Y-110513878D01*
X169978800Y-110401259D01*
X169959976Y-110366042D01*
X169911313Y-110205623D01*
X169894883Y-110038800D01*
X169911313Y-109871977D01*
X169959976Y-109711558D01*
X170038995Y-109563724D01*
X170038996Y-109563722D01*
X170145341Y-109434141D01*
X170274922Y-109327796D01*
X170290094Y-109319686D01*
X170422758Y-109248776D01*
X170583177Y-109200113D01*
X170708196Y-109187800D01*
X171191804Y-109187800D01*
X171316823Y-109200113D01*
G37*
G36*
X178316823Y-109200113D02*
G01*
X178477242Y-109248776D01*
X178609906Y-109319686D01*
X178625078Y-109327796D01*
X178754659Y-109434141D01*
X178861004Y-109563722D01*
X178861005Y-109563724D01*
X178940024Y-109711558D01*
X178988687Y-109871977D01*
X179005117Y-110038800D01*
X178988687Y-110205623D01*
X178940024Y-110366042D01*
X178921200Y-110401259D01*
X178861004Y-110513878D01*
X178754659Y-110643459D01*
X178625078Y-110749804D01*
X178625076Y-110749805D01*
X178477242Y-110828824D01*
X178316823Y-110877487D01*
X178191804Y-110889800D01*
X177708196Y-110889800D01*
X177583177Y-110877487D01*
X177422758Y-110828824D01*
X177274924Y-110749805D01*
X177274922Y-110749804D01*
X177145341Y-110643459D01*
X177038996Y-110513878D01*
X176978800Y-110401259D01*
X176959976Y-110366042D01*
X176911313Y-110205623D01*
X176894883Y-110038800D01*
X176911313Y-109871977D01*
X176959976Y-109711558D01*
X177038995Y-109563724D01*
X177038996Y-109563722D01*
X177145341Y-109434141D01*
X177274922Y-109327796D01*
X177290094Y-109319686D01*
X177422758Y-109248776D01*
X177583177Y-109200113D01*
X177708196Y-109187800D01*
X178191804Y-109187800D01*
X178316823Y-109200113D01*
G37*
G36*
X175316823Y-109200113D02*
G01*
X175477242Y-109248776D01*
X175609906Y-109319686D01*
X175625078Y-109327796D01*
X175754659Y-109434141D01*
X175861004Y-109563722D01*
X175861005Y-109563724D01*
X175940024Y-109711558D01*
X175988687Y-109871977D01*
X176005117Y-110038800D01*
X175988687Y-110205623D01*
X175940024Y-110366042D01*
X175921200Y-110401259D01*
X175861004Y-110513878D01*
X175754659Y-110643459D01*
X175625078Y-110749804D01*
X175625076Y-110749805D01*
X175477242Y-110828824D01*
X175316823Y-110877487D01*
X175191804Y-110889800D01*
X174708196Y-110889800D01*
X174583177Y-110877487D01*
X174422758Y-110828824D01*
X174274924Y-110749805D01*
X174274922Y-110749804D01*
X174145341Y-110643459D01*
X174038996Y-110513878D01*
X173978800Y-110401259D01*
X173959976Y-110366042D01*
X173911313Y-110205623D01*
X173894883Y-110038800D01*
X173911313Y-109871977D01*
X173959976Y-109711558D01*
X174038995Y-109563724D01*
X174038996Y-109563722D01*
X174145341Y-109434141D01*
X174274922Y-109327796D01*
X174290094Y-109319686D01*
X174422758Y-109248776D01*
X174583177Y-109200113D01*
X174708196Y-109187800D01*
X175191804Y-109187800D01*
X175316823Y-109200113D01*
G37*
G36*
X111568712Y-107053927D02*
G01*
X111718012Y-107083624D01*
X111881984Y-107151544D01*
X112029554Y-107250147D01*
X112155053Y-107375646D01*
X112253656Y-107523216D01*
X112321576Y-107687188D01*
X112356200Y-107861259D01*
X112356200Y-108038741D01*
X112321576Y-108212812D01*
X112253656Y-108376784D01*
X112155053Y-108524354D01*
X112029554Y-108649853D01*
X111881984Y-108748456D01*
X111718012Y-108816376D01*
X111568712Y-108846073D01*
X111543942Y-108851000D01*
X111366458Y-108851000D01*
X111341688Y-108846073D01*
X111192388Y-108816376D01*
X111028416Y-108748456D01*
X110880846Y-108649853D01*
X110755347Y-108524354D01*
X110656744Y-108376784D01*
X110588824Y-108212812D01*
X110554200Y-108038741D01*
X110554200Y-107861259D01*
X110588824Y-107687188D01*
X110656744Y-107523216D01*
X110755347Y-107375646D01*
X110880846Y-107250147D01*
X111028416Y-107151544D01*
X111192388Y-107083624D01*
X111341688Y-107053927D01*
X111366458Y-107049000D01*
X111543942Y-107049000D01*
X111568712Y-107053927D01*
G37*
G36*
X179681552Y-107305131D02*
G01*
X179763627Y-107339128D01*
X179763629Y-107339129D01*
X179800813Y-107363975D01*
X179818282Y-107375647D01*
X179837496Y-107388486D01*
X179900314Y-107451304D01*
X179948365Y-107523216D01*
X179949672Y-107525173D01*
X179983669Y-107607248D01*
X180001000Y-107694379D01*
X180001000Y-107783221D01*
X179983669Y-107870352D01*
X179949672Y-107952427D01*
X179949671Y-107952429D01*
X179900314Y-108026296D01*
X179837496Y-108089114D01*
X179763629Y-108138471D01*
X179763628Y-108138472D01*
X179763627Y-108138472D01*
X179681552Y-108172469D01*
X179594421Y-108189800D01*
X179505579Y-108189800D01*
X179418448Y-108172469D01*
X179336373Y-108138472D01*
X179336372Y-108138472D01*
X179336371Y-108138471D01*
X179262504Y-108089114D01*
X179199686Y-108026296D01*
X179150329Y-107952429D01*
X179150328Y-107952427D01*
X179116331Y-107870352D01*
X179099000Y-107783221D01*
X179099000Y-107694379D01*
X179116331Y-107607248D01*
X179150328Y-107525173D01*
X179151636Y-107523216D01*
X179199686Y-107451304D01*
X179262504Y-107388486D01*
X179281719Y-107375647D01*
X179299187Y-107363975D01*
X179336371Y-107339129D01*
X179336373Y-107339128D01*
X179418448Y-107305131D01*
X179505579Y-107287800D01*
X179594421Y-107287800D01*
X179681552Y-107305131D01*
G37*
G36*
X172681552Y-107305131D02*
G01*
X172763627Y-107339128D01*
X172763629Y-107339129D01*
X172800813Y-107363975D01*
X172818282Y-107375647D01*
X172837496Y-107388486D01*
X172900314Y-107451304D01*
X172948365Y-107523216D01*
X172949672Y-107525173D01*
X172983669Y-107607248D01*
X173001000Y-107694379D01*
X173001000Y-107783221D01*
X172983669Y-107870352D01*
X172949672Y-107952427D01*
X172949671Y-107952429D01*
X172900314Y-108026296D01*
X172837496Y-108089114D01*
X172763629Y-108138471D01*
X172763628Y-108138472D01*
X172763627Y-108138472D01*
X172681552Y-108172469D01*
X172594421Y-108189800D01*
X172505579Y-108189800D01*
X172418448Y-108172469D01*
X172336373Y-108138472D01*
X172336372Y-108138472D01*
X172336371Y-108138471D01*
X172262504Y-108089114D01*
X172199686Y-108026296D01*
X172150329Y-107952429D01*
X172150328Y-107952427D01*
X172116331Y-107870352D01*
X172099000Y-107783221D01*
X172099000Y-107694379D01*
X172116331Y-107607248D01*
X172150328Y-107525173D01*
X172151636Y-107523216D01*
X172199686Y-107451304D01*
X172262504Y-107388486D01*
X172281719Y-107375647D01*
X172299187Y-107363975D01*
X172336371Y-107339129D01*
X172336373Y-107339128D01*
X172418448Y-107305131D01*
X172505579Y-107287800D01*
X172594421Y-107287800D01*
X172681552Y-107305131D01*
G37*
G36*
X111568712Y-104513927D02*
G01*
X111718012Y-104543624D01*
X111881984Y-104611544D01*
X112029554Y-104710147D01*
X112155053Y-104835646D01*
X112253656Y-104983216D01*
X112321576Y-105147188D01*
X112356200Y-105321259D01*
X112356200Y-105498741D01*
X112321576Y-105672812D01*
X112253656Y-105836784D01*
X112155053Y-105984354D01*
X112029554Y-106109853D01*
X111881984Y-106208456D01*
X111718012Y-106276376D01*
X111568712Y-106306073D01*
X111543942Y-106311000D01*
X111366458Y-106311000D01*
X111341688Y-106306073D01*
X111192388Y-106276376D01*
X111028416Y-106208456D01*
X110880846Y-106109853D01*
X110755347Y-105984354D01*
X110656744Y-105836784D01*
X110588824Y-105672812D01*
X110554200Y-105498741D01*
X110554200Y-105321259D01*
X110588824Y-105147188D01*
X110656744Y-104983216D01*
X110755347Y-104835646D01*
X110880846Y-104710147D01*
X111028416Y-104611544D01*
X111192388Y-104543624D01*
X111341688Y-104513927D01*
X111366458Y-104509000D01*
X111543942Y-104509000D01*
X111568712Y-104513927D01*
G37*
G36*
X170216823Y-104600113D02*
G01*
X170377242Y-104648776D01*
X170492059Y-104710147D01*
X170525078Y-104727796D01*
X170654659Y-104834141D01*
X170761004Y-104963722D01*
X170761005Y-104963724D01*
X170840024Y-105111558D01*
X170888687Y-105271977D01*
X170905117Y-105438800D01*
X170888687Y-105605623D01*
X170840024Y-105766042D01*
X170769114Y-105898706D01*
X170761004Y-105913878D01*
X170654659Y-106043459D01*
X170525078Y-106149804D01*
X170525076Y-106149805D01*
X170377242Y-106228824D01*
X170216823Y-106277487D01*
X170091804Y-106289800D01*
X169608196Y-106289800D01*
X169483177Y-106277487D01*
X169322758Y-106228824D01*
X169174924Y-106149805D01*
X169174922Y-106149804D01*
X169045341Y-106043459D01*
X168938996Y-105913878D01*
X168930886Y-105898706D01*
X168859976Y-105766042D01*
X168811313Y-105605623D01*
X168794883Y-105438800D01*
X168811313Y-105271977D01*
X168859976Y-105111558D01*
X168938995Y-104963724D01*
X168938996Y-104963722D01*
X169045341Y-104834141D01*
X169174922Y-104727796D01*
X169207941Y-104710147D01*
X169322758Y-104648776D01*
X169483177Y-104600113D01*
X169608196Y-104587800D01*
X170091804Y-104587800D01*
X170216823Y-104600113D01*
G37*
G36*
X111568712Y-101973927D02*
G01*
X111718012Y-102003624D01*
X111881984Y-102071544D01*
X112029554Y-102170147D01*
X112155053Y-102295646D01*
X112253656Y-102443216D01*
X112321576Y-102607188D01*
X112356200Y-102781259D01*
X112356200Y-102958741D01*
X112321576Y-103132812D01*
X112253656Y-103296784D01*
X112155053Y-103444354D01*
X112029554Y-103569853D01*
X111881984Y-103668456D01*
X111718012Y-103736376D01*
X111568712Y-103766073D01*
X111543942Y-103771000D01*
X111366458Y-103771000D01*
X111341688Y-103766073D01*
X111192388Y-103736376D01*
X111028416Y-103668456D01*
X110880846Y-103569853D01*
X110755347Y-103444354D01*
X110656744Y-103296784D01*
X110588824Y-103132812D01*
X110554200Y-102958741D01*
X110554200Y-102781259D01*
X110588824Y-102607188D01*
X110656744Y-102443216D01*
X110755347Y-102295646D01*
X110880846Y-102170147D01*
X111028416Y-102071544D01*
X111192388Y-102003624D01*
X111341688Y-101973927D01*
X111366458Y-101969000D01*
X111543942Y-101969000D01*
X111568712Y-101973927D01*
G37*
G36*
X111568712Y-99433927D02*
G01*
X111718012Y-99463624D01*
X111881984Y-99531544D01*
X112029554Y-99630147D01*
X112155053Y-99755646D01*
X112253656Y-99903216D01*
X112321576Y-100067188D01*
X112356200Y-100241259D01*
X112356200Y-100418741D01*
X112321576Y-100592812D01*
X112253656Y-100756784D01*
X112155053Y-100904354D01*
X112029554Y-101029853D01*
X111881984Y-101128456D01*
X111718012Y-101196376D01*
X111568712Y-101226073D01*
X111543942Y-101231000D01*
X111366458Y-101231000D01*
X111341688Y-101226073D01*
X111192388Y-101196376D01*
X111028416Y-101128456D01*
X110880846Y-101029853D01*
X110755347Y-100904354D01*
X110656744Y-100756784D01*
X110588824Y-100592812D01*
X110554200Y-100418741D01*
X110554200Y-100241259D01*
X110588824Y-100067188D01*
X110656744Y-99903216D01*
X110755347Y-99755646D01*
X110880846Y-99630147D01*
X111028416Y-99531544D01*
X111192388Y-99463624D01*
X111341688Y-99433927D01*
X111366458Y-99429000D01*
X111543942Y-99429000D01*
X111568712Y-99433927D01*
G37*
G36*
X178316823Y-97198613D02*
G01*
X178477242Y-97247276D01*
X178609906Y-97318186D01*
X178625078Y-97326296D01*
X178754659Y-97432641D01*
X178861004Y-97562222D01*
X178861005Y-97562224D01*
X178940024Y-97710058D01*
X178988687Y-97870477D01*
X179005117Y-98037300D01*
X178988687Y-98204123D01*
X178940024Y-98364542D01*
X178869114Y-98497206D01*
X178861004Y-98512378D01*
X178754659Y-98641959D01*
X178625078Y-98748304D01*
X178625076Y-98748305D01*
X178477242Y-98827324D01*
X178316823Y-98875987D01*
X178191804Y-98888300D01*
X177708196Y-98888300D01*
X177583177Y-98875987D01*
X177422758Y-98827324D01*
X177274924Y-98748305D01*
X177274922Y-98748304D01*
X177145341Y-98641959D01*
X177038996Y-98512378D01*
X177030886Y-98497206D01*
X176959976Y-98364542D01*
X176911313Y-98204123D01*
X176894883Y-98037300D01*
X176911313Y-97870477D01*
X176959976Y-97710058D01*
X177038995Y-97562224D01*
X177038996Y-97562222D01*
X177145341Y-97432641D01*
X177274922Y-97326296D01*
X177290094Y-97318186D01*
X177422758Y-97247276D01*
X177583177Y-97198613D01*
X177708196Y-97186300D01*
X178191804Y-97186300D01*
X178316823Y-97198613D01*
G37*
G36*
X171316823Y-97198613D02*
G01*
X171477242Y-97247276D01*
X171609906Y-97318186D01*
X171625078Y-97326296D01*
X171754659Y-97432641D01*
X171861004Y-97562222D01*
X171861005Y-97562224D01*
X171940024Y-97710058D01*
X171988687Y-97870477D01*
X172005117Y-98037300D01*
X171988687Y-98204123D01*
X171940024Y-98364542D01*
X171869114Y-98497206D01*
X171861004Y-98512378D01*
X171754659Y-98641959D01*
X171625078Y-98748304D01*
X171625076Y-98748305D01*
X171477242Y-98827324D01*
X171316823Y-98875987D01*
X171191804Y-98888300D01*
X170708196Y-98888300D01*
X170583177Y-98875987D01*
X170422758Y-98827324D01*
X170274924Y-98748305D01*
X170274922Y-98748304D01*
X170145341Y-98641959D01*
X170038996Y-98512378D01*
X170030886Y-98497206D01*
X169959976Y-98364542D01*
X169911313Y-98204123D01*
X169894883Y-98037300D01*
X169911313Y-97870477D01*
X169959976Y-97710058D01*
X170038995Y-97562224D01*
X170038996Y-97562222D01*
X170145341Y-97432641D01*
X170274922Y-97326296D01*
X170290094Y-97318186D01*
X170422758Y-97247276D01*
X170583177Y-97198613D01*
X170708196Y-97186300D01*
X171191804Y-97186300D01*
X171316823Y-97198613D01*
G37*
G36*
X175316823Y-97198613D02*
G01*
X175477242Y-97247276D01*
X175609906Y-97318186D01*
X175625078Y-97326296D01*
X175754659Y-97432641D01*
X175861004Y-97562222D01*
X175861005Y-97562224D01*
X175940024Y-97710058D01*
X175988687Y-97870477D01*
X176005117Y-98037300D01*
X175988687Y-98204123D01*
X175940024Y-98364542D01*
X175869114Y-98497206D01*
X175861004Y-98512378D01*
X175754659Y-98641959D01*
X175625078Y-98748304D01*
X175625076Y-98748305D01*
X175477242Y-98827324D01*
X175316823Y-98875987D01*
X175191804Y-98888300D01*
X174708196Y-98888300D01*
X174583177Y-98875987D01*
X174422758Y-98827324D01*
X174274924Y-98748305D01*
X174274922Y-98748304D01*
X174145341Y-98641959D01*
X174038996Y-98512378D01*
X174030886Y-98497206D01*
X173959976Y-98364542D01*
X173911313Y-98204123D01*
X173894883Y-98037300D01*
X173911313Y-97870477D01*
X173959976Y-97710058D01*
X174038995Y-97562224D01*
X174038996Y-97562222D01*
X174145341Y-97432641D01*
X174274922Y-97326296D01*
X174290094Y-97318186D01*
X174422758Y-97247276D01*
X174583177Y-97198613D01*
X174708196Y-97186300D01*
X175191804Y-97186300D01*
X175316823Y-97198613D01*
G37*
G36*
X131624564Y-95001389D02*
G01*
X131815833Y-95080615D01*
X131815835Y-95080616D01*
X131987973Y-95195635D01*
X132134365Y-95342027D01*
X132249385Y-95514167D01*
X132328611Y-95705436D01*
X132369000Y-95908484D01*
X132369000Y-96115516D01*
X132328611Y-96318564D01*
X132249385Y-96509833D01*
X132249384Y-96509835D01*
X132134365Y-96681973D01*
X131987973Y-96828365D01*
X131815835Y-96943384D01*
X131815834Y-96943385D01*
X131815833Y-96943385D01*
X131624564Y-97022611D01*
X131421516Y-97063000D01*
X131214484Y-97063000D01*
X131011436Y-97022611D01*
X130820167Y-96943385D01*
X130820166Y-96943385D01*
X130820165Y-96943384D01*
X130648027Y-96828365D01*
X130501635Y-96681973D01*
X130386616Y-96509835D01*
X130386615Y-96509833D01*
X130307389Y-96318564D01*
X130267000Y-96115516D01*
X130267000Y-95908484D01*
X130307389Y-95705436D01*
X130386615Y-95514167D01*
X130501635Y-95342027D01*
X130648027Y-95195635D01*
X130820165Y-95080616D01*
X130820167Y-95080615D01*
X131011436Y-95001389D01*
X131214484Y-94961000D01*
X131421516Y-94961000D01*
X131624564Y-95001389D01*
G37*
G36*
X136124564Y-95001389D02*
G01*
X136315833Y-95080615D01*
X136315835Y-95080616D01*
X136487973Y-95195635D01*
X136634365Y-95342027D01*
X136749385Y-95514167D01*
X136828611Y-95705436D01*
X136869000Y-95908484D01*
X136869000Y-96115516D01*
X136828611Y-96318564D01*
X136749385Y-96509833D01*
X136749384Y-96509835D01*
X136634365Y-96681973D01*
X136487973Y-96828365D01*
X136315835Y-96943384D01*
X136315834Y-96943385D01*
X136315833Y-96943385D01*
X136124564Y-97022611D01*
X135921516Y-97063000D01*
X135714484Y-97063000D01*
X135511436Y-97022611D01*
X135320167Y-96943385D01*
X135320166Y-96943385D01*
X135320165Y-96943384D01*
X135148027Y-96828365D01*
X135001635Y-96681973D01*
X134886616Y-96509835D01*
X134886615Y-96509833D01*
X134807389Y-96318564D01*
X134767000Y-96115516D01*
X134767000Y-95908484D01*
X134807389Y-95705436D01*
X134886615Y-95514167D01*
X135001635Y-95342027D01*
X135148027Y-95195635D01*
X135320165Y-95080616D01*
X135320167Y-95080615D01*
X135511436Y-95001389D01*
X135714484Y-94961000D01*
X135921516Y-94961000D01*
X136124564Y-95001389D01*
G37*
G36*
X179681552Y-95303631D02*
G01*
X179763627Y-95337628D01*
X179763629Y-95337629D01*
X179837496Y-95386986D01*
X179900314Y-95449804D01*
X179943321Y-95514167D01*
X179949672Y-95523673D01*
X179983669Y-95605748D01*
X180001000Y-95692879D01*
X180001000Y-95781721D01*
X179983669Y-95868852D01*
X179949672Y-95950927D01*
X179949671Y-95950929D01*
X179900314Y-96024796D01*
X179837496Y-96087614D01*
X179763629Y-96136971D01*
X179763628Y-96136972D01*
X179763627Y-96136972D01*
X179681552Y-96170969D01*
X179594421Y-96188300D01*
X179505579Y-96188300D01*
X179418448Y-96170969D01*
X179336373Y-96136972D01*
X179336372Y-96136972D01*
X179336371Y-96136971D01*
X179262504Y-96087614D01*
X179199686Y-96024796D01*
X179150329Y-95950929D01*
X179150328Y-95950927D01*
X179116331Y-95868852D01*
X179099000Y-95781721D01*
X179099000Y-95692879D01*
X179116331Y-95605748D01*
X179150328Y-95523673D01*
X179156680Y-95514167D01*
X179199686Y-95449804D01*
X179262504Y-95386986D01*
X179336371Y-95337629D01*
X179336373Y-95337628D01*
X179418448Y-95303631D01*
X179505579Y-95286300D01*
X179594421Y-95286300D01*
X179681552Y-95303631D01*
G37*
G36*
X172681552Y-95303631D02*
G01*
X172763627Y-95337628D01*
X172763629Y-95337629D01*
X172837496Y-95386986D01*
X172900314Y-95449804D01*
X172943321Y-95514167D01*
X172949672Y-95523673D01*
X172983669Y-95605748D01*
X173001000Y-95692879D01*
X173001000Y-95781721D01*
X172983669Y-95868852D01*
X172949672Y-95950927D01*
X172949671Y-95950929D01*
X172900314Y-96024796D01*
X172837496Y-96087614D01*
X172763629Y-96136971D01*
X172763628Y-96136972D01*
X172763627Y-96136972D01*
X172681552Y-96170969D01*
X172594421Y-96188300D01*
X172505579Y-96188300D01*
X172418448Y-96170969D01*
X172336373Y-96136972D01*
X172336372Y-96136972D01*
X172336371Y-96136971D01*
X172262504Y-96087614D01*
X172199686Y-96024796D01*
X172150329Y-95950929D01*
X172150328Y-95950927D01*
X172116331Y-95868852D01*
X172099000Y-95781721D01*
X172099000Y-95692879D01*
X172116331Y-95605748D01*
X172150328Y-95523673D01*
X172156680Y-95514167D01*
X172199686Y-95449804D01*
X172262504Y-95386986D01*
X172336371Y-95337629D01*
X172336373Y-95337628D01*
X172418448Y-95303631D01*
X172505579Y-95286300D01*
X172594421Y-95286300D01*
X172681552Y-95303631D01*
G37*
G36*
X143307376Y-92529479D02*
G01*
X143381017Y-92551818D01*
X143417838Y-92562987D01*
X143519640Y-92617402D01*
X143608870Y-92690630D01*
X143654875Y-92746689D01*
X143672202Y-92764016D01*
X143692576Y-92777630D01*
X143715215Y-92787007D01*
X143739248Y-92791788D01*
X143763752Y-92791788D01*
X143787785Y-92787008D01*
X143810424Y-92777631D01*
X143830799Y-92764017D01*
X143848126Y-92746690D01*
X143861740Y-92726316D01*
X143871117Y-92703677D01*
X143875898Y-92679644D01*
X143876500Y-92667391D01*
X143876500Y-92521000D01*
X145048500Y-92521000D01*
X145048500Y-94423000D01*
X143876500Y-94423000D01*
X143876500Y-94276609D01*
X143874098Y-94252223D01*
X143866985Y-94228774D01*
X143855434Y-94207163D01*
X143839889Y-94188221D01*
X143820947Y-94172676D01*
X143799336Y-94161125D01*
X143775887Y-94154012D01*
X143751501Y-94151610D01*
X143727115Y-94154012D01*
X143703666Y-94161125D01*
X143682055Y-94172676D01*
X143654876Y-94197310D01*
X143608870Y-94253369D01*
X143519639Y-94326598D01*
X143417837Y-94381013D01*
X143381016Y-94392182D01*
X143307375Y-94414521D01*
X143192500Y-94425835D01*
X143077624Y-94414521D01*
X143003983Y-94392182D01*
X142967162Y-94381013D01*
X142865363Y-94326599D01*
X142865361Y-94326598D01*
X142776131Y-94253369D01*
X142722666Y-94188221D01*
X142702902Y-94164139D01*
X142667739Y-94098354D01*
X142654125Y-94077980D01*
X142636798Y-94060653D01*
X142616424Y-94047039D01*
X142593785Y-94037662D01*
X142569751Y-94032882D01*
X142545247Y-94032882D01*
X142521214Y-94037663D01*
X142498575Y-94047040D01*
X142478201Y-94060654D01*
X142460874Y-94077981D01*
X142447261Y-94098355D01*
X142412101Y-94164135D01*
X142412099Y-94164138D01*
X142412098Y-94164139D01*
X142338869Y-94253369D01*
X142310551Y-94276609D01*
X142249639Y-94326598D01*
X142147837Y-94381013D01*
X142111016Y-94392182D01*
X142037375Y-94414521D01*
X141922500Y-94425835D01*
X141807624Y-94414521D01*
X141733983Y-94392182D01*
X141697162Y-94381013D01*
X141595363Y-94326599D01*
X141595361Y-94326598D01*
X141506131Y-94253369D01*
X141452666Y-94188221D01*
X141432902Y-94164139D01*
X141397739Y-94098354D01*
X141384125Y-94077980D01*
X141366798Y-94060653D01*
X141346424Y-94047039D01*
X141323785Y-94037662D01*
X141299751Y-94032882D01*
X141275247Y-94032882D01*
X141251214Y-94037663D01*
X141228575Y-94047040D01*
X141208201Y-94060654D01*
X141190874Y-94077981D01*
X141177261Y-94098355D01*
X141142101Y-94164135D01*
X141142099Y-94164138D01*
X141142098Y-94164139D01*
X141068869Y-94253369D01*
X141040551Y-94276609D01*
X140979639Y-94326598D01*
X140877837Y-94381013D01*
X140841016Y-94392182D01*
X140767375Y-94414521D01*
X140652500Y-94425835D01*
X140537624Y-94414521D01*
X140463983Y-94392182D01*
X140427162Y-94381013D01*
X140325363Y-94326599D01*
X140325361Y-94326598D01*
X140236131Y-94253369D01*
X140182666Y-94188221D01*
X140162902Y-94164139D01*
X140108487Y-94062337D01*
X140097318Y-94025516D01*
X140074979Y-93951875D01*
X140066500Y-93865784D01*
X140066500Y-93078215D01*
X140074979Y-92992124D01*
X140108488Y-92881663D01*
X140134691Y-92832641D01*
X140162903Y-92779860D01*
X140236131Y-92690630D01*
X140325361Y-92617402D01*
X140427163Y-92562987D01*
X140463984Y-92551818D01*
X140537625Y-92529479D01*
X140652500Y-92518165D01*
X140767376Y-92529479D01*
X140841017Y-92551818D01*
X140877838Y-92562987D01*
X140979640Y-92617402D01*
X141068870Y-92690630D01*
X141142098Y-92779860D01*
X141177262Y-92845646D01*
X141190876Y-92866021D01*
X141208203Y-92883347D01*
X141228578Y-92896961D01*
X141251217Y-92906338D01*
X141275250Y-92911118D01*
X141299754Y-92911118D01*
X141323788Y-92906337D01*
X141346426Y-92896960D01*
X141366801Y-92883346D01*
X141384127Y-92866019D01*
X141397740Y-92845645D01*
X141432902Y-92779862D01*
X141506131Y-92690630D01*
X141595361Y-92617402D01*
X141697163Y-92562987D01*
X141733984Y-92551818D01*
X141807625Y-92529479D01*
X141922500Y-92518165D01*
X142037376Y-92529479D01*
X142111017Y-92551818D01*
X142147838Y-92562987D01*
X142249640Y-92617402D01*
X142338870Y-92690630D01*
X142412098Y-92779860D01*
X142447262Y-92845646D01*
X142460876Y-92866021D01*
X142478203Y-92883347D01*
X142498578Y-92896961D01*
X142521217Y-92906338D01*
X142545250Y-92911118D01*
X142569754Y-92911118D01*
X142593788Y-92906337D01*
X142616426Y-92896960D01*
X142636801Y-92883346D01*
X142654127Y-92866019D01*
X142667740Y-92845645D01*
X142702902Y-92779862D01*
X142776131Y-92690630D01*
X142865361Y-92617402D01*
X142967163Y-92562987D01*
X143003984Y-92551818D01*
X143077625Y-92529479D01*
X143192500Y-92518165D01*
X143307376Y-92529479D01*
G37*
G36*
X170216823Y-92598613D02*
G01*
X170377242Y-92647276D01*
X170458353Y-92690631D01*
X170525078Y-92726296D01*
X170654659Y-92832641D01*
X170761004Y-92962222D01*
X170761005Y-92962224D01*
X170840024Y-93110058D01*
X170888687Y-93270477D01*
X170905117Y-93437300D01*
X170888687Y-93604123D01*
X170840024Y-93764542D01*
X170785909Y-93865784D01*
X170761004Y-93912378D01*
X170654659Y-94041959D01*
X170525078Y-94148304D01*
X170525076Y-94148305D01*
X170377242Y-94227324D01*
X170216823Y-94275987D01*
X170091804Y-94288300D01*
X169608196Y-94288300D01*
X169483177Y-94275987D01*
X169322758Y-94227324D01*
X169174924Y-94148305D01*
X169174922Y-94148304D01*
X169045341Y-94041959D01*
X168938996Y-93912378D01*
X168914091Y-93865784D01*
X168859976Y-93764542D01*
X168811313Y-93604123D01*
X168794883Y-93437300D01*
X168811313Y-93270477D01*
X168859976Y-93110058D01*
X168938995Y-92962224D01*
X168938996Y-92962222D01*
X169045341Y-92832641D01*
X169174922Y-92726296D01*
X169241647Y-92690631D01*
X169322758Y-92647276D01*
X169483177Y-92598613D01*
X169608196Y-92586300D01*
X170091804Y-92586300D01*
X170216823Y-92598613D01*
G37*
G36*
X131624564Y-88501389D02*
G01*
X131815833Y-88580615D01*
X131815835Y-88580616D01*
X131883507Y-88625833D01*
X131987973Y-88695635D01*
X132134365Y-88842027D01*
X132249385Y-89014167D01*
X132328611Y-89205436D01*
X132369000Y-89408484D01*
X132369000Y-89615516D01*
X132328611Y-89818564D01*
X132249385Y-90009833D01*
X132249384Y-90009835D01*
X132134365Y-90181973D01*
X131987973Y-90328365D01*
X131815835Y-90443384D01*
X131815834Y-90443385D01*
X131815833Y-90443385D01*
X131624564Y-90522611D01*
X131421516Y-90563000D01*
X131214484Y-90563000D01*
X131011436Y-90522611D01*
X130820167Y-90443385D01*
X130820166Y-90443385D01*
X130820165Y-90443384D01*
X130648027Y-90328365D01*
X130501635Y-90181973D01*
X130386616Y-90009835D01*
X130386615Y-90009833D01*
X130307389Y-89818564D01*
X130267000Y-89615516D01*
X130267000Y-89408484D01*
X130307389Y-89205436D01*
X130386615Y-89014167D01*
X130501635Y-88842027D01*
X130648027Y-88695635D01*
X130752493Y-88625833D01*
X130820165Y-88580616D01*
X130820167Y-88580615D01*
X131011436Y-88501389D01*
X131214484Y-88461000D01*
X131421516Y-88461000D01*
X131624564Y-88501389D01*
G37*
G36*
X136124564Y-88501389D02*
G01*
X136315833Y-88580615D01*
X136315835Y-88580616D01*
X136383507Y-88625833D01*
X136487973Y-88695635D01*
X136634365Y-88842027D01*
X136749385Y-89014167D01*
X136828611Y-89205436D01*
X136869000Y-89408484D01*
X136869000Y-89615516D01*
X136828611Y-89818564D01*
X136749385Y-90009833D01*
X136749384Y-90009835D01*
X136634365Y-90181973D01*
X136487973Y-90328365D01*
X136315835Y-90443384D01*
X136315834Y-90443385D01*
X136315833Y-90443385D01*
X136124564Y-90522611D01*
X135921516Y-90563000D01*
X135714484Y-90563000D01*
X135511436Y-90522611D01*
X135320167Y-90443385D01*
X135320166Y-90443385D01*
X135320165Y-90443384D01*
X135148027Y-90328365D01*
X135001635Y-90181973D01*
X134886616Y-90009835D01*
X134886615Y-90009833D01*
X134807389Y-89818564D01*
X134767000Y-89615516D01*
X134767000Y-89408484D01*
X134807389Y-89205436D01*
X134886615Y-89014167D01*
X135001635Y-88842027D01*
X135148027Y-88695635D01*
X135252493Y-88625833D01*
X135320165Y-88580616D01*
X135320167Y-88580615D01*
X135511436Y-88501389D01*
X135714484Y-88461000D01*
X135921516Y-88461000D01*
X136124564Y-88501389D01*
G37*
G36*
X150453800Y-89189000D02*
G01*
X148351800Y-89189000D01*
X148351800Y-87087000D01*
X150453800Y-87087000D01*
X150453800Y-89189000D01*
G37*
G36*
X156009364Y-87117389D02*
G01*
X156200633Y-87196615D01*
X156200635Y-87196616D01*
X156235639Y-87220005D01*
X156372773Y-87311635D01*
X156519165Y-87458027D01*
X156634185Y-87630167D01*
X156713411Y-87821436D01*
X156753800Y-88024484D01*
X156753800Y-88231516D01*
X156713411Y-88434564D01*
X156652915Y-88580615D01*
X156634184Y-88625835D01*
X156519165Y-88797973D01*
X156372773Y-88944365D01*
X156200635Y-89059384D01*
X156200634Y-89059385D01*
X156200633Y-89059385D01*
X156009364Y-89138611D01*
X155806316Y-89179000D01*
X155599284Y-89179000D01*
X155396236Y-89138611D01*
X155204967Y-89059385D01*
X155204966Y-89059385D01*
X155204965Y-89059384D01*
X155032827Y-88944365D01*
X154886435Y-88797973D01*
X154771416Y-88625835D01*
X154752685Y-88580615D01*
X154692189Y-88434564D01*
X154651800Y-88231516D01*
X154651800Y-88024484D01*
X154692189Y-87821436D01*
X154771415Y-87630167D01*
X154886435Y-87458027D01*
X155032827Y-87311635D01*
X155169961Y-87220005D01*
X155204965Y-87196616D01*
X155204967Y-87196615D01*
X155396236Y-87117389D01*
X155599284Y-87077000D01*
X155806316Y-87077000D01*
X156009364Y-87117389D01*
G37*
G36*
X171316823Y-85794013D02*
G01*
X171477242Y-85842676D01*
X171592609Y-85904341D01*
X171625078Y-85921696D01*
X171754659Y-86028041D01*
X171861004Y-86157622D01*
X171861005Y-86157624D01*
X171940024Y-86305458D01*
X171988687Y-86465877D01*
X172005117Y-86632700D01*
X171988687Y-86799523D01*
X171940024Y-86959942D01*
X171927124Y-86984076D01*
X171861004Y-87107778D01*
X171754659Y-87237359D01*
X171625078Y-87343704D01*
X171625076Y-87343705D01*
X171477242Y-87422724D01*
X171316823Y-87471387D01*
X171191804Y-87483700D01*
X170708196Y-87483700D01*
X170583177Y-87471387D01*
X170422758Y-87422724D01*
X170274924Y-87343705D01*
X170274922Y-87343704D01*
X170145341Y-87237359D01*
X170038996Y-87107778D01*
X169972876Y-86984076D01*
X169959976Y-86959942D01*
X169911313Y-86799523D01*
X169894883Y-86632700D01*
X169911313Y-86465877D01*
X169959976Y-86305458D01*
X170038995Y-86157624D01*
X170038996Y-86157622D01*
X170145341Y-86028041D01*
X170274922Y-85921696D01*
X170307391Y-85904341D01*
X170422758Y-85842676D01*
X170583177Y-85794013D01*
X170708196Y-85781700D01*
X171191804Y-85781700D01*
X171316823Y-85794013D01*
G37*
G36*
X178316823Y-85794013D02*
G01*
X178477242Y-85842676D01*
X178592609Y-85904341D01*
X178625078Y-85921696D01*
X178754659Y-86028041D01*
X178861004Y-86157622D01*
X178861005Y-86157624D01*
X178940024Y-86305458D01*
X178988687Y-86465877D01*
X179005117Y-86632700D01*
X178988687Y-86799523D01*
X178940024Y-86959942D01*
X178927124Y-86984076D01*
X178861004Y-87107778D01*
X178754659Y-87237359D01*
X178625078Y-87343704D01*
X178625076Y-87343705D01*
X178477242Y-87422724D01*
X178316823Y-87471387D01*
X178191804Y-87483700D01*
X177708196Y-87483700D01*
X177583177Y-87471387D01*
X177422758Y-87422724D01*
X177274924Y-87343705D01*
X177274922Y-87343704D01*
X177145341Y-87237359D01*
X177038996Y-87107778D01*
X176972876Y-86984076D01*
X176959976Y-86959942D01*
X176911313Y-86799523D01*
X176894883Y-86632700D01*
X176911313Y-86465877D01*
X176959976Y-86305458D01*
X177038995Y-86157624D01*
X177038996Y-86157622D01*
X177145341Y-86028041D01*
X177274922Y-85921696D01*
X177307391Y-85904341D01*
X177422758Y-85842676D01*
X177583177Y-85794013D01*
X177708196Y-85781700D01*
X178191804Y-85781700D01*
X178316823Y-85794013D01*
G37*
G36*
X175316823Y-85794013D02*
G01*
X175477242Y-85842676D01*
X175592609Y-85904341D01*
X175625078Y-85921696D01*
X175754659Y-86028041D01*
X175861004Y-86157622D01*
X175861005Y-86157624D01*
X175940024Y-86305458D01*
X175988687Y-86465877D01*
X176005117Y-86632700D01*
X175988687Y-86799523D01*
X175940024Y-86959942D01*
X175927124Y-86984076D01*
X175861004Y-87107778D01*
X175754659Y-87237359D01*
X175625078Y-87343704D01*
X175625076Y-87343705D01*
X175477242Y-87422724D01*
X175316823Y-87471387D01*
X175191804Y-87483700D01*
X174708196Y-87483700D01*
X174583177Y-87471387D01*
X174422758Y-87422724D01*
X174274924Y-87343705D01*
X174274922Y-87343704D01*
X174145341Y-87237359D01*
X174038996Y-87107778D01*
X173972876Y-86984076D01*
X173959976Y-86959942D01*
X173911313Y-86799523D01*
X173894883Y-86632700D01*
X173911313Y-86465877D01*
X173959976Y-86305458D01*
X174038995Y-86157624D01*
X174038996Y-86157622D01*
X174145341Y-86028041D01*
X174274922Y-85921696D01*
X174307391Y-85904341D01*
X174422758Y-85842676D01*
X174583177Y-85794013D01*
X174708196Y-85781700D01*
X175191804Y-85781700D01*
X175316823Y-85794013D01*
G37*
G36*
X119516823Y-85670313D02*
G01*
X119677242Y-85718976D01*
X119794590Y-85781700D01*
X119825078Y-85797996D01*
X119954659Y-85904341D01*
X120061004Y-86033922D01*
X120061005Y-86033924D01*
X120140024Y-86181758D01*
X120188687Y-86342177D01*
X120205117Y-86509000D01*
X120188687Y-86675823D01*
X120140024Y-86836242D01*
X120073905Y-86959942D01*
X120061004Y-86984078D01*
X119954659Y-87113659D01*
X119825078Y-87220004D01*
X119825076Y-87220005D01*
X119677242Y-87299024D01*
X119516823Y-87347687D01*
X119391804Y-87360000D01*
X118908196Y-87360000D01*
X118783177Y-87347687D01*
X118622758Y-87299024D01*
X118474924Y-87220005D01*
X118474922Y-87220004D01*
X118345341Y-87113659D01*
X118238996Y-86984078D01*
X118226095Y-86959942D01*
X118159976Y-86836242D01*
X118111313Y-86675823D01*
X118094883Y-86509000D01*
X118111313Y-86342177D01*
X118159976Y-86181758D01*
X118238995Y-86033924D01*
X118238996Y-86033922D01*
X118345341Y-85904341D01*
X118474922Y-85797996D01*
X118505410Y-85781700D01*
X118622758Y-85718976D01*
X118783177Y-85670313D01*
X118908196Y-85658000D01*
X119391804Y-85658000D01*
X119516823Y-85670313D01*
G37*
G36*
X179681552Y-83899031D02*
G01*
X179763627Y-83933028D01*
X179763629Y-83933029D01*
X179800813Y-83957875D01*
X179837495Y-83982385D01*
X179900315Y-84045205D01*
X179949672Y-84119073D01*
X179983669Y-84201148D01*
X180001000Y-84288279D01*
X180001000Y-84377121D01*
X179983669Y-84464252D01*
X179949672Y-84546327D01*
X179949671Y-84546329D01*
X179900314Y-84620196D01*
X179837496Y-84683014D01*
X179763629Y-84732371D01*
X179763628Y-84732372D01*
X179763627Y-84732372D01*
X179681552Y-84766369D01*
X179594421Y-84783700D01*
X179505579Y-84783700D01*
X179418448Y-84766369D01*
X179336373Y-84732372D01*
X179336372Y-84732372D01*
X179336371Y-84732371D01*
X179262504Y-84683014D01*
X179199686Y-84620196D01*
X179150329Y-84546329D01*
X179150328Y-84546327D01*
X179116331Y-84464252D01*
X179099000Y-84377121D01*
X179099000Y-84288279D01*
X179116331Y-84201148D01*
X179150328Y-84119073D01*
X179199685Y-84045205D01*
X179262505Y-83982385D01*
X179299187Y-83957875D01*
X179336371Y-83933029D01*
X179336373Y-83933028D01*
X179418448Y-83899031D01*
X179505579Y-83881700D01*
X179594421Y-83881700D01*
X179681552Y-83899031D01*
G37*
G36*
X172681552Y-83899031D02*
G01*
X172763627Y-83933028D01*
X172763629Y-83933029D01*
X172800813Y-83957875D01*
X172837495Y-83982385D01*
X172900315Y-84045205D01*
X172949672Y-84119073D01*
X172983669Y-84201148D01*
X173001000Y-84288279D01*
X173001000Y-84377121D01*
X172983669Y-84464252D01*
X172949672Y-84546327D01*
X172949671Y-84546329D01*
X172900314Y-84620196D01*
X172837496Y-84683014D01*
X172763629Y-84732371D01*
X172763628Y-84732372D01*
X172763627Y-84732372D01*
X172681552Y-84766369D01*
X172594421Y-84783700D01*
X172505579Y-84783700D01*
X172418448Y-84766369D01*
X172336373Y-84732372D01*
X172336372Y-84732372D01*
X172336371Y-84732371D01*
X172262504Y-84683014D01*
X172199686Y-84620196D01*
X172150329Y-84546329D01*
X172150328Y-84546327D01*
X172116331Y-84464252D01*
X172099000Y-84377121D01*
X172099000Y-84288279D01*
X172116331Y-84201148D01*
X172150328Y-84119073D01*
X172199685Y-84045205D01*
X172262505Y-83982385D01*
X172299187Y-83957875D01*
X172336371Y-83933029D01*
X172336373Y-83933028D01*
X172418448Y-83899031D01*
X172505579Y-83881700D01*
X172594421Y-83881700D01*
X172681552Y-83899031D01*
G37*
G36*
X109581552Y-83775331D02*
G01*
X109663627Y-83809328D01*
X109663629Y-83809329D01*
X109737496Y-83858686D01*
X109800314Y-83921504D01*
X109840995Y-83982386D01*
X109849672Y-83995373D01*
X109883669Y-84077448D01*
X109901000Y-84164579D01*
X109901000Y-84253421D01*
X109883669Y-84340552D01*
X109868521Y-84377121D01*
X109849671Y-84422629D01*
X109800314Y-84496496D01*
X109737496Y-84559314D01*
X109663629Y-84608671D01*
X109663628Y-84608672D01*
X109663627Y-84608672D01*
X109581552Y-84642669D01*
X109494421Y-84660000D01*
X109405579Y-84660000D01*
X109318448Y-84642669D01*
X109236373Y-84608672D01*
X109236372Y-84608672D01*
X109236371Y-84608671D01*
X109162504Y-84559314D01*
X109099686Y-84496496D01*
X109050329Y-84422629D01*
X109031479Y-84377121D01*
X109016331Y-84340552D01*
X108999000Y-84253421D01*
X108999000Y-84164579D01*
X109016331Y-84077448D01*
X109050328Y-83995373D01*
X109059006Y-83982386D01*
X109099686Y-83921504D01*
X109162504Y-83858686D01*
X109236371Y-83809329D01*
X109236373Y-83809328D01*
X109318448Y-83775331D01*
X109405579Y-83758000D01*
X109494421Y-83758000D01*
X109581552Y-83775331D01*
G37*
G36*
X116581552Y-83775331D02*
G01*
X116663627Y-83809328D01*
X116663629Y-83809329D01*
X116737496Y-83858686D01*
X116800314Y-83921504D01*
X116840995Y-83982386D01*
X116849672Y-83995373D01*
X116883669Y-84077448D01*
X116901000Y-84164579D01*
X116901000Y-84253421D01*
X116883669Y-84340552D01*
X116868521Y-84377121D01*
X116849671Y-84422629D01*
X116800314Y-84496496D01*
X116737496Y-84559314D01*
X116663629Y-84608671D01*
X116663628Y-84608672D01*
X116663627Y-84608672D01*
X116581552Y-84642669D01*
X116494421Y-84660000D01*
X116405579Y-84660000D01*
X116318448Y-84642669D01*
X116236373Y-84608672D01*
X116236372Y-84608672D01*
X116236371Y-84608671D01*
X116162504Y-84559314D01*
X116099686Y-84496496D01*
X116050329Y-84422629D01*
X116031479Y-84377121D01*
X116016331Y-84340552D01*
X115999000Y-84253421D01*
X115999000Y-84164579D01*
X116016331Y-84077448D01*
X116050328Y-83995373D01*
X116059006Y-83982386D01*
X116099686Y-83921504D01*
X116162504Y-83858686D01*
X116236371Y-83809329D01*
X116236373Y-83809328D01*
X116318448Y-83775331D01*
X116405579Y-83758000D01*
X116494421Y-83758000D01*
X116581552Y-83775331D01*
G37*
G36*
X170216823Y-81194013D02*
G01*
X170377242Y-81242676D01*
X170492609Y-81304341D01*
X170525078Y-81321696D01*
X170654659Y-81428041D01*
X170761004Y-81557622D01*
X170761005Y-81557624D01*
X170840024Y-81705458D01*
X170888687Y-81865877D01*
X170905117Y-82032700D01*
X170888687Y-82199523D01*
X170840024Y-82359942D01*
X170827124Y-82384076D01*
X170761004Y-82507778D01*
X170654659Y-82637359D01*
X170525078Y-82743704D01*
X170525076Y-82743705D01*
X170377242Y-82822724D01*
X170216823Y-82871387D01*
X170091804Y-82883700D01*
X169608196Y-82883700D01*
X169483177Y-82871387D01*
X169322758Y-82822724D01*
X169174924Y-82743705D01*
X169174922Y-82743704D01*
X169045341Y-82637359D01*
X168938996Y-82507778D01*
X168872876Y-82384076D01*
X168859976Y-82359942D01*
X168811313Y-82199523D01*
X168794883Y-82032700D01*
X168811313Y-81865877D01*
X168859976Y-81705458D01*
X168938995Y-81557624D01*
X168938996Y-81557622D01*
X169045341Y-81428041D01*
X169174922Y-81321696D01*
X169207391Y-81304341D01*
X169322758Y-81242676D01*
X169483177Y-81194013D01*
X169608196Y-81181700D01*
X170091804Y-81181700D01*
X170216823Y-81194013D01*
G37*
G36*
X118416823Y-81070313D02*
G01*
X118577242Y-81118976D01*
X118694590Y-81181700D01*
X118725078Y-81197996D01*
X118854659Y-81304341D01*
X118961004Y-81433922D01*
X118961005Y-81433924D01*
X119040024Y-81581758D01*
X119088687Y-81742177D01*
X119105117Y-81909000D01*
X119088687Y-82075823D01*
X119040024Y-82236242D01*
X118973905Y-82359942D01*
X118961004Y-82384078D01*
X118854659Y-82513659D01*
X118725078Y-82620004D01*
X118725076Y-82620005D01*
X118577242Y-82699024D01*
X118416823Y-82747687D01*
X118291804Y-82760000D01*
X117808196Y-82760000D01*
X117683177Y-82747687D01*
X117522758Y-82699024D01*
X117374924Y-82620005D01*
X117374922Y-82620004D01*
X117245341Y-82513659D01*
X117138996Y-82384078D01*
X117126095Y-82359942D01*
X117059976Y-82236242D01*
X117011313Y-82075823D01*
X116994883Y-81909000D01*
X117011313Y-81742177D01*
X117059976Y-81581758D01*
X117138995Y-81433924D01*
X117138996Y-81433922D01*
X117245341Y-81304341D01*
X117374922Y-81197996D01*
X117405410Y-81181700D01*
X117522758Y-81118976D01*
X117683177Y-81070313D01*
X117808196Y-81058000D01*
X118291804Y-81058000D01*
X118416823Y-81070313D01*
G37*
G36*
X111416823Y-81070313D02*
G01*
X111577242Y-81118976D01*
X111694590Y-81181700D01*
X111725078Y-81197996D01*
X111854659Y-81304341D01*
X111961004Y-81433922D01*
X111961005Y-81433924D01*
X112040024Y-81581758D01*
X112088687Y-81742177D01*
X112105117Y-81909000D01*
X112088687Y-82075823D01*
X112040024Y-82236242D01*
X111973905Y-82359942D01*
X111961004Y-82384078D01*
X111854659Y-82513659D01*
X111725078Y-82620004D01*
X111725076Y-82620005D01*
X111577242Y-82699024D01*
X111416823Y-82747687D01*
X111291804Y-82760000D01*
X110808196Y-82760000D01*
X110683177Y-82747687D01*
X110522758Y-82699024D01*
X110374924Y-82620005D01*
X110374922Y-82620004D01*
X110245341Y-82513659D01*
X110138996Y-82384078D01*
X110126095Y-82359942D01*
X110059976Y-82236242D01*
X110011313Y-82075823D01*
X109994883Y-81909000D01*
X110011313Y-81742177D01*
X110059976Y-81581758D01*
X110138995Y-81433924D01*
X110138996Y-81433922D01*
X110245341Y-81304341D01*
X110374922Y-81197996D01*
X110405410Y-81181700D01*
X110522758Y-81118976D01*
X110683177Y-81070313D01*
X110808196Y-81058000D01*
X111291804Y-81058000D01*
X111416823Y-81070313D01*
G37*
G36*
X114416823Y-81070313D02*
G01*
X114577242Y-81118976D01*
X114694590Y-81181700D01*
X114725078Y-81197996D01*
X114854659Y-81304341D01*
X114961004Y-81433922D01*
X114961005Y-81433924D01*
X115040024Y-81581758D01*
X115088687Y-81742177D01*
X115105117Y-81909000D01*
X115088687Y-82075823D01*
X115040024Y-82236242D01*
X114973905Y-82359942D01*
X114961004Y-82384078D01*
X114854659Y-82513659D01*
X114725078Y-82620004D01*
X114725076Y-82620005D01*
X114577242Y-82699024D01*
X114416823Y-82747687D01*
X114291804Y-82760000D01*
X113808196Y-82760000D01*
X113683177Y-82747687D01*
X113522758Y-82699024D01*
X113374924Y-82620005D01*
X113374922Y-82620004D01*
X113245341Y-82513659D01*
X113138996Y-82384078D01*
X113126095Y-82359942D01*
X113059976Y-82236242D01*
X113011313Y-82075823D01*
X112994883Y-81909000D01*
X113011313Y-81742177D01*
X113059976Y-81581758D01*
X113138995Y-81433924D01*
X113138996Y-81433922D01*
X113245341Y-81304341D01*
X113374922Y-81197996D01*
X113405410Y-81181700D01*
X113522758Y-81118976D01*
X113683177Y-81070313D01*
X113808196Y-81058000D01*
X114291804Y-81058000D01*
X114416823Y-81070313D01*
G37*
G36*
X135686012Y-76510427D02*
G01*
X135835312Y-76540124D01*
X135999284Y-76608044D01*
X136146854Y-76706647D01*
X136272353Y-76832146D01*
X136370956Y-76979716D01*
X136438876Y-77143688D01*
X136473500Y-77317759D01*
X136473500Y-77495241D01*
X136438876Y-77669312D01*
X136370956Y-77833284D01*
X136272353Y-77980854D01*
X136146854Y-78106353D01*
X135999284Y-78204956D01*
X135835312Y-78272876D01*
X135686012Y-78302573D01*
X135661242Y-78307500D01*
X135483758Y-78307500D01*
X135458988Y-78302573D01*
X135309688Y-78272876D01*
X135145716Y-78204956D01*
X134998146Y-78106353D01*
X134872647Y-77980854D01*
X134774044Y-77833284D01*
X134706124Y-77669312D01*
X134671500Y-77495241D01*
X134671500Y-77317759D01*
X134706124Y-77143688D01*
X134774044Y-76979716D01*
X134872647Y-76832146D01*
X134998146Y-76706647D01*
X135145716Y-76608044D01*
X135309688Y-76540124D01*
X135458988Y-76510427D01*
X135483758Y-76505500D01*
X135661242Y-76505500D01*
X135686012Y-76510427D01*
G37*
G36*
X121223500Y-78307500D02*
G01*
X119421500Y-78307500D01*
X119421500Y-76505500D01*
X121223500Y-76505500D01*
X121223500Y-78307500D01*
G37*
G36*
X125526012Y-76510427D02*
G01*
X125675312Y-76540124D01*
X125839284Y-76608044D01*
X125986854Y-76706647D01*
X126112353Y-76832146D01*
X126210956Y-76979716D01*
X126278876Y-77143688D01*
X126313500Y-77317759D01*
X126313500Y-77495241D01*
X126278876Y-77669312D01*
X126210956Y-77833284D01*
X126112353Y-77980854D01*
X125986854Y-78106353D01*
X125839284Y-78204956D01*
X125675312Y-78272876D01*
X125526012Y-78302573D01*
X125501242Y-78307500D01*
X125323758Y-78307500D01*
X125298988Y-78302573D01*
X125149688Y-78272876D01*
X124985716Y-78204956D01*
X124838146Y-78106353D01*
X124712647Y-77980854D01*
X124614044Y-77833284D01*
X124546124Y-77669312D01*
X124511500Y-77495241D01*
X124511500Y-77317759D01*
X124546124Y-77143688D01*
X124614044Y-76979716D01*
X124712647Y-76832146D01*
X124838146Y-76706647D01*
X124985716Y-76608044D01*
X125149688Y-76540124D01*
X125298988Y-76510427D01*
X125323758Y-76505500D01*
X125501242Y-76505500D01*
X125526012Y-76510427D01*
G37*
G36*
X130606012Y-76510427D02*
G01*
X130755312Y-76540124D01*
X130919284Y-76608044D01*
X131066854Y-76706647D01*
X131192353Y-76832146D01*
X131290956Y-76979716D01*
X131358876Y-77143688D01*
X131393500Y-77317759D01*
X131393500Y-77495241D01*
X131358876Y-77669312D01*
X131290956Y-77833284D01*
X131192353Y-77980854D01*
X131066854Y-78106353D01*
X130919284Y-78204956D01*
X130755312Y-78272876D01*
X130606012Y-78302573D01*
X130581242Y-78307500D01*
X130403758Y-78307500D01*
X130378988Y-78302573D01*
X130229688Y-78272876D01*
X130065716Y-78204956D01*
X129918146Y-78106353D01*
X129792647Y-77980854D01*
X129694044Y-77833284D01*
X129626124Y-77669312D01*
X129591500Y-77495241D01*
X129591500Y-77317759D01*
X129626124Y-77143688D01*
X129694044Y-76979716D01*
X129792647Y-76832146D01*
X129918146Y-76706647D01*
X130065716Y-76608044D01*
X130229688Y-76540124D01*
X130378988Y-76510427D01*
X130403758Y-76505500D01*
X130581242Y-76505500D01*
X130606012Y-76510427D01*
G37*
G36*
X144270500Y-76897000D02*
G01*
X142368500Y-76897000D01*
X142368500Y-74995000D01*
X144270500Y-74995000D01*
X144270500Y-76897000D01*
G37*
G36*
X146136895Y-75031546D02*
G01*
X146309966Y-75103234D01*
X146309967Y-75103235D01*
X146465727Y-75207310D01*
X146598190Y-75339773D01*
X146598191Y-75339775D01*
X146702266Y-75495534D01*
X146773954Y-75668605D01*
X146810500Y-75852333D01*
X146810500Y-76039667D01*
X146773954Y-76223395D01*
X146702266Y-76396466D01*
X146702265Y-76396467D01*
X146598190Y-76552227D01*
X146465727Y-76684690D01*
X146432866Y-76706647D01*
X146309966Y-76788766D01*
X146136895Y-76860454D01*
X145953167Y-76897000D01*
X145765833Y-76897000D01*
X145582105Y-76860454D01*
X145409034Y-76788766D01*
X145286134Y-76706647D01*
X145253273Y-76684690D01*
X145120810Y-76552227D01*
X145016735Y-76396467D01*
X145016734Y-76396466D01*
X144945046Y-76223395D01*
X144908500Y-76039667D01*
X144908500Y-75852333D01*
X144945046Y-75668605D01*
X145016734Y-75495534D01*
X145120809Y-75339775D01*
X145120810Y-75339773D01*
X145253273Y-75207310D01*
X145409033Y-75103235D01*
X145409034Y-75103234D01*
X145582105Y-75031546D01*
X145765833Y-74995000D01*
X145953167Y-74995000D01*
X146136895Y-75031546D01*
G37*
G36*
X159128995Y-72682046D02*
G01*
X159302066Y-72753734D01*
X159379418Y-72805419D01*
X159457827Y-72857810D01*
X159590290Y-72990273D01*
X159590291Y-72990275D01*
X159694366Y-73146034D01*
X159766054Y-73319105D01*
X159802600Y-73502833D01*
X159802600Y-73690167D01*
X159766054Y-73873895D01*
X159694366Y-74046966D01*
X159694365Y-74046967D01*
X159590290Y-74202727D01*
X159457827Y-74335190D01*
X159456269Y-74336231D01*
X159302066Y-74439266D01*
X159128995Y-74510954D01*
X158945267Y-74547500D01*
X158757933Y-74547500D01*
X158574205Y-74510954D01*
X158401134Y-74439266D01*
X158246931Y-74336231D01*
X158245373Y-74335190D01*
X158112910Y-74202727D01*
X158008835Y-74046967D01*
X158008834Y-74046966D01*
X157937146Y-73873895D01*
X157900600Y-73690167D01*
X157900600Y-73502833D01*
X157937146Y-73319105D01*
X158008834Y-73146034D01*
X158112909Y-72990275D01*
X158112910Y-72990273D01*
X158245373Y-72857810D01*
X158323782Y-72805419D01*
X158401134Y-72753734D01*
X158574205Y-72682046D01*
X158757933Y-72645500D01*
X158945267Y-72645500D01*
X159128995Y-72682046D01*
G37*
G36*
X156588995Y-72682046D02*
G01*
X156762066Y-72753734D01*
X156839418Y-72805419D01*
X156917827Y-72857810D01*
X157050290Y-72990273D01*
X157050291Y-72990275D01*
X157154366Y-73146034D01*
X157226054Y-73319105D01*
X157262600Y-73502833D01*
X157262600Y-73690167D01*
X157226054Y-73873895D01*
X157154366Y-74046966D01*
X157154365Y-74046967D01*
X157050290Y-74202727D01*
X156917827Y-74335190D01*
X156916269Y-74336231D01*
X156762066Y-74439266D01*
X156588995Y-74510954D01*
X156405267Y-74547500D01*
X156217933Y-74547500D01*
X156034205Y-74510954D01*
X155861134Y-74439266D01*
X155706931Y-74336231D01*
X155705373Y-74335190D01*
X155572910Y-74202727D01*
X155468835Y-74046967D01*
X155468834Y-74046966D01*
X155397146Y-73873895D01*
X155360600Y-73690167D01*
X155360600Y-73502833D01*
X155397146Y-73319105D01*
X155468834Y-73146034D01*
X155572909Y-72990275D01*
X155572910Y-72990273D01*
X155705373Y-72857810D01*
X155783782Y-72805419D01*
X155861134Y-72753734D01*
X156034205Y-72682046D01*
X156217933Y-72645500D01*
X156405267Y-72645500D01*
X156588995Y-72682046D01*
G37*
G36*
X162204057Y-72649397D02*
G01*
X162236202Y-72659149D01*
X162265830Y-72674985D01*
X162291801Y-72696299D01*
X162313115Y-72722270D01*
X162328951Y-72751898D01*
X162338703Y-72784043D01*
X162342600Y-72823614D01*
X162342600Y-74369386D01*
X162338703Y-74408957D01*
X162328951Y-74441102D01*
X162313115Y-74470730D01*
X162291801Y-74496701D01*
X162265830Y-74518015D01*
X162236202Y-74533851D01*
X162204057Y-74543603D01*
X162164486Y-74547500D01*
X160618714Y-74547500D01*
X160579143Y-74543603D01*
X160546998Y-74533851D01*
X160517370Y-74518015D01*
X160491399Y-74496701D01*
X160470085Y-74470730D01*
X160454249Y-74441102D01*
X160444497Y-74408957D01*
X160440600Y-74369386D01*
X160440600Y-72823614D01*
X160444497Y-72784043D01*
X160454249Y-72751898D01*
X160470085Y-72722270D01*
X160491399Y-72696299D01*
X160517370Y-72674985D01*
X160546998Y-72659149D01*
X160579143Y-72649397D01*
X160618714Y-72645500D01*
X162164486Y-72645500D01*
X162204057Y-72649397D01*
G37*
M02*
