G04 #@! TF.GenerationSoftware,KiCad,Pcbnew,5.1.5-52549c5~86~ubuntu16.04.1*
G04 #@! TF.CreationDate,2020-04-28T17:17:38-04:00*
G04 #@! TF.ProjectId,atmega32u4_hub_pcb_2,61746d65-6761-4333-9275-345f6875625f,1.2*
G04 #@! TF.SameCoordinates,Original*
G04 #@! TF.FileFunction,Soldermask,Bot*
G04 #@! TF.FilePolarity,Negative*
%FSLAX46Y46*%
G04 Gerber Fmt 4.6, Leading zero omitted, Abs format (unit mm)*
G04 Created by KiCad (PCBNEW 5.1.5-52549c5~86~ubuntu16.04.1) date 2020-04-28 17:17:38*
%MOMM*%
%LPD*%
G04 APERTURE LIST*
%ADD10C,0.100000*%
G04 APERTURE END LIST*
D10*
G36*
X177133400Y-128094600D02*
G01*
X176231400Y-128094600D01*
X176231400Y-127092600D01*
X177133400Y-127092600D01*
X177133400Y-128094600D01*
G37*
G36*
X151345331Y-123602811D02*
G01*
X151673092Y-123738574D01*
X151968070Y-123935672D01*
X152218928Y-124186530D01*
X152416026Y-124481508D01*
X152551789Y-124809269D01*
X152621000Y-125157216D01*
X152621000Y-125511984D01*
X152551789Y-125859931D01*
X152416026Y-126187692D01*
X152218928Y-126482670D01*
X151968070Y-126733528D01*
X151673092Y-126930626D01*
X151345331Y-127066389D01*
X150997384Y-127135600D01*
X150642616Y-127135600D01*
X150294669Y-127066389D01*
X149966908Y-126930626D01*
X149671930Y-126733528D01*
X149421072Y-126482670D01*
X149223974Y-126187692D01*
X149088211Y-125859931D01*
X149019000Y-125511984D01*
X149019000Y-125157216D01*
X149088211Y-124809269D01*
X149223974Y-124481508D01*
X149421072Y-124186530D01*
X149671930Y-123935672D01*
X149966908Y-123738574D01*
X150294669Y-123602811D01*
X150642616Y-123533600D01*
X150997384Y-123533600D01*
X151345331Y-123602811D01*
G37*
G36*
X139305331Y-123602811D02*
G01*
X139633092Y-123738574D01*
X139928070Y-123935672D01*
X140178928Y-124186530D01*
X140376026Y-124481508D01*
X140511789Y-124809269D01*
X140581000Y-125157216D01*
X140581000Y-125511984D01*
X140511789Y-125859931D01*
X140376026Y-126187692D01*
X140178928Y-126482670D01*
X139928070Y-126733528D01*
X139633092Y-126930626D01*
X139305331Y-127066389D01*
X138957384Y-127135600D01*
X138602616Y-127135600D01*
X138254669Y-127066389D01*
X137926908Y-126930626D01*
X137631930Y-126733528D01*
X137381072Y-126482670D01*
X137183974Y-126187692D01*
X137048211Y-125859931D01*
X136979000Y-125511984D01*
X136979000Y-125157216D01*
X137048211Y-124809269D01*
X137183974Y-124481508D01*
X137381072Y-124186530D01*
X137631930Y-123935672D01*
X137926908Y-123738574D01*
X138254669Y-123602811D01*
X138602616Y-123533600D01*
X138957384Y-123533600D01*
X139305331Y-123602811D01*
G37*
G36*
X176183400Y-126094600D02*
G01*
X175281400Y-126094600D01*
X175281400Y-125092600D01*
X176183400Y-125092600D01*
X176183400Y-126094600D01*
G37*
G36*
X178083400Y-126094600D02*
G01*
X177181400Y-126094600D01*
X177181400Y-125092600D01*
X178083400Y-125092600D01*
X178083400Y-126094600D01*
G37*
G36*
X111580791Y-123747085D02*
G01*
X111614769Y-123757393D01*
X111646090Y-123774134D01*
X111673539Y-123796661D01*
X111696066Y-123824110D01*
X111712807Y-123855431D01*
X111723115Y-123889409D01*
X111727200Y-123930890D01*
X111727200Y-124532110D01*
X111723115Y-124573591D01*
X111712807Y-124607569D01*
X111696066Y-124638890D01*
X111673539Y-124666339D01*
X111646090Y-124688866D01*
X111614769Y-124705607D01*
X111580791Y-124715915D01*
X111539310Y-124720000D01*
X110863090Y-124720000D01*
X110821609Y-124715915D01*
X110787631Y-124705607D01*
X110756310Y-124688866D01*
X110728861Y-124666339D01*
X110706334Y-124638890D01*
X110689593Y-124607569D01*
X110679285Y-124573591D01*
X110675200Y-124532110D01*
X110675200Y-123930890D01*
X110679285Y-123889409D01*
X110689593Y-123855431D01*
X110706334Y-123824110D01*
X110728861Y-123796661D01*
X110756310Y-123774134D01*
X110787631Y-123757393D01*
X110821609Y-123747085D01*
X110863090Y-123743000D01*
X111539310Y-123743000D01*
X111580791Y-123747085D01*
G37*
G36*
X114501791Y-123747085D02*
G01*
X114535769Y-123757393D01*
X114567090Y-123774134D01*
X114594539Y-123796661D01*
X114617066Y-123824110D01*
X114633807Y-123855431D01*
X114644115Y-123889409D01*
X114648200Y-123930890D01*
X114648200Y-124532110D01*
X114644115Y-124573591D01*
X114633807Y-124607569D01*
X114617066Y-124638890D01*
X114594539Y-124666339D01*
X114567090Y-124688866D01*
X114535769Y-124705607D01*
X114501791Y-124715915D01*
X114460310Y-124720000D01*
X113784090Y-124720000D01*
X113742609Y-124715915D01*
X113708631Y-124705607D01*
X113677310Y-124688866D01*
X113649861Y-124666339D01*
X113627334Y-124638890D01*
X113610593Y-124607569D01*
X113600285Y-124573591D01*
X113596200Y-124532110D01*
X113596200Y-123930890D01*
X113600285Y-123889409D01*
X113610593Y-123855431D01*
X113627334Y-123824110D01*
X113649861Y-123796661D01*
X113677310Y-123774134D01*
X113708631Y-123757393D01*
X113742609Y-123747085D01*
X113784090Y-123743000D01*
X114460310Y-123743000D01*
X114501791Y-123747085D01*
G37*
G36*
X130653512Y-122852727D02*
G01*
X130802812Y-122882424D01*
X130966784Y-122950344D01*
X131114354Y-123048947D01*
X131239853Y-123174446D01*
X131338456Y-123322016D01*
X131406376Y-123485988D01*
X131441000Y-123660059D01*
X131441000Y-123837541D01*
X131406376Y-124011612D01*
X131338456Y-124175584D01*
X131239853Y-124323154D01*
X131114354Y-124448653D01*
X130966784Y-124547256D01*
X130802812Y-124615176D01*
X130653512Y-124644873D01*
X130628742Y-124649800D01*
X130451258Y-124649800D01*
X130426488Y-124644873D01*
X130277188Y-124615176D01*
X130113216Y-124547256D01*
X129965646Y-124448653D01*
X129840147Y-124323154D01*
X129741544Y-124175584D01*
X129673624Y-124011612D01*
X129639000Y-123837541D01*
X129639000Y-123660059D01*
X129673624Y-123485988D01*
X129741544Y-123322016D01*
X129840147Y-123174446D01*
X129965646Y-123048947D01*
X130113216Y-122950344D01*
X130277188Y-122882424D01*
X130426488Y-122852727D01*
X130451258Y-122847800D01*
X130628742Y-122847800D01*
X130653512Y-122852727D01*
G37*
G36*
X128113512Y-122852727D02*
G01*
X128262812Y-122882424D01*
X128426784Y-122950344D01*
X128574354Y-123048947D01*
X128699853Y-123174446D01*
X128798456Y-123322016D01*
X128866376Y-123485988D01*
X128901000Y-123660059D01*
X128901000Y-123837541D01*
X128866376Y-124011612D01*
X128798456Y-124175584D01*
X128699853Y-124323154D01*
X128574354Y-124448653D01*
X128426784Y-124547256D01*
X128262812Y-124615176D01*
X128113512Y-124644873D01*
X128088742Y-124649800D01*
X127911258Y-124649800D01*
X127886488Y-124644873D01*
X127737188Y-124615176D01*
X127573216Y-124547256D01*
X127425646Y-124448653D01*
X127300147Y-124323154D01*
X127201544Y-124175584D01*
X127133624Y-124011612D01*
X127099000Y-123837541D01*
X127099000Y-123660059D01*
X127133624Y-123485988D01*
X127201544Y-123322016D01*
X127300147Y-123174446D01*
X127425646Y-123048947D01*
X127573216Y-122950344D01*
X127737188Y-122882424D01*
X127886488Y-122852727D01*
X127911258Y-122847800D01*
X128088742Y-122847800D01*
X128113512Y-122852727D01*
G37*
G36*
X119516823Y-122538413D02*
G01*
X119677242Y-122587076D01*
X119809906Y-122657986D01*
X119825078Y-122666096D01*
X119954659Y-122772441D01*
X120061004Y-122902022D01*
X120061005Y-122902024D01*
X120140024Y-123049858D01*
X120188687Y-123210277D01*
X120205117Y-123377100D01*
X120188687Y-123543923D01*
X120140024Y-123704342D01*
X120109423Y-123761592D01*
X120061004Y-123852178D01*
X119954659Y-123981759D01*
X119825078Y-124088104D01*
X119825076Y-124088105D01*
X119677242Y-124167124D01*
X119677239Y-124167125D01*
X119649360Y-124175582D01*
X119516823Y-124215787D01*
X119391804Y-124228100D01*
X118908196Y-124228100D01*
X118783177Y-124215787D01*
X118650640Y-124175582D01*
X118622761Y-124167125D01*
X118622758Y-124167124D01*
X118474924Y-124088105D01*
X118474922Y-124088104D01*
X118345341Y-123981759D01*
X118238996Y-123852178D01*
X118190577Y-123761592D01*
X118159976Y-123704342D01*
X118111313Y-123543923D01*
X118094883Y-123377100D01*
X118111313Y-123210277D01*
X118159976Y-123049858D01*
X118238995Y-122902024D01*
X118238996Y-122902022D01*
X118345341Y-122772441D01*
X118474922Y-122666096D01*
X118490094Y-122657986D01*
X118622758Y-122587076D01*
X118783177Y-122538413D01*
X118908196Y-122526100D01*
X119391804Y-122526100D01*
X119516823Y-122538413D01*
G37*
G36*
X178316823Y-122478313D02*
G01*
X178410072Y-122506600D01*
X178474355Y-122526100D01*
X178477242Y-122526976D01*
X178589679Y-122587075D01*
X178625078Y-122605996D01*
X178754659Y-122712341D01*
X178861004Y-122841922D01*
X178861005Y-122841924D01*
X178940024Y-122989758D01*
X178940025Y-122989761D01*
X178949083Y-123019620D01*
X178988687Y-123150177D01*
X179005117Y-123317000D01*
X178988687Y-123483823D01*
X178940024Y-123644242D01*
X178907901Y-123704339D01*
X178861004Y-123792078D01*
X178754659Y-123921659D01*
X178625078Y-124028004D01*
X178625076Y-124028005D01*
X178477242Y-124107024D01*
X178316823Y-124155687D01*
X178191804Y-124168000D01*
X177708196Y-124168000D01*
X177583177Y-124155687D01*
X177422758Y-124107024D01*
X177274924Y-124028005D01*
X177274922Y-124028004D01*
X177145341Y-123921659D01*
X177038996Y-123792078D01*
X176992099Y-123704339D01*
X176959976Y-123644242D01*
X176911313Y-123483823D01*
X176894883Y-123317000D01*
X176911313Y-123150177D01*
X176950917Y-123019620D01*
X176959975Y-122989761D01*
X176959976Y-122989758D01*
X177038995Y-122841924D01*
X177038996Y-122841922D01*
X177145341Y-122712341D01*
X177274922Y-122605996D01*
X177310321Y-122587075D01*
X177422758Y-122526976D01*
X177425646Y-122526100D01*
X177489928Y-122506600D01*
X177583177Y-122478313D01*
X177708196Y-122466000D01*
X178191804Y-122466000D01*
X178316823Y-122478313D01*
G37*
G36*
X171316823Y-122478313D02*
G01*
X171410072Y-122506600D01*
X171474355Y-122526100D01*
X171477242Y-122526976D01*
X171589679Y-122587075D01*
X171625078Y-122605996D01*
X171754659Y-122712341D01*
X171861004Y-122841922D01*
X171861005Y-122841924D01*
X171940024Y-122989758D01*
X171940025Y-122989761D01*
X171949083Y-123019620D01*
X171988687Y-123150177D01*
X172005117Y-123317000D01*
X171988687Y-123483823D01*
X171940024Y-123644242D01*
X171907901Y-123704339D01*
X171861004Y-123792078D01*
X171754659Y-123921659D01*
X171625078Y-124028004D01*
X171625076Y-124028005D01*
X171477242Y-124107024D01*
X171316823Y-124155687D01*
X171191804Y-124168000D01*
X170708196Y-124168000D01*
X170583177Y-124155687D01*
X170422758Y-124107024D01*
X170274924Y-124028005D01*
X170274922Y-124028004D01*
X170145341Y-123921659D01*
X170038996Y-123792078D01*
X169992099Y-123704339D01*
X169959976Y-123644242D01*
X169911313Y-123483823D01*
X169894883Y-123317000D01*
X169911313Y-123150177D01*
X169950917Y-123019620D01*
X169959975Y-122989761D01*
X169959976Y-122989758D01*
X170038995Y-122841924D01*
X170038996Y-122841922D01*
X170145341Y-122712341D01*
X170274922Y-122605996D01*
X170310321Y-122587075D01*
X170422758Y-122526976D01*
X170425646Y-122526100D01*
X170489928Y-122506600D01*
X170583177Y-122478313D01*
X170708196Y-122466000D01*
X171191804Y-122466000D01*
X171316823Y-122478313D01*
G37*
G36*
X175316823Y-122478313D02*
G01*
X175410072Y-122506600D01*
X175474355Y-122526100D01*
X175477242Y-122526976D01*
X175589679Y-122587075D01*
X175625078Y-122605996D01*
X175754659Y-122712341D01*
X175861004Y-122841922D01*
X175861005Y-122841924D01*
X175940024Y-122989758D01*
X175940025Y-122989761D01*
X175949083Y-123019620D01*
X175988687Y-123150177D01*
X176005117Y-123317000D01*
X175988687Y-123483823D01*
X175940024Y-123644242D01*
X175907901Y-123704339D01*
X175861004Y-123792078D01*
X175754659Y-123921659D01*
X175625078Y-124028004D01*
X175625076Y-124028005D01*
X175477242Y-124107024D01*
X175316823Y-124155687D01*
X175191804Y-124168000D01*
X174708196Y-124168000D01*
X174583177Y-124155687D01*
X174422758Y-124107024D01*
X174274924Y-124028005D01*
X174274922Y-124028004D01*
X174145341Y-123921659D01*
X174038996Y-123792078D01*
X173992099Y-123704339D01*
X173959976Y-123644242D01*
X173911313Y-123483823D01*
X173894883Y-123317000D01*
X173911313Y-123150177D01*
X173950917Y-123019620D01*
X173959975Y-122989761D01*
X173959976Y-122989758D01*
X174038995Y-122841924D01*
X174038996Y-122841922D01*
X174145341Y-122712341D01*
X174274922Y-122605996D01*
X174310321Y-122587075D01*
X174422758Y-122526976D01*
X174425646Y-122526100D01*
X174489928Y-122506600D01*
X174583177Y-122478313D01*
X174708196Y-122466000D01*
X175191804Y-122466000D01*
X175316823Y-122478313D01*
G37*
G36*
X143663512Y-119728527D02*
G01*
X143812812Y-119758224D01*
X143976784Y-119826144D01*
X144124354Y-119924747D01*
X144249853Y-120050246D01*
X144348456Y-120197816D01*
X144416376Y-120361788D01*
X144451000Y-120535859D01*
X144451000Y-120713341D01*
X144416376Y-120887412D01*
X144348456Y-121051384D01*
X144249853Y-121198954D01*
X144124354Y-121324453D01*
X143976784Y-121423056D01*
X143812812Y-121490976D01*
X143757362Y-121502005D01*
X143733922Y-121509116D01*
X143712311Y-121520667D01*
X143693369Y-121536213D01*
X143677824Y-121555155D01*
X143666273Y-121576765D01*
X143659160Y-121600214D01*
X143656758Y-121624600D01*
X143659160Y-121648987D01*
X143666273Y-121672435D01*
X143677824Y-121694046D01*
X143693370Y-121712988D01*
X143712312Y-121728533D01*
X143733922Y-121740084D01*
X143757362Y-121747195D01*
X143812812Y-121758224D01*
X143976784Y-121826144D01*
X144124354Y-121924747D01*
X144249853Y-122050246D01*
X144348456Y-122197816D01*
X144416376Y-122361788D01*
X144439554Y-122478314D01*
X144451000Y-122535858D01*
X144451000Y-122713342D01*
X144446073Y-122738112D01*
X144416376Y-122887412D01*
X144348456Y-123051384D01*
X144249853Y-123198954D01*
X144124354Y-123324453D01*
X143976784Y-123423056D01*
X143812812Y-123490976D01*
X143663512Y-123520673D01*
X143638742Y-123525600D01*
X143461258Y-123525600D01*
X143436488Y-123520673D01*
X143287188Y-123490976D01*
X143123216Y-123423056D01*
X142975646Y-123324453D01*
X142850147Y-123198954D01*
X142751544Y-123051384D01*
X142683624Y-122887412D01*
X142653927Y-122738112D01*
X142649000Y-122713342D01*
X142649000Y-122535858D01*
X142660446Y-122478314D01*
X142683624Y-122361788D01*
X142751544Y-122197816D01*
X142850147Y-122050246D01*
X142975646Y-121924747D01*
X143123216Y-121826144D01*
X143287188Y-121758224D01*
X143342638Y-121747195D01*
X143366078Y-121740084D01*
X143387689Y-121728533D01*
X143406631Y-121712987D01*
X143422176Y-121694045D01*
X143433727Y-121672435D01*
X143440840Y-121648986D01*
X143443242Y-121624600D01*
X143440840Y-121600213D01*
X143433727Y-121576765D01*
X143422176Y-121555154D01*
X143406630Y-121536212D01*
X143387688Y-121520667D01*
X143366078Y-121509116D01*
X143342638Y-121502005D01*
X143287188Y-121490976D01*
X143123216Y-121423056D01*
X142975646Y-121324453D01*
X142850147Y-121198954D01*
X142751544Y-121051384D01*
X142683624Y-120887412D01*
X142649000Y-120713341D01*
X142649000Y-120535859D01*
X142683624Y-120361788D01*
X142751544Y-120197816D01*
X142850147Y-120050246D01*
X142975646Y-119924747D01*
X143123216Y-119826144D01*
X143287188Y-119758224D01*
X143436488Y-119728527D01*
X143461258Y-119723600D01*
X143638742Y-119723600D01*
X143663512Y-119728527D01*
G37*
G36*
X146951000Y-121525600D02*
G01*
X146379617Y-121525600D01*
X146355231Y-121528002D01*
X146331782Y-121535115D01*
X146310171Y-121546666D01*
X146291229Y-121562211D01*
X146275684Y-121581153D01*
X146264133Y-121602764D01*
X146257020Y-121626213D01*
X146254618Y-121650599D01*
X146257020Y-121674985D01*
X146264133Y-121698434D01*
X146275684Y-121720045D01*
X146291229Y-121738987D01*
X146310171Y-121754532D01*
X146331771Y-121766077D01*
X146476784Y-121826144D01*
X146624354Y-121924747D01*
X146749853Y-122050246D01*
X146848456Y-122197816D01*
X146916376Y-122361788D01*
X146939554Y-122478314D01*
X146951000Y-122535858D01*
X146951000Y-122713342D01*
X146946073Y-122738112D01*
X146916376Y-122887412D01*
X146848456Y-123051384D01*
X146749853Y-123198954D01*
X146624354Y-123324453D01*
X146476784Y-123423056D01*
X146312812Y-123490976D01*
X146163512Y-123520673D01*
X146138742Y-123525600D01*
X145961258Y-123525600D01*
X145936488Y-123520673D01*
X145787188Y-123490976D01*
X145623216Y-123423056D01*
X145475646Y-123324453D01*
X145350147Y-123198954D01*
X145251544Y-123051384D01*
X145183624Y-122887412D01*
X145153927Y-122738112D01*
X145149000Y-122713342D01*
X145149000Y-122535858D01*
X145160446Y-122478314D01*
X145183624Y-122361788D01*
X145251544Y-122197816D01*
X145350147Y-122050246D01*
X145475646Y-121924747D01*
X145623216Y-121826144D01*
X145768229Y-121766077D01*
X145789829Y-121754532D01*
X145808771Y-121738987D01*
X145824316Y-121720045D01*
X145835867Y-121698434D01*
X145842980Y-121674985D01*
X145845382Y-121650599D01*
X145842980Y-121626213D01*
X145835867Y-121602764D01*
X145824316Y-121581153D01*
X145808771Y-121562211D01*
X145789829Y-121546666D01*
X145768218Y-121535115D01*
X145744769Y-121528002D01*
X145720383Y-121525600D01*
X145149000Y-121525600D01*
X145149000Y-119723600D01*
X146951000Y-119723600D01*
X146951000Y-121525600D01*
G37*
G36*
X111580791Y-122172085D02*
G01*
X111614769Y-122182393D01*
X111646090Y-122199134D01*
X111673539Y-122221661D01*
X111696066Y-122249110D01*
X111712807Y-122280431D01*
X111723115Y-122314409D01*
X111727200Y-122355890D01*
X111727200Y-122957110D01*
X111723115Y-122998591D01*
X111712807Y-123032569D01*
X111696066Y-123063890D01*
X111673539Y-123091339D01*
X111646090Y-123113866D01*
X111614769Y-123130607D01*
X111580791Y-123140915D01*
X111539310Y-123145000D01*
X110863090Y-123145000D01*
X110821609Y-123140915D01*
X110787631Y-123130607D01*
X110756310Y-123113866D01*
X110728861Y-123091339D01*
X110706334Y-123063890D01*
X110689593Y-123032569D01*
X110679285Y-122998591D01*
X110675200Y-122957110D01*
X110675200Y-122355890D01*
X110679285Y-122314409D01*
X110689593Y-122280431D01*
X110706334Y-122249110D01*
X110728861Y-122221661D01*
X110756310Y-122199134D01*
X110787631Y-122182393D01*
X110821609Y-122172085D01*
X110863090Y-122168000D01*
X111539310Y-122168000D01*
X111580791Y-122172085D01*
G37*
G36*
X114501791Y-122172085D02*
G01*
X114535769Y-122182393D01*
X114567090Y-122199134D01*
X114594539Y-122221661D01*
X114617066Y-122249110D01*
X114633807Y-122280431D01*
X114644115Y-122314409D01*
X114648200Y-122355890D01*
X114648200Y-122957110D01*
X114644115Y-122998591D01*
X114633807Y-123032569D01*
X114617066Y-123063890D01*
X114594539Y-123091339D01*
X114567090Y-123113866D01*
X114535769Y-123130607D01*
X114501791Y-123140915D01*
X114460310Y-123145000D01*
X113784090Y-123145000D01*
X113742609Y-123140915D01*
X113708631Y-123130607D01*
X113677310Y-123113866D01*
X113649861Y-123091339D01*
X113627334Y-123063890D01*
X113610593Y-123032569D01*
X113600285Y-122998591D01*
X113596200Y-122957110D01*
X113596200Y-122355890D01*
X113600285Y-122314409D01*
X113610593Y-122280431D01*
X113627334Y-122249110D01*
X113649861Y-122221661D01*
X113677310Y-122199134D01*
X113708631Y-122182393D01*
X113742609Y-122172085D01*
X113784090Y-122168000D01*
X114460310Y-122168000D01*
X114501791Y-122172085D01*
G37*
G36*
X168275268Y-121764765D02*
G01*
X168313938Y-121776496D01*
X168349577Y-121795546D01*
X168380817Y-121821183D01*
X168406454Y-121852423D01*
X168425504Y-121888062D01*
X168437235Y-121926732D01*
X168441800Y-121973088D01*
X168441800Y-122624312D01*
X168437235Y-122670668D01*
X168425504Y-122709338D01*
X168406454Y-122744977D01*
X168380817Y-122776217D01*
X168349577Y-122801854D01*
X168313938Y-122820904D01*
X168275268Y-122832635D01*
X168228912Y-122837200D01*
X167152688Y-122837200D01*
X167106332Y-122832635D01*
X167067662Y-122820904D01*
X167032023Y-122801854D01*
X167000783Y-122776217D01*
X166975146Y-122744977D01*
X166956096Y-122709338D01*
X166944365Y-122670668D01*
X166939800Y-122624312D01*
X166939800Y-121973088D01*
X166944365Y-121926732D01*
X166956096Y-121888062D01*
X166975146Y-121852423D01*
X167000783Y-121821183D01*
X167032023Y-121795546D01*
X167067662Y-121776496D01*
X167106332Y-121764765D01*
X167152688Y-121760200D01*
X168228912Y-121760200D01*
X168275268Y-121764765D01*
G37*
G36*
X140151000Y-122506600D02*
G01*
X139249000Y-122506600D01*
X139249000Y-121504600D01*
X140151000Y-121504600D01*
X140151000Y-122506600D01*
G37*
G36*
X121945668Y-121409165D02*
G01*
X121984338Y-121420896D01*
X122019977Y-121439946D01*
X122051217Y-121465583D01*
X122076854Y-121496823D01*
X122095904Y-121532462D01*
X122107635Y-121571132D01*
X122112200Y-121617488D01*
X122112200Y-122268712D01*
X122107635Y-122315068D01*
X122095904Y-122353738D01*
X122076854Y-122389377D01*
X122051217Y-122420617D01*
X122019977Y-122446254D01*
X121984338Y-122465304D01*
X121945668Y-122477035D01*
X121899312Y-122481600D01*
X120823088Y-122481600D01*
X120776732Y-122477035D01*
X120738062Y-122465304D01*
X120702423Y-122446254D01*
X120671183Y-122420617D01*
X120645546Y-122389377D01*
X120626496Y-122353738D01*
X120614765Y-122315068D01*
X120610200Y-122268712D01*
X120610200Y-121617488D01*
X120614765Y-121571132D01*
X120626496Y-121532462D01*
X120645546Y-121496823D01*
X120671183Y-121465583D01*
X120702423Y-121439946D01*
X120738062Y-121420896D01*
X120776732Y-121409165D01*
X120823088Y-121404600D01*
X121899312Y-121404600D01*
X121945668Y-121409165D01*
G37*
G36*
X128113512Y-120312727D02*
G01*
X128262812Y-120342424D01*
X128426784Y-120410344D01*
X128574354Y-120508947D01*
X128699853Y-120634446D01*
X128798456Y-120782016D01*
X128866376Y-120945988D01*
X128901000Y-121120059D01*
X128901000Y-121297541D01*
X128866376Y-121471612D01*
X128798456Y-121635584D01*
X128699853Y-121783154D01*
X128574354Y-121908653D01*
X128426784Y-122007256D01*
X128262812Y-122075176D01*
X128113512Y-122104873D01*
X128088742Y-122109800D01*
X127911258Y-122109800D01*
X127886488Y-122104873D01*
X127737188Y-122075176D01*
X127573216Y-122007256D01*
X127425646Y-121908653D01*
X127300147Y-121783154D01*
X127201544Y-121635584D01*
X127133624Y-121471612D01*
X127099000Y-121297541D01*
X127099000Y-121120059D01*
X127133624Y-120945988D01*
X127201544Y-120782016D01*
X127300147Y-120634446D01*
X127425646Y-120508947D01*
X127573216Y-120410344D01*
X127737188Y-120342424D01*
X127886488Y-120312727D01*
X127911258Y-120307800D01*
X128088742Y-120307800D01*
X128113512Y-120312727D01*
G37*
G36*
X130653512Y-120312727D02*
G01*
X130802812Y-120342424D01*
X130966784Y-120410344D01*
X131114354Y-120508947D01*
X131239853Y-120634446D01*
X131338456Y-120782016D01*
X131406376Y-120945988D01*
X131441000Y-121120059D01*
X131441000Y-121297541D01*
X131406376Y-121471612D01*
X131338456Y-121635584D01*
X131239853Y-121783154D01*
X131114354Y-121908653D01*
X130966784Y-122007256D01*
X130802812Y-122075176D01*
X130653512Y-122104873D01*
X130628742Y-122109800D01*
X130451258Y-122109800D01*
X130426488Y-122104873D01*
X130277188Y-122075176D01*
X130113216Y-122007256D01*
X129965646Y-121908653D01*
X129840147Y-121783154D01*
X129741544Y-121635584D01*
X129673624Y-121471612D01*
X129639000Y-121297541D01*
X129639000Y-121120059D01*
X129673624Y-120945988D01*
X129741544Y-120782016D01*
X129840147Y-120634446D01*
X129965646Y-120508947D01*
X130113216Y-120410344D01*
X130277188Y-120342424D01*
X130426488Y-120312727D01*
X130451258Y-120307800D01*
X130628742Y-120307800D01*
X130653512Y-120312727D01*
G37*
G36*
X109581552Y-120643431D02*
G01*
X109663627Y-120677428D01*
X109663629Y-120677429D01*
X109700813Y-120702275D01*
X109737495Y-120726785D01*
X109800315Y-120789605D01*
X109849672Y-120863473D01*
X109883669Y-120945548D01*
X109901000Y-121032679D01*
X109901000Y-121121521D01*
X109883669Y-121208652D01*
X109849672Y-121290727D01*
X109849671Y-121290729D01*
X109800314Y-121364596D01*
X109737496Y-121427414D01*
X109663629Y-121476771D01*
X109663628Y-121476772D01*
X109663627Y-121476772D01*
X109581552Y-121510769D01*
X109494421Y-121528100D01*
X109405579Y-121528100D01*
X109318448Y-121510769D01*
X109236373Y-121476772D01*
X109236372Y-121476772D01*
X109236371Y-121476771D01*
X109162504Y-121427414D01*
X109099686Y-121364596D01*
X109050329Y-121290729D01*
X109050328Y-121290727D01*
X109016331Y-121208652D01*
X108999000Y-121121521D01*
X108999000Y-121032679D01*
X109016331Y-120945548D01*
X109050328Y-120863473D01*
X109099685Y-120789605D01*
X109162505Y-120726785D01*
X109199187Y-120702275D01*
X109236371Y-120677429D01*
X109236373Y-120677428D01*
X109318448Y-120643431D01*
X109405579Y-120626100D01*
X109494421Y-120626100D01*
X109581552Y-120643431D01*
G37*
G36*
X116581552Y-120643431D02*
G01*
X116663627Y-120677428D01*
X116663629Y-120677429D01*
X116700813Y-120702275D01*
X116737495Y-120726785D01*
X116800315Y-120789605D01*
X116849672Y-120863473D01*
X116883669Y-120945548D01*
X116901000Y-121032679D01*
X116901000Y-121121521D01*
X116883669Y-121208652D01*
X116849672Y-121290727D01*
X116849671Y-121290729D01*
X116800314Y-121364596D01*
X116737496Y-121427414D01*
X116663629Y-121476771D01*
X116663628Y-121476772D01*
X116663627Y-121476772D01*
X116581552Y-121510769D01*
X116494421Y-121528100D01*
X116405579Y-121528100D01*
X116318448Y-121510769D01*
X116236373Y-121476772D01*
X116236372Y-121476772D01*
X116236371Y-121476771D01*
X116162504Y-121427414D01*
X116099686Y-121364596D01*
X116050329Y-121290729D01*
X116050328Y-121290727D01*
X116016331Y-121208652D01*
X115999000Y-121121521D01*
X115999000Y-121032679D01*
X116016331Y-120945548D01*
X116050328Y-120863473D01*
X116099685Y-120789605D01*
X116162505Y-120726785D01*
X116199187Y-120702275D01*
X116236371Y-120677429D01*
X116236373Y-120677428D01*
X116318448Y-120643431D01*
X116405579Y-120626100D01*
X116494421Y-120626100D01*
X116581552Y-120643431D01*
G37*
G36*
X172681552Y-120583331D02*
G01*
X172763627Y-120617328D01*
X172763629Y-120617329D01*
X172800813Y-120642175D01*
X172837495Y-120666685D01*
X172900315Y-120729505D01*
X172949672Y-120803373D01*
X172983669Y-120885448D01*
X173001000Y-120972579D01*
X173001000Y-121061421D01*
X172983669Y-121148552D01*
X172949672Y-121230627D01*
X172904962Y-121297541D01*
X172900314Y-121304496D01*
X172837496Y-121367314D01*
X172763629Y-121416671D01*
X172763628Y-121416672D01*
X172763627Y-121416672D01*
X172681552Y-121450669D01*
X172594421Y-121468000D01*
X172505579Y-121468000D01*
X172418448Y-121450669D01*
X172336373Y-121416672D01*
X172336372Y-121416672D01*
X172336371Y-121416671D01*
X172262504Y-121367314D01*
X172199686Y-121304496D01*
X172195039Y-121297541D01*
X172150328Y-121230627D01*
X172116331Y-121148552D01*
X172099000Y-121061421D01*
X172099000Y-120972579D01*
X172116331Y-120885448D01*
X172150328Y-120803373D01*
X172199685Y-120729505D01*
X172262505Y-120666685D01*
X172299187Y-120642175D01*
X172336371Y-120617329D01*
X172336373Y-120617328D01*
X172418448Y-120583331D01*
X172505579Y-120566000D01*
X172594421Y-120566000D01*
X172681552Y-120583331D01*
G37*
G36*
X179681552Y-120583331D02*
G01*
X179763627Y-120617328D01*
X179763629Y-120617329D01*
X179800813Y-120642175D01*
X179837495Y-120666685D01*
X179900315Y-120729505D01*
X179949672Y-120803373D01*
X179983669Y-120885448D01*
X180001000Y-120972579D01*
X180001000Y-121061421D01*
X179983669Y-121148552D01*
X179949672Y-121230627D01*
X179904962Y-121297541D01*
X179900314Y-121304496D01*
X179837496Y-121367314D01*
X179763629Y-121416671D01*
X179763628Y-121416672D01*
X179763627Y-121416672D01*
X179681552Y-121450669D01*
X179594421Y-121468000D01*
X179505579Y-121468000D01*
X179418448Y-121450669D01*
X179336373Y-121416672D01*
X179336372Y-121416672D01*
X179336371Y-121416671D01*
X179262504Y-121367314D01*
X179199686Y-121304496D01*
X179195039Y-121297541D01*
X179150328Y-121230627D01*
X179116331Y-121148552D01*
X179099000Y-121061421D01*
X179099000Y-120972579D01*
X179116331Y-120885448D01*
X179150328Y-120803373D01*
X179199685Y-120729505D01*
X179262505Y-120666685D01*
X179299187Y-120642175D01*
X179336371Y-120617329D01*
X179336373Y-120617328D01*
X179418448Y-120583331D01*
X179505579Y-120566000D01*
X179594421Y-120566000D01*
X179681552Y-120583331D01*
G37*
G36*
X149224091Y-120102685D02*
G01*
X149258069Y-120112993D01*
X149289390Y-120129734D01*
X149316839Y-120152261D01*
X149339366Y-120179710D01*
X149356107Y-120211031D01*
X149366415Y-120245009D01*
X149370500Y-120286490D01*
X149370500Y-120962710D01*
X149366415Y-121004191D01*
X149356107Y-121038169D01*
X149339366Y-121069490D01*
X149316839Y-121096939D01*
X149289390Y-121119466D01*
X149258069Y-121136207D01*
X149224091Y-121146515D01*
X149182610Y-121150600D01*
X148581390Y-121150600D01*
X148539909Y-121146515D01*
X148505931Y-121136207D01*
X148474610Y-121119466D01*
X148447161Y-121096939D01*
X148424634Y-121069490D01*
X148407893Y-121038169D01*
X148397585Y-121004191D01*
X148393500Y-120962710D01*
X148393500Y-120286490D01*
X148397585Y-120245009D01*
X148407893Y-120211031D01*
X148424634Y-120179710D01*
X148447161Y-120152261D01*
X148474610Y-120129734D01*
X148505931Y-120112993D01*
X148539909Y-120102685D01*
X148581390Y-120098600D01*
X149182610Y-120098600D01*
X149224091Y-120102685D01*
G37*
G36*
X150799091Y-120102685D02*
G01*
X150833069Y-120112993D01*
X150864390Y-120129734D01*
X150891839Y-120152261D01*
X150914366Y-120179710D01*
X150931107Y-120211031D01*
X150941415Y-120245009D01*
X150945500Y-120286490D01*
X150945500Y-120962710D01*
X150941415Y-121004191D01*
X150931107Y-121038169D01*
X150914366Y-121069490D01*
X150891839Y-121096939D01*
X150864390Y-121119466D01*
X150833069Y-121136207D01*
X150799091Y-121146515D01*
X150757610Y-121150600D01*
X150156390Y-121150600D01*
X150114909Y-121146515D01*
X150080931Y-121136207D01*
X150049610Y-121119466D01*
X150022161Y-121096939D01*
X149999634Y-121069490D01*
X149982893Y-121038169D01*
X149972585Y-121004191D01*
X149968500Y-120962710D01*
X149968500Y-120286490D01*
X149972585Y-120245009D01*
X149982893Y-120211031D01*
X149999634Y-120179710D01*
X150022161Y-120152261D01*
X150049610Y-120129734D01*
X150080931Y-120112993D01*
X150114909Y-120102685D01*
X150156390Y-120098600D01*
X150757610Y-120098600D01*
X150799091Y-120102685D01*
G37*
G36*
X168275268Y-119889765D02*
G01*
X168313938Y-119901496D01*
X168349577Y-119920546D01*
X168380817Y-119946183D01*
X168406454Y-119977423D01*
X168425504Y-120013062D01*
X168437235Y-120051732D01*
X168441800Y-120098088D01*
X168441800Y-120749312D01*
X168437235Y-120795668D01*
X168425504Y-120834338D01*
X168406454Y-120869977D01*
X168380817Y-120901217D01*
X168349577Y-120926854D01*
X168313938Y-120945904D01*
X168275268Y-120957635D01*
X168228912Y-120962200D01*
X167152688Y-120962200D01*
X167106332Y-120957635D01*
X167067662Y-120945904D01*
X167032023Y-120926854D01*
X167000783Y-120901217D01*
X166975146Y-120869977D01*
X166956096Y-120834338D01*
X166944365Y-120795668D01*
X166939800Y-120749312D01*
X166939800Y-120098088D01*
X166944365Y-120051732D01*
X166956096Y-120013062D01*
X166975146Y-119977423D01*
X167000783Y-119946183D01*
X167032023Y-119920546D01*
X167067662Y-119901496D01*
X167106332Y-119889765D01*
X167152688Y-119885200D01*
X168228912Y-119885200D01*
X168275268Y-119889765D01*
G37*
G36*
X121945668Y-119534165D02*
G01*
X121984338Y-119545896D01*
X122019977Y-119564946D01*
X122051217Y-119590583D01*
X122076854Y-119621823D01*
X122095904Y-119657462D01*
X122107635Y-119696132D01*
X122112200Y-119742488D01*
X122112200Y-120393712D01*
X122107635Y-120440068D01*
X122095904Y-120478738D01*
X122076854Y-120514377D01*
X122051217Y-120545617D01*
X122019977Y-120571254D01*
X121984338Y-120590304D01*
X121945668Y-120602035D01*
X121899312Y-120606600D01*
X120823088Y-120606600D01*
X120776732Y-120602035D01*
X120738062Y-120590304D01*
X120702423Y-120571254D01*
X120671183Y-120545617D01*
X120645546Y-120514377D01*
X120626496Y-120478738D01*
X120614765Y-120440068D01*
X120610200Y-120393712D01*
X120610200Y-119742488D01*
X120614765Y-119696132D01*
X120626496Y-119657462D01*
X120645546Y-119621823D01*
X120671183Y-119590583D01*
X120702423Y-119564946D01*
X120738062Y-119545896D01*
X120776732Y-119534165D01*
X120823088Y-119529600D01*
X121899312Y-119529600D01*
X121945668Y-119534165D01*
G37*
G36*
X139201000Y-120506600D02*
G01*
X138299000Y-120506600D01*
X138299000Y-119504600D01*
X139201000Y-119504600D01*
X139201000Y-120506600D01*
G37*
G36*
X141101000Y-120506600D02*
G01*
X140199000Y-120506600D01*
X140199000Y-119504600D01*
X141101000Y-119504600D01*
X141101000Y-120506600D01*
G37*
G36*
X111416823Y-117938413D02*
G01*
X111577242Y-117987076D01*
X111709906Y-118057986D01*
X111725078Y-118066096D01*
X111854659Y-118172441D01*
X111961004Y-118302022D01*
X111961005Y-118302024D01*
X112040024Y-118449858D01*
X112088687Y-118610277D01*
X112105117Y-118777100D01*
X112088687Y-118943923D01*
X112040024Y-119104342D01*
X111993129Y-119192076D01*
X111961004Y-119252178D01*
X111854659Y-119381759D01*
X111725078Y-119488104D01*
X111725076Y-119488105D01*
X111577242Y-119567124D01*
X111577239Y-119567125D01*
X111551354Y-119574977D01*
X111416823Y-119615787D01*
X111291804Y-119628100D01*
X110808196Y-119628100D01*
X110683177Y-119615787D01*
X110548646Y-119574977D01*
X110522761Y-119567125D01*
X110522758Y-119567124D01*
X110374924Y-119488105D01*
X110374922Y-119488104D01*
X110245341Y-119381759D01*
X110138996Y-119252178D01*
X110106871Y-119192076D01*
X110059976Y-119104342D01*
X110011313Y-118943923D01*
X109994883Y-118777100D01*
X110011313Y-118610277D01*
X110059976Y-118449858D01*
X110138995Y-118302024D01*
X110138996Y-118302022D01*
X110245341Y-118172441D01*
X110374922Y-118066096D01*
X110390094Y-118057986D01*
X110522758Y-117987076D01*
X110683177Y-117938413D01*
X110808196Y-117926100D01*
X111291804Y-117926100D01*
X111416823Y-117938413D01*
G37*
G36*
X114416823Y-117938413D02*
G01*
X114577242Y-117987076D01*
X114709906Y-118057986D01*
X114725078Y-118066096D01*
X114854659Y-118172441D01*
X114961004Y-118302022D01*
X114961005Y-118302024D01*
X115040024Y-118449858D01*
X115088687Y-118610277D01*
X115105117Y-118777100D01*
X115088687Y-118943923D01*
X115040024Y-119104342D01*
X114993129Y-119192076D01*
X114961004Y-119252178D01*
X114854659Y-119381759D01*
X114725078Y-119488104D01*
X114725076Y-119488105D01*
X114577242Y-119567124D01*
X114577239Y-119567125D01*
X114551354Y-119574977D01*
X114416823Y-119615787D01*
X114291804Y-119628100D01*
X113808196Y-119628100D01*
X113683177Y-119615787D01*
X113548646Y-119574977D01*
X113522761Y-119567125D01*
X113522758Y-119567124D01*
X113374924Y-119488105D01*
X113374922Y-119488104D01*
X113245341Y-119381759D01*
X113138996Y-119252178D01*
X113106871Y-119192076D01*
X113059976Y-119104342D01*
X113011313Y-118943923D01*
X112994883Y-118777100D01*
X113011313Y-118610277D01*
X113059976Y-118449858D01*
X113138995Y-118302024D01*
X113138996Y-118302022D01*
X113245341Y-118172441D01*
X113374922Y-118066096D01*
X113390094Y-118057986D01*
X113522758Y-117987076D01*
X113683177Y-117938413D01*
X113808196Y-117926100D01*
X114291804Y-117926100D01*
X114416823Y-117938413D01*
G37*
G36*
X118416823Y-117938413D02*
G01*
X118577242Y-117987076D01*
X118709906Y-118057986D01*
X118725078Y-118066096D01*
X118854659Y-118172441D01*
X118961004Y-118302022D01*
X118961005Y-118302024D01*
X119040024Y-118449858D01*
X119088687Y-118610277D01*
X119105117Y-118777100D01*
X119088687Y-118943923D01*
X119040024Y-119104342D01*
X118993129Y-119192076D01*
X118961004Y-119252178D01*
X118854659Y-119381759D01*
X118725078Y-119488104D01*
X118725076Y-119488105D01*
X118577242Y-119567124D01*
X118577239Y-119567125D01*
X118551354Y-119574977D01*
X118416823Y-119615787D01*
X118291804Y-119628100D01*
X117808196Y-119628100D01*
X117683177Y-119615787D01*
X117548646Y-119574977D01*
X117522761Y-119567125D01*
X117522758Y-119567124D01*
X117374924Y-119488105D01*
X117374922Y-119488104D01*
X117245341Y-119381759D01*
X117138996Y-119252178D01*
X117106871Y-119192076D01*
X117059976Y-119104342D01*
X117011313Y-118943923D01*
X116994883Y-118777100D01*
X117011313Y-118610277D01*
X117059976Y-118449858D01*
X117138995Y-118302024D01*
X117138996Y-118302022D01*
X117245341Y-118172441D01*
X117374922Y-118066096D01*
X117390094Y-118057986D01*
X117522758Y-117987076D01*
X117683177Y-117938413D01*
X117808196Y-117926100D01*
X118291804Y-117926100D01*
X118416823Y-117938413D01*
G37*
G36*
X130653512Y-117772727D02*
G01*
X130802812Y-117802424D01*
X130966784Y-117870344D01*
X131114354Y-117968947D01*
X131239853Y-118094446D01*
X131338456Y-118242016D01*
X131406376Y-118405988D01*
X131441000Y-118580059D01*
X131441000Y-118757541D01*
X131406376Y-118931612D01*
X131338456Y-119095584D01*
X131239853Y-119243154D01*
X131114354Y-119368653D01*
X130966784Y-119467256D01*
X130802812Y-119535176D01*
X130653512Y-119564873D01*
X130628742Y-119569800D01*
X130451258Y-119569800D01*
X130426488Y-119564873D01*
X130277188Y-119535176D01*
X130113216Y-119467256D01*
X129965646Y-119368653D01*
X129840147Y-119243154D01*
X129741544Y-119095584D01*
X129673624Y-118931612D01*
X129639000Y-118757541D01*
X129639000Y-118580059D01*
X129673624Y-118405988D01*
X129741544Y-118242016D01*
X129840147Y-118094446D01*
X129965646Y-117968947D01*
X130113216Y-117870344D01*
X130277188Y-117802424D01*
X130426488Y-117772727D01*
X130451258Y-117767800D01*
X130628742Y-117767800D01*
X130653512Y-117772727D01*
G37*
G36*
X128901000Y-119569800D02*
G01*
X127099000Y-119569800D01*
X127099000Y-117767800D01*
X128901000Y-117767800D01*
X128901000Y-119569800D01*
G37*
G36*
X170216823Y-117878313D02*
G01*
X170347380Y-117917917D01*
X170374355Y-117926100D01*
X170377242Y-117926976D01*
X170455764Y-117968947D01*
X170525078Y-118005996D01*
X170654659Y-118112341D01*
X170761004Y-118241922D01*
X170761005Y-118241924D01*
X170840024Y-118389758D01*
X170888687Y-118550177D01*
X170905117Y-118717000D01*
X170888687Y-118883823D01*
X170840024Y-119044242D01*
X170812582Y-119095582D01*
X170761004Y-119192078D01*
X170654659Y-119321659D01*
X170525078Y-119428004D01*
X170525076Y-119428005D01*
X170377242Y-119507024D01*
X170216823Y-119555687D01*
X170091804Y-119568000D01*
X169608196Y-119568000D01*
X169483177Y-119555687D01*
X169322758Y-119507024D01*
X169174924Y-119428005D01*
X169174922Y-119428004D01*
X169045341Y-119321659D01*
X168938996Y-119192078D01*
X168887418Y-119095582D01*
X168859976Y-119044242D01*
X168811313Y-118883823D01*
X168794883Y-118717000D01*
X168811313Y-118550177D01*
X168859976Y-118389758D01*
X168938995Y-118241924D01*
X168938996Y-118241922D01*
X169045341Y-118112341D01*
X169174922Y-118005996D01*
X169244236Y-117968947D01*
X169322758Y-117926976D01*
X169325646Y-117926100D01*
X169352620Y-117917917D01*
X169483177Y-117878313D01*
X169608196Y-117866000D01*
X170091804Y-117866000D01*
X170216823Y-117878313D01*
G37*
G36*
X114024600Y-117426600D02*
G01*
X113122600Y-117426600D01*
X113122600Y-116424600D01*
X114024600Y-116424600D01*
X114024600Y-117426600D01*
G37*
G36*
X112124600Y-117426600D02*
G01*
X111222600Y-117426600D01*
X111222600Y-116424600D01*
X112124600Y-116424600D01*
X112124600Y-117426600D01*
G37*
G36*
X152679668Y-114449565D02*
G01*
X152718338Y-114461296D01*
X152753977Y-114480346D01*
X152785217Y-114505983D01*
X152810854Y-114537223D01*
X152829904Y-114572862D01*
X152841635Y-114611532D01*
X152846200Y-114657888D01*
X152846200Y-115309112D01*
X152841635Y-115355468D01*
X152829904Y-115394138D01*
X152810854Y-115429777D01*
X152785217Y-115461017D01*
X152753977Y-115486654D01*
X152718338Y-115505704D01*
X152679668Y-115517435D01*
X152633312Y-115522000D01*
X151557088Y-115522000D01*
X151510732Y-115517435D01*
X151472062Y-115505704D01*
X151436423Y-115486654D01*
X151405183Y-115461017D01*
X151379546Y-115429777D01*
X151360496Y-115394138D01*
X151348765Y-115355468D01*
X151344200Y-115309112D01*
X151344200Y-114657888D01*
X151348765Y-114611532D01*
X151360496Y-114572862D01*
X151379546Y-114537223D01*
X151405183Y-114505983D01*
X151436423Y-114480346D01*
X151472062Y-114461296D01*
X151510732Y-114449565D01*
X151557088Y-114445000D01*
X152633312Y-114445000D01*
X152679668Y-114449565D01*
G37*
G36*
X113074600Y-115426600D02*
G01*
X112172600Y-115426600D01*
X112172600Y-114424600D01*
X113074600Y-114424600D01*
X113074600Y-115426600D01*
G37*
G36*
X146302591Y-114412585D02*
G01*
X146336569Y-114422893D01*
X146367890Y-114439634D01*
X146395339Y-114462161D01*
X146417866Y-114489610D01*
X146434607Y-114520931D01*
X146444915Y-114554909D01*
X146449000Y-114596390D01*
X146449000Y-115197610D01*
X146444915Y-115239091D01*
X146434607Y-115273069D01*
X146417866Y-115304390D01*
X146395339Y-115331839D01*
X146367890Y-115354366D01*
X146336569Y-115371107D01*
X146302591Y-115381415D01*
X146261110Y-115385500D01*
X145584890Y-115385500D01*
X145543409Y-115381415D01*
X145509431Y-115371107D01*
X145478110Y-115354366D01*
X145450661Y-115331839D01*
X145428134Y-115304390D01*
X145411393Y-115273069D01*
X145401085Y-115239091D01*
X145397000Y-115197610D01*
X145397000Y-114596390D01*
X145401085Y-114554909D01*
X145411393Y-114520931D01*
X145428134Y-114489610D01*
X145450661Y-114462161D01*
X145478110Y-114439634D01*
X145509431Y-114422893D01*
X145543409Y-114412585D01*
X145584890Y-114408500D01*
X146261110Y-114408500D01*
X146302591Y-114412585D01*
G37*
G36*
X144588091Y-114412585D02*
G01*
X144622069Y-114422893D01*
X144653390Y-114439634D01*
X144680839Y-114462161D01*
X144703366Y-114489610D01*
X144720107Y-114520931D01*
X144730415Y-114554909D01*
X144734500Y-114596390D01*
X144734500Y-115197610D01*
X144730415Y-115239091D01*
X144720107Y-115273069D01*
X144703366Y-115304390D01*
X144680839Y-115331839D01*
X144653390Y-115354366D01*
X144622069Y-115371107D01*
X144588091Y-115381415D01*
X144546610Y-115385500D01*
X143870390Y-115385500D01*
X143828909Y-115381415D01*
X143794931Y-115371107D01*
X143763610Y-115354366D01*
X143736161Y-115331839D01*
X143713634Y-115304390D01*
X143696893Y-115273069D01*
X143686585Y-115239091D01*
X143682500Y-115197610D01*
X143682500Y-114596390D01*
X143686585Y-114554909D01*
X143696893Y-114520931D01*
X143713634Y-114489610D01*
X143736161Y-114462161D01*
X143763610Y-114439634D01*
X143794931Y-114422893D01*
X143828909Y-114412585D01*
X143870390Y-114408500D01*
X144546610Y-114408500D01*
X144588091Y-114412585D01*
G37*
G36*
X150595191Y-114349085D02*
G01*
X150629169Y-114359393D01*
X150660490Y-114376134D01*
X150687939Y-114398661D01*
X150710466Y-114426110D01*
X150727207Y-114457431D01*
X150737515Y-114491409D01*
X150741600Y-114532890D01*
X150741600Y-115134110D01*
X150737515Y-115175591D01*
X150727207Y-115209569D01*
X150710466Y-115240890D01*
X150687939Y-115268339D01*
X150660490Y-115290866D01*
X150629169Y-115307607D01*
X150595191Y-115317915D01*
X150553710Y-115322000D01*
X149877490Y-115322000D01*
X149836009Y-115317915D01*
X149802031Y-115307607D01*
X149770710Y-115290866D01*
X149743261Y-115268339D01*
X149720734Y-115240890D01*
X149703993Y-115209569D01*
X149693685Y-115175591D01*
X149689600Y-115134110D01*
X149689600Y-114532890D01*
X149693685Y-114491409D01*
X149703993Y-114457431D01*
X149720734Y-114426110D01*
X149743261Y-114398661D01*
X149770710Y-114376134D01*
X149802031Y-114359393D01*
X149836009Y-114349085D01*
X149877490Y-114345000D01*
X150553710Y-114345000D01*
X150595191Y-114349085D01*
G37*
G36*
X148918791Y-114298285D02*
G01*
X148952769Y-114308593D01*
X148984090Y-114325334D01*
X149011539Y-114347861D01*
X149034066Y-114375310D01*
X149050807Y-114406631D01*
X149061115Y-114440609D01*
X149065200Y-114482090D01*
X149065200Y-115083310D01*
X149061115Y-115124791D01*
X149050807Y-115158769D01*
X149034066Y-115190090D01*
X149011539Y-115217539D01*
X148984090Y-115240066D01*
X148952769Y-115256807D01*
X148918791Y-115267115D01*
X148877310Y-115271200D01*
X148201090Y-115271200D01*
X148159609Y-115267115D01*
X148125631Y-115256807D01*
X148094310Y-115240066D01*
X148066861Y-115217539D01*
X148044334Y-115190090D01*
X148027593Y-115158769D01*
X148017285Y-115124791D01*
X148013200Y-115083310D01*
X148013200Y-114482090D01*
X148017285Y-114440609D01*
X148027593Y-114406631D01*
X148044334Y-114375310D01*
X148066861Y-114347861D01*
X148094310Y-114325334D01*
X148125631Y-114308593D01*
X148159609Y-114298285D01*
X148201090Y-114294200D01*
X148877310Y-114294200D01*
X148918791Y-114298285D01*
G37*
G36*
X176879400Y-115039000D02*
G01*
X175977400Y-115039000D01*
X175977400Y-114037000D01*
X176879400Y-114037000D01*
X176879400Y-115039000D01*
G37*
G36*
X140506068Y-113096365D02*
G01*
X140544738Y-113108096D01*
X140580377Y-113127146D01*
X140611617Y-113152783D01*
X140637254Y-113184023D01*
X140656304Y-113219662D01*
X140668035Y-113258332D01*
X140672600Y-113304688D01*
X140672600Y-114380912D01*
X140668035Y-114427268D01*
X140656304Y-114465938D01*
X140637254Y-114501577D01*
X140611617Y-114532817D01*
X140580377Y-114558454D01*
X140544738Y-114577504D01*
X140506068Y-114589235D01*
X140459712Y-114593800D01*
X139808488Y-114593800D01*
X139762132Y-114589235D01*
X139723462Y-114577504D01*
X139687823Y-114558454D01*
X139656583Y-114532817D01*
X139630946Y-114501577D01*
X139611896Y-114465938D01*
X139600165Y-114427268D01*
X139595600Y-114380912D01*
X139595600Y-113304688D01*
X139600165Y-113258332D01*
X139611896Y-113219662D01*
X139630946Y-113184023D01*
X139656583Y-113152783D01*
X139687823Y-113127146D01*
X139723462Y-113108096D01*
X139762132Y-113096365D01*
X139808488Y-113091800D01*
X140459712Y-113091800D01*
X140506068Y-113096365D01*
G37*
G36*
X142381068Y-113096365D02*
G01*
X142419738Y-113108096D01*
X142455377Y-113127146D01*
X142486617Y-113152783D01*
X142512254Y-113184023D01*
X142531304Y-113219662D01*
X142543035Y-113258332D01*
X142547600Y-113304688D01*
X142547600Y-114380912D01*
X142543035Y-114427268D01*
X142531304Y-114465938D01*
X142512254Y-114501577D01*
X142486617Y-114532817D01*
X142455377Y-114558454D01*
X142419738Y-114577504D01*
X142381068Y-114589235D01*
X142334712Y-114593800D01*
X141683488Y-114593800D01*
X141637132Y-114589235D01*
X141598462Y-114577504D01*
X141562823Y-114558454D01*
X141531583Y-114532817D01*
X141505946Y-114501577D01*
X141486896Y-114465938D01*
X141475165Y-114427268D01*
X141470600Y-114380912D01*
X141470600Y-113304688D01*
X141475165Y-113258332D01*
X141486896Y-113219662D01*
X141505946Y-113184023D01*
X141531583Y-113152783D01*
X141562823Y-113127146D01*
X141598462Y-113108096D01*
X141637132Y-113096365D01*
X141683488Y-113091800D01*
X142334712Y-113091800D01*
X142381068Y-113096365D01*
G37*
G36*
X112356200Y-113931000D02*
G01*
X110554200Y-113931000D01*
X110554200Y-112129000D01*
X112356200Y-112129000D01*
X112356200Y-113931000D01*
G37*
G36*
X144588091Y-112837585D02*
G01*
X144622069Y-112847893D01*
X144653390Y-112864634D01*
X144680839Y-112887161D01*
X144703366Y-112914610D01*
X144720107Y-112945931D01*
X144730415Y-112979909D01*
X144734500Y-113021390D01*
X144734500Y-113622610D01*
X144730415Y-113664091D01*
X144720107Y-113698069D01*
X144703366Y-113729390D01*
X144680839Y-113756839D01*
X144653390Y-113779366D01*
X144622069Y-113796107D01*
X144588091Y-113806415D01*
X144546610Y-113810500D01*
X143870390Y-113810500D01*
X143828909Y-113806415D01*
X143794931Y-113796107D01*
X143763610Y-113779366D01*
X143736161Y-113756839D01*
X143713634Y-113729390D01*
X143696893Y-113698069D01*
X143686585Y-113664091D01*
X143682500Y-113622610D01*
X143682500Y-113021390D01*
X143686585Y-112979909D01*
X143696893Y-112945931D01*
X143713634Y-112914610D01*
X143736161Y-112887161D01*
X143763610Y-112864634D01*
X143794931Y-112847893D01*
X143828909Y-112837585D01*
X143870390Y-112833500D01*
X144546610Y-112833500D01*
X144588091Y-112837585D01*
G37*
G36*
X146302591Y-112837585D02*
G01*
X146336569Y-112847893D01*
X146367890Y-112864634D01*
X146395339Y-112887161D01*
X146417866Y-112914610D01*
X146434607Y-112945931D01*
X146444915Y-112979909D01*
X146449000Y-113021390D01*
X146449000Y-113622610D01*
X146444915Y-113664091D01*
X146434607Y-113698069D01*
X146417866Y-113729390D01*
X146395339Y-113756839D01*
X146367890Y-113779366D01*
X146336569Y-113796107D01*
X146302591Y-113806415D01*
X146261110Y-113810500D01*
X145584890Y-113810500D01*
X145543409Y-113806415D01*
X145509431Y-113796107D01*
X145478110Y-113779366D01*
X145450661Y-113756839D01*
X145428134Y-113729390D01*
X145411393Y-113698069D01*
X145401085Y-113664091D01*
X145397000Y-113622610D01*
X145397000Y-113021390D01*
X145401085Y-112979909D01*
X145411393Y-112945931D01*
X145428134Y-112914610D01*
X145450661Y-112887161D01*
X145478110Y-112864634D01*
X145509431Y-112847893D01*
X145543409Y-112837585D01*
X145584890Y-112833500D01*
X146261110Y-112833500D01*
X146302591Y-112837585D01*
G37*
G36*
X150595191Y-112774085D02*
G01*
X150629169Y-112784393D01*
X150660490Y-112801134D01*
X150687939Y-112823661D01*
X150710466Y-112851110D01*
X150727207Y-112882431D01*
X150737515Y-112916409D01*
X150741600Y-112957890D01*
X150741600Y-113559110D01*
X150737515Y-113600591D01*
X150727207Y-113634569D01*
X150710466Y-113665890D01*
X150687939Y-113693339D01*
X150660490Y-113715866D01*
X150629169Y-113732607D01*
X150595191Y-113742915D01*
X150553710Y-113747000D01*
X149877490Y-113747000D01*
X149836009Y-113742915D01*
X149802031Y-113732607D01*
X149770710Y-113715866D01*
X149743261Y-113693339D01*
X149720734Y-113665890D01*
X149703993Y-113634569D01*
X149693685Y-113600591D01*
X149689600Y-113559110D01*
X149689600Y-112957890D01*
X149693685Y-112916409D01*
X149703993Y-112882431D01*
X149720734Y-112851110D01*
X149743261Y-112823661D01*
X149770710Y-112801134D01*
X149802031Y-112784393D01*
X149836009Y-112774085D01*
X149877490Y-112770000D01*
X150553710Y-112770000D01*
X150595191Y-112774085D01*
G37*
G36*
X148918791Y-112723285D02*
G01*
X148952769Y-112733593D01*
X148984090Y-112750334D01*
X149011539Y-112772861D01*
X149034066Y-112800310D01*
X149050807Y-112831631D01*
X149061115Y-112865609D01*
X149065200Y-112907090D01*
X149065200Y-113508310D01*
X149061115Y-113549791D01*
X149050807Y-113583769D01*
X149034066Y-113615090D01*
X149011539Y-113642539D01*
X148984090Y-113665066D01*
X148952769Y-113681807D01*
X148918791Y-113692115D01*
X148877310Y-113696200D01*
X148201090Y-113696200D01*
X148159609Y-113692115D01*
X148125631Y-113681807D01*
X148094310Y-113665066D01*
X148066861Y-113642539D01*
X148044334Y-113615090D01*
X148027593Y-113583769D01*
X148017285Y-113549791D01*
X148013200Y-113508310D01*
X148013200Y-112907090D01*
X148017285Y-112865609D01*
X148027593Y-112831631D01*
X148044334Y-112800310D01*
X148066861Y-112772861D01*
X148094310Y-112750334D01*
X148125631Y-112733593D01*
X148159609Y-112723285D01*
X148201090Y-112719200D01*
X148877310Y-112719200D01*
X148918791Y-112723285D01*
G37*
G36*
X152679668Y-112574565D02*
G01*
X152718338Y-112586296D01*
X152753977Y-112605346D01*
X152785217Y-112630983D01*
X152810854Y-112662223D01*
X152829904Y-112697862D01*
X152841635Y-112736532D01*
X152846200Y-112782888D01*
X152846200Y-113434112D01*
X152841635Y-113480468D01*
X152829904Y-113519138D01*
X152810854Y-113554777D01*
X152785217Y-113586017D01*
X152753977Y-113611654D01*
X152718338Y-113630704D01*
X152679668Y-113642435D01*
X152633312Y-113647000D01*
X151557088Y-113647000D01*
X151510732Y-113642435D01*
X151472062Y-113630704D01*
X151436423Y-113611654D01*
X151405183Y-113586017D01*
X151379546Y-113554777D01*
X151360496Y-113519138D01*
X151348765Y-113480468D01*
X151344200Y-113434112D01*
X151344200Y-112782888D01*
X151348765Y-112736532D01*
X151360496Y-112697862D01*
X151379546Y-112662223D01*
X151405183Y-112630983D01*
X151436423Y-112605346D01*
X151472062Y-112586296D01*
X151510732Y-112574565D01*
X151557088Y-112570000D01*
X152633312Y-112570000D01*
X152679668Y-112574565D01*
G37*
G36*
X175929400Y-113039000D02*
G01*
X175027400Y-113039000D01*
X175027400Y-112037000D01*
X175929400Y-112037000D01*
X175929400Y-113039000D01*
G37*
G36*
X177829400Y-113039000D02*
G01*
X176927400Y-113039000D01*
X176927400Y-112037000D01*
X177829400Y-112037000D01*
X177829400Y-113039000D01*
G37*
G36*
X147391500Y-111911000D02*
G01*
X138739500Y-111911000D01*
X138739500Y-110309000D01*
X147391500Y-110309000D01*
X147391500Y-111911000D01*
G37*
G36*
X111568712Y-109593927D02*
G01*
X111718012Y-109623624D01*
X111881984Y-109691544D01*
X112029554Y-109790147D01*
X112155053Y-109915646D01*
X112253656Y-110063216D01*
X112321576Y-110227188D01*
X112356200Y-110401259D01*
X112356200Y-110578741D01*
X112321576Y-110752812D01*
X112253656Y-110916784D01*
X112155053Y-111064354D01*
X112029554Y-111189853D01*
X111881984Y-111288456D01*
X111718012Y-111356376D01*
X111568712Y-111386073D01*
X111543942Y-111391000D01*
X111366458Y-111391000D01*
X111341688Y-111386073D01*
X111192388Y-111356376D01*
X111028416Y-111288456D01*
X110880846Y-111189853D01*
X110755347Y-111064354D01*
X110656744Y-110916784D01*
X110588824Y-110752812D01*
X110554200Y-110578741D01*
X110554200Y-110401259D01*
X110588824Y-110227188D01*
X110656744Y-110063216D01*
X110755347Y-109915646D01*
X110880846Y-109790147D01*
X111028416Y-109691544D01*
X111192388Y-109623624D01*
X111341688Y-109593927D01*
X111366458Y-109589000D01*
X111543942Y-109589000D01*
X111568712Y-109593927D01*
G37*
G36*
X178316823Y-109200113D02*
G01*
X178477242Y-109248776D01*
X178609906Y-109319686D01*
X178625078Y-109327796D01*
X178754659Y-109434141D01*
X178861004Y-109563722D01*
X178861005Y-109563724D01*
X178940024Y-109711558D01*
X178988687Y-109871977D01*
X179005117Y-110038800D01*
X178988687Y-110205623D01*
X178940024Y-110366042D01*
X178921200Y-110401259D01*
X178861004Y-110513878D01*
X178754659Y-110643459D01*
X178625078Y-110749804D01*
X178625076Y-110749805D01*
X178477242Y-110828824D01*
X178316823Y-110877487D01*
X178191804Y-110889800D01*
X177708196Y-110889800D01*
X177583177Y-110877487D01*
X177422758Y-110828824D01*
X177274924Y-110749805D01*
X177274922Y-110749804D01*
X177145341Y-110643459D01*
X177038996Y-110513878D01*
X176978800Y-110401259D01*
X176959976Y-110366042D01*
X176911313Y-110205623D01*
X176894883Y-110038800D01*
X176911313Y-109871977D01*
X176959976Y-109711558D01*
X177038995Y-109563724D01*
X177038996Y-109563722D01*
X177145341Y-109434141D01*
X177274922Y-109327796D01*
X177290094Y-109319686D01*
X177422758Y-109248776D01*
X177583177Y-109200113D01*
X177708196Y-109187800D01*
X178191804Y-109187800D01*
X178316823Y-109200113D01*
G37*
G36*
X171316823Y-109200113D02*
G01*
X171477242Y-109248776D01*
X171609906Y-109319686D01*
X171625078Y-109327796D01*
X171754659Y-109434141D01*
X171861004Y-109563722D01*
X171861005Y-109563724D01*
X171940024Y-109711558D01*
X171988687Y-109871977D01*
X172005117Y-110038800D01*
X171988687Y-110205623D01*
X171940024Y-110366042D01*
X171921200Y-110401259D01*
X171861004Y-110513878D01*
X171754659Y-110643459D01*
X171625078Y-110749804D01*
X171625076Y-110749805D01*
X171477242Y-110828824D01*
X171316823Y-110877487D01*
X171191804Y-110889800D01*
X170708196Y-110889800D01*
X170583177Y-110877487D01*
X170422758Y-110828824D01*
X170274924Y-110749805D01*
X170274922Y-110749804D01*
X170145341Y-110643459D01*
X170038996Y-110513878D01*
X169978800Y-110401259D01*
X169959976Y-110366042D01*
X169911313Y-110205623D01*
X169894883Y-110038800D01*
X169911313Y-109871977D01*
X169959976Y-109711558D01*
X170038995Y-109563724D01*
X170038996Y-109563722D01*
X170145341Y-109434141D01*
X170274922Y-109327796D01*
X170290094Y-109319686D01*
X170422758Y-109248776D01*
X170583177Y-109200113D01*
X170708196Y-109187800D01*
X171191804Y-109187800D01*
X171316823Y-109200113D01*
G37*
G36*
X175316823Y-109200113D02*
G01*
X175477242Y-109248776D01*
X175609906Y-109319686D01*
X175625078Y-109327796D01*
X175754659Y-109434141D01*
X175861004Y-109563722D01*
X175861005Y-109563724D01*
X175940024Y-109711558D01*
X175988687Y-109871977D01*
X176005117Y-110038800D01*
X175988687Y-110205623D01*
X175940024Y-110366042D01*
X175921200Y-110401259D01*
X175861004Y-110513878D01*
X175754659Y-110643459D01*
X175625078Y-110749804D01*
X175625076Y-110749805D01*
X175477242Y-110828824D01*
X175316823Y-110877487D01*
X175191804Y-110889800D01*
X174708196Y-110889800D01*
X174583177Y-110877487D01*
X174422758Y-110828824D01*
X174274924Y-110749805D01*
X174274922Y-110749804D01*
X174145341Y-110643459D01*
X174038996Y-110513878D01*
X173978800Y-110401259D01*
X173959976Y-110366042D01*
X173911313Y-110205623D01*
X173894883Y-110038800D01*
X173911313Y-109871977D01*
X173959976Y-109711558D01*
X174038995Y-109563724D01*
X174038996Y-109563722D01*
X174145341Y-109434141D01*
X174274922Y-109327796D01*
X174290094Y-109319686D01*
X174422758Y-109248776D01*
X174583177Y-109200113D01*
X174708196Y-109187800D01*
X175191804Y-109187800D01*
X175316823Y-109200113D01*
G37*
G36*
X114512200Y-110163800D02*
G01*
X113510200Y-110163800D01*
X113510200Y-109261800D01*
X114512200Y-109261800D01*
X114512200Y-110163800D01*
G37*
G36*
X168516568Y-108937765D02*
G01*
X168555238Y-108949496D01*
X168590877Y-108968546D01*
X168622117Y-108994183D01*
X168647754Y-109025423D01*
X168666804Y-109061062D01*
X168678535Y-109099732D01*
X168683100Y-109146088D01*
X168683100Y-109797312D01*
X168678535Y-109843668D01*
X168666804Y-109882338D01*
X168647754Y-109917977D01*
X168622117Y-109949217D01*
X168590877Y-109974854D01*
X168555238Y-109993904D01*
X168516568Y-110005635D01*
X168470212Y-110010200D01*
X167393988Y-110010200D01*
X167347632Y-110005635D01*
X167308962Y-109993904D01*
X167273323Y-109974854D01*
X167242083Y-109949217D01*
X167216446Y-109917977D01*
X167197396Y-109882338D01*
X167185665Y-109843668D01*
X167181100Y-109797312D01*
X167181100Y-109146088D01*
X167185665Y-109099732D01*
X167197396Y-109061062D01*
X167216446Y-109025423D01*
X167242083Y-108994183D01*
X167273323Y-108968546D01*
X167308962Y-108949496D01*
X167347632Y-108937765D01*
X167393988Y-108933200D01*
X168470212Y-108933200D01*
X168516568Y-108937765D01*
G37*
G36*
X134784391Y-108850485D02*
G01*
X134818369Y-108860793D01*
X134849690Y-108877534D01*
X134877139Y-108900061D01*
X134899666Y-108927510D01*
X134916407Y-108958831D01*
X134926715Y-108992809D01*
X134930800Y-109034290D01*
X134930800Y-109710510D01*
X134926715Y-109751991D01*
X134916407Y-109785969D01*
X134899666Y-109817290D01*
X134877139Y-109844739D01*
X134849690Y-109867266D01*
X134818369Y-109884007D01*
X134784391Y-109894315D01*
X134742910Y-109898400D01*
X134141690Y-109898400D01*
X134100209Y-109894315D01*
X134066231Y-109884007D01*
X134034910Y-109867266D01*
X134007461Y-109844739D01*
X133984934Y-109817290D01*
X133968193Y-109785969D01*
X133957885Y-109751991D01*
X133953800Y-109710510D01*
X133953800Y-109034290D01*
X133957885Y-108992809D01*
X133968193Y-108958831D01*
X133984934Y-108927510D01*
X134007461Y-108900061D01*
X134034910Y-108877534D01*
X134066231Y-108860793D01*
X134100209Y-108850485D01*
X134141690Y-108846400D01*
X134742910Y-108846400D01*
X134784391Y-108850485D01*
G37*
G36*
X133209391Y-108850485D02*
G01*
X133243369Y-108860793D01*
X133274690Y-108877534D01*
X133302139Y-108900061D01*
X133324666Y-108927510D01*
X133341407Y-108958831D01*
X133351715Y-108992809D01*
X133355800Y-109034290D01*
X133355800Y-109710510D01*
X133351715Y-109751991D01*
X133341407Y-109785969D01*
X133324666Y-109817290D01*
X133302139Y-109844739D01*
X133274690Y-109867266D01*
X133243369Y-109884007D01*
X133209391Y-109894315D01*
X133167910Y-109898400D01*
X132566690Y-109898400D01*
X132525209Y-109894315D01*
X132491231Y-109884007D01*
X132459910Y-109867266D01*
X132432461Y-109844739D01*
X132409934Y-109817290D01*
X132393193Y-109785969D01*
X132382885Y-109751991D01*
X132378800Y-109710510D01*
X132378800Y-109034290D01*
X132382885Y-108992809D01*
X132393193Y-108958831D01*
X132409934Y-108927510D01*
X132432461Y-108900061D01*
X132459910Y-108877534D01*
X132491231Y-108860793D01*
X132525209Y-108850485D01*
X132566690Y-108846400D01*
X133167910Y-108846400D01*
X133209391Y-108850485D01*
G37*
G36*
X149566500Y-109736000D02*
G01*
X147964500Y-109736000D01*
X147964500Y-101084000D01*
X149566500Y-101084000D01*
X149566500Y-109736000D01*
G37*
G36*
X138166500Y-109736000D02*
G01*
X136564500Y-109736000D01*
X136564500Y-101084000D01*
X138166500Y-101084000D01*
X138166500Y-109736000D01*
G37*
G36*
X116512200Y-109213800D02*
G01*
X115510200Y-109213800D01*
X115510200Y-108311800D01*
X116512200Y-108311800D01*
X116512200Y-109213800D01*
G37*
G36*
X111568712Y-107053927D02*
G01*
X111718012Y-107083624D01*
X111881984Y-107151544D01*
X112029554Y-107250147D01*
X112155053Y-107375646D01*
X112253656Y-107523216D01*
X112321576Y-107687188D01*
X112351273Y-107836488D01*
X112356200Y-107861258D01*
X112356200Y-108038742D01*
X112352700Y-108056339D01*
X112321576Y-108212812D01*
X112253656Y-108376784D01*
X112155053Y-108524354D01*
X112029554Y-108649853D01*
X111881984Y-108748456D01*
X111718012Y-108816376D01*
X111568712Y-108846073D01*
X111543942Y-108851000D01*
X111366458Y-108851000D01*
X111341688Y-108846073D01*
X111192388Y-108816376D01*
X111028416Y-108748456D01*
X110880846Y-108649853D01*
X110755347Y-108524354D01*
X110656744Y-108376784D01*
X110588824Y-108212812D01*
X110557700Y-108056339D01*
X110554200Y-108038742D01*
X110554200Y-107861258D01*
X110559127Y-107836488D01*
X110588824Y-107687188D01*
X110656744Y-107523216D01*
X110755347Y-107375646D01*
X110880846Y-107250147D01*
X111028416Y-107151544D01*
X111192388Y-107083624D01*
X111341688Y-107053927D01*
X111366458Y-107049000D01*
X111543942Y-107049000D01*
X111568712Y-107053927D01*
G37*
G36*
X151580468Y-107076565D02*
G01*
X151619138Y-107088296D01*
X151654777Y-107107346D01*
X151686017Y-107132983D01*
X151711654Y-107164223D01*
X151730704Y-107199862D01*
X151742435Y-107238532D01*
X151747000Y-107284888D01*
X151747000Y-108361112D01*
X151742435Y-108407468D01*
X151730704Y-108446138D01*
X151711654Y-108481777D01*
X151686017Y-108513017D01*
X151654777Y-108538654D01*
X151619138Y-108557704D01*
X151580468Y-108569435D01*
X151534112Y-108574000D01*
X150882888Y-108574000D01*
X150836532Y-108569435D01*
X150797862Y-108557704D01*
X150762223Y-108538654D01*
X150730983Y-108513017D01*
X150705346Y-108481777D01*
X150686296Y-108446138D01*
X150674565Y-108407468D01*
X150670000Y-108361112D01*
X150670000Y-107284888D01*
X150674565Y-107238532D01*
X150686296Y-107199862D01*
X150705346Y-107164223D01*
X150730983Y-107132983D01*
X150762223Y-107107346D01*
X150797862Y-107088296D01*
X150836532Y-107076565D01*
X150882888Y-107072000D01*
X151534112Y-107072000D01*
X151580468Y-107076565D01*
G37*
G36*
X153455468Y-107076565D02*
G01*
X153494138Y-107088296D01*
X153529777Y-107107346D01*
X153561017Y-107132983D01*
X153586654Y-107164223D01*
X153605704Y-107199862D01*
X153617435Y-107238532D01*
X153622000Y-107284888D01*
X153622000Y-108361112D01*
X153617435Y-108407468D01*
X153605704Y-108446138D01*
X153586654Y-108481777D01*
X153561017Y-108513017D01*
X153529777Y-108538654D01*
X153494138Y-108557704D01*
X153455468Y-108569435D01*
X153409112Y-108574000D01*
X152757888Y-108574000D01*
X152711532Y-108569435D01*
X152672862Y-108557704D01*
X152637223Y-108538654D01*
X152605983Y-108513017D01*
X152580346Y-108481777D01*
X152561296Y-108446138D01*
X152549565Y-108407468D01*
X152545000Y-108361112D01*
X152545000Y-107284888D01*
X152549565Y-107238532D01*
X152561296Y-107199862D01*
X152580346Y-107164223D01*
X152605983Y-107132983D01*
X152637223Y-107107346D01*
X152672862Y-107088296D01*
X152711532Y-107076565D01*
X152757888Y-107072000D01*
X153409112Y-107072000D01*
X153455468Y-107076565D01*
G37*
G36*
X175334791Y-107338685D02*
G01*
X175368769Y-107348993D01*
X175400090Y-107365734D01*
X175427539Y-107388261D01*
X175450066Y-107415710D01*
X175466807Y-107447031D01*
X175477115Y-107481009D01*
X175481200Y-107522490D01*
X175481200Y-108123710D01*
X175477115Y-108165191D01*
X175466807Y-108199169D01*
X175450066Y-108230490D01*
X175427539Y-108257939D01*
X175400090Y-108280466D01*
X175368769Y-108297207D01*
X175334791Y-108307515D01*
X175293310Y-108311600D01*
X174617090Y-108311600D01*
X174575609Y-108307515D01*
X174541631Y-108297207D01*
X174510310Y-108280466D01*
X174482861Y-108257939D01*
X174460334Y-108230490D01*
X174443593Y-108199169D01*
X174433285Y-108165191D01*
X174429200Y-108123710D01*
X174429200Y-107522490D01*
X174433285Y-107481009D01*
X174443593Y-107447031D01*
X174460334Y-107415710D01*
X174482861Y-107388261D01*
X174510310Y-107365734D01*
X174541631Y-107348993D01*
X174575609Y-107338685D01*
X174617090Y-107334600D01*
X175293310Y-107334600D01*
X175334791Y-107338685D01*
G37*
G36*
X114512200Y-108263800D02*
G01*
X113510200Y-108263800D01*
X113510200Y-107361800D01*
X114512200Y-107361800D01*
X114512200Y-108263800D01*
G37*
G36*
X178331991Y-107287885D02*
G01*
X178365969Y-107298193D01*
X178397290Y-107314934D01*
X178424739Y-107337461D01*
X178447266Y-107364910D01*
X178464007Y-107396231D01*
X178474315Y-107430209D01*
X178478400Y-107471690D01*
X178478400Y-108072910D01*
X178474315Y-108114391D01*
X178464007Y-108148369D01*
X178447266Y-108179690D01*
X178424739Y-108207139D01*
X178397290Y-108229666D01*
X178365969Y-108246407D01*
X178331991Y-108256715D01*
X178290510Y-108260800D01*
X177614290Y-108260800D01*
X177572809Y-108256715D01*
X177538831Y-108246407D01*
X177507510Y-108229666D01*
X177480061Y-108207139D01*
X177457534Y-108179690D01*
X177440793Y-108148369D01*
X177430485Y-108114391D01*
X177426400Y-108072910D01*
X177426400Y-107471690D01*
X177430485Y-107430209D01*
X177440793Y-107396231D01*
X177457534Y-107364910D01*
X177480061Y-107337461D01*
X177507510Y-107314934D01*
X177538831Y-107298193D01*
X177572809Y-107287885D01*
X177614290Y-107283800D01*
X178290510Y-107283800D01*
X178331991Y-107287885D01*
G37*
G36*
X172681552Y-107305131D02*
G01*
X172763627Y-107339128D01*
X172763629Y-107339129D01*
X172797558Y-107361800D01*
X172837160Y-107388261D01*
X172837496Y-107388486D01*
X172900314Y-107451304D01*
X172948365Y-107523216D01*
X172949672Y-107525173D01*
X172983669Y-107607248D01*
X173001000Y-107694379D01*
X173001000Y-107783221D01*
X172983669Y-107870352D01*
X172949672Y-107952427D01*
X172912982Y-108007338D01*
X172900314Y-108026296D01*
X172837496Y-108089114D01*
X172763629Y-108138471D01*
X172763628Y-108138472D01*
X172763627Y-108138472D01*
X172681552Y-108172469D01*
X172594421Y-108189800D01*
X172505579Y-108189800D01*
X172418448Y-108172469D01*
X172336373Y-108138472D01*
X172336372Y-108138472D01*
X172336371Y-108138471D01*
X172262504Y-108089114D01*
X172199686Y-108026296D01*
X172187019Y-108007338D01*
X172150328Y-107952427D01*
X172116331Y-107870352D01*
X172099000Y-107783221D01*
X172099000Y-107694379D01*
X172116331Y-107607248D01*
X172150328Y-107525173D01*
X172151636Y-107523216D01*
X172199686Y-107451304D01*
X172262504Y-107388486D01*
X172262841Y-107388261D01*
X172302442Y-107361800D01*
X172336371Y-107339129D01*
X172336373Y-107339128D01*
X172418448Y-107305131D01*
X172505579Y-107287800D01*
X172594421Y-107287800D01*
X172681552Y-107305131D01*
G37*
G36*
X179681552Y-107305131D02*
G01*
X179763627Y-107339128D01*
X179763629Y-107339129D01*
X179797558Y-107361800D01*
X179837160Y-107388261D01*
X179837496Y-107388486D01*
X179900314Y-107451304D01*
X179948365Y-107523216D01*
X179949672Y-107525173D01*
X179983669Y-107607248D01*
X180001000Y-107694379D01*
X180001000Y-107783221D01*
X179983669Y-107870352D01*
X179949672Y-107952427D01*
X179912982Y-108007338D01*
X179900314Y-108026296D01*
X179837496Y-108089114D01*
X179763629Y-108138471D01*
X179763628Y-108138472D01*
X179763627Y-108138472D01*
X179681552Y-108172469D01*
X179594421Y-108189800D01*
X179505579Y-108189800D01*
X179418448Y-108172469D01*
X179336373Y-108138472D01*
X179336372Y-108138472D01*
X179336371Y-108138471D01*
X179262504Y-108089114D01*
X179199686Y-108026296D01*
X179187019Y-108007338D01*
X179150328Y-107952427D01*
X179116331Y-107870352D01*
X179099000Y-107783221D01*
X179099000Y-107694379D01*
X179116331Y-107607248D01*
X179150328Y-107525173D01*
X179151636Y-107523216D01*
X179199686Y-107451304D01*
X179262504Y-107388486D01*
X179262841Y-107388261D01*
X179302442Y-107361800D01*
X179336371Y-107339129D01*
X179336373Y-107339128D01*
X179418448Y-107305131D01*
X179505579Y-107287800D01*
X179594421Y-107287800D01*
X179681552Y-107305131D01*
G37*
G36*
X168516568Y-107062765D02*
G01*
X168555238Y-107074496D01*
X168590877Y-107093546D01*
X168622117Y-107119183D01*
X168647754Y-107150423D01*
X168666804Y-107186062D01*
X168678535Y-107224732D01*
X168683100Y-107271088D01*
X168683100Y-107922312D01*
X168678535Y-107968668D01*
X168666804Y-108007338D01*
X168647754Y-108042977D01*
X168622117Y-108074217D01*
X168590877Y-108099854D01*
X168555238Y-108118904D01*
X168516568Y-108130635D01*
X168470212Y-108135200D01*
X167393988Y-108135200D01*
X167347632Y-108130635D01*
X167308962Y-108118904D01*
X167273323Y-108099854D01*
X167242083Y-108074217D01*
X167216446Y-108042977D01*
X167197396Y-108007338D01*
X167185665Y-107968668D01*
X167181100Y-107922312D01*
X167181100Y-107271088D01*
X167185665Y-107224732D01*
X167197396Y-107186062D01*
X167216446Y-107150423D01*
X167242083Y-107119183D01*
X167273323Y-107093546D01*
X167308962Y-107074496D01*
X167347632Y-107062765D01*
X167393988Y-107058200D01*
X168470212Y-107058200D01*
X168516568Y-107062765D01*
G37*
G36*
X133506600Y-108073800D02*
G01*
X132204600Y-108073800D01*
X132204600Y-106571800D01*
X133506600Y-106571800D01*
X133506600Y-108073800D01*
G37*
G36*
X135206600Y-108073800D02*
G01*
X133904600Y-108073800D01*
X133904600Y-106571800D01*
X135206600Y-106571800D01*
X135206600Y-108073800D01*
G37*
G36*
X175334791Y-105763685D02*
G01*
X175368769Y-105773993D01*
X175400090Y-105790734D01*
X175427539Y-105813261D01*
X175450066Y-105840710D01*
X175466807Y-105872031D01*
X175477115Y-105906009D01*
X175481200Y-105947490D01*
X175481200Y-106548710D01*
X175477115Y-106590191D01*
X175466807Y-106624169D01*
X175450066Y-106655490D01*
X175427539Y-106682939D01*
X175400090Y-106705466D01*
X175368769Y-106722207D01*
X175334791Y-106732515D01*
X175293310Y-106736600D01*
X174617090Y-106736600D01*
X174575609Y-106732515D01*
X174541631Y-106722207D01*
X174510310Y-106705466D01*
X174482861Y-106682939D01*
X174460334Y-106655490D01*
X174443593Y-106624169D01*
X174433285Y-106590191D01*
X174429200Y-106548710D01*
X174429200Y-105947490D01*
X174433285Y-105906009D01*
X174443593Y-105872031D01*
X174460334Y-105840710D01*
X174482861Y-105813261D01*
X174510310Y-105790734D01*
X174541631Y-105773993D01*
X174575609Y-105763685D01*
X174617090Y-105759600D01*
X175293310Y-105759600D01*
X175334791Y-105763685D01*
G37*
G36*
X178331991Y-105712885D02*
G01*
X178365969Y-105723193D01*
X178397290Y-105739934D01*
X178424739Y-105762461D01*
X178447266Y-105789910D01*
X178464007Y-105821231D01*
X178474315Y-105855209D01*
X178478400Y-105896690D01*
X178478400Y-106497910D01*
X178474315Y-106539391D01*
X178464007Y-106573369D01*
X178447266Y-106604690D01*
X178424739Y-106632139D01*
X178397290Y-106654666D01*
X178365969Y-106671407D01*
X178331991Y-106681715D01*
X178290510Y-106685800D01*
X177614290Y-106685800D01*
X177572809Y-106681715D01*
X177538831Y-106671407D01*
X177507510Y-106654666D01*
X177480061Y-106632139D01*
X177457534Y-106604690D01*
X177440793Y-106573369D01*
X177430485Y-106539391D01*
X177426400Y-106497910D01*
X177426400Y-105896690D01*
X177430485Y-105855209D01*
X177440793Y-105821231D01*
X177457534Y-105789910D01*
X177480061Y-105762461D01*
X177507510Y-105739934D01*
X177538831Y-105723193D01*
X177572809Y-105712885D01*
X177614290Y-105708800D01*
X178290510Y-105708800D01*
X178331991Y-105712885D01*
G37*
G36*
X111568712Y-104513927D02*
G01*
X111718012Y-104543624D01*
X111881984Y-104611544D01*
X112029554Y-104710147D01*
X112155053Y-104835646D01*
X112253656Y-104983216D01*
X112321576Y-105147188D01*
X112356200Y-105321259D01*
X112356200Y-105498741D01*
X112321576Y-105672812D01*
X112253656Y-105836784D01*
X112155053Y-105984354D01*
X112029554Y-106109853D01*
X111881984Y-106208456D01*
X111718012Y-106276376D01*
X111568712Y-106306073D01*
X111543942Y-106311000D01*
X111366458Y-106311000D01*
X111341688Y-106306073D01*
X111192388Y-106276376D01*
X111028416Y-106208456D01*
X110880846Y-106109853D01*
X110755347Y-105984354D01*
X110656744Y-105836784D01*
X110588824Y-105672812D01*
X110554200Y-105498741D01*
X110554200Y-105321259D01*
X110588824Y-105147188D01*
X110656744Y-104983216D01*
X110755347Y-104835646D01*
X110880846Y-104710147D01*
X111028416Y-104611544D01*
X111192388Y-104543624D01*
X111341688Y-104513927D01*
X111366458Y-104509000D01*
X111543942Y-104509000D01*
X111568712Y-104513927D01*
G37*
G36*
X170216823Y-104600113D02*
G01*
X170377242Y-104648776D01*
X170492059Y-104710147D01*
X170525078Y-104727796D01*
X170654659Y-104834141D01*
X170761004Y-104963722D01*
X170761005Y-104963724D01*
X170840024Y-105111558D01*
X170888687Y-105271977D01*
X170905117Y-105438800D01*
X170888687Y-105605623D01*
X170840024Y-105766042D01*
X170800113Y-105840710D01*
X170761004Y-105913878D01*
X170654659Y-106043459D01*
X170525078Y-106149804D01*
X170525076Y-106149805D01*
X170377242Y-106228824D01*
X170216823Y-106277487D01*
X170091804Y-106289800D01*
X169608196Y-106289800D01*
X169483177Y-106277487D01*
X169322758Y-106228824D01*
X169174924Y-106149805D01*
X169174922Y-106149804D01*
X169045341Y-106043459D01*
X168938996Y-105913878D01*
X168899887Y-105840710D01*
X168859976Y-105766042D01*
X168811313Y-105605623D01*
X168794883Y-105438800D01*
X168811313Y-105271977D01*
X168859976Y-105111558D01*
X168938995Y-104963724D01*
X168938996Y-104963722D01*
X169045341Y-104834141D01*
X169174922Y-104727796D01*
X169207941Y-104710147D01*
X169322758Y-104648776D01*
X169483177Y-104600113D01*
X169608196Y-104587800D01*
X170091804Y-104587800D01*
X170216823Y-104600113D01*
G37*
G36*
X135206600Y-105873800D02*
G01*
X133904600Y-105873800D01*
X133904600Y-104371800D01*
X135206600Y-104371800D01*
X135206600Y-105873800D01*
G37*
G36*
X133506600Y-105873800D02*
G01*
X132204600Y-105873800D01*
X132204600Y-104371800D01*
X133506600Y-104371800D01*
X133506600Y-105873800D01*
G37*
G36*
X124028468Y-103933965D02*
G01*
X124067138Y-103945696D01*
X124102777Y-103964746D01*
X124134017Y-103990383D01*
X124159654Y-104021623D01*
X124178704Y-104057262D01*
X124190435Y-104095932D01*
X124195000Y-104142288D01*
X124195000Y-104793512D01*
X124190435Y-104839868D01*
X124178704Y-104878538D01*
X124159654Y-104914177D01*
X124134017Y-104945417D01*
X124102777Y-104971054D01*
X124067138Y-104990104D01*
X124028468Y-105001835D01*
X123982112Y-105006400D01*
X122905888Y-105006400D01*
X122859532Y-105001835D01*
X122820862Y-104990104D01*
X122785223Y-104971054D01*
X122753983Y-104945417D01*
X122728346Y-104914177D01*
X122709296Y-104878538D01*
X122697565Y-104839868D01*
X122693000Y-104793512D01*
X122693000Y-104142288D01*
X122697565Y-104095932D01*
X122709296Y-104057262D01*
X122728346Y-104021623D01*
X122753983Y-103990383D01*
X122785223Y-103964746D01*
X122820862Y-103945696D01*
X122859532Y-103933965D01*
X122905888Y-103929400D01*
X123982112Y-103929400D01*
X124028468Y-103933965D01*
G37*
G36*
X111568712Y-101973927D02*
G01*
X111718012Y-102003624D01*
X111881984Y-102071544D01*
X112029554Y-102170147D01*
X112155053Y-102295646D01*
X112253656Y-102443216D01*
X112321576Y-102607188D01*
X112356200Y-102781259D01*
X112356200Y-102958741D01*
X112321576Y-103132812D01*
X112253656Y-103296784D01*
X112155053Y-103444354D01*
X112029554Y-103569853D01*
X111881984Y-103668456D01*
X111718012Y-103736376D01*
X111568712Y-103766073D01*
X111543942Y-103771000D01*
X111366458Y-103771000D01*
X111341688Y-103766073D01*
X111192388Y-103736376D01*
X111028416Y-103668456D01*
X110880846Y-103569853D01*
X110755347Y-103444354D01*
X110656744Y-103296784D01*
X110588824Y-103132812D01*
X110554200Y-102958741D01*
X110554200Y-102781259D01*
X110588824Y-102607188D01*
X110656744Y-102443216D01*
X110755347Y-102295646D01*
X110880846Y-102170147D01*
X111028416Y-102071544D01*
X111192388Y-102003624D01*
X111341688Y-101973927D01*
X111366458Y-101969000D01*
X111543942Y-101969000D01*
X111568712Y-101973927D01*
G37*
G36*
X133209391Y-102398885D02*
G01*
X133243369Y-102409193D01*
X133274690Y-102425934D01*
X133302139Y-102448461D01*
X133324666Y-102475910D01*
X133341407Y-102507231D01*
X133351715Y-102541209D01*
X133355800Y-102582690D01*
X133355800Y-103258910D01*
X133351715Y-103300391D01*
X133341407Y-103334369D01*
X133324666Y-103365690D01*
X133302139Y-103393139D01*
X133274690Y-103415666D01*
X133243369Y-103432407D01*
X133209391Y-103442715D01*
X133167910Y-103446800D01*
X132566690Y-103446800D01*
X132525209Y-103442715D01*
X132491231Y-103432407D01*
X132459910Y-103415666D01*
X132432461Y-103393139D01*
X132409934Y-103365690D01*
X132393193Y-103334369D01*
X132382885Y-103300391D01*
X132378800Y-103258910D01*
X132378800Y-102582690D01*
X132382885Y-102541209D01*
X132393193Y-102507231D01*
X132409934Y-102475910D01*
X132432461Y-102448461D01*
X132459910Y-102425934D01*
X132491231Y-102409193D01*
X132525209Y-102398885D01*
X132566690Y-102394800D01*
X133167910Y-102394800D01*
X133209391Y-102398885D01*
G37*
G36*
X134784391Y-102398885D02*
G01*
X134818369Y-102409193D01*
X134849690Y-102425934D01*
X134877139Y-102448461D01*
X134899666Y-102475910D01*
X134916407Y-102507231D01*
X134926715Y-102541209D01*
X134930800Y-102582690D01*
X134930800Y-103258910D01*
X134926715Y-103300391D01*
X134916407Y-103334369D01*
X134899666Y-103365690D01*
X134877139Y-103393139D01*
X134849690Y-103415666D01*
X134818369Y-103432407D01*
X134784391Y-103442715D01*
X134742910Y-103446800D01*
X134141690Y-103446800D01*
X134100209Y-103442715D01*
X134066231Y-103432407D01*
X134034910Y-103415666D01*
X134007461Y-103393139D01*
X133984934Y-103365690D01*
X133968193Y-103334369D01*
X133957885Y-103300391D01*
X133953800Y-103258910D01*
X133953800Y-102582690D01*
X133957885Y-102541209D01*
X133968193Y-102507231D01*
X133984934Y-102475910D01*
X134007461Y-102448461D01*
X134034910Y-102425934D01*
X134066231Y-102409193D01*
X134100209Y-102398885D01*
X134141690Y-102394800D01*
X134742910Y-102394800D01*
X134784391Y-102398885D01*
G37*
G36*
X176879400Y-103304200D02*
G01*
X175977400Y-103304200D01*
X175977400Y-102302200D01*
X176879400Y-102302200D01*
X176879400Y-103304200D01*
G37*
G36*
X124028468Y-102058965D02*
G01*
X124067138Y-102070696D01*
X124102777Y-102089746D01*
X124134017Y-102115383D01*
X124159654Y-102146623D01*
X124178704Y-102182262D01*
X124190435Y-102220932D01*
X124195000Y-102267288D01*
X124195000Y-102918512D01*
X124190435Y-102964868D01*
X124178704Y-103003538D01*
X124159654Y-103039177D01*
X124134017Y-103070417D01*
X124102777Y-103096054D01*
X124067138Y-103115104D01*
X124028468Y-103126835D01*
X123982112Y-103131400D01*
X122905888Y-103131400D01*
X122859532Y-103126835D01*
X122820862Y-103115104D01*
X122785223Y-103096054D01*
X122753983Y-103070417D01*
X122728346Y-103039177D01*
X122709296Y-103003538D01*
X122697565Y-102964868D01*
X122693000Y-102918512D01*
X122693000Y-102267288D01*
X122697565Y-102220932D01*
X122709296Y-102182262D01*
X122728346Y-102146623D01*
X122753983Y-102115383D01*
X122785223Y-102089746D01*
X122820862Y-102070696D01*
X122859532Y-102058965D01*
X122905888Y-102054400D01*
X123982112Y-102054400D01*
X124028468Y-102058965D01*
G37*
G36*
X177829400Y-101304200D02*
G01*
X176927400Y-101304200D01*
X176927400Y-100302200D01*
X177829400Y-100302200D01*
X177829400Y-101304200D01*
G37*
G36*
X175929400Y-101304200D02*
G01*
X175027400Y-101304200D01*
X175027400Y-100302200D01*
X175929400Y-100302200D01*
X175929400Y-101304200D01*
G37*
G36*
X111568712Y-99433927D02*
G01*
X111718012Y-99463624D01*
X111881984Y-99531544D01*
X112029554Y-99630147D01*
X112155053Y-99755646D01*
X112253656Y-99903216D01*
X112321576Y-100067188D01*
X112356200Y-100241259D01*
X112356200Y-100418741D01*
X112321576Y-100592812D01*
X112253656Y-100756784D01*
X112155053Y-100904354D01*
X112029554Y-101029853D01*
X111881984Y-101128456D01*
X111718012Y-101196376D01*
X111568712Y-101226073D01*
X111543942Y-101231000D01*
X111366458Y-101231000D01*
X111341688Y-101226073D01*
X111192388Y-101196376D01*
X111028416Y-101128456D01*
X110880846Y-101029853D01*
X110755347Y-100904354D01*
X110656744Y-100756784D01*
X110588824Y-100592812D01*
X110554200Y-100418741D01*
X110554200Y-100241259D01*
X110588824Y-100067188D01*
X110656744Y-99903216D01*
X110755347Y-99755646D01*
X110880846Y-99630147D01*
X111028416Y-99531544D01*
X111192388Y-99463624D01*
X111341688Y-99433927D01*
X111366458Y-99429000D01*
X111543942Y-99429000D01*
X111568712Y-99433927D01*
G37*
G36*
X147391500Y-100511000D02*
G01*
X138739500Y-100511000D01*
X138739500Y-98909000D01*
X147391500Y-98909000D01*
X147391500Y-100511000D01*
G37*
G36*
X134797091Y-99173085D02*
G01*
X134831069Y-99183393D01*
X134862390Y-99200134D01*
X134889839Y-99222661D01*
X134912366Y-99250110D01*
X134929107Y-99281431D01*
X134939415Y-99315409D01*
X134943500Y-99356890D01*
X134943500Y-100033110D01*
X134939415Y-100074591D01*
X134929107Y-100108569D01*
X134912366Y-100139890D01*
X134889839Y-100167339D01*
X134862390Y-100189866D01*
X134831069Y-100206607D01*
X134797091Y-100216915D01*
X134755610Y-100221000D01*
X134154390Y-100221000D01*
X134112909Y-100216915D01*
X134078931Y-100206607D01*
X134047610Y-100189866D01*
X134020161Y-100167339D01*
X133997634Y-100139890D01*
X133980893Y-100108569D01*
X133970585Y-100074591D01*
X133966500Y-100033110D01*
X133966500Y-99356890D01*
X133970585Y-99315409D01*
X133980893Y-99281431D01*
X133997634Y-99250110D01*
X134020161Y-99222661D01*
X134047610Y-99200134D01*
X134078931Y-99183393D01*
X134112909Y-99173085D01*
X134154390Y-99169000D01*
X134755610Y-99169000D01*
X134797091Y-99173085D01*
G37*
G36*
X133222091Y-99173085D02*
G01*
X133256069Y-99183393D01*
X133287390Y-99200134D01*
X133314839Y-99222661D01*
X133337366Y-99250110D01*
X133354107Y-99281431D01*
X133364415Y-99315409D01*
X133368500Y-99356890D01*
X133368500Y-100033110D01*
X133364415Y-100074591D01*
X133354107Y-100108569D01*
X133337366Y-100139890D01*
X133314839Y-100167339D01*
X133287390Y-100189866D01*
X133256069Y-100206607D01*
X133222091Y-100216915D01*
X133180610Y-100221000D01*
X132579390Y-100221000D01*
X132537909Y-100216915D01*
X132503931Y-100206607D01*
X132472610Y-100189866D01*
X132445161Y-100167339D01*
X132422634Y-100139890D01*
X132405893Y-100108569D01*
X132395585Y-100074591D01*
X132391500Y-100033110D01*
X132391500Y-99356890D01*
X132395585Y-99315409D01*
X132405893Y-99281431D01*
X132422634Y-99250110D01*
X132445161Y-99222661D01*
X132472610Y-99200134D01*
X132503931Y-99183393D01*
X132537909Y-99173085D01*
X132579390Y-99169000D01*
X133180610Y-99169000D01*
X133222091Y-99173085D01*
G37*
G36*
X156132391Y-98042285D02*
G01*
X156166369Y-98052593D01*
X156197690Y-98069334D01*
X156225139Y-98091861D01*
X156247666Y-98119310D01*
X156264407Y-98150631D01*
X156274715Y-98184609D01*
X156278800Y-98226090D01*
X156278800Y-98827310D01*
X156274715Y-98868791D01*
X156264407Y-98902769D01*
X156247666Y-98934090D01*
X156225139Y-98961539D01*
X156197690Y-98984066D01*
X156166369Y-99000807D01*
X156132391Y-99011115D01*
X156090910Y-99015200D01*
X155414690Y-99015200D01*
X155373209Y-99011115D01*
X155339231Y-99000807D01*
X155307910Y-98984066D01*
X155280461Y-98961539D01*
X155257934Y-98934090D01*
X155241193Y-98902769D01*
X155230885Y-98868791D01*
X155226800Y-98827310D01*
X155226800Y-98226090D01*
X155230885Y-98184609D01*
X155241193Y-98150631D01*
X155257934Y-98119310D01*
X155280461Y-98091861D01*
X155307910Y-98069334D01*
X155339231Y-98052593D01*
X155373209Y-98042285D01*
X155414690Y-98038200D01*
X156090910Y-98038200D01*
X156132391Y-98042285D01*
G37*
G36*
X153033591Y-98042285D02*
G01*
X153067569Y-98052593D01*
X153098890Y-98069334D01*
X153126339Y-98091861D01*
X153148866Y-98119310D01*
X153165607Y-98150631D01*
X153175915Y-98184609D01*
X153180000Y-98226090D01*
X153180000Y-98827310D01*
X153175915Y-98868791D01*
X153165607Y-98902769D01*
X153148866Y-98934090D01*
X153126339Y-98961539D01*
X153098890Y-98984066D01*
X153067569Y-99000807D01*
X153033591Y-99011115D01*
X152992110Y-99015200D01*
X152315890Y-99015200D01*
X152274409Y-99011115D01*
X152240431Y-99000807D01*
X152209110Y-98984066D01*
X152181661Y-98961539D01*
X152159134Y-98934090D01*
X152142393Y-98902769D01*
X152132085Y-98868791D01*
X152128000Y-98827310D01*
X152128000Y-98226090D01*
X152132085Y-98184609D01*
X152142393Y-98150631D01*
X152159134Y-98119310D01*
X152181661Y-98091861D01*
X152209110Y-98069334D01*
X152240431Y-98052593D01*
X152274409Y-98042285D01*
X152315890Y-98038200D01*
X152992110Y-98038200D01*
X153033591Y-98042285D01*
G37*
G36*
X171316823Y-97198613D02*
G01*
X171477242Y-97247276D01*
X171564265Y-97293791D01*
X171625078Y-97326296D01*
X171754659Y-97432641D01*
X171861004Y-97562222D01*
X171861005Y-97562224D01*
X171940024Y-97710058D01*
X171940025Y-97710061D01*
X171949083Y-97739920D01*
X171988687Y-97870477D01*
X172005117Y-98037300D01*
X171988687Y-98204123D01*
X171940024Y-98364542D01*
X171883645Y-98470020D01*
X171861004Y-98512378D01*
X171754659Y-98641959D01*
X171625078Y-98748304D01*
X171625076Y-98748305D01*
X171477242Y-98827324D01*
X171316823Y-98875987D01*
X171191804Y-98888300D01*
X170708196Y-98888300D01*
X170583177Y-98875987D01*
X170422758Y-98827324D01*
X170274924Y-98748305D01*
X170274922Y-98748304D01*
X170145341Y-98641959D01*
X170038996Y-98512378D01*
X170016355Y-98470020D01*
X169959976Y-98364542D01*
X169911313Y-98204123D01*
X169894883Y-98037300D01*
X169911313Y-97870477D01*
X169950917Y-97739920D01*
X169959975Y-97710061D01*
X169959976Y-97710058D01*
X170038995Y-97562224D01*
X170038996Y-97562222D01*
X170145341Y-97432641D01*
X170274922Y-97326296D01*
X170335735Y-97293791D01*
X170422758Y-97247276D01*
X170583177Y-97198613D01*
X170708196Y-97186300D01*
X171191804Y-97186300D01*
X171316823Y-97198613D01*
G37*
G36*
X178316823Y-97198613D02*
G01*
X178477242Y-97247276D01*
X178564265Y-97293791D01*
X178625078Y-97326296D01*
X178754659Y-97432641D01*
X178861004Y-97562222D01*
X178861005Y-97562224D01*
X178940024Y-97710058D01*
X178940025Y-97710061D01*
X178949083Y-97739920D01*
X178988687Y-97870477D01*
X179005117Y-98037300D01*
X178988687Y-98204123D01*
X178940024Y-98364542D01*
X178883645Y-98470020D01*
X178861004Y-98512378D01*
X178754659Y-98641959D01*
X178625078Y-98748304D01*
X178625076Y-98748305D01*
X178477242Y-98827324D01*
X178316823Y-98875987D01*
X178191804Y-98888300D01*
X177708196Y-98888300D01*
X177583177Y-98875987D01*
X177422758Y-98827324D01*
X177274924Y-98748305D01*
X177274922Y-98748304D01*
X177145341Y-98641959D01*
X177038996Y-98512378D01*
X177016355Y-98470020D01*
X176959976Y-98364542D01*
X176911313Y-98204123D01*
X176894883Y-98037300D01*
X176911313Y-97870477D01*
X176950917Y-97739920D01*
X176959975Y-97710061D01*
X176959976Y-97710058D01*
X177038995Y-97562224D01*
X177038996Y-97562222D01*
X177145341Y-97432641D01*
X177274922Y-97326296D01*
X177335735Y-97293791D01*
X177422758Y-97247276D01*
X177583177Y-97198613D01*
X177708196Y-97186300D01*
X178191804Y-97186300D01*
X178316823Y-97198613D01*
G37*
G36*
X175316823Y-97198613D02*
G01*
X175477242Y-97247276D01*
X175564265Y-97293791D01*
X175625078Y-97326296D01*
X175754659Y-97432641D01*
X175861004Y-97562222D01*
X175861005Y-97562224D01*
X175940024Y-97710058D01*
X175940025Y-97710061D01*
X175949083Y-97739920D01*
X175988687Y-97870477D01*
X176005117Y-98037300D01*
X175988687Y-98204123D01*
X175940024Y-98364542D01*
X175883645Y-98470020D01*
X175861004Y-98512378D01*
X175754659Y-98641959D01*
X175625078Y-98748304D01*
X175625076Y-98748305D01*
X175477242Y-98827324D01*
X175316823Y-98875987D01*
X175191804Y-98888300D01*
X174708196Y-98888300D01*
X174583177Y-98875987D01*
X174422758Y-98827324D01*
X174274924Y-98748305D01*
X174274922Y-98748304D01*
X174145341Y-98641959D01*
X174038996Y-98512378D01*
X174016355Y-98470020D01*
X173959976Y-98364542D01*
X173911313Y-98204123D01*
X173894883Y-98037300D01*
X173911313Y-97870477D01*
X173950917Y-97739920D01*
X173959975Y-97710061D01*
X173959976Y-97710058D01*
X174038995Y-97562224D01*
X174038996Y-97562222D01*
X174145341Y-97432641D01*
X174274922Y-97326296D01*
X174335735Y-97293791D01*
X174422758Y-97247276D01*
X174583177Y-97198613D01*
X174708196Y-97186300D01*
X175191804Y-97186300D01*
X175316823Y-97198613D01*
G37*
G36*
X134784391Y-97572885D02*
G01*
X134818369Y-97583193D01*
X134849690Y-97599934D01*
X134877139Y-97622461D01*
X134899666Y-97649910D01*
X134916407Y-97681231D01*
X134926715Y-97715209D01*
X134930800Y-97756690D01*
X134930800Y-98432910D01*
X134926715Y-98474391D01*
X134916407Y-98508369D01*
X134899666Y-98539690D01*
X134877139Y-98567139D01*
X134849690Y-98589666D01*
X134818369Y-98606407D01*
X134784391Y-98616715D01*
X134742910Y-98620800D01*
X134141690Y-98620800D01*
X134100209Y-98616715D01*
X134066231Y-98606407D01*
X134034910Y-98589666D01*
X134007461Y-98567139D01*
X133984934Y-98539690D01*
X133968193Y-98508369D01*
X133957885Y-98474391D01*
X133953800Y-98432910D01*
X133953800Y-97756690D01*
X133957885Y-97715209D01*
X133968193Y-97681231D01*
X133984934Y-97649910D01*
X134007461Y-97622461D01*
X134034910Y-97599934D01*
X134066231Y-97583193D01*
X134100209Y-97572885D01*
X134141690Y-97568800D01*
X134742910Y-97568800D01*
X134784391Y-97572885D01*
G37*
G36*
X133209391Y-97572885D02*
G01*
X133243369Y-97583193D01*
X133274690Y-97599934D01*
X133302139Y-97622461D01*
X133324666Y-97649910D01*
X133341407Y-97681231D01*
X133351715Y-97715209D01*
X133355800Y-97756690D01*
X133355800Y-98432910D01*
X133351715Y-98474391D01*
X133341407Y-98508369D01*
X133324666Y-98539690D01*
X133302139Y-98567139D01*
X133274690Y-98589666D01*
X133243369Y-98606407D01*
X133209391Y-98616715D01*
X133167910Y-98620800D01*
X132566690Y-98620800D01*
X132525209Y-98616715D01*
X132491231Y-98606407D01*
X132459910Y-98589666D01*
X132432461Y-98567139D01*
X132409934Y-98539690D01*
X132393193Y-98508369D01*
X132382885Y-98474391D01*
X132378800Y-98432910D01*
X132378800Y-97756690D01*
X132382885Y-97715209D01*
X132393193Y-97681231D01*
X132409934Y-97649910D01*
X132432461Y-97622461D01*
X132459910Y-97599934D01*
X132491231Y-97583193D01*
X132525209Y-97572885D01*
X132566690Y-97568800D01*
X133167910Y-97568800D01*
X133209391Y-97572885D01*
G37*
G36*
X149579191Y-97331085D02*
G01*
X149613169Y-97341393D01*
X149644490Y-97358134D01*
X149671939Y-97380661D01*
X149694466Y-97408110D01*
X149711207Y-97439431D01*
X149721515Y-97473409D01*
X149725600Y-97514890D01*
X149725600Y-98116110D01*
X149721515Y-98157591D01*
X149711207Y-98191569D01*
X149694466Y-98222890D01*
X149671939Y-98250339D01*
X149644490Y-98272866D01*
X149613169Y-98289607D01*
X149579191Y-98299915D01*
X149537710Y-98304000D01*
X148861490Y-98304000D01*
X148820009Y-98299915D01*
X148786031Y-98289607D01*
X148754710Y-98272866D01*
X148727261Y-98250339D01*
X148704734Y-98222890D01*
X148687993Y-98191569D01*
X148677685Y-98157591D01*
X148673600Y-98116110D01*
X148673600Y-97514890D01*
X148677685Y-97473409D01*
X148687993Y-97439431D01*
X148704734Y-97408110D01*
X148727261Y-97380661D01*
X148754710Y-97358134D01*
X148786031Y-97341393D01*
X148820009Y-97331085D01*
X148861490Y-97327000D01*
X149537710Y-97327000D01*
X149579191Y-97331085D01*
G37*
G36*
X141095591Y-96696085D02*
G01*
X141129569Y-96706393D01*
X141160890Y-96723134D01*
X141188339Y-96745661D01*
X141210866Y-96773110D01*
X141227607Y-96804431D01*
X141237915Y-96838409D01*
X141242000Y-96879890D01*
X141242000Y-97481110D01*
X141237915Y-97522591D01*
X141227607Y-97556569D01*
X141210866Y-97587890D01*
X141188339Y-97615339D01*
X141160890Y-97637866D01*
X141129569Y-97654607D01*
X141095591Y-97664915D01*
X141054110Y-97669000D01*
X140377890Y-97669000D01*
X140336409Y-97664915D01*
X140302431Y-97654607D01*
X140271110Y-97637866D01*
X140243661Y-97615339D01*
X140221134Y-97587890D01*
X140204393Y-97556569D01*
X140194085Y-97522591D01*
X140190000Y-97481110D01*
X140190000Y-96879890D01*
X140194085Y-96838409D01*
X140204393Y-96804431D01*
X140221134Y-96773110D01*
X140243661Y-96745661D01*
X140271110Y-96723134D01*
X140302431Y-96706393D01*
X140336409Y-96696085D01*
X140377890Y-96692000D01*
X141054110Y-96692000D01*
X141095591Y-96696085D01*
G37*
G36*
X142683091Y-96696085D02*
G01*
X142717069Y-96706393D01*
X142748390Y-96723134D01*
X142775839Y-96745661D01*
X142798366Y-96773110D01*
X142815107Y-96804431D01*
X142825415Y-96838409D01*
X142829500Y-96879890D01*
X142829500Y-97481110D01*
X142825415Y-97522591D01*
X142815107Y-97556569D01*
X142798366Y-97587890D01*
X142775839Y-97615339D01*
X142748390Y-97637866D01*
X142717069Y-97654607D01*
X142683091Y-97664915D01*
X142641610Y-97669000D01*
X141965390Y-97669000D01*
X141923909Y-97664915D01*
X141889931Y-97654607D01*
X141858610Y-97637866D01*
X141831161Y-97615339D01*
X141808634Y-97587890D01*
X141791893Y-97556569D01*
X141781585Y-97522591D01*
X141777500Y-97481110D01*
X141777500Y-96879890D01*
X141781585Y-96838409D01*
X141791893Y-96804431D01*
X141808634Y-96773110D01*
X141831161Y-96745661D01*
X141858610Y-96723134D01*
X141889931Y-96706393D01*
X141923909Y-96696085D01*
X141965390Y-96692000D01*
X142641610Y-96692000D01*
X142683091Y-96696085D01*
G37*
G36*
X144842091Y-96696085D02*
G01*
X144876069Y-96706393D01*
X144907390Y-96723134D01*
X144934839Y-96745661D01*
X144957366Y-96773110D01*
X144974107Y-96804431D01*
X144984415Y-96838409D01*
X144988500Y-96879890D01*
X144988500Y-97481110D01*
X144984415Y-97522591D01*
X144974107Y-97556569D01*
X144957366Y-97587890D01*
X144934839Y-97615339D01*
X144907390Y-97637866D01*
X144876069Y-97654607D01*
X144842091Y-97664915D01*
X144800610Y-97669000D01*
X144124390Y-97669000D01*
X144082909Y-97664915D01*
X144048931Y-97654607D01*
X144017610Y-97637866D01*
X143990161Y-97615339D01*
X143967634Y-97587890D01*
X143950893Y-97556569D01*
X143940585Y-97522591D01*
X143936500Y-97481110D01*
X143936500Y-96879890D01*
X143940585Y-96838409D01*
X143950893Y-96804431D01*
X143967634Y-96773110D01*
X143990161Y-96745661D01*
X144017610Y-96723134D01*
X144048931Y-96706393D01*
X144082909Y-96696085D01*
X144124390Y-96692000D01*
X144800610Y-96692000D01*
X144842091Y-96696085D01*
G37*
G36*
X168846768Y-96529865D02*
G01*
X168885438Y-96541596D01*
X168921077Y-96560646D01*
X168952317Y-96586283D01*
X168977954Y-96617523D01*
X168997004Y-96653162D01*
X169008735Y-96691832D01*
X169013300Y-96738188D01*
X169013300Y-97389412D01*
X169008735Y-97435768D01*
X168997004Y-97474438D01*
X168977954Y-97510077D01*
X168952317Y-97541317D01*
X168921077Y-97566954D01*
X168885438Y-97586004D01*
X168846768Y-97597735D01*
X168800412Y-97602300D01*
X167724188Y-97602300D01*
X167677832Y-97597735D01*
X167639162Y-97586004D01*
X167603523Y-97566954D01*
X167572283Y-97541317D01*
X167546646Y-97510077D01*
X167527596Y-97474438D01*
X167515865Y-97435768D01*
X167511300Y-97389412D01*
X167511300Y-96738188D01*
X167515865Y-96691832D01*
X167527596Y-96653162D01*
X167546646Y-96617523D01*
X167572283Y-96586283D01*
X167603523Y-96560646D01*
X167639162Y-96541596D01*
X167677832Y-96529865D01*
X167724188Y-96525300D01*
X168800412Y-96525300D01*
X168846768Y-96529865D01*
G37*
G36*
X153033591Y-96467285D02*
G01*
X153067569Y-96477593D01*
X153098890Y-96494334D01*
X153126339Y-96516861D01*
X153148866Y-96544310D01*
X153165607Y-96575631D01*
X153175915Y-96609609D01*
X153180000Y-96651090D01*
X153180000Y-97252310D01*
X153175915Y-97293791D01*
X153165607Y-97327769D01*
X153148866Y-97359090D01*
X153126339Y-97386539D01*
X153098890Y-97409066D01*
X153067569Y-97425807D01*
X153033591Y-97436115D01*
X152992110Y-97440200D01*
X152315890Y-97440200D01*
X152274409Y-97436115D01*
X152240431Y-97425807D01*
X152209110Y-97409066D01*
X152181661Y-97386539D01*
X152159134Y-97359090D01*
X152142393Y-97327769D01*
X152132085Y-97293791D01*
X152128000Y-97252310D01*
X152128000Y-96651090D01*
X152132085Y-96609609D01*
X152142393Y-96575631D01*
X152159134Y-96544310D01*
X152181661Y-96516861D01*
X152209110Y-96494334D01*
X152240431Y-96477593D01*
X152274409Y-96467285D01*
X152315890Y-96463200D01*
X152992110Y-96463200D01*
X153033591Y-96467285D01*
G37*
G36*
X156132391Y-96467285D02*
G01*
X156166369Y-96477593D01*
X156197690Y-96494334D01*
X156225139Y-96516861D01*
X156247666Y-96544310D01*
X156264407Y-96575631D01*
X156274715Y-96609609D01*
X156278800Y-96651090D01*
X156278800Y-97252310D01*
X156274715Y-97293791D01*
X156264407Y-97327769D01*
X156247666Y-97359090D01*
X156225139Y-97386539D01*
X156197690Y-97409066D01*
X156166369Y-97425807D01*
X156132391Y-97436115D01*
X156090910Y-97440200D01*
X155414690Y-97440200D01*
X155373209Y-97436115D01*
X155339231Y-97425807D01*
X155307910Y-97409066D01*
X155280461Y-97386539D01*
X155257934Y-97359090D01*
X155241193Y-97327769D01*
X155230885Y-97293791D01*
X155226800Y-97252310D01*
X155226800Y-96651090D01*
X155230885Y-96609609D01*
X155241193Y-96575631D01*
X155257934Y-96544310D01*
X155280461Y-96516861D01*
X155307910Y-96494334D01*
X155339231Y-96477593D01*
X155373209Y-96467285D01*
X155414690Y-96463200D01*
X156090910Y-96463200D01*
X156132391Y-96467285D01*
G37*
G36*
X136124564Y-95001389D02*
G01*
X136315833Y-95080615D01*
X136315835Y-95080616D01*
X136412882Y-95145461D01*
X136487973Y-95195635D01*
X136634365Y-95342027D01*
X136749385Y-95514167D01*
X136828611Y-95705436D01*
X136869000Y-95908484D01*
X136869000Y-96115516D01*
X136828611Y-96318564D01*
X136755805Y-96494334D01*
X136749384Y-96509835D01*
X136634365Y-96681973D01*
X136487973Y-96828365D01*
X136315835Y-96943384D01*
X136315834Y-96943385D01*
X136315833Y-96943385D01*
X136124564Y-97022611D01*
X135921516Y-97063000D01*
X135714484Y-97063000D01*
X135511436Y-97022611D01*
X135320167Y-96943385D01*
X135320166Y-96943385D01*
X135320165Y-96943384D01*
X135148027Y-96828365D01*
X135001635Y-96681973D01*
X134886616Y-96509835D01*
X134880195Y-96494334D01*
X134807389Y-96318564D01*
X134767000Y-96115516D01*
X134767000Y-95908484D01*
X134807389Y-95705436D01*
X134886615Y-95514167D01*
X135001635Y-95342027D01*
X135148027Y-95195635D01*
X135223118Y-95145461D01*
X135320165Y-95080616D01*
X135320167Y-95080615D01*
X135511436Y-95001389D01*
X135714484Y-94961000D01*
X135921516Y-94961000D01*
X136124564Y-95001389D01*
G37*
G36*
X131624564Y-95001389D02*
G01*
X131815833Y-95080615D01*
X131815835Y-95080616D01*
X131912882Y-95145461D01*
X131987973Y-95195635D01*
X132134365Y-95342027D01*
X132249385Y-95514167D01*
X132328611Y-95705436D01*
X132369000Y-95908484D01*
X132369000Y-96115516D01*
X132328611Y-96318564D01*
X132255805Y-96494334D01*
X132249384Y-96509835D01*
X132134365Y-96681973D01*
X131987973Y-96828365D01*
X131815835Y-96943384D01*
X131815834Y-96943385D01*
X131815833Y-96943385D01*
X131624564Y-97022611D01*
X131421516Y-97063000D01*
X131214484Y-97063000D01*
X131011436Y-97022611D01*
X130820167Y-96943385D01*
X130820166Y-96943385D01*
X130820165Y-96943384D01*
X130648027Y-96828365D01*
X130501635Y-96681973D01*
X130386616Y-96509835D01*
X130380195Y-96494334D01*
X130307389Y-96318564D01*
X130267000Y-96115516D01*
X130267000Y-95908484D01*
X130307389Y-95705436D01*
X130386615Y-95514167D01*
X130501635Y-95342027D01*
X130648027Y-95195635D01*
X130723118Y-95145461D01*
X130820165Y-95080616D01*
X130820167Y-95080615D01*
X131011436Y-95001389D01*
X131214484Y-94961000D01*
X131421516Y-94961000D01*
X131624564Y-95001389D01*
G37*
G36*
X149579191Y-95756085D02*
G01*
X149613169Y-95766393D01*
X149644490Y-95783134D01*
X149671939Y-95805661D01*
X149694466Y-95833110D01*
X149711207Y-95864431D01*
X149721515Y-95898409D01*
X149725600Y-95939890D01*
X149725600Y-96541110D01*
X149721515Y-96582591D01*
X149711207Y-96616569D01*
X149694466Y-96647890D01*
X149671939Y-96675339D01*
X149644490Y-96697866D01*
X149613169Y-96714607D01*
X149579191Y-96724915D01*
X149537710Y-96729000D01*
X148861490Y-96729000D01*
X148820009Y-96724915D01*
X148786031Y-96714607D01*
X148754710Y-96697866D01*
X148727261Y-96675339D01*
X148704734Y-96647890D01*
X148687993Y-96616569D01*
X148677685Y-96582591D01*
X148673600Y-96541110D01*
X148673600Y-95939890D01*
X148677685Y-95898409D01*
X148687993Y-95864431D01*
X148704734Y-95833110D01*
X148727261Y-95805661D01*
X148754710Y-95783134D01*
X148786031Y-95766393D01*
X148820009Y-95756085D01*
X148861490Y-95752000D01*
X149537710Y-95752000D01*
X149579191Y-95756085D01*
G37*
G36*
X179681552Y-95303631D02*
G01*
X179759817Y-95336050D01*
X179763629Y-95337629D01*
X179770211Y-95342027D01*
X179837293Y-95386850D01*
X179837496Y-95386986D01*
X179900314Y-95449804D01*
X179943321Y-95514167D01*
X179949672Y-95523673D01*
X179983669Y-95605748D01*
X180001000Y-95692879D01*
X180001000Y-95781721D01*
X179983669Y-95868852D01*
X179949672Y-95950927D01*
X179900315Y-96024795D01*
X179837495Y-96087615D01*
X179827939Y-96094000D01*
X179763629Y-96136971D01*
X179763628Y-96136972D01*
X179763627Y-96136972D01*
X179681552Y-96170969D01*
X179594421Y-96188300D01*
X179505579Y-96188300D01*
X179418448Y-96170969D01*
X179336373Y-96136972D01*
X179336372Y-96136972D01*
X179336371Y-96136971D01*
X179272061Y-96094000D01*
X179262505Y-96087615D01*
X179199685Y-96024795D01*
X179150328Y-95950927D01*
X179116331Y-95868852D01*
X179099000Y-95781721D01*
X179099000Y-95692879D01*
X179116331Y-95605748D01*
X179150328Y-95523673D01*
X179156680Y-95514167D01*
X179199686Y-95449804D01*
X179262504Y-95386986D01*
X179262708Y-95386850D01*
X179329789Y-95342027D01*
X179336371Y-95337629D01*
X179340183Y-95336050D01*
X179418448Y-95303631D01*
X179505579Y-95286300D01*
X179594421Y-95286300D01*
X179681552Y-95303631D01*
G37*
G36*
X172681552Y-95303631D02*
G01*
X172759817Y-95336050D01*
X172763629Y-95337629D01*
X172770211Y-95342027D01*
X172837293Y-95386850D01*
X172837496Y-95386986D01*
X172900314Y-95449804D01*
X172943321Y-95514167D01*
X172949672Y-95523673D01*
X172983669Y-95605748D01*
X173001000Y-95692879D01*
X173001000Y-95781721D01*
X172983669Y-95868852D01*
X172949672Y-95950927D01*
X172900315Y-96024795D01*
X172837495Y-96087615D01*
X172827939Y-96094000D01*
X172763629Y-96136971D01*
X172763628Y-96136972D01*
X172763627Y-96136972D01*
X172681552Y-96170969D01*
X172594421Y-96188300D01*
X172505579Y-96188300D01*
X172418448Y-96170969D01*
X172336373Y-96136972D01*
X172336372Y-96136972D01*
X172336371Y-96136971D01*
X172272061Y-96094000D01*
X172262505Y-96087615D01*
X172199685Y-96024795D01*
X172150328Y-95950927D01*
X172116331Y-95868852D01*
X172099000Y-95781721D01*
X172099000Y-95692879D01*
X172116331Y-95605748D01*
X172150328Y-95523673D01*
X172156680Y-95514167D01*
X172199686Y-95449804D01*
X172262504Y-95386986D01*
X172262708Y-95386850D01*
X172329789Y-95342027D01*
X172336371Y-95337629D01*
X172340183Y-95336050D01*
X172418448Y-95303631D01*
X172505579Y-95286300D01*
X172594421Y-95286300D01*
X172681552Y-95303631D01*
G37*
G36*
X175283991Y-95146685D02*
G01*
X175317969Y-95156993D01*
X175349290Y-95173734D01*
X175376739Y-95196261D01*
X175399266Y-95223710D01*
X175416007Y-95255031D01*
X175426315Y-95289009D01*
X175430400Y-95330490D01*
X175430400Y-95931710D01*
X175426315Y-95973191D01*
X175416007Y-96007169D01*
X175399266Y-96038490D01*
X175376739Y-96065939D01*
X175349290Y-96088466D01*
X175317969Y-96105207D01*
X175283991Y-96115515D01*
X175242510Y-96119600D01*
X174566290Y-96119600D01*
X174524809Y-96115515D01*
X174490831Y-96105207D01*
X174459510Y-96088466D01*
X174432061Y-96065939D01*
X174409534Y-96038490D01*
X174392793Y-96007169D01*
X174382485Y-95973191D01*
X174378400Y-95931710D01*
X174378400Y-95330490D01*
X174382485Y-95289009D01*
X174392793Y-95255031D01*
X174409534Y-95223710D01*
X174432061Y-95196261D01*
X174459510Y-95173734D01*
X174490831Y-95156993D01*
X174524809Y-95146685D01*
X174566290Y-95142600D01*
X175242510Y-95142600D01*
X175283991Y-95146685D01*
G37*
G36*
X141095591Y-95121085D02*
G01*
X141129569Y-95131393D01*
X141160890Y-95148134D01*
X141188339Y-95170661D01*
X141210866Y-95198110D01*
X141227607Y-95229431D01*
X141237915Y-95263409D01*
X141242000Y-95304890D01*
X141242000Y-95906110D01*
X141237915Y-95947591D01*
X141227607Y-95981569D01*
X141210866Y-96012890D01*
X141188339Y-96040339D01*
X141160890Y-96062866D01*
X141129569Y-96079607D01*
X141095591Y-96089915D01*
X141054110Y-96094000D01*
X140377890Y-96094000D01*
X140336409Y-96089915D01*
X140302431Y-96079607D01*
X140271110Y-96062866D01*
X140243661Y-96040339D01*
X140221134Y-96012890D01*
X140204393Y-95981569D01*
X140194085Y-95947591D01*
X140190000Y-95906110D01*
X140190000Y-95304890D01*
X140194085Y-95263409D01*
X140204393Y-95229431D01*
X140221134Y-95198110D01*
X140243661Y-95170661D01*
X140271110Y-95148134D01*
X140302431Y-95131393D01*
X140336409Y-95121085D01*
X140377890Y-95117000D01*
X141054110Y-95117000D01*
X141095591Y-95121085D01*
G37*
G36*
X142683091Y-95121085D02*
G01*
X142717069Y-95131393D01*
X142748390Y-95148134D01*
X142775839Y-95170661D01*
X142798366Y-95198110D01*
X142815107Y-95229431D01*
X142825415Y-95263409D01*
X142829500Y-95304890D01*
X142829500Y-95906110D01*
X142825415Y-95947591D01*
X142815107Y-95981569D01*
X142798366Y-96012890D01*
X142775839Y-96040339D01*
X142748390Y-96062866D01*
X142717069Y-96079607D01*
X142683091Y-96089915D01*
X142641610Y-96094000D01*
X141965390Y-96094000D01*
X141923909Y-96089915D01*
X141889931Y-96079607D01*
X141858610Y-96062866D01*
X141831161Y-96040339D01*
X141808634Y-96012890D01*
X141791893Y-95981569D01*
X141781585Y-95947591D01*
X141777500Y-95906110D01*
X141777500Y-95304890D01*
X141781585Y-95263409D01*
X141791893Y-95229431D01*
X141808634Y-95198110D01*
X141831161Y-95170661D01*
X141858610Y-95148134D01*
X141889931Y-95131393D01*
X141923909Y-95121085D01*
X141965390Y-95117000D01*
X142641610Y-95117000D01*
X142683091Y-95121085D01*
G37*
G36*
X144842091Y-95121085D02*
G01*
X144876069Y-95131393D01*
X144907390Y-95148134D01*
X144934839Y-95170661D01*
X144957366Y-95198110D01*
X144974107Y-95229431D01*
X144984415Y-95263409D01*
X144988500Y-95304890D01*
X144988500Y-95906110D01*
X144984415Y-95947591D01*
X144974107Y-95981569D01*
X144957366Y-96012890D01*
X144934839Y-96040339D01*
X144907390Y-96062866D01*
X144876069Y-96079607D01*
X144842091Y-96089915D01*
X144800610Y-96094000D01*
X144124390Y-96094000D01*
X144082909Y-96089915D01*
X144048931Y-96079607D01*
X144017610Y-96062866D01*
X143990161Y-96040339D01*
X143967634Y-96012890D01*
X143950893Y-95981569D01*
X143940585Y-95947591D01*
X143936500Y-95906110D01*
X143936500Y-95304890D01*
X143940585Y-95263409D01*
X143950893Y-95229431D01*
X143967634Y-95198110D01*
X143990161Y-95170661D01*
X144017610Y-95148134D01*
X144048931Y-95131393D01*
X144082909Y-95121085D01*
X144124390Y-95117000D01*
X144800610Y-95117000D01*
X144842091Y-95121085D01*
G37*
G36*
X178230391Y-95095885D02*
G01*
X178264369Y-95106193D01*
X178295690Y-95122934D01*
X178323139Y-95145461D01*
X178345666Y-95172910D01*
X178362407Y-95204231D01*
X178372715Y-95238209D01*
X178376800Y-95279690D01*
X178376800Y-95880910D01*
X178372715Y-95922391D01*
X178362407Y-95956369D01*
X178345666Y-95987690D01*
X178323139Y-96015139D01*
X178295690Y-96037666D01*
X178264369Y-96054407D01*
X178230391Y-96064715D01*
X178188910Y-96068800D01*
X177512690Y-96068800D01*
X177471209Y-96064715D01*
X177437231Y-96054407D01*
X177405910Y-96037666D01*
X177378461Y-96015139D01*
X177355934Y-95987690D01*
X177339193Y-95956369D01*
X177328885Y-95922391D01*
X177324800Y-95880910D01*
X177324800Y-95279690D01*
X177328885Y-95238209D01*
X177339193Y-95204231D01*
X177355934Y-95172910D01*
X177378461Y-95145461D01*
X177405910Y-95122934D01*
X177437231Y-95106193D01*
X177471209Y-95095885D01*
X177512690Y-95091800D01*
X178188910Y-95091800D01*
X178230391Y-95095885D01*
G37*
G36*
X168846768Y-94654865D02*
G01*
X168885438Y-94666596D01*
X168921077Y-94685646D01*
X168952317Y-94711283D01*
X168977954Y-94742523D01*
X168997004Y-94778162D01*
X169008735Y-94816832D01*
X169013300Y-94863188D01*
X169013300Y-95514412D01*
X169008735Y-95560768D01*
X168997004Y-95599438D01*
X168977954Y-95635077D01*
X168952317Y-95666317D01*
X168921077Y-95691954D01*
X168885438Y-95711004D01*
X168846768Y-95722735D01*
X168800412Y-95727300D01*
X167724188Y-95727300D01*
X167677832Y-95722735D01*
X167639162Y-95711004D01*
X167603523Y-95691954D01*
X167572283Y-95666317D01*
X167546646Y-95635077D01*
X167527596Y-95599438D01*
X167515865Y-95560768D01*
X167511300Y-95514412D01*
X167511300Y-94863188D01*
X167515865Y-94816832D01*
X167527596Y-94778162D01*
X167546646Y-94742523D01*
X167572283Y-94711283D01*
X167603523Y-94685646D01*
X167639162Y-94666596D01*
X167677832Y-94654865D01*
X167724188Y-94650300D01*
X168800412Y-94650300D01*
X168846768Y-94654865D01*
G37*
G36*
X175283991Y-93571685D02*
G01*
X175317969Y-93581993D01*
X175349290Y-93598734D01*
X175376739Y-93621261D01*
X175399266Y-93648710D01*
X175416007Y-93680031D01*
X175426315Y-93714009D01*
X175430400Y-93755490D01*
X175430400Y-94356710D01*
X175426315Y-94398191D01*
X175416007Y-94432169D01*
X175399266Y-94463490D01*
X175376739Y-94490939D01*
X175349290Y-94513466D01*
X175317969Y-94530207D01*
X175283991Y-94540515D01*
X175242510Y-94544600D01*
X174566290Y-94544600D01*
X174524809Y-94540515D01*
X174490831Y-94530207D01*
X174459510Y-94513466D01*
X174432061Y-94490939D01*
X174409534Y-94463490D01*
X174392793Y-94432169D01*
X174382485Y-94398191D01*
X174378400Y-94356710D01*
X174378400Y-93755490D01*
X174382485Y-93714009D01*
X174392793Y-93680031D01*
X174409534Y-93648710D01*
X174432061Y-93621261D01*
X174459510Y-93598734D01*
X174490831Y-93581993D01*
X174524809Y-93571685D01*
X174566290Y-93567600D01*
X175242510Y-93567600D01*
X175283991Y-93571685D01*
G37*
G36*
X178230391Y-93520885D02*
G01*
X178264369Y-93531193D01*
X178295690Y-93547934D01*
X178323139Y-93570461D01*
X178345666Y-93597910D01*
X178362407Y-93629231D01*
X178372715Y-93663209D01*
X178376800Y-93704690D01*
X178376800Y-94305910D01*
X178372715Y-94347391D01*
X178362407Y-94381369D01*
X178345666Y-94412690D01*
X178323139Y-94440139D01*
X178295690Y-94462666D01*
X178264369Y-94479407D01*
X178230391Y-94489715D01*
X178188910Y-94493800D01*
X177512690Y-94493800D01*
X177471209Y-94489715D01*
X177437231Y-94479407D01*
X177405910Y-94462666D01*
X177378461Y-94440139D01*
X177355934Y-94412690D01*
X177339193Y-94381369D01*
X177328885Y-94347391D01*
X177324800Y-94305910D01*
X177324800Y-93704690D01*
X177328885Y-93663209D01*
X177339193Y-93629231D01*
X177355934Y-93597910D01*
X177378461Y-93570461D01*
X177405910Y-93547934D01*
X177437231Y-93531193D01*
X177471209Y-93520885D01*
X177512690Y-93516800D01*
X178188910Y-93516800D01*
X178230391Y-93520885D01*
G37*
G36*
X143307376Y-92529479D02*
G01*
X143381017Y-92551818D01*
X143417838Y-92562987D01*
X143519640Y-92617402D01*
X143608870Y-92690630D01*
X143654875Y-92746689D01*
X143672202Y-92764016D01*
X143692576Y-92777630D01*
X143715215Y-92787007D01*
X143739248Y-92791788D01*
X143763752Y-92791788D01*
X143787785Y-92787008D01*
X143810424Y-92777631D01*
X143830799Y-92764017D01*
X143848126Y-92746690D01*
X143861740Y-92726316D01*
X143871117Y-92703677D01*
X143875898Y-92679644D01*
X143876500Y-92667391D01*
X143876500Y-92521000D01*
X145048500Y-92521000D01*
X145048500Y-94423000D01*
X143876500Y-94423000D01*
X143876500Y-94276609D01*
X143874098Y-94252223D01*
X143866985Y-94228774D01*
X143855434Y-94207163D01*
X143839889Y-94188221D01*
X143820947Y-94172676D01*
X143799336Y-94161125D01*
X143775887Y-94154012D01*
X143751501Y-94151610D01*
X143727115Y-94154012D01*
X143703666Y-94161125D01*
X143682055Y-94172676D01*
X143654876Y-94197310D01*
X143608870Y-94253369D01*
X143519639Y-94326598D01*
X143417837Y-94381013D01*
X143381016Y-94392182D01*
X143307375Y-94414521D01*
X143192500Y-94425835D01*
X143077624Y-94414521D01*
X143003983Y-94392182D01*
X142967162Y-94381013D01*
X142865363Y-94326599D01*
X142865361Y-94326598D01*
X142776131Y-94253369D01*
X142722666Y-94188221D01*
X142702902Y-94164139D01*
X142667739Y-94098354D01*
X142654125Y-94077980D01*
X142636798Y-94060653D01*
X142616424Y-94047039D01*
X142593785Y-94037662D01*
X142569751Y-94032882D01*
X142545247Y-94032882D01*
X142521214Y-94037663D01*
X142498575Y-94047040D01*
X142478201Y-94060654D01*
X142460874Y-94077981D01*
X142447261Y-94098355D01*
X142412101Y-94164135D01*
X142412099Y-94164138D01*
X142412098Y-94164139D01*
X142338869Y-94253369D01*
X142310551Y-94276609D01*
X142249639Y-94326598D01*
X142147837Y-94381013D01*
X142111016Y-94392182D01*
X142037375Y-94414521D01*
X141922500Y-94425835D01*
X141807624Y-94414521D01*
X141733983Y-94392182D01*
X141697162Y-94381013D01*
X141595363Y-94326599D01*
X141595361Y-94326598D01*
X141506131Y-94253369D01*
X141452666Y-94188221D01*
X141432902Y-94164139D01*
X141397739Y-94098354D01*
X141384125Y-94077980D01*
X141366798Y-94060653D01*
X141346424Y-94047039D01*
X141323785Y-94037662D01*
X141299751Y-94032882D01*
X141275247Y-94032882D01*
X141251214Y-94037663D01*
X141228575Y-94047040D01*
X141208201Y-94060654D01*
X141190874Y-94077981D01*
X141177261Y-94098355D01*
X141142101Y-94164135D01*
X141142099Y-94164138D01*
X141142098Y-94164139D01*
X141068869Y-94253369D01*
X141040551Y-94276609D01*
X140979639Y-94326598D01*
X140877837Y-94381013D01*
X140841016Y-94392182D01*
X140767375Y-94414521D01*
X140652500Y-94425835D01*
X140537624Y-94414521D01*
X140463983Y-94392182D01*
X140427162Y-94381013D01*
X140325363Y-94326599D01*
X140325361Y-94326598D01*
X140236131Y-94253369D01*
X140182666Y-94188221D01*
X140162902Y-94164139D01*
X140108487Y-94062337D01*
X140087732Y-93993915D01*
X140074979Y-93951875D01*
X140066500Y-93865784D01*
X140066500Y-93078215D01*
X140074979Y-92992124D01*
X140108488Y-92881663D01*
X140134691Y-92832641D01*
X140162903Y-92779860D01*
X140236131Y-92690630D01*
X140325361Y-92617402D01*
X140427163Y-92562987D01*
X140463984Y-92551818D01*
X140537625Y-92529479D01*
X140652500Y-92518165D01*
X140767376Y-92529479D01*
X140841017Y-92551818D01*
X140877838Y-92562987D01*
X140979640Y-92617402D01*
X141068870Y-92690630D01*
X141142098Y-92779860D01*
X141177262Y-92845646D01*
X141190876Y-92866021D01*
X141208203Y-92883347D01*
X141228578Y-92896961D01*
X141251217Y-92906338D01*
X141275250Y-92911118D01*
X141299754Y-92911118D01*
X141323788Y-92906337D01*
X141346426Y-92896960D01*
X141366801Y-92883346D01*
X141384127Y-92866019D01*
X141397740Y-92845645D01*
X141432902Y-92779862D01*
X141506131Y-92690630D01*
X141595361Y-92617402D01*
X141697163Y-92562987D01*
X141733984Y-92551818D01*
X141807625Y-92529479D01*
X141922500Y-92518165D01*
X142037376Y-92529479D01*
X142111017Y-92551818D01*
X142147838Y-92562987D01*
X142249640Y-92617402D01*
X142338870Y-92690630D01*
X142412098Y-92779860D01*
X142447262Y-92845646D01*
X142460876Y-92866021D01*
X142478203Y-92883347D01*
X142498578Y-92896961D01*
X142521217Y-92906338D01*
X142545250Y-92911118D01*
X142569754Y-92911118D01*
X142593788Y-92906337D01*
X142616426Y-92896960D01*
X142636801Y-92883346D01*
X142654127Y-92866019D01*
X142667740Y-92845645D01*
X142702902Y-92779862D01*
X142776131Y-92690630D01*
X142865361Y-92617402D01*
X142967163Y-92562987D01*
X143003984Y-92551818D01*
X143077625Y-92529479D01*
X143192500Y-92518165D01*
X143307376Y-92529479D01*
G37*
G36*
X170216823Y-92598613D02*
G01*
X170377242Y-92647276D01*
X170458353Y-92690631D01*
X170525078Y-92726296D01*
X170654659Y-92832641D01*
X170761004Y-92962222D01*
X170761005Y-92962224D01*
X170840024Y-93110058D01*
X170888687Y-93270477D01*
X170905117Y-93437300D01*
X170888687Y-93604123D01*
X170840024Y-93764542D01*
X170793495Y-93851591D01*
X170761004Y-93912378D01*
X170654659Y-94041959D01*
X170525078Y-94148304D01*
X170525076Y-94148305D01*
X170377242Y-94227324D01*
X170216823Y-94275987D01*
X170091804Y-94288300D01*
X169608196Y-94288300D01*
X169483177Y-94275987D01*
X169322758Y-94227324D01*
X169174924Y-94148305D01*
X169174922Y-94148304D01*
X169045341Y-94041959D01*
X168938996Y-93912378D01*
X168906505Y-93851591D01*
X168859976Y-93764542D01*
X168811313Y-93604123D01*
X168794883Y-93437300D01*
X168811313Y-93270477D01*
X168859976Y-93110058D01*
X168938995Y-92962224D01*
X168938996Y-92962222D01*
X169045341Y-92832641D01*
X169174922Y-92726296D01*
X169241647Y-92690631D01*
X169322758Y-92647276D01*
X169483177Y-92598613D01*
X169608196Y-92586300D01*
X170091804Y-92586300D01*
X170216823Y-92598613D01*
G37*
G36*
X134733591Y-92950085D02*
G01*
X134767569Y-92960393D01*
X134798890Y-92977134D01*
X134826339Y-92999661D01*
X134848866Y-93027110D01*
X134865607Y-93058431D01*
X134875915Y-93092409D01*
X134880000Y-93133890D01*
X134880000Y-93810110D01*
X134875915Y-93851591D01*
X134865607Y-93885569D01*
X134848866Y-93916890D01*
X134826339Y-93944339D01*
X134798890Y-93966866D01*
X134767569Y-93983607D01*
X134733591Y-93993915D01*
X134692110Y-93998000D01*
X134090890Y-93998000D01*
X134049409Y-93993915D01*
X134015431Y-93983607D01*
X133984110Y-93966866D01*
X133956661Y-93944339D01*
X133934134Y-93916890D01*
X133917393Y-93885569D01*
X133907085Y-93851591D01*
X133903000Y-93810110D01*
X133903000Y-93133890D01*
X133907085Y-93092409D01*
X133917393Y-93058431D01*
X133934134Y-93027110D01*
X133956661Y-92999661D01*
X133984110Y-92977134D01*
X134015431Y-92960393D01*
X134049409Y-92950085D01*
X134090890Y-92946000D01*
X134692110Y-92946000D01*
X134733591Y-92950085D01*
G37*
G36*
X133158591Y-92950085D02*
G01*
X133192569Y-92960393D01*
X133223890Y-92977134D01*
X133251339Y-92999661D01*
X133273866Y-93027110D01*
X133290607Y-93058431D01*
X133300915Y-93092409D01*
X133305000Y-93133890D01*
X133305000Y-93810110D01*
X133300915Y-93851591D01*
X133290607Y-93885569D01*
X133273866Y-93916890D01*
X133251339Y-93944339D01*
X133223890Y-93966866D01*
X133192569Y-93983607D01*
X133158591Y-93993915D01*
X133117110Y-93998000D01*
X132515890Y-93998000D01*
X132474409Y-93993915D01*
X132440431Y-93983607D01*
X132409110Y-93966866D01*
X132381661Y-93944339D01*
X132359134Y-93916890D01*
X132342393Y-93885569D01*
X132332085Y-93851591D01*
X132328000Y-93810110D01*
X132328000Y-93133890D01*
X132332085Y-93092409D01*
X132342393Y-93058431D01*
X132359134Y-93027110D01*
X132381661Y-92999661D01*
X132409110Y-92977134D01*
X132440431Y-92960393D01*
X132474409Y-92950085D01*
X132515890Y-92946000D01*
X133117110Y-92946000D01*
X133158591Y-92950085D01*
G37*
G36*
X177235000Y-91112200D02*
G01*
X176333000Y-91112200D01*
X176333000Y-90110200D01*
X177235000Y-90110200D01*
X177235000Y-91112200D01*
G37*
G36*
X136124564Y-88501389D02*
G01*
X136315833Y-88580615D01*
X136315835Y-88580616D01*
X136383507Y-88625833D01*
X136487973Y-88695635D01*
X136634365Y-88842027D01*
X136749385Y-89014167D01*
X136828611Y-89205436D01*
X136869000Y-89408484D01*
X136869000Y-89615516D01*
X136828611Y-89818564D01*
X136749385Y-90009833D01*
X136749384Y-90009835D01*
X136634365Y-90181973D01*
X136487973Y-90328365D01*
X136315835Y-90443384D01*
X136315834Y-90443385D01*
X136315833Y-90443385D01*
X136124564Y-90522611D01*
X135921516Y-90563000D01*
X135714484Y-90563000D01*
X135511436Y-90522611D01*
X135320167Y-90443385D01*
X135320166Y-90443385D01*
X135320165Y-90443384D01*
X135148027Y-90328365D01*
X135001635Y-90181973D01*
X134886616Y-90009835D01*
X134886615Y-90009833D01*
X134807389Y-89818564D01*
X134767000Y-89615516D01*
X134767000Y-89408484D01*
X134807389Y-89205436D01*
X134886615Y-89014167D01*
X135001635Y-88842027D01*
X135148027Y-88695635D01*
X135252493Y-88625833D01*
X135320165Y-88580616D01*
X135320167Y-88580615D01*
X135511436Y-88501389D01*
X135714484Y-88461000D01*
X135921516Y-88461000D01*
X136124564Y-88501389D01*
G37*
G36*
X131624564Y-88501389D02*
G01*
X131815833Y-88580615D01*
X131815835Y-88580616D01*
X131883507Y-88625833D01*
X131987973Y-88695635D01*
X132134365Y-88842027D01*
X132249385Y-89014167D01*
X132328611Y-89205436D01*
X132369000Y-89408484D01*
X132369000Y-89615516D01*
X132328611Y-89818564D01*
X132249385Y-90009833D01*
X132249384Y-90009835D01*
X132134365Y-90181973D01*
X131987973Y-90328365D01*
X131815835Y-90443384D01*
X131815834Y-90443385D01*
X131815833Y-90443385D01*
X131624564Y-90522611D01*
X131421516Y-90563000D01*
X131214484Y-90563000D01*
X131011436Y-90522611D01*
X130820167Y-90443385D01*
X130820166Y-90443385D01*
X130820165Y-90443384D01*
X130648027Y-90328365D01*
X130501635Y-90181973D01*
X130386616Y-90009835D01*
X130386615Y-90009833D01*
X130307389Y-89818564D01*
X130267000Y-89615516D01*
X130267000Y-89408484D01*
X130307389Y-89205436D01*
X130386615Y-89014167D01*
X130501635Y-88842027D01*
X130648027Y-88695635D01*
X130752493Y-88625833D01*
X130820165Y-88580616D01*
X130820167Y-88580615D01*
X131011436Y-88501389D01*
X131214484Y-88461000D01*
X131421516Y-88461000D01*
X131624564Y-88501389D01*
G37*
G36*
X150453800Y-89189000D02*
G01*
X148351800Y-89189000D01*
X148351800Y-87087000D01*
X150453800Y-87087000D01*
X150453800Y-89189000D01*
G37*
G36*
X156009364Y-87117389D02*
G01*
X156200633Y-87196615D01*
X156200635Y-87196616D01*
X156235639Y-87220005D01*
X156372773Y-87311635D01*
X156519165Y-87458027D01*
X156634185Y-87630167D01*
X156713411Y-87821436D01*
X156753800Y-88024484D01*
X156753800Y-88231516D01*
X156713411Y-88434564D01*
X156652915Y-88580615D01*
X156634184Y-88625835D01*
X156519165Y-88797973D01*
X156372773Y-88944365D01*
X156200635Y-89059384D01*
X156200634Y-89059385D01*
X156200633Y-89059385D01*
X156009364Y-89138611D01*
X155806316Y-89179000D01*
X155599284Y-89179000D01*
X155396236Y-89138611D01*
X155204967Y-89059385D01*
X155204966Y-89059385D01*
X155204965Y-89059384D01*
X155032827Y-88944365D01*
X154886435Y-88797973D01*
X154771416Y-88625835D01*
X154752685Y-88580615D01*
X154692189Y-88434564D01*
X154651800Y-88231516D01*
X154651800Y-88024484D01*
X154692189Y-87821436D01*
X154771415Y-87630167D01*
X154886435Y-87458027D01*
X155032827Y-87311635D01*
X155169961Y-87220005D01*
X155204965Y-87196616D01*
X155204967Y-87196615D01*
X155396236Y-87117389D01*
X155599284Y-87077000D01*
X155806316Y-87077000D01*
X156009364Y-87117389D01*
G37*
G36*
X178185000Y-89112200D02*
G01*
X177283000Y-89112200D01*
X177283000Y-88110200D01*
X178185000Y-88110200D01*
X178185000Y-89112200D01*
G37*
G36*
X176285000Y-89112200D02*
G01*
X175383000Y-89112200D01*
X175383000Y-88110200D01*
X176285000Y-88110200D01*
X176285000Y-89112200D01*
G37*
G36*
X178316823Y-85794013D02*
G01*
X178477242Y-85842676D01*
X178576839Y-85895912D01*
X178625078Y-85921696D01*
X178754659Y-86028041D01*
X178861004Y-86157622D01*
X178861005Y-86157624D01*
X178940024Y-86305458D01*
X178988687Y-86465877D01*
X179005117Y-86632700D01*
X178988687Y-86799523D01*
X178940024Y-86959942D01*
X178927124Y-86984076D01*
X178861004Y-87107778D01*
X178754659Y-87237359D01*
X178625078Y-87343704D01*
X178625076Y-87343705D01*
X178477242Y-87422724D01*
X178316823Y-87471387D01*
X178191804Y-87483700D01*
X177708196Y-87483700D01*
X177583177Y-87471387D01*
X177422758Y-87422724D01*
X177274924Y-87343705D01*
X177274922Y-87343704D01*
X177145341Y-87237359D01*
X177038996Y-87107778D01*
X176972876Y-86984076D01*
X176959976Y-86959942D01*
X176911313Y-86799523D01*
X176894883Y-86632700D01*
X176911313Y-86465877D01*
X176959976Y-86305458D01*
X177038995Y-86157624D01*
X177038996Y-86157622D01*
X177145341Y-86028041D01*
X177274922Y-85921696D01*
X177323161Y-85895912D01*
X177422758Y-85842676D01*
X177583177Y-85794013D01*
X177708196Y-85781700D01*
X178191804Y-85781700D01*
X178316823Y-85794013D01*
G37*
G36*
X171316823Y-85794013D02*
G01*
X171477242Y-85842676D01*
X171576839Y-85895912D01*
X171625078Y-85921696D01*
X171754659Y-86028041D01*
X171861004Y-86157622D01*
X171861005Y-86157624D01*
X171940024Y-86305458D01*
X171988687Y-86465877D01*
X172005117Y-86632700D01*
X171988687Y-86799523D01*
X171940024Y-86959942D01*
X171927124Y-86984076D01*
X171861004Y-87107778D01*
X171754659Y-87237359D01*
X171625078Y-87343704D01*
X171625076Y-87343705D01*
X171477242Y-87422724D01*
X171316823Y-87471387D01*
X171191804Y-87483700D01*
X170708196Y-87483700D01*
X170583177Y-87471387D01*
X170422758Y-87422724D01*
X170274924Y-87343705D01*
X170274922Y-87343704D01*
X170145341Y-87237359D01*
X170038996Y-87107778D01*
X169972876Y-86984076D01*
X169959976Y-86959942D01*
X169911313Y-86799523D01*
X169894883Y-86632700D01*
X169911313Y-86465877D01*
X169959976Y-86305458D01*
X170038995Y-86157624D01*
X170038996Y-86157622D01*
X170145341Y-86028041D01*
X170274922Y-85921696D01*
X170323161Y-85895912D01*
X170422758Y-85842676D01*
X170583177Y-85794013D01*
X170708196Y-85781700D01*
X171191804Y-85781700D01*
X171316823Y-85794013D01*
G37*
G36*
X175316823Y-85794013D02*
G01*
X175477242Y-85842676D01*
X175576839Y-85895912D01*
X175625078Y-85921696D01*
X175754659Y-86028041D01*
X175861004Y-86157622D01*
X175861005Y-86157624D01*
X175940024Y-86305458D01*
X175988687Y-86465877D01*
X176005117Y-86632700D01*
X175988687Y-86799523D01*
X175940024Y-86959942D01*
X175927124Y-86984076D01*
X175861004Y-87107778D01*
X175754659Y-87237359D01*
X175625078Y-87343704D01*
X175625076Y-87343705D01*
X175477242Y-87422724D01*
X175316823Y-87471387D01*
X175191804Y-87483700D01*
X174708196Y-87483700D01*
X174583177Y-87471387D01*
X174422758Y-87422724D01*
X174274924Y-87343705D01*
X174274922Y-87343704D01*
X174145341Y-87237359D01*
X174038996Y-87107778D01*
X173972876Y-86984076D01*
X173959976Y-86959942D01*
X173911313Y-86799523D01*
X173894883Y-86632700D01*
X173911313Y-86465877D01*
X173959976Y-86305458D01*
X174038995Y-86157624D01*
X174038996Y-86157622D01*
X174145341Y-86028041D01*
X174274922Y-85921696D01*
X174323161Y-85895912D01*
X174422758Y-85842676D01*
X174583177Y-85794013D01*
X174708196Y-85781700D01*
X175191804Y-85781700D01*
X175316823Y-85794013D01*
G37*
G36*
X119516823Y-85670313D02*
G01*
X119677242Y-85718976D01*
X119785047Y-85776599D01*
X119825078Y-85797996D01*
X119954659Y-85904341D01*
X120061004Y-86033922D01*
X120061005Y-86033924D01*
X120140024Y-86181758D01*
X120188687Y-86342177D01*
X120205117Y-86509000D01*
X120188687Y-86675823D01*
X120140024Y-86836242D01*
X120073905Y-86959942D01*
X120061004Y-86984078D01*
X119954659Y-87113659D01*
X119825078Y-87220004D01*
X119825076Y-87220005D01*
X119677242Y-87299024D01*
X119516823Y-87347687D01*
X119391804Y-87360000D01*
X118908196Y-87360000D01*
X118783177Y-87347687D01*
X118622758Y-87299024D01*
X118474924Y-87220005D01*
X118474922Y-87220004D01*
X118345341Y-87113659D01*
X118238996Y-86984078D01*
X118226095Y-86959942D01*
X118159976Y-86836242D01*
X118111313Y-86675823D01*
X118094883Y-86509000D01*
X118111313Y-86342177D01*
X118159976Y-86181758D01*
X118238995Y-86033924D01*
X118238996Y-86033922D01*
X118345341Y-85904341D01*
X118474922Y-85797996D01*
X118514953Y-85776599D01*
X118622758Y-85718976D01*
X118783177Y-85670313D01*
X118908196Y-85658000D01*
X119391804Y-85658000D01*
X119516823Y-85670313D01*
G37*
G36*
X139025991Y-85584085D02*
G01*
X139059969Y-85594393D01*
X139091290Y-85611134D01*
X139118739Y-85633661D01*
X139141266Y-85661110D01*
X139158007Y-85692431D01*
X139168315Y-85726409D01*
X139172400Y-85767890D01*
X139172400Y-86444110D01*
X139168315Y-86485591D01*
X139158007Y-86519569D01*
X139141266Y-86550890D01*
X139118739Y-86578339D01*
X139091290Y-86600866D01*
X139059969Y-86617607D01*
X139025991Y-86627915D01*
X138984510Y-86632000D01*
X138383290Y-86632000D01*
X138341809Y-86627915D01*
X138307831Y-86617607D01*
X138276510Y-86600866D01*
X138249061Y-86578339D01*
X138226534Y-86550890D01*
X138209793Y-86519569D01*
X138199485Y-86485591D01*
X138195400Y-86444110D01*
X138195400Y-85767890D01*
X138199485Y-85726409D01*
X138209793Y-85692431D01*
X138226534Y-85661110D01*
X138249061Y-85633661D01*
X138276510Y-85611134D01*
X138307831Y-85594393D01*
X138341809Y-85584085D01*
X138383290Y-85580000D01*
X138984510Y-85580000D01*
X139025991Y-85584085D01*
G37*
G36*
X140600991Y-85584085D02*
G01*
X140634969Y-85594393D01*
X140666290Y-85611134D01*
X140693739Y-85633661D01*
X140716266Y-85661110D01*
X140733007Y-85692431D01*
X140743315Y-85726409D01*
X140747400Y-85767890D01*
X140747400Y-86444110D01*
X140743315Y-86485591D01*
X140733007Y-86519569D01*
X140716266Y-86550890D01*
X140693739Y-86578339D01*
X140666290Y-86600866D01*
X140634969Y-86617607D01*
X140600991Y-86627915D01*
X140559510Y-86632000D01*
X139958290Y-86632000D01*
X139916809Y-86627915D01*
X139882831Y-86617607D01*
X139851510Y-86600866D01*
X139824061Y-86578339D01*
X139801534Y-86550890D01*
X139784793Y-86519569D01*
X139774485Y-86485591D01*
X139770400Y-86444110D01*
X139770400Y-85767890D01*
X139774485Y-85726409D01*
X139784793Y-85692431D01*
X139801534Y-85661110D01*
X139824061Y-85633661D01*
X139851510Y-85611134D01*
X139882831Y-85594393D01*
X139916809Y-85584085D01*
X139958290Y-85580000D01*
X140559510Y-85580000D01*
X140600991Y-85584085D01*
G37*
G36*
X150480891Y-85202585D02*
G01*
X150514869Y-85212893D01*
X150546190Y-85229634D01*
X150573639Y-85252161D01*
X150596166Y-85279610D01*
X150612907Y-85310931D01*
X150623215Y-85344909D01*
X150627300Y-85386390D01*
X150627300Y-85987610D01*
X150623215Y-86029091D01*
X150612907Y-86063069D01*
X150596166Y-86094390D01*
X150573639Y-86121839D01*
X150546190Y-86144366D01*
X150514869Y-86161107D01*
X150480891Y-86171415D01*
X150439410Y-86175500D01*
X149763190Y-86175500D01*
X149721709Y-86171415D01*
X149687731Y-86161107D01*
X149656410Y-86144366D01*
X149628961Y-86121839D01*
X149606434Y-86094390D01*
X149589693Y-86063069D01*
X149579385Y-86029091D01*
X149575300Y-85987610D01*
X149575300Y-85386390D01*
X149579385Y-85344909D01*
X149589693Y-85310931D01*
X149606434Y-85279610D01*
X149628961Y-85252161D01*
X149656410Y-85229634D01*
X149687731Y-85212893D01*
X149721709Y-85202585D01*
X149763190Y-85198500D01*
X150439410Y-85198500D01*
X150480891Y-85202585D01*
G37*
G36*
X152967800Y-86110000D02*
G01*
X151965800Y-86110000D01*
X151965800Y-85208000D01*
X152967800Y-85208000D01*
X152967800Y-86110000D01*
G37*
G36*
X168427668Y-85036365D02*
G01*
X168466338Y-85048096D01*
X168501977Y-85067146D01*
X168533217Y-85092783D01*
X168558854Y-85124023D01*
X168577904Y-85159662D01*
X168589635Y-85198332D01*
X168594200Y-85244688D01*
X168594200Y-85895912D01*
X168589635Y-85942268D01*
X168577904Y-85980938D01*
X168558854Y-86016577D01*
X168533217Y-86047817D01*
X168501977Y-86073454D01*
X168466338Y-86092504D01*
X168427668Y-86104235D01*
X168381312Y-86108800D01*
X167305088Y-86108800D01*
X167258732Y-86104235D01*
X167220062Y-86092504D01*
X167184423Y-86073454D01*
X167153183Y-86047817D01*
X167127546Y-86016577D01*
X167108496Y-85980938D01*
X167096765Y-85942268D01*
X167092200Y-85895912D01*
X167092200Y-85244688D01*
X167096765Y-85198332D01*
X167108496Y-85159662D01*
X167127546Y-85124023D01*
X167153183Y-85092783D01*
X167184423Y-85067146D01*
X167220062Y-85048096D01*
X167258732Y-85036365D01*
X167305088Y-85031800D01*
X168381312Y-85031800D01*
X168427668Y-85036365D01*
G37*
G36*
X154967800Y-85160000D02*
G01*
X153965800Y-85160000D01*
X153965800Y-84258000D01*
X154967800Y-84258000D01*
X154967800Y-85160000D01*
G37*
G36*
X175283991Y-83919885D02*
G01*
X175317969Y-83930193D01*
X175349290Y-83946934D01*
X175376739Y-83969461D01*
X175399266Y-83996910D01*
X175416007Y-84028231D01*
X175426315Y-84062209D01*
X175430400Y-84103690D01*
X175430400Y-84704910D01*
X175426315Y-84746391D01*
X175416007Y-84780369D01*
X175399266Y-84811690D01*
X175376739Y-84839139D01*
X175349290Y-84861666D01*
X175317969Y-84878407D01*
X175283991Y-84888715D01*
X175242510Y-84892800D01*
X174566290Y-84892800D01*
X174524809Y-84888715D01*
X174490831Y-84878407D01*
X174459510Y-84861666D01*
X174432061Y-84839139D01*
X174409534Y-84811690D01*
X174392793Y-84780369D01*
X174382485Y-84746391D01*
X174378400Y-84704910D01*
X174378400Y-84103690D01*
X174382485Y-84062209D01*
X174392793Y-84028231D01*
X174409534Y-83996910D01*
X174432061Y-83969461D01*
X174459510Y-83946934D01*
X174490831Y-83930193D01*
X174524809Y-83919885D01*
X174566290Y-83915800D01*
X175242510Y-83915800D01*
X175283991Y-83919885D01*
G37*
G36*
X178433591Y-83818285D02*
G01*
X178467569Y-83828593D01*
X178498890Y-83845334D01*
X178526339Y-83867861D01*
X178548866Y-83895310D01*
X178565607Y-83926631D01*
X178575915Y-83960609D01*
X178580000Y-84002090D01*
X178580000Y-84603310D01*
X178575915Y-84644791D01*
X178565607Y-84678769D01*
X178548866Y-84710090D01*
X178526339Y-84737539D01*
X178498890Y-84760066D01*
X178467569Y-84776807D01*
X178433591Y-84787115D01*
X178392110Y-84791200D01*
X177715890Y-84791200D01*
X177674409Y-84787115D01*
X177640431Y-84776807D01*
X177609110Y-84760066D01*
X177581661Y-84737539D01*
X177559134Y-84710090D01*
X177542393Y-84678769D01*
X177532085Y-84644791D01*
X177528000Y-84603310D01*
X177528000Y-84002090D01*
X177532085Y-83960609D01*
X177542393Y-83926631D01*
X177559134Y-83895310D01*
X177581661Y-83867861D01*
X177609110Y-83845334D01*
X177640431Y-83828593D01*
X177674409Y-83818285D01*
X177715890Y-83814200D01*
X178392110Y-83814200D01*
X178433591Y-83818285D01*
G37*
G36*
X172681552Y-83899031D02*
G01*
X172763627Y-83933028D01*
X172763629Y-83933029D01*
X172784439Y-83946934D01*
X172811447Y-83964980D01*
X172837496Y-83982386D01*
X172900314Y-84045204D01*
X172940896Y-84105938D01*
X172949672Y-84119073D01*
X172983669Y-84201148D01*
X173001000Y-84288279D01*
X173001000Y-84377121D01*
X172983669Y-84464252D01*
X172956865Y-84528961D01*
X172949671Y-84546329D01*
X172940994Y-84559315D01*
X172916611Y-84595807D01*
X172900314Y-84620196D01*
X172837496Y-84683014D01*
X172763629Y-84732371D01*
X172763628Y-84732372D01*
X172763627Y-84732372D01*
X172681552Y-84766369D01*
X172594421Y-84783700D01*
X172505579Y-84783700D01*
X172418448Y-84766369D01*
X172336373Y-84732372D01*
X172336372Y-84732372D01*
X172336371Y-84732371D01*
X172262504Y-84683014D01*
X172199686Y-84620196D01*
X172183390Y-84595807D01*
X172159006Y-84559315D01*
X172150329Y-84546329D01*
X172143135Y-84528961D01*
X172116331Y-84464252D01*
X172099000Y-84377121D01*
X172099000Y-84288279D01*
X172116331Y-84201148D01*
X172150328Y-84119073D01*
X172159105Y-84105938D01*
X172199686Y-84045204D01*
X172262504Y-83982386D01*
X172288554Y-83964980D01*
X172315561Y-83946934D01*
X172336371Y-83933029D01*
X172336373Y-83933028D01*
X172418448Y-83899031D01*
X172505579Y-83881700D01*
X172594421Y-83881700D01*
X172681552Y-83899031D01*
G37*
G36*
X179681552Y-83899031D02*
G01*
X179763627Y-83933028D01*
X179763629Y-83933029D01*
X179784439Y-83946934D01*
X179811447Y-83964980D01*
X179837496Y-83982386D01*
X179900314Y-84045204D01*
X179940896Y-84105938D01*
X179949672Y-84119073D01*
X179983669Y-84201148D01*
X180001000Y-84288279D01*
X180001000Y-84377121D01*
X179983669Y-84464252D01*
X179956865Y-84528961D01*
X179949671Y-84546329D01*
X179940994Y-84559315D01*
X179916611Y-84595807D01*
X179900314Y-84620196D01*
X179837496Y-84683014D01*
X179763629Y-84732371D01*
X179763628Y-84732372D01*
X179763627Y-84732372D01*
X179681552Y-84766369D01*
X179594421Y-84783700D01*
X179505579Y-84783700D01*
X179418448Y-84766369D01*
X179336373Y-84732372D01*
X179336372Y-84732372D01*
X179336371Y-84732371D01*
X179262504Y-84683014D01*
X179199686Y-84620196D01*
X179183390Y-84595807D01*
X179159006Y-84559315D01*
X179150329Y-84546329D01*
X179143135Y-84528961D01*
X179116331Y-84464252D01*
X179099000Y-84377121D01*
X179099000Y-84288279D01*
X179116331Y-84201148D01*
X179150328Y-84119073D01*
X179159105Y-84105938D01*
X179199686Y-84045204D01*
X179262504Y-83982386D01*
X179288554Y-83964980D01*
X179315561Y-83946934D01*
X179336371Y-83933029D01*
X179336373Y-83933028D01*
X179418448Y-83899031D01*
X179505579Y-83881700D01*
X179594421Y-83881700D01*
X179681552Y-83899031D01*
G37*
G36*
X139048600Y-84713000D02*
G01*
X138046600Y-84713000D01*
X138046600Y-83811000D01*
X139048600Y-83811000D01*
X139048600Y-84713000D01*
G37*
G36*
X116581552Y-83775331D02*
G01*
X116663627Y-83809328D01*
X116663629Y-83809329D01*
X116677032Y-83818285D01*
X116732525Y-83855364D01*
X116737496Y-83858686D01*
X116800314Y-83921504D01*
X116840995Y-83982386D01*
X116849672Y-83995373D01*
X116883669Y-84077448D01*
X116901000Y-84164579D01*
X116901000Y-84253421D01*
X116883669Y-84340552D01*
X116849672Y-84422627D01*
X116800315Y-84496495D01*
X116737495Y-84559315D01*
X116703682Y-84581908D01*
X116663629Y-84608671D01*
X116663628Y-84608672D01*
X116663627Y-84608672D01*
X116581552Y-84642669D01*
X116494421Y-84660000D01*
X116405579Y-84660000D01*
X116318448Y-84642669D01*
X116236373Y-84608672D01*
X116236372Y-84608672D01*
X116236371Y-84608671D01*
X116196318Y-84581908D01*
X116162505Y-84559315D01*
X116099685Y-84496495D01*
X116050328Y-84422627D01*
X116016331Y-84340552D01*
X115999000Y-84253421D01*
X115999000Y-84164579D01*
X116016331Y-84077448D01*
X116050328Y-83995373D01*
X116059006Y-83982386D01*
X116099686Y-83921504D01*
X116162504Y-83858686D01*
X116167476Y-83855364D01*
X116222968Y-83818285D01*
X116236371Y-83809329D01*
X116236373Y-83809328D01*
X116318448Y-83775331D01*
X116405579Y-83758000D01*
X116494421Y-83758000D01*
X116581552Y-83775331D01*
G37*
G36*
X109581552Y-83775331D02*
G01*
X109663627Y-83809328D01*
X109663629Y-83809329D01*
X109677032Y-83818285D01*
X109732525Y-83855364D01*
X109737496Y-83858686D01*
X109800314Y-83921504D01*
X109840995Y-83982386D01*
X109849672Y-83995373D01*
X109883669Y-84077448D01*
X109901000Y-84164579D01*
X109901000Y-84253421D01*
X109883669Y-84340552D01*
X109849672Y-84422627D01*
X109800315Y-84496495D01*
X109737495Y-84559315D01*
X109703682Y-84581908D01*
X109663629Y-84608671D01*
X109663628Y-84608672D01*
X109663627Y-84608672D01*
X109581552Y-84642669D01*
X109494421Y-84660000D01*
X109405579Y-84660000D01*
X109318448Y-84642669D01*
X109236373Y-84608672D01*
X109236372Y-84608672D01*
X109236371Y-84608671D01*
X109196318Y-84581908D01*
X109162505Y-84559315D01*
X109099685Y-84496495D01*
X109050328Y-84422627D01*
X109016331Y-84340552D01*
X108999000Y-84253421D01*
X108999000Y-84164579D01*
X109016331Y-84077448D01*
X109050328Y-83995373D01*
X109059006Y-83982386D01*
X109099686Y-83921504D01*
X109162504Y-83858686D01*
X109167476Y-83855364D01*
X109222968Y-83818285D01*
X109236371Y-83809329D01*
X109236373Y-83809328D01*
X109318448Y-83775331D01*
X109405579Y-83758000D01*
X109494421Y-83758000D01*
X109581552Y-83775331D01*
G37*
G36*
X150480891Y-83627585D02*
G01*
X150514869Y-83637893D01*
X150546190Y-83654634D01*
X150573639Y-83677161D01*
X150596166Y-83704610D01*
X150612907Y-83735931D01*
X150623215Y-83769909D01*
X150627300Y-83811390D01*
X150627300Y-84412610D01*
X150623215Y-84454091D01*
X150612907Y-84488069D01*
X150596166Y-84519390D01*
X150573639Y-84546839D01*
X150546190Y-84569366D01*
X150514869Y-84586107D01*
X150480891Y-84596415D01*
X150439410Y-84600500D01*
X149763190Y-84600500D01*
X149721709Y-84596415D01*
X149687731Y-84586107D01*
X149656410Y-84569366D01*
X149628961Y-84546839D01*
X149606434Y-84519390D01*
X149589693Y-84488069D01*
X149579385Y-84454091D01*
X149575300Y-84412610D01*
X149575300Y-83811390D01*
X149579385Y-83769909D01*
X149589693Y-83735931D01*
X149606434Y-83704610D01*
X149628961Y-83677161D01*
X149656410Y-83654634D01*
X149687731Y-83637893D01*
X149721709Y-83627585D01*
X149763190Y-83623500D01*
X150439410Y-83623500D01*
X150480891Y-83627585D01*
G37*
G36*
X168427668Y-83161365D02*
G01*
X168466338Y-83173096D01*
X168501977Y-83192146D01*
X168533217Y-83217783D01*
X168558854Y-83249023D01*
X168577904Y-83284662D01*
X168589635Y-83323332D01*
X168594200Y-83369688D01*
X168594200Y-84020912D01*
X168589635Y-84067268D01*
X168577904Y-84105938D01*
X168558854Y-84141577D01*
X168533217Y-84172817D01*
X168501977Y-84198454D01*
X168466338Y-84217504D01*
X168427668Y-84229235D01*
X168381312Y-84233800D01*
X167305088Y-84233800D01*
X167258732Y-84229235D01*
X167220062Y-84217504D01*
X167184423Y-84198454D01*
X167153183Y-84172817D01*
X167127546Y-84141577D01*
X167108496Y-84105938D01*
X167096765Y-84067268D01*
X167092200Y-84020912D01*
X167092200Y-83369688D01*
X167096765Y-83323332D01*
X167108496Y-83284662D01*
X167127546Y-83249023D01*
X167153183Y-83217783D01*
X167184423Y-83192146D01*
X167220062Y-83173096D01*
X167258732Y-83161365D01*
X167305088Y-83156800D01*
X168381312Y-83156800D01*
X168427668Y-83161365D01*
G37*
G36*
X152967800Y-84210000D02*
G01*
X151965800Y-84210000D01*
X151965800Y-83308000D01*
X152967800Y-83308000D01*
X152967800Y-84210000D01*
G37*
G36*
X141048600Y-83763000D02*
G01*
X140046600Y-83763000D01*
X140046600Y-82861000D01*
X141048600Y-82861000D01*
X141048600Y-83763000D01*
G37*
G36*
X175283991Y-82344885D02*
G01*
X175317969Y-82355193D01*
X175349290Y-82371934D01*
X175376739Y-82394461D01*
X175399266Y-82421910D01*
X175416007Y-82453231D01*
X175426315Y-82487209D01*
X175430400Y-82528690D01*
X175430400Y-83129910D01*
X175426315Y-83171391D01*
X175416007Y-83205369D01*
X175399266Y-83236690D01*
X175376739Y-83264139D01*
X175349290Y-83286666D01*
X175317969Y-83303407D01*
X175283991Y-83313715D01*
X175242510Y-83317800D01*
X174566290Y-83317800D01*
X174524809Y-83313715D01*
X174490831Y-83303407D01*
X174459510Y-83286666D01*
X174432061Y-83264139D01*
X174409534Y-83236690D01*
X174392793Y-83205369D01*
X174382485Y-83171391D01*
X174378400Y-83129910D01*
X174378400Y-82528690D01*
X174382485Y-82487209D01*
X174392793Y-82453231D01*
X174409534Y-82421910D01*
X174432061Y-82394461D01*
X174459510Y-82371934D01*
X174490831Y-82355193D01*
X174524809Y-82344885D01*
X174566290Y-82340800D01*
X175242510Y-82340800D01*
X175283991Y-82344885D01*
G37*
G36*
X178433591Y-82243285D02*
G01*
X178467569Y-82253593D01*
X178498890Y-82270334D01*
X178526339Y-82292861D01*
X178548866Y-82320310D01*
X178565607Y-82351631D01*
X178575915Y-82385609D01*
X178580000Y-82427090D01*
X178580000Y-83028310D01*
X178575915Y-83069791D01*
X178565607Y-83103769D01*
X178548866Y-83135090D01*
X178526339Y-83162539D01*
X178498890Y-83185066D01*
X178467569Y-83201807D01*
X178433591Y-83212115D01*
X178392110Y-83216200D01*
X177715890Y-83216200D01*
X177674409Y-83212115D01*
X177640431Y-83201807D01*
X177609110Y-83185066D01*
X177581661Y-83162539D01*
X177559134Y-83135090D01*
X177542393Y-83103769D01*
X177532085Y-83069791D01*
X177528000Y-83028310D01*
X177528000Y-82427090D01*
X177532085Y-82385609D01*
X177542393Y-82351631D01*
X177559134Y-82320310D01*
X177581661Y-82292861D01*
X177609110Y-82270334D01*
X177640431Y-82253593D01*
X177674409Y-82243285D01*
X177715890Y-82239200D01*
X178392110Y-82239200D01*
X178433591Y-82243285D01*
G37*
G36*
X170216823Y-81194013D02*
G01*
X170377242Y-81242676D01*
X170490880Y-81303417D01*
X170525078Y-81321696D01*
X170654659Y-81428041D01*
X170761004Y-81557622D01*
X170761005Y-81557624D01*
X170840024Y-81705458D01*
X170888687Y-81865877D01*
X170905117Y-82032700D01*
X170888687Y-82199523D01*
X170840024Y-82359942D01*
X170771998Y-82487209D01*
X170761004Y-82507778D01*
X170654659Y-82637359D01*
X170525078Y-82743704D01*
X170525076Y-82743705D01*
X170377242Y-82822724D01*
X170216823Y-82871387D01*
X170091804Y-82883700D01*
X169608196Y-82883700D01*
X169483177Y-82871387D01*
X169322758Y-82822724D01*
X169174924Y-82743705D01*
X169174922Y-82743704D01*
X169045341Y-82637359D01*
X168938996Y-82507778D01*
X168928002Y-82487209D01*
X168859976Y-82359942D01*
X168811313Y-82199523D01*
X168794883Y-82032700D01*
X168811313Y-81865877D01*
X168859976Y-81705458D01*
X168938995Y-81557624D01*
X168938996Y-81557622D01*
X169045341Y-81428041D01*
X169174922Y-81321696D01*
X169209120Y-81303417D01*
X169322758Y-81242676D01*
X169483177Y-81194013D01*
X169608196Y-81181700D01*
X170091804Y-81181700D01*
X170216823Y-81194013D01*
G37*
G36*
X139048600Y-82813000D02*
G01*
X138046600Y-82813000D01*
X138046600Y-81911000D01*
X139048600Y-81911000D01*
X139048600Y-82813000D01*
G37*
G36*
X118416823Y-81070313D02*
G01*
X118577242Y-81118976D01*
X118694590Y-81181700D01*
X118725078Y-81197996D01*
X118854659Y-81304341D01*
X118961004Y-81433922D01*
X118961005Y-81433924D01*
X119040024Y-81581758D01*
X119088687Y-81742177D01*
X119105117Y-81909000D01*
X119088687Y-82075823D01*
X119040024Y-82236242D01*
X118973905Y-82359942D01*
X118961004Y-82384078D01*
X118854659Y-82513659D01*
X118725078Y-82620004D01*
X118725076Y-82620005D01*
X118577242Y-82699024D01*
X118416823Y-82747687D01*
X118291804Y-82760000D01*
X117808196Y-82760000D01*
X117683177Y-82747687D01*
X117522758Y-82699024D01*
X117374924Y-82620005D01*
X117374922Y-82620004D01*
X117245341Y-82513659D01*
X117138996Y-82384078D01*
X117126095Y-82359942D01*
X117059976Y-82236242D01*
X117011313Y-82075823D01*
X116994883Y-81909000D01*
X117011313Y-81742177D01*
X117059976Y-81581758D01*
X117138995Y-81433924D01*
X117138996Y-81433922D01*
X117245341Y-81304341D01*
X117374922Y-81197996D01*
X117405410Y-81181700D01*
X117522758Y-81118976D01*
X117683177Y-81070313D01*
X117808196Y-81058000D01*
X118291804Y-81058000D01*
X118416823Y-81070313D01*
G37*
G36*
X111416823Y-81070313D02*
G01*
X111577242Y-81118976D01*
X111694590Y-81181700D01*
X111725078Y-81197996D01*
X111854659Y-81304341D01*
X111961004Y-81433922D01*
X111961005Y-81433924D01*
X112040024Y-81581758D01*
X112088687Y-81742177D01*
X112105117Y-81909000D01*
X112088687Y-82075823D01*
X112040024Y-82236242D01*
X111973905Y-82359942D01*
X111961004Y-82384078D01*
X111854659Y-82513659D01*
X111725078Y-82620004D01*
X111725076Y-82620005D01*
X111577242Y-82699024D01*
X111416823Y-82747687D01*
X111291804Y-82760000D01*
X110808196Y-82760000D01*
X110683177Y-82747687D01*
X110522758Y-82699024D01*
X110374924Y-82620005D01*
X110374922Y-82620004D01*
X110245341Y-82513659D01*
X110138996Y-82384078D01*
X110126095Y-82359942D01*
X110059976Y-82236242D01*
X110011313Y-82075823D01*
X109994883Y-81909000D01*
X110011313Y-81742177D01*
X110059976Y-81581758D01*
X110138995Y-81433924D01*
X110138996Y-81433922D01*
X110245341Y-81304341D01*
X110374922Y-81197996D01*
X110405410Y-81181700D01*
X110522758Y-81118976D01*
X110683177Y-81070313D01*
X110808196Y-81058000D01*
X111291804Y-81058000D01*
X111416823Y-81070313D01*
G37*
G36*
X114416823Y-81070313D02*
G01*
X114577242Y-81118976D01*
X114694590Y-81181700D01*
X114725078Y-81197996D01*
X114854659Y-81304341D01*
X114961004Y-81433922D01*
X114961005Y-81433924D01*
X115040024Y-81581758D01*
X115088687Y-81742177D01*
X115105117Y-81909000D01*
X115088687Y-82075823D01*
X115040024Y-82236242D01*
X114973905Y-82359942D01*
X114961004Y-82384078D01*
X114854659Y-82513659D01*
X114725078Y-82620004D01*
X114725076Y-82620005D01*
X114577242Y-82699024D01*
X114416823Y-82747687D01*
X114291804Y-82760000D01*
X113808196Y-82760000D01*
X113683177Y-82747687D01*
X113522758Y-82699024D01*
X113374924Y-82620005D01*
X113374922Y-82620004D01*
X113245341Y-82513659D01*
X113138996Y-82384078D01*
X113126095Y-82359942D01*
X113059976Y-82236242D01*
X113011313Y-82075823D01*
X112994883Y-81909000D01*
X113011313Y-81742177D01*
X113059976Y-81581758D01*
X113138995Y-81433924D01*
X113138996Y-81433922D01*
X113245341Y-81304341D01*
X113374922Y-81197996D01*
X113405410Y-81181700D01*
X113522758Y-81118976D01*
X113683177Y-81070313D01*
X113808196Y-81058000D01*
X114291804Y-81058000D01*
X114416823Y-81070313D01*
G37*
G36*
X148787104Y-79976347D02*
G01*
X148823644Y-79987432D01*
X148857321Y-80005433D01*
X148886841Y-80029659D01*
X148911067Y-80059179D01*
X148929068Y-80092856D01*
X148940153Y-80129396D01*
X148944500Y-80173538D01*
X148944500Y-81122462D01*
X148940153Y-81166604D01*
X148929068Y-81203144D01*
X148911067Y-81236821D01*
X148886841Y-81266341D01*
X148857321Y-81290567D01*
X148823644Y-81308568D01*
X148787104Y-81319653D01*
X148742962Y-81324000D01*
X147294038Y-81324000D01*
X147249896Y-81319653D01*
X147213356Y-81308568D01*
X147179679Y-81290567D01*
X147150159Y-81266341D01*
X147125933Y-81236821D01*
X147107932Y-81203144D01*
X147096847Y-81166604D01*
X147092500Y-81122462D01*
X147092500Y-80173538D01*
X147096847Y-80129396D01*
X147107932Y-80092856D01*
X147125933Y-80059179D01*
X147150159Y-80029659D01*
X147179679Y-80005433D01*
X147213356Y-79987432D01*
X147249896Y-79976347D01*
X147294038Y-79972000D01*
X148742962Y-79972000D01*
X148787104Y-79976347D01*
G37*
G36*
X146117500Y-80876000D02*
G01*
X145215500Y-80876000D01*
X145215500Y-79874000D01*
X146117500Y-79874000D01*
X146117500Y-80876000D01*
G37*
G36*
X144217500Y-80876000D02*
G01*
X143315500Y-80876000D01*
X143315500Y-79874000D01*
X144217500Y-79874000D01*
X144217500Y-80876000D01*
G37*
G36*
X145167500Y-78876000D02*
G01*
X144265500Y-78876000D01*
X144265500Y-77874000D01*
X145167500Y-77874000D01*
X145167500Y-78876000D01*
G37*
G36*
X148787104Y-77176347D02*
G01*
X148823644Y-77187432D01*
X148857321Y-77205433D01*
X148886841Y-77229659D01*
X148911067Y-77259179D01*
X148929068Y-77292856D01*
X148940153Y-77329396D01*
X148944500Y-77373538D01*
X148944500Y-78322462D01*
X148940153Y-78366604D01*
X148929068Y-78403144D01*
X148911067Y-78436821D01*
X148886841Y-78466341D01*
X148857321Y-78490567D01*
X148823644Y-78508568D01*
X148787104Y-78519653D01*
X148742962Y-78524000D01*
X147294038Y-78524000D01*
X147249896Y-78519653D01*
X147213356Y-78508568D01*
X147179679Y-78490567D01*
X147150159Y-78466341D01*
X147125933Y-78436821D01*
X147107932Y-78403144D01*
X147096847Y-78366604D01*
X147092500Y-78322462D01*
X147092500Y-77373538D01*
X147096847Y-77329396D01*
X147107932Y-77292856D01*
X147125933Y-77259179D01*
X147150159Y-77229659D01*
X147179679Y-77205433D01*
X147213356Y-77187432D01*
X147249896Y-77176347D01*
X147294038Y-77172000D01*
X148742962Y-77172000D01*
X148787104Y-77176347D01*
G37*
G36*
X121223500Y-78307500D02*
G01*
X119421500Y-78307500D01*
X119421500Y-76505500D01*
X121223500Y-76505500D01*
X121223500Y-78307500D01*
G37*
G36*
X130606012Y-76510427D02*
G01*
X130755312Y-76540124D01*
X130919284Y-76608044D01*
X131066854Y-76706647D01*
X131192353Y-76832146D01*
X131290956Y-76979716D01*
X131358876Y-77143688D01*
X131393500Y-77317759D01*
X131393500Y-77495241D01*
X131358876Y-77669312D01*
X131290956Y-77833284D01*
X131192353Y-77980854D01*
X131066854Y-78106353D01*
X130919284Y-78204956D01*
X130755312Y-78272876D01*
X130606012Y-78302573D01*
X130581242Y-78307500D01*
X130403758Y-78307500D01*
X130378988Y-78302573D01*
X130229688Y-78272876D01*
X130065716Y-78204956D01*
X129918146Y-78106353D01*
X129792647Y-77980854D01*
X129694044Y-77833284D01*
X129626124Y-77669312D01*
X129591500Y-77495241D01*
X129591500Y-77317759D01*
X129626124Y-77143688D01*
X129694044Y-76979716D01*
X129792647Y-76832146D01*
X129918146Y-76706647D01*
X130065716Y-76608044D01*
X130229688Y-76540124D01*
X130378988Y-76510427D01*
X130403758Y-76505500D01*
X130581242Y-76505500D01*
X130606012Y-76510427D01*
G37*
G36*
X125526012Y-76510427D02*
G01*
X125675312Y-76540124D01*
X125839284Y-76608044D01*
X125986854Y-76706647D01*
X126112353Y-76832146D01*
X126210956Y-76979716D01*
X126278876Y-77143688D01*
X126313500Y-77317759D01*
X126313500Y-77495241D01*
X126278876Y-77669312D01*
X126210956Y-77833284D01*
X126112353Y-77980854D01*
X125986854Y-78106353D01*
X125839284Y-78204956D01*
X125675312Y-78272876D01*
X125526012Y-78302573D01*
X125501242Y-78307500D01*
X125323758Y-78307500D01*
X125298988Y-78302573D01*
X125149688Y-78272876D01*
X124985716Y-78204956D01*
X124838146Y-78106353D01*
X124712647Y-77980854D01*
X124614044Y-77833284D01*
X124546124Y-77669312D01*
X124511500Y-77495241D01*
X124511500Y-77317759D01*
X124546124Y-77143688D01*
X124614044Y-76979716D01*
X124712647Y-76832146D01*
X124838146Y-76706647D01*
X124985716Y-76608044D01*
X125149688Y-76540124D01*
X125298988Y-76510427D01*
X125323758Y-76505500D01*
X125501242Y-76505500D01*
X125526012Y-76510427D01*
G37*
G36*
X135686012Y-76510427D02*
G01*
X135835312Y-76540124D01*
X135999284Y-76608044D01*
X136146854Y-76706647D01*
X136272353Y-76832146D01*
X136370956Y-76979716D01*
X136438876Y-77143688D01*
X136473500Y-77317759D01*
X136473500Y-77495241D01*
X136438876Y-77669312D01*
X136370956Y-77833284D01*
X136272353Y-77980854D01*
X136146854Y-78106353D01*
X135999284Y-78204956D01*
X135835312Y-78272876D01*
X135686012Y-78302573D01*
X135661242Y-78307500D01*
X135483758Y-78307500D01*
X135458988Y-78302573D01*
X135309688Y-78272876D01*
X135145716Y-78204956D01*
X134998146Y-78106353D01*
X134872647Y-77980854D01*
X134774044Y-77833284D01*
X134706124Y-77669312D01*
X134671500Y-77495241D01*
X134671500Y-77317759D01*
X134706124Y-77143688D01*
X134774044Y-76979716D01*
X134872647Y-76832146D01*
X134998146Y-76706647D01*
X135145716Y-76608044D01*
X135309688Y-76540124D01*
X135458988Y-76510427D01*
X135483758Y-76505500D01*
X135661242Y-76505500D01*
X135686012Y-76510427D01*
G37*
G36*
X158586268Y-76012365D02*
G01*
X158624938Y-76024096D01*
X158660577Y-76043146D01*
X158691817Y-76068783D01*
X158717454Y-76100023D01*
X158736504Y-76135662D01*
X158748235Y-76174332D01*
X158752800Y-76220688D01*
X158752800Y-77296912D01*
X158748235Y-77343268D01*
X158736504Y-77381938D01*
X158717454Y-77417577D01*
X158691817Y-77448817D01*
X158660577Y-77474454D01*
X158624938Y-77493504D01*
X158586268Y-77505235D01*
X158539912Y-77509800D01*
X157888688Y-77509800D01*
X157842332Y-77505235D01*
X157803662Y-77493504D01*
X157768023Y-77474454D01*
X157736783Y-77448817D01*
X157711146Y-77417577D01*
X157692096Y-77381938D01*
X157680365Y-77343268D01*
X157675800Y-77296912D01*
X157675800Y-76220688D01*
X157680365Y-76174332D01*
X157692096Y-76135662D01*
X157711146Y-76100023D01*
X157736783Y-76068783D01*
X157768023Y-76043146D01*
X157803662Y-76024096D01*
X157842332Y-76012365D01*
X157888688Y-76007800D01*
X158539912Y-76007800D01*
X158586268Y-76012365D01*
G37*
G36*
X156711268Y-76012365D02*
G01*
X156749938Y-76024096D01*
X156785577Y-76043146D01*
X156816817Y-76068783D01*
X156842454Y-76100023D01*
X156861504Y-76135662D01*
X156873235Y-76174332D01*
X156877800Y-76220688D01*
X156877800Y-77296912D01*
X156873235Y-77343268D01*
X156861504Y-77381938D01*
X156842454Y-77417577D01*
X156816817Y-77448817D01*
X156785577Y-77474454D01*
X156749938Y-77493504D01*
X156711268Y-77505235D01*
X156664912Y-77509800D01*
X156013688Y-77509800D01*
X155967332Y-77505235D01*
X155928662Y-77493504D01*
X155893023Y-77474454D01*
X155861783Y-77448817D01*
X155836146Y-77417577D01*
X155817096Y-77381938D01*
X155805365Y-77343268D01*
X155800800Y-77296912D01*
X155800800Y-76220688D01*
X155805365Y-76174332D01*
X155817096Y-76135662D01*
X155836146Y-76100023D01*
X155861783Y-76068783D01*
X155893023Y-76043146D01*
X155928662Y-76024096D01*
X155967332Y-76012365D01*
X156013688Y-76007800D01*
X156664912Y-76007800D01*
X156711268Y-76012365D01*
G37*
G36*
X146136895Y-75031546D02*
G01*
X146309966Y-75103234D01*
X146309967Y-75103235D01*
X146465727Y-75207310D01*
X146598190Y-75339773D01*
X146598191Y-75339775D01*
X146702266Y-75495534D01*
X146773954Y-75668605D01*
X146810500Y-75852333D01*
X146810500Y-76039667D01*
X146773954Y-76223395D01*
X146702266Y-76396466D01*
X146702265Y-76396467D01*
X146598190Y-76552227D01*
X146465727Y-76684690D01*
X146432866Y-76706647D01*
X146309966Y-76788766D01*
X146136895Y-76860454D01*
X145953167Y-76897000D01*
X145765833Y-76897000D01*
X145582105Y-76860454D01*
X145409034Y-76788766D01*
X145286134Y-76706647D01*
X145253273Y-76684690D01*
X145120810Y-76552227D01*
X145016735Y-76396467D01*
X145016734Y-76396466D01*
X144945046Y-76223395D01*
X144908500Y-76039667D01*
X144908500Y-75852333D01*
X144945046Y-75668605D01*
X145016734Y-75495534D01*
X145120809Y-75339775D01*
X145120810Y-75339773D01*
X145253273Y-75207310D01*
X145409033Y-75103235D01*
X145409034Y-75103234D01*
X145582105Y-75031546D01*
X145765833Y-74995000D01*
X145953167Y-74995000D01*
X146136895Y-75031546D01*
G37*
G36*
X144270500Y-76897000D02*
G01*
X142368500Y-76897000D01*
X142368500Y-74995000D01*
X144270500Y-74995000D01*
X144270500Y-76897000D01*
G37*
G36*
X127126500Y-75627000D02*
G01*
X124524500Y-75627000D01*
X124524500Y-73725000D01*
X127126500Y-73725000D01*
X127126500Y-75627000D01*
G37*
G36*
X131126500Y-75627000D02*
G01*
X128524500Y-75627000D01*
X128524500Y-73725000D01*
X131126500Y-73725000D01*
X131126500Y-75627000D01*
G37*
G36*
X162204057Y-72649397D02*
G01*
X162236202Y-72659149D01*
X162265830Y-72674985D01*
X162291801Y-72696299D01*
X162313115Y-72722270D01*
X162328951Y-72751898D01*
X162338703Y-72784043D01*
X162342600Y-72823614D01*
X162342600Y-74369386D01*
X162338703Y-74408957D01*
X162328951Y-74441102D01*
X162313115Y-74470730D01*
X162291801Y-74496701D01*
X162265830Y-74518015D01*
X162236202Y-74533851D01*
X162204057Y-74543603D01*
X162164486Y-74547500D01*
X160618714Y-74547500D01*
X160579143Y-74543603D01*
X160546998Y-74533851D01*
X160517370Y-74518015D01*
X160491399Y-74496701D01*
X160470085Y-74470730D01*
X160454249Y-74441102D01*
X160444497Y-74408957D01*
X160440600Y-74369386D01*
X160440600Y-72823614D01*
X160444497Y-72784043D01*
X160454249Y-72751898D01*
X160470085Y-72722270D01*
X160491399Y-72696299D01*
X160517370Y-72674985D01*
X160546998Y-72659149D01*
X160579143Y-72649397D01*
X160618714Y-72645500D01*
X162164486Y-72645500D01*
X162204057Y-72649397D01*
G37*
G36*
X159128995Y-72682046D02*
G01*
X159302066Y-72753734D01*
X159379418Y-72805419D01*
X159457827Y-72857810D01*
X159590290Y-72990273D01*
X159590291Y-72990275D01*
X159694366Y-73146034D01*
X159766054Y-73319105D01*
X159802600Y-73502833D01*
X159802600Y-73690167D01*
X159766054Y-73873895D01*
X159694366Y-74046966D01*
X159694365Y-74046967D01*
X159590290Y-74202727D01*
X159457827Y-74335190D01*
X159456269Y-74336231D01*
X159302066Y-74439266D01*
X159128995Y-74510954D01*
X158945267Y-74547500D01*
X158757933Y-74547500D01*
X158574205Y-74510954D01*
X158401134Y-74439266D01*
X158246931Y-74336231D01*
X158245373Y-74335190D01*
X158112910Y-74202727D01*
X158008835Y-74046967D01*
X158008834Y-74046966D01*
X157937146Y-73873895D01*
X157900600Y-73690167D01*
X157900600Y-73502833D01*
X157937146Y-73319105D01*
X158008834Y-73146034D01*
X158112909Y-72990275D01*
X158112910Y-72990273D01*
X158245373Y-72857810D01*
X158323782Y-72805419D01*
X158401134Y-72753734D01*
X158574205Y-72682046D01*
X158757933Y-72645500D01*
X158945267Y-72645500D01*
X159128995Y-72682046D01*
G37*
G36*
X156588995Y-72682046D02*
G01*
X156762066Y-72753734D01*
X156839418Y-72805419D01*
X156917827Y-72857810D01*
X157050290Y-72990273D01*
X157050291Y-72990275D01*
X157154366Y-73146034D01*
X157226054Y-73319105D01*
X157262600Y-73502833D01*
X157262600Y-73690167D01*
X157226054Y-73873895D01*
X157154366Y-74046966D01*
X157154365Y-74046967D01*
X157050290Y-74202727D01*
X156917827Y-74335190D01*
X156916269Y-74336231D01*
X156762066Y-74439266D01*
X156588995Y-74510954D01*
X156405267Y-74547500D01*
X156217933Y-74547500D01*
X156034205Y-74510954D01*
X155861134Y-74439266D01*
X155706931Y-74336231D01*
X155705373Y-74335190D01*
X155572910Y-74202727D01*
X155468835Y-74046967D01*
X155468834Y-74046966D01*
X155397146Y-73873895D01*
X155360600Y-73690167D01*
X155360600Y-73502833D01*
X155397146Y-73319105D01*
X155468834Y-73146034D01*
X155572909Y-72990275D01*
X155572910Y-72990273D01*
X155705373Y-72857810D01*
X155783782Y-72805419D01*
X155861134Y-72753734D01*
X156034205Y-72682046D01*
X156217933Y-72645500D01*
X156405267Y-72645500D01*
X156588995Y-72682046D01*
G37*
M02*
