G04 #@! TF.GenerationSoftware,KiCad,Pcbnew,5.1.6-c6e7f7d~86~ubuntu16.04.1*
G04 #@! TF.CreationDate,2020-07-12T16:36:50-04:00*
G04 #@! TF.ProjectId,tactile_switch_pcb_v2,74616374-696c-4655-9f73-77697463685f,1.0*
G04 #@! TF.SameCoordinates,Original*
G04 #@! TF.FileFunction,Legend,Top*
G04 #@! TF.FilePolarity,Positive*
%FSLAX46Y46*%
G04 Gerber Fmt 4.6, Leading zero omitted, Abs format (unit mm)*
G04 Created by KiCad (PCBNEW 5.1.6-c6e7f7d~86~ubuntu16.04.1) date 2020-07-12 16:36:50*
%MOMM*%
%LPD*%
G01*
G04 APERTURE LIST*
%ADD10C,0.120000*%
%ADD11C,0.150000*%
G04 APERTURE END LIST*
D10*
X153751000Y-101760000D02*
X153751000Y-104480000D01*
X153751000Y-111340000D02*
X153751000Y-114060000D01*
X141451000Y-109480000D02*
X141451000Y-106340000D01*
X141451000Y-114060000D02*
X141451000Y-111340000D01*
X152280050Y-107950000D02*
G75*
G03*
X152280050Y-107950000I-4579050J0D01*
G01*
X141451000Y-104480000D02*
X141451000Y-101760000D01*
X153751000Y-114060000D02*
X141451000Y-114060000D01*
X153751000Y-106340000D02*
X153751000Y-109480000D01*
X141451000Y-101760000D02*
X153751000Y-101760000D01*
D11*
X146097666Y-101154761D02*
X146240523Y-101202380D01*
X146478619Y-101202380D01*
X146573857Y-101154761D01*
X146621476Y-101107142D01*
X146669095Y-101011904D01*
X146669095Y-100916666D01*
X146621476Y-100821428D01*
X146573857Y-100773809D01*
X146478619Y-100726190D01*
X146288142Y-100678571D01*
X146192904Y-100630952D01*
X146145285Y-100583333D01*
X146097666Y-100488095D01*
X146097666Y-100392857D01*
X146145285Y-100297619D01*
X146192904Y-100250000D01*
X146288142Y-100202380D01*
X146526238Y-100202380D01*
X146669095Y-100250000D01*
X147002428Y-100202380D02*
X147240523Y-101202380D01*
X147431000Y-100488095D01*
X147621476Y-101202380D01*
X147859571Y-100202380D01*
X148764333Y-101202380D02*
X148192904Y-101202380D01*
X148478619Y-101202380D02*
X148478619Y-100202380D01*
X148383380Y-100345238D01*
X148288142Y-100440476D01*
X148192904Y-100488095D01*
M02*
