G04 #@! TF.GenerationSoftware,KiCad,Pcbnew,5.1.4-e60b266~84~ubuntu16.04.1*
G04 #@! TF.CreationDate,2019-09-19T10:39:33-04:00*
G04 #@! TF.ProjectId,tactile_switch_pcb_v2,74616374-696c-4655-9f73-77697463685f,1.0*
G04 #@! TF.SameCoordinates,Original*
G04 #@! TF.FileFunction,Legend,Top*
G04 #@! TF.FilePolarity,Positive*
%FSLAX46Y46*%
G04 Gerber Fmt 4.6, Leading zero omitted, Abs format (unit mm)*
G04 Created by KiCad (PCBNEW 5.1.4-e60b266~84~ubuntu16.04.1) date 2019-09-19 10:39:33*
%MOMM*%
%LPD*%
G04 APERTURE LIST*
%ADD10C,0.150000*%
%ADD11C,0.120000*%
G04 APERTURE END LIST*
D10*
X150852428Y-119229190D02*
X150852428Y-119705380D01*
X150519095Y-118705380D02*
X150852428Y-119229190D01*
X151185761Y-118705380D01*
X151900047Y-119657761D02*
X151804809Y-119705380D01*
X151614333Y-119705380D01*
X151519095Y-119657761D01*
X151471476Y-119562523D01*
X151471476Y-119181571D01*
X151519095Y-119086333D01*
X151614333Y-119038714D01*
X151804809Y-119038714D01*
X151900047Y-119086333D01*
X151947666Y-119181571D01*
X151947666Y-119276809D01*
X151471476Y-119372047D01*
X152519095Y-119705380D02*
X152423857Y-119657761D01*
X152376238Y-119562523D01*
X152376238Y-118705380D01*
X153042904Y-119705380D02*
X152947666Y-119657761D01*
X152900047Y-119562523D01*
X152900047Y-118705380D01*
X153566714Y-119705380D02*
X153471476Y-119657761D01*
X153423857Y-119610142D01*
X153376238Y-119514904D01*
X153376238Y-119229190D01*
X153423857Y-119133952D01*
X153471476Y-119086333D01*
X153566714Y-119038714D01*
X153709571Y-119038714D01*
X153804809Y-119086333D01*
X153852428Y-119133952D01*
X153900047Y-119229190D01*
X153900047Y-119514904D01*
X153852428Y-119610142D01*
X153804809Y-119657761D01*
X153709571Y-119705380D01*
X153566714Y-119705380D01*
X154233380Y-119038714D02*
X154423857Y-119705380D01*
X154614333Y-119229190D01*
X154804809Y-119705380D01*
X154995285Y-119038714D01*
X141144809Y-119308571D02*
X141287666Y-119356190D01*
X141335285Y-119403809D01*
X141382904Y-119499047D01*
X141382904Y-119641904D01*
X141335285Y-119737142D01*
X141287666Y-119784761D01*
X141192428Y-119832380D01*
X140811476Y-119832380D01*
X140811476Y-118832380D01*
X141144809Y-118832380D01*
X141240047Y-118880000D01*
X141287666Y-118927619D01*
X141335285Y-119022857D01*
X141335285Y-119118095D01*
X141287666Y-119213333D01*
X141240047Y-119260952D01*
X141144809Y-119308571D01*
X140811476Y-119308571D01*
X141954333Y-119832380D02*
X141859095Y-119784761D01*
X141811476Y-119689523D01*
X141811476Y-118832380D01*
X142763857Y-119832380D02*
X142763857Y-119308571D01*
X142716238Y-119213333D01*
X142621000Y-119165714D01*
X142430523Y-119165714D01*
X142335285Y-119213333D01*
X142763857Y-119784761D02*
X142668619Y-119832380D01*
X142430523Y-119832380D01*
X142335285Y-119784761D01*
X142287666Y-119689523D01*
X142287666Y-119594285D01*
X142335285Y-119499047D01*
X142430523Y-119451428D01*
X142668619Y-119451428D01*
X142763857Y-119403809D01*
X143668619Y-119784761D02*
X143573380Y-119832380D01*
X143382904Y-119832380D01*
X143287666Y-119784761D01*
X143240047Y-119737142D01*
X143192428Y-119641904D01*
X143192428Y-119356190D01*
X143240047Y-119260952D01*
X143287666Y-119213333D01*
X143382904Y-119165714D01*
X143573380Y-119165714D01*
X143668619Y-119213333D01*
X144097190Y-119832380D02*
X144097190Y-118832380D01*
X144192428Y-119451428D02*
X144478142Y-119832380D01*
X144478142Y-119165714D02*
X144097190Y-119546666D01*
D11*
X145270000Y-119080000D02*
G75*
G02X145970000Y-118380000I700000J0D01*
G01*
X145970000Y-120380000D02*
G75*
G02X145270000Y-119680000I0J700000D01*
G01*
X149370000Y-119680000D02*
G75*
G02X148670000Y-120380000I-700000J0D01*
G01*
X148670000Y-118380000D02*
G75*
G02X149370000Y-119080000I0J-700000D01*
G01*
X145920000Y-118380000D02*
X148720000Y-118380000D01*
X149370000Y-119080000D02*
X149370000Y-119680000D01*
X148720000Y-120380000D02*
X145920000Y-120380000D01*
X145270000Y-119680000D02*
X145270000Y-119080000D01*
X146120000Y-120580000D02*
X145820000Y-120880000D01*
X145820000Y-120880000D02*
X146420000Y-120880000D01*
X146120000Y-120580000D02*
X146420000Y-120880000D01*
X153751000Y-101760000D02*
X153751000Y-104480000D01*
X153751000Y-111340000D02*
X153751000Y-114060000D01*
X141451000Y-109480000D02*
X141451000Y-106340000D01*
X141451000Y-114060000D02*
X141451000Y-111340000D01*
X152280050Y-107950000D02*
G75*
G03X152280050Y-107950000I-4579050J0D01*
G01*
X141451000Y-104480000D02*
X141451000Y-101760000D01*
X153751000Y-114060000D02*
X141451000Y-114060000D01*
X153751000Y-106340000D02*
X153751000Y-109480000D01*
X141451000Y-101760000D02*
X153751000Y-101760000D01*
D10*
X146486666Y-120864380D02*
X146486666Y-121578666D01*
X146439047Y-121721523D01*
X146343809Y-121816761D01*
X146200952Y-121864380D01*
X146105714Y-121864380D01*
X146962857Y-121864380D02*
X146962857Y-120864380D01*
X147343809Y-120864380D01*
X147439047Y-120912000D01*
X147486666Y-120959619D01*
X147534285Y-121054857D01*
X147534285Y-121197714D01*
X147486666Y-121292952D01*
X147439047Y-121340571D01*
X147343809Y-121388190D01*
X146962857Y-121388190D01*
X148486666Y-121864380D02*
X147915238Y-121864380D01*
X148200952Y-121864380D02*
X148200952Y-120864380D01*
X148105714Y-121007238D01*
X148010476Y-121102476D01*
X147915238Y-121150095D01*
X146494666Y-115212761D02*
X146637523Y-115260380D01*
X146875619Y-115260380D01*
X146970857Y-115212761D01*
X147018476Y-115165142D01*
X147066095Y-115069904D01*
X147066095Y-114974666D01*
X147018476Y-114879428D01*
X146970857Y-114831809D01*
X146875619Y-114784190D01*
X146685142Y-114736571D01*
X146589904Y-114688952D01*
X146542285Y-114641333D01*
X146494666Y-114546095D01*
X146494666Y-114450857D01*
X146542285Y-114355619D01*
X146589904Y-114308000D01*
X146685142Y-114260380D01*
X146923238Y-114260380D01*
X147066095Y-114308000D01*
X147399428Y-114260380D02*
X147637523Y-115260380D01*
X147828000Y-114546095D01*
X148018476Y-115260380D01*
X148256571Y-114260380D01*
X149161333Y-115260380D02*
X148589904Y-115260380D01*
X148875619Y-115260380D02*
X148875619Y-114260380D01*
X148780380Y-114403238D01*
X148685142Y-114498476D01*
X148589904Y-114546095D01*
M02*
