G04 #@! TF.GenerationSoftware,KiCad,Pcbnew,5.1.4-e60b266~84~ubuntu16.04.1*
G04 #@! TF.CreationDate,2019-09-19T10:39:33-04:00*
G04 #@! TF.ProjectId,tactile_switch_pcb_v2,74616374-696c-4655-9f73-77697463685f,1.0*
G04 #@! TF.SameCoordinates,Original*
G04 #@! TF.FileFunction,Legend,Bot*
G04 #@! TF.FilePolarity,Positive*
%FSLAX46Y46*%
G04 Gerber Fmt 4.6, Leading zero omitted, Abs format (unit mm)*
G04 Created by KiCad (PCBNEW 5.1.4-e60b266~84~ubuntu16.04.1) date 2019-09-19 10:39:33*
%MOMM*%
%LPD*%
G04 APERTURE LIST*
%ADD10C,0.150000*%
G04 APERTURE END LIST*
D10*
X143915380Y-104426857D02*
X143915380Y-104998285D01*
X144915380Y-104712571D02*
X143915380Y-104712571D01*
X144915380Y-105760190D02*
X144391571Y-105760190D01*
X144296333Y-105712571D01*
X144248714Y-105617333D01*
X144248714Y-105426857D01*
X144296333Y-105331619D01*
X144867761Y-105760190D02*
X144915380Y-105664952D01*
X144915380Y-105426857D01*
X144867761Y-105331619D01*
X144772523Y-105284000D01*
X144677285Y-105284000D01*
X144582047Y-105331619D01*
X144534428Y-105426857D01*
X144534428Y-105664952D01*
X144486809Y-105760190D01*
X144867761Y-106664952D02*
X144915380Y-106569714D01*
X144915380Y-106379238D01*
X144867761Y-106284000D01*
X144820142Y-106236380D01*
X144724904Y-106188761D01*
X144439190Y-106188761D01*
X144343952Y-106236380D01*
X144296333Y-106284000D01*
X144248714Y-106379238D01*
X144248714Y-106569714D01*
X144296333Y-106664952D01*
X144248714Y-106950666D02*
X144248714Y-107331619D01*
X143915380Y-107093523D02*
X144772523Y-107093523D01*
X144867761Y-107141142D01*
X144915380Y-107236380D01*
X144915380Y-107331619D01*
X144915380Y-107664952D02*
X144248714Y-107664952D01*
X143915380Y-107664952D02*
X143963000Y-107617333D01*
X144010619Y-107664952D01*
X143963000Y-107712571D01*
X143915380Y-107664952D01*
X144010619Y-107664952D01*
X144915380Y-108284000D02*
X144867761Y-108188761D01*
X144772523Y-108141142D01*
X143915380Y-108141142D01*
X144867761Y-109045904D02*
X144915380Y-108950666D01*
X144915380Y-108760190D01*
X144867761Y-108664952D01*
X144772523Y-108617333D01*
X144391571Y-108617333D01*
X144296333Y-108664952D01*
X144248714Y-108760190D01*
X144248714Y-108950666D01*
X144296333Y-109045904D01*
X144391571Y-109093523D01*
X144486809Y-109093523D01*
X144582047Y-108617333D01*
X144867761Y-110236380D02*
X144915380Y-110379238D01*
X144915380Y-110617333D01*
X144867761Y-110712571D01*
X144820142Y-110760190D01*
X144724904Y-110807809D01*
X144629666Y-110807809D01*
X144534428Y-110760190D01*
X144486809Y-110712571D01*
X144439190Y-110617333D01*
X144391571Y-110426857D01*
X144343952Y-110331619D01*
X144296333Y-110284000D01*
X144201095Y-110236380D01*
X144105857Y-110236380D01*
X144010619Y-110284000D01*
X143963000Y-110331619D01*
X143915380Y-110426857D01*
X143915380Y-110664952D01*
X143963000Y-110807809D01*
X144248714Y-111141142D02*
X144915380Y-111331619D01*
X144439190Y-111522095D01*
X144915380Y-111712571D01*
X144248714Y-111903047D01*
X144915380Y-112284000D02*
X144248714Y-112284000D01*
X143915380Y-112284000D02*
X143963000Y-112236380D01*
X144010619Y-112284000D01*
X143963000Y-112331619D01*
X143915380Y-112284000D01*
X144010619Y-112284000D01*
X144248714Y-112617333D02*
X144248714Y-112998285D01*
X143915380Y-112760190D02*
X144772523Y-112760190D01*
X144867761Y-112807809D01*
X144915380Y-112903047D01*
X144915380Y-112998285D01*
X144867761Y-113760190D02*
X144915380Y-113664952D01*
X144915380Y-113474476D01*
X144867761Y-113379238D01*
X144820142Y-113331619D01*
X144724904Y-113284000D01*
X144439190Y-113284000D01*
X144343952Y-113331619D01*
X144296333Y-113379238D01*
X144248714Y-113474476D01*
X144248714Y-113664952D01*
X144296333Y-113760190D01*
X144915380Y-114188761D02*
X143915380Y-114188761D01*
X144915380Y-114617333D02*
X144391571Y-114617333D01*
X144296333Y-114569714D01*
X144248714Y-114474476D01*
X144248714Y-114331619D01*
X144296333Y-114236380D01*
X144343952Y-114188761D01*
X144915380Y-115855428D02*
X143915380Y-115855428D01*
X144248714Y-116331619D02*
X144915380Y-116331619D01*
X144343952Y-116331619D02*
X144296333Y-116379238D01*
X144248714Y-116474476D01*
X144248714Y-116617333D01*
X144296333Y-116712571D01*
X144391571Y-116760190D01*
X144915380Y-116760190D01*
X144248714Y-117093523D02*
X144248714Y-117474476D01*
X143915380Y-117236380D02*
X144772523Y-117236380D01*
X144867761Y-117284000D01*
X144915380Y-117379238D01*
X144915380Y-117474476D01*
X144867761Y-118188761D02*
X144915380Y-118093523D01*
X144915380Y-117903047D01*
X144867761Y-117807809D01*
X144772523Y-117760190D01*
X144391571Y-117760190D01*
X144296333Y-117807809D01*
X144248714Y-117903047D01*
X144248714Y-118093523D01*
X144296333Y-118188761D01*
X144391571Y-118236380D01*
X144486809Y-118236380D01*
X144582047Y-117760190D01*
X144915380Y-118664952D02*
X144248714Y-118664952D01*
X144439190Y-118664952D02*
X144343952Y-118712571D01*
X144296333Y-118760190D01*
X144248714Y-118855428D01*
X144248714Y-118950666D01*
X144248714Y-119141142D02*
X144248714Y-119522095D01*
X144915380Y-119284000D02*
X144058238Y-119284000D01*
X143963000Y-119331619D01*
X143915380Y-119426857D01*
X143915380Y-119522095D01*
X144915380Y-120284000D02*
X144391571Y-120284000D01*
X144296333Y-120236380D01*
X144248714Y-120141142D01*
X144248714Y-119950666D01*
X144296333Y-119855428D01*
X144867761Y-120284000D02*
X144915380Y-120188761D01*
X144915380Y-119950666D01*
X144867761Y-119855428D01*
X144772523Y-119807809D01*
X144677285Y-119807809D01*
X144582047Y-119855428D01*
X144534428Y-119950666D01*
X144534428Y-120188761D01*
X144486809Y-120284000D01*
X144867761Y-121188761D02*
X144915380Y-121093523D01*
X144915380Y-120903047D01*
X144867761Y-120807809D01*
X144820142Y-120760190D01*
X144724904Y-120712571D01*
X144439190Y-120712571D01*
X144343952Y-120760190D01*
X144296333Y-120807809D01*
X144248714Y-120903047D01*
X144248714Y-121093523D01*
X144296333Y-121188761D01*
X144867761Y-121998285D02*
X144915380Y-121903047D01*
X144915380Y-121712571D01*
X144867761Y-121617333D01*
X144772523Y-121569714D01*
X144391571Y-121569714D01*
X144296333Y-121617333D01*
X144248714Y-121712571D01*
X144248714Y-121903047D01*
X144296333Y-121998285D01*
X144391571Y-122045904D01*
X144486809Y-122045904D01*
X144582047Y-121569714D01*
X145565380Y-110403047D02*
X146565380Y-110736380D01*
X145565380Y-111069714D01*
X146517761Y-111784000D02*
X146565380Y-111688761D01*
X146565380Y-111498285D01*
X146517761Y-111403047D01*
X146422523Y-111355428D01*
X146041571Y-111355428D01*
X145946333Y-111403047D01*
X145898714Y-111498285D01*
X145898714Y-111688761D01*
X145946333Y-111784000D01*
X146041571Y-111831619D01*
X146136809Y-111831619D01*
X146232047Y-111355428D01*
X146565380Y-112260190D02*
X145898714Y-112260190D01*
X146089190Y-112260190D02*
X145993952Y-112307809D01*
X145946333Y-112355428D01*
X145898714Y-112450666D01*
X145898714Y-112545904D01*
X146470142Y-112879238D02*
X146517761Y-112926857D01*
X146565380Y-112879238D01*
X146517761Y-112831619D01*
X146470142Y-112879238D01*
X146565380Y-112879238D01*
X145660619Y-114069714D02*
X145613000Y-114117333D01*
X145565380Y-114212571D01*
X145565380Y-114450666D01*
X145613000Y-114545904D01*
X145660619Y-114593523D01*
X145755857Y-114641142D01*
X145851095Y-114641142D01*
X145993952Y-114593523D01*
X146565380Y-114022095D01*
X146565380Y-114641142D01*
X146470142Y-115069714D02*
X146517761Y-115117333D01*
X146565380Y-115069714D01*
X146517761Y-115022095D01*
X146470142Y-115069714D01*
X146565380Y-115069714D01*
X145565380Y-115736380D02*
X145565380Y-115831619D01*
X145613000Y-115926857D01*
X145660619Y-115974476D01*
X145755857Y-116022095D01*
X145946333Y-116069714D01*
X146184428Y-116069714D01*
X146374904Y-116022095D01*
X146470142Y-115974476D01*
X146517761Y-115926857D01*
X146565380Y-115831619D01*
X146565380Y-115736380D01*
X146517761Y-115641142D01*
X146470142Y-115593523D01*
X146374904Y-115545904D01*
X146184428Y-115498285D01*
X145946333Y-115498285D01*
X145755857Y-115545904D01*
X145660619Y-115593523D01*
X145613000Y-115641142D01*
X145565380Y-115736380D01*
X150239000Y-137357000D02*
X144639000Y-137357000D01*
X144639000Y-135357000D02*
X144639000Y-137357000D01*
X150239000Y-135357000D02*
X150239000Y-137357000D01*
X144389000Y-135357000D02*
X144389000Y-123257000D01*
X150489000Y-135357000D02*
X150489000Y-123257000D01*
X150489000Y-123257000D02*
X144389000Y-123257000D01*
X150489000Y-135357000D02*
X144389000Y-135357000D01*
X147653333Y-121753380D02*
X147653333Y-122467666D01*
X147700952Y-122610523D01*
X147796190Y-122705761D01*
X147939047Y-122753380D01*
X148034285Y-122753380D01*
X146653333Y-122753380D02*
X147224761Y-122753380D01*
X146939047Y-122753380D02*
X146939047Y-121753380D01*
X147034285Y-121896238D01*
X147129523Y-121991476D01*
X147224761Y-122039095D01*
M02*
