G04 #@! TF.GenerationSoftware,KiCad,Pcbnew,5.1.4-e60b266~84~ubuntu16.04.1*
G04 #@! TF.CreationDate,2019-09-19T10:39:33-04:00*
G04 #@! TF.ProjectId,tactile_switch_pcb_v2,74616374-696c-4655-9f73-77697463685f,1.0*
G04 #@! TF.SameCoordinates,Original*
G04 #@! TF.FileFunction,Copper,L1,Top*
G04 #@! TF.FilePolarity,Positive*
%FSLAX46Y46*%
G04 Gerber Fmt 4.6, Leading zero omitted, Abs format (unit mm)*
G04 Created by KiCad (PCBNEW 5.1.4-e60b266~84~ubuntu16.04.1) date 2019-09-19 10:39:33*
%MOMM*%
%LPD*%
G04 APERTURE LIST*
%ADD10R,1.000000X1.500000*%
%ADD11C,0.500000*%
%ADD12C,0.100000*%
%ADD13O,1.600000X2.000000*%
%ADD14O,3.048000X1.727200*%
%ADD15C,0.250000*%
%ADD16C,0.254000*%
G04 APERTURE END LIST*
D10*
X147320000Y-119380000D03*
D11*
X148620000Y-119380000D03*
D12*
G36*
X148620000Y-118630602D02*
G01*
X148644534Y-118630602D01*
X148693365Y-118635412D01*
X148741490Y-118644984D01*
X148788445Y-118659228D01*
X148833778Y-118678005D01*
X148877051Y-118701136D01*
X148917850Y-118728396D01*
X148955779Y-118759524D01*
X148990476Y-118794221D01*
X149021604Y-118832150D01*
X149048864Y-118872949D01*
X149071995Y-118916222D01*
X149090772Y-118961555D01*
X149105016Y-119008510D01*
X149114588Y-119056635D01*
X149119398Y-119105466D01*
X149119398Y-119130000D01*
X149120000Y-119130000D01*
X149120000Y-119630000D01*
X149119398Y-119630000D01*
X149119398Y-119654534D01*
X149114588Y-119703365D01*
X149105016Y-119751490D01*
X149090772Y-119798445D01*
X149071995Y-119843778D01*
X149048864Y-119887051D01*
X149021604Y-119927850D01*
X148990476Y-119965779D01*
X148955779Y-120000476D01*
X148917850Y-120031604D01*
X148877051Y-120058864D01*
X148833778Y-120081995D01*
X148788445Y-120100772D01*
X148741490Y-120115016D01*
X148693365Y-120124588D01*
X148644534Y-120129398D01*
X148620000Y-120129398D01*
X148620000Y-120130000D01*
X148070000Y-120130000D01*
X148070000Y-118630000D01*
X148620000Y-118630000D01*
X148620000Y-118630602D01*
X148620000Y-118630602D01*
G37*
D11*
X146020000Y-119380000D03*
D12*
G36*
X146570000Y-120130000D02*
G01*
X146020000Y-120130000D01*
X146020000Y-120129398D01*
X145995466Y-120129398D01*
X145946635Y-120124588D01*
X145898510Y-120115016D01*
X145851555Y-120100772D01*
X145806222Y-120081995D01*
X145762949Y-120058864D01*
X145722150Y-120031604D01*
X145684221Y-120000476D01*
X145649524Y-119965779D01*
X145618396Y-119927850D01*
X145591136Y-119887051D01*
X145568005Y-119843778D01*
X145549228Y-119798445D01*
X145534984Y-119751490D01*
X145525412Y-119703365D01*
X145520602Y-119654534D01*
X145520602Y-119630000D01*
X145520000Y-119630000D01*
X145520000Y-119130000D01*
X145520602Y-119130000D01*
X145520602Y-119105466D01*
X145525412Y-119056635D01*
X145534984Y-119008510D01*
X145549228Y-118961555D01*
X145568005Y-118916222D01*
X145591136Y-118872949D01*
X145618396Y-118832150D01*
X145649524Y-118794221D01*
X145684221Y-118759524D01*
X145722150Y-118728396D01*
X145762949Y-118701136D01*
X145806222Y-118678005D01*
X145851555Y-118659228D01*
X145898510Y-118644984D01*
X145946635Y-118635412D01*
X145995466Y-118630602D01*
X146020000Y-118630602D01*
X146020000Y-118630000D01*
X146570000Y-118630000D01*
X146570000Y-120130000D01*
X146570000Y-120130000D01*
G37*
D13*
X145139000Y-124057000D03*
X149739000Y-125157000D03*
X149739000Y-132157000D03*
X149739000Y-129157000D03*
D14*
X141351000Y-110410000D03*
X141351000Y-105410000D03*
X153851000Y-110410000D03*
X153851000Y-105410000D03*
D15*
X149739000Y-127907000D02*
X149739000Y-129157000D01*
X148613990Y-126781990D02*
X149739000Y-127907000D01*
X148613990Y-120233602D02*
X148613990Y-126781990D01*
X148620000Y-120227592D02*
X148613990Y-120233602D01*
X148620000Y-119380000D02*
X148620000Y-120227592D01*
X146020000Y-123176000D02*
X145139000Y-124057000D01*
X146020000Y-119380000D02*
X146020000Y-123176000D01*
D16*
G36*
X156024533Y-101761885D02*
G01*
X156090457Y-101781789D01*
X156151255Y-101814115D01*
X156204619Y-101857639D01*
X156248512Y-101910696D01*
X156281266Y-101971271D01*
X156301628Y-102037053D01*
X156312000Y-102135731D01*
X156312001Y-125951709D01*
X156302115Y-126052531D01*
X156282211Y-126118458D01*
X156249885Y-126179255D01*
X156206362Y-126232618D01*
X156153300Y-126276515D01*
X156092727Y-126309266D01*
X156026947Y-126329628D01*
X155928269Y-126340000D01*
X151859581Y-126340000D01*
X151831309Y-126342784D01*
X151825088Y-126342741D01*
X151815917Y-126343641D01*
X151618715Y-126364368D01*
X151560151Y-126376390D01*
X151501362Y-126387604D01*
X151492540Y-126390268D01*
X151303118Y-126448903D01*
X151248005Y-126472071D01*
X151192507Y-126494493D01*
X151184371Y-126498820D01*
X151009947Y-126593130D01*
X150960331Y-126626597D01*
X150910301Y-126659335D01*
X150903160Y-126665159D01*
X150750376Y-126791553D01*
X150708237Y-126833988D01*
X150665487Y-126875851D01*
X150659613Y-126882952D01*
X150534289Y-127036614D01*
X150501174Y-127086456D01*
X150467390Y-127135796D01*
X150463007Y-127143902D01*
X150369916Y-127318980D01*
X150347125Y-127374275D01*
X150325802Y-127424025D01*
X150302799Y-127395996D01*
X150302795Y-127395992D01*
X150279001Y-127366999D01*
X150250009Y-127343206D01*
X149702112Y-126795310D01*
X149739000Y-126798943D01*
X150020309Y-126771236D01*
X150290808Y-126689182D01*
X150540101Y-126555932D01*
X150758608Y-126376608D01*
X150937932Y-126158101D01*
X151071182Y-125908807D01*
X151153236Y-125638308D01*
X151174000Y-125427491D01*
X151174000Y-124886508D01*
X151153236Y-124675691D01*
X151071182Y-124405192D01*
X150937932Y-124155899D01*
X150758607Y-123937392D01*
X150540100Y-123758068D01*
X150503160Y-123738323D01*
X151754497Y-123738323D01*
X151754497Y-124165677D01*
X151837870Y-124584821D01*
X152001412Y-124979645D01*
X152238837Y-125334977D01*
X152541023Y-125637163D01*
X152896355Y-125874588D01*
X153291179Y-126038130D01*
X153710323Y-126121503D01*
X154137677Y-126121503D01*
X154556821Y-126038130D01*
X154951645Y-125874588D01*
X155306977Y-125637163D01*
X155609163Y-125334977D01*
X155846588Y-124979645D01*
X156010130Y-124584821D01*
X156093503Y-124165677D01*
X156093503Y-123738323D01*
X156010130Y-123319179D01*
X155846588Y-122924355D01*
X155609163Y-122569023D01*
X155306977Y-122266837D01*
X154951645Y-122029412D01*
X154556821Y-121865870D01*
X154137677Y-121782497D01*
X153710323Y-121782497D01*
X153291179Y-121865870D01*
X152896355Y-122029412D01*
X152541023Y-122266837D01*
X152238837Y-122569023D01*
X152001412Y-122924355D01*
X151837870Y-123319179D01*
X151754497Y-123738323D01*
X150503160Y-123738323D01*
X150290807Y-123624818D01*
X150020308Y-123542764D01*
X149739000Y-123515057D01*
X149457691Y-123542764D01*
X149373990Y-123568154D01*
X149373990Y-120479501D01*
X149388382Y-120467690D01*
X149457690Y-120398382D01*
X149537042Y-120301691D01*
X149591498Y-120220192D01*
X149650464Y-120109875D01*
X149687973Y-120019319D01*
X149724282Y-119899623D01*
X149743404Y-119803490D01*
X149755664Y-119679009D01*
X149755664Y-119654450D01*
X149758072Y-119630000D01*
X149758072Y-119130000D01*
X149755664Y-119105550D01*
X149755664Y-119080991D01*
X149743404Y-118956510D01*
X149724282Y-118860377D01*
X149687973Y-118740681D01*
X149650464Y-118650125D01*
X149591498Y-118539808D01*
X149537042Y-118458309D01*
X149457690Y-118361618D01*
X149388382Y-118292310D01*
X149291691Y-118212958D01*
X149210192Y-118158502D01*
X149099875Y-118099536D01*
X149009319Y-118062027D01*
X148889623Y-118025718D01*
X148793490Y-118006596D01*
X148669009Y-117994336D01*
X148644450Y-117994336D01*
X148620000Y-117991928D01*
X148070000Y-117991928D01*
X147945518Y-118004188D01*
X147945000Y-118004345D01*
X147944482Y-118004188D01*
X147820000Y-117991928D01*
X147605750Y-117995000D01*
X147447000Y-118153750D01*
X147447000Y-118496248D01*
X147444188Y-118505518D01*
X147431928Y-118630000D01*
X147431928Y-120130000D01*
X147444188Y-120254482D01*
X147447000Y-120263752D01*
X147447000Y-120606250D01*
X147605750Y-120765000D01*
X147820000Y-120768072D01*
X147853990Y-120764724D01*
X147853991Y-125808619D01*
X147740898Y-125761774D01*
X147540939Y-125722000D01*
X147337061Y-125722000D01*
X147137102Y-125761774D01*
X146948744Y-125839795D01*
X146779226Y-125953063D01*
X146635063Y-126097226D01*
X146521795Y-126266744D01*
X146443774Y-126455102D01*
X146404000Y-126655061D01*
X146404000Y-126858939D01*
X146443774Y-127058898D01*
X146521795Y-127247256D01*
X146635063Y-127416774D01*
X146779226Y-127560937D01*
X146948744Y-127674205D01*
X147137102Y-127752226D01*
X147337061Y-127792000D01*
X147540939Y-127792000D01*
X147740898Y-127752226D01*
X147929256Y-127674205D01*
X148098774Y-127560937D01*
X148208455Y-127451256D01*
X148708213Y-127951015D01*
X148540068Y-128155900D01*
X148406818Y-128405193D01*
X148324764Y-128675692D01*
X148304000Y-128886509D01*
X148304000Y-129427492D01*
X148324764Y-129638309D01*
X148406818Y-129908808D01*
X148540068Y-130158101D01*
X148719393Y-130376608D01*
X148937900Y-130555932D01*
X149126984Y-130657000D01*
X148937899Y-130758068D01*
X148719392Y-130937393D01*
X148540068Y-131155900D01*
X148406818Y-131405193D01*
X148324764Y-131675692D01*
X148304000Y-131886509D01*
X148304000Y-132427492D01*
X148324764Y-132638309D01*
X148406818Y-132908808D01*
X148540068Y-133158101D01*
X148719393Y-133376608D01*
X148937900Y-133555932D01*
X149187193Y-133689182D01*
X149457692Y-133771236D01*
X149739000Y-133798943D01*
X150020309Y-133771236D01*
X150216000Y-133711874D01*
X150216000Y-134079719D01*
X150206115Y-134180531D01*
X150186211Y-134246458D01*
X150153885Y-134307255D01*
X150110362Y-134360618D01*
X150057300Y-134404515D01*
X149996727Y-134437266D01*
X149930947Y-134457628D01*
X149832269Y-134468000D01*
X148191711Y-134468000D01*
X148242937Y-134416774D01*
X148356205Y-134247256D01*
X148434226Y-134058898D01*
X148474000Y-133858939D01*
X148474000Y-133655061D01*
X148434226Y-133455102D01*
X148356205Y-133266744D01*
X148242937Y-133097226D01*
X148098774Y-132953063D01*
X147929256Y-132839795D01*
X147740898Y-132761774D01*
X147540939Y-132722000D01*
X147337061Y-132722000D01*
X147137102Y-132761774D01*
X146948744Y-132839795D01*
X146779226Y-132953063D01*
X146635063Y-133097226D01*
X146521795Y-133266744D01*
X146443774Y-133455102D01*
X146404000Y-133655061D01*
X146404000Y-133858939D01*
X146443774Y-134058898D01*
X146521795Y-134247256D01*
X146635063Y-134416774D01*
X146686289Y-134468000D01*
X145320281Y-134468000D01*
X145219469Y-134458115D01*
X145153542Y-134438211D01*
X145092745Y-134405885D01*
X145039382Y-134362362D01*
X144995485Y-134309300D01*
X144962734Y-134248727D01*
X144942372Y-134182947D01*
X144932000Y-134084269D01*
X144932000Y-127983581D01*
X144929216Y-127955309D01*
X144929259Y-127949088D01*
X144928359Y-127939917D01*
X144907632Y-127742715D01*
X144895610Y-127684151D01*
X144884396Y-127625362D01*
X144881732Y-127616540D01*
X144823097Y-127427118D01*
X144799929Y-127372005D01*
X144777507Y-127316507D01*
X144773180Y-127308371D01*
X144678870Y-127133947D01*
X144645403Y-127084331D01*
X144612665Y-127034301D01*
X144606841Y-127027160D01*
X144480447Y-126874376D01*
X144438012Y-126832237D01*
X144396149Y-126789487D01*
X144389048Y-126783613D01*
X144235386Y-126658289D01*
X144185544Y-126625174D01*
X144136204Y-126591390D01*
X144128098Y-126587007D01*
X143953020Y-126493916D01*
X143897725Y-126471125D01*
X143842730Y-126447554D01*
X143833927Y-126444829D01*
X143644100Y-126387518D01*
X143585420Y-126375900D01*
X143526913Y-126363463D01*
X143517748Y-126362500D01*
X143320406Y-126343150D01*
X143320402Y-126343150D01*
X143288419Y-126340000D01*
X139224281Y-126340000D01*
X139123469Y-126330115D01*
X139057542Y-126310211D01*
X138996745Y-126277885D01*
X138943382Y-126234362D01*
X138899485Y-126181300D01*
X138866734Y-126120727D01*
X138846372Y-126054947D01*
X138836000Y-125956269D01*
X138836000Y-124415324D01*
X138869715Y-124584821D01*
X139033257Y-124979645D01*
X139270682Y-125334977D01*
X139572868Y-125637163D01*
X139928200Y-125874588D01*
X140323024Y-126038130D01*
X140742168Y-126121503D01*
X141169522Y-126121503D01*
X141588666Y-126038130D01*
X141983490Y-125874588D01*
X142338822Y-125637163D01*
X142641008Y-125334977D01*
X142878433Y-124979645D01*
X143041975Y-124584821D01*
X143125348Y-124165677D01*
X143125348Y-123786509D01*
X143704000Y-123786509D01*
X143704000Y-124327492D01*
X143724764Y-124538309D01*
X143806818Y-124808808D01*
X143940068Y-125058101D01*
X144119393Y-125276608D01*
X144337900Y-125455932D01*
X144587193Y-125589182D01*
X144857692Y-125671236D01*
X145139000Y-125698943D01*
X145420309Y-125671236D01*
X145690808Y-125589182D01*
X145940101Y-125455932D01*
X146158608Y-125276608D01*
X146337932Y-125058101D01*
X146471182Y-124808807D01*
X146553236Y-124538308D01*
X146574000Y-124327491D01*
X146574000Y-123786508D01*
X146566300Y-123708326D01*
X146634833Y-123624818D01*
X146654974Y-123600277D01*
X146725546Y-123468247D01*
X146740451Y-123419110D01*
X146769003Y-123324986D01*
X146780000Y-123213333D01*
X146780000Y-123213324D01*
X146783676Y-123176001D01*
X146780000Y-123138678D01*
X146780000Y-120764132D01*
X146820000Y-120768072D01*
X147034250Y-120765000D01*
X147193000Y-120606250D01*
X147193000Y-120263752D01*
X147195812Y-120254482D01*
X147208072Y-120130000D01*
X147208072Y-118630000D01*
X147195812Y-118505518D01*
X147193000Y-118496248D01*
X147193000Y-118153750D01*
X147034250Y-117995000D01*
X146820000Y-117991928D01*
X146695518Y-118004188D01*
X146695000Y-118004345D01*
X146694482Y-118004188D01*
X146570000Y-117991928D01*
X146020000Y-117991928D01*
X145995550Y-117994336D01*
X145970991Y-117994336D01*
X145846510Y-118006596D01*
X145750377Y-118025718D01*
X145630681Y-118062027D01*
X145540125Y-118099536D01*
X145429808Y-118158502D01*
X145348309Y-118212958D01*
X145251618Y-118292310D01*
X145182310Y-118361618D01*
X145102958Y-118458309D01*
X145048502Y-118539808D01*
X144989536Y-118650125D01*
X144952027Y-118740681D01*
X144915718Y-118860377D01*
X144896596Y-118956510D01*
X144884336Y-119080991D01*
X144884336Y-119105550D01*
X144881928Y-119130000D01*
X144881928Y-119630000D01*
X144884336Y-119654450D01*
X144884336Y-119679009D01*
X144896596Y-119803490D01*
X144915718Y-119899623D01*
X144952027Y-120019319D01*
X144989536Y-120109875D01*
X145048502Y-120220192D01*
X145102958Y-120301691D01*
X145182310Y-120398382D01*
X145251618Y-120467690D01*
X145260000Y-120474569D01*
X145260001Y-122426975D01*
X145139000Y-122415057D01*
X144857691Y-122442764D01*
X144587192Y-122524818D01*
X144337899Y-122658068D01*
X144119392Y-122837393D01*
X143940068Y-123055900D01*
X143806818Y-123305193D01*
X143724764Y-123575692D01*
X143704000Y-123786509D01*
X143125348Y-123786509D01*
X143125348Y-123738323D01*
X143041975Y-123319179D01*
X142878433Y-122924355D01*
X142641008Y-122569023D01*
X142338822Y-122266837D01*
X141983490Y-122029412D01*
X141588666Y-121865870D01*
X141169522Y-121782497D01*
X140742168Y-121782497D01*
X140323024Y-121865870D01*
X139928200Y-122029412D01*
X139572868Y-122266837D01*
X139270682Y-122569023D01*
X139033257Y-122924355D01*
X138869715Y-123319179D01*
X138836000Y-123488676D01*
X138836000Y-110410000D01*
X139184749Y-110410000D01*
X139213684Y-110703777D01*
X139299375Y-110986264D01*
X139438531Y-111246606D01*
X139625803Y-111474797D01*
X139853994Y-111662069D01*
X140114336Y-111801225D01*
X140396823Y-111886916D01*
X140616981Y-111908600D01*
X142085019Y-111908600D01*
X142305177Y-111886916D01*
X142587664Y-111801225D01*
X142848006Y-111662069D01*
X143076197Y-111474797D01*
X143263469Y-111246606D01*
X143402625Y-110986264D01*
X143488316Y-110703777D01*
X143517251Y-110410000D01*
X151684749Y-110410000D01*
X151713684Y-110703777D01*
X151799375Y-110986264D01*
X151938531Y-111246606D01*
X152125803Y-111474797D01*
X152353994Y-111662069D01*
X152614336Y-111801225D01*
X152896823Y-111886916D01*
X153116981Y-111908600D01*
X154585019Y-111908600D01*
X154805177Y-111886916D01*
X155087664Y-111801225D01*
X155348006Y-111662069D01*
X155576197Y-111474797D01*
X155763469Y-111246606D01*
X155902625Y-110986264D01*
X155988316Y-110703777D01*
X156017251Y-110410000D01*
X155988316Y-110116223D01*
X155902625Y-109833736D01*
X155763469Y-109573394D01*
X155576197Y-109345203D01*
X155348006Y-109157931D01*
X155087664Y-109018775D01*
X154805177Y-108933084D01*
X154585019Y-108911400D01*
X153116981Y-108911400D01*
X152896823Y-108933084D01*
X152614336Y-109018775D01*
X152353994Y-109157931D01*
X152125803Y-109345203D01*
X151938531Y-109573394D01*
X151799375Y-109833736D01*
X151713684Y-110116223D01*
X151684749Y-110410000D01*
X143517251Y-110410000D01*
X143488316Y-110116223D01*
X143402625Y-109833736D01*
X143263469Y-109573394D01*
X143076197Y-109345203D01*
X142848006Y-109157931D01*
X142587664Y-109018775D01*
X142305177Y-108933084D01*
X142085019Y-108911400D01*
X140616981Y-108911400D01*
X140396823Y-108933084D01*
X140114336Y-109018775D01*
X139853994Y-109157931D01*
X139625803Y-109345203D01*
X139438531Y-109573394D01*
X139299375Y-109833736D01*
X139213684Y-110116223D01*
X139184749Y-110410000D01*
X138836000Y-110410000D01*
X138836000Y-107750478D01*
X145658497Y-107750478D01*
X145658497Y-108177832D01*
X145741870Y-108596976D01*
X145905412Y-108991800D01*
X146142837Y-109347132D01*
X146445023Y-109649318D01*
X146800355Y-109886743D01*
X147195179Y-110050285D01*
X147614323Y-110133658D01*
X148041677Y-110133658D01*
X148460821Y-110050285D01*
X148855645Y-109886743D01*
X149210977Y-109649318D01*
X149513163Y-109347132D01*
X149750588Y-108991800D01*
X149914130Y-108596976D01*
X149997503Y-108177832D01*
X149997503Y-107750478D01*
X149914130Y-107331334D01*
X149750588Y-106936510D01*
X149513163Y-106581178D01*
X149210977Y-106278992D01*
X148855645Y-106041567D01*
X148460821Y-105878025D01*
X148041677Y-105794652D01*
X147614323Y-105794652D01*
X147195179Y-105878025D01*
X146800355Y-106041567D01*
X146445023Y-106278992D01*
X146142837Y-106581178D01*
X145905412Y-106936510D01*
X145741870Y-107331334D01*
X145658497Y-107750478D01*
X138836000Y-107750478D01*
X138836000Y-105769026D01*
X139235642Y-105769026D01*
X139257473Y-105866157D01*
X139374002Y-106136981D01*
X139541127Y-106379868D01*
X139752426Y-106585483D01*
X139999778Y-106745925D01*
X140273678Y-106855028D01*
X140563600Y-106908600D01*
X141224000Y-106908600D01*
X141224000Y-105537000D01*
X141478000Y-105537000D01*
X141478000Y-106908600D01*
X142138400Y-106908600D01*
X142428322Y-106855028D01*
X142702222Y-106745925D01*
X142949574Y-106585483D01*
X143160873Y-106379868D01*
X143327998Y-106136981D01*
X143444527Y-105866157D01*
X143466358Y-105769026D01*
X151735642Y-105769026D01*
X151757473Y-105866157D01*
X151874002Y-106136981D01*
X152041127Y-106379868D01*
X152252426Y-106585483D01*
X152499778Y-106745925D01*
X152773678Y-106855028D01*
X153063600Y-106908600D01*
X153724000Y-106908600D01*
X153724000Y-105537000D01*
X153978000Y-105537000D01*
X153978000Y-106908600D01*
X154638400Y-106908600D01*
X154928322Y-106855028D01*
X155202222Y-106745925D01*
X155449574Y-106585483D01*
X155660873Y-106379868D01*
X155827998Y-106136981D01*
X155944527Y-105866157D01*
X155966358Y-105769026D01*
X155845217Y-105537000D01*
X153978000Y-105537000D01*
X153724000Y-105537000D01*
X151856783Y-105537000D01*
X151735642Y-105769026D01*
X143466358Y-105769026D01*
X143345217Y-105537000D01*
X141478000Y-105537000D01*
X141224000Y-105537000D01*
X139356783Y-105537000D01*
X139235642Y-105769026D01*
X138836000Y-105769026D01*
X138836000Y-105050974D01*
X139235642Y-105050974D01*
X139356783Y-105283000D01*
X141224000Y-105283000D01*
X141224000Y-103911400D01*
X141478000Y-103911400D01*
X141478000Y-105283000D01*
X143345217Y-105283000D01*
X143466358Y-105050974D01*
X151735642Y-105050974D01*
X151856783Y-105283000D01*
X153724000Y-105283000D01*
X153724000Y-103911400D01*
X153978000Y-103911400D01*
X153978000Y-105283000D01*
X155845217Y-105283000D01*
X155966358Y-105050974D01*
X155944527Y-104953843D01*
X155827998Y-104683019D01*
X155660873Y-104440132D01*
X155449574Y-104234517D01*
X155202222Y-104074075D01*
X154928322Y-103964972D01*
X154638400Y-103911400D01*
X153978000Y-103911400D01*
X153724000Y-103911400D01*
X153063600Y-103911400D01*
X152773678Y-103964972D01*
X152499778Y-104074075D01*
X152252426Y-104234517D01*
X152041127Y-104440132D01*
X151874002Y-104683019D01*
X151757473Y-104953843D01*
X151735642Y-105050974D01*
X143466358Y-105050974D01*
X143444527Y-104953843D01*
X143327998Y-104683019D01*
X143160873Y-104440132D01*
X142949574Y-104234517D01*
X142702222Y-104074075D01*
X142428322Y-103964972D01*
X142138400Y-103911400D01*
X141478000Y-103911400D01*
X141224000Y-103911400D01*
X140563600Y-103911400D01*
X140273678Y-103964972D01*
X139999778Y-104074075D01*
X139752426Y-104234517D01*
X139541127Y-104440132D01*
X139374002Y-104683019D01*
X139257473Y-104953843D01*
X139235642Y-105050974D01*
X138836000Y-105050974D01*
X138836000Y-102140281D01*
X138845885Y-102039467D01*
X138865789Y-101973543D01*
X138898115Y-101912745D01*
X138941639Y-101859381D01*
X138994696Y-101815488D01*
X139055271Y-101782734D01*
X139121053Y-101762372D01*
X139219730Y-101752000D01*
X155923719Y-101752000D01*
X156024533Y-101761885D01*
X156024533Y-101761885D01*
G37*
X156024533Y-101761885D02*
X156090457Y-101781789D01*
X156151255Y-101814115D01*
X156204619Y-101857639D01*
X156248512Y-101910696D01*
X156281266Y-101971271D01*
X156301628Y-102037053D01*
X156312000Y-102135731D01*
X156312001Y-125951709D01*
X156302115Y-126052531D01*
X156282211Y-126118458D01*
X156249885Y-126179255D01*
X156206362Y-126232618D01*
X156153300Y-126276515D01*
X156092727Y-126309266D01*
X156026947Y-126329628D01*
X155928269Y-126340000D01*
X151859581Y-126340000D01*
X151831309Y-126342784D01*
X151825088Y-126342741D01*
X151815917Y-126343641D01*
X151618715Y-126364368D01*
X151560151Y-126376390D01*
X151501362Y-126387604D01*
X151492540Y-126390268D01*
X151303118Y-126448903D01*
X151248005Y-126472071D01*
X151192507Y-126494493D01*
X151184371Y-126498820D01*
X151009947Y-126593130D01*
X150960331Y-126626597D01*
X150910301Y-126659335D01*
X150903160Y-126665159D01*
X150750376Y-126791553D01*
X150708237Y-126833988D01*
X150665487Y-126875851D01*
X150659613Y-126882952D01*
X150534289Y-127036614D01*
X150501174Y-127086456D01*
X150467390Y-127135796D01*
X150463007Y-127143902D01*
X150369916Y-127318980D01*
X150347125Y-127374275D01*
X150325802Y-127424025D01*
X150302799Y-127395996D01*
X150302795Y-127395992D01*
X150279001Y-127366999D01*
X150250009Y-127343206D01*
X149702112Y-126795310D01*
X149739000Y-126798943D01*
X150020309Y-126771236D01*
X150290808Y-126689182D01*
X150540101Y-126555932D01*
X150758608Y-126376608D01*
X150937932Y-126158101D01*
X151071182Y-125908807D01*
X151153236Y-125638308D01*
X151174000Y-125427491D01*
X151174000Y-124886508D01*
X151153236Y-124675691D01*
X151071182Y-124405192D01*
X150937932Y-124155899D01*
X150758607Y-123937392D01*
X150540100Y-123758068D01*
X150503160Y-123738323D01*
X151754497Y-123738323D01*
X151754497Y-124165677D01*
X151837870Y-124584821D01*
X152001412Y-124979645D01*
X152238837Y-125334977D01*
X152541023Y-125637163D01*
X152896355Y-125874588D01*
X153291179Y-126038130D01*
X153710323Y-126121503D01*
X154137677Y-126121503D01*
X154556821Y-126038130D01*
X154951645Y-125874588D01*
X155306977Y-125637163D01*
X155609163Y-125334977D01*
X155846588Y-124979645D01*
X156010130Y-124584821D01*
X156093503Y-124165677D01*
X156093503Y-123738323D01*
X156010130Y-123319179D01*
X155846588Y-122924355D01*
X155609163Y-122569023D01*
X155306977Y-122266837D01*
X154951645Y-122029412D01*
X154556821Y-121865870D01*
X154137677Y-121782497D01*
X153710323Y-121782497D01*
X153291179Y-121865870D01*
X152896355Y-122029412D01*
X152541023Y-122266837D01*
X152238837Y-122569023D01*
X152001412Y-122924355D01*
X151837870Y-123319179D01*
X151754497Y-123738323D01*
X150503160Y-123738323D01*
X150290807Y-123624818D01*
X150020308Y-123542764D01*
X149739000Y-123515057D01*
X149457691Y-123542764D01*
X149373990Y-123568154D01*
X149373990Y-120479501D01*
X149388382Y-120467690D01*
X149457690Y-120398382D01*
X149537042Y-120301691D01*
X149591498Y-120220192D01*
X149650464Y-120109875D01*
X149687973Y-120019319D01*
X149724282Y-119899623D01*
X149743404Y-119803490D01*
X149755664Y-119679009D01*
X149755664Y-119654450D01*
X149758072Y-119630000D01*
X149758072Y-119130000D01*
X149755664Y-119105550D01*
X149755664Y-119080991D01*
X149743404Y-118956510D01*
X149724282Y-118860377D01*
X149687973Y-118740681D01*
X149650464Y-118650125D01*
X149591498Y-118539808D01*
X149537042Y-118458309D01*
X149457690Y-118361618D01*
X149388382Y-118292310D01*
X149291691Y-118212958D01*
X149210192Y-118158502D01*
X149099875Y-118099536D01*
X149009319Y-118062027D01*
X148889623Y-118025718D01*
X148793490Y-118006596D01*
X148669009Y-117994336D01*
X148644450Y-117994336D01*
X148620000Y-117991928D01*
X148070000Y-117991928D01*
X147945518Y-118004188D01*
X147945000Y-118004345D01*
X147944482Y-118004188D01*
X147820000Y-117991928D01*
X147605750Y-117995000D01*
X147447000Y-118153750D01*
X147447000Y-118496248D01*
X147444188Y-118505518D01*
X147431928Y-118630000D01*
X147431928Y-120130000D01*
X147444188Y-120254482D01*
X147447000Y-120263752D01*
X147447000Y-120606250D01*
X147605750Y-120765000D01*
X147820000Y-120768072D01*
X147853990Y-120764724D01*
X147853991Y-125808619D01*
X147740898Y-125761774D01*
X147540939Y-125722000D01*
X147337061Y-125722000D01*
X147137102Y-125761774D01*
X146948744Y-125839795D01*
X146779226Y-125953063D01*
X146635063Y-126097226D01*
X146521795Y-126266744D01*
X146443774Y-126455102D01*
X146404000Y-126655061D01*
X146404000Y-126858939D01*
X146443774Y-127058898D01*
X146521795Y-127247256D01*
X146635063Y-127416774D01*
X146779226Y-127560937D01*
X146948744Y-127674205D01*
X147137102Y-127752226D01*
X147337061Y-127792000D01*
X147540939Y-127792000D01*
X147740898Y-127752226D01*
X147929256Y-127674205D01*
X148098774Y-127560937D01*
X148208455Y-127451256D01*
X148708213Y-127951015D01*
X148540068Y-128155900D01*
X148406818Y-128405193D01*
X148324764Y-128675692D01*
X148304000Y-128886509D01*
X148304000Y-129427492D01*
X148324764Y-129638309D01*
X148406818Y-129908808D01*
X148540068Y-130158101D01*
X148719393Y-130376608D01*
X148937900Y-130555932D01*
X149126984Y-130657000D01*
X148937899Y-130758068D01*
X148719392Y-130937393D01*
X148540068Y-131155900D01*
X148406818Y-131405193D01*
X148324764Y-131675692D01*
X148304000Y-131886509D01*
X148304000Y-132427492D01*
X148324764Y-132638309D01*
X148406818Y-132908808D01*
X148540068Y-133158101D01*
X148719393Y-133376608D01*
X148937900Y-133555932D01*
X149187193Y-133689182D01*
X149457692Y-133771236D01*
X149739000Y-133798943D01*
X150020309Y-133771236D01*
X150216000Y-133711874D01*
X150216000Y-134079719D01*
X150206115Y-134180531D01*
X150186211Y-134246458D01*
X150153885Y-134307255D01*
X150110362Y-134360618D01*
X150057300Y-134404515D01*
X149996727Y-134437266D01*
X149930947Y-134457628D01*
X149832269Y-134468000D01*
X148191711Y-134468000D01*
X148242937Y-134416774D01*
X148356205Y-134247256D01*
X148434226Y-134058898D01*
X148474000Y-133858939D01*
X148474000Y-133655061D01*
X148434226Y-133455102D01*
X148356205Y-133266744D01*
X148242937Y-133097226D01*
X148098774Y-132953063D01*
X147929256Y-132839795D01*
X147740898Y-132761774D01*
X147540939Y-132722000D01*
X147337061Y-132722000D01*
X147137102Y-132761774D01*
X146948744Y-132839795D01*
X146779226Y-132953063D01*
X146635063Y-133097226D01*
X146521795Y-133266744D01*
X146443774Y-133455102D01*
X146404000Y-133655061D01*
X146404000Y-133858939D01*
X146443774Y-134058898D01*
X146521795Y-134247256D01*
X146635063Y-134416774D01*
X146686289Y-134468000D01*
X145320281Y-134468000D01*
X145219469Y-134458115D01*
X145153542Y-134438211D01*
X145092745Y-134405885D01*
X145039382Y-134362362D01*
X144995485Y-134309300D01*
X144962734Y-134248727D01*
X144942372Y-134182947D01*
X144932000Y-134084269D01*
X144932000Y-127983581D01*
X144929216Y-127955309D01*
X144929259Y-127949088D01*
X144928359Y-127939917D01*
X144907632Y-127742715D01*
X144895610Y-127684151D01*
X144884396Y-127625362D01*
X144881732Y-127616540D01*
X144823097Y-127427118D01*
X144799929Y-127372005D01*
X144777507Y-127316507D01*
X144773180Y-127308371D01*
X144678870Y-127133947D01*
X144645403Y-127084331D01*
X144612665Y-127034301D01*
X144606841Y-127027160D01*
X144480447Y-126874376D01*
X144438012Y-126832237D01*
X144396149Y-126789487D01*
X144389048Y-126783613D01*
X144235386Y-126658289D01*
X144185544Y-126625174D01*
X144136204Y-126591390D01*
X144128098Y-126587007D01*
X143953020Y-126493916D01*
X143897725Y-126471125D01*
X143842730Y-126447554D01*
X143833927Y-126444829D01*
X143644100Y-126387518D01*
X143585420Y-126375900D01*
X143526913Y-126363463D01*
X143517748Y-126362500D01*
X143320406Y-126343150D01*
X143320402Y-126343150D01*
X143288419Y-126340000D01*
X139224281Y-126340000D01*
X139123469Y-126330115D01*
X139057542Y-126310211D01*
X138996745Y-126277885D01*
X138943382Y-126234362D01*
X138899485Y-126181300D01*
X138866734Y-126120727D01*
X138846372Y-126054947D01*
X138836000Y-125956269D01*
X138836000Y-124415324D01*
X138869715Y-124584821D01*
X139033257Y-124979645D01*
X139270682Y-125334977D01*
X139572868Y-125637163D01*
X139928200Y-125874588D01*
X140323024Y-126038130D01*
X140742168Y-126121503D01*
X141169522Y-126121503D01*
X141588666Y-126038130D01*
X141983490Y-125874588D01*
X142338822Y-125637163D01*
X142641008Y-125334977D01*
X142878433Y-124979645D01*
X143041975Y-124584821D01*
X143125348Y-124165677D01*
X143125348Y-123786509D01*
X143704000Y-123786509D01*
X143704000Y-124327492D01*
X143724764Y-124538309D01*
X143806818Y-124808808D01*
X143940068Y-125058101D01*
X144119393Y-125276608D01*
X144337900Y-125455932D01*
X144587193Y-125589182D01*
X144857692Y-125671236D01*
X145139000Y-125698943D01*
X145420309Y-125671236D01*
X145690808Y-125589182D01*
X145940101Y-125455932D01*
X146158608Y-125276608D01*
X146337932Y-125058101D01*
X146471182Y-124808807D01*
X146553236Y-124538308D01*
X146574000Y-124327491D01*
X146574000Y-123786508D01*
X146566300Y-123708326D01*
X146634833Y-123624818D01*
X146654974Y-123600277D01*
X146725546Y-123468247D01*
X146740451Y-123419110D01*
X146769003Y-123324986D01*
X146780000Y-123213333D01*
X146780000Y-123213324D01*
X146783676Y-123176001D01*
X146780000Y-123138678D01*
X146780000Y-120764132D01*
X146820000Y-120768072D01*
X147034250Y-120765000D01*
X147193000Y-120606250D01*
X147193000Y-120263752D01*
X147195812Y-120254482D01*
X147208072Y-120130000D01*
X147208072Y-118630000D01*
X147195812Y-118505518D01*
X147193000Y-118496248D01*
X147193000Y-118153750D01*
X147034250Y-117995000D01*
X146820000Y-117991928D01*
X146695518Y-118004188D01*
X146695000Y-118004345D01*
X146694482Y-118004188D01*
X146570000Y-117991928D01*
X146020000Y-117991928D01*
X145995550Y-117994336D01*
X145970991Y-117994336D01*
X145846510Y-118006596D01*
X145750377Y-118025718D01*
X145630681Y-118062027D01*
X145540125Y-118099536D01*
X145429808Y-118158502D01*
X145348309Y-118212958D01*
X145251618Y-118292310D01*
X145182310Y-118361618D01*
X145102958Y-118458309D01*
X145048502Y-118539808D01*
X144989536Y-118650125D01*
X144952027Y-118740681D01*
X144915718Y-118860377D01*
X144896596Y-118956510D01*
X144884336Y-119080991D01*
X144884336Y-119105550D01*
X144881928Y-119130000D01*
X144881928Y-119630000D01*
X144884336Y-119654450D01*
X144884336Y-119679009D01*
X144896596Y-119803490D01*
X144915718Y-119899623D01*
X144952027Y-120019319D01*
X144989536Y-120109875D01*
X145048502Y-120220192D01*
X145102958Y-120301691D01*
X145182310Y-120398382D01*
X145251618Y-120467690D01*
X145260000Y-120474569D01*
X145260001Y-122426975D01*
X145139000Y-122415057D01*
X144857691Y-122442764D01*
X144587192Y-122524818D01*
X144337899Y-122658068D01*
X144119392Y-122837393D01*
X143940068Y-123055900D01*
X143806818Y-123305193D01*
X143724764Y-123575692D01*
X143704000Y-123786509D01*
X143125348Y-123786509D01*
X143125348Y-123738323D01*
X143041975Y-123319179D01*
X142878433Y-122924355D01*
X142641008Y-122569023D01*
X142338822Y-122266837D01*
X141983490Y-122029412D01*
X141588666Y-121865870D01*
X141169522Y-121782497D01*
X140742168Y-121782497D01*
X140323024Y-121865870D01*
X139928200Y-122029412D01*
X139572868Y-122266837D01*
X139270682Y-122569023D01*
X139033257Y-122924355D01*
X138869715Y-123319179D01*
X138836000Y-123488676D01*
X138836000Y-110410000D01*
X139184749Y-110410000D01*
X139213684Y-110703777D01*
X139299375Y-110986264D01*
X139438531Y-111246606D01*
X139625803Y-111474797D01*
X139853994Y-111662069D01*
X140114336Y-111801225D01*
X140396823Y-111886916D01*
X140616981Y-111908600D01*
X142085019Y-111908600D01*
X142305177Y-111886916D01*
X142587664Y-111801225D01*
X142848006Y-111662069D01*
X143076197Y-111474797D01*
X143263469Y-111246606D01*
X143402625Y-110986264D01*
X143488316Y-110703777D01*
X143517251Y-110410000D01*
X151684749Y-110410000D01*
X151713684Y-110703777D01*
X151799375Y-110986264D01*
X151938531Y-111246606D01*
X152125803Y-111474797D01*
X152353994Y-111662069D01*
X152614336Y-111801225D01*
X152896823Y-111886916D01*
X153116981Y-111908600D01*
X154585019Y-111908600D01*
X154805177Y-111886916D01*
X155087664Y-111801225D01*
X155348006Y-111662069D01*
X155576197Y-111474797D01*
X155763469Y-111246606D01*
X155902625Y-110986264D01*
X155988316Y-110703777D01*
X156017251Y-110410000D01*
X155988316Y-110116223D01*
X155902625Y-109833736D01*
X155763469Y-109573394D01*
X155576197Y-109345203D01*
X155348006Y-109157931D01*
X155087664Y-109018775D01*
X154805177Y-108933084D01*
X154585019Y-108911400D01*
X153116981Y-108911400D01*
X152896823Y-108933084D01*
X152614336Y-109018775D01*
X152353994Y-109157931D01*
X152125803Y-109345203D01*
X151938531Y-109573394D01*
X151799375Y-109833736D01*
X151713684Y-110116223D01*
X151684749Y-110410000D01*
X143517251Y-110410000D01*
X143488316Y-110116223D01*
X143402625Y-109833736D01*
X143263469Y-109573394D01*
X143076197Y-109345203D01*
X142848006Y-109157931D01*
X142587664Y-109018775D01*
X142305177Y-108933084D01*
X142085019Y-108911400D01*
X140616981Y-108911400D01*
X140396823Y-108933084D01*
X140114336Y-109018775D01*
X139853994Y-109157931D01*
X139625803Y-109345203D01*
X139438531Y-109573394D01*
X139299375Y-109833736D01*
X139213684Y-110116223D01*
X139184749Y-110410000D01*
X138836000Y-110410000D01*
X138836000Y-107750478D01*
X145658497Y-107750478D01*
X145658497Y-108177832D01*
X145741870Y-108596976D01*
X145905412Y-108991800D01*
X146142837Y-109347132D01*
X146445023Y-109649318D01*
X146800355Y-109886743D01*
X147195179Y-110050285D01*
X147614323Y-110133658D01*
X148041677Y-110133658D01*
X148460821Y-110050285D01*
X148855645Y-109886743D01*
X149210977Y-109649318D01*
X149513163Y-109347132D01*
X149750588Y-108991800D01*
X149914130Y-108596976D01*
X149997503Y-108177832D01*
X149997503Y-107750478D01*
X149914130Y-107331334D01*
X149750588Y-106936510D01*
X149513163Y-106581178D01*
X149210977Y-106278992D01*
X148855645Y-106041567D01*
X148460821Y-105878025D01*
X148041677Y-105794652D01*
X147614323Y-105794652D01*
X147195179Y-105878025D01*
X146800355Y-106041567D01*
X146445023Y-106278992D01*
X146142837Y-106581178D01*
X145905412Y-106936510D01*
X145741870Y-107331334D01*
X145658497Y-107750478D01*
X138836000Y-107750478D01*
X138836000Y-105769026D01*
X139235642Y-105769026D01*
X139257473Y-105866157D01*
X139374002Y-106136981D01*
X139541127Y-106379868D01*
X139752426Y-106585483D01*
X139999778Y-106745925D01*
X140273678Y-106855028D01*
X140563600Y-106908600D01*
X141224000Y-106908600D01*
X141224000Y-105537000D01*
X141478000Y-105537000D01*
X141478000Y-106908600D01*
X142138400Y-106908600D01*
X142428322Y-106855028D01*
X142702222Y-106745925D01*
X142949574Y-106585483D01*
X143160873Y-106379868D01*
X143327998Y-106136981D01*
X143444527Y-105866157D01*
X143466358Y-105769026D01*
X151735642Y-105769026D01*
X151757473Y-105866157D01*
X151874002Y-106136981D01*
X152041127Y-106379868D01*
X152252426Y-106585483D01*
X152499778Y-106745925D01*
X152773678Y-106855028D01*
X153063600Y-106908600D01*
X153724000Y-106908600D01*
X153724000Y-105537000D01*
X153978000Y-105537000D01*
X153978000Y-106908600D01*
X154638400Y-106908600D01*
X154928322Y-106855028D01*
X155202222Y-106745925D01*
X155449574Y-106585483D01*
X155660873Y-106379868D01*
X155827998Y-106136981D01*
X155944527Y-105866157D01*
X155966358Y-105769026D01*
X155845217Y-105537000D01*
X153978000Y-105537000D01*
X153724000Y-105537000D01*
X151856783Y-105537000D01*
X151735642Y-105769026D01*
X143466358Y-105769026D01*
X143345217Y-105537000D01*
X141478000Y-105537000D01*
X141224000Y-105537000D01*
X139356783Y-105537000D01*
X139235642Y-105769026D01*
X138836000Y-105769026D01*
X138836000Y-105050974D01*
X139235642Y-105050974D01*
X139356783Y-105283000D01*
X141224000Y-105283000D01*
X141224000Y-103911400D01*
X141478000Y-103911400D01*
X141478000Y-105283000D01*
X143345217Y-105283000D01*
X143466358Y-105050974D01*
X151735642Y-105050974D01*
X151856783Y-105283000D01*
X153724000Y-105283000D01*
X153724000Y-103911400D01*
X153978000Y-103911400D01*
X153978000Y-105283000D01*
X155845217Y-105283000D01*
X155966358Y-105050974D01*
X155944527Y-104953843D01*
X155827998Y-104683019D01*
X155660873Y-104440132D01*
X155449574Y-104234517D01*
X155202222Y-104074075D01*
X154928322Y-103964972D01*
X154638400Y-103911400D01*
X153978000Y-103911400D01*
X153724000Y-103911400D01*
X153063600Y-103911400D01*
X152773678Y-103964972D01*
X152499778Y-104074075D01*
X152252426Y-104234517D01*
X152041127Y-104440132D01*
X151874002Y-104683019D01*
X151757473Y-104953843D01*
X151735642Y-105050974D01*
X143466358Y-105050974D01*
X143444527Y-104953843D01*
X143327998Y-104683019D01*
X143160873Y-104440132D01*
X142949574Y-104234517D01*
X142702222Y-104074075D01*
X142428322Y-103964972D01*
X142138400Y-103911400D01*
X141478000Y-103911400D01*
X141224000Y-103911400D01*
X140563600Y-103911400D01*
X140273678Y-103964972D01*
X139999778Y-104074075D01*
X139752426Y-104234517D01*
X139541127Y-104440132D01*
X139374002Y-104683019D01*
X139257473Y-104953843D01*
X139235642Y-105050974D01*
X138836000Y-105050974D01*
X138836000Y-102140281D01*
X138845885Y-102039467D01*
X138865789Y-101973543D01*
X138898115Y-101912745D01*
X138941639Y-101859381D01*
X138994696Y-101815488D01*
X139055271Y-101782734D01*
X139121053Y-101762372D01*
X139219730Y-101752000D01*
X155923719Y-101752000D01*
X156024533Y-101761885D01*
M02*
