G04 #@! TF.GenerationSoftware,KiCad,Pcbnew,5.1.2-f72e74a~84~ubuntu16.04.1*
G04 #@! TF.CreationDate,2019-05-05T13:09:47-04:00*
G04 #@! TF.ProjectId,gy-521_trrs_pcb,67792d35-3231-45f7-9472-72735f706362,1.0*
G04 #@! TF.SameCoordinates,Original*
G04 #@! TF.FileFunction,Copper,L2,Bot*
G04 #@! TF.FilePolarity,Positive*
%FSLAX46Y46*%
G04 Gerber Fmt 4.6, Leading zero omitted, Abs format (unit mm)*
G04 Created by KiCad (PCBNEW 5.1.2-f72e74a~84~ubuntu16.04.1) date 2019-05-05 13:09:47*
%MOMM*%
%LPD*%
G04 APERTURE LIST*
%ADD10O,2.000000X1.600000*%
%ADD11O,1.700000X1.700000*%
%ADD12R,1.700000X1.700000*%
%ADD13C,0.250000*%
%ADD14C,0.254000*%
G04 APERTURE END LIST*
D10*
X149330000Y-99590000D03*
X150430000Y-94990000D03*
X157430000Y-94990000D03*
X154430000Y-94990000D03*
D11*
X149707600Y-91592400D03*
X152247600Y-91592400D03*
X154787600Y-91592400D03*
D12*
X157327600Y-91592400D03*
D13*
X150430000Y-94550000D02*
X150430000Y-94990000D01*
X149707600Y-91592400D02*
X151485600Y-93370400D01*
X157230000Y-94990000D02*
X157430000Y-94990000D01*
X155610400Y-93370400D02*
X157230000Y-94990000D01*
X151485600Y-93370400D02*
X155610400Y-93370400D01*
D14*
G36*
X159580533Y-89061885D02*
G01*
X159646457Y-89081789D01*
X159707255Y-89114115D01*
X159760619Y-89157639D01*
X159804512Y-89210696D01*
X159837266Y-89271271D01*
X159857628Y-89337053D01*
X159868001Y-89435740D01*
X159868000Y-96681205D01*
X159833937Y-96630226D01*
X159689774Y-96486063D01*
X159520256Y-96372795D01*
X159331898Y-96294774D01*
X159131939Y-96255000D01*
X158928061Y-96255000D01*
X158728102Y-96294774D01*
X158539744Y-96372795D01*
X158370226Y-96486063D01*
X158226063Y-96630226D01*
X158112795Y-96799744D01*
X158034774Y-96988102D01*
X157995000Y-97188061D01*
X157995000Y-97391939D01*
X158034774Y-97591898D01*
X158112795Y-97780256D01*
X158226063Y-97949774D01*
X158370226Y-98093937D01*
X158539744Y-98207205D01*
X158728102Y-98285226D01*
X158928061Y-98325000D01*
X159131939Y-98325000D01*
X159331898Y-98285226D01*
X159520256Y-98207205D01*
X159689774Y-98093937D01*
X159833937Y-97949774D01*
X159868000Y-97898795D01*
X159868000Y-99789719D01*
X159858115Y-99890531D01*
X159838211Y-99956458D01*
X159805885Y-100017255D01*
X159762362Y-100070618D01*
X159709300Y-100114515D01*
X159648727Y-100147266D01*
X159582947Y-100167628D01*
X159484269Y-100178000D01*
X150838093Y-100178000D01*
X150911444Y-99996730D01*
X150921904Y-99939039D01*
X150799915Y-99717000D01*
X149457000Y-99717000D01*
X149457000Y-99737000D01*
X149203000Y-99737000D01*
X149203000Y-99717000D01*
X149183000Y-99717000D01*
X149183000Y-99463000D01*
X149203000Y-99463000D01*
X149203000Y-98310526D01*
X149457000Y-98310526D01*
X149457000Y-99463000D01*
X150799915Y-99463000D01*
X150921904Y-99240961D01*
X150911444Y-99183270D01*
X150805551Y-98921579D01*
X150650639Y-98685575D01*
X150452662Y-98484327D01*
X150219227Y-98325570D01*
X149959306Y-98215404D01*
X149682887Y-98158063D01*
X149457000Y-98310526D01*
X149203000Y-98310526D01*
X148977113Y-98158063D01*
X148700694Y-98215404D01*
X148440773Y-98325570D01*
X148207338Y-98484327D01*
X148009361Y-98685575D01*
X147980000Y-98730306D01*
X147980000Y-97188061D01*
X150995000Y-97188061D01*
X150995000Y-97391939D01*
X151034774Y-97591898D01*
X151112795Y-97780256D01*
X151226063Y-97949774D01*
X151370226Y-98093937D01*
X151539744Y-98207205D01*
X151728102Y-98285226D01*
X151928061Y-98325000D01*
X152131939Y-98325000D01*
X152331898Y-98285226D01*
X152520256Y-98207205D01*
X152689774Y-98093937D01*
X152833937Y-97949774D01*
X152947205Y-97780256D01*
X153025226Y-97591898D01*
X153065000Y-97391939D01*
X153065000Y-97188061D01*
X153025226Y-96988102D01*
X152947205Y-96799744D01*
X152833937Y-96630226D01*
X152689774Y-96486063D01*
X152520256Y-96372795D01*
X152331898Y-96294774D01*
X152131939Y-96255000D01*
X151928061Y-96255000D01*
X151728102Y-96294774D01*
X151539744Y-96372795D01*
X151370226Y-96486063D01*
X151226063Y-96630226D01*
X151112795Y-96799744D01*
X151034774Y-96988102D01*
X150995000Y-97188061D01*
X147980000Y-97188061D01*
X147980000Y-91592400D01*
X148215415Y-91592400D01*
X148244087Y-91883511D01*
X148329001Y-92163434D01*
X148466894Y-92421414D01*
X148652466Y-92647534D01*
X148878586Y-92833106D01*
X149136566Y-92970999D01*
X149416489Y-93055913D01*
X149634650Y-93077400D01*
X149780550Y-93077400D01*
X149998711Y-93055913D01*
X150073595Y-93033197D01*
X150595398Y-93555000D01*
X150159508Y-93555000D01*
X149948691Y-93575764D01*
X149678192Y-93657818D01*
X149428899Y-93791068D01*
X149210392Y-93970392D01*
X149031068Y-94188899D01*
X148897818Y-94438192D01*
X148815764Y-94708691D01*
X148788057Y-94990000D01*
X148815764Y-95271309D01*
X148897818Y-95541808D01*
X149031068Y-95791101D01*
X149210392Y-96009608D01*
X149428899Y-96188932D01*
X149678192Y-96322182D01*
X149948691Y-96404236D01*
X150159508Y-96425000D01*
X150700492Y-96425000D01*
X150911309Y-96404236D01*
X151181808Y-96322182D01*
X151431101Y-96188932D01*
X151649608Y-96009608D01*
X151828932Y-95791101D01*
X151962182Y-95541808D01*
X152044236Y-95271309D01*
X152071943Y-94990000D01*
X152044236Y-94708691D01*
X151962182Y-94438192D01*
X151828932Y-94188899D01*
X151780923Y-94130400D01*
X153079077Y-94130400D01*
X153031068Y-94188899D01*
X152897818Y-94438192D01*
X152815764Y-94708691D01*
X152788057Y-94990000D01*
X152815764Y-95271309D01*
X152897818Y-95541808D01*
X153031068Y-95791101D01*
X153210392Y-96009608D01*
X153428899Y-96188932D01*
X153678192Y-96322182D01*
X153948691Y-96404236D01*
X154159508Y-96425000D01*
X154700492Y-96425000D01*
X154911309Y-96404236D01*
X155181808Y-96322182D01*
X155431101Y-96188932D01*
X155649608Y-96009608D01*
X155828932Y-95791101D01*
X155930000Y-95602016D01*
X156031068Y-95791101D01*
X156210392Y-96009608D01*
X156428899Y-96188932D01*
X156678192Y-96322182D01*
X156948691Y-96404236D01*
X157159508Y-96425000D01*
X157700492Y-96425000D01*
X157911309Y-96404236D01*
X158181808Y-96322182D01*
X158431101Y-96188932D01*
X158649608Y-96009608D01*
X158828932Y-95791101D01*
X158962182Y-95541808D01*
X159044236Y-95271309D01*
X159071943Y-94990000D01*
X159044236Y-94708691D01*
X158962182Y-94438192D01*
X158828932Y-94188899D01*
X158649608Y-93970392D01*
X158431101Y-93791068D01*
X158181808Y-93657818D01*
X157911309Y-93575764D01*
X157700492Y-93555000D01*
X157159508Y-93555000D01*
X156948691Y-93575764D01*
X156904094Y-93589292D01*
X156386279Y-93071478D01*
X156477600Y-93080472D01*
X158177600Y-93080472D01*
X158302082Y-93068212D01*
X158421780Y-93031902D01*
X158532094Y-92972937D01*
X158628785Y-92893585D01*
X158708137Y-92796894D01*
X158767102Y-92686580D01*
X158803412Y-92566882D01*
X158815672Y-92442400D01*
X158815672Y-90742400D01*
X158803412Y-90617918D01*
X158767102Y-90498220D01*
X158708137Y-90387906D01*
X158628785Y-90291215D01*
X158532094Y-90211863D01*
X158421780Y-90152898D01*
X158302082Y-90116588D01*
X158177600Y-90104328D01*
X156477600Y-90104328D01*
X156353118Y-90116588D01*
X156233420Y-90152898D01*
X156123106Y-90211863D01*
X156026415Y-90291215D01*
X155947063Y-90387906D01*
X155888098Y-90498220D01*
X155863634Y-90578866D01*
X155787869Y-90494812D01*
X155554520Y-90320759D01*
X155291699Y-90195575D01*
X155144490Y-90150924D01*
X154914600Y-90272245D01*
X154914600Y-91465400D01*
X154934600Y-91465400D01*
X154934600Y-91719400D01*
X154914600Y-91719400D01*
X154914600Y-91739400D01*
X154660600Y-91739400D01*
X154660600Y-91719400D01*
X154640600Y-91719400D01*
X154640600Y-91465400D01*
X154660600Y-91465400D01*
X154660600Y-90272245D01*
X154430710Y-90150924D01*
X154283501Y-90195575D01*
X154020680Y-90320759D01*
X153787331Y-90494812D01*
X153592422Y-90711045D01*
X153522801Y-90827923D01*
X153488306Y-90763386D01*
X153302734Y-90537266D01*
X153076614Y-90351694D01*
X152818634Y-90213801D01*
X152538711Y-90128887D01*
X152320550Y-90107400D01*
X152174650Y-90107400D01*
X151956489Y-90128887D01*
X151676566Y-90213801D01*
X151418586Y-90351694D01*
X151192466Y-90537266D01*
X151006894Y-90763386D01*
X150977600Y-90818191D01*
X150948306Y-90763386D01*
X150762734Y-90537266D01*
X150536614Y-90351694D01*
X150278634Y-90213801D01*
X149998711Y-90128887D01*
X149780550Y-90107400D01*
X149634650Y-90107400D01*
X149416489Y-90128887D01*
X149136566Y-90213801D01*
X148878586Y-90351694D01*
X148652466Y-90537266D01*
X148466894Y-90763386D01*
X148329001Y-91021366D01*
X148244087Y-91301289D01*
X148215415Y-91592400D01*
X147980000Y-91592400D01*
X147980000Y-89440281D01*
X147989885Y-89339467D01*
X148009789Y-89273543D01*
X148042115Y-89212745D01*
X148085639Y-89159381D01*
X148138696Y-89115488D01*
X148199271Y-89082734D01*
X148265053Y-89062372D01*
X148363730Y-89052000D01*
X159479719Y-89052000D01*
X159580533Y-89061885D01*
X159580533Y-89061885D01*
G37*
X159580533Y-89061885D02*
X159646457Y-89081789D01*
X159707255Y-89114115D01*
X159760619Y-89157639D01*
X159804512Y-89210696D01*
X159837266Y-89271271D01*
X159857628Y-89337053D01*
X159868001Y-89435740D01*
X159868000Y-96681205D01*
X159833937Y-96630226D01*
X159689774Y-96486063D01*
X159520256Y-96372795D01*
X159331898Y-96294774D01*
X159131939Y-96255000D01*
X158928061Y-96255000D01*
X158728102Y-96294774D01*
X158539744Y-96372795D01*
X158370226Y-96486063D01*
X158226063Y-96630226D01*
X158112795Y-96799744D01*
X158034774Y-96988102D01*
X157995000Y-97188061D01*
X157995000Y-97391939D01*
X158034774Y-97591898D01*
X158112795Y-97780256D01*
X158226063Y-97949774D01*
X158370226Y-98093937D01*
X158539744Y-98207205D01*
X158728102Y-98285226D01*
X158928061Y-98325000D01*
X159131939Y-98325000D01*
X159331898Y-98285226D01*
X159520256Y-98207205D01*
X159689774Y-98093937D01*
X159833937Y-97949774D01*
X159868000Y-97898795D01*
X159868000Y-99789719D01*
X159858115Y-99890531D01*
X159838211Y-99956458D01*
X159805885Y-100017255D01*
X159762362Y-100070618D01*
X159709300Y-100114515D01*
X159648727Y-100147266D01*
X159582947Y-100167628D01*
X159484269Y-100178000D01*
X150838093Y-100178000D01*
X150911444Y-99996730D01*
X150921904Y-99939039D01*
X150799915Y-99717000D01*
X149457000Y-99717000D01*
X149457000Y-99737000D01*
X149203000Y-99737000D01*
X149203000Y-99717000D01*
X149183000Y-99717000D01*
X149183000Y-99463000D01*
X149203000Y-99463000D01*
X149203000Y-98310526D01*
X149457000Y-98310526D01*
X149457000Y-99463000D01*
X150799915Y-99463000D01*
X150921904Y-99240961D01*
X150911444Y-99183270D01*
X150805551Y-98921579D01*
X150650639Y-98685575D01*
X150452662Y-98484327D01*
X150219227Y-98325570D01*
X149959306Y-98215404D01*
X149682887Y-98158063D01*
X149457000Y-98310526D01*
X149203000Y-98310526D01*
X148977113Y-98158063D01*
X148700694Y-98215404D01*
X148440773Y-98325570D01*
X148207338Y-98484327D01*
X148009361Y-98685575D01*
X147980000Y-98730306D01*
X147980000Y-97188061D01*
X150995000Y-97188061D01*
X150995000Y-97391939D01*
X151034774Y-97591898D01*
X151112795Y-97780256D01*
X151226063Y-97949774D01*
X151370226Y-98093937D01*
X151539744Y-98207205D01*
X151728102Y-98285226D01*
X151928061Y-98325000D01*
X152131939Y-98325000D01*
X152331898Y-98285226D01*
X152520256Y-98207205D01*
X152689774Y-98093937D01*
X152833937Y-97949774D01*
X152947205Y-97780256D01*
X153025226Y-97591898D01*
X153065000Y-97391939D01*
X153065000Y-97188061D01*
X153025226Y-96988102D01*
X152947205Y-96799744D01*
X152833937Y-96630226D01*
X152689774Y-96486063D01*
X152520256Y-96372795D01*
X152331898Y-96294774D01*
X152131939Y-96255000D01*
X151928061Y-96255000D01*
X151728102Y-96294774D01*
X151539744Y-96372795D01*
X151370226Y-96486063D01*
X151226063Y-96630226D01*
X151112795Y-96799744D01*
X151034774Y-96988102D01*
X150995000Y-97188061D01*
X147980000Y-97188061D01*
X147980000Y-91592400D01*
X148215415Y-91592400D01*
X148244087Y-91883511D01*
X148329001Y-92163434D01*
X148466894Y-92421414D01*
X148652466Y-92647534D01*
X148878586Y-92833106D01*
X149136566Y-92970999D01*
X149416489Y-93055913D01*
X149634650Y-93077400D01*
X149780550Y-93077400D01*
X149998711Y-93055913D01*
X150073595Y-93033197D01*
X150595398Y-93555000D01*
X150159508Y-93555000D01*
X149948691Y-93575764D01*
X149678192Y-93657818D01*
X149428899Y-93791068D01*
X149210392Y-93970392D01*
X149031068Y-94188899D01*
X148897818Y-94438192D01*
X148815764Y-94708691D01*
X148788057Y-94990000D01*
X148815764Y-95271309D01*
X148897818Y-95541808D01*
X149031068Y-95791101D01*
X149210392Y-96009608D01*
X149428899Y-96188932D01*
X149678192Y-96322182D01*
X149948691Y-96404236D01*
X150159508Y-96425000D01*
X150700492Y-96425000D01*
X150911309Y-96404236D01*
X151181808Y-96322182D01*
X151431101Y-96188932D01*
X151649608Y-96009608D01*
X151828932Y-95791101D01*
X151962182Y-95541808D01*
X152044236Y-95271309D01*
X152071943Y-94990000D01*
X152044236Y-94708691D01*
X151962182Y-94438192D01*
X151828932Y-94188899D01*
X151780923Y-94130400D01*
X153079077Y-94130400D01*
X153031068Y-94188899D01*
X152897818Y-94438192D01*
X152815764Y-94708691D01*
X152788057Y-94990000D01*
X152815764Y-95271309D01*
X152897818Y-95541808D01*
X153031068Y-95791101D01*
X153210392Y-96009608D01*
X153428899Y-96188932D01*
X153678192Y-96322182D01*
X153948691Y-96404236D01*
X154159508Y-96425000D01*
X154700492Y-96425000D01*
X154911309Y-96404236D01*
X155181808Y-96322182D01*
X155431101Y-96188932D01*
X155649608Y-96009608D01*
X155828932Y-95791101D01*
X155930000Y-95602016D01*
X156031068Y-95791101D01*
X156210392Y-96009608D01*
X156428899Y-96188932D01*
X156678192Y-96322182D01*
X156948691Y-96404236D01*
X157159508Y-96425000D01*
X157700492Y-96425000D01*
X157911309Y-96404236D01*
X158181808Y-96322182D01*
X158431101Y-96188932D01*
X158649608Y-96009608D01*
X158828932Y-95791101D01*
X158962182Y-95541808D01*
X159044236Y-95271309D01*
X159071943Y-94990000D01*
X159044236Y-94708691D01*
X158962182Y-94438192D01*
X158828932Y-94188899D01*
X158649608Y-93970392D01*
X158431101Y-93791068D01*
X158181808Y-93657818D01*
X157911309Y-93575764D01*
X157700492Y-93555000D01*
X157159508Y-93555000D01*
X156948691Y-93575764D01*
X156904094Y-93589292D01*
X156386279Y-93071478D01*
X156477600Y-93080472D01*
X158177600Y-93080472D01*
X158302082Y-93068212D01*
X158421780Y-93031902D01*
X158532094Y-92972937D01*
X158628785Y-92893585D01*
X158708137Y-92796894D01*
X158767102Y-92686580D01*
X158803412Y-92566882D01*
X158815672Y-92442400D01*
X158815672Y-90742400D01*
X158803412Y-90617918D01*
X158767102Y-90498220D01*
X158708137Y-90387906D01*
X158628785Y-90291215D01*
X158532094Y-90211863D01*
X158421780Y-90152898D01*
X158302082Y-90116588D01*
X158177600Y-90104328D01*
X156477600Y-90104328D01*
X156353118Y-90116588D01*
X156233420Y-90152898D01*
X156123106Y-90211863D01*
X156026415Y-90291215D01*
X155947063Y-90387906D01*
X155888098Y-90498220D01*
X155863634Y-90578866D01*
X155787869Y-90494812D01*
X155554520Y-90320759D01*
X155291699Y-90195575D01*
X155144490Y-90150924D01*
X154914600Y-90272245D01*
X154914600Y-91465400D01*
X154934600Y-91465400D01*
X154934600Y-91719400D01*
X154914600Y-91719400D01*
X154914600Y-91739400D01*
X154660600Y-91739400D01*
X154660600Y-91719400D01*
X154640600Y-91719400D01*
X154640600Y-91465400D01*
X154660600Y-91465400D01*
X154660600Y-90272245D01*
X154430710Y-90150924D01*
X154283501Y-90195575D01*
X154020680Y-90320759D01*
X153787331Y-90494812D01*
X153592422Y-90711045D01*
X153522801Y-90827923D01*
X153488306Y-90763386D01*
X153302734Y-90537266D01*
X153076614Y-90351694D01*
X152818634Y-90213801D01*
X152538711Y-90128887D01*
X152320550Y-90107400D01*
X152174650Y-90107400D01*
X151956489Y-90128887D01*
X151676566Y-90213801D01*
X151418586Y-90351694D01*
X151192466Y-90537266D01*
X151006894Y-90763386D01*
X150977600Y-90818191D01*
X150948306Y-90763386D01*
X150762734Y-90537266D01*
X150536614Y-90351694D01*
X150278634Y-90213801D01*
X149998711Y-90128887D01*
X149780550Y-90107400D01*
X149634650Y-90107400D01*
X149416489Y-90128887D01*
X149136566Y-90213801D01*
X148878586Y-90351694D01*
X148652466Y-90537266D01*
X148466894Y-90763386D01*
X148329001Y-91021366D01*
X148244087Y-91301289D01*
X148215415Y-91592400D01*
X147980000Y-91592400D01*
X147980000Y-89440281D01*
X147989885Y-89339467D01*
X148009789Y-89273543D01*
X148042115Y-89212745D01*
X148085639Y-89159381D01*
X148138696Y-89115488D01*
X148199271Y-89082734D01*
X148265053Y-89062372D01*
X148363730Y-89052000D01*
X159479719Y-89052000D01*
X159580533Y-89061885D01*
M02*
