G04 #@! TF.GenerationSoftware,KiCad,Pcbnew,5.1.0-unknown-e90452d~82~ubuntu16.04.1*
G04 #@! TF.CreationDate,2019-04-11T13:30:45-04:00*
G04 #@! TF.ProjectId,dual_touch_sensor_trrs_pcb,6475616c-5f74-46f7-9563-685f73656e73,1.0*
G04 #@! TF.SameCoordinates,Original*
G04 #@! TF.FileFunction,Copper,L2,Bot*
G04 #@! TF.FilePolarity,Positive*
%FSLAX46Y46*%
G04 Gerber Fmt 4.6, Leading zero omitted, Abs format (unit mm)*
G04 Created by KiCad (PCBNEW 5.1.0-unknown-e90452d~82~ubuntu16.04.1) date 2019-04-11 13:30:45*
%MOMM*%
%LPD*%
G04 APERTURE LIST*
%ADD10O,1.700000X1.700000*%
%ADD11R,1.700000X1.700000*%
%ADD12O,2.000000X1.600000*%
%ADD13C,0.800000*%
%ADD14C,0.250000*%
%ADD15C,1.000000*%
%ADD16C,0.400000*%
%ADD17C,0.254000*%
G04 APERTURE END LIST*
D10*
X157988000Y-113284000D03*
X160528000Y-113284000D03*
D11*
X163068000Y-113284000D03*
D10*
X132842000Y-113284000D03*
X135382000Y-113284000D03*
D11*
X137922000Y-113284000D03*
D12*
X133118000Y-104880000D03*
X132018000Y-109480000D03*
X125018000Y-109480000D03*
X128018000Y-109480000D03*
D13*
X152908000Y-108204000D03*
D14*
X132018000Y-109920000D02*
X132018000Y-109480000D01*
D15*
X135382000Y-113284000D02*
X132018000Y-109920000D01*
D16*
X125018000Y-108430000D02*
X130070000Y-103378000D01*
X125018000Y-109480000D02*
X125018000Y-108430000D01*
X148082000Y-103378000D02*
X152908000Y-108204000D01*
X130070000Y-103378000D02*
X148082000Y-103378000D01*
X128218000Y-109480000D02*
X130048000Y-111310000D01*
D14*
X128018000Y-109480000D02*
X128218000Y-109480000D01*
D16*
X130048000Y-111310000D02*
X130048000Y-112522000D01*
X130810000Y-113284000D02*
X132842000Y-113284000D01*
X130048000Y-112522000D02*
X130810000Y-113284000D01*
D17*
G36*
X164919409Y-103007243D02*
G01*
X164990032Y-103028565D01*
X165055158Y-103063193D01*
X165112318Y-103109812D01*
X165159340Y-103166653D01*
X165194423Y-103231538D01*
X165216235Y-103302002D01*
X165227000Y-103404421D01*
X165227001Y-114268936D01*
X165216757Y-114373409D01*
X165195435Y-114444032D01*
X165160808Y-114509156D01*
X165114187Y-114566319D01*
X165057348Y-114613340D01*
X164992465Y-114648422D01*
X164921999Y-114670235D01*
X164819579Y-114681000D01*
X164241694Y-114681000D01*
X164272494Y-114664537D01*
X164369185Y-114585185D01*
X164448537Y-114488494D01*
X164507502Y-114378180D01*
X164543812Y-114258482D01*
X164556072Y-114134000D01*
X164556072Y-112434000D01*
X164543812Y-112309518D01*
X164507502Y-112189820D01*
X164448537Y-112079506D01*
X164369185Y-111982815D01*
X164272494Y-111903463D01*
X164162180Y-111844498D01*
X164042482Y-111808188D01*
X163918000Y-111795928D01*
X162218000Y-111795928D01*
X162093518Y-111808188D01*
X161973820Y-111844498D01*
X161863506Y-111903463D01*
X161766815Y-111982815D01*
X161687463Y-112079506D01*
X161628498Y-112189820D01*
X161604034Y-112270466D01*
X161528269Y-112186412D01*
X161294920Y-112012359D01*
X161032099Y-111887175D01*
X160884890Y-111842524D01*
X160655000Y-111963845D01*
X160655000Y-113157000D01*
X160675000Y-113157000D01*
X160675000Y-113411000D01*
X160655000Y-113411000D01*
X160655000Y-113431000D01*
X160401000Y-113431000D01*
X160401000Y-113411000D01*
X160381000Y-113411000D01*
X160381000Y-113157000D01*
X160401000Y-113157000D01*
X160401000Y-111963845D01*
X160171110Y-111842524D01*
X160023901Y-111887175D01*
X159761080Y-112012359D01*
X159527731Y-112186412D01*
X159332822Y-112402645D01*
X159263201Y-112519523D01*
X159228706Y-112454986D01*
X159043134Y-112228866D01*
X158817014Y-112043294D01*
X158559034Y-111905401D01*
X158279111Y-111820487D01*
X158060950Y-111799000D01*
X157915050Y-111799000D01*
X157696889Y-111820487D01*
X157416966Y-111905401D01*
X157158986Y-112043294D01*
X156932866Y-112228866D01*
X156747294Y-112454986D01*
X156609401Y-112712966D01*
X156524487Y-112992889D01*
X156495815Y-113284000D01*
X156524487Y-113575111D01*
X156609401Y-113855034D01*
X156747294Y-114113014D01*
X156932866Y-114339134D01*
X157158986Y-114524706D01*
X157416966Y-114662599D01*
X157477626Y-114681000D01*
X154971054Y-114681000D01*
X154866591Y-114670757D01*
X154795968Y-114649435D01*
X154730844Y-114614808D01*
X154673681Y-114568187D01*
X154626660Y-114511348D01*
X154591578Y-114446465D01*
X154569765Y-114375999D01*
X154559000Y-114273579D01*
X154559000Y-111982808D01*
X154556318Y-111955573D01*
X154556361Y-111949354D01*
X154555496Y-111940530D01*
X154534769Y-111743329D01*
X154523198Y-111686960D01*
X154512413Y-111630420D01*
X154509852Y-111621938D01*
X154509850Y-111621929D01*
X154509846Y-111621921D01*
X154451215Y-111432511D01*
X154428914Y-111379459D01*
X154407352Y-111326090D01*
X154403195Y-111318272D01*
X154403191Y-111318264D01*
X154403186Y-111318257D01*
X154308878Y-111143838D01*
X154276707Y-111096142D01*
X154245182Y-111047967D01*
X154239582Y-111041101D01*
X154239578Y-111041095D01*
X154239573Y-111041090D01*
X154113184Y-110888312D01*
X154072350Y-110847762D01*
X154032079Y-110806638D01*
X154025253Y-110800992D01*
X154025247Y-110800986D01*
X154025240Y-110800982D01*
X153871585Y-110675663D01*
X153823642Y-110643809D01*
X153776160Y-110611298D01*
X153768369Y-110607085D01*
X153768361Y-110607080D01*
X153768353Y-110607077D01*
X153593283Y-110513990D01*
X153540096Y-110492067D01*
X153487171Y-110469384D01*
X153478701Y-110466762D01*
X153288875Y-110409451D01*
X153232381Y-110398265D01*
X153176126Y-110386308D01*
X153167312Y-110385381D01*
X153167305Y-110385380D01*
X153167298Y-110385380D01*
X152969967Y-110366031D01*
X152939192Y-110363000D01*
X141192808Y-110363000D01*
X141165573Y-110365682D01*
X141159354Y-110365639D01*
X141150530Y-110366504D01*
X140953329Y-110387231D01*
X140896960Y-110398802D01*
X140840420Y-110409587D01*
X140831938Y-110412148D01*
X140831929Y-110412150D01*
X140831921Y-110412154D01*
X140642511Y-110470785D01*
X140589459Y-110493086D01*
X140536090Y-110514648D01*
X140528272Y-110518805D01*
X140528264Y-110518809D01*
X140528257Y-110518814D01*
X140353838Y-110613122D01*
X140306142Y-110645293D01*
X140257967Y-110676818D01*
X140251101Y-110682418D01*
X140251095Y-110682422D01*
X140251090Y-110682427D01*
X140098312Y-110808816D01*
X140057762Y-110849650D01*
X140016638Y-110889921D01*
X140010992Y-110896747D01*
X140010986Y-110896753D01*
X140010982Y-110896760D01*
X139885663Y-111050415D01*
X139853809Y-111098358D01*
X139821298Y-111145840D01*
X139817085Y-111153631D01*
X139817080Y-111153639D01*
X139817080Y-111153640D01*
X139723990Y-111328717D01*
X139702067Y-111381904D01*
X139679384Y-111434829D01*
X139676762Y-111443299D01*
X139619451Y-111633125D01*
X139608265Y-111689619D01*
X139596308Y-111745874D01*
X139595381Y-111754688D01*
X139595380Y-111754695D01*
X139595380Y-111754702D01*
X139576031Y-111952033D01*
X139576031Y-111952043D01*
X139573001Y-111982808D01*
X139573000Y-114268945D01*
X139562757Y-114373409D01*
X139541435Y-114444032D01*
X139506808Y-114509156D01*
X139460187Y-114566319D01*
X139403348Y-114613340D01*
X139338465Y-114648422D01*
X139267999Y-114670235D01*
X139165579Y-114681000D01*
X139095694Y-114681000D01*
X139126494Y-114664537D01*
X139223185Y-114585185D01*
X139302537Y-114488494D01*
X139361502Y-114378180D01*
X139397812Y-114258482D01*
X139410072Y-114134000D01*
X139410072Y-112434000D01*
X139397812Y-112309518D01*
X139361502Y-112189820D01*
X139302537Y-112079506D01*
X139223185Y-111982815D01*
X139126494Y-111903463D01*
X139016180Y-111844498D01*
X138896482Y-111808188D01*
X138772000Y-111795928D01*
X137072000Y-111795928D01*
X136947518Y-111808188D01*
X136827820Y-111844498D01*
X136717506Y-111903463D01*
X136620815Y-111982815D01*
X136541463Y-112079506D01*
X136482498Y-112189820D01*
X136458034Y-112270466D01*
X136382269Y-112186412D01*
X136148920Y-112012359D01*
X135886099Y-111887175D01*
X135738890Y-111842524D01*
X135509000Y-111963845D01*
X135509000Y-113157000D01*
X135529000Y-113157000D01*
X135529000Y-113411000D01*
X135509000Y-113411000D01*
X135509000Y-113431000D01*
X135255000Y-113431000D01*
X135255000Y-113411000D01*
X135235000Y-113411000D01*
X135235000Y-113157000D01*
X135255000Y-113157000D01*
X135255000Y-111963845D01*
X135025110Y-111842524D01*
X134877901Y-111887175D01*
X134615080Y-112012359D01*
X134381731Y-112186412D01*
X134186822Y-112402645D01*
X134117201Y-112519523D01*
X134082706Y-112454986D01*
X133897134Y-112228866D01*
X133671014Y-112043294D01*
X133413034Y-111905401D01*
X133133111Y-111820487D01*
X132914950Y-111799000D01*
X132769050Y-111799000D01*
X132550889Y-111820487D01*
X132270966Y-111905401D01*
X132012986Y-112043294D01*
X131786866Y-112228866D01*
X131606207Y-112449000D01*
X131155868Y-112449000D01*
X130883000Y-112176132D01*
X130883000Y-111351018D01*
X130887040Y-111310000D01*
X130882470Y-111263595D01*
X130870918Y-111146311D01*
X130823172Y-110988913D01*
X130745636Y-110843854D01*
X130719644Y-110812182D01*
X130667439Y-110748570D01*
X130667437Y-110748568D01*
X130641291Y-110716709D01*
X130609433Y-110690564D01*
X129747907Y-109829039D01*
X130426096Y-109829039D01*
X130436556Y-109886730D01*
X130542449Y-110148421D01*
X130697361Y-110384425D01*
X130895338Y-110585673D01*
X131128773Y-110744430D01*
X131388694Y-110854596D01*
X131665113Y-110911937D01*
X131891000Y-110759474D01*
X131891000Y-109607000D01*
X132145000Y-109607000D01*
X132145000Y-110759474D01*
X132370887Y-110911937D01*
X132647306Y-110854596D01*
X132907227Y-110744430D01*
X133140662Y-110585673D01*
X133338639Y-110384425D01*
X133493551Y-110148421D01*
X133599444Y-109886730D01*
X133609904Y-109829039D01*
X133487915Y-109607000D01*
X132145000Y-109607000D01*
X131891000Y-109607000D01*
X130548085Y-109607000D01*
X130426096Y-109829039D01*
X129747907Y-109829039D01*
X129636534Y-109717667D01*
X129659943Y-109480000D01*
X129632236Y-109198691D01*
X129611691Y-109130961D01*
X130426096Y-109130961D01*
X130548085Y-109353000D01*
X131891000Y-109353000D01*
X131891000Y-108200526D01*
X132145000Y-108200526D01*
X132145000Y-109353000D01*
X133487915Y-109353000D01*
X133609904Y-109130961D01*
X133599444Y-109073270D01*
X133493551Y-108811579D01*
X133338639Y-108575575D01*
X133140662Y-108374327D01*
X132907227Y-108215570D01*
X132647306Y-108105404D01*
X132370887Y-108048063D01*
X132145000Y-108200526D01*
X131891000Y-108200526D01*
X131665113Y-108048063D01*
X131388694Y-108105404D01*
X131128773Y-108215570D01*
X130895338Y-108374327D01*
X130697361Y-108575575D01*
X130542449Y-108811579D01*
X130436556Y-109073270D01*
X130426096Y-109130961D01*
X129611691Y-109130961D01*
X129550182Y-108928192D01*
X129416932Y-108678899D01*
X129237608Y-108460392D01*
X129019101Y-108281068D01*
X128769808Y-108147818D01*
X128499309Y-108065764D01*
X128288492Y-108045000D01*
X127747508Y-108045000D01*
X127536691Y-108065764D01*
X127266192Y-108147818D01*
X127016899Y-108281068D01*
X126798392Y-108460392D01*
X126619068Y-108678899D01*
X126518000Y-108867984D01*
X126416932Y-108678899D01*
X126237608Y-108460392D01*
X126199637Y-108429230D01*
X127550806Y-107078061D01*
X129383000Y-107078061D01*
X129383000Y-107281939D01*
X129422774Y-107481898D01*
X129500795Y-107670256D01*
X129614063Y-107839774D01*
X129758226Y-107983937D01*
X129927744Y-108097205D01*
X130116102Y-108175226D01*
X130316061Y-108215000D01*
X130519939Y-108215000D01*
X130719898Y-108175226D01*
X130908256Y-108097205D01*
X131077774Y-107983937D01*
X131221937Y-107839774D01*
X131335205Y-107670256D01*
X131413226Y-107481898D01*
X131453000Y-107281939D01*
X131453000Y-107078061D01*
X131413226Y-106878102D01*
X131335205Y-106689744D01*
X131221937Y-106520226D01*
X131077774Y-106376063D01*
X130908256Y-106262795D01*
X130719898Y-106184774D01*
X130519939Y-106145000D01*
X130316061Y-106145000D01*
X130116102Y-106184774D01*
X129927744Y-106262795D01*
X129758226Y-106376063D01*
X129614063Y-106520226D01*
X129500795Y-106689744D01*
X129422774Y-106878102D01*
X129383000Y-107078061D01*
X127550806Y-107078061D01*
X130415869Y-104213000D01*
X131647389Y-104213000D01*
X131585818Y-104328192D01*
X131503764Y-104598691D01*
X131476057Y-104880000D01*
X131503764Y-105161309D01*
X131585818Y-105431808D01*
X131719068Y-105681101D01*
X131898392Y-105899608D01*
X132116899Y-106078932D01*
X132366192Y-106212182D01*
X132636691Y-106294236D01*
X132847508Y-106315000D01*
X133388492Y-106315000D01*
X133599309Y-106294236D01*
X133869808Y-106212182D01*
X134119101Y-106078932D01*
X134337608Y-105899608D01*
X134516932Y-105681101D01*
X134650182Y-105431808D01*
X134732236Y-105161309D01*
X134759943Y-104880000D01*
X134732236Y-104598691D01*
X134650182Y-104328192D01*
X134588611Y-104213000D01*
X147736133Y-104213000D01*
X151883908Y-108360777D01*
X151912774Y-108505898D01*
X151990795Y-108694256D01*
X152104063Y-108863774D01*
X152248226Y-109007937D01*
X152417744Y-109121205D01*
X152606102Y-109199226D01*
X152806061Y-109239000D01*
X153009939Y-109239000D01*
X153209898Y-109199226D01*
X153398256Y-109121205D01*
X153567774Y-109007937D01*
X153711937Y-108863774D01*
X153825205Y-108694256D01*
X153903226Y-108505898D01*
X153943000Y-108305939D01*
X153943000Y-108102061D01*
X153903226Y-107902102D01*
X153825205Y-107713744D01*
X153711937Y-107544226D01*
X153567774Y-107400063D01*
X153398256Y-107286795D01*
X153209898Y-107208774D01*
X153064777Y-107179908D01*
X148881867Y-102997000D01*
X164814945Y-102997000D01*
X164919409Y-103007243D01*
X164919409Y-103007243D01*
G37*
X164919409Y-103007243D02*
X164990032Y-103028565D01*
X165055158Y-103063193D01*
X165112318Y-103109812D01*
X165159340Y-103166653D01*
X165194423Y-103231538D01*
X165216235Y-103302002D01*
X165227000Y-103404421D01*
X165227001Y-114268936D01*
X165216757Y-114373409D01*
X165195435Y-114444032D01*
X165160808Y-114509156D01*
X165114187Y-114566319D01*
X165057348Y-114613340D01*
X164992465Y-114648422D01*
X164921999Y-114670235D01*
X164819579Y-114681000D01*
X164241694Y-114681000D01*
X164272494Y-114664537D01*
X164369185Y-114585185D01*
X164448537Y-114488494D01*
X164507502Y-114378180D01*
X164543812Y-114258482D01*
X164556072Y-114134000D01*
X164556072Y-112434000D01*
X164543812Y-112309518D01*
X164507502Y-112189820D01*
X164448537Y-112079506D01*
X164369185Y-111982815D01*
X164272494Y-111903463D01*
X164162180Y-111844498D01*
X164042482Y-111808188D01*
X163918000Y-111795928D01*
X162218000Y-111795928D01*
X162093518Y-111808188D01*
X161973820Y-111844498D01*
X161863506Y-111903463D01*
X161766815Y-111982815D01*
X161687463Y-112079506D01*
X161628498Y-112189820D01*
X161604034Y-112270466D01*
X161528269Y-112186412D01*
X161294920Y-112012359D01*
X161032099Y-111887175D01*
X160884890Y-111842524D01*
X160655000Y-111963845D01*
X160655000Y-113157000D01*
X160675000Y-113157000D01*
X160675000Y-113411000D01*
X160655000Y-113411000D01*
X160655000Y-113431000D01*
X160401000Y-113431000D01*
X160401000Y-113411000D01*
X160381000Y-113411000D01*
X160381000Y-113157000D01*
X160401000Y-113157000D01*
X160401000Y-111963845D01*
X160171110Y-111842524D01*
X160023901Y-111887175D01*
X159761080Y-112012359D01*
X159527731Y-112186412D01*
X159332822Y-112402645D01*
X159263201Y-112519523D01*
X159228706Y-112454986D01*
X159043134Y-112228866D01*
X158817014Y-112043294D01*
X158559034Y-111905401D01*
X158279111Y-111820487D01*
X158060950Y-111799000D01*
X157915050Y-111799000D01*
X157696889Y-111820487D01*
X157416966Y-111905401D01*
X157158986Y-112043294D01*
X156932866Y-112228866D01*
X156747294Y-112454986D01*
X156609401Y-112712966D01*
X156524487Y-112992889D01*
X156495815Y-113284000D01*
X156524487Y-113575111D01*
X156609401Y-113855034D01*
X156747294Y-114113014D01*
X156932866Y-114339134D01*
X157158986Y-114524706D01*
X157416966Y-114662599D01*
X157477626Y-114681000D01*
X154971054Y-114681000D01*
X154866591Y-114670757D01*
X154795968Y-114649435D01*
X154730844Y-114614808D01*
X154673681Y-114568187D01*
X154626660Y-114511348D01*
X154591578Y-114446465D01*
X154569765Y-114375999D01*
X154559000Y-114273579D01*
X154559000Y-111982808D01*
X154556318Y-111955573D01*
X154556361Y-111949354D01*
X154555496Y-111940530D01*
X154534769Y-111743329D01*
X154523198Y-111686960D01*
X154512413Y-111630420D01*
X154509852Y-111621938D01*
X154509850Y-111621929D01*
X154509846Y-111621921D01*
X154451215Y-111432511D01*
X154428914Y-111379459D01*
X154407352Y-111326090D01*
X154403195Y-111318272D01*
X154403191Y-111318264D01*
X154403186Y-111318257D01*
X154308878Y-111143838D01*
X154276707Y-111096142D01*
X154245182Y-111047967D01*
X154239582Y-111041101D01*
X154239578Y-111041095D01*
X154239573Y-111041090D01*
X154113184Y-110888312D01*
X154072350Y-110847762D01*
X154032079Y-110806638D01*
X154025253Y-110800992D01*
X154025247Y-110800986D01*
X154025240Y-110800982D01*
X153871585Y-110675663D01*
X153823642Y-110643809D01*
X153776160Y-110611298D01*
X153768369Y-110607085D01*
X153768361Y-110607080D01*
X153768353Y-110607077D01*
X153593283Y-110513990D01*
X153540096Y-110492067D01*
X153487171Y-110469384D01*
X153478701Y-110466762D01*
X153288875Y-110409451D01*
X153232381Y-110398265D01*
X153176126Y-110386308D01*
X153167312Y-110385381D01*
X153167305Y-110385380D01*
X153167298Y-110385380D01*
X152969967Y-110366031D01*
X152939192Y-110363000D01*
X141192808Y-110363000D01*
X141165573Y-110365682D01*
X141159354Y-110365639D01*
X141150530Y-110366504D01*
X140953329Y-110387231D01*
X140896960Y-110398802D01*
X140840420Y-110409587D01*
X140831938Y-110412148D01*
X140831929Y-110412150D01*
X140831921Y-110412154D01*
X140642511Y-110470785D01*
X140589459Y-110493086D01*
X140536090Y-110514648D01*
X140528272Y-110518805D01*
X140528264Y-110518809D01*
X140528257Y-110518814D01*
X140353838Y-110613122D01*
X140306142Y-110645293D01*
X140257967Y-110676818D01*
X140251101Y-110682418D01*
X140251095Y-110682422D01*
X140251090Y-110682427D01*
X140098312Y-110808816D01*
X140057762Y-110849650D01*
X140016638Y-110889921D01*
X140010992Y-110896747D01*
X140010986Y-110896753D01*
X140010982Y-110896760D01*
X139885663Y-111050415D01*
X139853809Y-111098358D01*
X139821298Y-111145840D01*
X139817085Y-111153631D01*
X139817080Y-111153639D01*
X139817080Y-111153640D01*
X139723990Y-111328717D01*
X139702067Y-111381904D01*
X139679384Y-111434829D01*
X139676762Y-111443299D01*
X139619451Y-111633125D01*
X139608265Y-111689619D01*
X139596308Y-111745874D01*
X139595381Y-111754688D01*
X139595380Y-111754695D01*
X139595380Y-111754702D01*
X139576031Y-111952033D01*
X139576031Y-111952043D01*
X139573001Y-111982808D01*
X139573000Y-114268945D01*
X139562757Y-114373409D01*
X139541435Y-114444032D01*
X139506808Y-114509156D01*
X139460187Y-114566319D01*
X139403348Y-114613340D01*
X139338465Y-114648422D01*
X139267999Y-114670235D01*
X139165579Y-114681000D01*
X139095694Y-114681000D01*
X139126494Y-114664537D01*
X139223185Y-114585185D01*
X139302537Y-114488494D01*
X139361502Y-114378180D01*
X139397812Y-114258482D01*
X139410072Y-114134000D01*
X139410072Y-112434000D01*
X139397812Y-112309518D01*
X139361502Y-112189820D01*
X139302537Y-112079506D01*
X139223185Y-111982815D01*
X139126494Y-111903463D01*
X139016180Y-111844498D01*
X138896482Y-111808188D01*
X138772000Y-111795928D01*
X137072000Y-111795928D01*
X136947518Y-111808188D01*
X136827820Y-111844498D01*
X136717506Y-111903463D01*
X136620815Y-111982815D01*
X136541463Y-112079506D01*
X136482498Y-112189820D01*
X136458034Y-112270466D01*
X136382269Y-112186412D01*
X136148920Y-112012359D01*
X135886099Y-111887175D01*
X135738890Y-111842524D01*
X135509000Y-111963845D01*
X135509000Y-113157000D01*
X135529000Y-113157000D01*
X135529000Y-113411000D01*
X135509000Y-113411000D01*
X135509000Y-113431000D01*
X135255000Y-113431000D01*
X135255000Y-113411000D01*
X135235000Y-113411000D01*
X135235000Y-113157000D01*
X135255000Y-113157000D01*
X135255000Y-111963845D01*
X135025110Y-111842524D01*
X134877901Y-111887175D01*
X134615080Y-112012359D01*
X134381731Y-112186412D01*
X134186822Y-112402645D01*
X134117201Y-112519523D01*
X134082706Y-112454986D01*
X133897134Y-112228866D01*
X133671014Y-112043294D01*
X133413034Y-111905401D01*
X133133111Y-111820487D01*
X132914950Y-111799000D01*
X132769050Y-111799000D01*
X132550889Y-111820487D01*
X132270966Y-111905401D01*
X132012986Y-112043294D01*
X131786866Y-112228866D01*
X131606207Y-112449000D01*
X131155868Y-112449000D01*
X130883000Y-112176132D01*
X130883000Y-111351018D01*
X130887040Y-111310000D01*
X130882470Y-111263595D01*
X130870918Y-111146311D01*
X130823172Y-110988913D01*
X130745636Y-110843854D01*
X130719644Y-110812182D01*
X130667439Y-110748570D01*
X130667437Y-110748568D01*
X130641291Y-110716709D01*
X130609433Y-110690564D01*
X129747907Y-109829039D01*
X130426096Y-109829039D01*
X130436556Y-109886730D01*
X130542449Y-110148421D01*
X130697361Y-110384425D01*
X130895338Y-110585673D01*
X131128773Y-110744430D01*
X131388694Y-110854596D01*
X131665113Y-110911937D01*
X131891000Y-110759474D01*
X131891000Y-109607000D01*
X132145000Y-109607000D01*
X132145000Y-110759474D01*
X132370887Y-110911937D01*
X132647306Y-110854596D01*
X132907227Y-110744430D01*
X133140662Y-110585673D01*
X133338639Y-110384425D01*
X133493551Y-110148421D01*
X133599444Y-109886730D01*
X133609904Y-109829039D01*
X133487915Y-109607000D01*
X132145000Y-109607000D01*
X131891000Y-109607000D01*
X130548085Y-109607000D01*
X130426096Y-109829039D01*
X129747907Y-109829039D01*
X129636534Y-109717667D01*
X129659943Y-109480000D01*
X129632236Y-109198691D01*
X129611691Y-109130961D01*
X130426096Y-109130961D01*
X130548085Y-109353000D01*
X131891000Y-109353000D01*
X131891000Y-108200526D01*
X132145000Y-108200526D01*
X132145000Y-109353000D01*
X133487915Y-109353000D01*
X133609904Y-109130961D01*
X133599444Y-109073270D01*
X133493551Y-108811579D01*
X133338639Y-108575575D01*
X133140662Y-108374327D01*
X132907227Y-108215570D01*
X132647306Y-108105404D01*
X132370887Y-108048063D01*
X132145000Y-108200526D01*
X131891000Y-108200526D01*
X131665113Y-108048063D01*
X131388694Y-108105404D01*
X131128773Y-108215570D01*
X130895338Y-108374327D01*
X130697361Y-108575575D01*
X130542449Y-108811579D01*
X130436556Y-109073270D01*
X130426096Y-109130961D01*
X129611691Y-109130961D01*
X129550182Y-108928192D01*
X129416932Y-108678899D01*
X129237608Y-108460392D01*
X129019101Y-108281068D01*
X128769808Y-108147818D01*
X128499309Y-108065764D01*
X128288492Y-108045000D01*
X127747508Y-108045000D01*
X127536691Y-108065764D01*
X127266192Y-108147818D01*
X127016899Y-108281068D01*
X126798392Y-108460392D01*
X126619068Y-108678899D01*
X126518000Y-108867984D01*
X126416932Y-108678899D01*
X126237608Y-108460392D01*
X126199637Y-108429230D01*
X127550806Y-107078061D01*
X129383000Y-107078061D01*
X129383000Y-107281939D01*
X129422774Y-107481898D01*
X129500795Y-107670256D01*
X129614063Y-107839774D01*
X129758226Y-107983937D01*
X129927744Y-108097205D01*
X130116102Y-108175226D01*
X130316061Y-108215000D01*
X130519939Y-108215000D01*
X130719898Y-108175226D01*
X130908256Y-108097205D01*
X131077774Y-107983937D01*
X131221937Y-107839774D01*
X131335205Y-107670256D01*
X131413226Y-107481898D01*
X131453000Y-107281939D01*
X131453000Y-107078061D01*
X131413226Y-106878102D01*
X131335205Y-106689744D01*
X131221937Y-106520226D01*
X131077774Y-106376063D01*
X130908256Y-106262795D01*
X130719898Y-106184774D01*
X130519939Y-106145000D01*
X130316061Y-106145000D01*
X130116102Y-106184774D01*
X129927744Y-106262795D01*
X129758226Y-106376063D01*
X129614063Y-106520226D01*
X129500795Y-106689744D01*
X129422774Y-106878102D01*
X129383000Y-107078061D01*
X127550806Y-107078061D01*
X130415869Y-104213000D01*
X131647389Y-104213000D01*
X131585818Y-104328192D01*
X131503764Y-104598691D01*
X131476057Y-104880000D01*
X131503764Y-105161309D01*
X131585818Y-105431808D01*
X131719068Y-105681101D01*
X131898392Y-105899608D01*
X132116899Y-106078932D01*
X132366192Y-106212182D01*
X132636691Y-106294236D01*
X132847508Y-106315000D01*
X133388492Y-106315000D01*
X133599309Y-106294236D01*
X133869808Y-106212182D01*
X134119101Y-106078932D01*
X134337608Y-105899608D01*
X134516932Y-105681101D01*
X134650182Y-105431808D01*
X134732236Y-105161309D01*
X134759943Y-104880000D01*
X134732236Y-104598691D01*
X134650182Y-104328192D01*
X134588611Y-104213000D01*
X147736133Y-104213000D01*
X151883908Y-108360777D01*
X151912774Y-108505898D01*
X151990795Y-108694256D01*
X152104063Y-108863774D01*
X152248226Y-109007937D01*
X152417744Y-109121205D01*
X152606102Y-109199226D01*
X152806061Y-109239000D01*
X153009939Y-109239000D01*
X153209898Y-109199226D01*
X153398256Y-109121205D01*
X153567774Y-109007937D01*
X153711937Y-108863774D01*
X153825205Y-108694256D01*
X153903226Y-108505898D01*
X153943000Y-108305939D01*
X153943000Y-108102061D01*
X153903226Y-107902102D01*
X153825205Y-107713744D01*
X153711937Y-107544226D01*
X153567774Y-107400063D01*
X153398256Y-107286795D01*
X153209898Y-107208774D01*
X153064777Y-107179908D01*
X148881867Y-102997000D01*
X164814945Y-102997000D01*
X164919409Y-103007243D01*
M02*
