G04 #@! TF.GenerationSoftware,KiCad,Pcbnew,5.1.0-unknown-e90452d~82~ubuntu16.04.1*
G04 #@! TF.CreationDate,2019-04-11T13:30:45-04:00*
G04 #@! TF.ProjectId,dual_touch_sensor_trrs_pcb,6475616c-5f74-46f7-9563-685f73656e73,1.0*
G04 #@! TF.SameCoordinates,Original*
G04 #@! TF.FileFunction,Profile,NP*
%FSLAX46Y46*%
G04 Gerber Fmt 4.6, Leading zero omitted, Abs format (unit mm)*
G04 Created by KiCad (PCBNEW 5.1.0-unknown-e90452d~82~ubuntu16.04.1) date 2019-04-11 13:30:45*
%MOMM*%
%LPD*%
G04 APERTURE LIST*
%ADD10C,0.050000*%
G04 APERTURE END LIST*
D10*
X165862000Y-103378000D02*
X165862000Y-114300000D01*
X121920000Y-103378000D02*
X121920000Y-109982000D01*
X154940000Y-115316000D02*
X164846000Y-115316000D01*
X153924000Y-112014000D02*
X153924000Y-114300000D01*
X141224000Y-110998000D02*
X152908000Y-110998000D01*
X140208000Y-114300000D02*
X140208000Y-112014000D01*
X122936000Y-102362000D02*
X164846000Y-102362000D01*
X165862000Y-114300000D02*
G75*
G02X164846000Y-115316000I-1016000J0D01*
G01*
X154940000Y-115316000D02*
G75*
G02X153924000Y-114300000I0J1016000D01*
G01*
X152908000Y-110998000D02*
G75*
G02X153924000Y-112014000I0J-1016000D01*
G01*
X140208000Y-112014000D02*
G75*
G02X141224000Y-110998000I1016000J0D01*
G01*
X127508000Y-110998000D02*
X122936000Y-110998000D01*
X129540000Y-115316000D02*
X137668000Y-115316000D01*
X128524000Y-112014000D02*
X128524000Y-114300000D01*
X129540000Y-115316000D02*
G75*
G02X128524000Y-114300000I0J1016000D01*
G01*
X127508000Y-110998000D02*
G75*
G02X128524000Y-112014000I0J-1016000D01*
G01*
X137668000Y-115316000D02*
X139192000Y-115316000D01*
X164846000Y-102362000D02*
G75*
G02X165862000Y-103378000I0J-1016000D01*
G01*
X140208000Y-114300000D02*
G75*
G02X139192000Y-115316000I-1016000J0D01*
G01*
X122936000Y-110998000D02*
G75*
G02X121920000Y-109982000I0J1016000D01*
G01*
X121920000Y-103378000D02*
G75*
G02X122936000Y-102362000I1016000J0D01*
G01*
M02*
