G04 #@! TF.GenerationSoftware,KiCad,Pcbnew,5.1.0-unknown-e90452d~82~ubuntu16.04.1*
G04 #@! TF.CreationDate,2019-04-11T13:30:45-04:00*
G04 #@! TF.ProjectId,dual_touch_sensor_trrs_pcb,6475616c-5f74-46f7-9563-685f73656e73,1.0*
G04 #@! TF.SameCoordinates,Original*
G04 #@! TF.FileFunction,Legend,Top*
G04 #@! TF.FilePolarity,Positive*
%FSLAX46Y46*%
G04 Gerber Fmt 4.6, Leading zero omitted, Abs format (unit mm)*
G04 Created by KiCad (PCBNEW 5.1.0-unknown-e90452d~82~ubuntu16.04.1) date 2019-04-11 13:30:45*
%MOMM*%
%LPD*%
G04 APERTURE LIST*
%ADD10C,0.150000*%
%ADD11C,0.120000*%
G04 APERTURE END LIST*
D10*
X153859523Y-107909857D02*
X153907142Y-107862238D01*
X154050000Y-107814619D01*
X154145238Y-107814619D01*
X154288095Y-107862238D01*
X154383333Y-107957476D01*
X154430952Y-108052714D01*
X154478571Y-108243190D01*
X154478571Y-108386047D01*
X154430952Y-108576523D01*
X154383333Y-108671761D01*
X154288095Y-108767000D01*
X154145238Y-108814619D01*
X154050000Y-108814619D01*
X153907142Y-108767000D01*
X153859523Y-108719380D01*
X153002380Y-107814619D02*
X153002380Y-108338428D01*
X153050000Y-108433666D01*
X153145238Y-108481285D01*
X153335714Y-108481285D01*
X153430952Y-108433666D01*
X153002380Y-107862238D02*
X153097619Y-107814619D01*
X153335714Y-107814619D01*
X153430952Y-107862238D01*
X153478571Y-107957476D01*
X153478571Y-108052714D01*
X153430952Y-108147952D01*
X153335714Y-108195571D01*
X153097619Y-108195571D01*
X153002380Y-108243190D01*
X152669047Y-108481285D02*
X152288095Y-108481285D01*
X152526190Y-108814619D02*
X152526190Y-107957476D01*
X152478571Y-107862238D01*
X152383333Y-107814619D01*
X152288095Y-107814619D01*
X151573809Y-107862238D02*
X151669047Y-107814619D01*
X151859523Y-107814619D01*
X151954761Y-107862238D01*
X152002380Y-107957476D01*
X152002380Y-108338428D01*
X151954761Y-108433666D01*
X151859523Y-108481285D01*
X151669047Y-108481285D01*
X151573809Y-108433666D01*
X151526190Y-108338428D01*
X151526190Y-108243190D01*
X152002380Y-108147952D01*
X150954761Y-107814619D02*
X151050000Y-107862238D01*
X151097619Y-107957476D01*
X151097619Y-108814619D01*
X150192857Y-107862238D02*
X150288095Y-107814619D01*
X150478571Y-107814619D01*
X150573809Y-107862238D01*
X150621428Y-107957476D01*
X150621428Y-108338428D01*
X150573809Y-108433666D01*
X150478571Y-108481285D01*
X150288095Y-108481285D01*
X150192857Y-108433666D01*
X150145238Y-108338428D01*
X150145238Y-108243190D01*
X150621428Y-108147952D01*
X149811904Y-107814619D02*
X149288095Y-108481285D01*
X149811904Y-108481285D02*
X149288095Y-107814619D01*
X148288095Y-108814619D02*
X147716666Y-108814619D01*
X148002380Y-107814619D02*
X148002380Y-108814619D01*
X147240476Y-107814619D02*
X147335714Y-107862238D01*
X147383333Y-107909857D01*
X147430952Y-108005095D01*
X147430952Y-108290809D01*
X147383333Y-108386047D01*
X147335714Y-108433666D01*
X147240476Y-108481285D01*
X147097619Y-108481285D01*
X147002380Y-108433666D01*
X146954761Y-108386047D01*
X146907142Y-108290809D01*
X146907142Y-108005095D01*
X146954761Y-107909857D01*
X147002380Y-107862238D01*
X147097619Y-107814619D01*
X147240476Y-107814619D01*
X146050000Y-108481285D02*
X146050000Y-107814619D01*
X146478571Y-108481285D02*
X146478571Y-107957476D01*
X146430952Y-107862238D01*
X146335714Y-107814619D01*
X146192857Y-107814619D01*
X146097619Y-107862238D01*
X146050000Y-107909857D01*
X145145238Y-107862238D02*
X145240476Y-107814619D01*
X145430952Y-107814619D01*
X145526190Y-107862238D01*
X145573809Y-107909857D01*
X145621428Y-108005095D01*
X145621428Y-108290809D01*
X145573809Y-108386047D01*
X145526190Y-108433666D01*
X145430952Y-108481285D01*
X145240476Y-108481285D01*
X145145238Y-108433666D01*
X144716666Y-107814619D02*
X144716666Y-108814619D01*
X144288095Y-107814619D02*
X144288095Y-108338428D01*
X144335714Y-108433666D01*
X144430952Y-108481285D01*
X144573809Y-108481285D01*
X144669047Y-108433666D01*
X144716666Y-108386047D01*
X143097619Y-107862238D02*
X142954761Y-107814619D01*
X142716666Y-107814619D01*
X142621428Y-107862238D01*
X142573809Y-107909857D01*
X142526190Y-108005095D01*
X142526190Y-108100333D01*
X142573809Y-108195571D01*
X142621428Y-108243190D01*
X142716666Y-108290809D01*
X142907142Y-108338428D01*
X143002380Y-108386047D01*
X143050000Y-108433666D01*
X143097619Y-108528904D01*
X143097619Y-108624142D01*
X143050000Y-108719380D01*
X143002380Y-108767000D01*
X142907142Y-108814619D01*
X142669047Y-108814619D01*
X142526190Y-108767000D01*
X141716666Y-107862238D02*
X141811904Y-107814619D01*
X142002380Y-107814619D01*
X142097619Y-107862238D01*
X142145238Y-107957476D01*
X142145238Y-108338428D01*
X142097619Y-108433666D01*
X142002380Y-108481285D01*
X141811904Y-108481285D01*
X141716666Y-108433666D01*
X141669047Y-108338428D01*
X141669047Y-108243190D01*
X142145238Y-108147952D01*
X141240476Y-108481285D02*
X141240476Y-107814619D01*
X141240476Y-108386047D02*
X141192857Y-108433666D01*
X141097619Y-108481285D01*
X140954761Y-108481285D01*
X140859523Y-108433666D01*
X140811904Y-108338428D01*
X140811904Y-107814619D01*
X140383333Y-107862238D02*
X140288095Y-107814619D01*
X140097619Y-107814619D01*
X140002380Y-107862238D01*
X139954761Y-107957476D01*
X139954761Y-108005095D01*
X140002380Y-108100333D01*
X140097619Y-108147952D01*
X140240476Y-108147952D01*
X140335714Y-108195571D01*
X140383333Y-108290809D01*
X140383333Y-108338428D01*
X140335714Y-108433666D01*
X140240476Y-108481285D01*
X140097619Y-108481285D01*
X140002380Y-108433666D01*
X139383333Y-107814619D02*
X139478571Y-107862238D01*
X139526190Y-107909857D01*
X139573809Y-108005095D01*
X139573809Y-108290809D01*
X139526190Y-108386047D01*
X139478571Y-108433666D01*
X139383333Y-108481285D01*
X139240476Y-108481285D01*
X139145238Y-108433666D01*
X139097619Y-108386047D01*
X139050000Y-108290809D01*
X139050000Y-108005095D01*
X139097619Y-107909857D01*
X139145238Y-107862238D01*
X139240476Y-107814619D01*
X139383333Y-107814619D01*
X138621428Y-107814619D02*
X138621428Y-108481285D01*
X138621428Y-108290809D02*
X138573809Y-108386047D01*
X138526190Y-108433666D01*
X138430952Y-108481285D01*
X138335714Y-108481285D01*
X138050000Y-107862238D02*
X137954761Y-107814619D01*
X137764285Y-107814619D01*
X137669047Y-107862238D01*
X137621428Y-107957476D01*
X137621428Y-108005095D01*
X137669047Y-108100333D01*
X137764285Y-108147952D01*
X137907142Y-108147952D01*
X138002380Y-108195571D01*
X138050000Y-108290809D01*
X138050000Y-108338428D01*
X138002380Y-108433666D01*
X137907142Y-108481285D01*
X137764285Y-108481285D01*
X137669047Y-108433666D01*
X154216666Y-105783666D02*
X154264285Y-105831285D01*
X154359523Y-105974142D01*
X154407142Y-106069380D01*
X154454761Y-106212238D01*
X154502380Y-106450333D01*
X154502380Y-106640809D01*
X154454761Y-106878904D01*
X154407142Y-107021761D01*
X154359523Y-107117000D01*
X154264285Y-107259857D01*
X154216666Y-107307476D01*
X153883333Y-106212238D02*
X153740476Y-106164619D01*
X153502380Y-106164619D01*
X153407142Y-106212238D01*
X153359523Y-106259857D01*
X153311904Y-106355095D01*
X153311904Y-106450333D01*
X153359523Y-106545571D01*
X153407142Y-106593190D01*
X153502380Y-106640809D01*
X153692857Y-106688428D01*
X153788095Y-106736047D01*
X153835714Y-106783666D01*
X153883333Y-106878904D01*
X153883333Y-106974142D01*
X153835714Y-107069380D01*
X153788095Y-107117000D01*
X153692857Y-107164619D01*
X153454761Y-107164619D01*
X153311904Y-107117000D01*
X152883333Y-106164619D02*
X152883333Y-106831285D01*
X152883333Y-107164619D02*
X152930952Y-107117000D01*
X152883333Y-107069380D01*
X152835714Y-107117000D01*
X152883333Y-107164619D01*
X152883333Y-107069380D01*
X152264285Y-106164619D02*
X152359523Y-106212238D01*
X152407142Y-106307476D01*
X152407142Y-107164619D01*
X151978571Y-106831285D02*
X151740476Y-106164619D01*
X151502380Y-106831285D01*
X150740476Y-106212238D02*
X150835714Y-106164619D01*
X151026190Y-106164619D01*
X151121428Y-106212238D01*
X151169047Y-106307476D01*
X151169047Y-106688428D01*
X151121428Y-106783666D01*
X151026190Y-106831285D01*
X150835714Y-106831285D01*
X150740476Y-106783666D01*
X150692857Y-106688428D01*
X150692857Y-106593190D01*
X151169047Y-106497952D01*
X150264285Y-106164619D02*
X150264285Y-106831285D01*
X150264285Y-106640809D02*
X150216666Y-106736047D01*
X150169047Y-106783666D01*
X150073809Y-106831285D01*
X149978571Y-106831285D01*
X148311904Y-106259857D02*
X148359523Y-106212238D01*
X148502380Y-106164619D01*
X148597619Y-106164619D01*
X148740476Y-106212238D01*
X148835714Y-106307476D01*
X148883333Y-106402714D01*
X148930952Y-106593190D01*
X148930952Y-106736047D01*
X148883333Y-106926523D01*
X148835714Y-107021761D01*
X148740476Y-107117000D01*
X148597619Y-107164619D01*
X148502380Y-107164619D01*
X148359523Y-107117000D01*
X148311904Y-107069380D01*
X147883333Y-106164619D02*
X147883333Y-106831285D01*
X147883333Y-107164619D02*
X147930952Y-107117000D01*
X147883333Y-107069380D01*
X147835714Y-107117000D01*
X147883333Y-107164619D01*
X147883333Y-107069380D01*
X147407142Y-106164619D02*
X147407142Y-106831285D01*
X147407142Y-106640809D02*
X147359523Y-106736047D01*
X147311904Y-106783666D01*
X147216666Y-106831285D01*
X147121428Y-106831285D01*
X146359523Y-106212238D02*
X146454761Y-106164619D01*
X146645238Y-106164619D01*
X146740476Y-106212238D01*
X146788095Y-106259857D01*
X146835714Y-106355095D01*
X146835714Y-106640809D01*
X146788095Y-106736047D01*
X146740476Y-106783666D01*
X146645238Y-106831285D01*
X146454761Y-106831285D01*
X146359523Y-106783666D01*
X145788095Y-106164619D02*
X145883333Y-106212238D01*
X145930952Y-106307476D01*
X145930952Y-107164619D01*
X145026190Y-106212238D02*
X145121428Y-106164619D01*
X145311904Y-106164619D01*
X145407142Y-106212238D01*
X145454761Y-106307476D01*
X145454761Y-106688428D01*
X145407142Y-106783666D01*
X145311904Y-106831285D01*
X145121428Y-106831285D01*
X145026190Y-106783666D01*
X144978571Y-106688428D01*
X144978571Y-106593190D01*
X145454761Y-106497952D01*
X143835714Y-106212238D02*
X143692857Y-106164619D01*
X143454761Y-106164619D01*
X143359523Y-106212238D01*
X143311904Y-106259857D01*
X143264285Y-106355095D01*
X143264285Y-106450333D01*
X143311904Y-106545571D01*
X143359523Y-106593190D01*
X143454761Y-106640809D01*
X143645238Y-106688428D01*
X143740476Y-106736047D01*
X143788095Y-106783666D01*
X143835714Y-106878904D01*
X143835714Y-106974142D01*
X143788095Y-107069380D01*
X143740476Y-107117000D01*
X143645238Y-107164619D01*
X143407142Y-107164619D01*
X143264285Y-107117000D01*
X142835714Y-106164619D02*
X142835714Y-106831285D01*
X142835714Y-107164619D02*
X142883333Y-107117000D01*
X142835714Y-107069380D01*
X142788095Y-107117000D01*
X142835714Y-107164619D01*
X142835714Y-107069380D01*
X141930952Y-106164619D02*
X141930952Y-107164619D01*
X141930952Y-106212238D02*
X142026190Y-106164619D01*
X142216666Y-106164619D01*
X142311904Y-106212238D01*
X142359523Y-106259857D01*
X142407142Y-106355095D01*
X142407142Y-106640809D01*
X142359523Y-106736047D01*
X142311904Y-106783666D01*
X142216666Y-106831285D01*
X142026190Y-106831285D01*
X141930952Y-106783666D01*
X141073809Y-106212238D02*
X141169047Y-106164619D01*
X141359523Y-106164619D01*
X141454761Y-106212238D01*
X141502380Y-106307476D01*
X141502380Y-106688428D01*
X141454761Y-106783666D01*
X141359523Y-106831285D01*
X141169047Y-106831285D01*
X141073809Y-106783666D01*
X141026190Y-106688428D01*
X141026190Y-106593190D01*
X141502380Y-106497952D01*
X139835714Y-107164619D02*
X139835714Y-106355095D01*
X139788095Y-106259857D01*
X139740476Y-106212238D01*
X139645238Y-106164619D01*
X139454761Y-106164619D01*
X139359523Y-106212238D01*
X139311904Y-106259857D01*
X139264285Y-106355095D01*
X139264285Y-107164619D01*
X138788095Y-106164619D02*
X138788095Y-107164619D01*
X138407142Y-107164619D01*
X138311904Y-107117000D01*
X138264285Y-107069380D01*
X138216666Y-106974142D01*
X138216666Y-106831285D01*
X138264285Y-106736047D01*
X138311904Y-106688428D01*
X138407142Y-106640809D01*
X138788095Y-106640809D01*
X137883333Y-105783666D02*
X137835714Y-105831285D01*
X137740476Y-105974142D01*
X137692857Y-106069380D01*
X137645238Y-106212238D01*
X137597619Y-106450333D01*
X137597619Y-106640809D01*
X137645238Y-106878904D01*
X137692857Y-107021761D01*
X137740476Y-107117000D01*
X137835714Y-107259857D01*
X137883333Y-107307476D01*
X133056190Y-110593238D02*
X132913333Y-110545619D01*
X132675238Y-110545619D01*
X132580000Y-110593238D01*
X132532380Y-110640857D01*
X132484761Y-110736095D01*
X132484761Y-110831333D01*
X132532380Y-110926571D01*
X132580000Y-110974190D01*
X132675238Y-111021809D01*
X132865714Y-111069428D01*
X132960952Y-111117047D01*
X133008571Y-111164666D01*
X133056190Y-111259904D01*
X133056190Y-111355142D01*
X133008571Y-111450380D01*
X132960952Y-111498000D01*
X132865714Y-111545619D01*
X132627619Y-111545619D01*
X132484761Y-111498000D01*
X132056190Y-110545619D02*
X132056190Y-111212285D01*
X132056190Y-111545619D02*
X132103809Y-111498000D01*
X132056190Y-111450380D01*
X132008571Y-111498000D01*
X132056190Y-111545619D01*
X132056190Y-111450380D01*
X131151428Y-111212285D02*
X131151428Y-110402761D01*
X131199047Y-110307523D01*
X131246666Y-110259904D01*
X131341904Y-110212285D01*
X131484761Y-110212285D01*
X131580000Y-110259904D01*
X131151428Y-110593238D02*
X131246666Y-110545619D01*
X131437142Y-110545619D01*
X131532380Y-110593238D01*
X131580000Y-110640857D01*
X131627619Y-110736095D01*
X131627619Y-111021809D01*
X131580000Y-111117047D01*
X131532380Y-111164666D01*
X131437142Y-111212285D01*
X131246666Y-111212285D01*
X131151428Y-111164666D01*
X136318476Y-111545619D02*
X135985142Y-110545619D01*
X135651809Y-111545619D01*
X134889904Y-110593238D02*
X134985142Y-110545619D01*
X135175619Y-110545619D01*
X135270857Y-110593238D01*
X135318476Y-110640857D01*
X135366095Y-110736095D01*
X135366095Y-111021809D01*
X135318476Y-111117047D01*
X135270857Y-111164666D01*
X135175619Y-111212285D01*
X134985142Y-111212285D01*
X134889904Y-111164666D01*
X134032761Y-110593238D02*
X134128000Y-110545619D01*
X134318476Y-110545619D01*
X134413714Y-110593238D01*
X134461333Y-110640857D01*
X134508952Y-110736095D01*
X134508952Y-111021809D01*
X134461333Y-111117047D01*
X134413714Y-111164666D01*
X134318476Y-111212285D01*
X134128000Y-111212285D01*
X134032761Y-111164666D01*
X139072857Y-111498000D02*
X139168095Y-111545619D01*
X139310952Y-111545619D01*
X139453809Y-111498000D01*
X139549047Y-111402761D01*
X139596666Y-111307523D01*
X139644285Y-111117047D01*
X139644285Y-110974190D01*
X139596666Y-110783714D01*
X139549047Y-110688476D01*
X139453809Y-110593238D01*
X139310952Y-110545619D01*
X139215714Y-110545619D01*
X139072857Y-110593238D01*
X139025238Y-110640857D01*
X139025238Y-110974190D01*
X139215714Y-110974190D01*
X138596666Y-111212285D02*
X138596666Y-110545619D01*
X138596666Y-111117047D02*
X138549047Y-111164666D01*
X138453809Y-111212285D01*
X138310952Y-111212285D01*
X138215714Y-111164666D01*
X138168095Y-111069428D01*
X138168095Y-110545619D01*
X137263333Y-110545619D02*
X137263333Y-111545619D01*
X137263333Y-110593238D02*
X137358571Y-110545619D01*
X137549047Y-110545619D01*
X137644285Y-110593238D01*
X137691904Y-110640857D01*
X137739523Y-110736095D01*
X137739523Y-111021809D01*
X137691904Y-111117047D01*
X137644285Y-111164666D01*
X137549047Y-111212285D01*
X137358571Y-111212285D01*
X137263333Y-111164666D01*
D11*
X164398000Y-111954000D02*
X164398000Y-113284000D01*
X163068000Y-111954000D02*
X164398000Y-111954000D01*
X161798000Y-111954000D02*
X161798000Y-114614000D01*
X161798000Y-114614000D02*
X156658000Y-114614000D01*
X161798000Y-111954000D02*
X156658000Y-111954000D01*
X156658000Y-111954000D02*
X156658000Y-114614000D01*
X139252000Y-111954000D02*
X139252000Y-113284000D01*
X137922000Y-111954000D02*
X139252000Y-111954000D01*
X136652000Y-111954000D02*
X136652000Y-114614000D01*
X136652000Y-114614000D02*
X131512000Y-114614000D01*
X136652000Y-111954000D02*
X131512000Y-111954000D01*
X131512000Y-111954000D02*
X131512000Y-114614000D01*
D10*
X155090761Y-113791904D02*
X155138380Y-113649047D01*
X155138380Y-113410952D01*
X155090761Y-113315714D01*
X155043142Y-113268095D01*
X154947904Y-113220476D01*
X154852666Y-113220476D01*
X154757428Y-113268095D01*
X154709809Y-113315714D01*
X154662190Y-113410952D01*
X154614571Y-113601428D01*
X154566952Y-113696666D01*
X154519333Y-113744285D01*
X154424095Y-113791904D01*
X154328857Y-113791904D01*
X154233619Y-113744285D01*
X154186000Y-113696666D01*
X154138380Y-113601428D01*
X154138380Y-113363333D01*
X154186000Y-113220476D01*
X154233619Y-112839523D02*
X154186000Y-112791904D01*
X154138380Y-112696666D01*
X154138380Y-112458571D01*
X154186000Y-112363333D01*
X154233619Y-112315714D01*
X154328857Y-112268095D01*
X154424095Y-112268095D01*
X154566952Y-112315714D01*
X155138380Y-112887142D01*
X155138380Y-112268095D01*
X130198761Y-114045904D02*
X130246380Y-113903047D01*
X130246380Y-113664952D01*
X130198761Y-113569714D01*
X130151142Y-113522095D01*
X130055904Y-113474476D01*
X129960666Y-113474476D01*
X129865428Y-113522095D01*
X129817809Y-113569714D01*
X129770190Y-113664952D01*
X129722571Y-113855428D01*
X129674952Y-113950666D01*
X129627333Y-113998285D01*
X129532095Y-114045904D01*
X129436857Y-114045904D01*
X129341619Y-113998285D01*
X129294000Y-113950666D01*
X129246380Y-113855428D01*
X129246380Y-113617333D01*
X129294000Y-113474476D01*
X130246380Y-112522095D02*
X130246380Y-113093523D01*
X130246380Y-112807809D02*
X129246380Y-112807809D01*
X129389238Y-112903047D01*
X129484476Y-112998285D01*
X129532095Y-113093523D01*
M02*
