G04 #@! TF.GenerationSoftware,KiCad,Pcbnew,5.1.0-unknown-e90452d~82~ubuntu16.04.1*
G04 #@! TF.CreationDate,2019-04-11T13:30:45-04:00*
G04 #@! TF.ProjectId,dual_touch_sensor_trrs_pcb,6475616c-5f74-46f7-9563-685f73656e73,1.0*
G04 #@! TF.SameCoordinates,Original*
G04 #@! TF.FileFunction,Copper,L1,Top*
G04 #@! TF.FilePolarity,Positive*
%FSLAX46Y46*%
G04 Gerber Fmt 4.6, Leading zero omitted, Abs format (unit mm)*
G04 Created by KiCad (PCBNEW 5.1.0-unknown-e90452d~82~ubuntu16.04.1) date 2019-04-11 13:30:45*
%MOMM*%
%LPD*%
G04 APERTURE LIST*
%ADD10O,1.700000X1.700000*%
%ADD11R,1.700000X1.700000*%
%ADD12O,2.000000X1.600000*%
%ADD13C,0.800000*%
%ADD14C,0.250000*%
%ADD15C,0.400000*%
%ADD16C,0.254000*%
G04 APERTURE END LIST*
D10*
X157988000Y-113284000D03*
X160528000Y-113284000D03*
D11*
X163068000Y-113284000D03*
D10*
X132842000Y-113284000D03*
X135382000Y-113284000D03*
D11*
X137922000Y-113284000D03*
D12*
X133118000Y-104880000D03*
X132018000Y-109480000D03*
X125018000Y-109480000D03*
X128018000Y-109480000D03*
D13*
X152908000Y-108204000D03*
D14*
X133318000Y-104880000D02*
X133118000Y-104880000D01*
X137922000Y-109484000D02*
X133318000Y-104880000D01*
X137922000Y-113284000D02*
X137922000Y-109484000D01*
D15*
X152908000Y-108204000D02*
X157988000Y-113284000D01*
D16*
G36*
X164919409Y-103007243D02*
G01*
X164990032Y-103028565D01*
X165055158Y-103063193D01*
X165112318Y-103109812D01*
X165159340Y-103166653D01*
X165194423Y-103231538D01*
X165216235Y-103302002D01*
X165227000Y-103404421D01*
X165227001Y-114268936D01*
X165216757Y-114373409D01*
X165195435Y-114444032D01*
X165160808Y-114509156D01*
X165114187Y-114566319D01*
X165057348Y-114613340D01*
X164992465Y-114648422D01*
X164921999Y-114670235D01*
X164819579Y-114681000D01*
X164241694Y-114681000D01*
X164272494Y-114664537D01*
X164369185Y-114585185D01*
X164448537Y-114488494D01*
X164507502Y-114378180D01*
X164543812Y-114258482D01*
X164556072Y-114134000D01*
X164553000Y-113569750D01*
X164394250Y-113411000D01*
X163195000Y-113411000D01*
X163195000Y-113431000D01*
X162941000Y-113431000D01*
X162941000Y-113411000D01*
X162921000Y-113411000D01*
X162921000Y-113157000D01*
X162941000Y-113157000D01*
X162941000Y-111957750D01*
X163195000Y-111957750D01*
X163195000Y-113157000D01*
X164394250Y-113157000D01*
X164553000Y-112998250D01*
X164556072Y-112434000D01*
X164543812Y-112309518D01*
X164507502Y-112189820D01*
X164448537Y-112079506D01*
X164369185Y-111982815D01*
X164272494Y-111903463D01*
X164162180Y-111844498D01*
X164042482Y-111808188D01*
X163918000Y-111795928D01*
X163353750Y-111799000D01*
X163195000Y-111957750D01*
X162941000Y-111957750D01*
X162782250Y-111799000D01*
X162218000Y-111795928D01*
X162093518Y-111808188D01*
X161973820Y-111844498D01*
X161863506Y-111903463D01*
X161766815Y-111982815D01*
X161687463Y-112079506D01*
X161628498Y-112189820D01*
X161607607Y-112258687D01*
X161583134Y-112228866D01*
X161357014Y-112043294D01*
X161099034Y-111905401D01*
X160819111Y-111820487D01*
X160600950Y-111799000D01*
X160455050Y-111799000D01*
X160236889Y-111820487D01*
X159956966Y-111905401D01*
X159698986Y-112043294D01*
X159472866Y-112228866D01*
X159287294Y-112454986D01*
X159258000Y-112509791D01*
X159228706Y-112454986D01*
X159043134Y-112228866D01*
X158817014Y-112043294D01*
X158559034Y-111905401D01*
X158279111Y-111820487D01*
X158060950Y-111799000D01*
X157915050Y-111799000D01*
X157704597Y-111819728D01*
X153932093Y-108047225D01*
X153903226Y-107902102D01*
X153825205Y-107713744D01*
X153711937Y-107544226D01*
X153567774Y-107400063D01*
X153398256Y-107286795D01*
X153209898Y-107208774D01*
X153009939Y-107169000D01*
X152806061Y-107169000D01*
X152606102Y-107208774D01*
X152417744Y-107286795D01*
X152248226Y-107400063D01*
X152104063Y-107544226D01*
X151990795Y-107713744D01*
X151912774Y-107902102D01*
X151873000Y-108102061D01*
X151873000Y-108305939D01*
X151912774Y-108505898D01*
X151990795Y-108694256D01*
X152104063Y-108863774D01*
X152248226Y-109007937D01*
X152417744Y-109121205D01*
X152606102Y-109199226D01*
X152751225Y-109228093D01*
X156523728Y-113000597D01*
X156495815Y-113284000D01*
X156524487Y-113575111D01*
X156609401Y-113855034D01*
X156747294Y-114113014D01*
X156932866Y-114339134D01*
X157158986Y-114524706D01*
X157416966Y-114662599D01*
X157477626Y-114681000D01*
X154971054Y-114681000D01*
X154866591Y-114670757D01*
X154795968Y-114649435D01*
X154730844Y-114614808D01*
X154673681Y-114568187D01*
X154626660Y-114511348D01*
X154591578Y-114446465D01*
X154569765Y-114375999D01*
X154559000Y-114273579D01*
X154559000Y-111982808D01*
X154556318Y-111955573D01*
X154556361Y-111949354D01*
X154555496Y-111940530D01*
X154534769Y-111743329D01*
X154523198Y-111686960D01*
X154512413Y-111630420D01*
X154509852Y-111621938D01*
X154509850Y-111621929D01*
X154509846Y-111621921D01*
X154451215Y-111432511D01*
X154428914Y-111379459D01*
X154407352Y-111326090D01*
X154403195Y-111318272D01*
X154403191Y-111318264D01*
X154403186Y-111318257D01*
X154308878Y-111143838D01*
X154276707Y-111096142D01*
X154245182Y-111047967D01*
X154239582Y-111041101D01*
X154239578Y-111041095D01*
X154239573Y-111041090D01*
X154113184Y-110888312D01*
X154072350Y-110847762D01*
X154032079Y-110806638D01*
X154025253Y-110800992D01*
X154025247Y-110800986D01*
X154025240Y-110800982D01*
X153871585Y-110675663D01*
X153823642Y-110643809D01*
X153776160Y-110611298D01*
X153768369Y-110607085D01*
X153768361Y-110607080D01*
X153768353Y-110607077D01*
X153593283Y-110513990D01*
X153540096Y-110492067D01*
X153487171Y-110469384D01*
X153478701Y-110466762D01*
X153288875Y-110409451D01*
X153232381Y-110398265D01*
X153176126Y-110386308D01*
X153167312Y-110385381D01*
X153167305Y-110385380D01*
X153167298Y-110385380D01*
X152969967Y-110366031D01*
X152939192Y-110363000D01*
X141192808Y-110363000D01*
X141165573Y-110365682D01*
X141159354Y-110365639D01*
X141150530Y-110366504D01*
X140953329Y-110387231D01*
X140896960Y-110398802D01*
X140840420Y-110409587D01*
X140831938Y-110412148D01*
X140831929Y-110412150D01*
X140831921Y-110412154D01*
X140642511Y-110470785D01*
X140589459Y-110493086D01*
X140536090Y-110514648D01*
X140528272Y-110518805D01*
X140528264Y-110518809D01*
X140528257Y-110518814D01*
X140353838Y-110613122D01*
X140306142Y-110645293D01*
X140257967Y-110676818D01*
X140251101Y-110682418D01*
X140251095Y-110682422D01*
X140251090Y-110682427D01*
X140098312Y-110808816D01*
X140057762Y-110849650D01*
X140016638Y-110889921D01*
X140010992Y-110896747D01*
X140010986Y-110896753D01*
X140010982Y-110896760D01*
X139885663Y-111050415D01*
X139853809Y-111098358D01*
X139821298Y-111145840D01*
X139817085Y-111153631D01*
X139817080Y-111153639D01*
X139817080Y-111153640D01*
X139723990Y-111328717D01*
X139702067Y-111381904D01*
X139679384Y-111434829D01*
X139676762Y-111443299D01*
X139619451Y-111633125D01*
X139608265Y-111689619D01*
X139596308Y-111745874D01*
X139595381Y-111754688D01*
X139595380Y-111754695D01*
X139595380Y-111754702D01*
X139576031Y-111952033D01*
X139576031Y-111952043D01*
X139573001Y-111982808D01*
X139573000Y-114268945D01*
X139562757Y-114373409D01*
X139541435Y-114444032D01*
X139506808Y-114509156D01*
X139460187Y-114566319D01*
X139403348Y-114613340D01*
X139338465Y-114648422D01*
X139267999Y-114670235D01*
X139165579Y-114681000D01*
X139095694Y-114681000D01*
X139126494Y-114664537D01*
X139223185Y-114585185D01*
X139302537Y-114488494D01*
X139361502Y-114378180D01*
X139397812Y-114258482D01*
X139410072Y-114134000D01*
X139407000Y-113569750D01*
X139248250Y-113411000D01*
X138049000Y-113411000D01*
X138049000Y-113431000D01*
X137795000Y-113431000D01*
X137795000Y-113411000D01*
X137775000Y-113411000D01*
X137775000Y-113157000D01*
X137795000Y-113157000D01*
X137795000Y-111957750D01*
X138049000Y-111957750D01*
X138049000Y-113157000D01*
X139248250Y-113157000D01*
X139407000Y-112998250D01*
X139410072Y-112434000D01*
X139397812Y-112309518D01*
X139361502Y-112189820D01*
X139302537Y-112079506D01*
X139223185Y-111982815D01*
X139126494Y-111903463D01*
X139016180Y-111844498D01*
X138896482Y-111808188D01*
X138772000Y-111795928D01*
X138207750Y-111799000D01*
X138049000Y-111957750D01*
X137795000Y-111957750D01*
X137636250Y-111799000D01*
X137072000Y-111795928D01*
X136947518Y-111808188D01*
X136827820Y-111844498D01*
X136717506Y-111903463D01*
X136620815Y-111982815D01*
X136541463Y-112079506D01*
X136482498Y-112189820D01*
X136461607Y-112258687D01*
X136437134Y-112228866D01*
X136211014Y-112043294D01*
X135953034Y-111905401D01*
X135673111Y-111820487D01*
X135454950Y-111799000D01*
X135309050Y-111799000D01*
X135090889Y-111820487D01*
X134810966Y-111905401D01*
X134552986Y-112043294D01*
X134326866Y-112228866D01*
X134141294Y-112454986D01*
X134112000Y-112509791D01*
X134082706Y-112454986D01*
X133897134Y-112228866D01*
X133671014Y-112043294D01*
X133413034Y-111905401D01*
X133133111Y-111820487D01*
X132914950Y-111799000D01*
X132769050Y-111799000D01*
X132550889Y-111820487D01*
X132270966Y-111905401D01*
X132012986Y-112043294D01*
X131786866Y-112228866D01*
X131601294Y-112454986D01*
X131463401Y-112712966D01*
X131378487Y-112992889D01*
X131349815Y-113284000D01*
X131378487Y-113575111D01*
X131463401Y-113855034D01*
X131601294Y-114113014D01*
X131786866Y-114339134D01*
X132012986Y-114524706D01*
X132270966Y-114662599D01*
X132331626Y-114681000D01*
X129571054Y-114681000D01*
X129466591Y-114670757D01*
X129395968Y-114649435D01*
X129330844Y-114614808D01*
X129273681Y-114568187D01*
X129226660Y-114511348D01*
X129191578Y-114446465D01*
X129169765Y-114375999D01*
X129159000Y-114273579D01*
X129159000Y-111982808D01*
X129156318Y-111955573D01*
X129156361Y-111949354D01*
X129155496Y-111940530D01*
X129134769Y-111743329D01*
X129123198Y-111686960D01*
X129112413Y-111630420D01*
X129109852Y-111621938D01*
X129109850Y-111621929D01*
X129109846Y-111621921D01*
X129051215Y-111432511D01*
X129028914Y-111379459D01*
X129007352Y-111326090D01*
X129003195Y-111318272D01*
X129003191Y-111318264D01*
X129003186Y-111318257D01*
X128908878Y-111143838D01*
X128876707Y-111096142D01*
X128845182Y-111047967D01*
X128839582Y-111041101D01*
X128839578Y-111041095D01*
X128839573Y-111041090D01*
X128713184Y-110888312D01*
X128672350Y-110847762D01*
X128667808Y-110843123D01*
X128769808Y-110812182D01*
X129019101Y-110678932D01*
X129237608Y-110499608D01*
X129416932Y-110281101D01*
X129550182Y-110031808D01*
X129632236Y-109761309D01*
X129659943Y-109480000D01*
X130376057Y-109480000D01*
X130403764Y-109761309D01*
X130485818Y-110031808D01*
X130619068Y-110281101D01*
X130798392Y-110499608D01*
X131016899Y-110678932D01*
X131266192Y-110812182D01*
X131536691Y-110894236D01*
X131747508Y-110915000D01*
X132288492Y-110915000D01*
X132499309Y-110894236D01*
X132769808Y-110812182D01*
X133019101Y-110678932D01*
X133237608Y-110499608D01*
X133416932Y-110281101D01*
X133550182Y-110031808D01*
X133632236Y-109761309D01*
X133659943Y-109480000D01*
X133632236Y-109198691D01*
X133550182Y-108928192D01*
X133416932Y-108678899D01*
X133237608Y-108460392D01*
X133019101Y-108281068D01*
X132769808Y-108147818D01*
X132499309Y-108065764D01*
X132288492Y-108045000D01*
X131747508Y-108045000D01*
X131536691Y-108065764D01*
X131266192Y-108147818D01*
X131016899Y-108281068D01*
X130798392Y-108460392D01*
X130619068Y-108678899D01*
X130485818Y-108928192D01*
X130403764Y-109198691D01*
X130376057Y-109480000D01*
X129659943Y-109480000D01*
X129632236Y-109198691D01*
X129550182Y-108928192D01*
X129416932Y-108678899D01*
X129237608Y-108460392D01*
X129019101Y-108281068D01*
X128769808Y-108147818D01*
X128499309Y-108065764D01*
X128288492Y-108045000D01*
X127747508Y-108045000D01*
X127536691Y-108065764D01*
X127266192Y-108147818D01*
X127016899Y-108281068D01*
X126798392Y-108460392D01*
X126619068Y-108678899D01*
X126518000Y-108867984D01*
X126416932Y-108678899D01*
X126237608Y-108460392D01*
X126019101Y-108281068D01*
X125769808Y-108147818D01*
X125499309Y-108065764D01*
X125288492Y-108045000D01*
X124747508Y-108045000D01*
X124536691Y-108065764D01*
X124266192Y-108147818D01*
X124016899Y-108281068D01*
X123798392Y-108460392D01*
X123619068Y-108678899D01*
X123485818Y-108928192D01*
X123403764Y-109198691D01*
X123376057Y-109480000D01*
X123403764Y-109761309D01*
X123485818Y-110031808D01*
X123619068Y-110281101D01*
X123686281Y-110363000D01*
X122967054Y-110363000D01*
X122862591Y-110352757D01*
X122791968Y-110331435D01*
X122726844Y-110296808D01*
X122669681Y-110250187D01*
X122622660Y-110193348D01*
X122587578Y-110128465D01*
X122565765Y-110057999D01*
X122555000Y-109955579D01*
X122555000Y-107751380D01*
X122614063Y-107839774D01*
X122758226Y-107983937D01*
X122927744Y-108097205D01*
X123116102Y-108175226D01*
X123316061Y-108215000D01*
X123519939Y-108215000D01*
X123719898Y-108175226D01*
X123908256Y-108097205D01*
X124077774Y-107983937D01*
X124221937Y-107839774D01*
X124335205Y-107670256D01*
X124413226Y-107481898D01*
X124453000Y-107281939D01*
X124453000Y-107078061D01*
X129383000Y-107078061D01*
X129383000Y-107281939D01*
X129422774Y-107481898D01*
X129500795Y-107670256D01*
X129614063Y-107839774D01*
X129758226Y-107983937D01*
X129927744Y-108097205D01*
X130116102Y-108175226D01*
X130316061Y-108215000D01*
X130519939Y-108215000D01*
X130719898Y-108175226D01*
X130908256Y-108097205D01*
X131077774Y-107983937D01*
X131221937Y-107839774D01*
X131335205Y-107670256D01*
X131413226Y-107481898D01*
X131453000Y-107281939D01*
X131453000Y-107078061D01*
X131413226Y-106878102D01*
X131335205Y-106689744D01*
X131221937Y-106520226D01*
X131077774Y-106376063D01*
X130908256Y-106262795D01*
X130719898Y-106184774D01*
X130519939Y-106145000D01*
X130316061Y-106145000D01*
X130116102Y-106184774D01*
X129927744Y-106262795D01*
X129758226Y-106376063D01*
X129614063Y-106520226D01*
X129500795Y-106689744D01*
X129422774Y-106878102D01*
X129383000Y-107078061D01*
X124453000Y-107078061D01*
X124413226Y-106878102D01*
X124335205Y-106689744D01*
X124221937Y-106520226D01*
X124077774Y-106376063D01*
X123908256Y-106262795D01*
X123719898Y-106184774D01*
X123519939Y-106145000D01*
X123316061Y-106145000D01*
X123116102Y-106184774D01*
X122927744Y-106262795D01*
X122758226Y-106376063D01*
X122614063Y-106520226D01*
X122555000Y-106608620D01*
X122555000Y-105229039D01*
X131526096Y-105229039D01*
X131536556Y-105286730D01*
X131642449Y-105548421D01*
X131797361Y-105784425D01*
X131995338Y-105985673D01*
X132228773Y-106144430D01*
X132488694Y-106254596D01*
X132765113Y-106311937D01*
X132991000Y-106159474D01*
X132991000Y-105007000D01*
X133245000Y-105007000D01*
X133245000Y-106159474D01*
X133470887Y-106311937D01*
X133747306Y-106254596D01*
X134007227Y-106144430D01*
X134240662Y-105985673D01*
X134438639Y-105784425D01*
X134593551Y-105548421D01*
X134699444Y-105286730D01*
X134709904Y-105229039D01*
X134587915Y-105007000D01*
X133245000Y-105007000D01*
X132991000Y-105007000D01*
X131648085Y-105007000D01*
X131526096Y-105229039D01*
X122555000Y-105229039D01*
X122555000Y-104530961D01*
X131526096Y-104530961D01*
X131648085Y-104753000D01*
X132991000Y-104753000D01*
X132991000Y-103600526D01*
X133245000Y-103600526D01*
X133245000Y-104753000D01*
X134587915Y-104753000D01*
X134709904Y-104530961D01*
X134699444Y-104473270D01*
X134593551Y-104211579D01*
X134438639Y-103975575D01*
X134240662Y-103774327D01*
X134007227Y-103615570D01*
X133747306Y-103505404D01*
X133470887Y-103448063D01*
X133245000Y-103600526D01*
X132991000Y-103600526D01*
X132765113Y-103448063D01*
X132488694Y-103505404D01*
X132228773Y-103615570D01*
X131995338Y-103774327D01*
X131797361Y-103975575D01*
X131642449Y-104211579D01*
X131536556Y-104473270D01*
X131526096Y-104530961D01*
X122555000Y-104530961D01*
X122555000Y-103409055D01*
X122565243Y-103304591D01*
X122586565Y-103233968D01*
X122621193Y-103168842D01*
X122667812Y-103111682D01*
X122724653Y-103064660D01*
X122789538Y-103029577D01*
X122860002Y-103007765D01*
X122962421Y-102997000D01*
X164814945Y-102997000D01*
X164919409Y-103007243D01*
X164919409Y-103007243D01*
G37*
X164919409Y-103007243D02*
X164990032Y-103028565D01*
X165055158Y-103063193D01*
X165112318Y-103109812D01*
X165159340Y-103166653D01*
X165194423Y-103231538D01*
X165216235Y-103302002D01*
X165227000Y-103404421D01*
X165227001Y-114268936D01*
X165216757Y-114373409D01*
X165195435Y-114444032D01*
X165160808Y-114509156D01*
X165114187Y-114566319D01*
X165057348Y-114613340D01*
X164992465Y-114648422D01*
X164921999Y-114670235D01*
X164819579Y-114681000D01*
X164241694Y-114681000D01*
X164272494Y-114664537D01*
X164369185Y-114585185D01*
X164448537Y-114488494D01*
X164507502Y-114378180D01*
X164543812Y-114258482D01*
X164556072Y-114134000D01*
X164553000Y-113569750D01*
X164394250Y-113411000D01*
X163195000Y-113411000D01*
X163195000Y-113431000D01*
X162941000Y-113431000D01*
X162941000Y-113411000D01*
X162921000Y-113411000D01*
X162921000Y-113157000D01*
X162941000Y-113157000D01*
X162941000Y-111957750D01*
X163195000Y-111957750D01*
X163195000Y-113157000D01*
X164394250Y-113157000D01*
X164553000Y-112998250D01*
X164556072Y-112434000D01*
X164543812Y-112309518D01*
X164507502Y-112189820D01*
X164448537Y-112079506D01*
X164369185Y-111982815D01*
X164272494Y-111903463D01*
X164162180Y-111844498D01*
X164042482Y-111808188D01*
X163918000Y-111795928D01*
X163353750Y-111799000D01*
X163195000Y-111957750D01*
X162941000Y-111957750D01*
X162782250Y-111799000D01*
X162218000Y-111795928D01*
X162093518Y-111808188D01*
X161973820Y-111844498D01*
X161863506Y-111903463D01*
X161766815Y-111982815D01*
X161687463Y-112079506D01*
X161628498Y-112189820D01*
X161607607Y-112258687D01*
X161583134Y-112228866D01*
X161357014Y-112043294D01*
X161099034Y-111905401D01*
X160819111Y-111820487D01*
X160600950Y-111799000D01*
X160455050Y-111799000D01*
X160236889Y-111820487D01*
X159956966Y-111905401D01*
X159698986Y-112043294D01*
X159472866Y-112228866D01*
X159287294Y-112454986D01*
X159258000Y-112509791D01*
X159228706Y-112454986D01*
X159043134Y-112228866D01*
X158817014Y-112043294D01*
X158559034Y-111905401D01*
X158279111Y-111820487D01*
X158060950Y-111799000D01*
X157915050Y-111799000D01*
X157704597Y-111819728D01*
X153932093Y-108047225D01*
X153903226Y-107902102D01*
X153825205Y-107713744D01*
X153711937Y-107544226D01*
X153567774Y-107400063D01*
X153398256Y-107286795D01*
X153209898Y-107208774D01*
X153009939Y-107169000D01*
X152806061Y-107169000D01*
X152606102Y-107208774D01*
X152417744Y-107286795D01*
X152248226Y-107400063D01*
X152104063Y-107544226D01*
X151990795Y-107713744D01*
X151912774Y-107902102D01*
X151873000Y-108102061D01*
X151873000Y-108305939D01*
X151912774Y-108505898D01*
X151990795Y-108694256D01*
X152104063Y-108863774D01*
X152248226Y-109007937D01*
X152417744Y-109121205D01*
X152606102Y-109199226D01*
X152751225Y-109228093D01*
X156523728Y-113000597D01*
X156495815Y-113284000D01*
X156524487Y-113575111D01*
X156609401Y-113855034D01*
X156747294Y-114113014D01*
X156932866Y-114339134D01*
X157158986Y-114524706D01*
X157416966Y-114662599D01*
X157477626Y-114681000D01*
X154971054Y-114681000D01*
X154866591Y-114670757D01*
X154795968Y-114649435D01*
X154730844Y-114614808D01*
X154673681Y-114568187D01*
X154626660Y-114511348D01*
X154591578Y-114446465D01*
X154569765Y-114375999D01*
X154559000Y-114273579D01*
X154559000Y-111982808D01*
X154556318Y-111955573D01*
X154556361Y-111949354D01*
X154555496Y-111940530D01*
X154534769Y-111743329D01*
X154523198Y-111686960D01*
X154512413Y-111630420D01*
X154509852Y-111621938D01*
X154509850Y-111621929D01*
X154509846Y-111621921D01*
X154451215Y-111432511D01*
X154428914Y-111379459D01*
X154407352Y-111326090D01*
X154403195Y-111318272D01*
X154403191Y-111318264D01*
X154403186Y-111318257D01*
X154308878Y-111143838D01*
X154276707Y-111096142D01*
X154245182Y-111047967D01*
X154239582Y-111041101D01*
X154239578Y-111041095D01*
X154239573Y-111041090D01*
X154113184Y-110888312D01*
X154072350Y-110847762D01*
X154032079Y-110806638D01*
X154025253Y-110800992D01*
X154025247Y-110800986D01*
X154025240Y-110800982D01*
X153871585Y-110675663D01*
X153823642Y-110643809D01*
X153776160Y-110611298D01*
X153768369Y-110607085D01*
X153768361Y-110607080D01*
X153768353Y-110607077D01*
X153593283Y-110513990D01*
X153540096Y-110492067D01*
X153487171Y-110469384D01*
X153478701Y-110466762D01*
X153288875Y-110409451D01*
X153232381Y-110398265D01*
X153176126Y-110386308D01*
X153167312Y-110385381D01*
X153167305Y-110385380D01*
X153167298Y-110385380D01*
X152969967Y-110366031D01*
X152939192Y-110363000D01*
X141192808Y-110363000D01*
X141165573Y-110365682D01*
X141159354Y-110365639D01*
X141150530Y-110366504D01*
X140953329Y-110387231D01*
X140896960Y-110398802D01*
X140840420Y-110409587D01*
X140831938Y-110412148D01*
X140831929Y-110412150D01*
X140831921Y-110412154D01*
X140642511Y-110470785D01*
X140589459Y-110493086D01*
X140536090Y-110514648D01*
X140528272Y-110518805D01*
X140528264Y-110518809D01*
X140528257Y-110518814D01*
X140353838Y-110613122D01*
X140306142Y-110645293D01*
X140257967Y-110676818D01*
X140251101Y-110682418D01*
X140251095Y-110682422D01*
X140251090Y-110682427D01*
X140098312Y-110808816D01*
X140057762Y-110849650D01*
X140016638Y-110889921D01*
X140010992Y-110896747D01*
X140010986Y-110896753D01*
X140010982Y-110896760D01*
X139885663Y-111050415D01*
X139853809Y-111098358D01*
X139821298Y-111145840D01*
X139817085Y-111153631D01*
X139817080Y-111153639D01*
X139817080Y-111153640D01*
X139723990Y-111328717D01*
X139702067Y-111381904D01*
X139679384Y-111434829D01*
X139676762Y-111443299D01*
X139619451Y-111633125D01*
X139608265Y-111689619D01*
X139596308Y-111745874D01*
X139595381Y-111754688D01*
X139595380Y-111754695D01*
X139595380Y-111754702D01*
X139576031Y-111952033D01*
X139576031Y-111952043D01*
X139573001Y-111982808D01*
X139573000Y-114268945D01*
X139562757Y-114373409D01*
X139541435Y-114444032D01*
X139506808Y-114509156D01*
X139460187Y-114566319D01*
X139403348Y-114613340D01*
X139338465Y-114648422D01*
X139267999Y-114670235D01*
X139165579Y-114681000D01*
X139095694Y-114681000D01*
X139126494Y-114664537D01*
X139223185Y-114585185D01*
X139302537Y-114488494D01*
X139361502Y-114378180D01*
X139397812Y-114258482D01*
X139410072Y-114134000D01*
X139407000Y-113569750D01*
X139248250Y-113411000D01*
X138049000Y-113411000D01*
X138049000Y-113431000D01*
X137795000Y-113431000D01*
X137795000Y-113411000D01*
X137775000Y-113411000D01*
X137775000Y-113157000D01*
X137795000Y-113157000D01*
X137795000Y-111957750D01*
X138049000Y-111957750D01*
X138049000Y-113157000D01*
X139248250Y-113157000D01*
X139407000Y-112998250D01*
X139410072Y-112434000D01*
X139397812Y-112309518D01*
X139361502Y-112189820D01*
X139302537Y-112079506D01*
X139223185Y-111982815D01*
X139126494Y-111903463D01*
X139016180Y-111844498D01*
X138896482Y-111808188D01*
X138772000Y-111795928D01*
X138207750Y-111799000D01*
X138049000Y-111957750D01*
X137795000Y-111957750D01*
X137636250Y-111799000D01*
X137072000Y-111795928D01*
X136947518Y-111808188D01*
X136827820Y-111844498D01*
X136717506Y-111903463D01*
X136620815Y-111982815D01*
X136541463Y-112079506D01*
X136482498Y-112189820D01*
X136461607Y-112258687D01*
X136437134Y-112228866D01*
X136211014Y-112043294D01*
X135953034Y-111905401D01*
X135673111Y-111820487D01*
X135454950Y-111799000D01*
X135309050Y-111799000D01*
X135090889Y-111820487D01*
X134810966Y-111905401D01*
X134552986Y-112043294D01*
X134326866Y-112228866D01*
X134141294Y-112454986D01*
X134112000Y-112509791D01*
X134082706Y-112454986D01*
X133897134Y-112228866D01*
X133671014Y-112043294D01*
X133413034Y-111905401D01*
X133133111Y-111820487D01*
X132914950Y-111799000D01*
X132769050Y-111799000D01*
X132550889Y-111820487D01*
X132270966Y-111905401D01*
X132012986Y-112043294D01*
X131786866Y-112228866D01*
X131601294Y-112454986D01*
X131463401Y-112712966D01*
X131378487Y-112992889D01*
X131349815Y-113284000D01*
X131378487Y-113575111D01*
X131463401Y-113855034D01*
X131601294Y-114113014D01*
X131786866Y-114339134D01*
X132012986Y-114524706D01*
X132270966Y-114662599D01*
X132331626Y-114681000D01*
X129571054Y-114681000D01*
X129466591Y-114670757D01*
X129395968Y-114649435D01*
X129330844Y-114614808D01*
X129273681Y-114568187D01*
X129226660Y-114511348D01*
X129191578Y-114446465D01*
X129169765Y-114375999D01*
X129159000Y-114273579D01*
X129159000Y-111982808D01*
X129156318Y-111955573D01*
X129156361Y-111949354D01*
X129155496Y-111940530D01*
X129134769Y-111743329D01*
X129123198Y-111686960D01*
X129112413Y-111630420D01*
X129109852Y-111621938D01*
X129109850Y-111621929D01*
X129109846Y-111621921D01*
X129051215Y-111432511D01*
X129028914Y-111379459D01*
X129007352Y-111326090D01*
X129003195Y-111318272D01*
X129003191Y-111318264D01*
X129003186Y-111318257D01*
X128908878Y-111143838D01*
X128876707Y-111096142D01*
X128845182Y-111047967D01*
X128839582Y-111041101D01*
X128839578Y-111041095D01*
X128839573Y-111041090D01*
X128713184Y-110888312D01*
X128672350Y-110847762D01*
X128667808Y-110843123D01*
X128769808Y-110812182D01*
X129019101Y-110678932D01*
X129237608Y-110499608D01*
X129416932Y-110281101D01*
X129550182Y-110031808D01*
X129632236Y-109761309D01*
X129659943Y-109480000D01*
X130376057Y-109480000D01*
X130403764Y-109761309D01*
X130485818Y-110031808D01*
X130619068Y-110281101D01*
X130798392Y-110499608D01*
X131016899Y-110678932D01*
X131266192Y-110812182D01*
X131536691Y-110894236D01*
X131747508Y-110915000D01*
X132288492Y-110915000D01*
X132499309Y-110894236D01*
X132769808Y-110812182D01*
X133019101Y-110678932D01*
X133237608Y-110499608D01*
X133416932Y-110281101D01*
X133550182Y-110031808D01*
X133632236Y-109761309D01*
X133659943Y-109480000D01*
X133632236Y-109198691D01*
X133550182Y-108928192D01*
X133416932Y-108678899D01*
X133237608Y-108460392D01*
X133019101Y-108281068D01*
X132769808Y-108147818D01*
X132499309Y-108065764D01*
X132288492Y-108045000D01*
X131747508Y-108045000D01*
X131536691Y-108065764D01*
X131266192Y-108147818D01*
X131016899Y-108281068D01*
X130798392Y-108460392D01*
X130619068Y-108678899D01*
X130485818Y-108928192D01*
X130403764Y-109198691D01*
X130376057Y-109480000D01*
X129659943Y-109480000D01*
X129632236Y-109198691D01*
X129550182Y-108928192D01*
X129416932Y-108678899D01*
X129237608Y-108460392D01*
X129019101Y-108281068D01*
X128769808Y-108147818D01*
X128499309Y-108065764D01*
X128288492Y-108045000D01*
X127747508Y-108045000D01*
X127536691Y-108065764D01*
X127266192Y-108147818D01*
X127016899Y-108281068D01*
X126798392Y-108460392D01*
X126619068Y-108678899D01*
X126518000Y-108867984D01*
X126416932Y-108678899D01*
X126237608Y-108460392D01*
X126019101Y-108281068D01*
X125769808Y-108147818D01*
X125499309Y-108065764D01*
X125288492Y-108045000D01*
X124747508Y-108045000D01*
X124536691Y-108065764D01*
X124266192Y-108147818D01*
X124016899Y-108281068D01*
X123798392Y-108460392D01*
X123619068Y-108678899D01*
X123485818Y-108928192D01*
X123403764Y-109198691D01*
X123376057Y-109480000D01*
X123403764Y-109761309D01*
X123485818Y-110031808D01*
X123619068Y-110281101D01*
X123686281Y-110363000D01*
X122967054Y-110363000D01*
X122862591Y-110352757D01*
X122791968Y-110331435D01*
X122726844Y-110296808D01*
X122669681Y-110250187D01*
X122622660Y-110193348D01*
X122587578Y-110128465D01*
X122565765Y-110057999D01*
X122555000Y-109955579D01*
X122555000Y-107751380D01*
X122614063Y-107839774D01*
X122758226Y-107983937D01*
X122927744Y-108097205D01*
X123116102Y-108175226D01*
X123316061Y-108215000D01*
X123519939Y-108215000D01*
X123719898Y-108175226D01*
X123908256Y-108097205D01*
X124077774Y-107983937D01*
X124221937Y-107839774D01*
X124335205Y-107670256D01*
X124413226Y-107481898D01*
X124453000Y-107281939D01*
X124453000Y-107078061D01*
X129383000Y-107078061D01*
X129383000Y-107281939D01*
X129422774Y-107481898D01*
X129500795Y-107670256D01*
X129614063Y-107839774D01*
X129758226Y-107983937D01*
X129927744Y-108097205D01*
X130116102Y-108175226D01*
X130316061Y-108215000D01*
X130519939Y-108215000D01*
X130719898Y-108175226D01*
X130908256Y-108097205D01*
X131077774Y-107983937D01*
X131221937Y-107839774D01*
X131335205Y-107670256D01*
X131413226Y-107481898D01*
X131453000Y-107281939D01*
X131453000Y-107078061D01*
X131413226Y-106878102D01*
X131335205Y-106689744D01*
X131221937Y-106520226D01*
X131077774Y-106376063D01*
X130908256Y-106262795D01*
X130719898Y-106184774D01*
X130519939Y-106145000D01*
X130316061Y-106145000D01*
X130116102Y-106184774D01*
X129927744Y-106262795D01*
X129758226Y-106376063D01*
X129614063Y-106520226D01*
X129500795Y-106689744D01*
X129422774Y-106878102D01*
X129383000Y-107078061D01*
X124453000Y-107078061D01*
X124413226Y-106878102D01*
X124335205Y-106689744D01*
X124221937Y-106520226D01*
X124077774Y-106376063D01*
X123908256Y-106262795D01*
X123719898Y-106184774D01*
X123519939Y-106145000D01*
X123316061Y-106145000D01*
X123116102Y-106184774D01*
X122927744Y-106262795D01*
X122758226Y-106376063D01*
X122614063Y-106520226D01*
X122555000Y-106608620D01*
X122555000Y-105229039D01*
X131526096Y-105229039D01*
X131536556Y-105286730D01*
X131642449Y-105548421D01*
X131797361Y-105784425D01*
X131995338Y-105985673D01*
X132228773Y-106144430D01*
X132488694Y-106254596D01*
X132765113Y-106311937D01*
X132991000Y-106159474D01*
X132991000Y-105007000D01*
X133245000Y-105007000D01*
X133245000Y-106159474D01*
X133470887Y-106311937D01*
X133747306Y-106254596D01*
X134007227Y-106144430D01*
X134240662Y-105985673D01*
X134438639Y-105784425D01*
X134593551Y-105548421D01*
X134699444Y-105286730D01*
X134709904Y-105229039D01*
X134587915Y-105007000D01*
X133245000Y-105007000D01*
X132991000Y-105007000D01*
X131648085Y-105007000D01*
X131526096Y-105229039D01*
X122555000Y-105229039D01*
X122555000Y-104530961D01*
X131526096Y-104530961D01*
X131648085Y-104753000D01*
X132991000Y-104753000D01*
X132991000Y-103600526D01*
X133245000Y-103600526D01*
X133245000Y-104753000D01*
X134587915Y-104753000D01*
X134709904Y-104530961D01*
X134699444Y-104473270D01*
X134593551Y-104211579D01*
X134438639Y-103975575D01*
X134240662Y-103774327D01*
X134007227Y-103615570D01*
X133747306Y-103505404D01*
X133470887Y-103448063D01*
X133245000Y-103600526D01*
X132991000Y-103600526D01*
X132765113Y-103448063D01*
X132488694Y-103505404D01*
X132228773Y-103615570D01*
X131995338Y-103774327D01*
X131797361Y-103975575D01*
X131642449Y-104211579D01*
X131536556Y-104473270D01*
X131526096Y-104530961D01*
X122555000Y-104530961D01*
X122555000Y-103409055D01*
X122565243Y-103304591D01*
X122586565Y-103233968D01*
X122621193Y-103168842D01*
X122667812Y-103111682D01*
X122724653Y-103064660D01*
X122789538Y-103029577D01*
X122860002Y-103007765D01*
X122962421Y-102997000D01*
X164814945Y-102997000D01*
X164919409Y-103007243D01*
M02*
