G04 #@! TF.GenerationSoftware,KiCad,Pcbnew,5.1.0-unknown-e90452d~82~ubuntu16.04.1*
G04 #@! TF.CreationDate,2019-04-11T13:30:45-04:00*
G04 #@! TF.ProjectId,dual_touch_sensor_trrs_pcb,6475616c-5f74-46f7-9563-685f73656e73,1.0*
G04 #@! TF.SameCoordinates,Original*
G04 #@! TF.FileFunction,Legend,Bot*
G04 #@! TF.FilePolarity,Positive*
%FSLAX46Y46*%
G04 Gerber Fmt 4.6, Leading zero omitted, Abs format (unit mm)*
G04 Created by KiCad (PCBNEW 5.1.0-unknown-e90452d~82~ubuntu16.04.1) date 2019-04-11 13:30:45*
%MOMM*%
%LPD*%
G04 APERTURE LIST*
%ADD10C,0.150000*%
G04 APERTURE END LIST*
D10*
X156962666Y-109926380D02*
X156962666Y-108926380D01*
X156724571Y-108926380D01*
X156581714Y-108974000D01*
X156486476Y-109069238D01*
X156438857Y-109164476D01*
X156391238Y-109354952D01*
X156391238Y-109497809D01*
X156438857Y-109688285D01*
X156486476Y-109783523D01*
X156581714Y-109878761D01*
X156724571Y-109926380D01*
X156962666Y-109926380D01*
X155534095Y-109259714D02*
X155534095Y-109926380D01*
X155962666Y-109259714D02*
X155962666Y-109783523D01*
X155915047Y-109878761D01*
X155819809Y-109926380D01*
X155676952Y-109926380D01*
X155581714Y-109878761D01*
X155534095Y-109831142D01*
X154629333Y-109926380D02*
X154629333Y-109402571D01*
X154676952Y-109307333D01*
X154772190Y-109259714D01*
X154962666Y-109259714D01*
X155057904Y-109307333D01*
X154629333Y-109878761D02*
X154724571Y-109926380D01*
X154962666Y-109926380D01*
X155057904Y-109878761D01*
X155105523Y-109783523D01*
X155105523Y-109688285D01*
X155057904Y-109593047D01*
X154962666Y-109545428D01*
X154724571Y-109545428D01*
X154629333Y-109497809D01*
X154010285Y-109926380D02*
X154105523Y-109878761D01*
X154153142Y-109783523D01*
X154153142Y-108926380D01*
X152296000Y-109831142D02*
X152343619Y-109878761D01*
X152486476Y-109926380D01*
X152581714Y-109926380D01*
X152724571Y-109878761D01*
X152819809Y-109783523D01*
X152867428Y-109688285D01*
X152915047Y-109497809D01*
X152915047Y-109354952D01*
X152867428Y-109164476D01*
X152819809Y-109069238D01*
X152724571Y-108974000D01*
X152581714Y-108926380D01*
X152486476Y-108926380D01*
X152343619Y-108974000D01*
X152296000Y-109021619D01*
X151438857Y-109926380D02*
X151438857Y-109402571D01*
X151486476Y-109307333D01*
X151581714Y-109259714D01*
X151772190Y-109259714D01*
X151867428Y-109307333D01*
X151438857Y-109878761D02*
X151534095Y-109926380D01*
X151772190Y-109926380D01*
X151867428Y-109878761D01*
X151915047Y-109783523D01*
X151915047Y-109688285D01*
X151867428Y-109593047D01*
X151772190Y-109545428D01*
X151534095Y-109545428D01*
X151438857Y-109497809D01*
X151105523Y-109259714D02*
X150724571Y-109259714D01*
X150962666Y-108926380D02*
X150962666Y-109783523D01*
X150915047Y-109878761D01*
X150819809Y-109926380D01*
X150724571Y-109926380D01*
X149962666Y-109926380D02*
X149962666Y-109402571D01*
X150010285Y-109307333D01*
X150105523Y-109259714D01*
X150296000Y-109259714D01*
X150391238Y-109307333D01*
X149962666Y-109878761D02*
X150057904Y-109926380D01*
X150296000Y-109926380D01*
X150391238Y-109878761D01*
X150438857Y-109783523D01*
X150438857Y-109688285D01*
X150391238Y-109593047D01*
X150296000Y-109545428D01*
X150057904Y-109545428D01*
X149962666Y-109497809D01*
X149343619Y-109926380D02*
X149438857Y-109878761D01*
X149486476Y-109783523D01*
X149486476Y-108926380D01*
X148581714Y-109878761D02*
X148676952Y-109926380D01*
X148867428Y-109926380D01*
X148962666Y-109878761D01*
X149010285Y-109783523D01*
X149010285Y-109402571D01*
X148962666Y-109307333D01*
X148867428Y-109259714D01*
X148676952Y-109259714D01*
X148581714Y-109307333D01*
X148534095Y-109402571D01*
X148534095Y-109497809D01*
X149010285Y-109593047D01*
X148200761Y-109926380D02*
X147676952Y-109259714D01*
X148200761Y-109259714D02*
X147676952Y-109926380D01*
X146581714Y-109640666D02*
X146105523Y-109640666D01*
X146676952Y-109926380D02*
X146343619Y-108926380D01*
X146010285Y-109926380D01*
X145248380Y-109926380D02*
X145248380Y-108926380D01*
X145248380Y-109878761D02*
X145343619Y-109926380D01*
X145534095Y-109926380D01*
X145629333Y-109878761D01*
X145676952Y-109831142D01*
X145724571Y-109735904D01*
X145724571Y-109450190D01*
X145676952Y-109354952D01*
X145629333Y-109307333D01*
X145534095Y-109259714D01*
X145343619Y-109259714D01*
X145248380Y-109307333D01*
X144343619Y-109926380D02*
X144343619Y-109402571D01*
X144391238Y-109307333D01*
X144486476Y-109259714D01*
X144676952Y-109259714D01*
X144772190Y-109307333D01*
X144343619Y-109878761D02*
X144438857Y-109926380D01*
X144676952Y-109926380D01*
X144772190Y-109878761D01*
X144819809Y-109783523D01*
X144819809Y-109688285D01*
X144772190Y-109593047D01*
X144676952Y-109545428D01*
X144438857Y-109545428D01*
X144343619Y-109497809D01*
X143867428Y-109259714D02*
X143867428Y-110259714D01*
X143867428Y-109307333D02*
X143772190Y-109259714D01*
X143581714Y-109259714D01*
X143486476Y-109307333D01*
X143438857Y-109354952D01*
X143391238Y-109450190D01*
X143391238Y-109735904D01*
X143438857Y-109831142D01*
X143486476Y-109878761D01*
X143581714Y-109926380D01*
X143772190Y-109926380D01*
X143867428Y-109878761D01*
X143105523Y-109259714D02*
X142724571Y-109259714D01*
X142962666Y-108926380D02*
X142962666Y-109783523D01*
X142915047Y-109878761D01*
X142819809Y-109926380D01*
X142724571Y-109926380D01*
X142248380Y-109926380D02*
X142343619Y-109878761D01*
X142391238Y-109831142D01*
X142438857Y-109735904D01*
X142438857Y-109450190D01*
X142391238Y-109354952D01*
X142343619Y-109307333D01*
X142248380Y-109259714D01*
X142105523Y-109259714D01*
X142010285Y-109307333D01*
X141962666Y-109354952D01*
X141915047Y-109450190D01*
X141915047Y-109735904D01*
X141962666Y-109831142D01*
X142010285Y-109878761D01*
X142105523Y-109926380D01*
X142248380Y-109926380D01*
X141486476Y-109926380D02*
X141486476Y-109259714D01*
X141486476Y-109450190D02*
X141438857Y-109354952D01*
X141391238Y-109307333D01*
X141296000Y-109259714D01*
X141200761Y-109259714D01*
X140248380Y-108926380D02*
X139915047Y-109926380D01*
X139581714Y-108926380D01*
X138867428Y-109878761D02*
X138962666Y-109926380D01*
X139153142Y-109926380D01*
X139248380Y-109878761D01*
X139296000Y-109783523D01*
X139296000Y-109402571D01*
X139248380Y-109307333D01*
X139153142Y-109259714D01*
X138962666Y-109259714D01*
X138867428Y-109307333D01*
X138819809Y-109402571D01*
X138819809Y-109497809D01*
X139296000Y-109593047D01*
X138391238Y-109926380D02*
X138391238Y-109259714D01*
X138391238Y-109450190D02*
X138343619Y-109354952D01*
X138296000Y-109307333D01*
X138200761Y-109259714D01*
X138105523Y-109259714D01*
X137772190Y-109831142D02*
X137724571Y-109878761D01*
X137772190Y-109926380D01*
X137819809Y-109878761D01*
X137772190Y-109831142D01*
X137772190Y-109926380D01*
X136010285Y-109926380D02*
X136581714Y-109926380D01*
X136296000Y-109926380D02*
X136296000Y-108926380D01*
X136391238Y-109069238D01*
X136486476Y-109164476D01*
X136581714Y-109212095D01*
X135581714Y-109831142D02*
X135534095Y-109878761D01*
X135581714Y-109926380D01*
X135629333Y-109878761D01*
X135581714Y-109831142D01*
X135581714Y-109926380D01*
X134915047Y-108926380D02*
X134819809Y-108926380D01*
X134724571Y-108974000D01*
X134676952Y-109021619D01*
X134629333Y-109116857D01*
X134581714Y-109307333D01*
X134581714Y-109545428D01*
X134629333Y-109735904D01*
X134676952Y-109831142D01*
X134724571Y-109878761D01*
X134819809Y-109926380D01*
X134915047Y-109926380D01*
X135010285Y-109878761D01*
X135057904Y-109831142D01*
X135105523Y-109735904D01*
X135153142Y-109545428D01*
X135153142Y-109307333D01*
X135105523Y-109116857D01*
X135057904Y-109021619D01*
X135010285Y-108974000D01*
X134915047Y-108926380D01*
X119818000Y-109980000D02*
X119818000Y-104380000D01*
X121818000Y-104380000D02*
X119818000Y-104380000D01*
X121818000Y-109980000D02*
X119818000Y-109980000D01*
X121818000Y-104130000D02*
X133918000Y-104130000D01*
X121818000Y-110230000D02*
X133918000Y-110230000D01*
X133918000Y-110230000D02*
X133918000Y-104130000D01*
X121818000Y-110230000D02*
X121818000Y-104130000D01*
X130127333Y-110704380D02*
X130127333Y-111418666D01*
X130174952Y-111561523D01*
X130270190Y-111656761D01*
X130413047Y-111704380D01*
X130508285Y-111704380D01*
X129127333Y-111704380D02*
X129698761Y-111704380D01*
X129413047Y-111704380D02*
X129413047Y-110704380D01*
X129508285Y-110847238D01*
X129603523Y-110942476D01*
X129698761Y-110990095D01*
M02*
