G04 #@! TF.GenerationSoftware,KiCad,Pcbnew,5.1.2-f72e74a~84~ubuntu16.04.1*
G04 #@! TF.CreationDate,2019-05-05T12:52:43-04:00*
G04 #@! TF.ProjectId,hw_504_joystick_trrs_pcb,68775f35-3034-45f6-9a6f-79737469636b,1.0*
G04 #@! TF.SameCoordinates,Original*
G04 #@! TF.FileFunction,Legend,Top*
G04 #@! TF.FilePolarity,Positive*
%FSLAX46Y46*%
G04 Gerber Fmt 4.6, Leading zero omitted, Abs format (unit mm)*
G04 Created by KiCad (PCBNEW 5.1.2-f72e74a~84~ubuntu16.04.1) date 2019-05-05 12:52:43*
%MOMM*%
%LPD*%
G04 APERTURE LIST*
%ADD10C,0.150000*%
%ADD11C,0.120000*%
G04 APERTURE END LIST*
D10*
X152819428Y-97476904D02*
X152819428Y-96676904D01*
X152819428Y-97057857D02*
X153276571Y-97057857D01*
X153276571Y-97476904D02*
X153276571Y-96676904D01*
X153581333Y-96676904D02*
X153771809Y-97476904D01*
X153924190Y-96905476D01*
X154076571Y-97476904D01*
X154267047Y-96676904D01*
X154571809Y-97172142D02*
X155181333Y-97172142D01*
X155943238Y-96676904D02*
X155562285Y-96676904D01*
X155524190Y-97057857D01*
X155562285Y-97019761D01*
X155638476Y-96981666D01*
X155828952Y-96981666D01*
X155905142Y-97019761D01*
X155943238Y-97057857D01*
X155981333Y-97134047D01*
X155981333Y-97324523D01*
X155943238Y-97400714D01*
X155905142Y-97438809D01*
X155828952Y-97476904D01*
X155638476Y-97476904D01*
X155562285Y-97438809D01*
X155524190Y-97400714D01*
X156476571Y-96676904D02*
X156552761Y-96676904D01*
X156628952Y-96715000D01*
X156667047Y-96753095D01*
X156705142Y-96829285D01*
X156743238Y-96981666D01*
X156743238Y-97172142D01*
X156705142Y-97324523D01*
X156667047Y-97400714D01*
X156628952Y-97438809D01*
X156552761Y-97476904D01*
X156476571Y-97476904D01*
X156400380Y-97438809D01*
X156362285Y-97400714D01*
X156324190Y-97324523D01*
X156286095Y-97172142D01*
X156286095Y-96981666D01*
X156324190Y-96829285D01*
X156362285Y-96753095D01*
X156400380Y-96715000D01*
X156476571Y-96676904D01*
X157428952Y-96943571D02*
X157428952Y-97476904D01*
X157238476Y-96638809D02*
X157048000Y-97210238D01*
X157543238Y-97210238D01*
X150648000Y-98598333D02*
X151028952Y-98598333D01*
X150571809Y-98826904D02*
X150838476Y-98026904D01*
X151105142Y-98826904D01*
X151714666Y-98826904D02*
X151714666Y-98026904D01*
X151714666Y-98788809D02*
X151638476Y-98826904D01*
X151486095Y-98826904D01*
X151409904Y-98788809D01*
X151371809Y-98750714D01*
X151333714Y-98674523D01*
X151333714Y-98445952D01*
X151371809Y-98369761D01*
X151409904Y-98331666D01*
X151486095Y-98293571D01*
X151638476Y-98293571D01*
X151714666Y-98331666D01*
X152438476Y-98826904D02*
X152438476Y-98407857D01*
X152400380Y-98331666D01*
X152324190Y-98293571D01*
X152171809Y-98293571D01*
X152095619Y-98331666D01*
X152438476Y-98788809D02*
X152362285Y-98826904D01*
X152171809Y-98826904D01*
X152095619Y-98788809D01*
X152057523Y-98712619D01*
X152057523Y-98636428D01*
X152095619Y-98560238D01*
X152171809Y-98522142D01*
X152362285Y-98522142D01*
X152438476Y-98484047D01*
X152819428Y-98293571D02*
X152819428Y-99093571D01*
X152819428Y-98331666D02*
X152895619Y-98293571D01*
X153048000Y-98293571D01*
X153124190Y-98331666D01*
X153162285Y-98369761D01*
X153200380Y-98445952D01*
X153200380Y-98674523D01*
X153162285Y-98750714D01*
X153124190Y-98788809D01*
X153048000Y-98826904D01*
X152895619Y-98826904D01*
X152819428Y-98788809D01*
X153428952Y-98293571D02*
X153733714Y-98293571D01*
X153543238Y-98026904D02*
X153543238Y-98712619D01*
X153581333Y-98788809D01*
X153657523Y-98826904D01*
X153733714Y-98826904D01*
X154114666Y-98826904D02*
X154038476Y-98788809D01*
X154000380Y-98750714D01*
X153962285Y-98674523D01*
X153962285Y-98445952D01*
X154000380Y-98369761D01*
X154038476Y-98331666D01*
X154114666Y-98293571D01*
X154228952Y-98293571D01*
X154305142Y-98331666D01*
X154343238Y-98369761D01*
X154381333Y-98445952D01*
X154381333Y-98674523D01*
X154343238Y-98750714D01*
X154305142Y-98788809D01*
X154228952Y-98826904D01*
X154114666Y-98826904D01*
X154724190Y-98826904D02*
X154724190Y-98293571D01*
X154724190Y-98445952D02*
X154762285Y-98369761D01*
X154800380Y-98331666D01*
X154876571Y-98293571D01*
X154952761Y-98293571D01*
X155714666Y-98026904D02*
X155981333Y-98826904D01*
X156248000Y-98026904D01*
X156819428Y-98788809D02*
X156743238Y-98826904D01*
X156590857Y-98826904D01*
X156514666Y-98788809D01*
X156476571Y-98712619D01*
X156476571Y-98407857D01*
X156514666Y-98331666D01*
X156590857Y-98293571D01*
X156743238Y-98293571D01*
X156819428Y-98331666D01*
X156857523Y-98407857D01*
X156857523Y-98484047D01*
X156476571Y-98560238D01*
X157200380Y-98826904D02*
X157200380Y-98293571D01*
X157200380Y-98445952D02*
X157238476Y-98369761D01*
X157276571Y-98331666D01*
X157352761Y-98293571D01*
X157428952Y-98293571D01*
X157695619Y-98750714D02*
X157733714Y-98788809D01*
X157695619Y-98826904D01*
X157657523Y-98788809D01*
X157695619Y-98750714D01*
X157695619Y-98826904D01*
X159105142Y-98826904D02*
X158648000Y-98826904D01*
X158876571Y-98826904D02*
X158876571Y-98026904D01*
X158800380Y-98141190D01*
X158724190Y-98217380D01*
X158648000Y-98255476D01*
X159448000Y-98750714D02*
X159486095Y-98788809D01*
X159448000Y-98826904D01*
X159409904Y-98788809D01*
X159448000Y-98750714D01*
X159448000Y-98826904D01*
X159981333Y-98026904D02*
X160057523Y-98026904D01*
X160133714Y-98065000D01*
X160171809Y-98103095D01*
X160209904Y-98179285D01*
X160248000Y-98331666D01*
X160248000Y-98522142D01*
X160209904Y-98674523D01*
X160171809Y-98750714D01*
X160133714Y-98788809D01*
X160057523Y-98826904D01*
X159981333Y-98826904D01*
X159905142Y-98788809D01*
X159867047Y-98750714D01*
X159828952Y-98674523D01*
X159790857Y-98522142D01*
X159790857Y-98331666D01*
X159828952Y-98179285D01*
X159867047Y-98103095D01*
X159905142Y-98065000D01*
X159981333Y-98026904D01*
X137318857Y-90320761D02*
X137461714Y-90368380D01*
X137699809Y-90368380D01*
X137795047Y-90320761D01*
X137842666Y-90273142D01*
X137890285Y-90177904D01*
X137890285Y-90082666D01*
X137842666Y-89987428D01*
X137795047Y-89939809D01*
X137699809Y-89892190D01*
X137509333Y-89844571D01*
X137414095Y-89796952D01*
X137366476Y-89749333D01*
X137318857Y-89654095D01*
X137318857Y-89558857D01*
X137366476Y-89463619D01*
X137414095Y-89416000D01*
X137509333Y-89368380D01*
X137747428Y-89368380D01*
X137890285Y-89416000D01*
X138223619Y-89368380D02*
X138461714Y-90368380D01*
X138652190Y-89654095D01*
X138842666Y-90368380D01*
X139080761Y-89368380D01*
X140001714Y-89368380D02*
X140335047Y-90368380D01*
X140668380Y-89368380D01*
X140906476Y-89701714D02*
X141144571Y-90368380D01*
X141382666Y-89701714D02*
X141144571Y-90368380D01*
X141049333Y-90606476D01*
X141001714Y-90654095D01*
X140906476Y-90701714D01*
X142517904Y-89368380D02*
X142851238Y-90368380D01*
X143184571Y-89368380D01*
X143422666Y-90368380D02*
X143946476Y-89701714D01*
X143422666Y-89701714D02*
X143946476Y-90368380D01*
X144605523Y-89368380D02*
X144938857Y-90368380D01*
X145272190Y-89368380D01*
X146034095Y-90320761D02*
X145938857Y-90368380D01*
X145748380Y-90368380D01*
X145653142Y-90320761D01*
X145605523Y-90273142D01*
X145557904Y-90177904D01*
X145557904Y-89892190D01*
X145605523Y-89796952D01*
X145653142Y-89749333D01*
X145748380Y-89701714D01*
X145938857Y-89701714D01*
X146034095Y-89749333D01*
X146891238Y-90320761D02*
X146796000Y-90368380D01*
X146605523Y-90368380D01*
X146510285Y-90320761D01*
X146462666Y-90273142D01*
X146415047Y-90177904D01*
X146415047Y-89892190D01*
X146462666Y-89796952D01*
X146510285Y-89749333D01*
X146605523Y-89701714D01*
X146796000Y-89701714D01*
X146891238Y-89749333D01*
X147947142Y-89416000D02*
X147851904Y-89368380D01*
X147709047Y-89368380D01*
X147566190Y-89416000D01*
X147470952Y-89511238D01*
X147423333Y-89606476D01*
X147375714Y-89796952D01*
X147375714Y-89939809D01*
X147423333Y-90130285D01*
X147470952Y-90225523D01*
X147566190Y-90320761D01*
X147709047Y-90368380D01*
X147804285Y-90368380D01*
X147947142Y-90320761D01*
X147994761Y-90273142D01*
X147994761Y-89939809D01*
X147804285Y-89939809D01*
X148423333Y-89701714D02*
X148423333Y-90368380D01*
X148423333Y-89796952D02*
X148470952Y-89749333D01*
X148566190Y-89701714D01*
X148709047Y-89701714D01*
X148804285Y-89749333D01*
X148851904Y-89844571D01*
X148851904Y-90368380D01*
X149756666Y-90368380D02*
X149756666Y-89368380D01*
X149756666Y-90320761D02*
X149661428Y-90368380D01*
X149470952Y-90368380D01*
X149375714Y-90320761D01*
X149328095Y-90273142D01*
X149280476Y-90177904D01*
X149280476Y-89892190D01*
X149328095Y-89796952D01*
X149375714Y-89749333D01*
X149470952Y-89701714D01*
X149661428Y-89701714D01*
X149756666Y-89749333D01*
D11*
X149666000Y-90872000D02*
X149666000Y-92202000D01*
X148336000Y-90872000D02*
X149666000Y-90872000D01*
X147066000Y-90872000D02*
X147066000Y-93532000D01*
X147066000Y-93532000D02*
X136846000Y-93532000D01*
X147066000Y-90872000D02*
X136846000Y-90872000D01*
X136846000Y-90872000D02*
X136846000Y-93532000D01*
D10*
X150118380Y-92535333D02*
X150832666Y-92535333D01*
X150975523Y-92582952D01*
X151070761Y-92678190D01*
X151118380Y-92821047D01*
X151118380Y-92916285D01*
X150213619Y-92106761D02*
X150166000Y-92059142D01*
X150118380Y-91963904D01*
X150118380Y-91725809D01*
X150166000Y-91630571D01*
X150213619Y-91582952D01*
X150308857Y-91535333D01*
X150404095Y-91535333D01*
X150546952Y-91582952D01*
X151118380Y-92154380D01*
X151118380Y-91535333D01*
M02*
