G04 #@! TF.GenerationSoftware,KiCad,Pcbnew,5.1.2-f72e74a~84~ubuntu16.04.1*
G04 #@! TF.CreationDate,2019-05-05T12:52:43-04:00*
G04 #@! TF.ProjectId,hw_504_joystick_trrs_pcb,68775f35-3034-45f6-9a6f-79737469636b,1.0*
G04 #@! TF.SameCoordinates,Original*
G04 #@! TF.FileFunction,Copper,L2,Bot*
G04 #@! TF.FilePolarity,Positive*
%FSLAX46Y46*%
G04 Gerber Fmt 4.6, Leading zero omitted, Abs format (unit mm)*
G04 Created by KiCad (PCBNEW 5.1.2-f72e74a~84~ubuntu16.04.1) date 2019-05-05 12:52:43*
%MOMM*%
%LPD*%
G04 APERTURE LIST*
%ADD10O,1.700000X1.700000*%
%ADD11R,1.700000X1.700000*%
%ADD12O,2.000000X1.600000*%
%ADD13C,0.250000*%
%ADD14C,0.254000*%
G04 APERTURE END LIST*
D10*
X138176000Y-92202000D03*
X140716000Y-92202000D03*
X143256000Y-92202000D03*
X145796000Y-92202000D03*
D11*
X148336000Y-92202000D03*
D12*
X149330000Y-99590000D03*
X150430000Y-94990000D03*
X157430000Y-94990000D03*
X154430000Y-94990000D03*
D13*
X150430000Y-94550000D02*
X150430000Y-94990000D01*
X141291919Y-93980000D02*
X147828000Y-93980000D01*
X148590000Y-96520000D02*
X149098000Y-97028000D01*
X147828000Y-93980000D02*
X148590000Y-94742000D01*
X140716000Y-92202000D02*
X140716000Y-93404081D01*
X140716000Y-93404081D02*
X141291919Y-93980000D01*
X148590000Y-94742000D02*
X148590000Y-96520000D01*
X149098000Y-97028000D02*
X150876000Y-97028000D01*
X150876000Y-97028000D02*
X151892000Y-96012000D01*
X154430000Y-95607600D02*
X154430000Y-94990000D01*
X151892000Y-96012000D02*
X154025600Y-96012000D01*
X154025600Y-96012000D02*
X154430000Y-95607600D01*
D14*
G36*
X152976533Y-89823885D02*
G01*
X153042457Y-89843789D01*
X153103255Y-89876115D01*
X153156619Y-89919639D01*
X153200512Y-89972696D01*
X153233266Y-90033271D01*
X153253628Y-90099053D01*
X153264001Y-90197740D01*
X153264000Y-92488418D01*
X153266784Y-92516690D01*
X153266741Y-92522911D01*
X153267641Y-92532083D01*
X153288368Y-92729284D01*
X153300387Y-92787834D01*
X153311604Y-92846639D01*
X153314268Y-92855461D01*
X153372903Y-93044882D01*
X153396076Y-93100009D01*
X153418493Y-93155492D01*
X153422819Y-93163629D01*
X153517130Y-93338052D01*
X153550575Y-93387636D01*
X153583335Y-93437699D01*
X153589159Y-93444840D01*
X153715554Y-93597624D01*
X153753244Y-93635052D01*
X153678192Y-93657818D01*
X153428899Y-93791068D01*
X153210392Y-93970392D01*
X153031068Y-94188899D01*
X152897818Y-94438192D01*
X152815764Y-94708691D01*
X152788057Y-94990000D01*
X152813862Y-95252000D01*
X151974084Y-95252000D01*
X151899915Y-95117000D01*
X150557000Y-95117000D01*
X150557000Y-95137000D01*
X150303000Y-95137000D01*
X150303000Y-95117000D01*
X150283000Y-95117000D01*
X150283000Y-94863000D01*
X150303000Y-94863000D01*
X150303000Y-93710526D01*
X150557000Y-93710526D01*
X150557000Y-94863000D01*
X151899915Y-94863000D01*
X152021904Y-94640961D01*
X152011444Y-94583270D01*
X151905551Y-94321579D01*
X151750639Y-94085575D01*
X151552662Y-93884327D01*
X151319227Y-93725570D01*
X151059306Y-93615404D01*
X150782887Y-93558063D01*
X150557000Y-93710526D01*
X150303000Y-93710526D01*
X150077113Y-93558063D01*
X149800694Y-93615404D01*
X149540773Y-93725570D01*
X149307338Y-93884327D01*
X149109361Y-94085575D01*
X149069343Y-94146541D01*
X148612873Y-93690072D01*
X149186000Y-93690072D01*
X149310482Y-93677812D01*
X149430180Y-93641502D01*
X149540494Y-93582537D01*
X149637185Y-93503185D01*
X149716537Y-93406494D01*
X149775502Y-93296180D01*
X149811812Y-93176482D01*
X149824072Y-93052000D01*
X149824072Y-91352000D01*
X149811812Y-91227518D01*
X149775502Y-91107820D01*
X149716537Y-90997506D01*
X149637185Y-90900815D01*
X149540494Y-90821463D01*
X149430180Y-90762498D01*
X149310482Y-90726188D01*
X149186000Y-90713928D01*
X147486000Y-90713928D01*
X147361518Y-90726188D01*
X147241820Y-90762498D01*
X147131506Y-90821463D01*
X147034815Y-90900815D01*
X146955463Y-90997506D01*
X146896498Y-91107820D01*
X146872034Y-91188466D01*
X146796269Y-91104412D01*
X146562920Y-90930359D01*
X146300099Y-90805175D01*
X146152890Y-90760524D01*
X145923000Y-90881845D01*
X145923000Y-92075000D01*
X145943000Y-92075000D01*
X145943000Y-92329000D01*
X145923000Y-92329000D01*
X145923000Y-92349000D01*
X145669000Y-92349000D01*
X145669000Y-92329000D01*
X145649000Y-92329000D01*
X145649000Y-92075000D01*
X145669000Y-92075000D01*
X145669000Y-90881845D01*
X145439110Y-90760524D01*
X145291901Y-90805175D01*
X145029080Y-90930359D01*
X144795731Y-91104412D01*
X144600822Y-91320645D01*
X144531201Y-91437523D01*
X144496706Y-91372986D01*
X144311134Y-91146866D01*
X144085014Y-90961294D01*
X143827034Y-90823401D01*
X143547111Y-90738487D01*
X143328950Y-90717000D01*
X143183050Y-90717000D01*
X142964889Y-90738487D01*
X142684966Y-90823401D01*
X142426986Y-90961294D01*
X142200866Y-91146866D01*
X142015294Y-91372986D01*
X141986000Y-91427791D01*
X141956706Y-91372986D01*
X141771134Y-91146866D01*
X141545014Y-90961294D01*
X141287034Y-90823401D01*
X141007111Y-90738487D01*
X140788950Y-90717000D01*
X140643050Y-90717000D01*
X140424889Y-90738487D01*
X140144966Y-90823401D01*
X139886986Y-90961294D01*
X139660866Y-91146866D01*
X139475294Y-91372986D01*
X139446000Y-91427791D01*
X139416706Y-91372986D01*
X139231134Y-91146866D01*
X139005014Y-90961294D01*
X138747034Y-90823401D01*
X138467111Y-90738487D01*
X138248950Y-90717000D01*
X138103050Y-90717000D01*
X137884889Y-90738487D01*
X137604966Y-90823401D01*
X137346986Y-90961294D01*
X137120866Y-91146866D01*
X136935294Y-91372986D01*
X136804000Y-91618620D01*
X136804000Y-90202281D01*
X136813885Y-90101467D01*
X136833789Y-90035543D01*
X136866115Y-89974745D01*
X136909639Y-89921381D01*
X136962696Y-89877488D01*
X137023271Y-89844734D01*
X137089053Y-89824372D01*
X137187730Y-89814000D01*
X152875719Y-89814000D01*
X152976533Y-89823885D01*
X152976533Y-89823885D01*
G37*
X152976533Y-89823885D02*
X153042457Y-89843789D01*
X153103255Y-89876115D01*
X153156619Y-89919639D01*
X153200512Y-89972696D01*
X153233266Y-90033271D01*
X153253628Y-90099053D01*
X153264001Y-90197740D01*
X153264000Y-92488418D01*
X153266784Y-92516690D01*
X153266741Y-92522911D01*
X153267641Y-92532083D01*
X153288368Y-92729284D01*
X153300387Y-92787834D01*
X153311604Y-92846639D01*
X153314268Y-92855461D01*
X153372903Y-93044882D01*
X153396076Y-93100009D01*
X153418493Y-93155492D01*
X153422819Y-93163629D01*
X153517130Y-93338052D01*
X153550575Y-93387636D01*
X153583335Y-93437699D01*
X153589159Y-93444840D01*
X153715554Y-93597624D01*
X153753244Y-93635052D01*
X153678192Y-93657818D01*
X153428899Y-93791068D01*
X153210392Y-93970392D01*
X153031068Y-94188899D01*
X152897818Y-94438192D01*
X152815764Y-94708691D01*
X152788057Y-94990000D01*
X152813862Y-95252000D01*
X151974084Y-95252000D01*
X151899915Y-95117000D01*
X150557000Y-95117000D01*
X150557000Y-95137000D01*
X150303000Y-95137000D01*
X150303000Y-95117000D01*
X150283000Y-95117000D01*
X150283000Y-94863000D01*
X150303000Y-94863000D01*
X150303000Y-93710526D01*
X150557000Y-93710526D01*
X150557000Y-94863000D01*
X151899915Y-94863000D01*
X152021904Y-94640961D01*
X152011444Y-94583270D01*
X151905551Y-94321579D01*
X151750639Y-94085575D01*
X151552662Y-93884327D01*
X151319227Y-93725570D01*
X151059306Y-93615404D01*
X150782887Y-93558063D01*
X150557000Y-93710526D01*
X150303000Y-93710526D01*
X150077113Y-93558063D01*
X149800694Y-93615404D01*
X149540773Y-93725570D01*
X149307338Y-93884327D01*
X149109361Y-94085575D01*
X149069343Y-94146541D01*
X148612873Y-93690072D01*
X149186000Y-93690072D01*
X149310482Y-93677812D01*
X149430180Y-93641502D01*
X149540494Y-93582537D01*
X149637185Y-93503185D01*
X149716537Y-93406494D01*
X149775502Y-93296180D01*
X149811812Y-93176482D01*
X149824072Y-93052000D01*
X149824072Y-91352000D01*
X149811812Y-91227518D01*
X149775502Y-91107820D01*
X149716537Y-90997506D01*
X149637185Y-90900815D01*
X149540494Y-90821463D01*
X149430180Y-90762498D01*
X149310482Y-90726188D01*
X149186000Y-90713928D01*
X147486000Y-90713928D01*
X147361518Y-90726188D01*
X147241820Y-90762498D01*
X147131506Y-90821463D01*
X147034815Y-90900815D01*
X146955463Y-90997506D01*
X146896498Y-91107820D01*
X146872034Y-91188466D01*
X146796269Y-91104412D01*
X146562920Y-90930359D01*
X146300099Y-90805175D01*
X146152890Y-90760524D01*
X145923000Y-90881845D01*
X145923000Y-92075000D01*
X145943000Y-92075000D01*
X145943000Y-92329000D01*
X145923000Y-92329000D01*
X145923000Y-92349000D01*
X145669000Y-92349000D01*
X145669000Y-92329000D01*
X145649000Y-92329000D01*
X145649000Y-92075000D01*
X145669000Y-92075000D01*
X145669000Y-90881845D01*
X145439110Y-90760524D01*
X145291901Y-90805175D01*
X145029080Y-90930359D01*
X144795731Y-91104412D01*
X144600822Y-91320645D01*
X144531201Y-91437523D01*
X144496706Y-91372986D01*
X144311134Y-91146866D01*
X144085014Y-90961294D01*
X143827034Y-90823401D01*
X143547111Y-90738487D01*
X143328950Y-90717000D01*
X143183050Y-90717000D01*
X142964889Y-90738487D01*
X142684966Y-90823401D01*
X142426986Y-90961294D01*
X142200866Y-91146866D01*
X142015294Y-91372986D01*
X141986000Y-91427791D01*
X141956706Y-91372986D01*
X141771134Y-91146866D01*
X141545014Y-90961294D01*
X141287034Y-90823401D01*
X141007111Y-90738487D01*
X140788950Y-90717000D01*
X140643050Y-90717000D01*
X140424889Y-90738487D01*
X140144966Y-90823401D01*
X139886986Y-90961294D01*
X139660866Y-91146866D01*
X139475294Y-91372986D01*
X139446000Y-91427791D01*
X139416706Y-91372986D01*
X139231134Y-91146866D01*
X139005014Y-90961294D01*
X138747034Y-90823401D01*
X138467111Y-90738487D01*
X138248950Y-90717000D01*
X138103050Y-90717000D01*
X137884889Y-90738487D01*
X137604966Y-90823401D01*
X137346986Y-90961294D01*
X137120866Y-91146866D01*
X136935294Y-91372986D01*
X136804000Y-91618620D01*
X136804000Y-90202281D01*
X136813885Y-90101467D01*
X136833789Y-90035543D01*
X136866115Y-89974745D01*
X136909639Y-89921381D01*
X136962696Y-89877488D01*
X137023271Y-89844734D01*
X137089053Y-89824372D01*
X137187730Y-89814000D01*
X152875719Y-89814000D01*
X152976533Y-89823885D01*
M02*
