G04 #@! TF.GenerationSoftware,KiCad,Pcbnew,5.1.2-f72e74a~84~ubuntu16.04.1*
G04 #@! TF.CreationDate,2019-05-05T12:52:43-04:00*
G04 #@! TF.ProjectId,hw_504_joystick_trrs_pcb,68775f35-3034-45f6-9a6f-79737469636b,1.0*
G04 #@! TF.SameCoordinates,Original*
G04 #@! TF.FileFunction,Soldermask,Bot*
G04 #@! TF.FilePolarity,Negative*
%FSLAX46Y46*%
G04 Gerber Fmt 4.6, Leading zero omitted, Abs format (unit mm)*
G04 Created by KiCad (PCBNEW 5.1.2-f72e74a~84~ubuntu16.04.1) date 2019-05-05 12:52:43*
%MOMM*%
%LPD*%
G04 APERTURE LIST*
%ADD10C,0.100000*%
G04 APERTURE END LIST*
D10*
G36*
X149696823Y-98751313D02*
G01*
X149857242Y-98799976D01*
X149989906Y-98870886D01*
X150005078Y-98878996D01*
X150134659Y-98985341D01*
X150241004Y-99114922D01*
X150241005Y-99114924D01*
X150320024Y-99262758D01*
X150368687Y-99423177D01*
X150385117Y-99590000D01*
X150368687Y-99756823D01*
X150320024Y-99917242D01*
X150249114Y-100049906D01*
X150241004Y-100065078D01*
X150134659Y-100194659D01*
X150005078Y-100301004D01*
X150005076Y-100301005D01*
X149857242Y-100380024D01*
X149696823Y-100428687D01*
X149571804Y-100441000D01*
X149088196Y-100441000D01*
X148963177Y-100428687D01*
X148802758Y-100380024D01*
X148654924Y-100301005D01*
X148654922Y-100301004D01*
X148525341Y-100194659D01*
X148418996Y-100065078D01*
X148410886Y-100049906D01*
X148339976Y-99917242D01*
X148291313Y-99756823D01*
X148274883Y-99590000D01*
X148291313Y-99423177D01*
X148339976Y-99262758D01*
X148418995Y-99114924D01*
X148418996Y-99114922D01*
X148525341Y-98985341D01*
X148654922Y-98878996D01*
X148670094Y-98870886D01*
X148802758Y-98799976D01*
X148963177Y-98751313D01*
X149088196Y-98739000D01*
X149571804Y-98739000D01*
X149696823Y-98751313D01*
X149696823Y-98751313D01*
G37*
G36*
X159161552Y-96856331D02*
G01*
X159243627Y-96890328D01*
X159243629Y-96890329D01*
X159280813Y-96915175D01*
X159317495Y-96939685D01*
X159380315Y-97002505D01*
X159429672Y-97076373D01*
X159463669Y-97158448D01*
X159481000Y-97245579D01*
X159481000Y-97334421D01*
X159463669Y-97421552D01*
X159429672Y-97503627D01*
X159429671Y-97503629D01*
X159380314Y-97577496D01*
X159317496Y-97640314D01*
X159243629Y-97689671D01*
X159243628Y-97689672D01*
X159243627Y-97689672D01*
X159161552Y-97723669D01*
X159074421Y-97741000D01*
X158985579Y-97741000D01*
X158898448Y-97723669D01*
X158816373Y-97689672D01*
X158816372Y-97689672D01*
X158816371Y-97689671D01*
X158742504Y-97640314D01*
X158679686Y-97577496D01*
X158630329Y-97503629D01*
X158630328Y-97503627D01*
X158596331Y-97421552D01*
X158579000Y-97334421D01*
X158579000Y-97245579D01*
X158596331Y-97158448D01*
X158630328Y-97076373D01*
X158679685Y-97002505D01*
X158742505Y-96939685D01*
X158779187Y-96915175D01*
X158816371Y-96890329D01*
X158816373Y-96890328D01*
X158898448Y-96856331D01*
X158985579Y-96839000D01*
X159074421Y-96839000D01*
X159161552Y-96856331D01*
X159161552Y-96856331D01*
G37*
G36*
X152161552Y-96856331D02*
G01*
X152243627Y-96890328D01*
X152243629Y-96890329D01*
X152280813Y-96915175D01*
X152317495Y-96939685D01*
X152380315Y-97002505D01*
X152429672Y-97076373D01*
X152463669Y-97158448D01*
X152481000Y-97245579D01*
X152481000Y-97334421D01*
X152463669Y-97421552D01*
X152429672Y-97503627D01*
X152429671Y-97503629D01*
X152380314Y-97577496D01*
X152317496Y-97640314D01*
X152243629Y-97689671D01*
X152243628Y-97689672D01*
X152243627Y-97689672D01*
X152161552Y-97723669D01*
X152074421Y-97741000D01*
X151985579Y-97741000D01*
X151898448Y-97723669D01*
X151816373Y-97689672D01*
X151816372Y-97689672D01*
X151816371Y-97689671D01*
X151742504Y-97640314D01*
X151679686Y-97577496D01*
X151630329Y-97503629D01*
X151630328Y-97503627D01*
X151596331Y-97421552D01*
X151579000Y-97334421D01*
X151579000Y-97245579D01*
X151596331Y-97158448D01*
X151630328Y-97076373D01*
X151679685Y-97002505D01*
X151742505Y-96939685D01*
X151779187Y-96915175D01*
X151816371Y-96890329D01*
X151816373Y-96890328D01*
X151898448Y-96856331D01*
X151985579Y-96839000D01*
X152074421Y-96839000D01*
X152161552Y-96856331D01*
X152161552Y-96856331D01*
G37*
G36*
X154796823Y-94151313D02*
G01*
X154957242Y-94199976D01*
X155089906Y-94270886D01*
X155105078Y-94278996D01*
X155234659Y-94385341D01*
X155341004Y-94514922D01*
X155341005Y-94514924D01*
X155420024Y-94662758D01*
X155468687Y-94823177D01*
X155485117Y-94990000D01*
X155468687Y-95156823D01*
X155420024Y-95317242D01*
X155349114Y-95449906D01*
X155341004Y-95465078D01*
X155234659Y-95594659D01*
X155105078Y-95701004D01*
X155105076Y-95701005D01*
X154957242Y-95780024D01*
X154796823Y-95828687D01*
X154671804Y-95841000D01*
X154188196Y-95841000D01*
X154063177Y-95828687D01*
X153902758Y-95780024D01*
X153754924Y-95701005D01*
X153754922Y-95701004D01*
X153625341Y-95594659D01*
X153518996Y-95465078D01*
X153510886Y-95449906D01*
X153439976Y-95317242D01*
X153391313Y-95156823D01*
X153374883Y-94990000D01*
X153391313Y-94823177D01*
X153439976Y-94662758D01*
X153518995Y-94514924D01*
X153518996Y-94514922D01*
X153625341Y-94385341D01*
X153754922Y-94278996D01*
X153770094Y-94270886D01*
X153902758Y-94199976D01*
X154063177Y-94151313D01*
X154188196Y-94139000D01*
X154671804Y-94139000D01*
X154796823Y-94151313D01*
X154796823Y-94151313D01*
G37*
G36*
X157796823Y-94151313D02*
G01*
X157957242Y-94199976D01*
X158089906Y-94270886D01*
X158105078Y-94278996D01*
X158234659Y-94385341D01*
X158341004Y-94514922D01*
X158341005Y-94514924D01*
X158420024Y-94662758D01*
X158468687Y-94823177D01*
X158485117Y-94990000D01*
X158468687Y-95156823D01*
X158420024Y-95317242D01*
X158349114Y-95449906D01*
X158341004Y-95465078D01*
X158234659Y-95594659D01*
X158105078Y-95701004D01*
X158105076Y-95701005D01*
X157957242Y-95780024D01*
X157796823Y-95828687D01*
X157671804Y-95841000D01*
X157188196Y-95841000D01*
X157063177Y-95828687D01*
X156902758Y-95780024D01*
X156754924Y-95701005D01*
X156754922Y-95701004D01*
X156625341Y-95594659D01*
X156518996Y-95465078D01*
X156510886Y-95449906D01*
X156439976Y-95317242D01*
X156391313Y-95156823D01*
X156374883Y-94990000D01*
X156391313Y-94823177D01*
X156439976Y-94662758D01*
X156518995Y-94514924D01*
X156518996Y-94514922D01*
X156625341Y-94385341D01*
X156754922Y-94278996D01*
X156770094Y-94270886D01*
X156902758Y-94199976D01*
X157063177Y-94151313D01*
X157188196Y-94139000D01*
X157671804Y-94139000D01*
X157796823Y-94151313D01*
X157796823Y-94151313D01*
G37*
G36*
X150796823Y-94151313D02*
G01*
X150957242Y-94199976D01*
X151089906Y-94270886D01*
X151105078Y-94278996D01*
X151234659Y-94385341D01*
X151341004Y-94514922D01*
X151341005Y-94514924D01*
X151420024Y-94662758D01*
X151468687Y-94823177D01*
X151485117Y-94990000D01*
X151468687Y-95156823D01*
X151420024Y-95317242D01*
X151349114Y-95449906D01*
X151341004Y-95465078D01*
X151234659Y-95594659D01*
X151105078Y-95701004D01*
X151105076Y-95701005D01*
X150957242Y-95780024D01*
X150796823Y-95828687D01*
X150671804Y-95841000D01*
X150188196Y-95841000D01*
X150063177Y-95828687D01*
X149902758Y-95780024D01*
X149754924Y-95701005D01*
X149754922Y-95701004D01*
X149625341Y-95594659D01*
X149518996Y-95465078D01*
X149510886Y-95449906D01*
X149439976Y-95317242D01*
X149391313Y-95156823D01*
X149374883Y-94990000D01*
X149391313Y-94823177D01*
X149439976Y-94662758D01*
X149518995Y-94514924D01*
X149518996Y-94514922D01*
X149625341Y-94385341D01*
X149754922Y-94278996D01*
X149770094Y-94270886D01*
X149902758Y-94199976D01*
X150063177Y-94151313D01*
X150188196Y-94139000D01*
X150671804Y-94139000D01*
X150796823Y-94151313D01*
X150796823Y-94151313D01*
G37*
G36*
X140826443Y-91307519D02*
G01*
X140892627Y-91314037D01*
X141062466Y-91365557D01*
X141218991Y-91449222D01*
X141254729Y-91478552D01*
X141356186Y-91561814D01*
X141439448Y-91663271D01*
X141468778Y-91699009D01*
X141552443Y-91855534D01*
X141603963Y-92025373D01*
X141621359Y-92202000D01*
X141603963Y-92378627D01*
X141552443Y-92548466D01*
X141468778Y-92704991D01*
X141439448Y-92740729D01*
X141356186Y-92842186D01*
X141254729Y-92925448D01*
X141218991Y-92954778D01*
X141062466Y-93038443D01*
X140892627Y-93089963D01*
X140826443Y-93096481D01*
X140760260Y-93103000D01*
X140671740Y-93103000D01*
X140605557Y-93096481D01*
X140539373Y-93089963D01*
X140369534Y-93038443D01*
X140213009Y-92954778D01*
X140177271Y-92925448D01*
X140075814Y-92842186D01*
X139992552Y-92740729D01*
X139963222Y-92704991D01*
X139879557Y-92548466D01*
X139828037Y-92378627D01*
X139810641Y-92202000D01*
X139828037Y-92025373D01*
X139879557Y-91855534D01*
X139963222Y-91699009D01*
X139992552Y-91663271D01*
X140075814Y-91561814D01*
X140177271Y-91478552D01*
X140213009Y-91449222D01*
X140369534Y-91365557D01*
X140539373Y-91314037D01*
X140605557Y-91307519D01*
X140671740Y-91301000D01*
X140760260Y-91301000D01*
X140826443Y-91307519D01*
X140826443Y-91307519D01*
G37*
G36*
X138286443Y-91307519D02*
G01*
X138352627Y-91314037D01*
X138522466Y-91365557D01*
X138678991Y-91449222D01*
X138714729Y-91478552D01*
X138816186Y-91561814D01*
X138899448Y-91663271D01*
X138928778Y-91699009D01*
X139012443Y-91855534D01*
X139063963Y-92025373D01*
X139081359Y-92202000D01*
X139063963Y-92378627D01*
X139012443Y-92548466D01*
X138928778Y-92704991D01*
X138899448Y-92740729D01*
X138816186Y-92842186D01*
X138714729Y-92925448D01*
X138678991Y-92954778D01*
X138522466Y-93038443D01*
X138352627Y-93089963D01*
X138286443Y-93096481D01*
X138220260Y-93103000D01*
X138131740Y-93103000D01*
X138065557Y-93096481D01*
X137999373Y-93089963D01*
X137829534Y-93038443D01*
X137673009Y-92954778D01*
X137637271Y-92925448D01*
X137535814Y-92842186D01*
X137452552Y-92740729D01*
X137423222Y-92704991D01*
X137339557Y-92548466D01*
X137288037Y-92378627D01*
X137270641Y-92202000D01*
X137288037Y-92025373D01*
X137339557Y-91855534D01*
X137423222Y-91699009D01*
X137452552Y-91663271D01*
X137535814Y-91561814D01*
X137637271Y-91478552D01*
X137673009Y-91449222D01*
X137829534Y-91365557D01*
X137999373Y-91314037D01*
X138065557Y-91307519D01*
X138131740Y-91301000D01*
X138220260Y-91301000D01*
X138286443Y-91307519D01*
X138286443Y-91307519D01*
G37*
G36*
X143366443Y-91307519D02*
G01*
X143432627Y-91314037D01*
X143602466Y-91365557D01*
X143758991Y-91449222D01*
X143794729Y-91478552D01*
X143896186Y-91561814D01*
X143979448Y-91663271D01*
X144008778Y-91699009D01*
X144092443Y-91855534D01*
X144143963Y-92025373D01*
X144161359Y-92202000D01*
X144143963Y-92378627D01*
X144092443Y-92548466D01*
X144008778Y-92704991D01*
X143979448Y-92740729D01*
X143896186Y-92842186D01*
X143794729Y-92925448D01*
X143758991Y-92954778D01*
X143602466Y-93038443D01*
X143432627Y-93089963D01*
X143366443Y-93096481D01*
X143300260Y-93103000D01*
X143211740Y-93103000D01*
X143145557Y-93096481D01*
X143079373Y-93089963D01*
X142909534Y-93038443D01*
X142753009Y-92954778D01*
X142717271Y-92925448D01*
X142615814Y-92842186D01*
X142532552Y-92740729D01*
X142503222Y-92704991D01*
X142419557Y-92548466D01*
X142368037Y-92378627D01*
X142350641Y-92202000D01*
X142368037Y-92025373D01*
X142419557Y-91855534D01*
X142503222Y-91699009D01*
X142532552Y-91663271D01*
X142615814Y-91561814D01*
X142717271Y-91478552D01*
X142753009Y-91449222D01*
X142909534Y-91365557D01*
X143079373Y-91314037D01*
X143145557Y-91307519D01*
X143211740Y-91301000D01*
X143300260Y-91301000D01*
X143366443Y-91307519D01*
X143366443Y-91307519D01*
G37*
G36*
X145906443Y-91307519D02*
G01*
X145972627Y-91314037D01*
X146142466Y-91365557D01*
X146298991Y-91449222D01*
X146334729Y-91478552D01*
X146436186Y-91561814D01*
X146519448Y-91663271D01*
X146548778Y-91699009D01*
X146632443Y-91855534D01*
X146683963Y-92025373D01*
X146701359Y-92202000D01*
X146683963Y-92378627D01*
X146632443Y-92548466D01*
X146548778Y-92704991D01*
X146519448Y-92740729D01*
X146436186Y-92842186D01*
X146334729Y-92925448D01*
X146298991Y-92954778D01*
X146142466Y-93038443D01*
X145972627Y-93089963D01*
X145906443Y-93096481D01*
X145840260Y-93103000D01*
X145751740Y-93103000D01*
X145685557Y-93096481D01*
X145619373Y-93089963D01*
X145449534Y-93038443D01*
X145293009Y-92954778D01*
X145257271Y-92925448D01*
X145155814Y-92842186D01*
X145072552Y-92740729D01*
X145043222Y-92704991D01*
X144959557Y-92548466D01*
X144908037Y-92378627D01*
X144890641Y-92202000D01*
X144908037Y-92025373D01*
X144959557Y-91855534D01*
X145043222Y-91699009D01*
X145072552Y-91663271D01*
X145155814Y-91561814D01*
X145257271Y-91478552D01*
X145293009Y-91449222D01*
X145449534Y-91365557D01*
X145619373Y-91314037D01*
X145685557Y-91307519D01*
X145751740Y-91301000D01*
X145840260Y-91301000D01*
X145906443Y-91307519D01*
X145906443Y-91307519D01*
G37*
G36*
X149237000Y-93103000D02*
G01*
X147435000Y-93103000D01*
X147435000Y-91301000D01*
X149237000Y-91301000D01*
X149237000Y-93103000D01*
X149237000Y-93103000D01*
G37*
M02*
