G04 #@! TF.GenerationSoftware,KiCad,Pcbnew,5.1.4-e60b266~84~ubuntu16.04.1*
G04 #@! TF.CreationDate,2019-09-19T10:45:12-04:00*
G04 #@! TF.ProjectId,i2c_splitter,6932635f-7370-46c6-9974-7465722e6b69,1.0*
G04 #@! TF.SameCoordinates,Original*
G04 #@! TF.FileFunction,Legend,Top*
G04 #@! TF.FilePolarity,Positive*
%FSLAX46Y46*%
G04 Gerber Fmt 4.6, Leading zero omitted, Abs format (unit mm)*
G04 Created by KiCad (PCBNEW 5.1.4-e60b266~84~ubuntu16.04.1) date 2019-09-19 10:45:12*
%MOMM*%
%LPD*%
G04 APERTURE LIST*
%ADD10C,0.150000*%
G04 APERTURE END LIST*
D10*
X156534000Y-100328000D02*
X156534000Y-94728000D01*
X154534000Y-94728000D02*
X156534000Y-94728000D01*
X154534000Y-100328000D02*
X156534000Y-100328000D01*
X154534000Y-94478000D02*
X142434000Y-94478000D01*
X154534000Y-100578000D02*
X142434000Y-100578000D01*
X142434000Y-100578000D02*
X142434000Y-94478000D01*
X154534000Y-100578000D02*
X154534000Y-94478000D01*
X127184000Y-102618000D02*
X127184000Y-108218000D01*
X129184000Y-108218000D02*
X127184000Y-108218000D01*
X129184000Y-102618000D02*
X127184000Y-102618000D01*
X129184000Y-108468000D02*
X141284000Y-108468000D01*
X129184000Y-102368000D02*
X141284000Y-102368000D01*
X141284000Y-102368000D02*
X141284000Y-108468000D01*
X129184000Y-102368000D02*
X129184000Y-108468000D01*
X127184000Y-86870000D02*
X127184000Y-92470000D01*
X129184000Y-92470000D02*
X127184000Y-92470000D01*
X129184000Y-86870000D02*
X127184000Y-86870000D01*
X129184000Y-92720000D02*
X141284000Y-92720000D01*
X129184000Y-86620000D02*
X141284000Y-86620000D01*
X141284000Y-86620000D02*
X141284000Y-92720000D01*
X129184000Y-86620000D02*
X129184000Y-92720000D01*
X140890666Y-96988380D02*
X140890666Y-97702666D01*
X140843047Y-97845523D01*
X140747809Y-97940761D01*
X140604952Y-97988380D01*
X140509714Y-97988380D01*
X141271619Y-96988380D02*
X141890666Y-96988380D01*
X141557333Y-97369333D01*
X141700190Y-97369333D01*
X141795428Y-97416952D01*
X141843047Y-97464571D01*
X141890666Y-97559809D01*
X141890666Y-97797904D01*
X141843047Y-97893142D01*
X141795428Y-97940761D01*
X141700190Y-97988380D01*
X141414476Y-97988380D01*
X141319238Y-97940761D01*
X141271619Y-97893142D01*
X134286666Y-100798380D02*
X134286666Y-101512666D01*
X134239047Y-101655523D01*
X134143809Y-101750761D01*
X134000952Y-101798380D01*
X133905714Y-101798380D01*
X134715238Y-100893619D02*
X134762857Y-100846000D01*
X134858095Y-100798380D01*
X135096190Y-100798380D01*
X135191428Y-100846000D01*
X135239047Y-100893619D01*
X135286666Y-100988857D01*
X135286666Y-101084095D01*
X135239047Y-101226952D01*
X134667619Y-101798380D01*
X135286666Y-101798380D01*
X134410666Y-93072380D02*
X134410666Y-93786666D01*
X134363047Y-93929523D01*
X134267809Y-94024761D01*
X134124952Y-94072380D01*
X134029714Y-94072380D01*
X135410666Y-94072380D02*
X134839238Y-94072380D01*
X135124952Y-94072380D02*
X135124952Y-93072380D01*
X135029714Y-93215238D01*
X134934476Y-93310476D01*
X134839238Y-93358095D01*
M02*
