G04 #@! TF.GenerationSoftware,KiCad,Pcbnew,5.1.4-e60b266~84~ubuntu16.04.1*
G04 #@! TF.CreationDate,2019-09-19T10:45:12-04:00*
G04 #@! TF.ProjectId,i2c_splitter,6932635f-7370-46c6-9974-7465722e6b69,1.0*
G04 #@! TF.SameCoordinates,Original*
G04 #@! TF.FileFunction,Legend,Bot*
G04 #@! TF.FilePolarity,Positive*
%FSLAX46Y46*%
G04 Gerber Fmt 4.6, Leading zero omitted, Abs format (unit mm)*
G04 Created by KiCad (PCBNEW 5.1.4-e60b266~84~ubuntu16.04.1) date 2019-09-19 10:45:12*
%MOMM*%
%LPD*%
G04 APERTURE LIST*
%ADD10C,0.125000*%
G04 APERTURE END LIST*
D10*
X143883904Y-98024904D02*
X143883904Y-97224904D01*
X143541047Y-97301095D02*
X143502952Y-97263000D01*
X143426761Y-97224904D01*
X143236285Y-97224904D01*
X143160095Y-97263000D01*
X143122000Y-97301095D01*
X143083904Y-97377285D01*
X143083904Y-97453476D01*
X143122000Y-97567761D01*
X143579142Y-98024904D01*
X143083904Y-98024904D01*
X142283904Y-97948714D02*
X142322000Y-97986809D01*
X142436285Y-98024904D01*
X142512476Y-98024904D01*
X142626761Y-97986809D01*
X142702952Y-97910619D01*
X142741047Y-97834428D01*
X142779142Y-97682047D01*
X142779142Y-97567761D01*
X142741047Y-97415380D01*
X142702952Y-97339190D01*
X142626761Y-97263000D01*
X142512476Y-97224904D01*
X142436285Y-97224904D01*
X142322000Y-97263000D01*
X142283904Y-97301095D01*
X141369619Y-97986809D02*
X141255333Y-98024904D01*
X141064857Y-98024904D01*
X140988666Y-97986809D01*
X140950571Y-97948714D01*
X140912476Y-97872523D01*
X140912476Y-97796333D01*
X140950571Y-97720142D01*
X140988666Y-97682047D01*
X141064857Y-97643952D01*
X141217238Y-97605857D01*
X141293428Y-97567761D01*
X141331523Y-97529666D01*
X141369619Y-97453476D01*
X141369619Y-97377285D01*
X141331523Y-97301095D01*
X141293428Y-97263000D01*
X141217238Y-97224904D01*
X141026761Y-97224904D01*
X140912476Y-97263000D01*
X140569619Y-97491571D02*
X140569619Y-98291571D01*
X140569619Y-97529666D02*
X140493428Y-97491571D01*
X140341047Y-97491571D01*
X140264857Y-97529666D01*
X140226761Y-97567761D01*
X140188666Y-97643952D01*
X140188666Y-97872523D01*
X140226761Y-97948714D01*
X140264857Y-97986809D01*
X140341047Y-98024904D01*
X140493428Y-98024904D01*
X140569619Y-97986809D01*
X139731523Y-98024904D02*
X139807714Y-97986809D01*
X139845809Y-97910619D01*
X139845809Y-97224904D01*
X139426761Y-98024904D02*
X139426761Y-97491571D01*
X139426761Y-97224904D02*
X139464857Y-97263000D01*
X139426761Y-97301095D01*
X139388666Y-97263000D01*
X139426761Y-97224904D01*
X139426761Y-97301095D01*
X139160095Y-97491571D02*
X138855333Y-97491571D01*
X139045809Y-97224904D02*
X139045809Y-97910619D01*
X139007714Y-97986809D01*
X138931523Y-98024904D01*
X138855333Y-98024904D01*
X138702952Y-97491571D02*
X138398190Y-97491571D01*
X138588666Y-97224904D02*
X138588666Y-97910619D01*
X138550571Y-97986809D01*
X138474380Y-98024904D01*
X138398190Y-98024904D01*
X137826761Y-97986809D02*
X137902952Y-98024904D01*
X138055333Y-98024904D01*
X138131523Y-97986809D01*
X138169619Y-97910619D01*
X138169619Y-97605857D01*
X138131523Y-97529666D01*
X138055333Y-97491571D01*
X137902952Y-97491571D01*
X137826761Y-97529666D01*
X137788666Y-97605857D01*
X137788666Y-97682047D01*
X138169619Y-97758238D01*
X137445809Y-98024904D02*
X137445809Y-97491571D01*
X137445809Y-97643952D02*
X137407714Y-97567761D01*
X137369619Y-97529666D01*
X137293428Y-97491571D01*
X137217238Y-97491571D01*
X136455333Y-97224904D02*
X136188666Y-98024904D01*
X135922000Y-97224904D01*
X135350571Y-97986809D02*
X135426761Y-98024904D01*
X135579142Y-98024904D01*
X135655333Y-97986809D01*
X135693428Y-97910619D01*
X135693428Y-97605857D01*
X135655333Y-97529666D01*
X135579142Y-97491571D01*
X135426761Y-97491571D01*
X135350571Y-97529666D01*
X135312476Y-97605857D01*
X135312476Y-97682047D01*
X135693428Y-97758238D01*
X134969619Y-98024904D02*
X134969619Y-97491571D01*
X134969619Y-97643952D02*
X134931523Y-97567761D01*
X134893428Y-97529666D01*
X134817238Y-97491571D01*
X134741047Y-97491571D01*
X134474380Y-97948714D02*
X134436285Y-97986809D01*
X134474380Y-98024904D01*
X134512476Y-97986809D01*
X134474380Y-97948714D01*
X134474380Y-98024904D01*
X133064857Y-98024904D02*
X133522000Y-98024904D01*
X133293428Y-98024904D02*
X133293428Y-97224904D01*
X133369619Y-97339190D01*
X133445809Y-97415380D01*
X133522000Y-97453476D01*
X132722000Y-97948714D02*
X132683904Y-97986809D01*
X132722000Y-98024904D01*
X132760095Y-97986809D01*
X132722000Y-97948714D01*
X132722000Y-98024904D01*
X132188666Y-97224904D02*
X132112476Y-97224904D01*
X132036285Y-97263000D01*
X131998190Y-97301095D01*
X131960095Y-97377285D01*
X131922000Y-97529666D01*
X131922000Y-97720142D01*
X131960095Y-97872523D01*
X131998190Y-97948714D01*
X132036285Y-97986809D01*
X132112476Y-98024904D01*
X132188666Y-98024904D01*
X132264857Y-97986809D01*
X132302952Y-97948714D01*
X132341047Y-97872523D01*
X132379142Y-97720142D01*
X132379142Y-97529666D01*
X132341047Y-97377285D01*
X132302952Y-97301095D01*
X132264857Y-97263000D01*
X132188666Y-97224904D01*
M02*
