M48
; DRILL file {KiCad 5.1.4-e60b266~84~ubuntu16.04.1} date Thu 19 Sep 2019 10:45:06 AM EDT
; FORMAT={-:-/ absolute / inch / decimal}
; #@! TF.CreationDate,2019-09-19T10:45:06-04:00
; #@! TF.GenerationSoftware,Kicad,Pcbnew,5.1.4-e60b266~84~ubuntu16.04.1
; #@! TF.FileFunction,Plated,1,2,PTH
FMAT,2
INCH
T1C0.0157
T2C0.0354
%
G90
G05
T1
X5.212Y-3.793
X5.3301Y-3.89
T2
G00X5.2041Y-4.0598
M15
G01X5.2198Y-4.0598
M16
G05
G00X5.3222Y-4.0598
M15
G01X5.338Y-4.0598
M16
G05
G00X5.4797Y-4.0598
M15
G01X5.4954Y-4.0598
M16
G05
G00X5.523Y-4.2409
M15
G01X5.5387Y-4.2409
M16
G05
G00X5.647Y-3.7491
M15
G01X5.6313Y-3.7491
M16
G05
G00X5.6903Y-3.9302
M15
G01X5.6746Y-3.9302
M16
G05
G00X5.8478Y-3.9302
M15
G01X5.832Y-3.9302
M16
G05
G00X5.9659Y-3.9302
M15
G01X5.9502Y-3.9302
M16
G05
G00X5.2041Y-3.4398
M15
G01X5.2198Y-3.4398
M16
G05
G00X5.3222Y-3.4398
M15
G01X5.338Y-3.4398
M16
G05
G00X5.4797Y-3.4398
M15
G01X5.4954Y-3.4398
M16
G05
G00X5.523Y-3.6209
M15
G01X5.5387Y-3.6209
M16
G05
T0
M30
