G04 #@! TF.GenerationSoftware,KiCad,Pcbnew,5.1.4-e60b266~84~ubuntu16.04.1*
G04 #@! TF.CreationDate,2019-09-19T10:45:12-04:00*
G04 #@! TF.ProjectId,i2c_splitter,6932635f-7370-46c6-9974-7465722e6b69,1.0*
G04 #@! TF.SameCoordinates,Original*
G04 #@! TF.FileFunction,Copper,L1,Top*
G04 #@! TF.FilePolarity,Positive*
%FSLAX46Y46*%
G04 Gerber Fmt 4.6, Leading zero omitted, Abs format (unit mm)*
G04 Created by KiCad (PCBNEW 5.1.4-e60b266~84~ubuntu16.04.1) date 2019-09-19 10:45:12*
%MOMM*%
%LPD*%
G04 APERTURE LIST*
%ADD10O,2.000000X1.600000*%
%ADD11C,0.800000*%
%ADD12C,0.250000*%
%ADD13C,0.254000*%
G04 APERTURE END LIST*
D10*
X143234000Y-95228000D03*
X144334000Y-99828000D03*
X151334000Y-99828000D03*
X148334000Y-99828000D03*
X140484000Y-107718000D03*
X139384000Y-103118000D03*
X132384000Y-103118000D03*
X135384000Y-103118000D03*
X140484000Y-91970000D03*
X139384000Y-87370000D03*
X132384000Y-87370000D03*
X135384000Y-87370000D03*
D11*
X132384000Y-96343000D03*
X135384000Y-98806000D03*
D12*
X148048999Y-96742999D02*
X133826999Y-96742999D01*
X151134000Y-99828000D02*
X148048999Y-96742999D01*
X151334000Y-99828000D02*
X151134000Y-99828000D01*
X133427000Y-96343000D02*
X132384000Y-96343000D01*
X133826999Y-96742999D02*
X133427000Y-96343000D01*
X145662001Y-98406001D02*
X147084000Y-99828000D01*
X135783999Y-98406001D02*
X145662001Y-98406001D01*
X147084000Y-99828000D02*
X148334000Y-99828000D01*
X135384000Y-98806000D02*
X135783999Y-98406001D01*
D13*
G36*
X130985068Y-86568899D02*
G01*
X130851818Y-86818192D01*
X130769764Y-87088691D01*
X130742057Y-87370000D01*
X130769764Y-87651309D01*
X130851818Y-87921808D01*
X130985068Y-88171101D01*
X131164392Y-88389608D01*
X131382899Y-88568932D01*
X131632192Y-88702182D01*
X131902691Y-88784236D01*
X132113508Y-88805000D01*
X132654492Y-88805000D01*
X132865309Y-88784236D01*
X133135808Y-88702182D01*
X133385101Y-88568932D01*
X133603608Y-88389608D01*
X133782932Y-88171101D01*
X133884000Y-87982016D01*
X133985068Y-88171101D01*
X134164392Y-88389608D01*
X134382899Y-88568932D01*
X134632192Y-88702182D01*
X134902691Y-88784236D01*
X135113508Y-88805000D01*
X135654492Y-88805000D01*
X135865309Y-88784236D01*
X136135808Y-88702182D01*
X136385101Y-88568932D01*
X136603608Y-88389608D01*
X136782932Y-88171101D01*
X136916182Y-87921808D01*
X136977690Y-87719039D01*
X137792096Y-87719039D01*
X137802556Y-87776730D01*
X137908449Y-88038421D01*
X138063361Y-88274425D01*
X138261338Y-88475673D01*
X138494773Y-88634430D01*
X138754694Y-88744596D01*
X139031113Y-88801937D01*
X139257000Y-88649474D01*
X139257000Y-87497000D01*
X139511000Y-87497000D01*
X139511000Y-88649474D01*
X139736887Y-88801937D01*
X140013306Y-88744596D01*
X140273227Y-88634430D01*
X140506662Y-88475673D01*
X140704639Y-88274425D01*
X140859551Y-88038421D01*
X140965444Y-87776730D01*
X140975904Y-87719039D01*
X140853915Y-87497000D01*
X139511000Y-87497000D01*
X139257000Y-87497000D01*
X137914085Y-87497000D01*
X137792096Y-87719039D01*
X136977690Y-87719039D01*
X136998236Y-87651309D01*
X137025943Y-87370000D01*
X136998236Y-87088691D01*
X136916182Y-86818192D01*
X136782932Y-86568899D01*
X136736236Y-86512000D01*
X138032888Y-86512000D01*
X137908449Y-86701579D01*
X137802556Y-86963270D01*
X137792096Y-87020961D01*
X137914085Y-87243000D01*
X139257000Y-87243000D01*
X139257000Y-87223000D01*
X139511000Y-87223000D01*
X139511000Y-87243000D01*
X140853915Y-87243000D01*
X140975904Y-87020961D01*
X140965444Y-86963270D01*
X140859551Y-86701579D01*
X140735112Y-86512000D01*
X141191719Y-86512000D01*
X141292533Y-86521885D01*
X141358457Y-86541789D01*
X141419255Y-86574115D01*
X141472619Y-86617639D01*
X141516512Y-86670696D01*
X141549266Y-86731271D01*
X141569628Y-86797053D01*
X141580000Y-86895731D01*
X141580001Y-90848950D01*
X141485101Y-90771068D01*
X141235808Y-90637818D01*
X140965309Y-90555764D01*
X140754492Y-90535000D01*
X140213508Y-90535000D01*
X140002691Y-90555764D01*
X139732192Y-90637818D01*
X139482899Y-90771068D01*
X139264392Y-90950392D01*
X139085068Y-91168899D01*
X138951818Y-91418192D01*
X138869764Y-91688691D01*
X138842057Y-91970000D01*
X138869764Y-92251309D01*
X138951818Y-92521808D01*
X139085068Y-92771101D01*
X139264392Y-92989608D01*
X139482899Y-93168932D01*
X139732192Y-93302182D01*
X140002691Y-93384236D01*
X140213508Y-93405000D01*
X140754492Y-93405000D01*
X140965309Y-93384236D01*
X141235808Y-93302182D01*
X141485101Y-93168932D01*
X141703608Y-92989608D01*
X141882932Y-92771101D01*
X142016182Y-92521808D01*
X142098236Y-92251309D01*
X142108150Y-92150649D01*
X142115851Y-92158513D01*
X142122952Y-92164387D01*
X142276614Y-92289711D01*
X142326423Y-92322803D01*
X142375795Y-92356610D01*
X142383902Y-92360993D01*
X142558980Y-92454084D01*
X142614275Y-92476875D01*
X142669270Y-92500446D01*
X142678074Y-92503171D01*
X142867900Y-92560482D01*
X142926566Y-92572098D01*
X142985087Y-92584537D01*
X142994252Y-92585500D01*
X143191593Y-92604850D01*
X143191598Y-92604850D01*
X143223581Y-92608000D01*
X153383719Y-92608000D01*
X153484533Y-92617885D01*
X153550457Y-92637789D01*
X153611255Y-92670115D01*
X153664619Y-92713639D01*
X153708512Y-92766696D01*
X153741266Y-92827271D01*
X153761628Y-92893053D01*
X153772000Y-92991731D01*
X153772000Y-96919206D01*
X153737937Y-96868226D01*
X153593774Y-96724063D01*
X153424256Y-96610795D01*
X153235898Y-96532774D01*
X153035939Y-96493000D01*
X152832061Y-96493000D01*
X152632102Y-96532774D01*
X152443744Y-96610795D01*
X152274226Y-96724063D01*
X152130063Y-96868226D01*
X152016795Y-97037744D01*
X151938774Y-97226102D01*
X151899000Y-97426061D01*
X151899000Y-97629939D01*
X151938774Y-97829898D01*
X152016795Y-98018256D01*
X152130063Y-98187774D01*
X152274226Y-98331937D01*
X152443744Y-98445205D01*
X152632102Y-98523226D01*
X152832061Y-98563000D01*
X153035939Y-98563000D01*
X153235898Y-98523226D01*
X153424256Y-98445205D01*
X153593774Y-98331937D01*
X153737937Y-98187774D01*
X153772001Y-98136794D01*
X153772001Y-101821709D01*
X153762115Y-101922531D01*
X153742211Y-101988458D01*
X153709885Y-102049255D01*
X153666362Y-102102618D01*
X153613300Y-102146515D01*
X153552727Y-102179266D01*
X153486947Y-102199628D01*
X153388269Y-102210000D01*
X143223581Y-102210000D01*
X143195309Y-102212784D01*
X143189088Y-102212741D01*
X143179917Y-102213641D01*
X142982715Y-102234368D01*
X142924151Y-102246390D01*
X142865362Y-102257604D01*
X142856540Y-102260268D01*
X142667118Y-102318903D01*
X142612005Y-102342071D01*
X142556507Y-102364493D01*
X142548371Y-102368820D01*
X142373947Y-102463130D01*
X142324331Y-102496597D01*
X142274301Y-102529335D01*
X142267160Y-102535159D01*
X142114376Y-102661553D01*
X142072237Y-102703988D01*
X142029487Y-102745851D01*
X142023613Y-102752952D01*
X141898289Y-102906614D01*
X141865174Y-102956456D01*
X141831390Y-103005796D01*
X141827007Y-103013902D01*
X141733916Y-103188980D01*
X141711125Y-103244275D01*
X141687554Y-103299270D01*
X141684829Y-103308073D01*
X141627518Y-103497900D01*
X141615900Y-103556580D01*
X141603463Y-103615087D01*
X141602500Y-103624252D01*
X141583150Y-103821594D01*
X141583150Y-103821599D01*
X141580000Y-103853582D01*
X141580001Y-106596950D01*
X141485101Y-106519068D01*
X141235808Y-106385818D01*
X140965309Y-106303764D01*
X140754492Y-106283000D01*
X140213508Y-106283000D01*
X140002691Y-106303764D01*
X139732192Y-106385818D01*
X139482899Y-106519068D01*
X139264392Y-106698392D01*
X139085068Y-106916899D01*
X138951818Y-107166192D01*
X138869764Y-107436691D01*
X138842057Y-107718000D01*
X138869764Y-107999309D01*
X138951818Y-108269808D01*
X139085068Y-108519101D01*
X139118633Y-108560000D01*
X130334281Y-108560000D01*
X130233469Y-108550115D01*
X130167542Y-108530211D01*
X130106745Y-108497885D01*
X130053382Y-108454362D01*
X130009485Y-108401300D01*
X129976734Y-108340727D01*
X129956372Y-108274947D01*
X129946000Y-108176269D01*
X129946000Y-106026795D01*
X129980063Y-106077774D01*
X130124226Y-106221937D01*
X130293744Y-106335205D01*
X130482102Y-106413226D01*
X130682061Y-106453000D01*
X130885939Y-106453000D01*
X131085898Y-106413226D01*
X131274256Y-106335205D01*
X131443774Y-106221937D01*
X131587937Y-106077774D01*
X131701205Y-105908256D01*
X131779226Y-105719898D01*
X131819000Y-105519939D01*
X131819000Y-105316061D01*
X136749000Y-105316061D01*
X136749000Y-105519939D01*
X136788774Y-105719898D01*
X136866795Y-105908256D01*
X136980063Y-106077774D01*
X137124226Y-106221937D01*
X137293744Y-106335205D01*
X137482102Y-106413226D01*
X137682061Y-106453000D01*
X137885939Y-106453000D01*
X138085898Y-106413226D01*
X138274256Y-106335205D01*
X138443774Y-106221937D01*
X138587937Y-106077774D01*
X138701205Y-105908256D01*
X138779226Y-105719898D01*
X138819000Y-105519939D01*
X138819000Y-105316061D01*
X138779226Y-105116102D01*
X138701205Y-104927744D01*
X138587937Y-104758226D01*
X138443774Y-104614063D01*
X138274256Y-104500795D01*
X138085898Y-104422774D01*
X137885939Y-104383000D01*
X137682061Y-104383000D01*
X137482102Y-104422774D01*
X137293744Y-104500795D01*
X137124226Y-104614063D01*
X136980063Y-104758226D01*
X136866795Y-104927744D01*
X136788774Y-105116102D01*
X136749000Y-105316061D01*
X131819000Y-105316061D01*
X131779226Y-105116102D01*
X131701205Y-104927744D01*
X131587937Y-104758226D01*
X131443774Y-104614063D01*
X131274256Y-104500795D01*
X131085898Y-104422774D01*
X130885939Y-104383000D01*
X130682061Y-104383000D01*
X130482102Y-104422774D01*
X130293744Y-104500795D01*
X130124226Y-104614063D01*
X129980063Y-104758226D01*
X129946000Y-104809205D01*
X129946000Y-103118000D01*
X130742057Y-103118000D01*
X130769764Y-103399309D01*
X130851818Y-103669808D01*
X130985068Y-103919101D01*
X131164392Y-104137608D01*
X131382899Y-104316932D01*
X131632192Y-104450182D01*
X131902691Y-104532236D01*
X132113508Y-104553000D01*
X132654492Y-104553000D01*
X132865309Y-104532236D01*
X133135808Y-104450182D01*
X133385101Y-104316932D01*
X133603608Y-104137608D01*
X133782932Y-103919101D01*
X133884000Y-103730016D01*
X133985068Y-103919101D01*
X134164392Y-104137608D01*
X134382899Y-104316932D01*
X134632192Y-104450182D01*
X134902691Y-104532236D01*
X135113508Y-104553000D01*
X135654492Y-104553000D01*
X135865309Y-104532236D01*
X136135808Y-104450182D01*
X136385101Y-104316932D01*
X136603608Y-104137608D01*
X136782932Y-103919101D01*
X136916182Y-103669808D01*
X136977690Y-103467039D01*
X137792096Y-103467039D01*
X137802556Y-103524730D01*
X137908449Y-103786421D01*
X138063361Y-104022425D01*
X138261338Y-104223673D01*
X138494773Y-104382430D01*
X138754694Y-104492596D01*
X139031113Y-104549937D01*
X139257000Y-104397474D01*
X139257000Y-103245000D01*
X139511000Y-103245000D01*
X139511000Y-104397474D01*
X139736887Y-104549937D01*
X140013306Y-104492596D01*
X140273227Y-104382430D01*
X140506662Y-104223673D01*
X140704639Y-104022425D01*
X140859551Y-103786421D01*
X140965444Y-103524730D01*
X140975904Y-103467039D01*
X140853915Y-103245000D01*
X139511000Y-103245000D01*
X139257000Y-103245000D01*
X137914085Y-103245000D01*
X137792096Y-103467039D01*
X136977690Y-103467039D01*
X136998236Y-103399309D01*
X137025943Y-103118000D01*
X136998236Y-102836691D01*
X136977691Y-102768961D01*
X137792096Y-102768961D01*
X137914085Y-102991000D01*
X139257000Y-102991000D01*
X139257000Y-101838526D01*
X139511000Y-101838526D01*
X139511000Y-102991000D01*
X140853915Y-102991000D01*
X140975904Y-102768961D01*
X140965444Y-102711270D01*
X140859551Y-102449579D01*
X140704639Y-102213575D01*
X140506662Y-102012327D01*
X140273227Y-101853570D01*
X140013306Y-101743404D01*
X139736887Y-101686063D01*
X139511000Y-101838526D01*
X139257000Y-101838526D01*
X139031113Y-101686063D01*
X138754694Y-101743404D01*
X138494773Y-101853570D01*
X138261338Y-102012327D01*
X138063361Y-102213575D01*
X137908449Y-102449579D01*
X137802556Y-102711270D01*
X137792096Y-102768961D01*
X136977691Y-102768961D01*
X136916182Y-102566192D01*
X136782932Y-102316899D01*
X136603608Y-102098392D01*
X136385101Y-101919068D01*
X136135808Y-101785818D01*
X135865309Y-101703764D01*
X135654492Y-101683000D01*
X135113508Y-101683000D01*
X134902691Y-101703764D01*
X134632192Y-101785818D01*
X134382899Y-101919068D01*
X134164392Y-102098392D01*
X133985068Y-102316899D01*
X133884000Y-102505984D01*
X133782932Y-102316899D01*
X133603608Y-102098392D01*
X133385101Y-101919068D01*
X133135808Y-101785818D01*
X132865309Y-101703764D01*
X132654492Y-101683000D01*
X132113508Y-101683000D01*
X131902691Y-101703764D01*
X131632192Y-101785818D01*
X131382899Y-101919068D01*
X131164392Y-102098392D01*
X130985068Y-102316899D01*
X130851818Y-102566192D01*
X130769764Y-102836691D01*
X130742057Y-103118000D01*
X129946000Y-103118000D01*
X129946000Y-100177039D01*
X142742096Y-100177039D01*
X142752556Y-100234730D01*
X142858449Y-100496421D01*
X143013361Y-100732425D01*
X143211338Y-100933673D01*
X143444773Y-101092430D01*
X143704694Y-101202596D01*
X143981113Y-101259937D01*
X144207000Y-101107474D01*
X144207000Y-99955000D01*
X144461000Y-99955000D01*
X144461000Y-101107474D01*
X144686887Y-101259937D01*
X144963306Y-101202596D01*
X145223227Y-101092430D01*
X145456662Y-100933673D01*
X145654639Y-100732425D01*
X145809551Y-100496421D01*
X145915444Y-100234730D01*
X145925904Y-100177039D01*
X145803915Y-99955000D01*
X144461000Y-99955000D01*
X144207000Y-99955000D01*
X142864085Y-99955000D01*
X142742096Y-100177039D01*
X129946000Y-100177039D01*
X129946000Y-96241061D01*
X131349000Y-96241061D01*
X131349000Y-96444939D01*
X131388774Y-96644898D01*
X131466795Y-96833256D01*
X131580063Y-97002774D01*
X131724226Y-97146937D01*
X131893744Y-97260205D01*
X132082102Y-97338226D01*
X132282061Y-97378000D01*
X132485939Y-97378000D01*
X132685898Y-97338226D01*
X132874256Y-97260205D01*
X133043774Y-97146937D01*
X133087711Y-97103000D01*
X133112199Y-97103000D01*
X133263195Y-97253996D01*
X133286998Y-97283000D01*
X133402723Y-97377973D01*
X133534752Y-97448545D01*
X133678013Y-97492002D01*
X133789666Y-97502999D01*
X133789676Y-97502999D01*
X133826998Y-97506675D01*
X133864321Y-97502999D01*
X144899000Y-97502999D01*
X144899000Y-97629939D01*
X144902195Y-97646001D01*
X135821321Y-97646001D01*
X135783998Y-97642325D01*
X135746676Y-97646001D01*
X135746666Y-97646001D01*
X135635013Y-97656998D01*
X135491752Y-97700455D01*
X135359774Y-97771000D01*
X135282061Y-97771000D01*
X135082102Y-97810774D01*
X134893744Y-97888795D01*
X134724226Y-98002063D01*
X134580063Y-98146226D01*
X134466795Y-98315744D01*
X134388774Y-98504102D01*
X134349000Y-98704061D01*
X134349000Y-98907939D01*
X134388774Y-99107898D01*
X134466795Y-99296256D01*
X134580063Y-99465774D01*
X134724226Y-99609937D01*
X134893744Y-99723205D01*
X135082102Y-99801226D01*
X135282061Y-99841000D01*
X135485939Y-99841000D01*
X135685898Y-99801226D01*
X135874256Y-99723205D01*
X136043774Y-99609937D01*
X136187937Y-99465774D01*
X136301205Y-99296256D01*
X136355159Y-99166001D01*
X142855850Y-99166001D01*
X142752556Y-99421270D01*
X142742096Y-99478961D01*
X142864085Y-99701000D01*
X144207000Y-99701000D01*
X144207000Y-99681000D01*
X144461000Y-99681000D01*
X144461000Y-99701000D01*
X145803915Y-99701000D01*
X145831674Y-99650475D01*
X146520201Y-100339003D01*
X146543999Y-100368001D01*
X146659724Y-100462974D01*
X146791753Y-100533546D01*
X146901843Y-100566941D01*
X146935068Y-100629101D01*
X147114392Y-100847608D01*
X147332899Y-101026932D01*
X147582192Y-101160182D01*
X147852691Y-101242236D01*
X148063508Y-101263000D01*
X148604492Y-101263000D01*
X148815309Y-101242236D01*
X149085808Y-101160182D01*
X149335101Y-101026932D01*
X149553608Y-100847608D01*
X149732932Y-100629101D01*
X149834000Y-100440016D01*
X149935068Y-100629101D01*
X150114392Y-100847608D01*
X150332899Y-101026932D01*
X150582192Y-101160182D01*
X150852691Y-101242236D01*
X151063508Y-101263000D01*
X151604492Y-101263000D01*
X151815309Y-101242236D01*
X152085808Y-101160182D01*
X152335101Y-101026932D01*
X152553608Y-100847608D01*
X152732932Y-100629101D01*
X152866182Y-100379808D01*
X152948236Y-100109309D01*
X152975943Y-99828000D01*
X152948236Y-99546691D01*
X152866182Y-99276192D01*
X152732932Y-99026899D01*
X152553608Y-98808392D01*
X152335101Y-98629068D01*
X152085808Y-98495818D01*
X151815309Y-98413764D01*
X151604492Y-98393000D01*
X151063508Y-98393000D01*
X150852691Y-98413764D01*
X150808094Y-98427292D01*
X148612803Y-96232002D01*
X148589000Y-96202998D01*
X148473275Y-96108025D01*
X148341246Y-96037453D01*
X148197985Y-95993996D01*
X148086332Y-95982999D01*
X148086321Y-95982999D01*
X148048999Y-95979323D01*
X148011677Y-95982999D01*
X144657574Y-95982999D01*
X144766182Y-95779808D01*
X144848236Y-95509309D01*
X144875943Y-95228000D01*
X144848236Y-94946691D01*
X144766182Y-94676192D01*
X144632932Y-94426899D01*
X144453608Y-94208392D01*
X144235101Y-94029068D01*
X143985808Y-93895818D01*
X143715309Y-93813764D01*
X143504492Y-93793000D01*
X142963508Y-93793000D01*
X142752691Y-93813764D01*
X142482192Y-93895818D01*
X142232899Y-94029068D01*
X142014392Y-94208392D01*
X141835068Y-94426899D01*
X141701818Y-94676192D01*
X141619764Y-94946691D01*
X141592057Y-95228000D01*
X141619764Y-95509309D01*
X141701818Y-95779808D01*
X141810426Y-95982999D01*
X134141800Y-95982999D01*
X133990804Y-95832003D01*
X133967001Y-95802999D01*
X133851276Y-95708026D01*
X133719247Y-95637454D01*
X133575986Y-95593997D01*
X133464333Y-95583000D01*
X133464322Y-95583000D01*
X133427000Y-95579324D01*
X133389678Y-95583000D01*
X133087711Y-95583000D01*
X133043774Y-95539063D01*
X132874256Y-95425795D01*
X132685898Y-95347774D01*
X132485939Y-95308000D01*
X132282061Y-95308000D01*
X132082102Y-95347774D01*
X131893744Y-95425795D01*
X131724226Y-95539063D01*
X131580063Y-95683226D01*
X131466795Y-95852744D01*
X131388774Y-96041102D01*
X131349000Y-96241061D01*
X129946000Y-96241061D01*
X129946000Y-90278795D01*
X129980063Y-90329774D01*
X130124226Y-90473937D01*
X130293744Y-90587205D01*
X130482102Y-90665226D01*
X130682061Y-90705000D01*
X130885939Y-90705000D01*
X131085898Y-90665226D01*
X131274256Y-90587205D01*
X131443774Y-90473937D01*
X131587937Y-90329774D01*
X131701205Y-90160256D01*
X131779226Y-89971898D01*
X131819000Y-89771939D01*
X131819000Y-89568061D01*
X136749000Y-89568061D01*
X136749000Y-89771939D01*
X136788774Y-89971898D01*
X136866795Y-90160256D01*
X136980063Y-90329774D01*
X137124226Y-90473937D01*
X137293744Y-90587205D01*
X137482102Y-90665226D01*
X137682061Y-90705000D01*
X137885939Y-90705000D01*
X138085898Y-90665226D01*
X138274256Y-90587205D01*
X138443774Y-90473937D01*
X138587937Y-90329774D01*
X138701205Y-90160256D01*
X138779226Y-89971898D01*
X138819000Y-89771939D01*
X138819000Y-89568061D01*
X138779226Y-89368102D01*
X138701205Y-89179744D01*
X138587937Y-89010226D01*
X138443774Y-88866063D01*
X138274256Y-88752795D01*
X138085898Y-88674774D01*
X137885939Y-88635000D01*
X137682061Y-88635000D01*
X137482102Y-88674774D01*
X137293744Y-88752795D01*
X137124226Y-88866063D01*
X136980063Y-89010226D01*
X136866795Y-89179744D01*
X136788774Y-89368102D01*
X136749000Y-89568061D01*
X131819000Y-89568061D01*
X131779226Y-89368102D01*
X131701205Y-89179744D01*
X131587937Y-89010226D01*
X131443774Y-88866063D01*
X131274256Y-88752795D01*
X131085898Y-88674774D01*
X130885939Y-88635000D01*
X130682061Y-88635000D01*
X130482102Y-88674774D01*
X130293744Y-88752795D01*
X130124226Y-88866063D01*
X129980063Y-89010226D01*
X129946000Y-89061205D01*
X129946000Y-86900281D01*
X129955885Y-86799467D01*
X129975789Y-86733543D01*
X130008115Y-86672745D01*
X130051639Y-86619381D01*
X130104696Y-86575488D01*
X130165271Y-86542734D01*
X130231053Y-86522372D01*
X130329730Y-86512000D01*
X131031764Y-86512000D01*
X130985068Y-86568899D01*
X130985068Y-86568899D01*
G37*
X130985068Y-86568899D02*
X130851818Y-86818192D01*
X130769764Y-87088691D01*
X130742057Y-87370000D01*
X130769764Y-87651309D01*
X130851818Y-87921808D01*
X130985068Y-88171101D01*
X131164392Y-88389608D01*
X131382899Y-88568932D01*
X131632192Y-88702182D01*
X131902691Y-88784236D01*
X132113508Y-88805000D01*
X132654492Y-88805000D01*
X132865309Y-88784236D01*
X133135808Y-88702182D01*
X133385101Y-88568932D01*
X133603608Y-88389608D01*
X133782932Y-88171101D01*
X133884000Y-87982016D01*
X133985068Y-88171101D01*
X134164392Y-88389608D01*
X134382899Y-88568932D01*
X134632192Y-88702182D01*
X134902691Y-88784236D01*
X135113508Y-88805000D01*
X135654492Y-88805000D01*
X135865309Y-88784236D01*
X136135808Y-88702182D01*
X136385101Y-88568932D01*
X136603608Y-88389608D01*
X136782932Y-88171101D01*
X136916182Y-87921808D01*
X136977690Y-87719039D01*
X137792096Y-87719039D01*
X137802556Y-87776730D01*
X137908449Y-88038421D01*
X138063361Y-88274425D01*
X138261338Y-88475673D01*
X138494773Y-88634430D01*
X138754694Y-88744596D01*
X139031113Y-88801937D01*
X139257000Y-88649474D01*
X139257000Y-87497000D01*
X139511000Y-87497000D01*
X139511000Y-88649474D01*
X139736887Y-88801937D01*
X140013306Y-88744596D01*
X140273227Y-88634430D01*
X140506662Y-88475673D01*
X140704639Y-88274425D01*
X140859551Y-88038421D01*
X140965444Y-87776730D01*
X140975904Y-87719039D01*
X140853915Y-87497000D01*
X139511000Y-87497000D01*
X139257000Y-87497000D01*
X137914085Y-87497000D01*
X137792096Y-87719039D01*
X136977690Y-87719039D01*
X136998236Y-87651309D01*
X137025943Y-87370000D01*
X136998236Y-87088691D01*
X136916182Y-86818192D01*
X136782932Y-86568899D01*
X136736236Y-86512000D01*
X138032888Y-86512000D01*
X137908449Y-86701579D01*
X137802556Y-86963270D01*
X137792096Y-87020961D01*
X137914085Y-87243000D01*
X139257000Y-87243000D01*
X139257000Y-87223000D01*
X139511000Y-87223000D01*
X139511000Y-87243000D01*
X140853915Y-87243000D01*
X140975904Y-87020961D01*
X140965444Y-86963270D01*
X140859551Y-86701579D01*
X140735112Y-86512000D01*
X141191719Y-86512000D01*
X141292533Y-86521885D01*
X141358457Y-86541789D01*
X141419255Y-86574115D01*
X141472619Y-86617639D01*
X141516512Y-86670696D01*
X141549266Y-86731271D01*
X141569628Y-86797053D01*
X141580000Y-86895731D01*
X141580001Y-90848950D01*
X141485101Y-90771068D01*
X141235808Y-90637818D01*
X140965309Y-90555764D01*
X140754492Y-90535000D01*
X140213508Y-90535000D01*
X140002691Y-90555764D01*
X139732192Y-90637818D01*
X139482899Y-90771068D01*
X139264392Y-90950392D01*
X139085068Y-91168899D01*
X138951818Y-91418192D01*
X138869764Y-91688691D01*
X138842057Y-91970000D01*
X138869764Y-92251309D01*
X138951818Y-92521808D01*
X139085068Y-92771101D01*
X139264392Y-92989608D01*
X139482899Y-93168932D01*
X139732192Y-93302182D01*
X140002691Y-93384236D01*
X140213508Y-93405000D01*
X140754492Y-93405000D01*
X140965309Y-93384236D01*
X141235808Y-93302182D01*
X141485101Y-93168932D01*
X141703608Y-92989608D01*
X141882932Y-92771101D01*
X142016182Y-92521808D01*
X142098236Y-92251309D01*
X142108150Y-92150649D01*
X142115851Y-92158513D01*
X142122952Y-92164387D01*
X142276614Y-92289711D01*
X142326423Y-92322803D01*
X142375795Y-92356610D01*
X142383902Y-92360993D01*
X142558980Y-92454084D01*
X142614275Y-92476875D01*
X142669270Y-92500446D01*
X142678074Y-92503171D01*
X142867900Y-92560482D01*
X142926566Y-92572098D01*
X142985087Y-92584537D01*
X142994252Y-92585500D01*
X143191593Y-92604850D01*
X143191598Y-92604850D01*
X143223581Y-92608000D01*
X153383719Y-92608000D01*
X153484533Y-92617885D01*
X153550457Y-92637789D01*
X153611255Y-92670115D01*
X153664619Y-92713639D01*
X153708512Y-92766696D01*
X153741266Y-92827271D01*
X153761628Y-92893053D01*
X153772000Y-92991731D01*
X153772000Y-96919206D01*
X153737937Y-96868226D01*
X153593774Y-96724063D01*
X153424256Y-96610795D01*
X153235898Y-96532774D01*
X153035939Y-96493000D01*
X152832061Y-96493000D01*
X152632102Y-96532774D01*
X152443744Y-96610795D01*
X152274226Y-96724063D01*
X152130063Y-96868226D01*
X152016795Y-97037744D01*
X151938774Y-97226102D01*
X151899000Y-97426061D01*
X151899000Y-97629939D01*
X151938774Y-97829898D01*
X152016795Y-98018256D01*
X152130063Y-98187774D01*
X152274226Y-98331937D01*
X152443744Y-98445205D01*
X152632102Y-98523226D01*
X152832061Y-98563000D01*
X153035939Y-98563000D01*
X153235898Y-98523226D01*
X153424256Y-98445205D01*
X153593774Y-98331937D01*
X153737937Y-98187774D01*
X153772001Y-98136794D01*
X153772001Y-101821709D01*
X153762115Y-101922531D01*
X153742211Y-101988458D01*
X153709885Y-102049255D01*
X153666362Y-102102618D01*
X153613300Y-102146515D01*
X153552727Y-102179266D01*
X153486947Y-102199628D01*
X153388269Y-102210000D01*
X143223581Y-102210000D01*
X143195309Y-102212784D01*
X143189088Y-102212741D01*
X143179917Y-102213641D01*
X142982715Y-102234368D01*
X142924151Y-102246390D01*
X142865362Y-102257604D01*
X142856540Y-102260268D01*
X142667118Y-102318903D01*
X142612005Y-102342071D01*
X142556507Y-102364493D01*
X142548371Y-102368820D01*
X142373947Y-102463130D01*
X142324331Y-102496597D01*
X142274301Y-102529335D01*
X142267160Y-102535159D01*
X142114376Y-102661553D01*
X142072237Y-102703988D01*
X142029487Y-102745851D01*
X142023613Y-102752952D01*
X141898289Y-102906614D01*
X141865174Y-102956456D01*
X141831390Y-103005796D01*
X141827007Y-103013902D01*
X141733916Y-103188980D01*
X141711125Y-103244275D01*
X141687554Y-103299270D01*
X141684829Y-103308073D01*
X141627518Y-103497900D01*
X141615900Y-103556580D01*
X141603463Y-103615087D01*
X141602500Y-103624252D01*
X141583150Y-103821594D01*
X141583150Y-103821599D01*
X141580000Y-103853582D01*
X141580001Y-106596950D01*
X141485101Y-106519068D01*
X141235808Y-106385818D01*
X140965309Y-106303764D01*
X140754492Y-106283000D01*
X140213508Y-106283000D01*
X140002691Y-106303764D01*
X139732192Y-106385818D01*
X139482899Y-106519068D01*
X139264392Y-106698392D01*
X139085068Y-106916899D01*
X138951818Y-107166192D01*
X138869764Y-107436691D01*
X138842057Y-107718000D01*
X138869764Y-107999309D01*
X138951818Y-108269808D01*
X139085068Y-108519101D01*
X139118633Y-108560000D01*
X130334281Y-108560000D01*
X130233469Y-108550115D01*
X130167542Y-108530211D01*
X130106745Y-108497885D01*
X130053382Y-108454362D01*
X130009485Y-108401300D01*
X129976734Y-108340727D01*
X129956372Y-108274947D01*
X129946000Y-108176269D01*
X129946000Y-106026795D01*
X129980063Y-106077774D01*
X130124226Y-106221937D01*
X130293744Y-106335205D01*
X130482102Y-106413226D01*
X130682061Y-106453000D01*
X130885939Y-106453000D01*
X131085898Y-106413226D01*
X131274256Y-106335205D01*
X131443774Y-106221937D01*
X131587937Y-106077774D01*
X131701205Y-105908256D01*
X131779226Y-105719898D01*
X131819000Y-105519939D01*
X131819000Y-105316061D01*
X136749000Y-105316061D01*
X136749000Y-105519939D01*
X136788774Y-105719898D01*
X136866795Y-105908256D01*
X136980063Y-106077774D01*
X137124226Y-106221937D01*
X137293744Y-106335205D01*
X137482102Y-106413226D01*
X137682061Y-106453000D01*
X137885939Y-106453000D01*
X138085898Y-106413226D01*
X138274256Y-106335205D01*
X138443774Y-106221937D01*
X138587937Y-106077774D01*
X138701205Y-105908256D01*
X138779226Y-105719898D01*
X138819000Y-105519939D01*
X138819000Y-105316061D01*
X138779226Y-105116102D01*
X138701205Y-104927744D01*
X138587937Y-104758226D01*
X138443774Y-104614063D01*
X138274256Y-104500795D01*
X138085898Y-104422774D01*
X137885939Y-104383000D01*
X137682061Y-104383000D01*
X137482102Y-104422774D01*
X137293744Y-104500795D01*
X137124226Y-104614063D01*
X136980063Y-104758226D01*
X136866795Y-104927744D01*
X136788774Y-105116102D01*
X136749000Y-105316061D01*
X131819000Y-105316061D01*
X131779226Y-105116102D01*
X131701205Y-104927744D01*
X131587937Y-104758226D01*
X131443774Y-104614063D01*
X131274256Y-104500795D01*
X131085898Y-104422774D01*
X130885939Y-104383000D01*
X130682061Y-104383000D01*
X130482102Y-104422774D01*
X130293744Y-104500795D01*
X130124226Y-104614063D01*
X129980063Y-104758226D01*
X129946000Y-104809205D01*
X129946000Y-103118000D01*
X130742057Y-103118000D01*
X130769764Y-103399309D01*
X130851818Y-103669808D01*
X130985068Y-103919101D01*
X131164392Y-104137608D01*
X131382899Y-104316932D01*
X131632192Y-104450182D01*
X131902691Y-104532236D01*
X132113508Y-104553000D01*
X132654492Y-104553000D01*
X132865309Y-104532236D01*
X133135808Y-104450182D01*
X133385101Y-104316932D01*
X133603608Y-104137608D01*
X133782932Y-103919101D01*
X133884000Y-103730016D01*
X133985068Y-103919101D01*
X134164392Y-104137608D01*
X134382899Y-104316932D01*
X134632192Y-104450182D01*
X134902691Y-104532236D01*
X135113508Y-104553000D01*
X135654492Y-104553000D01*
X135865309Y-104532236D01*
X136135808Y-104450182D01*
X136385101Y-104316932D01*
X136603608Y-104137608D01*
X136782932Y-103919101D01*
X136916182Y-103669808D01*
X136977690Y-103467039D01*
X137792096Y-103467039D01*
X137802556Y-103524730D01*
X137908449Y-103786421D01*
X138063361Y-104022425D01*
X138261338Y-104223673D01*
X138494773Y-104382430D01*
X138754694Y-104492596D01*
X139031113Y-104549937D01*
X139257000Y-104397474D01*
X139257000Y-103245000D01*
X139511000Y-103245000D01*
X139511000Y-104397474D01*
X139736887Y-104549937D01*
X140013306Y-104492596D01*
X140273227Y-104382430D01*
X140506662Y-104223673D01*
X140704639Y-104022425D01*
X140859551Y-103786421D01*
X140965444Y-103524730D01*
X140975904Y-103467039D01*
X140853915Y-103245000D01*
X139511000Y-103245000D01*
X139257000Y-103245000D01*
X137914085Y-103245000D01*
X137792096Y-103467039D01*
X136977690Y-103467039D01*
X136998236Y-103399309D01*
X137025943Y-103118000D01*
X136998236Y-102836691D01*
X136977691Y-102768961D01*
X137792096Y-102768961D01*
X137914085Y-102991000D01*
X139257000Y-102991000D01*
X139257000Y-101838526D01*
X139511000Y-101838526D01*
X139511000Y-102991000D01*
X140853915Y-102991000D01*
X140975904Y-102768961D01*
X140965444Y-102711270D01*
X140859551Y-102449579D01*
X140704639Y-102213575D01*
X140506662Y-102012327D01*
X140273227Y-101853570D01*
X140013306Y-101743404D01*
X139736887Y-101686063D01*
X139511000Y-101838526D01*
X139257000Y-101838526D01*
X139031113Y-101686063D01*
X138754694Y-101743404D01*
X138494773Y-101853570D01*
X138261338Y-102012327D01*
X138063361Y-102213575D01*
X137908449Y-102449579D01*
X137802556Y-102711270D01*
X137792096Y-102768961D01*
X136977691Y-102768961D01*
X136916182Y-102566192D01*
X136782932Y-102316899D01*
X136603608Y-102098392D01*
X136385101Y-101919068D01*
X136135808Y-101785818D01*
X135865309Y-101703764D01*
X135654492Y-101683000D01*
X135113508Y-101683000D01*
X134902691Y-101703764D01*
X134632192Y-101785818D01*
X134382899Y-101919068D01*
X134164392Y-102098392D01*
X133985068Y-102316899D01*
X133884000Y-102505984D01*
X133782932Y-102316899D01*
X133603608Y-102098392D01*
X133385101Y-101919068D01*
X133135808Y-101785818D01*
X132865309Y-101703764D01*
X132654492Y-101683000D01*
X132113508Y-101683000D01*
X131902691Y-101703764D01*
X131632192Y-101785818D01*
X131382899Y-101919068D01*
X131164392Y-102098392D01*
X130985068Y-102316899D01*
X130851818Y-102566192D01*
X130769764Y-102836691D01*
X130742057Y-103118000D01*
X129946000Y-103118000D01*
X129946000Y-100177039D01*
X142742096Y-100177039D01*
X142752556Y-100234730D01*
X142858449Y-100496421D01*
X143013361Y-100732425D01*
X143211338Y-100933673D01*
X143444773Y-101092430D01*
X143704694Y-101202596D01*
X143981113Y-101259937D01*
X144207000Y-101107474D01*
X144207000Y-99955000D01*
X144461000Y-99955000D01*
X144461000Y-101107474D01*
X144686887Y-101259937D01*
X144963306Y-101202596D01*
X145223227Y-101092430D01*
X145456662Y-100933673D01*
X145654639Y-100732425D01*
X145809551Y-100496421D01*
X145915444Y-100234730D01*
X145925904Y-100177039D01*
X145803915Y-99955000D01*
X144461000Y-99955000D01*
X144207000Y-99955000D01*
X142864085Y-99955000D01*
X142742096Y-100177039D01*
X129946000Y-100177039D01*
X129946000Y-96241061D01*
X131349000Y-96241061D01*
X131349000Y-96444939D01*
X131388774Y-96644898D01*
X131466795Y-96833256D01*
X131580063Y-97002774D01*
X131724226Y-97146937D01*
X131893744Y-97260205D01*
X132082102Y-97338226D01*
X132282061Y-97378000D01*
X132485939Y-97378000D01*
X132685898Y-97338226D01*
X132874256Y-97260205D01*
X133043774Y-97146937D01*
X133087711Y-97103000D01*
X133112199Y-97103000D01*
X133263195Y-97253996D01*
X133286998Y-97283000D01*
X133402723Y-97377973D01*
X133534752Y-97448545D01*
X133678013Y-97492002D01*
X133789666Y-97502999D01*
X133789676Y-97502999D01*
X133826998Y-97506675D01*
X133864321Y-97502999D01*
X144899000Y-97502999D01*
X144899000Y-97629939D01*
X144902195Y-97646001D01*
X135821321Y-97646001D01*
X135783998Y-97642325D01*
X135746676Y-97646001D01*
X135746666Y-97646001D01*
X135635013Y-97656998D01*
X135491752Y-97700455D01*
X135359774Y-97771000D01*
X135282061Y-97771000D01*
X135082102Y-97810774D01*
X134893744Y-97888795D01*
X134724226Y-98002063D01*
X134580063Y-98146226D01*
X134466795Y-98315744D01*
X134388774Y-98504102D01*
X134349000Y-98704061D01*
X134349000Y-98907939D01*
X134388774Y-99107898D01*
X134466795Y-99296256D01*
X134580063Y-99465774D01*
X134724226Y-99609937D01*
X134893744Y-99723205D01*
X135082102Y-99801226D01*
X135282061Y-99841000D01*
X135485939Y-99841000D01*
X135685898Y-99801226D01*
X135874256Y-99723205D01*
X136043774Y-99609937D01*
X136187937Y-99465774D01*
X136301205Y-99296256D01*
X136355159Y-99166001D01*
X142855850Y-99166001D01*
X142752556Y-99421270D01*
X142742096Y-99478961D01*
X142864085Y-99701000D01*
X144207000Y-99701000D01*
X144207000Y-99681000D01*
X144461000Y-99681000D01*
X144461000Y-99701000D01*
X145803915Y-99701000D01*
X145831674Y-99650475D01*
X146520201Y-100339003D01*
X146543999Y-100368001D01*
X146659724Y-100462974D01*
X146791753Y-100533546D01*
X146901843Y-100566941D01*
X146935068Y-100629101D01*
X147114392Y-100847608D01*
X147332899Y-101026932D01*
X147582192Y-101160182D01*
X147852691Y-101242236D01*
X148063508Y-101263000D01*
X148604492Y-101263000D01*
X148815309Y-101242236D01*
X149085808Y-101160182D01*
X149335101Y-101026932D01*
X149553608Y-100847608D01*
X149732932Y-100629101D01*
X149834000Y-100440016D01*
X149935068Y-100629101D01*
X150114392Y-100847608D01*
X150332899Y-101026932D01*
X150582192Y-101160182D01*
X150852691Y-101242236D01*
X151063508Y-101263000D01*
X151604492Y-101263000D01*
X151815309Y-101242236D01*
X152085808Y-101160182D01*
X152335101Y-101026932D01*
X152553608Y-100847608D01*
X152732932Y-100629101D01*
X152866182Y-100379808D01*
X152948236Y-100109309D01*
X152975943Y-99828000D01*
X152948236Y-99546691D01*
X152866182Y-99276192D01*
X152732932Y-99026899D01*
X152553608Y-98808392D01*
X152335101Y-98629068D01*
X152085808Y-98495818D01*
X151815309Y-98413764D01*
X151604492Y-98393000D01*
X151063508Y-98393000D01*
X150852691Y-98413764D01*
X150808094Y-98427292D01*
X148612803Y-96232002D01*
X148589000Y-96202998D01*
X148473275Y-96108025D01*
X148341246Y-96037453D01*
X148197985Y-95993996D01*
X148086332Y-95982999D01*
X148086321Y-95982999D01*
X148048999Y-95979323D01*
X148011677Y-95982999D01*
X144657574Y-95982999D01*
X144766182Y-95779808D01*
X144848236Y-95509309D01*
X144875943Y-95228000D01*
X144848236Y-94946691D01*
X144766182Y-94676192D01*
X144632932Y-94426899D01*
X144453608Y-94208392D01*
X144235101Y-94029068D01*
X143985808Y-93895818D01*
X143715309Y-93813764D01*
X143504492Y-93793000D01*
X142963508Y-93793000D01*
X142752691Y-93813764D01*
X142482192Y-93895818D01*
X142232899Y-94029068D01*
X142014392Y-94208392D01*
X141835068Y-94426899D01*
X141701818Y-94676192D01*
X141619764Y-94946691D01*
X141592057Y-95228000D01*
X141619764Y-95509309D01*
X141701818Y-95779808D01*
X141810426Y-95982999D01*
X134141800Y-95982999D01*
X133990804Y-95832003D01*
X133967001Y-95802999D01*
X133851276Y-95708026D01*
X133719247Y-95637454D01*
X133575986Y-95593997D01*
X133464333Y-95583000D01*
X133464322Y-95583000D01*
X133427000Y-95579324D01*
X133389678Y-95583000D01*
X133087711Y-95583000D01*
X133043774Y-95539063D01*
X132874256Y-95425795D01*
X132685898Y-95347774D01*
X132485939Y-95308000D01*
X132282061Y-95308000D01*
X132082102Y-95347774D01*
X131893744Y-95425795D01*
X131724226Y-95539063D01*
X131580063Y-95683226D01*
X131466795Y-95852744D01*
X131388774Y-96041102D01*
X131349000Y-96241061D01*
X129946000Y-96241061D01*
X129946000Y-90278795D01*
X129980063Y-90329774D01*
X130124226Y-90473937D01*
X130293744Y-90587205D01*
X130482102Y-90665226D01*
X130682061Y-90705000D01*
X130885939Y-90705000D01*
X131085898Y-90665226D01*
X131274256Y-90587205D01*
X131443774Y-90473937D01*
X131587937Y-90329774D01*
X131701205Y-90160256D01*
X131779226Y-89971898D01*
X131819000Y-89771939D01*
X131819000Y-89568061D01*
X136749000Y-89568061D01*
X136749000Y-89771939D01*
X136788774Y-89971898D01*
X136866795Y-90160256D01*
X136980063Y-90329774D01*
X137124226Y-90473937D01*
X137293744Y-90587205D01*
X137482102Y-90665226D01*
X137682061Y-90705000D01*
X137885939Y-90705000D01*
X138085898Y-90665226D01*
X138274256Y-90587205D01*
X138443774Y-90473937D01*
X138587937Y-90329774D01*
X138701205Y-90160256D01*
X138779226Y-89971898D01*
X138819000Y-89771939D01*
X138819000Y-89568061D01*
X138779226Y-89368102D01*
X138701205Y-89179744D01*
X138587937Y-89010226D01*
X138443774Y-88866063D01*
X138274256Y-88752795D01*
X138085898Y-88674774D01*
X137885939Y-88635000D01*
X137682061Y-88635000D01*
X137482102Y-88674774D01*
X137293744Y-88752795D01*
X137124226Y-88866063D01*
X136980063Y-89010226D01*
X136866795Y-89179744D01*
X136788774Y-89368102D01*
X136749000Y-89568061D01*
X131819000Y-89568061D01*
X131779226Y-89368102D01*
X131701205Y-89179744D01*
X131587937Y-89010226D01*
X131443774Y-88866063D01*
X131274256Y-88752795D01*
X131085898Y-88674774D01*
X130885939Y-88635000D01*
X130682061Y-88635000D01*
X130482102Y-88674774D01*
X130293744Y-88752795D01*
X130124226Y-88866063D01*
X129980063Y-89010226D01*
X129946000Y-89061205D01*
X129946000Y-86900281D01*
X129955885Y-86799467D01*
X129975789Y-86733543D01*
X130008115Y-86672745D01*
X130051639Y-86619381D01*
X130104696Y-86575488D01*
X130165271Y-86542734D01*
X130231053Y-86522372D01*
X130329730Y-86512000D01*
X131031764Y-86512000D01*
X130985068Y-86568899D01*
M02*
