G04 #@! TF.GenerationSoftware,KiCad,Pcbnew,5.1.3-ffb9f22~84~ubuntu16.04.1*
G04 #@! TF.CreationDate,2019-07-24T12:54:31-04:00*
G04 #@! TF.ProjectId,red_touch_sensor_trrs_pcb,7265645f-746f-4756-9368-5f73656e736f,1.0*
G04 #@! TF.SameCoordinates,Original*
G04 #@! TF.FileFunction,Copper,L1,Top*
G04 #@! TF.FilePolarity,Positive*
%FSLAX46Y46*%
G04 Gerber Fmt 4.6, Leading zero omitted, Abs format (unit mm)*
G04 Created by KiCad (PCBNEW 5.1.3-ffb9f22~84~ubuntu16.04.1) date 2019-07-24 12:54:31*
%MOMM*%
%LPD*%
G04 APERTURE LIST*
%ADD10O,1.700000X1.700000*%
%ADD11R,1.700000X1.700000*%
%ADD12O,1.600000X2.000000*%
%ADD13C,0.250000*%
%ADD14C,0.254000*%
G04 APERTURE END LIST*
D10*
X132842000Y-113284000D03*
X135382000Y-113284000D03*
D11*
X137922000Y-113284000D03*
D12*
X137817000Y-109369000D03*
X133217000Y-108269000D03*
X133217000Y-101269000D03*
X133217000Y-104269000D03*
D13*
X133318000Y-104880000D02*
X133118000Y-104880000D01*
X135382000Y-112081919D02*
X135382000Y-113284000D01*
X135382000Y-107684000D02*
X135382000Y-112081919D01*
X133217000Y-105519000D02*
X135382000Y-107684000D01*
X133217000Y-104269000D02*
X133217000Y-105519000D01*
D14*
G36*
X134521774Y-99367102D02*
G01*
X134482000Y-99567061D01*
X134482000Y-99770939D01*
X134521774Y-99970898D01*
X134599795Y-100159256D01*
X134713063Y-100328774D01*
X134857226Y-100472937D01*
X135026744Y-100586205D01*
X135215102Y-100664226D01*
X135415061Y-100704000D01*
X135618939Y-100704000D01*
X135818898Y-100664226D01*
X136007256Y-100586205D01*
X136176774Y-100472937D01*
X136320937Y-100328774D01*
X136434205Y-100159256D01*
X136512226Y-99970898D01*
X136552000Y-99770939D01*
X136552000Y-99567061D01*
X136512226Y-99367102D01*
X136447980Y-99212000D01*
X139159719Y-99212000D01*
X139260533Y-99221885D01*
X139326457Y-99241789D01*
X139387255Y-99274115D01*
X139440619Y-99317639D01*
X139484512Y-99370696D01*
X139517266Y-99431271D01*
X139537628Y-99497053D01*
X139548001Y-99595740D01*
X139548000Y-114267719D01*
X139538115Y-114368531D01*
X139518211Y-114434458D01*
X139485885Y-114495255D01*
X139442362Y-114548618D01*
X139389300Y-114592515D01*
X139328727Y-114625266D01*
X139262947Y-114645628D01*
X139164269Y-114656000D01*
X139136896Y-114656000D01*
X139223185Y-114585185D01*
X139302537Y-114488494D01*
X139361502Y-114378180D01*
X139397812Y-114258482D01*
X139410072Y-114134000D01*
X139410072Y-112434000D01*
X139397812Y-112309518D01*
X139361502Y-112189820D01*
X139302537Y-112079506D01*
X139223185Y-111982815D01*
X139126494Y-111903463D01*
X139016180Y-111844498D01*
X138896482Y-111808188D01*
X138772000Y-111795928D01*
X137072000Y-111795928D01*
X136947518Y-111808188D01*
X136827820Y-111844498D01*
X136717506Y-111903463D01*
X136620815Y-111982815D01*
X136541463Y-112079506D01*
X136482498Y-112189820D01*
X136461607Y-112258687D01*
X136437134Y-112228866D01*
X136211014Y-112043294D01*
X136142000Y-112006405D01*
X136142000Y-109098508D01*
X136382000Y-109098508D01*
X136382000Y-109639491D01*
X136402764Y-109850308D01*
X136484818Y-110120807D01*
X136618068Y-110370100D01*
X136797392Y-110588607D01*
X137015899Y-110767932D01*
X137265192Y-110901182D01*
X137535691Y-110983236D01*
X137817000Y-111010943D01*
X138098308Y-110983236D01*
X138368807Y-110901182D01*
X138618100Y-110767932D01*
X138836607Y-110588608D01*
X139015932Y-110370101D01*
X139149182Y-110120808D01*
X139231236Y-109850309D01*
X139252000Y-109639492D01*
X139252000Y-109098509D01*
X139231236Y-108887692D01*
X139149182Y-108617193D01*
X139015932Y-108367899D01*
X138836608Y-108149392D01*
X138618101Y-107970068D01*
X138368808Y-107836818D01*
X138098309Y-107754764D01*
X137817000Y-107727057D01*
X137535692Y-107754764D01*
X137265193Y-107836818D01*
X137015900Y-107970068D01*
X136797393Y-108149392D01*
X136618068Y-108367899D01*
X136484818Y-108617192D01*
X136402764Y-108887691D01*
X136382000Y-109098508D01*
X136142000Y-109098508D01*
X136142000Y-107721322D01*
X136145676Y-107683999D01*
X136142000Y-107646676D01*
X136142000Y-107646667D01*
X136131003Y-107535014D01*
X136123060Y-107508828D01*
X136176774Y-107472937D01*
X136320937Y-107328774D01*
X136434205Y-107159256D01*
X136512226Y-106970898D01*
X136552000Y-106770939D01*
X136552000Y-106567061D01*
X136512226Y-106367102D01*
X136434205Y-106178744D01*
X136320937Y-106009226D01*
X136176774Y-105865063D01*
X136007256Y-105751795D01*
X135818898Y-105673774D01*
X135618939Y-105634000D01*
X135415061Y-105634000D01*
X135215102Y-105673774D01*
X135026744Y-105751795D01*
X134857226Y-105865063D01*
X134747545Y-105974744D01*
X134247787Y-105474986D01*
X134415932Y-105270101D01*
X134549182Y-105020808D01*
X134631236Y-104750309D01*
X134652000Y-104539492D01*
X134652000Y-103998509D01*
X134631236Y-103787692D01*
X134549182Y-103517193D01*
X134415932Y-103267899D01*
X134236608Y-103049392D01*
X134018101Y-102870068D01*
X133829016Y-102769000D01*
X134018100Y-102667932D01*
X134236607Y-102488608D01*
X134415932Y-102270101D01*
X134549182Y-102020808D01*
X134631236Y-101750309D01*
X134652000Y-101539492D01*
X134652000Y-100998509D01*
X134631236Y-100787692D01*
X134549182Y-100517193D01*
X134415932Y-100267899D01*
X134236608Y-100049392D01*
X134018101Y-99870068D01*
X133768808Y-99736818D01*
X133498309Y-99654764D01*
X133217000Y-99627057D01*
X132935692Y-99654764D01*
X132665193Y-99736818D01*
X132415900Y-99870068D01*
X132197393Y-100049392D01*
X132018068Y-100267899D01*
X131884818Y-100517192D01*
X131802764Y-100787691D01*
X131782000Y-100998508D01*
X131782000Y-101539491D01*
X131802764Y-101750308D01*
X131884818Y-102020807D01*
X132018068Y-102270100D01*
X132197392Y-102488607D01*
X132415899Y-102667932D01*
X132604984Y-102769000D01*
X132415900Y-102870068D01*
X132197393Y-103049392D01*
X132018068Y-103267899D01*
X131884818Y-103517192D01*
X131802764Y-103787691D01*
X131782000Y-103998508D01*
X131782000Y-104539491D01*
X131802764Y-104750308D01*
X131884818Y-105020807D01*
X132018068Y-105270100D01*
X132197392Y-105488607D01*
X132415899Y-105667932D01*
X132478061Y-105701158D01*
X132511454Y-105811246D01*
X132582026Y-105943276D01*
X132653201Y-106030002D01*
X132677000Y-106059001D01*
X132705998Y-106082799D01*
X133394525Y-106771326D01*
X133344000Y-106799085D01*
X133344000Y-108142000D01*
X133364000Y-108142000D01*
X133364000Y-108396000D01*
X133344000Y-108396000D01*
X133344000Y-109738915D01*
X133566039Y-109860904D01*
X133623730Y-109850444D01*
X133885421Y-109744551D01*
X134121425Y-109589639D01*
X134322673Y-109391662D01*
X134481430Y-109158227D01*
X134591596Y-108898306D01*
X134622000Y-108751739D01*
X134622001Y-112006405D01*
X134552986Y-112043294D01*
X134326866Y-112228866D01*
X134141294Y-112454986D01*
X134106799Y-112519523D01*
X134037178Y-112402645D01*
X133842269Y-112186412D01*
X133608920Y-112012359D01*
X133346099Y-111887175D01*
X133198890Y-111842524D01*
X132969000Y-111963845D01*
X132969000Y-113157000D01*
X132989000Y-113157000D01*
X132989000Y-113411000D01*
X132969000Y-113411000D01*
X132969000Y-113431000D01*
X132715000Y-113431000D01*
X132715000Y-113411000D01*
X131521186Y-113411000D01*
X131400519Y-113640891D01*
X131497843Y-113915252D01*
X131646822Y-114165355D01*
X131841731Y-114381588D01*
X132075080Y-114555641D01*
X132285781Y-114656000D01*
X131604281Y-114656000D01*
X131503469Y-114646115D01*
X131437542Y-114626211D01*
X131376745Y-114593885D01*
X131323382Y-114550362D01*
X131279485Y-114497300D01*
X131246734Y-114436727D01*
X131226372Y-114370947D01*
X131216000Y-114272269D01*
X131216000Y-112927109D01*
X131400519Y-112927109D01*
X131521186Y-113157000D01*
X132715000Y-113157000D01*
X132715000Y-111963845D01*
X132485110Y-111842524D01*
X132337901Y-111887175D01*
X132075080Y-112012359D01*
X131841731Y-112186412D01*
X131646822Y-112402645D01*
X131497843Y-112652748D01*
X131400519Y-112927109D01*
X131216000Y-112927109D01*
X131216000Y-108621887D01*
X131785063Y-108621887D01*
X131842404Y-108898306D01*
X131952570Y-109158227D01*
X132111327Y-109391662D01*
X132312575Y-109589639D01*
X132548579Y-109744551D01*
X132810270Y-109850444D01*
X132867961Y-109860904D01*
X133090000Y-109738915D01*
X133090000Y-108396000D01*
X131937526Y-108396000D01*
X131785063Y-108621887D01*
X131216000Y-108621887D01*
X131216000Y-107916113D01*
X131785063Y-107916113D01*
X131937526Y-108142000D01*
X133090000Y-108142000D01*
X133090000Y-106799085D01*
X132867961Y-106677096D01*
X132810270Y-106687556D01*
X132548579Y-106793449D01*
X132312575Y-106948361D01*
X132111327Y-107146338D01*
X131952570Y-107379773D01*
X131842404Y-107639694D01*
X131785063Y-107916113D01*
X131216000Y-107916113D01*
X131216000Y-99600281D01*
X131225885Y-99499467D01*
X131245789Y-99433543D01*
X131278115Y-99372745D01*
X131321639Y-99319381D01*
X131374696Y-99275488D01*
X131435271Y-99242734D01*
X131501053Y-99222372D01*
X131599730Y-99212000D01*
X134586020Y-99212000D01*
X134521774Y-99367102D01*
X134521774Y-99367102D01*
G37*
X134521774Y-99367102D02*
X134482000Y-99567061D01*
X134482000Y-99770939D01*
X134521774Y-99970898D01*
X134599795Y-100159256D01*
X134713063Y-100328774D01*
X134857226Y-100472937D01*
X135026744Y-100586205D01*
X135215102Y-100664226D01*
X135415061Y-100704000D01*
X135618939Y-100704000D01*
X135818898Y-100664226D01*
X136007256Y-100586205D01*
X136176774Y-100472937D01*
X136320937Y-100328774D01*
X136434205Y-100159256D01*
X136512226Y-99970898D01*
X136552000Y-99770939D01*
X136552000Y-99567061D01*
X136512226Y-99367102D01*
X136447980Y-99212000D01*
X139159719Y-99212000D01*
X139260533Y-99221885D01*
X139326457Y-99241789D01*
X139387255Y-99274115D01*
X139440619Y-99317639D01*
X139484512Y-99370696D01*
X139517266Y-99431271D01*
X139537628Y-99497053D01*
X139548001Y-99595740D01*
X139548000Y-114267719D01*
X139538115Y-114368531D01*
X139518211Y-114434458D01*
X139485885Y-114495255D01*
X139442362Y-114548618D01*
X139389300Y-114592515D01*
X139328727Y-114625266D01*
X139262947Y-114645628D01*
X139164269Y-114656000D01*
X139136896Y-114656000D01*
X139223185Y-114585185D01*
X139302537Y-114488494D01*
X139361502Y-114378180D01*
X139397812Y-114258482D01*
X139410072Y-114134000D01*
X139410072Y-112434000D01*
X139397812Y-112309518D01*
X139361502Y-112189820D01*
X139302537Y-112079506D01*
X139223185Y-111982815D01*
X139126494Y-111903463D01*
X139016180Y-111844498D01*
X138896482Y-111808188D01*
X138772000Y-111795928D01*
X137072000Y-111795928D01*
X136947518Y-111808188D01*
X136827820Y-111844498D01*
X136717506Y-111903463D01*
X136620815Y-111982815D01*
X136541463Y-112079506D01*
X136482498Y-112189820D01*
X136461607Y-112258687D01*
X136437134Y-112228866D01*
X136211014Y-112043294D01*
X136142000Y-112006405D01*
X136142000Y-109098508D01*
X136382000Y-109098508D01*
X136382000Y-109639491D01*
X136402764Y-109850308D01*
X136484818Y-110120807D01*
X136618068Y-110370100D01*
X136797392Y-110588607D01*
X137015899Y-110767932D01*
X137265192Y-110901182D01*
X137535691Y-110983236D01*
X137817000Y-111010943D01*
X138098308Y-110983236D01*
X138368807Y-110901182D01*
X138618100Y-110767932D01*
X138836607Y-110588608D01*
X139015932Y-110370101D01*
X139149182Y-110120808D01*
X139231236Y-109850309D01*
X139252000Y-109639492D01*
X139252000Y-109098509D01*
X139231236Y-108887692D01*
X139149182Y-108617193D01*
X139015932Y-108367899D01*
X138836608Y-108149392D01*
X138618101Y-107970068D01*
X138368808Y-107836818D01*
X138098309Y-107754764D01*
X137817000Y-107727057D01*
X137535692Y-107754764D01*
X137265193Y-107836818D01*
X137015900Y-107970068D01*
X136797393Y-108149392D01*
X136618068Y-108367899D01*
X136484818Y-108617192D01*
X136402764Y-108887691D01*
X136382000Y-109098508D01*
X136142000Y-109098508D01*
X136142000Y-107721322D01*
X136145676Y-107683999D01*
X136142000Y-107646676D01*
X136142000Y-107646667D01*
X136131003Y-107535014D01*
X136123060Y-107508828D01*
X136176774Y-107472937D01*
X136320937Y-107328774D01*
X136434205Y-107159256D01*
X136512226Y-106970898D01*
X136552000Y-106770939D01*
X136552000Y-106567061D01*
X136512226Y-106367102D01*
X136434205Y-106178744D01*
X136320937Y-106009226D01*
X136176774Y-105865063D01*
X136007256Y-105751795D01*
X135818898Y-105673774D01*
X135618939Y-105634000D01*
X135415061Y-105634000D01*
X135215102Y-105673774D01*
X135026744Y-105751795D01*
X134857226Y-105865063D01*
X134747545Y-105974744D01*
X134247787Y-105474986D01*
X134415932Y-105270101D01*
X134549182Y-105020808D01*
X134631236Y-104750309D01*
X134652000Y-104539492D01*
X134652000Y-103998509D01*
X134631236Y-103787692D01*
X134549182Y-103517193D01*
X134415932Y-103267899D01*
X134236608Y-103049392D01*
X134018101Y-102870068D01*
X133829016Y-102769000D01*
X134018100Y-102667932D01*
X134236607Y-102488608D01*
X134415932Y-102270101D01*
X134549182Y-102020808D01*
X134631236Y-101750309D01*
X134652000Y-101539492D01*
X134652000Y-100998509D01*
X134631236Y-100787692D01*
X134549182Y-100517193D01*
X134415932Y-100267899D01*
X134236608Y-100049392D01*
X134018101Y-99870068D01*
X133768808Y-99736818D01*
X133498309Y-99654764D01*
X133217000Y-99627057D01*
X132935692Y-99654764D01*
X132665193Y-99736818D01*
X132415900Y-99870068D01*
X132197393Y-100049392D01*
X132018068Y-100267899D01*
X131884818Y-100517192D01*
X131802764Y-100787691D01*
X131782000Y-100998508D01*
X131782000Y-101539491D01*
X131802764Y-101750308D01*
X131884818Y-102020807D01*
X132018068Y-102270100D01*
X132197392Y-102488607D01*
X132415899Y-102667932D01*
X132604984Y-102769000D01*
X132415900Y-102870068D01*
X132197393Y-103049392D01*
X132018068Y-103267899D01*
X131884818Y-103517192D01*
X131802764Y-103787691D01*
X131782000Y-103998508D01*
X131782000Y-104539491D01*
X131802764Y-104750308D01*
X131884818Y-105020807D01*
X132018068Y-105270100D01*
X132197392Y-105488607D01*
X132415899Y-105667932D01*
X132478061Y-105701158D01*
X132511454Y-105811246D01*
X132582026Y-105943276D01*
X132653201Y-106030002D01*
X132677000Y-106059001D01*
X132705998Y-106082799D01*
X133394525Y-106771326D01*
X133344000Y-106799085D01*
X133344000Y-108142000D01*
X133364000Y-108142000D01*
X133364000Y-108396000D01*
X133344000Y-108396000D01*
X133344000Y-109738915D01*
X133566039Y-109860904D01*
X133623730Y-109850444D01*
X133885421Y-109744551D01*
X134121425Y-109589639D01*
X134322673Y-109391662D01*
X134481430Y-109158227D01*
X134591596Y-108898306D01*
X134622000Y-108751739D01*
X134622001Y-112006405D01*
X134552986Y-112043294D01*
X134326866Y-112228866D01*
X134141294Y-112454986D01*
X134106799Y-112519523D01*
X134037178Y-112402645D01*
X133842269Y-112186412D01*
X133608920Y-112012359D01*
X133346099Y-111887175D01*
X133198890Y-111842524D01*
X132969000Y-111963845D01*
X132969000Y-113157000D01*
X132989000Y-113157000D01*
X132989000Y-113411000D01*
X132969000Y-113411000D01*
X132969000Y-113431000D01*
X132715000Y-113431000D01*
X132715000Y-113411000D01*
X131521186Y-113411000D01*
X131400519Y-113640891D01*
X131497843Y-113915252D01*
X131646822Y-114165355D01*
X131841731Y-114381588D01*
X132075080Y-114555641D01*
X132285781Y-114656000D01*
X131604281Y-114656000D01*
X131503469Y-114646115D01*
X131437542Y-114626211D01*
X131376745Y-114593885D01*
X131323382Y-114550362D01*
X131279485Y-114497300D01*
X131246734Y-114436727D01*
X131226372Y-114370947D01*
X131216000Y-114272269D01*
X131216000Y-112927109D01*
X131400519Y-112927109D01*
X131521186Y-113157000D01*
X132715000Y-113157000D01*
X132715000Y-111963845D01*
X132485110Y-111842524D01*
X132337901Y-111887175D01*
X132075080Y-112012359D01*
X131841731Y-112186412D01*
X131646822Y-112402645D01*
X131497843Y-112652748D01*
X131400519Y-112927109D01*
X131216000Y-112927109D01*
X131216000Y-108621887D01*
X131785063Y-108621887D01*
X131842404Y-108898306D01*
X131952570Y-109158227D01*
X132111327Y-109391662D01*
X132312575Y-109589639D01*
X132548579Y-109744551D01*
X132810270Y-109850444D01*
X132867961Y-109860904D01*
X133090000Y-109738915D01*
X133090000Y-108396000D01*
X131937526Y-108396000D01*
X131785063Y-108621887D01*
X131216000Y-108621887D01*
X131216000Y-107916113D01*
X131785063Y-107916113D01*
X131937526Y-108142000D01*
X133090000Y-108142000D01*
X133090000Y-106799085D01*
X132867961Y-106677096D01*
X132810270Y-106687556D01*
X132548579Y-106793449D01*
X132312575Y-106948361D01*
X132111327Y-107146338D01*
X131952570Y-107379773D01*
X131842404Y-107639694D01*
X131785063Y-107916113D01*
X131216000Y-107916113D01*
X131216000Y-99600281D01*
X131225885Y-99499467D01*
X131245789Y-99433543D01*
X131278115Y-99372745D01*
X131321639Y-99319381D01*
X131374696Y-99275488D01*
X131435271Y-99242734D01*
X131501053Y-99222372D01*
X131599730Y-99212000D01*
X134586020Y-99212000D01*
X134521774Y-99367102D01*
M02*
