G04 #@! TF.GenerationSoftware,KiCad,Pcbnew,5.1.0-unknown-e90452d~82~ubuntu16.04.1*
G04 #@! TF.CreationDate,2019-04-11T13:24:12-04:00*
G04 #@! TF.ProjectId,touch_sensor_trrs_pcb,746f7563-685f-4736-956e-736f725f7472,1.0*
G04 #@! TF.SameCoordinates,Original*
G04 #@! TF.FileFunction,Legend,Top*
G04 #@! TF.FilePolarity,Positive*
%FSLAX46Y46*%
G04 Gerber Fmt 4.6, Leading zero omitted, Abs format (unit mm)*
G04 Created by KiCad (PCBNEW 5.1.0-unknown-e90452d~82~ubuntu16.04.1) date 2019-04-11 13:24:12*
%MOMM*%
%LPD*%
G04 APERTURE LIST*
%ADD10C,0.150000*%
%ADD11C,0.120000*%
G04 APERTURE END LIST*
D10*
X138722761Y-107655857D02*
X138770380Y-107608238D01*
X138913238Y-107560619D01*
X139008476Y-107560619D01*
X139151333Y-107608238D01*
X139246571Y-107703476D01*
X139294190Y-107798714D01*
X139341809Y-107989190D01*
X139341809Y-108132047D01*
X139294190Y-108322523D01*
X139246571Y-108417761D01*
X139151333Y-108513000D01*
X139008476Y-108560619D01*
X138913238Y-108560619D01*
X138770380Y-108513000D01*
X138722761Y-108465380D01*
X137865619Y-107560619D02*
X137865619Y-108084428D01*
X137913238Y-108179666D01*
X138008476Y-108227285D01*
X138198952Y-108227285D01*
X138294190Y-108179666D01*
X137865619Y-107608238D02*
X137960857Y-107560619D01*
X138198952Y-107560619D01*
X138294190Y-107608238D01*
X138341809Y-107703476D01*
X138341809Y-107798714D01*
X138294190Y-107893952D01*
X138198952Y-107941571D01*
X137960857Y-107941571D01*
X137865619Y-107989190D01*
X137532285Y-108227285D02*
X137151333Y-108227285D01*
X137389428Y-108560619D02*
X137389428Y-107703476D01*
X137341809Y-107608238D01*
X137246571Y-107560619D01*
X137151333Y-107560619D01*
X136437047Y-107608238D02*
X136532285Y-107560619D01*
X136722761Y-107560619D01*
X136818000Y-107608238D01*
X136865619Y-107703476D01*
X136865619Y-108084428D01*
X136818000Y-108179666D01*
X136722761Y-108227285D01*
X136532285Y-108227285D01*
X136437047Y-108179666D01*
X136389428Y-108084428D01*
X136389428Y-107989190D01*
X136865619Y-107893952D01*
X135818000Y-107560619D02*
X135913238Y-107608238D01*
X135960857Y-107703476D01*
X135960857Y-108560619D01*
X135056095Y-107608238D02*
X135151333Y-107560619D01*
X135341809Y-107560619D01*
X135437047Y-107608238D01*
X135484666Y-107703476D01*
X135484666Y-108084428D01*
X135437047Y-108179666D01*
X135341809Y-108227285D01*
X135151333Y-108227285D01*
X135056095Y-108179666D01*
X135008476Y-108084428D01*
X135008476Y-107989190D01*
X135484666Y-107893952D01*
X134675142Y-107560619D02*
X134151333Y-108227285D01*
X134675142Y-108227285D02*
X134151333Y-107560619D01*
X133151333Y-108560619D02*
X132579904Y-108560619D01*
X132865619Y-107560619D02*
X132865619Y-108560619D01*
X132103714Y-107560619D02*
X132198952Y-107608238D01*
X132246571Y-107655857D01*
X132294190Y-107751095D01*
X132294190Y-108036809D01*
X132246571Y-108132047D01*
X132198952Y-108179666D01*
X132103714Y-108227285D01*
X131960857Y-108227285D01*
X131865619Y-108179666D01*
X131818000Y-108132047D01*
X131770380Y-108036809D01*
X131770380Y-107751095D01*
X131818000Y-107655857D01*
X131865619Y-107608238D01*
X131960857Y-107560619D01*
X132103714Y-107560619D01*
X130913238Y-108227285D02*
X130913238Y-107560619D01*
X131341809Y-108227285D02*
X131341809Y-107703476D01*
X131294190Y-107608238D01*
X131198952Y-107560619D01*
X131056095Y-107560619D01*
X130960857Y-107608238D01*
X130913238Y-107655857D01*
X130008476Y-107608238D02*
X130103714Y-107560619D01*
X130294190Y-107560619D01*
X130389428Y-107608238D01*
X130437047Y-107655857D01*
X130484666Y-107751095D01*
X130484666Y-108036809D01*
X130437047Y-108132047D01*
X130389428Y-108179666D01*
X130294190Y-108227285D01*
X130103714Y-108227285D01*
X130008476Y-108179666D01*
X129579904Y-107560619D02*
X129579904Y-108560619D01*
X129151333Y-107560619D02*
X129151333Y-108084428D01*
X129198952Y-108179666D01*
X129294190Y-108227285D01*
X129437047Y-108227285D01*
X129532285Y-108179666D01*
X129579904Y-108132047D01*
X127960857Y-107608238D02*
X127818000Y-107560619D01*
X127579904Y-107560619D01*
X127484666Y-107608238D01*
X127437047Y-107655857D01*
X127389428Y-107751095D01*
X127389428Y-107846333D01*
X127437047Y-107941571D01*
X127484666Y-107989190D01*
X127579904Y-108036809D01*
X127770380Y-108084428D01*
X127865619Y-108132047D01*
X127913238Y-108179666D01*
X127960857Y-108274904D01*
X127960857Y-108370142D01*
X127913238Y-108465380D01*
X127865619Y-108513000D01*
X127770380Y-108560619D01*
X127532285Y-108560619D01*
X127389428Y-108513000D01*
X126579904Y-107608238D02*
X126675142Y-107560619D01*
X126865619Y-107560619D01*
X126960857Y-107608238D01*
X127008476Y-107703476D01*
X127008476Y-108084428D01*
X126960857Y-108179666D01*
X126865619Y-108227285D01*
X126675142Y-108227285D01*
X126579904Y-108179666D01*
X126532285Y-108084428D01*
X126532285Y-107989190D01*
X127008476Y-107893952D01*
X126103714Y-108227285D02*
X126103714Y-107560619D01*
X126103714Y-108132047D02*
X126056095Y-108179666D01*
X125960857Y-108227285D01*
X125818000Y-108227285D01*
X125722761Y-108179666D01*
X125675142Y-108084428D01*
X125675142Y-107560619D01*
X125246571Y-107608238D02*
X125151333Y-107560619D01*
X124960857Y-107560619D01*
X124865619Y-107608238D01*
X124818000Y-107703476D01*
X124818000Y-107751095D01*
X124865619Y-107846333D01*
X124960857Y-107893952D01*
X125103714Y-107893952D01*
X125198952Y-107941571D01*
X125246571Y-108036809D01*
X125246571Y-108084428D01*
X125198952Y-108179666D01*
X125103714Y-108227285D01*
X124960857Y-108227285D01*
X124865619Y-108179666D01*
X124246571Y-107560619D02*
X124341809Y-107608238D01*
X124389428Y-107655857D01*
X124437047Y-107751095D01*
X124437047Y-108036809D01*
X124389428Y-108132047D01*
X124341809Y-108179666D01*
X124246571Y-108227285D01*
X124103714Y-108227285D01*
X124008476Y-108179666D01*
X123960857Y-108132047D01*
X123913238Y-108036809D01*
X123913238Y-107751095D01*
X123960857Y-107655857D01*
X124008476Y-107608238D01*
X124103714Y-107560619D01*
X124246571Y-107560619D01*
X123484666Y-107560619D02*
X123484666Y-108227285D01*
X123484666Y-108036809D02*
X123437047Y-108132047D01*
X123389428Y-108179666D01*
X123294190Y-108227285D01*
X123198952Y-108227285D01*
X139484666Y-105529666D02*
X139532285Y-105577285D01*
X139627523Y-105720142D01*
X139675142Y-105815380D01*
X139722761Y-105958238D01*
X139770380Y-106196333D01*
X139770380Y-106386809D01*
X139722761Y-106624904D01*
X139675142Y-106767761D01*
X139627523Y-106863000D01*
X139532285Y-107005857D01*
X139484666Y-107053476D01*
X139151333Y-105958238D02*
X139008476Y-105910619D01*
X138770380Y-105910619D01*
X138675142Y-105958238D01*
X138627523Y-106005857D01*
X138579904Y-106101095D01*
X138579904Y-106196333D01*
X138627523Y-106291571D01*
X138675142Y-106339190D01*
X138770380Y-106386809D01*
X138960857Y-106434428D01*
X139056095Y-106482047D01*
X139103714Y-106529666D01*
X139151333Y-106624904D01*
X139151333Y-106720142D01*
X139103714Y-106815380D01*
X139056095Y-106863000D01*
X138960857Y-106910619D01*
X138722761Y-106910619D01*
X138579904Y-106863000D01*
X138151333Y-105910619D02*
X138151333Y-106577285D01*
X138151333Y-106910619D02*
X138198952Y-106863000D01*
X138151333Y-106815380D01*
X138103714Y-106863000D01*
X138151333Y-106910619D01*
X138151333Y-106815380D01*
X137532285Y-105910619D02*
X137627523Y-105958238D01*
X137675142Y-106053476D01*
X137675142Y-106910619D01*
X137246571Y-106577285D02*
X137008476Y-105910619D01*
X136770380Y-106577285D01*
X136008476Y-105958238D02*
X136103714Y-105910619D01*
X136294190Y-105910619D01*
X136389428Y-105958238D01*
X136437047Y-106053476D01*
X136437047Y-106434428D01*
X136389428Y-106529666D01*
X136294190Y-106577285D01*
X136103714Y-106577285D01*
X136008476Y-106529666D01*
X135960857Y-106434428D01*
X135960857Y-106339190D01*
X136437047Y-106243952D01*
X135532285Y-105910619D02*
X135532285Y-106577285D01*
X135532285Y-106386809D02*
X135484666Y-106482047D01*
X135437047Y-106529666D01*
X135341809Y-106577285D01*
X135246571Y-106577285D01*
X133579904Y-106005857D02*
X133627523Y-105958238D01*
X133770380Y-105910619D01*
X133865619Y-105910619D01*
X134008476Y-105958238D01*
X134103714Y-106053476D01*
X134151333Y-106148714D01*
X134198952Y-106339190D01*
X134198952Y-106482047D01*
X134151333Y-106672523D01*
X134103714Y-106767761D01*
X134008476Y-106863000D01*
X133865619Y-106910619D01*
X133770380Y-106910619D01*
X133627523Y-106863000D01*
X133579904Y-106815380D01*
X133151333Y-105910619D02*
X133151333Y-106577285D01*
X133151333Y-106910619D02*
X133198952Y-106863000D01*
X133151333Y-106815380D01*
X133103714Y-106863000D01*
X133151333Y-106910619D01*
X133151333Y-106815380D01*
X132675142Y-105910619D02*
X132675142Y-106577285D01*
X132675142Y-106386809D02*
X132627523Y-106482047D01*
X132579904Y-106529666D01*
X132484666Y-106577285D01*
X132389428Y-106577285D01*
X131627523Y-105958238D02*
X131722761Y-105910619D01*
X131913238Y-105910619D01*
X132008476Y-105958238D01*
X132056095Y-106005857D01*
X132103714Y-106101095D01*
X132103714Y-106386809D01*
X132056095Y-106482047D01*
X132008476Y-106529666D01*
X131913238Y-106577285D01*
X131722761Y-106577285D01*
X131627523Y-106529666D01*
X131056095Y-105910619D02*
X131151333Y-105958238D01*
X131198952Y-106053476D01*
X131198952Y-106910619D01*
X130294190Y-105958238D02*
X130389428Y-105910619D01*
X130579904Y-105910619D01*
X130675142Y-105958238D01*
X130722761Y-106053476D01*
X130722761Y-106434428D01*
X130675142Y-106529666D01*
X130579904Y-106577285D01*
X130389428Y-106577285D01*
X130294190Y-106529666D01*
X130246571Y-106434428D01*
X130246571Y-106339190D01*
X130722761Y-106243952D01*
X129103714Y-105958238D02*
X128960857Y-105910619D01*
X128722761Y-105910619D01*
X128627523Y-105958238D01*
X128579904Y-106005857D01*
X128532285Y-106101095D01*
X128532285Y-106196333D01*
X128579904Y-106291571D01*
X128627523Y-106339190D01*
X128722761Y-106386809D01*
X128913238Y-106434428D01*
X129008476Y-106482047D01*
X129056095Y-106529666D01*
X129103714Y-106624904D01*
X129103714Y-106720142D01*
X129056095Y-106815380D01*
X129008476Y-106863000D01*
X128913238Y-106910619D01*
X128675142Y-106910619D01*
X128532285Y-106863000D01*
X128103714Y-105910619D02*
X128103714Y-106577285D01*
X128103714Y-106910619D02*
X128151333Y-106863000D01*
X128103714Y-106815380D01*
X128056095Y-106863000D01*
X128103714Y-106910619D01*
X128103714Y-106815380D01*
X127198952Y-105910619D02*
X127198952Y-106910619D01*
X127198952Y-105958238D02*
X127294190Y-105910619D01*
X127484666Y-105910619D01*
X127579904Y-105958238D01*
X127627523Y-106005857D01*
X127675142Y-106101095D01*
X127675142Y-106386809D01*
X127627523Y-106482047D01*
X127579904Y-106529666D01*
X127484666Y-106577285D01*
X127294190Y-106577285D01*
X127198952Y-106529666D01*
X126341809Y-105958238D02*
X126437047Y-105910619D01*
X126627523Y-105910619D01*
X126722761Y-105958238D01*
X126770380Y-106053476D01*
X126770380Y-106434428D01*
X126722761Y-106529666D01*
X126627523Y-106577285D01*
X126437047Y-106577285D01*
X126341809Y-106529666D01*
X126294190Y-106434428D01*
X126294190Y-106339190D01*
X126770380Y-106243952D01*
X125103714Y-106910619D02*
X125103714Y-106101095D01*
X125056095Y-106005857D01*
X125008476Y-105958238D01*
X124913238Y-105910619D01*
X124722761Y-105910619D01*
X124627523Y-105958238D01*
X124579904Y-106005857D01*
X124532285Y-106101095D01*
X124532285Y-106910619D01*
X124056095Y-105910619D02*
X124056095Y-106910619D01*
X123675142Y-106910619D01*
X123579904Y-106863000D01*
X123532285Y-106815380D01*
X123484666Y-106720142D01*
X123484666Y-106577285D01*
X123532285Y-106482047D01*
X123579904Y-106434428D01*
X123675142Y-106386809D01*
X124056095Y-106386809D01*
X123151333Y-105529666D02*
X123103714Y-105577285D01*
X123008476Y-105720142D01*
X122960857Y-105815380D01*
X122913238Y-105958238D01*
X122865619Y-106196333D01*
X122865619Y-106386809D01*
X122913238Y-106624904D01*
X122960857Y-106767761D01*
X123008476Y-106863000D01*
X123103714Y-107005857D01*
X123151333Y-107053476D01*
X133056190Y-110593238D02*
X132913333Y-110545619D01*
X132675238Y-110545619D01*
X132580000Y-110593238D01*
X132532380Y-110640857D01*
X132484761Y-110736095D01*
X132484761Y-110831333D01*
X132532380Y-110926571D01*
X132580000Y-110974190D01*
X132675238Y-111021809D01*
X132865714Y-111069428D01*
X132960952Y-111117047D01*
X133008571Y-111164666D01*
X133056190Y-111259904D01*
X133056190Y-111355142D01*
X133008571Y-111450380D01*
X132960952Y-111498000D01*
X132865714Y-111545619D01*
X132627619Y-111545619D01*
X132484761Y-111498000D01*
X132056190Y-110545619D02*
X132056190Y-111212285D01*
X132056190Y-111545619D02*
X132103809Y-111498000D01*
X132056190Y-111450380D01*
X132008571Y-111498000D01*
X132056190Y-111545619D01*
X132056190Y-111450380D01*
X131151428Y-111212285D02*
X131151428Y-110402761D01*
X131199047Y-110307523D01*
X131246666Y-110259904D01*
X131341904Y-110212285D01*
X131484761Y-110212285D01*
X131580000Y-110259904D01*
X131151428Y-110593238D02*
X131246666Y-110545619D01*
X131437142Y-110545619D01*
X131532380Y-110593238D01*
X131580000Y-110640857D01*
X131627619Y-110736095D01*
X131627619Y-111021809D01*
X131580000Y-111117047D01*
X131532380Y-111164666D01*
X131437142Y-111212285D01*
X131246666Y-111212285D01*
X131151428Y-111164666D01*
X136318476Y-111545619D02*
X135985142Y-110545619D01*
X135651809Y-111545619D01*
X134889904Y-110593238D02*
X134985142Y-110545619D01*
X135175619Y-110545619D01*
X135270857Y-110593238D01*
X135318476Y-110640857D01*
X135366095Y-110736095D01*
X135366095Y-111021809D01*
X135318476Y-111117047D01*
X135270857Y-111164666D01*
X135175619Y-111212285D01*
X134985142Y-111212285D01*
X134889904Y-111164666D01*
X134032761Y-110593238D02*
X134128000Y-110545619D01*
X134318476Y-110545619D01*
X134413714Y-110593238D01*
X134461333Y-110640857D01*
X134508952Y-110736095D01*
X134508952Y-111021809D01*
X134461333Y-111117047D01*
X134413714Y-111164666D01*
X134318476Y-111212285D01*
X134128000Y-111212285D01*
X134032761Y-111164666D01*
X139072857Y-111498000D02*
X139168095Y-111545619D01*
X139310952Y-111545619D01*
X139453809Y-111498000D01*
X139549047Y-111402761D01*
X139596666Y-111307523D01*
X139644285Y-111117047D01*
X139644285Y-110974190D01*
X139596666Y-110783714D01*
X139549047Y-110688476D01*
X139453809Y-110593238D01*
X139310952Y-110545619D01*
X139215714Y-110545619D01*
X139072857Y-110593238D01*
X139025238Y-110640857D01*
X139025238Y-110974190D01*
X139215714Y-110974190D01*
X138596666Y-111212285D02*
X138596666Y-110545619D01*
X138596666Y-111117047D02*
X138549047Y-111164666D01*
X138453809Y-111212285D01*
X138310952Y-111212285D01*
X138215714Y-111164666D01*
X138168095Y-111069428D01*
X138168095Y-110545619D01*
X137263333Y-110545619D02*
X137263333Y-111545619D01*
X137263333Y-110593238D02*
X137358571Y-110545619D01*
X137549047Y-110545619D01*
X137644285Y-110593238D01*
X137691904Y-110640857D01*
X137739523Y-110736095D01*
X137739523Y-111021809D01*
X137691904Y-111117047D01*
X137644285Y-111164666D01*
X137549047Y-111212285D01*
X137358571Y-111212285D01*
X137263333Y-111164666D01*
D11*
X139252000Y-111954000D02*
X139252000Y-113284000D01*
X137922000Y-111954000D02*
X139252000Y-111954000D01*
X136652000Y-111954000D02*
X136652000Y-114614000D01*
X136652000Y-114614000D02*
X131512000Y-114614000D01*
X136652000Y-111954000D02*
X131512000Y-111954000D01*
X131512000Y-111954000D02*
X131512000Y-114614000D01*
D10*
X130198761Y-114045904D02*
X130246380Y-113903047D01*
X130246380Y-113664952D01*
X130198761Y-113569714D01*
X130151142Y-113522095D01*
X130055904Y-113474476D01*
X129960666Y-113474476D01*
X129865428Y-113522095D01*
X129817809Y-113569714D01*
X129770190Y-113664952D01*
X129722571Y-113855428D01*
X129674952Y-113950666D01*
X129627333Y-113998285D01*
X129532095Y-114045904D01*
X129436857Y-114045904D01*
X129341619Y-113998285D01*
X129294000Y-113950666D01*
X129246380Y-113855428D01*
X129246380Y-113617333D01*
X129294000Y-113474476D01*
X130246380Y-112522095D02*
X130246380Y-113093523D01*
X130246380Y-112807809D02*
X129246380Y-112807809D01*
X129389238Y-112903047D01*
X129484476Y-112998285D01*
X129532095Y-113093523D01*
M02*
