G04 #@! TF.GenerationSoftware,KiCad,Pcbnew,5.1.0-unknown-e90452d~82~ubuntu16.04.1*
G04 #@! TF.CreationDate,2019-04-11T13:24:12-04:00*
G04 #@! TF.ProjectId,touch_sensor_trrs_pcb,746f7563-685f-4736-956e-736f725f7472,1.0*
G04 #@! TF.SameCoordinates,Original*
G04 #@! TF.FileFunction,Copper,L1,Top*
G04 #@! TF.FilePolarity,Positive*
%FSLAX46Y46*%
G04 Gerber Fmt 4.6, Leading zero omitted, Abs format (unit mm)*
G04 Created by KiCad (PCBNEW 5.1.0-unknown-e90452d~82~ubuntu16.04.1) date 2019-04-11 13:24:12*
%MOMM*%
%LPD*%
G04 APERTURE LIST*
%ADD10O,1.700000X1.700000*%
%ADD11R,1.700000X1.700000*%
%ADD12O,2.000000X1.600000*%
%ADD13C,0.250000*%
%ADD14C,0.254000*%
G04 APERTURE END LIST*
D10*
X132842000Y-113284000D03*
X135382000Y-113284000D03*
D11*
X137922000Y-113284000D03*
D12*
X133118000Y-104880000D03*
X132018000Y-109480000D03*
X125018000Y-109480000D03*
X128018000Y-109480000D03*
D13*
X133318000Y-104880000D02*
X133118000Y-104880000D01*
X137922000Y-109484000D02*
X133318000Y-104880000D01*
X137922000Y-113284000D02*
X137922000Y-109484000D01*
D14*
G36*
X131536556Y-104473270D02*
G01*
X131526096Y-104530961D01*
X131648085Y-104753000D01*
X132991000Y-104753000D01*
X132991000Y-104733000D01*
X133245000Y-104733000D01*
X133245000Y-104753000D01*
X134587915Y-104753000D01*
X134709904Y-104530961D01*
X134699444Y-104473270D01*
X134615977Y-104267000D01*
X139160945Y-104267000D01*
X139265409Y-104277243D01*
X139336032Y-104298565D01*
X139401158Y-104333193D01*
X139458318Y-104379812D01*
X139505340Y-104436653D01*
X139540423Y-104501538D01*
X139562235Y-104572002D01*
X139573001Y-104674430D01*
X139573000Y-114268946D01*
X139562757Y-114373409D01*
X139541435Y-114444032D01*
X139506808Y-114509156D01*
X139460187Y-114566319D01*
X139403348Y-114613340D01*
X139338465Y-114648422D01*
X139267999Y-114670235D01*
X139165579Y-114681000D01*
X139095694Y-114681000D01*
X139126494Y-114664537D01*
X139223185Y-114585185D01*
X139302537Y-114488494D01*
X139361502Y-114378180D01*
X139397812Y-114258482D01*
X139410072Y-114134000D01*
X139407000Y-113569750D01*
X139248250Y-113411000D01*
X138049000Y-113411000D01*
X138049000Y-113431000D01*
X137795000Y-113431000D01*
X137795000Y-113411000D01*
X137775000Y-113411000D01*
X137775000Y-113157000D01*
X137795000Y-113157000D01*
X137795000Y-111957750D01*
X138049000Y-111957750D01*
X138049000Y-113157000D01*
X139248250Y-113157000D01*
X139407000Y-112998250D01*
X139410072Y-112434000D01*
X139397812Y-112309518D01*
X139361502Y-112189820D01*
X139302537Y-112079506D01*
X139223185Y-111982815D01*
X139126494Y-111903463D01*
X139016180Y-111844498D01*
X138896482Y-111808188D01*
X138772000Y-111795928D01*
X138207750Y-111799000D01*
X138049000Y-111957750D01*
X137795000Y-111957750D01*
X137636250Y-111799000D01*
X137072000Y-111795928D01*
X136947518Y-111808188D01*
X136827820Y-111844498D01*
X136717506Y-111903463D01*
X136620815Y-111982815D01*
X136541463Y-112079506D01*
X136482498Y-112189820D01*
X136461607Y-112258687D01*
X136437134Y-112228866D01*
X136211014Y-112043294D01*
X135953034Y-111905401D01*
X135673111Y-111820487D01*
X135454950Y-111799000D01*
X135309050Y-111799000D01*
X135090889Y-111820487D01*
X134810966Y-111905401D01*
X134552986Y-112043294D01*
X134326866Y-112228866D01*
X134141294Y-112454986D01*
X134112000Y-112509791D01*
X134082706Y-112454986D01*
X133897134Y-112228866D01*
X133671014Y-112043294D01*
X133413034Y-111905401D01*
X133133111Y-111820487D01*
X132914950Y-111799000D01*
X132769050Y-111799000D01*
X132550889Y-111820487D01*
X132270966Y-111905401D01*
X132012986Y-112043294D01*
X131786866Y-112228866D01*
X131601294Y-112454986D01*
X131463401Y-112712966D01*
X131378487Y-112992889D01*
X131349815Y-113284000D01*
X131378487Y-113575111D01*
X131463401Y-113855034D01*
X131601294Y-114113014D01*
X131786866Y-114339134D01*
X132012986Y-114524706D01*
X132270966Y-114662599D01*
X132331626Y-114681000D01*
X129571054Y-114681000D01*
X129466591Y-114670757D01*
X129395968Y-114649435D01*
X129330844Y-114614808D01*
X129273681Y-114568187D01*
X129226660Y-114511348D01*
X129191578Y-114446465D01*
X129169765Y-114375999D01*
X129159000Y-114273579D01*
X129159000Y-111982808D01*
X129156318Y-111955573D01*
X129156361Y-111949354D01*
X129155496Y-111940530D01*
X129134769Y-111743329D01*
X129123198Y-111686960D01*
X129112413Y-111630420D01*
X129109852Y-111621938D01*
X129109850Y-111621929D01*
X129109846Y-111621921D01*
X129051215Y-111432511D01*
X129028914Y-111379459D01*
X129007352Y-111326090D01*
X129003195Y-111318272D01*
X129003191Y-111318264D01*
X129003186Y-111318257D01*
X128908878Y-111143838D01*
X128876707Y-111096142D01*
X128845182Y-111047967D01*
X128839582Y-111041101D01*
X128839578Y-111041095D01*
X128839573Y-111041090D01*
X128713184Y-110888312D01*
X128672350Y-110847762D01*
X128667808Y-110843123D01*
X128769808Y-110812182D01*
X129019101Y-110678932D01*
X129237608Y-110499608D01*
X129416932Y-110281101D01*
X129550182Y-110031808D01*
X129632236Y-109761309D01*
X129659943Y-109480000D01*
X130376057Y-109480000D01*
X130403764Y-109761309D01*
X130485818Y-110031808D01*
X130619068Y-110281101D01*
X130798392Y-110499608D01*
X131016899Y-110678932D01*
X131266192Y-110812182D01*
X131536691Y-110894236D01*
X131747508Y-110915000D01*
X132288492Y-110915000D01*
X132499309Y-110894236D01*
X132769808Y-110812182D01*
X133019101Y-110678932D01*
X133237608Y-110499608D01*
X133416932Y-110281101D01*
X133550182Y-110031808D01*
X133632236Y-109761309D01*
X133659943Y-109480000D01*
X133632236Y-109198691D01*
X133550182Y-108928192D01*
X133416932Y-108678899D01*
X133237608Y-108460392D01*
X133019101Y-108281068D01*
X132769808Y-108147818D01*
X132499309Y-108065764D01*
X132288492Y-108045000D01*
X131747508Y-108045000D01*
X131536691Y-108065764D01*
X131266192Y-108147818D01*
X131016899Y-108281068D01*
X130798392Y-108460392D01*
X130619068Y-108678899D01*
X130485818Y-108928192D01*
X130403764Y-109198691D01*
X130376057Y-109480000D01*
X129659943Y-109480000D01*
X129632236Y-109198691D01*
X129550182Y-108928192D01*
X129416932Y-108678899D01*
X129237608Y-108460392D01*
X129019101Y-108281068D01*
X128769808Y-108147818D01*
X128499309Y-108065764D01*
X128288492Y-108045000D01*
X127747508Y-108045000D01*
X127536691Y-108065764D01*
X127266192Y-108147818D01*
X127016899Y-108281068D01*
X126798392Y-108460392D01*
X126619068Y-108678899D01*
X126518000Y-108867984D01*
X126416932Y-108678899D01*
X126237608Y-108460392D01*
X126019101Y-108281068D01*
X125769808Y-108147818D01*
X125499309Y-108065764D01*
X125288492Y-108045000D01*
X124747508Y-108045000D01*
X124536691Y-108065764D01*
X124266192Y-108147818D01*
X124016899Y-108281068D01*
X123798392Y-108460392D01*
X123619068Y-108678899D01*
X123485818Y-108928192D01*
X123403764Y-109198691D01*
X123376057Y-109480000D01*
X123403764Y-109761309D01*
X123485818Y-110031808D01*
X123619068Y-110281101D01*
X123686281Y-110363000D01*
X122967054Y-110363000D01*
X122862591Y-110352757D01*
X122791968Y-110331435D01*
X122726844Y-110296808D01*
X122669681Y-110250187D01*
X122622660Y-110193348D01*
X122587578Y-110128465D01*
X122565765Y-110057999D01*
X122555000Y-109955579D01*
X122555000Y-107751380D01*
X122614063Y-107839774D01*
X122758226Y-107983937D01*
X122927744Y-108097205D01*
X123116102Y-108175226D01*
X123316061Y-108215000D01*
X123519939Y-108215000D01*
X123719898Y-108175226D01*
X123908256Y-108097205D01*
X124077774Y-107983937D01*
X124221937Y-107839774D01*
X124335205Y-107670256D01*
X124413226Y-107481898D01*
X124453000Y-107281939D01*
X124453000Y-107078061D01*
X129383000Y-107078061D01*
X129383000Y-107281939D01*
X129422774Y-107481898D01*
X129500795Y-107670256D01*
X129614063Y-107839774D01*
X129758226Y-107983937D01*
X129927744Y-108097205D01*
X130116102Y-108175226D01*
X130316061Y-108215000D01*
X130519939Y-108215000D01*
X130719898Y-108175226D01*
X130908256Y-108097205D01*
X131077774Y-107983937D01*
X131221937Y-107839774D01*
X131335205Y-107670256D01*
X131413226Y-107481898D01*
X131453000Y-107281939D01*
X131453000Y-107078061D01*
X131413226Y-106878102D01*
X131335205Y-106689744D01*
X131221937Y-106520226D01*
X131077774Y-106376063D01*
X130908256Y-106262795D01*
X130719898Y-106184774D01*
X130519939Y-106145000D01*
X130316061Y-106145000D01*
X130116102Y-106184774D01*
X129927744Y-106262795D01*
X129758226Y-106376063D01*
X129614063Y-106520226D01*
X129500795Y-106689744D01*
X129422774Y-106878102D01*
X129383000Y-107078061D01*
X124453000Y-107078061D01*
X124413226Y-106878102D01*
X124335205Y-106689744D01*
X124221937Y-106520226D01*
X124077774Y-106376063D01*
X123908256Y-106262795D01*
X123719898Y-106184774D01*
X123519939Y-106145000D01*
X123316061Y-106145000D01*
X123116102Y-106184774D01*
X122927744Y-106262795D01*
X122758226Y-106376063D01*
X122614063Y-106520226D01*
X122555000Y-106608620D01*
X122555000Y-105229039D01*
X131526096Y-105229039D01*
X131536556Y-105286730D01*
X131642449Y-105548421D01*
X131797361Y-105784425D01*
X131995338Y-105985673D01*
X132228773Y-106144430D01*
X132488694Y-106254596D01*
X132765113Y-106311937D01*
X132991000Y-106159474D01*
X132991000Y-105007000D01*
X133245000Y-105007000D01*
X133245000Y-106159474D01*
X133470887Y-106311937D01*
X133747306Y-106254596D01*
X134007227Y-106144430D01*
X134240662Y-105985673D01*
X134438639Y-105784425D01*
X134593551Y-105548421D01*
X134699444Y-105286730D01*
X134709904Y-105229039D01*
X134587915Y-105007000D01*
X133245000Y-105007000D01*
X132991000Y-105007000D01*
X131648085Y-105007000D01*
X131526096Y-105229039D01*
X122555000Y-105229039D01*
X122555000Y-104679055D01*
X122565243Y-104574591D01*
X122586565Y-104503968D01*
X122621193Y-104438842D01*
X122667812Y-104381682D01*
X122724653Y-104334660D01*
X122789538Y-104299577D01*
X122860002Y-104277765D01*
X122962421Y-104267000D01*
X131620023Y-104267000D01*
X131536556Y-104473270D01*
X131536556Y-104473270D01*
G37*
X131536556Y-104473270D02*
X131526096Y-104530961D01*
X131648085Y-104753000D01*
X132991000Y-104753000D01*
X132991000Y-104733000D01*
X133245000Y-104733000D01*
X133245000Y-104753000D01*
X134587915Y-104753000D01*
X134709904Y-104530961D01*
X134699444Y-104473270D01*
X134615977Y-104267000D01*
X139160945Y-104267000D01*
X139265409Y-104277243D01*
X139336032Y-104298565D01*
X139401158Y-104333193D01*
X139458318Y-104379812D01*
X139505340Y-104436653D01*
X139540423Y-104501538D01*
X139562235Y-104572002D01*
X139573001Y-104674430D01*
X139573000Y-114268946D01*
X139562757Y-114373409D01*
X139541435Y-114444032D01*
X139506808Y-114509156D01*
X139460187Y-114566319D01*
X139403348Y-114613340D01*
X139338465Y-114648422D01*
X139267999Y-114670235D01*
X139165579Y-114681000D01*
X139095694Y-114681000D01*
X139126494Y-114664537D01*
X139223185Y-114585185D01*
X139302537Y-114488494D01*
X139361502Y-114378180D01*
X139397812Y-114258482D01*
X139410072Y-114134000D01*
X139407000Y-113569750D01*
X139248250Y-113411000D01*
X138049000Y-113411000D01*
X138049000Y-113431000D01*
X137795000Y-113431000D01*
X137795000Y-113411000D01*
X137775000Y-113411000D01*
X137775000Y-113157000D01*
X137795000Y-113157000D01*
X137795000Y-111957750D01*
X138049000Y-111957750D01*
X138049000Y-113157000D01*
X139248250Y-113157000D01*
X139407000Y-112998250D01*
X139410072Y-112434000D01*
X139397812Y-112309518D01*
X139361502Y-112189820D01*
X139302537Y-112079506D01*
X139223185Y-111982815D01*
X139126494Y-111903463D01*
X139016180Y-111844498D01*
X138896482Y-111808188D01*
X138772000Y-111795928D01*
X138207750Y-111799000D01*
X138049000Y-111957750D01*
X137795000Y-111957750D01*
X137636250Y-111799000D01*
X137072000Y-111795928D01*
X136947518Y-111808188D01*
X136827820Y-111844498D01*
X136717506Y-111903463D01*
X136620815Y-111982815D01*
X136541463Y-112079506D01*
X136482498Y-112189820D01*
X136461607Y-112258687D01*
X136437134Y-112228866D01*
X136211014Y-112043294D01*
X135953034Y-111905401D01*
X135673111Y-111820487D01*
X135454950Y-111799000D01*
X135309050Y-111799000D01*
X135090889Y-111820487D01*
X134810966Y-111905401D01*
X134552986Y-112043294D01*
X134326866Y-112228866D01*
X134141294Y-112454986D01*
X134112000Y-112509791D01*
X134082706Y-112454986D01*
X133897134Y-112228866D01*
X133671014Y-112043294D01*
X133413034Y-111905401D01*
X133133111Y-111820487D01*
X132914950Y-111799000D01*
X132769050Y-111799000D01*
X132550889Y-111820487D01*
X132270966Y-111905401D01*
X132012986Y-112043294D01*
X131786866Y-112228866D01*
X131601294Y-112454986D01*
X131463401Y-112712966D01*
X131378487Y-112992889D01*
X131349815Y-113284000D01*
X131378487Y-113575111D01*
X131463401Y-113855034D01*
X131601294Y-114113014D01*
X131786866Y-114339134D01*
X132012986Y-114524706D01*
X132270966Y-114662599D01*
X132331626Y-114681000D01*
X129571054Y-114681000D01*
X129466591Y-114670757D01*
X129395968Y-114649435D01*
X129330844Y-114614808D01*
X129273681Y-114568187D01*
X129226660Y-114511348D01*
X129191578Y-114446465D01*
X129169765Y-114375999D01*
X129159000Y-114273579D01*
X129159000Y-111982808D01*
X129156318Y-111955573D01*
X129156361Y-111949354D01*
X129155496Y-111940530D01*
X129134769Y-111743329D01*
X129123198Y-111686960D01*
X129112413Y-111630420D01*
X129109852Y-111621938D01*
X129109850Y-111621929D01*
X129109846Y-111621921D01*
X129051215Y-111432511D01*
X129028914Y-111379459D01*
X129007352Y-111326090D01*
X129003195Y-111318272D01*
X129003191Y-111318264D01*
X129003186Y-111318257D01*
X128908878Y-111143838D01*
X128876707Y-111096142D01*
X128845182Y-111047967D01*
X128839582Y-111041101D01*
X128839578Y-111041095D01*
X128839573Y-111041090D01*
X128713184Y-110888312D01*
X128672350Y-110847762D01*
X128667808Y-110843123D01*
X128769808Y-110812182D01*
X129019101Y-110678932D01*
X129237608Y-110499608D01*
X129416932Y-110281101D01*
X129550182Y-110031808D01*
X129632236Y-109761309D01*
X129659943Y-109480000D01*
X130376057Y-109480000D01*
X130403764Y-109761309D01*
X130485818Y-110031808D01*
X130619068Y-110281101D01*
X130798392Y-110499608D01*
X131016899Y-110678932D01*
X131266192Y-110812182D01*
X131536691Y-110894236D01*
X131747508Y-110915000D01*
X132288492Y-110915000D01*
X132499309Y-110894236D01*
X132769808Y-110812182D01*
X133019101Y-110678932D01*
X133237608Y-110499608D01*
X133416932Y-110281101D01*
X133550182Y-110031808D01*
X133632236Y-109761309D01*
X133659943Y-109480000D01*
X133632236Y-109198691D01*
X133550182Y-108928192D01*
X133416932Y-108678899D01*
X133237608Y-108460392D01*
X133019101Y-108281068D01*
X132769808Y-108147818D01*
X132499309Y-108065764D01*
X132288492Y-108045000D01*
X131747508Y-108045000D01*
X131536691Y-108065764D01*
X131266192Y-108147818D01*
X131016899Y-108281068D01*
X130798392Y-108460392D01*
X130619068Y-108678899D01*
X130485818Y-108928192D01*
X130403764Y-109198691D01*
X130376057Y-109480000D01*
X129659943Y-109480000D01*
X129632236Y-109198691D01*
X129550182Y-108928192D01*
X129416932Y-108678899D01*
X129237608Y-108460392D01*
X129019101Y-108281068D01*
X128769808Y-108147818D01*
X128499309Y-108065764D01*
X128288492Y-108045000D01*
X127747508Y-108045000D01*
X127536691Y-108065764D01*
X127266192Y-108147818D01*
X127016899Y-108281068D01*
X126798392Y-108460392D01*
X126619068Y-108678899D01*
X126518000Y-108867984D01*
X126416932Y-108678899D01*
X126237608Y-108460392D01*
X126019101Y-108281068D01*
X125769808Y-108147818D01*
X125499309Y-108065764D01*
X125288492Y-108045000D01*
X124747508Y-108045000D01*
X124536691Y-108065764D01*
X124266192Y-108147818D01*
X124016899Y-108281068D01*
X123798392Y-108460392D01*
X123619068Y-108678899D01*
X123485818Y-108928192D01*
X123403764Y-109198691D01*
X123376057Y-109480000D01*
X123403764Y-109761309D01*
X123485818Y-110031808D01*
X123619068Y-110281101D01*
X123686281Y-110363000D01*
X122967054Y-110363000D01*
X122862591Y-110352757D01*
X122791968Y-110331435D01*
X122726844Y-110296808D01*
X122669681Y-110250187D01*
X122622660Y-110193348D01*
X122587578Y-110128465D01*
X122565765Y-110057999D01*
X122555000Y-109955579D01*
X122555000Y-107751380D01*
X122614063Y-107839774D01*
X122758226Y-107983937D01*
X122927744Y-108097205D01*
X123116102Y-108175226D01*
X123316061Y-108215000D01*
X123519939Y-108215000D01*
X123719898Y-108175226D01*
X123908256Y-108097205D01*
X124077774Y-107983937D01*
X124221937Y-107839774D01*
X124335205Y-107670256D01*
X124413226Y-107481898D01*
X124453000Y-107281939D01*
X124453000Y-107078061D01*
X129383000Y-107078061D01*
X129383000Y-107281939D01*
X129422774Y-107481898D01*
X129500795Y-107670256D01*
X129614063Y-107839774D01*
X129758226Y-107983937D01*
X129927744Y-108097205D01*
X130116102Y-108175226D01*
X130316061Y-108215000D01*
X130519939Y-108215000D01*
X130719898Y-108175226D01*
X130908256Y-108097205D01*
X131077774Y-107983937D01*
X131221937Y-107839774D01*
X131335205Y-107670256D01*
X131413226Y-107481898D01*
X131453000Y-107281939D01*
X131453000Y-107078061D01*
X131413226Y-106878102D01*
X131335205Y-106689744D01*
X131221937Y-106520226D01*
X131077774Y-106376063D01*
X130908256Y-106262795D01*
X130719898Y-106184774D01*
X130519939Y-106145000D01*
X130316061Y-106145000D01*
X130116102Y-106184774D01*
X129927744Y-106262795D01*
X129758226Y-106376063D01*
X129614063Y-106520226D01*
X129500795Y-106689744D01*
X129422774Y-106878102D01*
X129383000Y-107078061D01*
X124453000Y-107078061D01*
X124413226Y-106878102D01*
X124335205Y-106689744D01*
X124221937Y-106520226D01*
X124077774Y-106376063D01*
X123908256Y-106262795D01*
X123719898Y-106184774D01*
X123519939Y-106145000D01*
X123316061Y-106145000D01*
X123116102Y-106184774D01*
X122927744Y-106262795D01*
X122758226Y-106376063D01*
X122614063Y-106520226D01*
X122555000Y-106608620D01*
X122555000Y-105229039D01*
X131526096Y-105229039D01*
X131536556Y-105286730D01*
X131642449Y-105548421D01*
X131797361Y-105784425D01*
X131995338Y-105985673D01*
X132228773Y-106144430D01*
X132488694Y-106254596D01*
X132765113Y-106311937D01*
X132991000Y-106159474D01*
X132991000Y-105007000D01*
X133245000Y-105007000D01*
X133245000Y-106159474D01*
X133470887Y-106311937D01*
X133747306Y-106254596D01*
X134007227Y-106144430D01*
X134240662Y-105985673D01*
X134438639Y-105784425D01*
X134593551Y-105548421D01*
X134699444Y-105286730D01*
X134709904Y-105229039D01*
X134587915Y-105007000D01*
X133245000Y-105007000D01*
X132991000Y-105007000D01*
X131648085Y-105007000D01*
X131526096Y-105229039D01*
X122555000Y-105229039D01*
X122555000Y-104679055D01*
X122565243Y-104574591D01*
X122586565Y-104503968D01*
X122621193Y-104438842D01*
X122667812Y-104381682D01*
X122724653Y-104334660D01*
X122789538Y-104299577D01*
X122860002Y-104277765D01*
X122962421Y-104267000D01*
X131620023Y-104267000D01*
X131536556Y-104473270D01*
M02*
