G04 #@! TF.GenerationSoftware,KiCad,Pcbnew,5.1.0-unknown-e90452d~82~ubuntu16.04.1*
G04 #@! TF.CreationDate,2019-04-11T13:24:12-04:00*
G04 #@! TF.ProjectId,touch_sensor_trrs_pcb,746f7563-685f-4736-956e-736f725f7472,1.0*
G04 #@! TF.SameCoordinates,Original*
G04 #@! TF.FileFunction,Soldermask,Top*
G04 #@! TF.FilePolarity,Negative*
%FSLAX46Y46*%
G04 Gerber Fmt 4.6, Leading zero omitted, Abs format (unit mm)*
G04 Created by KiCad (PCBNEW 5.1.0-unknown-e90452d~82~ubuntu16.04.1) date 2019-04-11 13:24:12*
%MOMM*%
%LPD*%
G04 APERTURE LIST*
%ADD10C,0.100000*%
G04 APERTURE END LIST*
D10*
G36*
X135492443Y-112389519D02*
G01*
X135558627Y-112396037D01*
X135728466Y-112447557D01*
X135884991Y-112531222D01*
X135920729Y-112560552D01*
X136022186Y-112643814D01*
X136105448Y-112745271D01*
X136134778Y-112781009D01*
X136218443Y-112937534D01*
X136269963Y-113107373D01*
X136287359Y-113284000D01*
X136269963Y-113460627D01*
X136218443Y-113630466D01*
X136134778Y-113786991D01*
X136105448Y-113822729D01*
X136022186Y-113924186D01*
X135920729Y-114007448D01*
X135884991Y-114036778D01*
X135728466Y-114120443D01*
X135558627Y-114171963D01*
X135492442Y-114178482D01*
X135426260Y-114185000D01*
X135337740Y-114185000D01*
X135271558Y-114178482D01*
X135205373Y-114171963D01*
X135035534Y-114120443D01*
X134879009Y-114036778D01*
X134843271Y-114007448D01*
X134741814Y-113924186D01*
X134658552Y-113822729D01*
X134629222Y-113786991D01*
X134545557Y-113630466D01*
X134494037Y-113460627D01*
X134476641Y-113284000D01*
X134494037Y-113107373D01*
X134545557Y-112937534D01*
X134629222Y-112781009D01*
X134658552Y-112745271D01*
X134741814Y-112643814D01*
X134843271Y-112560552D01*
X134879009Y-112531222D01*
X135035534Y-112447557D01*
X135205373Y-112396037D01*
X135271557Y-112389519D01*
X135337740Y-112383000D01*
X135426260Y-112383000D01*
X135492443Y-112389519D01*
X135492443Y-112389519D01*
G37*
G36*
X138823000Y-114185000D02*
G01*
X137021000Y-114185000D01*
X137021000Y-112383000D01*
X138823000Y-112383000D01*
X138823000Y-114185000D01*
X138823000Y-114185000D01*
G37*
G36*
X132952443Y-112389519D02*
G01*
X133018627Y-112396037D01*
X133188466Y-112447557D01*
X133344991Y-112531222D01*
X133380729Y-112560552D01*
X133482186Y-112643814D01*
X133565448Y-112745271D01*
X133594778Y-112781009D01*
X133678443Y-112937534D01*
X133729963Y-113107373D01*
X133747359Y-113284000D01*
X133729963Y-113460627D01*
X133678443Y-113630466D01*
X133594778Y-113786991D01*
X133565448Y-113822729D01*
X133482186Y-113924186D01*
X133380729Y-114007448D01*
X133344991Y-114036778D01*
X133188466Y-114120443D01*
X133018627Y-114171963D01*
X132952442Y-114178482D01*
X132886260Y-114185000D01*
X132797740Y-114185000D01*
X132731558Y-114178482D01*
X132665373Y-114171963D01*
X132495534Y-114120443D01*
X132339009Y-114036778D01*
X132303271Y-114007448D01*
X132201814Y-113924186D01*
X132118552Y-113822729D01*
X132089222Y-113786991D01*
X132005557Y-113630466D01*
X131954037Y-113460627D01*
X131936641Y-113284000D01*
X131954037Y-113107373D01*
X132005557Y-112937534D01*
X132089222Y-112781009D01*
X132118552Y-112745271D01*
X132201814Y-112643814D01*
X132303271Y-112560552D01*
X132339009Y-112531222D01*
X132495534Y-112447557D01*
X132665373Y-112396037D01*
X132731557Y-112389519D01*
X132797740Y-112383000D01*
X132886260Y-112383000D01*
X132952443Y-112389519D01*
X132952443Y-112389519D01*
G37*
G36*
X128384823Y-108641313D02*
G01*
X128545242Y-108689976D01*
X128677906Y-108760886D01*
X128693078Y-108768996D01*
X128822659Y-108875341D01*
X128929004Y-109004922D01*
X128929005Y-109004924D01*
X129008024Y-109152758D01*
X129056687Y-109313177D01*
X129073117Y-109480000D01*
X129056687Y-109646823D01*
X129008024Y-109807242D01*
X128937114Y-109939906D01*
X128929004Y-109955078D01*
X128822659Y-110084659D01*
X128693078Y-110191004D01*
X128693076Y-110191005D01*
X128545242Y-110270024D01*
X128384823Y-110318687D01*
X128259804Y-110331000D01*
X127776196Y-110331000D01*
X127651177Y-110318687D01*
X127490758Y-110270024D01*
X127342924Y-110191005D01*
X127342922Y-110191004D01*
X127213341Y-110084659D01*
X127106996Y-109955078D01*
X127098886Y-109939906D01*
X127027976Y-109807242D01*
X126979313Y-109646823D01*
X126962883Y-109480000D01*
X126979313Y-109313177D01*
X127027976Y-109152758D01*
X127106995Y-109004924D01*
X127106996Y-109004922D01*
X127213341Y-108875341D01*
X127342922Y-108768996D01*
X127358094Y-108760886D01*
X127490758Y-108689976D01*
X127651177Y-108641313D01*
X127776196Y-108629000D01*
X128259804Y-108629000D01*
X128384823Y-108641313D01*
X128384823Y-108641313D01*
G37*
G36*
X125384823Y-108641313D02*
G01*
X125545242Y-108689976D01*
X125677906Y-108760886D01*
X125693078Y-108768996D01*
X125822659Y-108875341D01*
X125929004Y-109004922D01*
X125929005Y-109004924D01*
X126008024Y-109152758D01*
X126056687Y-109313177D01*
X126073117Y-109480000D01*
X126056687Y-109646823D01*
X126008024Y-109807242D01*
X125937114Y-109939906D01*
X125929004Y-109955078D01*
X125822659Y-110084659D01*
X125693078Y-110191004D01*
X125693076Y-110191005D01*
X125545242Y-110270024D01*
X125384823Y-110318687D01*
X125259804Y-110331000D01*
X124776196Y-110331000D01*
X124651177Y-110318687D01*
X124490758Y-110270024D01*
X124342924Y-110191005D01*
X124342922Y-110191004D01*
X124213341Y-110084659D01*
X124106996Y-109955078D01*
X124098886Y-109939906D01*
X124027976Y-109807242D01*
X123979313Y-109646823D01*
X123962883Y-109480000D01*
X123979313Y-109313177D01*
X124027976Y-109152758D01*
X124106995Y-109004924D01*
X124106996Y-109004922D01*
X124213341Y-108875341D01*
X124342922Y-108768996D01*
X124358094Y-108760886D01*
X124490758Y-108689976D01*
X124651177Y-108641313D01*
X124776196Y-108629000D01*
X125259804Y-108629000D01*
X125384823Y-108641313D01*
X125384823Y-108641313D01*
G37*
G36*
X132384823Y-108641313D02*
G01*
X132545242Y-108689976D01*
X132677906Y-108760886D01*
X132693078Y-108768996D01*
X132822659Y-108875341D01*
X132929004Y-109004922D01*
X132929005Y-109004924D01*
X133008024Y-109152758D01*
X133056687Y-109313177D01*
X133073117Y-109480000D01*
X133056687Y-109646823D01*
X133008024Y-109807242D01*
X132937114Y-109939906D01*
X132929004Y-109955078D01*
X132822659Y-110084659D01*
X132693078Y-110191004D01*
X132693076Y-110191005D01*
X132545242Y-110270024D01*
X132384823Y-110318687D01*
X132259804Y-110331000D01*
X131776196Y-110331000D01*
X131651177Y-110318687D01*
X131490758Y-110270024D01*
X131342924Y-110191005D01*
X131342922Y-110191004D01*
X131213341Y-110084659D01*
X131106996Y-109955078D01*
X131098886Y-109939906D01*
X131027976Y-109807242D01*
X130979313Y-109646823D01*
X130962883Y-109480000D01*
X130979313Y-109313177D01*
X131027976Y-109152758D01*
X131106995Y-109004924D01*
X131106996Y-109004922D01*
X131213341Y-108875341D01*
X131342922Y-108768996D01*
X131358094Y-108760886D01*
X131490758Y-108689976D01*
X131651177Y-108641313D01*
X131776196Y-108629000D01*
X132259804Y-108629000D01*
X132384823Y-108641313D01*
X132384823Y-108641313D01*
G37*
G36*
X130549552Y-106746331D02*
G01*
X130631627Y-106780328D01*
X130631629Y-106780329D01*
X130668813Y-106805175D01*
X130705495Y-106829685D01*
X130768315Y-106892505D01*
X130817672Y-106966373D01*
X130851669Y-107048448D01*
X130869000Y-107135579D01*
X130869000Y-107224421D01*
X130851669Y-107311552D01*
X130817672Y-107393627D01*
X130817671Y-107393629D01*
X130768314Y-107467496D01*
X130705496Y-107530314D01*
X130631629Y-107579671D01*
X130631628Y-107579672D01*
X130631627Y-107579672D01*
X130549552Y-107613669D01*
X130462421Y-107631000D01*
X130373579Y-107631000D01*
X130286448Y-107613669D01*
X130204373Y-107579672D01*
X130204372Y-107579672D01*
X130204371Y-107579671D01*
X130130504Y-107530314D01*
X130067686Y-107467496D01*
X130018329Y-107393629D01*
X130018328Y-107393627D01*
X129984331Y-107311552D01*
X129967000Y-107224421D01*
X129967000Y-107135579D01*
X129984331Y-107048448D01*
X130018328Y-106966373D01*
X130067685Y-106892505D01*
X130130505Y-106829685D01*
X130167187Y-106805175D01*
X130204371Y-106780329D01*
X130204373Y-106780328D01*
X130286448Y-106746331D01*
X130373579Y-106729000D01*
X130462421Y-106729000D01*
X130549552Y-106746331D01*
X130549552Y-106746331D01*
G37*
G36*
X123549552Y-106746331D02*
G01*
X123631627Y-106780328D01*
X123631629Y-106780329D01*
X123668813Y-106805175D01*
X123705495Y-106829685D01*
X123768315Y-106892505D01*
X123817672Y-106966373D01*
X123851669Y-107048448D01*
X123869000Y-107135579D01*
X123869000Y-107224421D01*
X123851669Y-107311552D01*
X123817672Y-107393627D01*
X123817671Y-107393629D01*
X123768314Y-107467496D01*
X123705496Y-107530314D01*
X123631629Y-107579671D01*
X123631628Y-107579672D01*
X123631627Y-107579672D01*
X123549552Y-107613669D01*
X123462421Y-107631000D01*
X123373579Y-107631000D01*
X123286448Y-107613669D01*
X123204373Y-107579672D01*
X123204372Y-107579672D01*
X123204371Y-107579671D01*
X123130504Y-107530314D01*
X123067686Y-107467496D01*
X123018329Y-107393629D01*
X123018328Y-107393627D01*
X122984331Y-107311552D01*
X122967000Y-107224421D01*
X122967000Y-107135579D01*
X122984331Y-107048448D01*
X123018328Y-106966373D01*
X123067685Y-106892505D01*
X123130505Y-106829685D01*
X123167187Y-106805175D01*
X123204371Y-106780329D01*
X123204373Y-106780328D01*
X123286448Y-106746331D01*
X123373579Y-106729000D01*
X123462421Y-106729000D01*
X123549552Y-106746331D01*
X123549552Y-106746331D01*
G37*
G36*
X133484823Y-104041313D02*
G01*
X133645242Y-104089976D01*
X133777906Y-104160886D01*
X133793078Y-104168996D01*
X133922659Y-104275341D01*
X134029004Y-104404922D01*
X134029005Y-104404924D01*
X134108024Y-104552758D01*
X134156687Y-104713177D01*
X134173117Y-104880000D01*
X134156687Y-105046823D01*
X134108024Y-105207242D01*
X134037114Y-105339906D01*
X134029004Y-105355078D01*
X133922659Y-105484659D01*
X133793078Y-105591004D01*
X133793076Y-105591005D01*
X133645242Y-105670024D01*
X133484823Y-105718687D01*
X133359804Y-105731000D01*
X132876196Y-105731000D01*
X132751177Y-105718687D01*
X132590758Y-105670024D01*
X132442924Y-105591005D01*
X132442922Y-105591004D01*
X132313341Y-105484659D01*
X132206996Y-105355078D01*
X132198886Y-105339906D01*
X132127976Y-105207242D01*
X132079313Y-105046823D01*
X132062883Y-104880000D01*
X132079313Y-104713177D01*
X132127976Y-104552758D01*
X132206995Y-104404924D01*
X132206996Y-104404922D01*
X132313341Y-104275341D01*
X132442922Y-104168996D01*
X132458094Y-104160886D01*
X132590758Y-104089976D01*
X132751177Y-104041313D01*
X132876196Y-104029000D01*
X133359804Y-104029000D01*
X133484823Y-104041313D01*
X133484823Y-104041313D01*
G37*
M02*
