G04 #@! TF.GenerationSoftware,KiCad,Pcbnew,5.1.2-f72e74a~84~ubuntu16.04.1*
G04 #@! TF.CreationDate,2019-05-05T15:33:26-04:00*
G04 #@! TF.ProjectId,switch_adaptor,73776974-6368-45f6-9164-6170746f722e,1.0*
G04 #@! TF.SameCoordinates,Original*
G04 #@! TF.FileFunction,Copper,L1,Top*
G04 #@! TF.FilePolarity,Positive*
%FSLAX46Y46*%
G04 Gerber Fmt 4.6, Leading zero omitted, Abs format (unit mm)*
G04 Created by KiCad (PCBNEW 5.1.2-f72e74a~84~ubuntu16.04.1) date 2019-05-05 15:33:26*
%MOMM*%
%LPD*%
G04 APERTURE LIST*
%ADD10O,2.000000X1.600000*%
%ADD11C,0.250000*%
G04 APERTURE END LIST*
D10*
X143234000Y-95228000D03*
X144334000Y-99828000D03*
X151334000Y-99828000D03*
X148334000Y-99828000D03*
X140484000Y-107718000D03*
X139384000Y-103118000D03*
X132384000Y-103118000D03*
X135384000Y-103118000D03*
X140484000Y-91970000D03*
X139384000Y-87370000D03*
X132384000Y-87370000D03*
X135384000Y-87370000D03*
D11*
X148334000Y-98778000D02*
X148334000Y-99828000D01*
X148334000Y-96776000D02*
X148334000Y-98778000D01*
X148334000Y-96594000D02*
X148334000Y-96776000D01*
X146812000Y-93726000D02*
X148334000Y-95248000D01*
X139384000Y-87370000D02*
X139384000Y-90486000D01*
X138684000Y-93726000D02*
X146812000Y-93726000D01*
X138176000Y-93218000D02*
X138684000Y-93726000D01*
X148334000Y-95248000D02*
X148334000Y-96776000D01*
X139384000Y-90486000D02*
X138176000Y-91694000D01*
X138176000Y-91694000D02*
X138176000Y-93218000D01*
X151334000Y-100878000D02*
X151334000Y-99828000D01*
X150872000Y-101340000D02*
X151334000Y-100878000D01*
X140634000Y-103118000D02*
X139384000Y-103118000D01*
X142412000Y-101340000D02*
X140634000Y-103118000D01*
X150872000Y-101340000D02*
X142412000Y-101340000D01*
M02*
