G04 #@! TF.GenerationSoftware,KiCad,Pcbnew,5.1.2-f72e74a~84~ubuntu16.04.1*
G04 #@! TF.CreationDate,2019-05-05T15:33:26-04:00*
G04 #@! TF.ProjectId,switch_adaptor,73776974-6368-45f6-9164-6170746f722e,1.0*
G04 #@! TF.SameCoordinates,Original*
G04 #@! TF.FileFunction,Legend,Bot*
G04 #@! TF.FilePolarity,Positive*
%FSLAX46Y46*%
G04 Gerber Fmt 4.6, Leading zero omitted, Abs format (unit mm)*
G04 Created by KiCad (PCBNEW 5.1.2-f72e74a~84~ubuntu16.04.1) date 2019-05-05 15:33:26*
%MOMM*%
%LPD*%
G04 APERTURE LIST*
%ADD10C,0.125000*%
G04 APERTURE END LIST*
D10*
X144823571Y-97859809D02*
X144709285Y-97897904D01*
X144518809Y-97897904D01*
X144442619Y-97859809D01*
X144404523Y-97821714D01*
X144366428Y-97745523D01*
X144366428Y-97669333D01*
X144404523Y-97593142D01*
X144442619Y-97555047D01*
X144518809Y-97516952D01*
X144671190Y-97478857D01*
X144747380Y-97440761D01*
X144785476Y-97402666D01*
X144823571Y-97326476D01*
X144823571Y-97250285D01*
X144785476Y-97174095D01*
X144747380Y-97136000D01*
X144671190Y-97097904D01*
X144480714Y-97097904D01*
X144366428Y-97136000D01*
X144099761Y-97364571D02*
X143947380Y-97897904D01*
X143795000Y-97516952D01*
X143642619Y-97897904D01*
X143490238Y-97364571D01*
X143185476Y-97897904D02*
X143185476Y-97364571D01*
X143185476Y-97097904D02*
X143223571Y-97136000D01*
X143185476Y-97174095D01*
X143147380Y-97136000D01*
X143185476Y-97097904D01*
X143185476Y-97174095D01*
X142918809Y-97364571D02*
X142614047Y-97364571D01*
X142804523Y-97097904D02*
X142804523Y-97783619D01*
X142766428Y-97859809D01*
X142690238Y-97897904D01*
X142614047Y-97897904D01*
X142004523Y-97859809D02*
X142080714Y-97897904D01*
X142233095Y-97897904D01*
X142309285Y-97859809D01*
X142347380Y-97821714D01*
X142385476Y-97745523D01*
X142385476Y-97516952D01*
X142347380Y-97440761D01*
X142309285Y-97402666D01*
X142233095Y-97364571D01*
X142080714Y-97364571D01*
X142004523Y-97402666D01*
X141661666Y-97897904D02*
X141661666Y-97097904D01*
X141318809Y-97897904D02*
X141318809Y-97478857D01*
X141356904Y-97402666D01*
X141433095Y-97364571D01*
X141547380Y-97364571D01*
X141623571Y-97402666D01*
X141661666Y-97440761D01*
X140366428Y-97669333D02*
X139985476Y-97669333D01*
X140442619Y-97897904D02*
X140175952Y-97097904D01*
X139909285Y-97897904D01*
X139299761Y-97897904D02*
X139299761Y-97097904D01*
X139299761Y-97859809D02*
X139375952Y-97897904D01*
X139528333Y-97897904D01*
X139604523Y-97859809D01*
X139642619Y-97821714D01*
X139680714Y-97745523D01*
X139680714Y-97516952D01*
X139642619Y-97440761D01*
X139604523Y-97402666D01*
X139528333Y-97364571D01*
X139375952Y-97364571D01*
X139299761Y-97402666D01*
X138575952Y-97897904D02*
X138575952Y-97478857D01*
X138614047Y-97402666D01*
X138690238Y-97364571D01*
X138842619Y-97364571D01*
X138918809Y-97402666D01*
X138575952Y-97859809D02*
X138652142Y-97897904D01*
X138842619Y-97897904D01*
X138918809Y-97859809D01*
X138956904Y-97783619D01*
X138956904Y-97707428D01*
X138918809Y-97631238D01*
X138842619Y-97593142D01*
X138652142Y-97593142D01*
X138575952Y-97555047D01*
X138195000Y-97364571D02*
X138195000Y-98164571D01*
X138195000Y-97402666D02*
X138118809Y-97364571D01*
X137966428Y-97364571D01*
X137890238Y-97402666D01*
X137852142Y-97440761D01*
X137814047Y-97516952D01*
X137814047Y-97745523D01*
X137852142Y-97821714D01*
X137890238Y-97859809D01*
X137966428Y-97897904D01*
X138118809Y-97897904D01*
X138195000Y-97859809D01*
X137585476Y-97364571D02*
X137280714Y-97364571D01*
X137471190Y-97097904D02*
X137471190Y-97783619D01*
X137433095Y-97859809D01*
X137356904Y-97897904D01*
X137280714Y-97897904D01*
X136899761Y-97897904D02*
X136975952Y-97859809D01*
X137014047Y-97821714D01*
X137052142Y-97745523D01*
X137052142Y-97516952D01*
X137014047Y-97440761D01*
X136975952Y-97402666D01*
X136899761Y-97364571D01*
X136785476Y-97364571D01*
X136709285Y-97402666D01*
X136671190Y-97440761D01*
X136633095Y-97516952D01*
X136633095Y-97745523D01*
X136671190Y-97821714D01*
X136709285Y-97859809D01*
X136785476Y-97897904D01*
X136899761Y-97897904D01*
X136290238Y-97897904D02*
X136290238Y-97364571D01*
X136290238Y-97516952D02*
X136252142Y-97440761D01*
X136214047Y-97402666D01*
X136137857Y-97364571D01*
X136061666Y-97364571D01*
X135299761Y-97097904D02*
X135033095Y-97897904D01*
X134766428Y-97097904D01*
X134195000Y-97859809D02*
X134271190Y-97897904D01*
X134423571Y-97897904D01*
X134499761Y-97859809D01*
X134537857Y-97783619D01*
X134537857Y-97478857D01*
X134499761Y-97402666D01*
X134423571Y-97364571D01*
X134271190Y-97364571D01*
X134195000Y-97402666D01*
X134156904Y-97478857D01*
X134156904Y-97555047D01*
X134537857Y-97631238D01*
X133814047Y-97897904D02*
X133814047Y-97364571D01*
X133814047Y-97516952D02*
X133775952Y-97440761D01*
X133737857Y-97402666D01*
X133661666Y-97364571D01*
X133585476Y-97364571D01*
X133318809Y-97821714D02*
X133280714Y-97859809D01*
X133318809Y-97897904D01*
X133356904Y-97859809D01*
X133318809Y-97821714D01*
X133318809Y-97897904D01*
X131909285Y-97897904D02*
X132366428Y-97897904D01*
X132137857Y-97897904D02*
X132137857Y-97097904D01*
X132214047Y-97212190D01*
X132290238Y-97288380D01*
X132366428Y-97326476D01*
X131566428Y-97821714D02*
X131528333Y-97859809D01*
X131566428Y-97897904D01*
X131604523Y-97859809D01*
X131566428Y-97821714D01*
X131566428Y-97897904D01*
X131033095Y-97097904D02*
X130956904Y-97097904D01*
X130880714Y-97136000D01*
X130842619Y-97174095D01*
X130804523Y-97250285D01*
X130766428Y-97402666D01*
X130766428Y-97593142D01*
X130804523Y-97745523D01*
X130842619Y-97821714D01*
X130880714Y-97859809D01*
X130956904Y-97897904D01*
X131033095Y-97897904D01*
X131109285Y-97859809D01*
X131147380Y-97821714D01*
X131185476Y-97745523D01*
X131223571Y-97593142D01*
X131223571Y-97402666D01*
X131185476Y-97250285D01*
X131147380Y-97174095D01*
X131109285Y-97136000D01*
X131033095Y-97097904D01*
M02*
