G04 #@! TF.GenerationSoftware,KiCad,Pcbnew,5.1.5-52549c5~84~ubuntu16.04.1*
G04 #@! TF.CreationDate,2020-03-17T22:21:09-04:00*
G04 #@! TF.ProjectId,switch_adaptor,73776974-6368-45f6-9164-6170746f722e,1.0*
G04 #@! TF.SameCoordinates,Original*
G04 #@! TF.FileFunction,Copper,L2,Bot*
G04 #@! TF.FilePolarity,Positive*
%FSLAX46Y46*%
G04 Gerber Fmt 4.6, Leading zero omitted, Abs format (unit mm)*
G04 Created by KiCad (PCBNEW 5.1.5-52549c5~84~ubuntu16.04.1) date 2020-03-17 22:21:09*
%MOMM*%
%LPD*%
G04 APERTURE LIST*
%ADD10O,2.000000X1.600000*%
%ADD11C,0.254000*%
G04 APERTURE END LIST*
D10*
X143234000Y-95228000D03*
X144334000Y-99828000D03*
X151334000Y-99828000D03*
X148334000Y-99828000D03*
X140484000Y-107718000D03*
X139384000Y-103118000D03*
X132384000Y-103118000D03*
X135384000Y-103118000D03*
X140484000Y-91970000D03*
X139384000Y-87370000D03*
X132384000Y-87370000D03*
X135384000Y-87370000D03*
D11*
G36*
X130908449Y-86701579D02*
G01*
X130802556Y-86963270D01*
X130792096Y-87020961D01*
X130914085Y-87243000D01*
X132257000Y-87243000D01*
X132257000Y-87223000D01*
X132511000Y-87223000D01*
X132511000Y-87243000D01*
X133853915Y-87243000D01*
X133884000Y-87188241D01*
X133914085Y-87243000D01*
X135257000Y-87243000D01*
X135257000Y-87223000D01*
X135511000Y-87223000D01*
X135511000Y-87243000D01*
X136853915Y-87243000D01*
X136975904Y-87020961D01*
X136965444Y-86963270D01*
X136859551Y-86701579D01*
X136735112Y-86512000D01*
X138031764Y-86512000D01*
X137985068Y-86568899D01*
X137851818Y-86818192D01*
X137769764Y-87088691D01*
X137742057Y-87370000D01*
X137769764Y-87651309D01*
X137851818Y-87921808D01*
X137985068Y-88171101D01*
X138164392Y-88389608D01*
X138382899Y-88568932D01*
X138632192Y-88702182D01*
X138902691Y-88784236D01*
X139113508Y-88805000D01*
X139654492Y-88805000D01*
X139865309Y-88784236D01*
X140135808Y-88702182D01*
X140385101Y-88568932D01*
X140603608Y-88389608D01*
X140782932Y-88171101D01*
X140916182Y-87921808D01*
X140998236Y-87651309D01*
X141025943Y-87370000D01*
X140998236Y-87088691D01*
X140916182Y-86818192D01*
X140782932Y-86568899D01*
X140736236Y-86512000D01*
X141191719Y-86512000D01*
X141292533Y-86521885D01*
X141358457Y-86541789D01*
X141419255Y-86574115D01*
X141472619Y-86617639D01*
X141516512Y-86670696D01*
X141549266Y-86731271D01*
X141569628Y-86797053D01*
X141580000Y-86895731D01*
X141580001Y-90846195D01*
X141373227Y-90705570D01*
X141113306Y-90595404D01*
X140836887Y-90538063D01*
X140611000Y-90690526D01*
X140611000Y-91843000D01*
X140631000Y-91843000D01*
X140631000Y-92097000D01*
X140611000Y-92097000D01*
X140611000Y-93249474D01*
X140836887Y-93401937D01*
X141113306Y-93344596D01*
X141373227Y-93234430D01*
X141606662Y-93075673D01*
X141804639Y-92874425D01*
X141959551Y-92638421D01*
X142065444Y-92376730D01*
X142075904Y-92319039D01*
X141953916Y-92097002D01*
X142055096Y-92097002D01*
X142073969Y-92115744D01*
X142115851Y-92158513D01*
X142122952Y-92164387D01*
X142276614Y-92289711D01*
X142326423Y-92322803D01*
X142375795Y-92356610D01*
X142383902Y-92360993D01*
X142558980Y-92454084D01*
X142614275Y-92476875D01*
X142669270Y-92500446D01*
X142678074Y-92503171D01*
X142867900Y-92560482D01*
X142926566Y-92572098D01*
X142985087Y-92584537D01*
X142994252Y-92585500D01*
X143191593Y-92604850D01*
X143191598Y-92604850D01*
X143223581Y-92608000D01*
X153383719Y-92608000D01*
X153484533Y-92617885D01*
X153550457Y-92637789D01*
X153611255Y-92670115D01*
X153664619Y-92713639D01*
X153708512Y-92766696D01*
X153741266Y-92827271D01*
X153761628Y-92893053D01*
X153772000Y-92991731D01*
X153772000Y-96919206D01*
X153737937Y-96868226D01*
X153593774Y-96724063D01*
X153424256Y-96610795D01*
X153235898Y-96532774D01*
X153035939Y-96493000D01*
X152832061Y-96493000D01*
X152632102Y-96532774D01*
X152443744Y-96610795D01*
X152274226Y-96724063D01*
X152130063Y-96868226D01*
X152016795Y-97037744D01*
X151938774Y-97226102D01*
X151899000Y-97426061D01*
X151899000Y-97629939D01*
X151938774Y-97829898D01*
X152016795Y-98018256D01*
X152130063Y-98187774D01*
X152274226Y-98331937D01*
X152443744Y-98445205D01*
X152632102Y-98523226D01*
X152832061Y-98563000D01*
X153035939Y-98563000D01*
X153235898Y-98523226D01*
X153424256Y-98445205D01*
X153593774Y-98331937D01*
X153737937Y-98187774D01*
X153772001Y-98136794D01*
X153772001Y-101821709D01*
X153762115Y-101922531D01*
X153742211Y-101988458D01*
X153709885Y-102049255D01*
X153666362Y-102102618D01*
X153613300Y-102146515D01*
X153552727Y-102179266D01*
X153486947Y-102199628D01*
X153388269Y-102210000D01*
X143223581Y-102210000D01*
X143195309Y-102212784D01*
X143189088Y-102212741D01*
X143179917Y-102213641D01*
X142982715Y-102234368D01*
X142924151Y-102246390D01*
X142865362Y-102257604D01*
X142856540Y-102260268D01*
X142667118Y-102318903D01*
X142612005Y-102342071D01*
X142556507Y-102364493D01*
X142548371Y-102368820D01*
X142373947Y-102463130D01*
X142324331Y-102496597D01*
X142274301Y-102529335D01*
X142267160Y-102535159D01*
X142114376Y-102661553D01*
X142072237Y-102703988D01*
X142029487Y-102745851D01*
X142023613Y-102752952D01*
X141898289Y-102906614D01*
X141865174Y-102956456D01*
X141831390Y-103005796D01*
X141827007Y-103013902D01*
X141733916Y-103188980D01*
X141711125Y-103244275D01*
X141687554Y-103299270D01*
X141684829Y-103308073D01*
X141627518Y-103497900D01*
X141615900Y-103556580D01*
X141603463Y-103615087D01*
X141602500Y-103624252D01*
X141583150Y-103821594D01*
X141583150Y-103821599D01*
X141580000Y-103853582D01*
X141580001Y-106594195D01*
X141373227Y-106453570D01*
X141113306Y-106343404D01*
X140836887Y-106286063D01*
X140611000Y-106438526D01*
X140611000Y-107591000D01*
X140631000Y-107591000D01*
X140631000Y-107845000D01*
X140611000Y-107845000D01*
X140611000Y-107865000D01*
X140357000Y-107865000D01*
X140357000Y-107845000D01*
X139014085Y-107845000D01*
X138892096Y-108067039D01*
X138902556Y-108124730D01*
X139008449Y-108386421D01*
X139122386Y-108560000D01*
X130334281Y-108560000D01*
X130233469Y-108550115D01*
X130167542Y-108530211D01*
X130106745Y-108497885D01*
X130053382Y-108454362D01*
X130009485Y-108401300D01*
X129976734Y-108340727D01*
X129956372Y-108274947D01*
X129946000Y-108176269D01*
X129946000Y-107368961D01*
X138892096Y-107368961D01*
X139014085Y-107591000D01*
X140357000Y-107591000D01*
X140357000Y-106438526D01*
X140131113Y-106286063D01*
X139854694Y-106343404D01*
X139594773Y-106453570D01*
X139361338Y-106612327D01*
X139163361Y-106813575D01*
X139008449Y-107049579D01*
X138902556Y-107311270D01*
X138892096Y-107368961D01*
X129946000Y-107368961D01*
X129946000Y-106026795D01*
X129980063Y-106077774D01*
X130124226Y-106221937D01*
X130293744Y-106335205D01*
X130482102Y-106413226D01*
X130682061Y-106453000D01*
X130885939Y-106453000D01*
X131085898Y-106413226D01*
X131274256Y-106335205D01*
X131443774Y-106221937D01*
X131587937Y-106077774D01*
X131701205Y-105908256D01*
X131779226Y-105719898D01*
X131819000Y-105519939D01*
X131819000Y-105316061D01*
X136749000Y-105316061D01*
X136749000Y-105519939D01*
X136788774Y-105719898D01*
X136866795Y-105908256D01*
X136980063Y-106077774D01*
X137124226Y-106221937D01*
X137293744Y-106335205D01*
X137482102Y-106413226D01*
X137682061Y-106453000D01*
X137885939Y-106453000D01*
X138085898Y-106413226D01*
X138274256Y-106335205D01*
X138443774Y-106221937D01*
X138587937Y-106077774D01*
X138701205Y-105908256D01*
X138779226Y-105719898D01*
X138819000Y-105519939D01*
X138819000Y-105316061D01*
X138779226Y-105116102D01*
X138701205Y-104927744D01*
X138587937Y-104758226D01*
X138443774Y-104614063D01*
X138274256Y-104500795D01*
X138085898Y-104422774D01*
X137885939Y-104383000D01*
X137682061Y-104383000D01*
X137482102Y-104422774D01*
X137293744Y-104500795D01*
X137124226Y-104614063D01*
X136980063Y-104758226D01*
X136866795Y-104927744D01*
X136788774Y-105116102D01*
X136749000Y-105316061D01*
X131819000Y-105316061D01*
X131779226Y-105116102D01*
X131701205Y-104927744D01*
X131587937Y-104758226D01*
X131443774Y-104614063D01*
X131274256Y-104500795D01*
X131085898Y-104422774D01*
X130885939Y-104383000D01*
X130682061Y-104383000D01*
X130482102Y-104422774D01*
X130293744Y-104500795D01*
X130124226Y-104614063D01*
X129980063Y-104758226D01*
X129946000Y-104809205D01*
X129946000Y-103467039D01*
X130792096Y-103467039D01*
X130802556Y-103524730D01*
X130908449Y-103786421D01*
X131063361Y-104022425D01*
X131261338Y-104223673D01*
X131494773Y-104382430D01*
X131754694Y-104492596D01*
X132031113Y-104549937D01*
X132257000Y-104397474D01*
X132257000Y-103245000D01*
X132511000Y-103245000D01*
X132511000Y-104397474D01*
X132736887Y-104549937D01*
X133013306Y-104492596D01*
X133273227Y-104382430D01*
X133506662Y-104223673D01*
X133704639Y-104022425D01*
X133859551Y-103786421D01*
X133884000Y-103726001D01*
X133908449Y-103786421D01*
X134063361Y-104022425D01*
X134261338Y-104223673D01*
X134494773Y-104382430D01*
X134754694Y-104492596D01*
X135031113Y-104549937D01*
X135257000Y-104397474D01*
X135257000Y-103245000D01*
X135511000Y-103245000D01*
X135511000Y-104397474D01*
X135736887Y-104549937D01*
X136013306Y-104492596D01*
X136273227Y-104382430D01*
X136506662Y-104223673D01*
X136704639Y-104022425D01*
X136859551Y-103786421D01*
X136965444Y-103524730D01*
X136975904Y-103467039D01*
X136853915Y-103245000D01*
X135511000Y-103245000D01*
X135257000Y-103245000D01*
X133914085Y-103245000D01*
X133884000Y-103299759D01*
X133853915Y-103245000D01*
X132511000Y-103245000D01*
X132257000Y-103245000D01*
X130914085Y-103245000D01*
X130792096Y-103467039D01*
X129946000Y-103467039D01*
X129946000Y-103118000D01*
X137742057Y-103118000D01*
X137769764Y-103399309D01*
X137851818Y-103669808D01*
X137985068Y-103919101D01*
X138164392Y-104137608D01*
X138382899Y-104316932D01*
X138632192Y-104450182D01*
X138902691Y-104532236D01*
X139113508Y-104553000D01*
X139654492Y-104553000D01*
X139865309Y-104532236D01*
X140135808Y-104450182D01*
X140385101Y-104316932D01*
X140603608Y-104137608D01*
X140782932Y-103919101D01*
X140916182Y-103669808D01*
X140998236Y-103399309D01*
X141025943Y-103118000D01*
X140998236Y-102836691D01*
X140916182Y-102566192D01*
X140782932Y-102316899D01*
X140603608Y-102098392D01*
X140385101Y-101919068D01*
X140135808Y-101785818D01*
X139865309Y-101703764D01*
X139654492Y-101683000D01*
X139113508Y-101683000D01*
X138902691Y-101703764D01*
X138632192Y-101785818D01*
X138382899Y-101919068D01*
X138164392Y-102098392D01*
X137985068Y-102316899D01*
X137851818Y-102566192D01*
X137769764Y-102836691D01*
X137742057Y-103118000D01*
X129946000Y-103118000D01*
X129946000Y-102768961D01*
X130792096Y-102768961D01*
X130914085Y-102991000D01*
X132257000Y-102991000D01*
X132257000Y-101838526D01*
X132511000Y-101838526D01*
X132511000Y-102991000D01*
X133853915Y-102991000D01*
X133884000Y-102936241D01*
X133914085Y-102991000D01*
X135257000Y-102991000D01*
X135257000Y-101838526D01*
X135511000Y-101838526D01*
X135511000Y-102991000D01*
X136853915Y-102991000D01*
X136975904Y-102768961D01*
X136965444Y-102711270D01*
X136859551Y-102449579D01*
X136704639Y-102213575D01*
X136506662Y-102012327D01*
X136273227Y-101853570D01*
X136013306Y-101743404D01*
X135736887Y-101686063D01*
X135511000Y-101838526D01*
X135257000Y-101838526D01*
X135031113Y-101686063D01*
X134754694Y-101743404D01*
X134494773Y-101853570D01*
X134261338Y-102012327D01*
X134063361Y-102213575D01*
X133908449Y-102449579D01*
X133884000Y-102509999D01*
X133859551Y-102449579D01*
X133704639Y-102213575D01*
X133506662Y-102012327D01*
X133273227Y-101853570D01*
X133013306Y-101743404D01*
X132736887Y-101686063D01*
X132511000Y-101838526D01*
X132257000Y-101838526D01*
X132031113Y-101686063D01*
X131754694Y-101743404D01*
X131494773Y-101853570D01*
X131261338Y-102012327D01*
X131063361Y-102213575D01*
X130908449Y-102449579D01*
X130802556Y-102711270D01*
X130792096Y-102768961D01*
X129946000Y-102768961D01*
X129946000Y-100177039D01*
X142742096Y-100177039D01*
X142752556Y-100234730D01*
X142858449Y-100496421D01*
X143013361Y-100732425D01*
X143211338Y-100933673D01*
X143444773Y-101092430D01*
X143704694Y-101202596D01*
X143981113Y-101259937D01*
X144207000Y-101107474D01*
X144207000Y-99955000D01*
X144461000Y-99955000D01*
X144461000Y-101107474D01*
X144686887Y-101259937D01*
X144963306Y-101202596D01*
X145223227Y-101092430D01*
X145456662Y-100933673D01*
X145654639Y-100732425D01*
X145809551Y-100496421D01*
X145915444Y-100234730D01*
X145925904Y-100177039D01*
X145803915Y-99955000D01*
X144461000Y-99955000D01*
X144207000Y-99955000D01*
X142864085Y-99955000D01*
X142742096Y-100177039D01*
X129946000Y-100177039D01*
X129946000Y-99828000D01*
X146692057Y-99828000D01*
X146719764Y-100109309D01*
X146801818Y-100379808D01*
X146935068Y-100629101D01*
X147114392Y-100847608D01*
X147332899Y-101026932D01*
X147582192Y-101160182D01*
X147852691Y-101242236D01*
X148063508Y-101263000D01*
X148604492Y-101263000D01*
X148815309Y-101242236D01*
X149085808Y-101160182D01*
X149335101Y-101026932D01*
X149553608Y-100847608D01*
X149732932Y-100629101D01*
X149834000Y-100440016D01*
X149935068Y-100629101D01*
X150114392Y-100847608D01*
X150332899Y-101026932D01*
X150582192Y-101160182D01*
X150852691Y-101242236D01*
X151063508Y-101263000D01*
X151604492Y-101263000D01*
X151815309Y-101242236D01*
X152085808Y-101160182D01*
X152335101Y-101026932D01*
X152553608Y-100847608D01*
X152732932Y-100629101D01*
X152866182Y-100379808D01*
X152948236Y-100109309D01*
X152975943Y-99828000D01*
X152948236Y-99546691D01*
X152866182Y-99276192D01*
X152732932Y-99026899D01*
X152553608Y-98808392D01*
X152335101Y-98629068D01*
X152085808Y-98495818D01*
X151815309Y-98413764D01*
X151604492Y-98393000D01*
X151063508Y-98393000D01*
X150852691Y-98413764D01*
X150582192Y-98495818D01*
X150332899Y-98629068D01*
X150114392Y-98808392D01*
X149935068Y-99026899D01*
X149834000Y-99215984D01*
X149732932Y-99026899D01*
X149553608Y-98808392D01*
X149335101Y-98629068D01*
X149085808Y-98495818D01*
X148815309Y-98413764D01*
X148604492Y-98393000D01*
X148063508Y-98393000D01*
X147852691Y-98413764D01*
X147582192Y-98495818D01*
X147332899Y-98629068D01*
X147114392Y-98808392D01*
X146935068Y-99026899D01*
X146801818Y-99276192D01*
X146719764Y-99546691D01*
X146692057Y-99828000D01*
X129946000Y-99828000D01*
X129946000Y-99478961D01*
X142742096Y-99478961D01*
X142864085Y-99701000D01*
X144207000Y-99701000D01*
X144207000Y-98548526D01*
X144461000Y-98548526D01*
X144461000Y-99701000D01*
X145803915Y-99701000D01*
X145925904Y-99478961D01*
X145915444Y-99421270D01*
X145809551Y-99159579D01*
X145654639Y-98923575D01*
X145456662Y-98722327D01*
X145223227Y-98563570D01*
X144963306Y-98453404D01*
X144686887Y-98396063D01*
X144461000Y-98548526D01*
X144207000Y-98548526D01*
X143981113Y-98396063D01*
X143704694Y-98453404D01*
X143444773Y-98563570D01*
X143211338Y-98722327D01*
X143013361Y-98923575D01*
X142858449Y-99159579D01*
X142752556Y-99421270D01*
X142742096Y-99478961D01*
X129946000Y-99478961D01*
X129946000Y-97426061D01*
X144899000Y-97426061D01*
X144899000Y-97629939D01*
X144938774Y-97829898D01*
X145016795Y-98018256D01*
X145130063Y-98187774D01*
X145274226Y-98331937D01*
X145443744Y-98445205D01*
X145632102Y-98523226D01*
X145832061Y-98563000D01*
X146035939Y-98563000D01*
X146235898Y-98523226D01*
X146424256Y-98445205D01*
X146593774Y-98331937D01*
X146737937Y-98187774D01*
X146851205Y-98018256D01*
X146929226Y-97829898D01*
X146969000Y-97629939D01*
X146969000Y-97426061D01*
X146929226Y-97226102D01*
X146851205Y-97037744D01*
X146737937Y-96868226D01*
X146593774Y-96724063D01*
X146424256Y-96610795D01*
X146235898Y-96532774D01*
X146035939Y-96493000D01*
X145832061Y-96493000D01*
X145632102Y-96532774D01*
X145443744Y-96610795D01*
X145274226Y-96724063D01*
X145130063Y-96868226D01*
X145016795Y-97037744D01*
X144938774Y-97226102D01*
X144899000Y-97426061D01*
X129946000Y-97426061D01*
X129946000Y-95228000D01*
X141592057Y-95228000D01*
X141619764Y-95509309D01*
X141701818Y-95779808D01*
X141835068Y-96029101D01*
X142014392Y-96247608D01*
X142232899Y-96426932D01*
X142482192Y-96560182D01*
X142752691Y-96642236D01*
X142963508Y-96663000D01*
X143504492Y-96663000D01*
X143715309Y-96642236D01*
X143985808Y-96560182D01*
X144235101Y-96426932D01*
X144453608Y-96247608D01*
X144632932Y-96029101D01*
X144766182Y-95779808D01*
X144848236Y-95509309D01*
X144875943Y-95228000D01*
X144848236Y-94946691D01*
X144766182Y-94676192D01*
X144632932Y-94426899D01*
X144453608Y-94208392D01*
X144235101Y-94029068D01*
X143985808Y-93895818D01*
X143715309Y-93813764D01*
X143504492Y-93793000D01*
X142963508Y-93793000D01*
X142752691Y-93813764D01*
X142482192Y-93895818D01*
X142232899Y-94029068D01*
X142014392Y-94208392D01*
X141835068Y-94426899D01*
X141701818Y-94676192D01*
X141619764Y-94946691D01*
X141592057Y-95228000D01*
X129946000Y-95228000D01*
X129946000Y-92319039D01*
X138892096Y-92319039D01*
X138902556Y-92376730D01*
X139008449Y-92638421D01*
X139163361Y-92874425D01*
X139361338Y-93075673D01*
X139594773Y-93234430D01*
X139854694Y-93344596D01*
X140131113Y-93401937D01*
X140357000Y-93249474D01*
X140357000Y-92097000D01*
X139014085Y-92097000D01*
X138892096Y-92319039D01*
X129946000Y-92319039D01*
X129946000Y-91620961D01*
X138892096Y-91620961D01*
X139014085Y-91843000D01*
X140357000Y-91843000D01*
X140357000Y-90690526D01*
X140131113Y-90538063D01*
X139854694Y-90595404D01*
X139594773Y-90705570D01*
X139361338Y-90864327D01*
X139163361Y-91065575D01*
X139008449Y-91301579D01*
X138902556Y-91563270D01*
X138892096Y-91620961D01*
X129946000Y-91620961D01*
X129946000Y-90278795D01*
X129980063Y-90329774D01*
X130124226Y-90473937D01*
X130293744Y-90587205D01*
X130482102Y-90665226D01*
X130682061Y-90705000D01*
X130885939Y-90705000D01*
X131085898Y-90665226D01*
X131274256Y-90587205D01*
X131443774Y-90473937D01*
X131587937Y-90329774D01*
X131701205Y-90160256D01*
X131779226Y-89971898D01*
X131819000Y-89771939D01*
X131819000Y-89568061D01*
X136749000Y-89568061D01*
X136749000Y-89771939D01*
X136788774Y-89971898D01*
X136866795Y-90160256D01*
X136980063Y-90329774D01*
X137124226Y-90473937D01*
X137293744Y-90587205D01*
X137482102Y-90665226D01*
X137682061Y-90705000D01*
X137885939Y-90705000D01*
X138085898Y-90665226D01*
X138274256Y-90587205D01*
X138443774Y-90473937D01*
X138587937Y-90329774D01*
X138701205Y-90160256D01*
X138779226Y-89971898D01*
X138819000Y-89771939D01*
X138819000Y-89568061D01*
X138779226Y-89368102D01*
X138701205Y-89179744D01*
X138587937Y-89010226D01*
X138443774Y-88866063D01*
X138274256Y-88752795D01*
X138085898Y-88674774D01*
X137885939Y-88635000D01*
X137682061Y-88635000D01*
X137482102Y-88674774D01*
X137293744Y-88752795D01*
X137124226Y-88866063D01*
X136980063Y-89010226D01*
X136866795Y-89179744D01*
X136788774Y-89368102D01*
X136749000Y-89568061D01*
X131819000Y-89568061D01*
X131779226Y-89368102D01*
X131701205Y-89179744D01*
X131587937Y-89010226D01*
X131443774Y-88866063D01*
X131274256Y-88752795D01*
X131085898Y-88674774D01*
X130885939Y-88635000D01*
X130682061Y-88635000D01*
X130482102Y-88674774D01*
X130293744Y-88752795D01*
X130124226Y-88866063D01*
X129980063Y-89010226D01*
X129946000Y-89061205D01*
X129946000Y-87719039D01*
X130792096Y-87719039D01*
X130802556Y-87776730D01*
X130908449Y-88038421D01*
X131063361Y-88274425D01*
X131261338Y-88475673D01*
X131494773Y-88634430D01*
X131754694Y-88744596D01*
X132031113Y-88801937D01*
X132257000Y-88649474D01*
X132257000Y-87497000D01*
X132511000Y-87497000D01*
X132511000Y-88649474D01*
X132736887Y-88801937D01*
X133013306Y-88744596D01*
X133273227Y-88634430D01*
X133506662Y-88475673D01*
X133704639Y-88274425D01*
X133859551Y-88038421D01*
X133884000Y-87978001D01*
X133908449Y-88038421D01*
X134063361Y-88274425D01*
X134261338Y-88475673D01*
X134494773Y-88634430D01*
X134754694Y-88744596D01*
X135031113Y-88801937D01*
X135257000Y-88649474D01*
X135257000Y-87497000D01*
X135511000Y-87497000D01*
X135511000Y-88649474D01*
X135736887Y-88801937D01*
X136013306Y-88744596D01*
X136273227Y-88634430D01*
X136506662Y-88475673D01*
X136704639Y-88274425D01*
X136859551Y-88038421D01*
X136965444Y-87776730D01*
X136975904Y-87719039D01*
X136853915Y-87497000D01*
X135511000Y-87497000D01*
X135257000Y-87497000D01*
X133914085Y-87497000D01*
X133884000Y-87551759D01*
X133853915Y-87497000D01*
X132511000Y-87497000D01*
X132257000Y-87497000D01*
X130914085Y-87497000D01*
X130792096Y-87719039D01*
X129946000Y-87719039D01*
X129946000Y-86900281D01*
X129955885Y-86799467D01*
X129975789Y-86733543D01*
X130008115Y-86672745D01*
X130051639Y-86619381D01*
X130104696Y-86575488D01*
X130165271Y-86542734D01*
X130231053Y-86522372D01*
X130329730Y-86512000D01*
X131032888Y-86512000D01*
X130908449Y-86701579D01*
G37*
X130908449Y-86701579D02*
X130802556Y-86963270D01*
X130792096Y-87020961D01*
X130914085Y-87243000D01*
X132257000Y-87243000D01*
X132257000Y-87223000D01*
X132511000Y-87223000D01*
X132511000Y-87243000D01*
X133853915Y-87243000D01*
X133884000Y-87188241D01*
X133914085Y-87243000D01*
X135257000Y-87243000D01*
X135257000Y-87223000D01*
X135511000Y-87223000D01*
X135511000Y-87243000D01*
X136853915Y-87243000D01*
X136975904Y-87020961D01*
X136965444Y-86963270D01*
X136859551Y-86701579D01*
X136735112Y-86512000D01*
X138031764Y-86512000D01*
X137985068Y-86568899D01*
X137851818Y-86818192D01*
X137769764Y-87088691D01*
X137742057Y-87370000D01*
X137769764Y-87651309D01*
X137851818Y-87921808D01*
X137985068Y-88171101D01*
X138164392Y-88389608D01*
X138382899Y-88568932D01*
X138632192Y-88702182D01*
X138902691Y-88784236D01*
X139113508Y-88805000D01*
X139654492Y-88805000D01*
X139865309Y-88784236D01*
X140135808Y-88702182D01*
X140385101Y-88568932D01*
X140603608Y-88389608D01*
X140782932Y-88171101D01*
X140916182Y-87921808D01*
X140998236Y-87651309D01*
X141025943Y-87370000D01*
X140998236Y-87088691D01*
X140916182Y-86818192D01*
X140782932Y-86568899D01*
X140736236Y-86512000D01*
X141191719Y-86512000D01*
X141292533Y-86521885D01*
X141358457Y-86541789D01*
X141419255Y-86574115D01*
X141472619Y-86617639D01*
X141516512Y-86670696D01*
X141549266Y-86731271D01*
X141569628Y-86797053D01*
X141580000Y-86895731D01*
X141580001Y-90846195D01*
X141373227Y-90705570D01*
X141113306Y-90595404D01*
X140836887Y-90538063D01*
X140611000Y-90690526D01*
X140611000Y-91843000D01*
X140631000Y-91843000D01*
X140631000Y-92097000D01*
X140611000Y-92097000D01*
X140611000Y-93249474D01*
X140836887Y-93401937D01*
X141113306Y-93344596D01*
X141373227Y-93234430D01*
X141606662Y-93075673D01*
X141804639Y-92874425D01*
X141959551Y-92638421D01*
X142065444Y-92376730D01*
X142075904Y-92319039D01*
X141953916Y-92097002D01*
X142055096Y-92097002D01*
X142073969Y-92115744D01*
X142115851Y-92158513D01*
X142122952Y-92164387D01*
X142276614Y-92289711D01*
X142326423Y-92322803D01*
X142375795Y-92356610D01*
X142383902Y-92360993D01*
X142558980Y-92454084D01*
X142614275Y-92476875D01*
X142669270Y-92500446D01*
X142678074Y-92503171D01*
X142867900Y-92560482D01*
X142926566Y-92572098D01*
X142985087Y-92584537D01*
X142994252Y-92585500D01*
X143191593Y-92604850D01*
X143191598Y-92604850D01*
X143223581Y-92608000D01*
X153383719Y-92608000D01*
X153484533Y-92617885D01*
X153550457Y-92637789D01*
X153611255Y-92670115D01*
X153664619Y-92713639D01*
X153708512Y-92766696D01*
X153741266Y-92827271D01*
X153761628Y-92893053D01*
X153772000Y-92991731D01*
X153772000Y-96919206D01*
X153737937Y-96868226D01*
X153593774Y-96724063D01*
X153424256Y-96610795D01*
X153235898Y-96532774D01*
X153035939Y-96493000D01*
X152832061Y-96493000D01*
X152632102Y-96532774D01*
X152443744Y-96610795D01*
X152274226Y-96724063D01*
X152130063Y-96868226D01*
X152016795Y-97037744D01*
X151938774Y-97226102D01*
X151899000Y-97426061D01*
X151899000Y-97629939D01*
X151938774Y-97829898D01*
X152016795Y-98018256D01*
X152130063Y-98187774D01*
X152274226Y-98331937D01*
X152443744Y-98445205D01*
X152632102Y-98523226D01*
X152832061Y-98563000D01*
X153035939Y-98563000D01*
X153235898Y-98523226D01*
X153424256Y-98445205D01*
X153593774Y-98331937D01*
X153737937Y-98187774D01*
X153772001Y-98136794D01*
X153772001Y-101821709D01*
X153762115Y-101922531D01*
X153742211Y-101988458D01*
X153709885Y-102049255D01*
X153666362Y-102102618D01*
X153613300Y-102146515D01*
X153552727Y-102179266D01*
X153486947Y-102199628D01*
X153388269Y-102210000D01*
X143223581Y-102210000D01*
X143195309Y-102212784D01*
X143189088Y-102212741D01*
X143179917Y-102213641D01*
X142982715Y-102234368D01*
X142924151Y-102246390D01*
X142865362Y-102257604D01*
X142856540Y-102260268D01*
X142667118Y-102318903D01*
X142612005Y-102342071D01*
X142556507Y-102364493D01*
X142548371Y-102368820D01*
X142373947Y-102463130D01*
X142324331Y-102496597D01*
X142274301Y-102529335D01*
X142267160Y-102535159D01*
X142114376Y-102661553D01*
X142072237Y-102703988D01*
X142029487Y-102745851D01*
X142023613Y-102752952D01*
X141898289Y-102906614D01*
X141865174Y-102956456D01*
X141831390Y-103005796D01*
X141827007Y-103013902D01*
X141733916Y-103188980D01*
X141711125Y-103244275D01*
X141687554Y-103299270D01*
X141684829Y-103308073D01*
X141627518Y-103497900D01*
X141615900Y-103556580D01*
X141603463Y-103615087D01*
X141602500Y-103624252D01*
X141583150Y-103821594D01*
X141583150Y-103821599D01*
X141580000Y-103853582D01*
X141580001Y-106594195D01*
X141373227Y-106453570D01*
X141113306Y-106343404D01*
X140836887Y-106286063D01*
X140611000Y-106438526D01*
X140611000Y-107591000D01*
X140631000Y-107591000D01*
X140631000Y-107845000D01*
X140611000Y-107845000D01*
X140611000Y-107865000D01*
X140357000Y-107865000D01*
X140357000Y-107845000D01*
X139014085Y-107845000D01*
X138892096Y-108067039D01*
X138902556Y-108124730D01*
X139008449Y-108386421D01*
X139122386Y-108560000D01*
X130334281Y-108560000D01*
X130233469Y-108550115D01*
X130167542Y-108530211D01*
X130106745Y-108497885D01*
X130053382Y-108454362D01*
X130009485Y-108401300D01*
X129976734Y-108340727D01*
X129956372Y-108274947D01*
X129946000Y-108176269D01*
X129946000Y-107368961D01*
X138892096Y-107368961D01*
X139014085Y-107591000D01*
X140357000Y-107591000D01*
X140357000Y-106438526D01*
X140131113Y-106286063D01*
X139854694Y-106343404D01*
X139594773Y-106453570D01*
X139361338Y-106612327D01*
X139163361Y-106813575D01*
X139008449Y-107049579D01*
X138902556Y-107311270D01*
X138892096Y-107368961D01*
X129946000Y-107368961D01*
X129946000Y-106026795D01*
X129980063Y-106077774D01*
X130124226Y-106221937D01*
X130293744Y-106335205D01*
X130482102Y-106413226D01*
X130682061Y-106453000D01*
X130885939Y-106453000D01*
X131085898Y-106413226D01*
X131274256Y-106335205D01*
X131443774Y-106221937D01*
X131587937Y-106077774D01*
X131701205Y-105908256D01*
X131779226Y-105719898D01*
X131819000Y-105519939D01*
X131819000Y-105316061D01*
X136749000Y-105316061D01*
X136749000Y-105519939D01*
X136788774Y-105719898D01*
X136866795Y-105908256D01*
X136980063Y-106077774D01*
X137124226Y-106221937D01*
X137293744Y-106335205D01*
X137482102Y-106413226D01*
X137682061Y-106453000D01*
X137885939Y-106453000D01*
X138085898Y-106413226D01*
X138274256Y-106335205D01*
X138443774Y-106221937D01*
X138587937Y-106077774D01*
X138701205Y-105908256D01*
X138779226Y-105719898D01*
X138819000Y-105519939D01*
X138819000Y-105316061D01*
X138779226Y-105116102D01*
X138701205Y-104927744D01*
X138587937Y-104758226D01*
X138443774Y-104614063D01*
X138274256Y-104500795D01*
X138085898Y-104422774D01*
X137885939Y-104383000D01*
X137682061Y-104383000D01*
X137482102Y-104422774D01*
X137293744Y-104500795D01*
X137124226Y-104614063D01*
X136980063Y-104758226D01*
X136866795Y-104927744D01*
X136788774Y-105116102D01*
X136749000Y-105316061D01*
X131819000Y-105316061D01*
X131779226Y-105116102D01*
X131701205Y-104927744D01*
X131587937Y-104758226D01*
X131443774Y-104614063D01*
X131274256Y-104500795D01*
X131085898Y-104422774D01*
X130885939Y-104383000D01*
X130682061Y-104383000D01*
X130482102Y-104422774D01*
X130293744Y-104500795D01*
X130124226Y-104614063D01*
X129980063Y-104758226D01*
X129946000Y-104809205D01*
X129946000Y-103467039D01*
X130792096Y-103467039D01*
X130802556Y-103524730D01*
X130908449Y-103786421D01*
X131063361Y-104022425D01*
X131261338Y-104223673D01*
X131494773Y-104382430D01*
X131754694Y-104492596D01*
X132031113Y-104549937D01*
X132257000Y-104397474D01*
X132257000Y-103245000D01*
X132511000Y-103245000D01*
X132511000Y-104397474D01*
X132736887Y-104549937D01*
X133013306Y-104492596D01*
X133273227Y-104382430D01*
X133506662Y-104223673D01*
X133704639Y-104022425D01*
X133859551Y-103786421D01*
X133884000Y-103726001D01*
X133908449Y-103786421D01*
X134063361Y-104022425D01*
X134261338Y-104223673D01*
X134494773Y-104382430D01*
X134754694Y-104492596D01*
X135031113Y-104549937D01*
X135257000Y-104397474D01*
X135257000Y-103245000D01*
X135511000Y-103245000D01*
X135511000Y-104397474D01*
X135736887Y-104549937D01*
X136013306Y-104492596D01*
X136273227Y-104382430D01*
X136506662Y-104223673D01*
X136704639Y-104022425D01*
X136859551Y-103786421D01*
X136965444Y-103524730D01*
X136975904Y-103467039D01*
X136853915Y-103245000D01*
X135511000Y-103245000D01*
X135257000Y-103245000D01*
X133914085Y-103245000D01*
X133884000Y-103299759D01*
X133853915Y-103245000D01*
X132511000Y-103245000D01*
X132257000Y-103245000D01*
X130914085Y-103245000D01*
X130792096Y-103467039D01*
X129946000Y-103467039D01*
X129946000Y-103118000D01*
X137742057Y-103118000D01*
X137769764Y-103399309D01*
X137851818Y-103669808D01*
X137985068Y-103919101D01*
X138164392Y-104137608D01*
X138382899Y-104316932D01*
X138632192Y-104450182D01*
X138902691Y-104532236D01*
X139113508Y-104553000D01*
X139654492Y-104553000D01*
X139865309Y-104532236D01*
X140135808Y-104450182D01*
X140385101Y-104316932D01*
X140603608Y-104137608D01*
X140782932Y-103919101D01*
X140916182Y-103669808D01*
X140998236Y-103399309D01*
X141025943Y-103118000D01*
X140998236Y-102836691D01*
X140916182Y-102566192D01*
X140782932Y-102316899D01*
X140603608Y-102098392D01*
X140385101Y-101919068D01*
X140135808Y-101785818D01*
X139865309Y-101703764D01*
X139654492Y-101683000D01*
X139113508Y-101683000D01*
X138902691Y-101703764D01*
X138632192Y-101785818D01*
X138382899Y-101919068D01*
X138164392Y-102098392D01*
X137985068Y-102316899D01*
X137851818Y-102566192D01*
X137769764Y-102836691D01*
X137742057Y-103118000D01*
X129946000Y-103118000D01*
X129946000Y-102768961D01*
X130792096Y-102768961D01*
X130914085Y-102991000D01*
X132257000Y-102991000D01*
X132257000Y-101838526D01*
X132511000Y-101838526D01*
X132511000Y-102991000D01*
X133853915Y-102991000D01*
X133884000Y-102936241D01*
X133914085Y-102991000D01*
X135257000Y-102991000D01*
X135257000Y-101838526D01*
X135511000Y-101838526D01*
X135511000Y-102991000D01*
X136853915Y-102991000D01*
X136975904Y-102768961D01*
X136965444Y-102711270D01*
X136859551Y-102449579D01*
X136704639Y-102213575D01*
X136506662Y-102012327D01*
X136273227Y-101853570D01*
X136013306Y-101743404D01*
X135736887Y-101686063D01*
X135511000Y-101838526D01*
X135257000Y-101838526D01*
X135031113Y-101686063D01*
X134754694Y-101743404D01*
X134494773Y-101853570D01*
X134261338Y-102012327D01*
X134063361Y-102213575D01*
X133908449Y-102449579D01*
X133884000Y-102509999D01*
X133859551Y-102449579D01*
X133704639Y-102213575D01*
X133506662Y-102012327D01*
X133273227Y-101853570D01*
X133013306Y-101743404D01*
X132736887Y-101686063D01*
X132511000Y-101838526D01*
X132257000Y-101838526D01*
X132031113Y-101686063D01*
X131754694Y-101743404D01*
X131494773Y-101853570D01*
X131261338Y-102012327D01*
X131063361Y-102213575D01*
X130908449Y-102449579D01*
X130802556Y-102711270D01*
X130792096Y-102768961D01*
X129946000Y-102768961D01*
X129946000Y-100177039D01*
X142742096Y-100177039D01*
X142752556Y-100234730D01*
X142858449Y-100496421D01*
X143013361Y-100732425D01*
X143211338Y-100933673D01*
X143444773Y-101092430D01*
X143704694Y-101202596D01*
X143981113Y-101259937D01*
X144207000Y-101107474D01*
X144207000Y-99955000D01*
X144461000Y-99955000D01*
X144461000Y-101107474D01*
X144686887Y-101259937D01*
X144963306Y-101202596D01*
X145223227Y-101092430D01*
X145456662Y-100933673D01*
X145654639Y-100732425D01*
X145809551Y-100496421D01*
X145915444Y-100234730D01*
X145925904Y-100177039D01*
X145803915Y-99955000D01*
X144461000Y-99955000D01*
X144207000Y-99955000D01*
X142864085Y-99955000D01*
X142742096Y-100177039D01*
X129946000Y-100177039D01*
X129946000Y-99828000D01*
X146692057Y-99828000D01*
X146719764Y-100109309D01*
X146801818Y-100379808D01*
X146935068Y-100629101D01*
X147114392Y-100847608D01*
X147332899Y-101026932D01*
X147582192Y-101160182D01*
X147852691Y-101242236D01*
X148063508Y-101263000D01*
X148604492Y-101263000D01*
X148815309Y-101242236D01*
X149085808Y-101160182D01*
X149335101Y-101026932D01*
X149553608Y-100847608D01*
X149732932Y-100629101D01*
X149834000Y-100440016D01*
X149935068Y-100629101D01*
X150114392Y-100847608D01*
X150332899Y-101026932D01*
X150582192Y-101160182D01*
X150852691Y-101242236D01*
X151063508Y-101263000D01*
X151604492Y-101263000D01*
X151815309Y-101242236D01*
X152085808Y-101160182D01*
X152335101Y-101026932D01*
X152553608Y-100847608D01*
X152732932Y-100629101D01*
X152866182Y-100379808D01*
X152948236Y-100109309D01*
X152975943Y-99828000D01*
X152948236Y-99546691D01*
X152866182Y-99276192D01*
X152732932Y-99026899D01*
X152553608Y-98808392D01*
X152335101Y-98629068D01*
X152085808Y-98495818D01*
X151815309Y-98413764D01*
X151604492Y-98393000D01*
X151063508Y-98393000D01*
X150852691Y-98413764D01*
X150582192Y-98495818D01*
X150332899Y-98629068D01*
X150114392Y-98808392D01*
X149935068Y-99026899D01*
X149834000Y-99215984D01*
X149732932Y-99026899D01*
X149553608Y-98808392D01*
X149335101Y-98629068D01*
X149085808Y-98495818D01*
X148815309Y-98413764D01*
X148604492Y-98393000D01*
X148063508Y-98393000D01*
X147852691Y-98413764D01*
X147582192Y-98495818D01*
X147332899Y-98629068D01*
X147114392Y-98808392D01*
X146935068Y-99026899D01*
X146801818Y-99276192D01*
X146719764Y-99546691D01*
X146692057Y-99828000D01*
X129946000Y-99828000D01*
X129946000Y-99478961D01*
X142742096Y-99478961D01*
X142864085Y-99701000D01*
X144207000Y-99701000D01*
X144207000Y-98548526D01*
X144461000Y-98548526D01*
X144461000Y-99701000D01*
X145803915Y-99701000D01*
X145925904Y-99478961D01*
X145915444Y-99421270D01*
X145809551Y-99159579D01*
X145654639Y-98923575D01*
X145456662Y-98722327D01*
X145223227Y-98563570D01*
X144963306Y-98453404D01*
X144686887Y-98396063D01*
X144461000Y-98548526D01*
X144207000Y-98548526D01*
X143981113Y-98396063D01*
X143704694Y-98453404D01*
X143444773Y-98563570D01*
X143211338Y-98722327D01*
X143013361Y-98923575D01*
X142858449Y-99159579D01*
X142752556Y-99421270D01*
X142742096Y-99478961D01*
X129946000Y-99478961D01*
X129946000Y-97426061D01*
X144899000Y-97426061D01*
X144899000Y-97629939D01*
X144938774Y-97829898D01*
X145016795Y-98018256D01*
X145130063Y-98187774D01*
X145274226Y-98331937D01*
X145443744Y-98445205D01*
X145632102Y-98523226D01*
X145832061Y-98563000D01*
X146035939Y-98563000D01*
X146235898Y-98523226D01*
X146424256Y-98445205D01*
X146593774Y-98331937D01*
X146737937Y-98187774D01*
X146851205Y-98018256D01*
X146929226Y-97829898D01*
X146969000Y-97629939D01*
X146969000Y-97426061D01*
X146929226Y-97226102D01*
X146851205Y-97037744D01*
X146737937Y-96868226D01*
X146593774Y-96724063D01*
X146424256Y-96610795D01*
X146235898Y-96532774D01*
X146035939Y-96493000D01*
X145832061Y-96493000D01*
X145632102Y-96532774D01*
X145443744Y-96610795D01*
X145274226Y-96724063D01*
X145130063Y-96868226D01*
X145016795Y-97037744D01*
X144938774Y-97226102D01*
X144899000Y-97426061D01*
X129946000Y-97426061D01*
X129946000Y-95228000D01*
X141592057Y-95228000D01*
X141619764Y-95509309D01*
X141701818Y-95779808D01*
X141835068Y-96029101D01*
X142014392Y-96247608D01*
X142232899Y-96426932D01*
X142482192Y-96560182D01*
X142752691Y-96642236D01*
X142963508Y-96663000D01*
X143504492Y-96663000D01*
X143715309Y-96642236D01*
X143985808Y-96560182D01*
X144235101Y-96426932D01*
X144453608Y-96247608D01*
X144632932Y-96029101D01*
X144766182Y-95779808D01*
X144848236Y-95509309D01*
X144875943Y-95228000D01*
X144848236Y-94946691D01*
X144766182Y-94676192D01*
X144632932Y-94426899D01*
X144453608Y-94208392D01*
X144235101Y-94029068D01*
X143985808Y-93895818D01*
X143715309Y-93813764D01*
X143504492Y-93793000D01*
X142963508Y-93793000D01*
X142752691Y-93813764D01*
X142482192Y-93895818D01*
X142232899Y-94029068D01*
X142014392Y-94208392D01*
X141835068Y-94426899D01*
X141701818Y-94676192D01*
X141619764Y-94946691D01*
X141592057Y-95228000D01*
X129946000Y-95228000D01*
X129946000Y-92319039D01*
X138892096Y-92319039D01*
X138902556Y-92376730D01*
X139008449Y-92638421D01*
X139163361Y-92874425D01*
X139361338Y-93075673D01*
X139594773Y-93234430D01*
X139854694Y-93344596D01*
X140131113Y-93401937D01*
X140357000Y-93249474D01*
X140357000Y-92097000D01*
X139014085Y-92097000D01*
X138892096Y-92319039D01*
X129946000Y-92319039D01*
X129946000Y-91620961D01*
X138892096Y-91620961D01*
X139014085Y-91843000D01*
X140357000Y-91843000D01*
X140357000Y-90690526D01*
X140131113Y-90538063D01*
X139854694Y-90595404D01*
X139594773Y-90705570D01*
X139361338Y-90864327D01*
X139163361Y-91065575D01*
X139008449Y-91301579D01*
X138902556Y-91563270D01*
X138892096Y-91620961D01*
X129946000Y-91620961D01*
X129946000Y-90278795D01*
X129980063Y-90329774D01*
X130124226Y-90473937D01*
X130293744Y-90587205D01*
X130482102Y-90665226D01*
X130682061Y-90705000D01*
X130885939Y-90705000D01*
X131085898Y-90665226D01*
X131274256Y-90587205D01*
X131443774Y-90473937D01*
X131587937Y-90329774D01*
X131701205Y-90160256D01*
X131779226Y-89971898D01*
X131819000Y-89771939D01*
X131819000Y-89568061D01*
X136749000Y-89568061D01*
X136749000Y-89771939D01*
X136788774Y-89971898D01*
X136866795Y-90160256D01*
X136980063Y-90329774D01*
X137124226Y-90473937D01*
X137293744Y-90587205D01*
X137482102Y-90665226D01*
X137682061Y-90705000D01*
X137885939Y-90705000D01*
X138085898Y-90665226D01*
X138274256Y-90587205D01*
X138443774Y-90473937D01*
X138587937Y-90329774D01*
X138701205Y-90160256D01*
X138779226Y-89971898D01*
X138819000Y-89771939D01*
X138819000Y-89568061D01*
X138779226Y-89368102D01*
X138701205Y-89179744D01*
X138587937Y-89010226D01*
X138443774Y-88866063D01*
X138274256Y-88752795D01*
X138085898Y-88674774D01*
X137885939Y-88635000D01*
X137682061Y-88635000D01*
X137482102Y-88674774D01*
X137293744Y-88752795D01*
X137124226Y-88866063D01*
X136980063Y-89010226D01*
X136866795Y-89179744D01*
X136788774Y-89368102D01*
X136749000Y-89568061D01*
X131819000Y-89568061D01*
X131779226Y-89368102D01*
X131701205Y-89179744D01*
X131587937Y-89010226D01*
X131443774Y-88866063D01*
X131274256Y-88752795D01*
X131085898Y-88674774D01*
X130885939Y-88635000D01*
X130682061Y-88635000D01*
X130482102Y-88674774D01*
X130293744Y-88752795D01*
X130124226Y-88866063D01*
X129980063Y-89010226D01*
X129946000Y-89061205D01*
X129946000Y-87719039D01*
X130792096Y-87719039D01*
X130802556Y-87776730D01*
X130908449Y-88038421D01*
X131063361Y-88274425D01*
X131261338Y-88475673D01*
X131494773Y-88634430D01*
X131754694Y-88744596D01*
X132031113Y-88801937D01*
X132257000Y-88649474D01*
X132257000Y-87497000D01*
X132511000Y-87497000D01*
X132511000Y-88649474D01*
X132736887Y-88801937D01*
X133013306Y-88744596D01*
X133273227Y-88634430D01*
X133506662Y-88475673D01*
X133704639Y-88274425D01*
X133859551Y-88038421D01*
X133884000Y-87978001D01*
X133908449Y-88038421D01*
X134063361Y-88274425D01*
X134261338Y-88475673D01*
X134494773Y-88634430D01*
X134754694Y-88744596D01*
X135031113Y-88801937D01*
X135257000Y-88649474D01*
X135257000Y-87497000D01*
X135511000Y-87497000D01*
X135511000Y-88649474D01*
X135736887Y-88801937D01*
X136013306Y-88744596D01*
X136273227Y-88634430D01*
X136506662Y-88475673D01*
X136704639Y-88274425D01*
X136859551Y-88038421D01*
X136965444Y-87776730D01*
X136975904Y-87719039D01*
X136853915Y-87497000D01*
X135511000Y-87497000D01*
X135257000Y-87497000D01*
X133914085Y-87497000D01*
X133884000Y-87551759D01*
X133853915Y-87497000D01*
X132511000Y-87497000D01*
X132257000Y-87497000D01*
X130914085Y-87497000D01*
X130792096Y-87719039D01*
X129946000Y-87719039D01*
X129946000Y-86900281D01*
X129955885Y-86799467D01*
X129975789Y-86733543D01*
X130008115Y-86672745D01*
X130051639Y-86619381D01*
X130104696Y-86575488D01*
X130165271Y-86542734D01*
X130231053Y-86522372D01*
X130329730Y-86512000D01*
X131032888Y-86512000D01*
X130908449Y-86701579D01*
M02*
