M48
INCH,TZ
T1C0.0354
%
G90
G05
T1
G00X52041Y-34398
M15
G01X52198Y-34398
M16
G05
G00X53222Y-34398
M15
G01X53380Y-34398
M16
G05
G00X54797Y-34398
M15
G01X54954Y-34398
M16
G05
G00X55230Y-36209
M15
G01X55387Y-36209
M16
G05
G00X52041Y-40598
M15
G01X52198Y-40598
M16
G05
G00X53222Y-40598
M15
G01X53380Y-40598
M16
G05
G00X54797Y-40598
M15
G01X54954Y-40598
M16
G05
G00X55230Y-42409
M15
G01X55387Y-42409
M16
G05
G00X56470Y-37491
M15
G01X56313Y-37491
M16
G05
G00X56903Y-39302
M15
G01X56746Y-39302
M16
G05
G00X58478Y-39302
M15
G01X58320Y-39302
M16
G05
G00X59659Y-39302
M15
G01X59502Y-39302
M16
G05
T0
M30
