G04 #@! TF.GenerationSoftware,KiCad,Pcbnew,5.1.7-a382d34a8~87~ubuntu20.04.1*
G04 #@! TF.CreationDate,2020-11-13T16:05:12-05:00*
G04 #@! TF.ProjectId,atmega32u4_hub_pcb_1_3,61746d65-6761-4333-9275-345f6875625f,1.3*
G04 #@! TF.SameCoordinates,Original*
G04 #@! TF.FileFunction,Soldermask,Bot*
G04 #@! TF.FilePolarity,Negative*
%FSLAX46Y46*%
G04 Gerber Fmt 4.6, Leading zero omitted, Abs format (unit mm)*
G04 Created by KiCad (PCBNEW 5.1.7-a382d34a8~87~ubuntu20.04.1) date 2020-11-13 16:05:12*
%MOMM*%
%LPD*%
G01*
G04 APERTURE LIST*
%ADD10R,5.150000X5.150000*%
%ADD11O,1.700000X1.700000*%
%ADD12R,1.700000X1.700000*%
%ADD13R,0.900000X0.800000*%
%ADD14C,1.800000*%
%ADD15O,2.000000X1.600000*%
%ADD16C,0.800000*%
%ADD17R,0.800000X0.900000*%
%ADD18R,1.800000X1.800000*%
%ADD19R,1.200000X1.400000*%
%ADD20C,2.000000*%
%ADD21C,3.500000*%
%ADD22C,1.700000*%
%ADD23O,1.070000X1.800000*%
%ADD24R,1.070000X1.800000*%
%ADD25R,2.500000X1.800000*%
%ADD26R,2.000000X2.000000*%
G04 APERTURE END LIST*
G36*
G01*
X145629900Y-109259600D02*
X145504900Y-109259600D01*
G75*
G02*
X145442400Y-109197100I0J62500D01*
G01*
X145442400Y-108447100D01*
G75*
G02*
X145504900Y-108384600I62500J0D01*
G01*
X145629900Y-108384600D01*
G75*
G02*
X145692400Y-108447100I0J-62500D01*
G01*
X145692400Y-109197100D01*
G75*
G02*
X145629900Y-109259600I-62500J0D01*
G01*
G37*
G36*
G01*
X145129900Y-109259600D02*
X145004900Y-109259600D01*
G75*
G02*
X144942400Y-109197100I0J62500D01*
G01*
X144942400Y-108447100D01*
G75*
G02*
X145004900Y-108384600I62500J0D01*
G01*
X145129900Y-108384600D01*
G75*
G02*
X145192400Y-108447100I0J-62500D01*
G01*
X145192400Y-109197100D01*
G75*
G02*
X145129900Y-109259600I-62500J0D01*
G01*
G37*
G36*
G01*
X144629900Y-109259600D02*
X144504900Y-109259600D01*
G75*
G02*
X144442400Y-109197100I0J62500D01*
G01*
X144442400Y-108447100D01*
G75*
G02*
X144504900Y-108384600I62500J0D01*
G01*
X144629900Y-108384600D01*
G75*
G02*
X144692400Y-108447100I0J-62500D01*
G01*
X144692400Y-109197100D01*
G75*
G02*
X144629900Y-109259600I-62500J0D01*
G01*
G37*
G36*
G01*
X144129900Y-109259600D02*
X144004900Y-109259600D01*
G75*
G02*
X143942400Y-109197100I0J62500D01*
G01*
X143942400Y-108447100D01*
G75*
G02*
X144004900Y-108384600I62500J0D01*
G01*
X144129900Y-108384600D01*
G75*
G02*
X144192400Y-108447100I0J-62500D01*
G01*
X144192400Y-109197100D01*
G75*
G02*
X144129900Y-109259600I-62500J0D01*
G01*
G37*
G36*
G01*
X143629900Y-109259600D02*
X143504900Y-109259600D01*
G75*
G02*
X143442400Y-109197100I0J62500D01*
G01*
X143442400Y-108447100D01*
G75*
G02*
X143504900Y-108384600I62500J0D01*
G01*
X143629900Y-108384600D01*
G75*
G02*
X143692400Y-108447100I0J-62500D01*
G01*
X143692400Y-109197100D01*
G75*
G02*
X143629900Y-109259600I-62500J0D01*
G01*
G37*
G36*
G01*
X143129900Y-109259600D02*
X143004900Y-109259600D01*
G75*
G02*
X142942400Y-109197100I0J62500D01*
G01*
X142942400Y-108447100D01*
G75*
G02*
X143004900Y-108384600I62500J0D01*
G01*
X143129900Y-108384600D01*
G75*
G02*
X143192400Y-108447100I0J-62500D01*
G01*
X143192400Y-109197100D01*
G75*
G02*
X143129900Y-109259600I-62500J0D01*
G01*
G37*
G36*
G01*
X142629900Y-109259600D02*
X142504900Y-109259600D01*
G75*
G02*
X142442400Y-109197100I0J62500D01*
G01*
X142442400Y-108447100D01*
G75*
G02*
X142504900Y-108384600I62500J0D01*
G01*
X142629900Y-108384600D01*
G75*
G02*
X142692400Y-108447100I0J-62500D01*
G01*
X142692400Y-109197100D01*
G75*
G02*
X142629900Y-109259600I-62500J0D01*
G01*
G37*
G36*
G01*
X142129900Y-109259600D02*
X142004900Y-109259600D01*
G75*
G02*
X141942400Y-109197100I0J62500D01*
G01*
X141942400Y-108447100D01*
G75*
G02*
X142004900Y-108384600I62500J0D01*
G01*
X142129900Y-108384600D01*
G75*
G02*
X142192400Y-108447100I0J-62500D01*
G01*
X142192400Y-109197100D01*
G75*
G02*
X142129900Y-109259600I-62500J0D01*
G01*
G37*
G36*
G01*
X141629900Y-109259600D02*
X141504900Y-109259600D01*
G75*
G02*
X141442400Y-109197100I0J62500D01*
G01*
X141442400Y-108447100D01*
G75*
G02*
X141504900Y-108384600I62500J0D01*
G01*
X141629900Y-108384600D01*
G75*
G02*
X141692400Y-108447100I0J-62500D01*
G01*
X141692400Y-109197100D01*
G75*
G02*
X141629900Y-109259600I-62500J0D01*
G01*
G37*
G36*
G01*
X141129900Y-109259600D02*
X141004900Y-109259600D01*
G75*
G02*
X140942400Y-109197100I0J62500D01*
G01*
X140942400Y-108447100D01*
G75*
G02*
X141004900Y-108384600I62500J0D01*
G01*
X141129900Y-108384600D01*
G75*
G02*
X141192400Y-108447100I0J-62500D01*
G01*
X141192400Y-109197100D01*
G75*
G02*
X141129900Y-109259600I-62500J0D01*
G01*
G37*
G36*
G01*
X140629900Y-109259600D02*
X140504900Y-109259600D01*
G75*
G02*
X140442400Y-109197100I0J62500D01*
G01*
X140442400Y-108447100D01*
G75*
G02*
X140504900Y-108384600I62500J0D01*
G01*
X140629900Y-108384600D01*
G75*
G02*
X140692400Y-108447100I0J-62500D01*
G01*
X140692400Y-109197100D01*
G75*
G02*
X140629900Y-109259600I-62500J0D01*
G01*
G37*
G36*
G01*
X140004900Y-108009600D02*
X139254900Y-108009600D01*
G75*
G02*
X139192400Y-107947100I0J62500D01*
G01*
X139192400Y-107822100D01*
G75*
G02*
X139254900Y-107759600I62500J0D01*
G01*
X140004900Y-107759600D01*
G75*
G02*
X140067400Y-107822100I0J-62500D01*
G01*
X140067400Y-107947100D01*
G75*
G02*
X140004900Y-108009600I-62500J0D01*
G01*
G37*
G36*
G01*
X140004900Y-107509600D02*
X139254900Y-107509600D01*
G75*
G02*
X139192400Y-107447100I0J62500D01*
G01*
X139192400Y-107322100D01*
G75*
G02*
X139254900Y-107259600I62500J0D01*
G01*
X140004900Y-107259600D01*
G75*
G02*
X140067400Y-107322100I0J-62500D01*
G01*
X140067400Y-107447100D01*
G75*
G02*
X140004900Y-107509600I-62500J0D01*
G01*
G37*
G36*
G01*
X140004900Y-107009600D02*
X139254900Y-107009600D01*
G75*
G02*
X139192400Y-106947100I0J62500D01*
G01*
X139192400Y-106822100D01*
G75*
G02*
X139254900Y-106759600I62500J0D01*
G01*
X140004900Y-106759600D01*
G75*
G02*
X140067400Y-106822100I0J-62500D01*
G01*
X140067400Y-106947100D01*
G75*
G02*
X140004900Y-107009600I-62500J0D01*
G01*
G37*
G36*
G01*
X140004900Y-106509600D02*
X139254900Y-106509600D01*
G75*
G02*
X139192400Y-106447100I0J62500D01*
G01*
X139192400Y-106322100D01*
G75*
G02*
X139254900Y-106259600I62500J0D01*
G01*
X140004900Y-106259600D01*
G75*
G02*
X140067400Y-106322100I0J-62500D01*
G01*
X140067400Y-106447100D01*
G75*
G02*
X140004900Y-106509600I-62500J0D01*
G01*
G37*
G36*
G01*
X140004900Y-106009600D02*
X139254900Y-106009600D01*
G75*
G02*
X139192400Y-105947100I0J62500D01*
G01*
X139192400Y-105822100D01*
G75*
G02*
X139254900Y-105759600I62500J0D01*
G01*
X140004900Y-105759600D01*
G75*
G02*
X140067400Y-105822100I0J-62500D01*
G01*
X140067400Y-105947100D01*
G75*
G02*
X140004900Y-106009600I-62500J0D01*
G01*
G37*
G36*
G01*
X140004900Y-105509600D02*
X139254900Y-105509600D01*
G75*
G02*
X139192400Y-105447100I0J62500D01*
G01*
X139192400Y-105322100D01*
G75*
G02*
X139254900Y-105259600I62500J0D01*
G01*
X140004900Y-105259600D01*
G75*
G02*
X140067400Y-105322100I0J-62500D01*
G01*
X140067400Y-105447100D01*
G75*
G02*
X140004900Y-105509600I-62500J0D01*
G01*
G37*
G36*
G01*
X140004900Y-105009600D02*
X139254900Y-105009600D01*
G75*
G02*
X139192400Y-104947100I0J62500D01*
G01*
X139192400Y-104822100D01*
G75*
G02*
X139254900Y-104759600I62500J0D01*
G01*
X140004900Y-104759600D01*
G75*
G02*
X140067400Y-104822100I0J-62500D01*
G01*
X140067400Y-104947100D01*
G75*
G02*
X140004900Y-105009600I-62500J0D01*
G01*
G37*
G36*
G01*
X140004900Y-104509600D02*
X139254900Y-104509600D01*
G75*
G02*
X139192400Y-104447100I0J62500D01*
G01*
X139192400Y-104322100D01*
G75*
G02*
X139254900Y-104259600I62500J0D01*
G01*
X140004900Y-104259600D01*
G75*
G02*
X140067400Y-104322100I0J-62500D01*
G01*
X140067400Y-104447100D01*
G75*
G02*
X140004900Y-104509600I-62500J0D01*
G01*
G37*
G36*
G01*
X140004900Y-104009600D02*
X139254900Y-104009600D01*
G75*
G02*
X139192400Y-103947100I0J62500D01*
G01*
X139192400Y-103822100D01*
G75*
G02*
X139254900Y-103759600I62500J0D01*
G01*
X140004900Y-103759600D01*
G75*
G02*
X140067400Y-103822100I0J-62500D01*
G01*
X140067400Y-103947100D01*
G75*
G02*
X140004900Y-104009600I-62500J0D01*
G01*
G37*
G36*
G01*
X140004900Y-103509600D02*
X139254900Y-103509600D01*
G75*
G02*
X139192400Y-103447100I0J62500D01*
G01*
X139192400Y-103322100D01*
G75*
G02*
X139254900Y-103259600I62500J0D01*
G01*
X140004900Y-103259600D01*
G75*
G02*
X140067400Y-103322100I0J-62500D01*
G01*
X140067400Y-103447100D01*
G75*
G02*
X140004900Y-103509600I-62500J0D01*
G01*
G37*
G36*
G01*
X140004900Y-103009600D02*
X139254900Y-103009600D01*
G75*
G02*
X139192400Y-102947100I0J62500D01*
G01*
X139192400Y-102822100D01*
G75*
G02*
X139254900Y-102759600I62500J0D01*
G01*
X140004900Y-102759600D01*
G75*
G02*
X140067400Y-102822100I0J-62500D01*
G01*
X140067400Y-102947100D01*
G75*
G02*
X140004900Y-103009600I-62500J0D01*
G01*
G37*
G36*
G01*
X140629900Y-102384600D02*
X140504900Y-102384600D01*
G75*
G02*
X140442400Y-102322100I0J62500D01*
G01*
X140442400Y-101572100D01*
G75*
G02*
X140504900Y-101509600I62500J0D01*
G01*
X140629900Y-101509600D01*
G75*
G02*
X140692400Y-101572100I0J-62500D01*
G01*
X140692400Y-102322100D01*
G75*
G02*
X140629900Y-102384600I-62500J0D01*
G01*
G37*
G36*
G01*
X141129900Y-102384600D02*
X141004900Y-102384600D01*
G75*
G02*
X140942400Y-102322100I0J62500D01*
G01*
X140942400Y-101572100D01*
G75*
G02*
X141004900Y-101509600I62500J0D01*
G01*
X141129900Y-101509600D01*
G75*
G02*
X141192400Y-101572100I0J-62500D01*
G01*
X141192400Y-102322100D01*
G75*
G02*
X141129900Y-102384600I-62500J0D01*
G01*
G37*
G36*
G01*
X141629900Y-102384600D02*
X141504900Y-102384600D01*
G75*
G02*
X141442400Y-102322100I0J62500D01*
G01*
X141442400Y-101572100D01*
G75*
G02*
X141504900Y-101509600I62500J0D01*
G01*
X141629900Y-101509600D01*
G75*
G02*
X141692400Y-101572100I0J-62500D01*
G01*
X141692400Y-102322100D01*
G75*
G02*
X141629900Y-102384600I-62500J0D01*
G01*
G37*
G36*
G01*
X142129900Y-102384600D02*
X142004900Y-102384600D01*
G75*
G02*
X141942400Y-102322100I0J62500D01*
G01*
X141942400Y-101572100D01*
G75*
G02*
X142004900Y-101509600I62500J0D01*
G01*
X142129900Y-101509600D01*
G75*
G02*
X142192400Y-101572100I0J-62500D01*
G01*
X142192400Y-102322100D01*
G75*
G02*
X142129900Y-102384600I-62500J0D01*
G01*
G37*
G36*
G01*
X142629900Y-102384600D02*
X142504900Y-102384600D01*
G75*
G02*
X142442400Y-102322100I0J62500D01*
G01*
X142442400Y-101572100D01*
G75*
G02*
X142504900Y-101509600I62500J0D01*
G01*
X142629900Y-101509600D01*
G75*
G02*
X142692400Y-101572100I0J-62500D01*
G01*
X142692400Y-102322100D01*
G75*
G02*
X142629900Y-102384600I-62500J0D01*
G01*
G37*
G36*
G01*
X143129900Y-102384600D02*
X143004900Y-102384600D01*
G75*
G02*
X142942400Y-102322100I0J62500D01*
G01*
X142942400Y-101572100D01*
G75*
G02*
X143004900Y-101509600I62500J0D01*
G01*
X143129900Y-101509600D01*
G75*
G02*
X143192400Y-101572100I0J-62500D01*
G01*
X143192400Y-102322100D01*
G75*
G02*
X143129900Y-102384600I-62500J0D01*
G01*
G37*
G36*
G01*
X143629900Y-102384600D02*
X143504900Y-102384600D01*
G75*
G02*
X143442400Y-102322100I0J62500D01*
G01*
X143442400Y-101572100D01*
G75*
G02*
X143504900Y-101509600I62500J0D01*
G01*
X143629900Y-101509600D01*
G75*
G02*
X143692400Y-101572100I0J-62500D01*
G01*
X143692400Y-102322100D01*
G75*
G02*
X143629900Y-102384600I-62500J0D01*
G01*
G37*
G36*
G01*
X144129900Y-102384600D02*
X144004900Y-102384600D01*
G75*
G02*
X143942400Y-102322100I0J62500D01*
G01*
X143942400Y-101572100D01*
G75*
G02*
X144004900Y-101509600I62500J0D01*
G01*
X144129900Y-101509600D01*
G75*
G02*
X144192400Y-101572100I0J-62500D01*
G01*
X144192400Y-102322100D01*
G75*
G02*
X144129900Y-102384600I-62500J0D01*
G01*
G37*
G36*
G01*
X144629900Y-102384600D02*
X144504900Y-102384600D01*
G75*
G02*
X144442400Y-102322100I0J62500D01*
G01*
X144442400Y-101572100D01*
G75*
G02*
X144504900Y-101509600I62500J0D01*
G01*
X144629900Y-101509600D01*
G75*
G02*
X144692400Y-101572100I0J-62500D01*
G01*
X144692400Y-102322100D01*
G75*
G02*
X144629900Y-102384600I-62500J0D01*
G01*
G37*
G36*
G01*
X145129900Y-102384600D02*
X145004900Y-102384600D01*
G75*
G02*
X144942400Y-102322100I0J62500D01*
G01*
X144942400Y-101572100D01*
G75*
G02*
X145004900Y-101509600I62500J0D01*
G01*
X145129900Y-101509600D01*
G75*
G02*
X145192400Y-101572100I0J-62500D01*
G01*
X145192400Y-102322100D01*
G75*
G02*
X145129900Y-102384600I-62500J0D01*
G01*
G37*
G36*
G01*
X145629900Y-102384600D02*
X145504900Y-102384600D01*
G75*
G02*
X145442400Y-102322100I0J62500D01*
G01*
X145442400Y-101572100D01*
G75*
G02*
X145504900Y-101509600I62500J0D01*
G01*
X145629900Y-101509600D01*
G75*
G02*
X145692400Y-101572100I0J-62500D01*
G01*
X145692400Y-102322100D01*
G75*
G02*
X145629900Y-102384600I-62500J0D01*
G01*
G37*
G36*
G01*
X146879900Y-103009600D02*
X146129900Y-103009600D01*
G75*
G02*
X146067400Y-102947100I0J62500D01*
G01*
X146067400Y-102822100D01*
G75*
G02*
X146129900Y-102759600I62500J0D01*
G01*
X146879900Y-102759600D01*
G75*
G02*
X146942400Y-102822100I0J-62500D01*
G01*
X146942400Y-102947100D01*
G75*
G02*
X146879900Y-103009600I-62500J0D01*
G01*
G37*
G36*
G01*
X146879900Y-103509600D02*
X146129900Y-103509600D01*
G75*
G02*
X146067400Y-103447100I0J62500D01*
G01*
X146067400Y-103322100D01*
G75*
G02*
X146129900Y-103259600I62500J0D01*
G01*
X146879900Y-103259600D01*
G75*
G02*
X146942400Y-103322100I0J-62500D01*
G01*
X146942400Y-103447100D01*
G75*
G02*
X146879900Y-103509600I-62500J0D01*
G01*
G37*
G36*
G01*
X146879900Y-104009600D02*
X146129900Y-104009600D01*
G75*
G02*
X146067400Y-103947100I0J62500D01*
G01*
X146067400Y-103822100D01*
G75*
G02*
X146129900Y-103759600I62500J0D01*
G01*
X146879900Y-103759600D01*
G75*
G02*
X146942400Y-103822100I0J-62500D01*
G01*
X146942400Y-103947100D01*
G75*
G02*
X146879900Y-104009600I-62500J0D01*
G01*
G37*
G36*
G01*
X146879900Y-104509600D02*
X146129900Y-104509600D01*
G75*
G02*
X146067400Y-104447100I0J62500D01*
G01*
X146067400Y-104322100D01*
G75*
G02*
X146129900Y-104259600I62500J0D01*
G01*
X146879900Y-104259600D01*
G75*
G02*
X146942400Y-104322100I0J-62500D01*
G01*
X146942400Y-104447100D01*
G75*
G02*
X146879900Y-104509600I-62500J0D01*
G01*
G37*
G36*
G01*
X146879900Y-105009600D02*
X146129900Y-105009600D01*
G75*
G02*
X146067400Y-104947100I0J62500D01*
G01*
X146067400Y-104822100D01*
G75*
G02*
X146129900Y-104759600I62500J0D01*
G01*
X146879900Y-104759600D01*
G75*
G02*
X146942400Y-104822100I0J-62500D01*
G01*
X146942400Y-104947100D01*
G75*
G02*
X146879900Y-105009600I-62500J0D01*
G01*
G37*
G36*
G01*
X146879900Y-105509600D02*
X146129900Y-105509600D01*
G75*
G02*
X146067400Y-105447100I0J62500D01*
G01*
X146067400Y-105322100D01*
G75*
G02*
X146129900Y-105259600I62500J0D01*
G01*
X146879900Y-105259600D01*
G75*
G02*
X146942400Y-105322100I0J-62500D01*
G01*
X146942400Y-105447100D01*
G75*
G02*
X146879900Y-105509600I-62500J0D01*
G01*
G37*
G36*
G01*
X146879900Y-106009600D02*
X146129900Y-106009600D01*
G75*
G02*
X146067400Y-105947100I0J62500D01*
G01*
X146067400Y-105822100D01*
G75*
G02*
X146129900Y-105759600I62500J0D01*
G01*
X146879900Y-105759600D01*
G75*
G02*
X146942400Y-105822100I0J-62500D01*
G01*
X146942400Y-105947100D01*
G75*
G02*
X146879900Y-106009600I-62500J0D01*
G01*
G37*
G36*
G01*
X146879900Y-106509600D02*
X146129900Y-106509600D01*
G75*
G02*
X146067400Y-106447100I0J62500D01*
G01*
X146067400Y-106322100D01*
G75*
G02*
X146129900Y-106259600I62500J0D01*
G01*
X146879900Y-106259600D01*
G75*
G02*
X146942400Y-106322100I0J-62500D01*
G01*
X146942400Y-106447100D01*
G75*
G02*
X146879900Y-106509600I-62500J0D01*
G01*
G37*
G36*
G01*
X146879900Y-107009600D02*
X146129900Y-107009600D01*
G75*
G02*
X146067400Y-106947100I0J62500D01*
G01*
X146067400Y-106822100D01*
G75*
G02*
X146129900Y-106759600I62500J0D01*
G01*
X146879900Y-106759600D01*
G75*
G02*
X146942400Y-106822100I0J-62500D01*
G01*
X146942400Y-106947100D01*
G75*
G02*
X146879900Y-107009600I-62500J0D01*
G01*
G37*
G36*
G01*
X146879900Y-107509600D02*
X146129900Y-107509600D01*
G75*
G02*
X146067400Y-107447100I0J62500D01*
G01*
X146067400Y-107322100D01*
G75*
G02*
X146129900Y-107259600I62500J0D01*
G01*
X146879900Y-107259600D01*
G75*
G02*
X146942400Y-107322100I0J-62500D01*
G01*
X146942400Y-107447100D01*
G75*
G02*
X146879900Y-107509600I-62500J0D01*
G01*
G37*
G36*
G01*
X146879900Y-108009600D02*
X146129900Y-108009600D01*
G75*
G02*
X146067400Y-107947100I0J62500D01*
G01*
X146067400Y-107822100D01*
G75*
G02*
X146129900Y-107759600I62500J0D01*
G01*
X146879900Y-107759600D01*
G75*
G02*
X146942400Y-107822100I0J-62500D01*
G01*
X146942400Y-107947100D01*
G75*
G02*
X146879900Y-108009600I-62500J0D01*
G01*
G37*
D10*
X143067400Y-105384600D03*
G36*
G01*
X139821400Y-86362250D02*
X139821400Y-85849750D01*
G75*
G02*
X140040150Y-85631000I218750J0D01*
G01*
X140477650Y-85631000D01*
G75*
G02*
X140696400Y-85849750I0J-218750D01*
G01*
X140696400Y-86362250D01*
G75*
G02*
X140477650Y-86581000I-218750J0D01*
G01*
X140040150Y-86581000D01*
G75*
G02*
X139821400Y-86362250I0J218750D01*
G01*
G37*
G36*
G01*
X138246400Y-86362250D02*
X138246400Y-85849750D01*
G75*
G02*
X138465150Y-85631000I218750J0D01*
G01*
X138902650Y-85631000D01*
G75*
G02*
X139121400Y-85849750I0J-218750D01*
G01*
X139121400Y-86362250D01*
G75*
G02*
X138902650Y-86581000I-218750J0D01*
G01*
X138465150Y-86581000D01*
G75*
G02*
X138246400Y-86362250I0J218750D01*
G01*
G37*
G36*
G01*
X111457450Y-123094000D02*
X110944950Y-123094000D01*
G75*
G02*
X110726200Y-122875250I0J218750D01*
G01*
X110726200Y-122437750D01*
G75*
G02*
X110944950Y-122219000I218750J0D01*
G01*
X111457450Y-122219000D01*
G75*
G02*
X111676200Y-122437750I0J-218750D01*
G01*
X111676200Y-122875250D01*
G75*
G02*
X111457450Y-123094000I-218750J0D01*
G01*
G37*
G36*
G01*
X111457450Y-124669000D02*
X110944950Y-124669000D01*
G75*
G02*
X110726200Y-124450250I0J218750D01*
G01*
X110726200Y-124012750D01*
G75*
G02*
X110944950Y-123794000I218750J0D01*
G01*
X111457450Y-123794000D01*
G75*
G02*
X111676200Y-124012750I0J-218750D01*
G01*
X111676200Y-124450250D01*
G75*
G02*
X111457450Y-124669000I-218750J0D01*
G01*
G37*
G36*
G01*
X114378450Y-123094000D02*
X113865950Y-123094000D01*
G75*
G02*
X113647200Y-122875250I0J218750D01*
G01*
X113647200Y-122437750D01*
G75*
G02*
X113865950Y-122219000I218750J0D01*
G01*
X114378450Y-122219000D01*
G75*
G02*
X114597200Y-122437750I0J-218750D01*
G01*
X114597200Y-122875250D01*
G75*
G02*
X114378450Y-123094000I-218750J0D01*
G01*
G37*
G36*
G01*
X114378450Y-124669000D02*
X113865950Y-124669000D01*
G75*
G02*
X113647200Y-124450250I0J218750D01*
G01*
X113647200Y-124012750D01*
G75*
G02*
X113865950Y-123794000I218750J0D01*
G01*
X114378450Y-123794000D01*
G75*
G02*
X114597200Y-124012750I0J-218750D01*
G01*
X114597200Y-124450250D01*
G75*
G02*
X114378450Y-124669000I-218750J0D01*
G01*
G37*
G36*
G01*
X178310250Y-83165200D02*
X177797750Y-83165200D01*
G75*
G02*
X177579000Y-82946450I0J218750D01*
G01*
X177579000Y-82508950D01*
G75*
G02*
X177797750Y-82290200I218750J0D01*
G01*
X178310250Y-82290200D01*
G75*
G02*
X178529000Y-82508950I0J-218750D01*
G01*
X178529000Y-82946450D01*
G75*
G02*
X178310250Y-83165200I-218750J0D01*
G01*
G37*
G36*
G01*
X178310250Y-84740200D02*
X177797750Y-84740200D01*
G75*
G02*
X177579000Y-84521450I0J218750D01*
G01*
X177579000Y-84083950D01*
G75*
G02*
X177797750Y-83865200I218750J0D01*
G01*
X178310250Y-83865200D01*
G75*
G02*
X178529000Y-84083950I0J-218750D01*
G01*
X178529000Y-84521450D01*
G75*
G02*
X178310250Y-84740200I-218750J0D01*
G01*
G37*
D11*
X111455200Y-100330000D03*
X111455200Y-102870000D03*
X111455200Y-105410000D03*
X111455200Y-107950000D03*
X111455200Y-110490000D03*
D12*
X111455200Y-113030000D03*
D13*
X116011200Y-108762800D03*
X114011200Y-107812800D03*
X114011200Y-109712800D03*
G36*
G01*
X168147050Y-120911200D02*
X167234550Y-120911200D01*
G75*
G02*
X166990800Y-120667450I0J243750D01*
G01*
X166990800Y-120179950D01*
G75*
G02*
X167234550Y-119936200I243750J0D01*
G01*
X168147050Y-119936200D01*
G75*
G02*
X168390800Y-120179950I0J-243750D01*
G01*
X168390800Y-120667450D01*
G75*
G02*
X168147050Y-120911200I-243750J0D01*
G01*
G37*
G36*
G01*
X168147050Y-122786200D02*
X167234550Y-122786200D01*
G75*
G02*
X166990800Y-122542450I0J243750D01*
G01*
X166990800Y-122054950D01*
G75*
G02*
X167234550Y-121811200I243750J0D01*
G01*
X168147050Y-121811200D01*
G75*
G02*
X168390800Y-122054950I0J-243750D01*
G01*
X168390800Y-122542450D01*
G75*
G02*
X168147050Y-122786200I-243750J0D01*
G01*
G37*
D14*
X156311600Y-73596500D03*
X158851600Y-73596500D03*
G36*
G01*
X162291600Y-72944900D02*
X162291600Y-74248100D01*
G75*
G02*
X162043200Y-74496500I-248400J0D01*
G01*
X160740000Y-74496500D01*
G75*
G02*
X160491600Y-74248100I0J248400D01*
G01*
X160491600Y-72944900D01*
G75*
G02*
X160740000Y-72696500I248400J0D01*
G01*
X162043200Y-72696500D01*
G75*
G02*
X162291600Y-72944900I0J-248400D01*
G01*
G37*
D15*
X169850000Y-118717000D03*
X170950000Y-123317000D03*
X177950000Y-123317000D03*
D16*
X172550000Y-121017000D03*
X179550000Y-121017000D03*
D15*
X174950000Y-123317000D03*
D17*
X176682400Y-127593600D03*
X177632400Y-125593600D03*
X175732400Y-125593600D03*
G36*
G01*
X157726800Y-77215050D02*
X157726800Y-76302550D01*
G75*
G02*
X157970550Y-76058800I243750J0D01*
G01*
X158458050Y-76058800D01*
G75*
G02*
X158701800Y-76302550I0J-243750D01*
G01*
X158701800Y-77215050D01*
G75*
G02*
X158458050Y-77458800I-243750J0D01*
G01*
X157970550Y-77458800D01*
G75*
G02*
X157726800Y-77215050I0J243750D01*
G01*
G37*
G36*
G01*
X155851800Y-77215050D02*
X155851800Y-76302550D01*
G75*
G02*
X156095550Y-76058800I243750J0D01*
G01*
X156583050Y-76058800D01*
G75*
G02*
X156826800Y-76302550I0J-243750D01*
G01*
X156826800Y-77215050D01*
G75*
G02*
X156583050Y-77458800I-243750J0D01*
G01*
X156095550Y-77458800D01*
G75*
G02*
X155851800Y-77215050I0J243750D01*
G01*
G37*
D12*
X128000000Y-118668800D03*
D11*
X130540000Y-118668800D03*
X128000000Y-121208800D03*
X130540000Y-121208800D03*
X128000000Y-123748800D03*
X130540000Y-123748800D03*
D13*
X140547600Y-83312000D03*
X138547600Y-82362000D03*
X138547600Y-84262000D03*
X154466800Y-84709000D03*
X152466800Y-83759000D03*
X152466800Y-85659000D03*
D17*
X144716500Y-78375000D03*
X143766500Y-80375000D03*
X145666500Y-80375000D03*
D14*
X145859500Y-75946000D03*
D18*
X143319500Y-75946000D03*
G36*
G01*
X147393500Y-80023000D02*
X148643500Y-80023000D01*
G75*
G02*
X148893500Y-80273000I0J-250000D01*
G01*
X148893500Y-81023000D01*
G75*
G02*
X148643500Y-81273000I-250000J0D01*
G01*
X147393500Y-81273000D01*
G75*
G02*
X147143500Y-81023000I0J250000D01*
G01*
X147143500Y-80273000D01*
G75*
G02*
X147393500Y-80023000I250000J0D01*
G01*
G37*
G36*
G01*
X147393500Y-77223000D02*
X148643500Y-77223000D01*
G75*
G02*
X148893500Y-77473000I0J-250000D01*
G01*
X148893500Y-78223000D01*
G75*
G02*
X148643500Y-78473000I-250000J0D01*
G01*
X147393500Y-78473000D01*
G75*
G02*
X147143500Y-78223000I0J250000D01*
G01*
X147143500Y-77473000D01*
G75*
G02*
X147393500Y-77223000I250000J0D01*
G01*
G37*
D19*
X134555600Y-107322800D03*
X134555600Y-105122800D03*
X132855600Y-105122800D03*
X132855600Y-107322800D03*
D20*
X131318000Y-89512000D03*
X135818000Y-89512000D03*
X131318000Y-96012000D03*
X135818000Y-96012000D03*
G36*
G01*
X145666750Y-114459500D02*
X146179250Y-114459500D01*
G75*
G02*
X146398000Y-114678250I0J-218750D01*
G01*
X146398000Y-115115750D01*
G75*
G02*
X146179250Y-115334500I-218750J0D01*
G01*
X145666750Y-115334500D01*
G75*
G02*
X145448000Y-115115750I0J218750D01*
G01*
X145448000Y-114678250D01*
G75*
G02*
X145666750Y-114459500I218750J0D01*
G01*
G37*
G36*
G01*
X145666750Y-112884500D02*
X146179250Y-112884500D01*
G75*
G02*
X146398000Y-113103250I0J-218750D01*
G01*
X146398000Y-113540750D01*
G75*
G02*
X146179250Y-113759500I-218750J0D01*
G01*
X145666750Y-113759500D01*
G75*
G02*
X145448000Y-113540750I0J218750D01*
G01*
X145448000Y-113103250D01*
G75*
G02*
X145666750Y-112884500I218750J0D01*
G01*
G37*
G36*
G01*
X143952250Y-114459500D02*
X144464750Y-114459500D01*
G75*
G02*
X144683500Y-114678250I0J-218750D01*
G01*
X144683500Y-115115750D01*
G75*
G02*
X144464750Y-115334500I-218750J0D01*
G01*
X143952250Y-115334500D01*
G75*
G02*
X143733500Y-115115750I0J218750D01*
G01*
X143733500Y-114678250D01*
G75*
G02*
X143952250Y-114459500I218750J0D01*
G01*
G37*
G36*
G01*
X143952250Y-112884500D02*
X144464750Y-112884500D01*
G75*
G02*
X144683500Y-113103250I0J-218750D01*
G01*
X144683500Y-113540750D01*
G75*
G02*
X144464750Y-113759500I-218750J0D01*
G01*
X143952250Y-113759500D01*
G75*
G02*
X143733500Y-113540750I0J218750D01*
G01*
X143733500Y-113103250D01*
G75*
G02*
X143952250Y-112884500I218750J0D01*
G01*
G37*
G36*
G01*
X149455850Y-96678000D02*
X148943350Y-96678000D01*
G75*
G02*
X148724600Y-96459250I0J218750D01*
G01*
X148724600Y-96021750D01*
G75*
G02*
X148943350Y-95803000I218750J0D01*
G01*
X149455850Y-95803000D01*
G75*
G02*
X149674600Y-96021750I0J-218750D01*
G01*
X149674600Y-96459250D01*
G75*
G02*
X149455850Y-96678000I-218750J0D01*
G01*
G37*
G36*
G01*
X149455850Y-98253000D02*
X148943350Y-98253000D01*
G75*
G02*
X148724600Y-98034250I0J218750D01*
G01*
X148724600Y-97596750D01*
G75*
G02*
X148943350Y-97378000I218750J0D01*
G01*
X149455850Y-97378000D01*
G75*
G02*
X149674600Y-97596750I0J-218750D01*
G01*
X149674600Y-98034250D01*
G75*
G02*
X149455850Y-98253000I-218750J0D01*
G01*
G37*
G36*
G01*
X133254000Y-93215750D02*
X133254000Y-93728250D01*
G75*
G02*
X133035250Y-93947000I-218750J0D01*
G01*
X132597750Y-93947000D01*
G75*
G02*
X132379000Y-93728250I0J218750D01*
G01*
X132379000Y-93215750D01*
G75*
G02*
X132597750Y-92997000I218750J0D01*
G01*
X133035250Y-92997000D01*
G75*
G02*
X133254000Y-93215750I0J-218750D01*
G01*
G37*
G36*
G01*
X134829000Y-93215750D02*
X134829000Y-93728250D01*
G75*
G02*
X134610250Y-93947000I-218750J0D01*
G01*
X134172750Y-93947000D01*
G75*
G02*
X133954000Y-93728250I0J218750D01*
G01*
X133954000Y-93215750D01*
G75*
G02*
X134172750Y-92997000I218750J0D01*
G01*
X134610250Y-92997000D01*
G75*
G02*
X134829000Y-93215750I0J-218750D01*
G01*
G37*
G36*
G01*
X155496550Y-98089200D02*
X156009050Y-98089200D01*
G75*
G02*
X156227800Y-98307950I0J-218750D01*
G01*
X156227800Y-98745450D01*
G75*
G02*
X156009050Y-98964200I-218750J0D01*
G01*
X155496550Y-98964200D01*
G75*
G02*
X155277800Y-98745450I0J218750D01*
G01*
X155277800Y-98307950D01*
G75*
G02*
X155496550Y-98089200I218750J0D01*
G01*
G37*
G36*
G01*
X155496550Y-96514200D02*
X156009050Y-96514200D01*
G75*
G02*
X156227800Y-96732950I0J-218750D01*
G01*
X156227800Y-97170450D01*
G75*
G02*
X156009050Y-97389200I-218750J0D01*
G01*
X155496550Y-97389200D01*
G75*
G02*
X155277800Y-97170450I0J218750D01*
G01*
X155277800Y-96732950D01*
G75*
G02*
X155496550Y-96514200I218750J0D01*
G01*
G37*
G36*
G01*
X133317500Y-99438750D02*
X133317500Y-99951250D01*
G75*
G02*
X133098750Y-100170000I-218750J0D01*
G01*
X132661250Y-100170000D01*
G75*
G02*
X132442500Y-99951250I0J218750D01*
G01*
X132442500Y-99438750D01*
G75*
G02*
X132661250Y-99220000I218750J0D01*
G01*
X133098750Y-99220000D01*
G75*
G02*
X133317500Y-99438750I0J-218750D01*
G01*
G37*
G36*
G01*
X134892500Y-99438750D02*
X134892500Y-99951250D01*
G75*
G02*
X134673750Y-100170000I-218750J0D01*
G01*
X134236250Y-100170000D01*
G75*
G02*
X134017500Y-99951250I0J218750D01*
G01*
X134017500Y-99438750D01*
G75*
G02*
X134236250Y-99220000I218750J0D01*
G01*
X134673750Y-99220000D01*
G75*
G02*
X134892500Y-99438750I0J-218750D01*
G01*
G37*
G36*
G01*
X150471850Y-113696000D02*
X149959350Y-113696000D01*
G75*
G02*
X149740600Y-113477250I0J218750D01*
G01*
X149740600Y-113039750D01*
G75*
G02*
X149959350Y-112821000I218750J0D01*
G01*
X150471850Y-112821000D01*
G75*
G02*
X150690600Y-113039750I0J-218750D01*
G01*
X150690600Y-113477250D01*
G75*
G02*
X150471850Y-113696000I-218750J0D01*
G01*
G37*
G36*
G01*
X150471850Y-115271000D02*
X149959350Y-115271000D01*
G75*
G02*
X149740600Y-115052250I0J218750D01*
G01*
X149740600Y-114614750D01*
G75*
G02*
X149959350Y-114396000I218750J0D01*
G01*
X150471850Y-114396000D01*
G75*
G02*
X150690600Y-114614750I0J-218750D01*
G01*
X150690600Y-115052250D01*
G75*
G02*
X150471850Y-115271000I-218750J0D01*
G01*
G37*
G36*
G01*
X149319500Y-120368350D02*
X149319500Y-120880850D01*
G75*
G02*
X149100750Y-121099600I-218750J0D01*
G01*
X148663250Y-121099600D01*
G75*
G02*
X148444500Y-120880850I0J218750D01*
G01*
X148444500Y-120368350D01*
G75*
G02*
X148663250Y-120149600I218750J0D01*
G01*
X149100750Y-120149600D01*
G75*
G02*
X149319500Y-120368350I0J-218750D01*
G01*
G37*
G36*
G01*
X150894500Y-120368350D02*
X150894500Y-120880850D01*
G75*
G02*
X150675750Y-121099600I-218750J0D01*
G01*
X150238250Y-121099600D01*
G75*
G02*
X150019500Y-120880850I0J218750D01*
G01*
X150019500Y-120368350D01*
G75*
G02*
X150238250Y-120149600I218750J0D01*
G01*
X150675750Y-120149600D01*
G75*
G02*
X150894500Y-120368350I0J-218750D01*
G01*
G37*
D17*
X139700000Y-122005600D03*
X140650000Y-120005600D03*
X138750000Y-120005600D03*
X176428400Y-114538000D03*
X177378400Y-112538000D03*
X175478400Y-112538000D03*
X176428400Y-102803200D03*
X177378400Y-100803200D03*
X175478400Y-100803200D03*
X176784000Y-90611200D03*
X177734000Y-88611200D03*
X175834000Y-88611200D03*
X112623600Y-114925600D03*
X111673600Y-116925600D03*
X113573600Y-116925600D03*
G36*
G01*
X152397750Y-98089200D02*
X152910250Y-98089200D01*
G75*
G02*
X153129000Y-98307950I0J-218750D01*
G01*
X153129000Y-98745450D01*
G75*
G02*
X152910250Y-98964200I-218750J0D01*
G01*
X152397750Y-98964200D01*
G75*
G02*
X152179000Y-98745450I0J218750D01*
G01*
X152179000Y-98307950D01*
G75*
G02*
X152397750Y-98089200I218750J0D01*
G01*
G37*
G36*
G01*
X152397750Y-96514200D02*
X152910250Y-96514200D01*
G75*
G02*
X153129000Y-96732950I0J-218750D01*
G01*
X153129000Y-97170450D01*
G75*
G02*
X152910250Y-97389200I-218750J0D01*
G01*
X152397750Y-97389200D01*
G75*
G02*
X152179000Y-97170450I0J218750D01*
G01*
X152179000Y-96732950D01*
G75*
G02*
X152397750Y-96514200I218750J0D01*
G01*
G37*
G36*
G01*
X133304800Y-97838550D02*
X133304800Y-98351050D01*
G75*
G02*
X133086050Y-98569800I-218750J0D01*
G01*
X132648550Y-98569800D01*
G75*
G02*
X132429800Y-98351050I0J218750D01*
G01*
X132429800Y-97838550D01*
G75*
G02*
X132648550Y-97619800I218750J0D01*
G01*
X133086050Y-97619800D01*
G75*
G02*
X133304800Y-97838550I0J-218750D01*
G01*
G37*
G36*
G01*
X134879800Y-97838550D02*
X134879800Y-98351050D01*
G75*
G02*
X134661050Y-98569800I-218750J0D01*
G01*
X134223550Y-98569800D01*
G75*
G02*
X134004800Y-98351050I0J218750D01*
G01*
X134004800Y-97838550D01*
G75*
G02*
X134223550Y-97619800I218750J0D01*
G01*
X134661050Y-97619800D01*
G75*
G02*
X134879800Y-97838550I0J-218750D01*
G01*
G37*
G36*
G01*
X148795450Y-115220200D02*
X148282950Y-115220200D01*
G75*
G02*
X148064200Y-115001450I0J218750D01*
G01*
X148064200Y-114563950D01*
G75*
G02*
X148282950Y-114345200I218750J0D01*
G01*
X148795450Y-114345200D01*
G75*
G02*
X149014200Y-114563950I0J-218750D01*
G01*
X149014200Y-115001450D01*
G75*
G02*
X148795450Y-115220200I-218750J0D01*
G01*
G37*
G36*
G01*
X148795450Y-113645200D02*
X148282950Y-113645200D01*
G75*
G02*
X148064200Y-113426450I0J218750D01*
G01*
X148064200Y-112988950D01*
G75*
G02*
X148282950Y-112770200I218750J0D01*
G01*
X148795450Y-112770200D01*
G75*
G02*
X149014200Y-112988950I0J-218750D01*
G01*
X149014200Y-113426450D01*
G75*
G02*
X148795450Y-113645200I-218750J0D01*
G01*
G37*
G36*
G01*
X151638950Y-114496000D02*
X152551450Y-114496000D01*
G75*
G02*
X152795200Y-114739750I0J-243750D01*
G01*
X152795200Y-115227250D01*
G75*
G02*
X152551450Y-115471000I-243750J0D01*
G01*
X151638950Y-115471000D01*
G75*
G02*
X151395200Y-115227250I0J243750D01*
G01*
X151395200Y-114739750D01*
G75*
G02*
X151638950Y-114496000I243750J0D01*
G01*
G37*
G36*
G01*
X151638950Y-112621000D02*
X152551450Y-112621000D01*
G75*
G02*
X152795200Y-112864750I0J-243750D01*
G01*
X152795200Y-113352250D01*
G75*
G02*
X152551450Y-113596000I-243750J0D01*
G01*
X151638950Y-113596000D01*
G75*
G02*
X151395200Y-113352250I0J243750D01*
G01*
X151395200Y-112864750D01*
G75*
G02*
X151638950Y-112621000I243750J0D01*
G01*
G37*
G36*
G01*
X133304800Y-102664550D02*
X133304800Y-103177050D01*
G75*
G02*
X133086050Y-103395800I-218750J0D01*
G01*
X132648550Y-103395800D01*
G75*
G02*
X132429800Y-103177050I0J218750D01*
G01*
X132429800Y-102664550D01*
G75*
G02*
X132648550Y-102445800I218750J0D01*
G01*
X133086050Y-102445800D01*
G75*
G02*
X133304800Y-102664550I0J-218750D01*
G01*
G37*
G36*
G01*
X134879800Y-102664550D02*
X134879800Y-103177050D01*
G75*
G02*
X134661050Y-103395800I-218750J0D01*
G01*
X134223550Y-103395800D01*
G75*
G02*
X134004800Y-103177050I0J218750D01*
G01*
X134004800Y-102664550D01*
G75*
G02*
X134223550Y-102445800I218750J0D01*
G01*
X134661050Y-102445800D01*
G75*
G02*
X134879800Y-102664550I0J-218750D01*
G01*
G37*
G36*
G01*
X168299450Y-84182800D02*
X167386950Y-84182800D01*
G75*
G02*
X167143200Y-83939050I0J243750D01*
G01*
X167143200Y-83451550D01*
G75*
G02*
X167386950Y-83207800I243750J0D01*
G01*
X168299450Y-83207800D01*
G75*
G02*
X168543200Y-83451550I0J-243750D01*
G01*
X168543200Y-83939050D01*
G75*
G02*
X168299450Y-84182800I-243750J0D01*
G01*
G37*
G36*
G01*
X168299450Y-86057800D02*
X167386950Y-86057800D01*
G75*
G02*
X167143200Y-85814050I0J243750D01*
G01*
X167143200Y-85326550D01*
G75*
G02*
X167386950Y-85082800I243750J0D01*
G01*
X168299450Y-85082800D01*
G75*
G02*
X168543200Y-85326550I0J-243750D01*
G01*
X168543200Y-85814050D01*
G75*
G02*
X168299450Y-86057800I-243750J0D01*
G01*
G37*
G36*
G01*
X122987750Y-103980400D02*
X123900250Y-103980400D01*
G75*
G02*
X124144000Y-104224150I0J-243750D01*
G01*
X124144000Y-104711650D01*
G75*
G02*
X123900250Y-104955400I-243750J0D01*
G01*
X122987750Y-104955400D01*
G75*
G02*
X122744000Y-104711650I0J243750D01*
G01*
X122744000Y-104224150D01*
G75*
G02*
X122987750Y-103980400I243750J0D01*
G01*
G37*
G36*
G01*
X122987750Y-102105400D02*
X123900250Y-102105400D01*
G75*
G02*
X124144000Y-102349150I0J-243750D01*
G01*
X124144000Y-102836650D01*
G75*
G02*
X123900250Y-103080400I-243750J0D01*
G01*
X122987750Y-103080400D01*
G75*
G02*
X122744000Y-102836650I0J243750D01*
G01*
X122744000Y-102349150D01*
G75*
G02*
X122987750Y-102105400I243750J0D01*
G01*
G37*
G36*
G01*
X152596000Y-108279250D02*
X152596000Y-107366750D01*
G75*
G02*
X152839750Y-107123000I243750J0D01*
G01*
X153327250Y-107123000D01*
G75*
G02*
X153571000Y-107366750I0J-243750D01*
G01*
X153571000Y-108279250D01*
G75*
G02*
X153327250Y-108523000I-243750J0D01*
G01*
X152839750Y-108523000D01*
G75*
G02*
X152596000Y-108279250I0J243750D01*
G01*
G37*
G36*
G01*
X150721000Y-108279250D02*
X150721000Y-107366750D01*
G75*
G02*
X150964750Y-107123000I243750J0D01*
G01*
X151452250Y-107123000D01*
G75*
G02*
X151696000Y-107366750I0J-243750D01*
G01*
X151696000Y-108279250D01*
G75*
G02*
X151452250Y-108523000I-243750J0D01*
G01*
X150964750Y-108523000D01*
G75*
G02*
X150721000Y-108279250I0J243750D01*
G01*
G37*
G36*
G01*
X134004800Y-109628650D02*
X134004800Y-109116150D01*
G75*
G02*
X134223550Y-108897400I218750J0D01*
G01*
X134661050Y-108897400D01*
G75*
G02*
X134879800Y-109116150I0J-218750D01*
G01*
X134879800Y-109628650D01*
G75*
G02*
X134661050Y-109847400I-218750J0D01*
G01*
X134223550Y-109847400D01*
G75*
G02*
X134004800Y-109628650I0J218750D01*
G01*
G37*
G36*
G01*
X132429800Y-109628650D02*
X132429800Y-109116150D01*
G75*
G02*
X132648550Y-108897400I218750J0D01*
G01*
X133086050Y-108897400D01*
G75*
G02*
X133304800Y-109116150I0J-218750D01*
G01*
X133304800Y-109628650D01*
G75*
G02*
X133086050Y-109847400I-218750J0D01*
G01*
X132648550Y-109847400D01*
G75*
G02*
X132429800Y-109628650I0J218750D01*
G01*
G37*
G36*
G01*
X140621600Y-113386550D02*
X140621600Y-114299050D01*
G75*
G02*
X140377850Y-114542800I-243750J0D01*
G01*
X139890350Y-114542800D01*
G75*
G02*
X139646600Y-114299050I0J243750D01*
G01*
X139646600Y-113386550D01*
G75*
G02*
X139890350Y-113142800I243750J0D01*
G01*
X140377850Y-113142800D01*
G75*
G02*
X140621600Y-113386550I0J-243750D01*
G01*
G37*
G36*
G01*
X142496600Y-113386550D02*
X142496600Y-114299050D01*
G75*
G02*
X142252850Y-114542800I-243750J0D01*
G01*
X141765350Y-114542800D01*
G75*
G02*
X141521600Y-114299050I0J243750D01*
G01*
X141521600Y-113386550D01*
G75*
G02*
X141765350Y-113142800I243750J0D01*
G01*
X142252850Y-113142800D01*
G75*
G02*
X142496600Y-113386550I0J-243750D01*
G01*
G37*
G36*
G01*
X168388350Y-108084200D02*
X167475850Y-108084200D01*
G75*
G02*
X167232100Y-107840450I0J243750D01*
G01*
X167232100Y-107352950D01*
G75*
G02*
X167475850Y-107109200I243750J0D01*
G01*
X168388350Y-107109200D01*
G75*
G02*
X168632100Y-107352950I0J-243750D01*
G01*
X168632100Y-107840450D01*
G75*
G02*
X168388350Y-108084200I-243750J0D01*
G01*
G37*
G36*
G01*
X168388350Y-109959200D02*
X167475850Y-109959200D01*
G75*
G02*
X167232100Y-109715450I0J243750D01*
G01*
X167232100Y-109227950D01*
G75*
G02*
X167475850Y-108984200I243750J0D01*
G01*
X168388350Y-108984200D01*
G75*
G02*
X168632100Y-109227950I0J-243750D01*
G01*
X168632100Y-109715450D01*
G75*
G02*
X168388350Y-109959200I-243750J0D01*
G01*
G37*
G36*
G01*
X120904950Y-121455600D02*
X121817450Y-121455600D01*
G75*
G02*
X122061200Y-121699350I0J-243750D01*
G01*
X122061200Y-122186850D01*
G75*
G02*
X121817450Y-122430600I-243750J0D01*
G01*
X120904950Y-122430600D01*
G75*
G02*
X120661200Y-122186850I0J243750D01*
G01*
X120661200Y-121699350D01*
G75*
G02*
X120904950Y-121455600I243750J0D01*
G01*
G37*
G36*
G01*
X120904950Y-119580600D02*
X121817450Y-119580600D01*
G75*
G02*
X122061200Y-119824350I0J-243750D01*
G01*
X122061200Y-120311850D01*
G75*
G02*
X121817450Y-120555600I-243750J0D01*
G01*
X120904950Y-120555600D01*
G75*
G02*
X120661200Y-120311850I0J243750D01*
G01*
X120661200Y-119824350D01*
G75*
G02*
X120904950Y-119580600I243750J0D01*
G01*
G37*
D21*
X138780000Y-125334600D03*
X150820000Y-125334600D03*
D22*
X146050000Y-122624600D03*
X143550000Y-122624600D03*
X143550000Y-120624600D03*
D12*
X146050000Y-120624600D03*
G36*
G01*
X168718550Y-95676300D02*
X167806050Y-95676300D01*
G75*
G02*
X167562300Y-95432550I0J243750D01*
G01*
X167562300Y-94945050D01*
G75*
G02*
X167806050Y-94701300I243750J0D01*
G01*
X168718550Y-94701300D01*
G75*
G02*
X168962300Y-94945050I0J-243750D01*
G01*
X168962300Y-95432550D01*
G75*
G02*
X168718550Y-95676300I-243750J0D01*
G01*
G37*
G36*
G01*
X168718550Y-97551300D02*
X167806050Y-97551300D01*
G75*
G02*
X167562300Y-97307550I0J243750D01*
G01*
X167562300Y-96820050D01*
G75*
G02*
X167806050Y-96576300I243750J0D01*
G01*
X168718550Y-96576300D01*
G75*
G02*
X168962300Y-96820050I0J-243750D01*
G01*
X168962300Y-97307550D01*
G75*
G02*
X168718550Y-97551300I-243750J0D01*
G01*
G37*
G36*
G01*
X178208650Y-106634800D02*
X177696150Y-106634800D01*
G75*
G02*
X177477400Y-106416050I0J218750D01*
G01*
X177477400Y-105978550D01*
G75*
G02*
X177696150Y-105759800I218750J0D01*
G01*
X178208650Y-105759800D01*
G75*
G02*
X178427400Y-105978550I0J-218750D01*
G01*
X178427400Y-106416050D01*
G75*
G02*
X178208650Y-106634800I-218750J0D01*
G01*
G37*
G36*
G01*
X178208650Y-108209800D02*
X177696150Y-108209800D01*
G75*
G02*
X177477400Y-107991050I0J218750D01*
G01*
X177477400Y-107553550D01*
G75*
G02*
X177696150Y-107334800I218750J0D01*
G01*
X178208650Y-107334800D01*
G75*
G02*
X178427400Y-107553550I0J-218750D01*
G01*
X178427400Y-107991050D01*
G75*
G02*
X178208650Y-108209800I-218750J0D01*
G01*
G37*
G36*
G01*
X144206250Y-96743000D02*
X144718750Y-96743000D01*
G75*
G02*
X144937500Y-96961750I0J-218750D01*
G01*
X144937500Y-97399250D01*
G75*
G02*
X144718750Y-97618000I-218750J0D01*
G01*
X144206250Y-97618000D01*
G75*
G02*
X143987500Y-97399250I0J218750D01*
G01*
X143987500Y-96961750D01*
G75*
G02*
X144206250Y-96743000I218750J0D01*
G01*
G37*
G36*
G01*
X144206250Y-95168000D02*
X144718750Y-95168000D01*
G75*
G02*
X144937500Y-95386750I0J-218750D01*
G01*
X144937500Y-95824250D01*
G75*
G02*
X144718750Y-96043000I-218750J0D01*
G01*
X144206250Y-96043000D01*
G75*
G02*
X143987500Y-95824250I0J218750D01*
G01*
X143987500Y-95386750D01*
G75*
G02*
X144206250Y-95168000I218750J0D01*
G01*
G37*
G36*
G01*
X142047250Y-96743000D02*
X142559750Y-96743000D01*
G75*
G02*
X142778500Y-96961750I0J-218750D01*
G01*
X142778500Y-97399250D01*
G75*
G02*
X142559750Y-97618000I-218750J0D01*
G01*
X142047250Y-97618000D01*
G75*
G02*
X141828500Y-97399250I0J218750D01*
G01*
X141828500Y-96961750D01*
G75*
G02*
X142047250Y-96743000I218750J0D01*
G01*
G37*
G36*
G01*
X142047250Y-95168000D02*
X142559750Y-95168000D01*
G75*
G02*
X142778500Y-95386750I0J-218750D01*
G01*
X142778500Y-95824250D01*
G75*
G02*
X142559750Y-96043000I-218750J0D01*
G01*
X142047250Y-96043000D01*
G75*
G02*
X141828500Y-95824250I0J218750D01*
G01*
X141828500Y-95386750D01*
G75*
G02*
X142047250Y-95168000I218750J0D01*
G01*
G37*
G36*
G01*
X175211450Y-106685600D02*
X174698950Y-106685600D01*
G75*
G02*
X174480200Y-106466850I0J218750D01*
G01*
X174480200Y-106029350D01*
G75*
G02*
X174698950Y-105810600I218750J0D01*
G01*
X175211450Y-105810600D01*
G75*
G02*
X175430200Y-106029350I0J-218750D01*
G01*
X175430200Y-106466850D01*
G75*
G02*
X175211450Y-106685600I-218750J0D01*
G01*
G37*
G36*
G01*
X175211450Y-108260600D02*
X174698950Y-108260600D01*
G75*
G02*
X174480200Y-108041850I0J218750D01*
G01*
X174480200Y-107604350D01*
G75*
G02*
X174698950Y-107385600I218750J0D01*
G01*
X175211450Y-107385600D01*
G75*
G02*
X175430200Y-107604350I0J-218750D01*
G01*
X175430200Y-108041850D01*
G75*
G02*
X175211450Y-108260600I-218750J0D01*
G01*
G37*
G36*
G01*
X178107050Y-94442800D02*
X177594550Y-94442800D01*
G75*
G02*
X177375800Y-94224050I0J218750D01*
G01*
X177375800Y-93786550D01*
G75*
G02*
X177594550Y-93567800I218750J0D01*
G01*
X178107050Y-93567800D01*
G75*
G02*
X178325800Y-93786550I0J-218750D01*
G01*
X178325800Y-94224050D01*
G75*
G02*
X178107050Y-94442800I-218750J0D01*
G01*
G37*
G36*
G01*
X178107050Y-96017800D02*
X177594550Y-96017800D01*
G75*
G02*
X177375800Y-95799050I0J218750D01*
G01*
X177375800Y-95361550D01*
G75*
G02*
X177594550Y-95142800I218750J0D01*
G01*
X178107050Y-95142800D01*
G75*
G02*
X178325800Y-95361550I0J-218750D01*
G01*
X178325800Y-95799050D01*
G75*
G02*
X178107050Y-96017800I-218750J0D01*
G01*
G37*
G36*
G01*
X175160650Y-94493600D02*
X174648150Y-94493600D01*
G75*
G02*
X174429400Y-94274850I0J218750D01*
G01*
X174429400Y-93837350D01*
G75*
G02*
X174648150Y-93618600I218750J0D01*
G01*
X175160650Y-93618600D01*
G75*
G02*
X175379400Y-93837350I0J-218750D01*
G01*
X175379400Y-94274850D01*
G75*
G02*
X175160650Y-94493600I-218750J0D01*
G01*
G37*
G36*
G01*
X175160650Y-96068600D02*
X174648150Y-96068600D01*
G75*
G02*
X174429400Y-95849850I0J218750D01*
G01*
X174429400Y-95412350D01*
G75*
G02*
X174648150Y-95193600I218750J0D01*
G01*
X175160650Y-95193600D01*
G75*
G02*
X175379400Y-95412350I0J-218750D01*
G01*
X175379400Y-95849850D01*
G75*
G02*
X175160650Y-96068600I-218750J0D01*
G01*
G37*
G36*
G01*
X150357550Y-84549500D02*
X149845050Y-84549500D01*
G75*
G02*
X149626300Y-84330750I0J218750D01*
G01*
X149626300Y-83893250D01*
G75*
G02*
X149845050Y-83674500I218750J0D01*
G01*
X150357550Y-83674500D01*
G75*
G02*
X150576300Y-83893250I0J-218750D01*
G01*
X150576300Y-84330750D01*
G75*
G02*
X150357550Y-84549500I-218750J0D01*
G01*
G37*
G36*
G01*
X150357550Y-86124500D02*
X149845050Y-86124500D01*
G75*
G02*
X149626300Y-85905750I0J218750D01*
G01*
X149626300Y-85468250D01*
G75*
G02*
X149845050Y-85249500I218750J0D01*
G01*
X150357550Y-85249500D01*
G75*
G02*
X150576300Y-85468250I0J-218750D01*
G01*
X150576300Y-85905750D01*
G75*
G02*
X150357550Y-86124500I-218750J0D01*
G01*
G37*
G36*
G01*
X140459750Y-96743000D02*
X140972250Y-96743000D01*
G75*
G02*
X141191000Y-96961750I0J-218750D01*
G01*
X141191000Y-97399250D01*
G75*
G02*
X140972250Y-97618000I-218750J0D01*
G01*
X140459750Y-97618000D01*
G75*
G02*
X140241000Y-97399250I0J218750D01*
G01*
X140241000Y-96961750D01*
G75*
G02*
X140459750Y-96743000I218750J0D01*
G01*
G37*
G36*
G01*
X140459750Y-95168000D02*
X140972250Y-95168000D01*
G75*
G02*
X141191000Y-95386750I0J-218750D01*
G01*
X141191000Y-95824250D01*
G75*
G02*
X140972250Y-96043000I-218750J0D01*
G01*
X140459750Y-96043000D01*
G75*
G02*
X140241000Y-95824250I0J218750D01*
G01*
X140241000Y-95386750D01*
G75*
G02*
X140459750Y-95168000I218750J0D01*
G01*
G37*
G36*
G01*
X175160650Y-83266800D02*
X174648150Y-83266800D01*
G75*
G02*
X174429400Y-83048050I0J218750D01*
G01*
X174429400Y-82610550D01*
G75*
G02*
X174648150Y-82391800I218750J0D01*
G01*
X175160650Y-82391800D01*
G75*
G02*
X175379400Y-82610550I0J-218750D01*
G01*
X175379400Y-83048050D01*
G75*
G02*
X175160650Y-83266800I-218750J0D01*
G01*
G37*
G36*
G01*
X175160650Y-84841800D02*
X174648150Y-84841800D01*
G75*
G02*
X174429400Y-84623050I0J218750D01*
G01*
X174429400Y-84185550D01*
G75*
G02*
X174648150Y-83966800I218750J0D01*
G01*
X175160650Y-83966800D01*
G75*
G02*
X175379400Y-84185550I0J-218750D01*
G01*
X175379400Y-84623050D01*
G75*
G02*
X175160650Y-84841800I-218750J0D01*
G01*
G37*
D23*
X140652500Y-93472000D03*
X141922500Y-93472000D03*
X143192500Y-93472000D03*
D24*
X144462500Y-93472000D03*
D25*
X129825500Y-74676000D03*
X125825500Y-74676000D03*
D15*
X169850000Y-105438800D03*
X170950000Y-110038800D03*
X177950000Y-110038800D03*
D16*
X172550000Y-107738800D03*
X179550000Y-107738800D03*
D15*
X174950000Y-110038800D03*
X169850000Y-93437300D03*
X170950000Y-98037300D03*
X177950000Y-98037300D03*
D16*
X172550000Y-95737300D03*
X179550000Y-95737300D03*
D15*
X174950000Y-98037300D03*
X169850000Y-82032700D03*
X170950000Y-86632700D03*
X177950000Y-86632700D03*
D16*
X172550000Y-84332700D03*
X179550000Y-84332700D03*
D15*
X174950000Y-86632700D03*
X119150000Y-123377100D03*
X118050000Y-118777100D03*
X111050000Y-118777100D03*
D16*
X116450000Y-121077100D03*
X109450000Y-121077100D03*
D15*
X114050000Y-118777100D03*
X119150000Y-86509000D03*
X118050000Y-81909000D03*
X111050000Y-81909000D03*
D16*
X116450000Y-84209000D03*
X109450000Y-84209000D03*
D15*
X114050000Y-81909000D03*
D22*
X135572500Y-77406500D03*
X130492500Y-77406500D03*
X125412500Y-77406500D03*
D12*
X120322500Y-77406500D03*
D20*
X155702800Y-88128000D03*
D26*
X149402800Y-88138000D03*
M02*
