G04 #@! TF.GenerationSoftware,KiCad,Pcbnew,5.1.7-a382d34a8~87~ubuntu20.04.1*
G04 #@! TF.CreationDate,2020-11-13T16:05:12-05:00*
G04 #@! TF.ProjectId,atmega32u4_hub_pcb_1_3,61746d65-6761-4333-9275-345f6875625f,1.3*
G04 #@! TF.SameCoordinates,Original*
G04 #@! TF.FileFunction,Legend,Bot*
G04 #@! TF.FilePolarity,Positive*
%FSLAX46Y46*%
G04 Gerber Fmt 4.6, Leading zero omitted, Abs format (unit mm)*
G04 Created by KiCad (PCBNEW 5.1.7-a382d34a8~87~ubuntu20.04.1) date 2020-11-13 16:05:12*
%MOMM*%
%LPD*%
G01*
G04 APERTURE LIST*
%ADD10C,0.120000*%
%ADD11C,0.150000*%
G04 APERTURE END LIST*
D10*
X145603321Y-109804200D02*
G75*
G03*
X145603321Y-109804200I-35921J0D01*
G01*
X145696915Y-109804200D02*
G75*
G03*
X145696915Y-109804200I-129515J0D01*
G01*
X146677400Y-108269600D02*
X146677400Y-108994600D01*
X139457400Y-101774600D02*
X140182400Y-101774600D01*
X139457400Y-102499600D02*
X139457400Y-101774600D01*
X139457400Y-108994600D02*
X140182400Y-108994600D01*
X139457400Y-108269600D02*
X139457400Y-108994600D01*
X146677400Y-101774600D02*
X145952400Y-101774600D01*
X146677400Y-102499600D02*
X146677400Y-101774600D01*
X139308621Y-86616000D02*
X139634179Y-86616000D01*
X139308621Y-85596000D02*
X139634179Y-85596000D01*
X111711200Y-123606779D02*
X111711200Y-123281221D01*
X110691200Y-123606779D02*
X110691200Y-123281221D01*
X114632200Y-123606779D02*
X114632200Y-123281221D01*
X113612200Y-123606779D02*
X113612200Y-123281221D01*
X178564000Y-83677979D02*
X178564000Y-83352421D01*
X177544000Y-83677979D02*
X177544000Y-83352421D01*
X115771200Y-107182800D02*
X115771200Y-108112800D01*
X115771200Y-110342800D02*
X115771200Y-109412800D01*
X115771200Y-110342800D02*
X113611200Y-110342800D01*
X115771200Y-107182800D02*
X114311200Y-107182800D01*
X168400800Y-121619778D02*
X168400800Y-121102622D01*
X166980800Y-121619778D02*
X166980800Y-121102622D01*
X178262400Y-127353600D02*
X177332400Y-127353600D01*
X175102400Y-127353600D02*
X176032400Y-127353600D01*
X175102400Y-127353600D02*
X175102400Y-125193600D01*
X178262400Y-127353600D02*
X178262400Y-125893600D01*
X157018222Y-77468800D02*
X157535378Y-77468800D01*
X157018222Y-76048800D02*
X157535378Y-76048800D01*
X140307600Y-81732000D02*
X140307600Y-82662000D01*
X140307600Y-84892000D02*
X140307600Y-83962000D01*
X140307600Y-84892000D02*
X138147600Y-84892000D01*
X140307600Y-81732000D02*
X138847600Y-81732000D01*
X154226800Y-83129000D02*
X154226800Y-84059000D01*
X154226800Y-86289000D02*
X154226800Y-85359000D01*
X154226800Y-86289000D02*
X152066800Y-86289000D01*
X154226800Y-83129000D02*
X152766800Y-83129000D01*
X143136500Y-78615000D02*
X144066500Y-78615000D01*
X146296500Y-78615000D02*
X145366500Y-78615000D01*
X146296500Y-78615000D02*
X146296500Y-80775000D01*
X143136500Y-78615000D02*
X143136500Y-80075000D01*
X147108500Y-78645936D02*
X147108500Y-79850064D01*
X148928500Y-78645936D02*
X148928500Y-79850064D01*
X135355600Y-108222800D02*
X132055600Y-108222800D01*
X132055600Y-108222800D02*
X132055600Y-104222800D01*
X145413000Y-113946721D02*
X145413000Y-114272279D01*
X146433000Y-113946721D02*
X146433000Y-114272279D01*
X143698500Y-113946721D02*
X143698500Y-114272279D01*
X144718500Y-113946721D02*
X144718500Y-114272279D01*
X149709600Y-97190779D02*
X149709600Y-96865221D01*
X148689600Y-97190779D02*
X148689600Y-96865221D01*
X133766779Y-92962000D02*
X133441221Y-92962000D01*
X133766779Y-93982000D02*
X133441221Y-93982000D01*
X155242800Y-97576421D02*
X155242800Y-97901979D01*
X156262800Y-97576421D02*
X156262800Y-97901979D01*
X133830279Y-99185000D02*
X133504721Y-99185000D01*
X133830279Y-100205000D02*
X133504721Y-100205000D01*
X150725600Y-114208779D02*
X150725600Y-113883221D01*
X149705600Y-114208779D02*
X149705600Y-113883221D01*
X149832279Y-120114600D02*
X149506721Y-120114600D01*
X149832279Y-121134600D02*
X149506721Y-121134600D01*
X141280000Y-121765600D02*
X140350000Y-121765600D01*
X138120000Y-121765600D02*
X139050000Y-121765600D01*
X138120000Y-121765600D02*
X138120000Y-119605600D01*
X141280000Y-121765600D02*
X141280000Y-120305600D01*
X178008400Y-114298000D02*
X177078400Y-114298000D01*
X174848400Y-114298000D02*
X175778400Y-114298000D01*
X174848400Y-114298000D02*
X174848400Y-112138000D01*
X178008400Y-114298000D02*
X178008400Y-112838000D01*
X178008400Y-102563200D02*
X177078400Y-102563200D01*
X174848400Y-102563200D02*
X175778400Y-102563200D01*
X174848400Y-102563200D02*
X174848400Y-100403200D01*
X178008400Y-102563200D02*
X178008400Y-101103200D01*
X178364000Y-90371200D02*
X177434000Y-90371200D01*
X175204000Y-90371200D02*
X176134000Y-90371200D01*
X175204000Y-90371200D02*
X175204000Y-88211200D01*
X178364000Y-90371200D02*
X178364000Y-88911200D01*
X111043600Y-115165600D02*
X111973600Y-115165600D01*
X114203600Y-115165600D02*
X113273600Y-115165600D01*
X114203600Y-115165600D02*
X114203600Y-117325600D01*
X111043600Y-115165600D02*
X111043600Y-116625600D01*
X151919000Y-98539200D02*
X151919000Y-96254200D01*
X151919000Y-96254200D02*
X153389000Y-96254200D01*
X153389000Y-96254200D02*
X153389000Y-98539200D01*
X132854800Y-97359800D02*
X135139800Y-97359800D01*
X135139800Y-97359800D02*
X135139800Y-98829800D01*
X135139800Y-98829800D02*
X132854800Y-98829800D01*
X147804200Y-115480200D02*
X147804200Y-113195200D01*
X149274200Y-115480200D02*
X147804200Y-115480200D01*
X149274200Y-113195200D02*
X149274200Y-115480200D01*
X151385200Y-113787422D02*
X151385200Y-114304578D01*
X152805200Y-113787422D02*
X152805200Y-114304578D01*
X133817579Y-102410800D02*
X133492021Y-102410800D01*
X133817579Y-103430800D02*
X133492021Y-103430800D01*
X168553200Y-84891378D02*
X168553200Y-84374222D01*
X167133200Y-84891378D02*
X167133200Y-84374222D01*
X122734000Y-103271822D02*
X122734000Y-103788978D01*
X124154000Y-103271822D02*
X124154000Y-103788978D01*
X151887422Y-108533000D02*
X152404578Y-108533000D01*
X151887422Y-107113000D02*
X152404578Y-107113000D01*
X133492021Y-109882400D02*
X133817579Y-109882400D01*
X133492021Y-108862400D02*
X133817579Y-108862400D01*
X141330178Y-113132800D02*
X140813022Y-113132800D01*
X141330178Y-114552800D02*
X140813022Y-114552800D01*
X168642100Y-108792778D02*
X168642100Y-108275622D01*
X167222100Y-108792778D02*
X167222100Y-108275622D01*
X120651200Y-120747022D02*
X120651200Y-121264178D01*
X122071200Y-120747022D02*
X122071200Y-121264178D01*
X168972300Y-96384878D02*
X168972300Y-95867722D01*
X167552300Y-96384878D02*
X167552300Y-95867722D01*
X178462400Y-107147579D02*
X178462400Y-106822021D01*
X177442400Y-107147579D02*
X177442400Y-106822021D01*
X143952500Y-96230221D02*
X143952500Y-96555779D01*
X144972500Y-96230221D02*
X144972500Y-96555779D01*
X141793500Y-96230221D02*
X141793500Y-96555779D01*
X142813500Y-96230221D02*
X142813500Y-96555779D01*
X175465200Y-107198379D02*
X175465200Y-106872821D01*
X174445200Y-107198379D02*
X174445200Y-106872821D01*
X178360800Y-94955579D02*
X178360800Y-94630021D01*
X177340800Y-94955579D02*
X177340800Y-94630021D01*
X175414400Y-95006379D02*
X175414400Y-94680821D01*
X174394400Y-95006379D02*
X174394400Y-94680821D01*
X150611300Y-85062279D02*
X150611300Y-84736721D01*
X149591300Y-85062279D02*
X149591300Y-84736721D01*
X140206000Y-96230221D02*
X140206000Y-96555779D01*
X141226000Y-96230221D02*
X141226000Y-96555779D01*
X175414400Y-83779579D02*
X175414400Y-83454021D01*
X174394400Y-83779579D02*
X174394400Y-83454021D01*
X124425500Y-76326000D02*
X124425500Y-73026000D01*
X124425500Y-73026000D02*
X129825500Y-73026000D01*
X124425500Y-76326000D02*
X129825500Y-76326000D01*
D11*
X147339780Y-104622695D02*
X148149304Y-104622695D01*
X148244542Y-104670314D01*
X148292161Y-104717933D01*
X148339780Y-104813171D01*
X148339780Y-105003647D01*
X148292161Y-105098885D01*
X148244542Y-105146504D01*
X148149304Y-105194123D01*
X147339780Y-105194123D01*
X148339780Y-106194123D02*
X148339780Y-105622695D01*
X148339780Y-105908409D02*
X147339780Y-105908409D01*
X147482638Y-105813171D01*
X147577876Y-105717933D01*
X147625495Y-105622695D01*
X140590447Y-87988380D02*
X140923780Y-87512190D01*
X141161876Y-87988380D02*
X141161876Y-86988380D01*
X140780923Y-86988380D01*
X140685685Y-87036000D01*
X140638066Y-87083619D01*
X140590447Y-87178857D01*
X140590447Y-87321714D01*
X140638066Y-87416952D01*
X140685685Y-87464571D01*
X140780923Y-87512190D01*
X141161876Y-87512190D01*
X140019019Y-87416952D02*
X140114257Y-87369333D01*
X140161876Y-87321714D01*
X140209495Y-87226476D01*
X140209495Y-87178857D01*
X140161876Y-87083619D01*
X140114257Y-87036000D01*
X140019019Y-86988380D01*
X139828542Y-86988380D01*
X139733304Y-87036000D01*
X139685685Y-87083619D01*
X139638066Y-87178857D01*
X139638066Y-87226476D01*
X139685685Y-87321714D01*
X139733304Y-87369333D01*
X139828542Y-87416952D01*
X140019019Y-87416952D01*
X140114257Y-87464571D01*
X140161876Y-87512190D01*
X140209495Y-87607428D01*
X140209495Y-87797904D01*
X140161876Y-87893142D01*
X140114257Y-87940761D01*
X140019019Y-87988380D01*
X139828542Y-87988380D01*
X139733304Y-87940761D01*
X139685685Y-87893142D01*
X139638066Y-87797904D01*
X139638066Y-87607428D01*
X139685685Y-87512190D01*
X139733304Y-87464571D01*
X139828542Y-87416952D01*
X139019019Y-86988380D02*
X138923780Y-86988380D01*
X138828542Y-87036000D01*
X138780923Y-87083619D01*
X138733304Y-87178857D01*
X138685685Y-87369333D01*
X138685685Y-87607428D01*
X138733304Y-87797904D01*
X138780923Y-87893142D01*
X138828542Y-87940761D01*
X138923780Y-87988380D01*
X139019019Y-87988380D01*
X139114257Y-87940761D01*
X139161876Y-87893142D01*
X139209495Y-87797904D01*
X139257114Y-87607428D01*
X139257114Y-87369333D01*
X139209495Y-87178857D01*
X139161876Y-87083619D01*
X139114257Y-87036000D01*
X139019019Y-86988380D01*
X138304733Y-87083619D02*
X138257114Y-87036000D01*
X138161876Y-86988380D01*
X137923780Y-86988380D01*
X137828542Y-87036000D01*
X137780923Y-87083619D01*
X137733304Y-87178857D01*
X137733304Y-87274095D01*
X137780923Y-87416952D01*
X138352352Y-87988380D01*
X137733304Y-87988380D01*
X113083580Y-122324952D02*
X112607390Y-121991619D01*
X113083580Y-121753523D02*
X112083580Y-121753523D01*
X112083580Y-122134476D01*
X112131200Y-122229714D01*
X112178819Y-122277333D01*
X112274057Y-122324952D01*
X112416914Y-122324952D01*
X112512152Y-122277333D01*
X112559771Y-122229714D01*
X112607390Y-122134476D01*
X112607390Y-121753523D01*
X112178819Y-122705904D02*
X112131200Y-122753523D01*
X112083580Y-122848761D01*
X112083580Y-123086857D01*
X112131200Y-123182095D01*
X112178819Y-123229714D01*
X112274057Y-123277333D01*
X112369295Y-123277333D01*
X112512152Y-123229714D01*
X113083580Y-122658285D01*
X113083580Y-123277333D01*
X112083580Y-123896380D02*
X112083580Y-123991619D01*
X112131200Y-124086857D01*
X112178819Y-124134476D01*
X112274057Y-124182095D01*
X112464533Y-124229714D01*
X112702628Y-124229714D01*
X112893104Y-124182095D01*
X112988342Y-124134476D01*
X113035961Y-124086857D01*
X113083580Y-123991619D01*
X113083580Y-123896380D01*
X113035961Y-123801142D01*
X112988342Y-123753523D01*
X112893104Y-123705904D01*
X112702628Y-123658285D01*
X112464533Y-123658285D01*
X112274057Y-123705904D01*
X112178819Y-123753523D01*
X112131200Y-123801142D01*
X112083580Y-123896380D01*
X112178819Y-124610666D02*
X112131200Y-124658285D01*
X112083580Y-124753523D01*
X112083580Y-124991619D01*
X112131200Y-125086857D01*
X112178819Y-125134476D01*
X112274057Y-125182095D01*
X112369295Y-125182095D01*
X112512152Y-125134476D01*
X113083580Y-124563047D01*
X113083580Y-125182095D01*
X116004580Y-122324952D02*
X115528390Y-121991619D01*
X116004580Y-121753523D02*
X115004580Y-121753523D01*
X115004580Y-122134476D01*
X115052200Y-122229714D01*
X115099819Y-122277333D01*
X115195057Y-122324952D01*
X115337914Y-122324952D01*
X115433152Y-122277333D01*
X115480771Y-122229714D01*
X115528390Y-122134476D01*
X115528390Y-121753523D01*
X115099819Y-122705904D02*
X115052200Y-122753523D01*
X115004580Y-122848761D01*
X115004580Y-123086857D01*
X115052200Y-123182095D01*
X115099819Y-123229714D01*
X115195057Y-123277333D01*
X115290295Y-123277333D01*
X115433152Y-123229714D01*
X116004580Y-122658285D01*
X116004580Y-123277333D01*
X115004580Y-123896380D02*
X115004580Y-123991619D01*
X115052200Y-124086857D01*
X115099819Y-124134476D01*
X115195057Y-124182095D01*
X115385533Y-124229714D01*
X115623628Y-124229714D01*
X115814104Y-124182095D01*
X115909342Y-124134476D01*
X115956961Y-124086857D01*
X116004580Y-123991619D01*
X116004580Y-123896380D01*
X115956961Y-123801142D01*
X115909342Y-123753523D01*
X115814104Y-123705904D01*
X115623628Y-123658285D01*
X115385533Y-123658285D01*
X115195057Y-123705904D01*
X115099819Y-123753523D01*
X115052200Y-123801142D01*
X115004580Y-123896380D01*
X116004580Y-125182095D02*
X116004580Y-124610666D01*
X116004580Y-124896380D02*
X115004580Y-124896380D01*
X115147438Y-124801142D01*
X115242676Y-124705904D01*
X115290295Y-124610666D01*
X180157380Y-80707052D02*
X179681190Y-80373719D01*
X180157380Y-80135623D02*
X179157380Y-80135623D01*
X179157380Y-80516576D01*
X179205000Y-80611814D01*
X179252619Y-80659433D01*
X179347857Y-80707052D01*
X179490714Y-80707052D01*
X179585952Y-80659433D01*
X179633571Y-80611814D01*
X179681190Y-80516576D01*
X179681190Y-80135623D01*
X180157380Y-81659433D02*
X180157380Y-81088004D01*
X180157380Y-81373719D02*
X179157380Y-81373719D01*
X179300238Y-81278480D01*
X179395476Y-81183242D01*
X179443095Y-81088004D01*
X179157380Y-82278480D02*
X179157380Y-82373719D01*
X179205000Y-82468957D01*
X179252619Y-82516576D01*
X179347857Y-82564195D01*
X179538333Y-82611814D01*
X179776428Y-82611814D01*
X179966904Y-82564195D01*
X180062142Y-82516576D01*
X180109761Y-82468957D01*
X180157380Y-82373719D01*
X180157380Y-82278480D01*
X180109761Y-82183242D01*
X180062142Y-82135623D01*
X179966904Y-82088004D01*
X179776428Y-82040385D01*
X179538333Y-82040385D01*
X179347857Y-82088004D01*
X179252619Y-82135623D01*
X179205000Y-82183242D01*
X179157380Y-82278480D01*
X180157380Y-83564195D02*
X180157380Y-82992766D01*
X180157380Y-83278480D02*
X179157380Y-83278480D01*
X179300238Y-83183242D01*
X179395476Y-83088004D01*
X179443095Y-82992766D01*
X118106438Y-111191371D02*
X117773104Y-111191371D01*
X117630247Y-111715180D02*
X118106438Y-111715180D01*
X118106438Y-110715180D01*
X117630247Y-110715180D01*
X117249295Y-111667561D02*
X117106438Y-111715180D01*
X116868342Y-111715180D01*
X116773104Y-111667561D01*
X116725485Y-111619942D01*
X116677866Y-111524704D01*
X116677866Y-111429466D01*
X116725485Y-111334228D01*
X116773104Y-111286609D01*
X116868342Y-111238990D01*
X117058819Y-111191371D01*
X117154057Y-111143752D01*
X117201676Y-111096133D01*
X117249295Y-111000895D01*
X117249295Y-110905657D01*
X117201676Y-110810419D01*
X117154057Y-110762800D01*
X117058819Y-110715180D01*
X116820723Y-110715180D01*
X116677866Y-110762800D01*
X116249295Y-111715180D02*
X116249295Y-110715180D01*
X116011200Y-110715180D01*
X115868342Y-110762800D01*
X115773104Y-110858038D01*
X115725485Y-110953276D01*
X115677866Y-111143752D01*
X115677866Y-111286609D01*
X115725485Y-111477085D01*
X115773104Y-111572323D01*
X115868342Y-111667561D01*
X116011200Y-111715180D01*
X116249295Y-111715180D01*
X114725485Y-111715180D02*
X115296914Y-111715180D01*
X115011200Y-111715180D02*
X115011200Y-110715180D01*
X115106438Y-110858038D01*
X115201676Y-110953276D01*
X115296914Y-111000895D01*
X114344533Y-110810419D02*
X114296914Y-110762800D01*
X114201676Y-110715180D01*
X113963580Y-110715180D01*
X113868342Y-110762800D01*
X113820723Y-110810419D01*
X113773104Y-110905657D01*
X113773104Y-111000895D01*
X113820723Y-111143752D01*
X114392152Y-111715180D01*
X113773104Y-111715180D01*
X113154057Y-110715180D02*
X113058819Y-110715180D01*
X112963580Y-110762800D01*
X112915961Y-110810419D01*
X112868342Y-110905657D01*
X112820723Y-111096133D01*
X112820723Y-111334228D01*
X112868342Y-111524704D01*
X112915961Y-111619942D01*
X112963580Y-111667561D01*
X113058819Y-111715180D01*
X113154057Y-111715180D01*
X113249295Y-111667561D01*
X113296914Y-111619942D01*
X113344533Y-111524704D01*
X113392152Y-111334228D01*
X113392152Y-111096133D01*
X113344533Y-110905657D01*
X113296914Y-110810419D01*
X113249295Y-110762800D01*
X113154057Y-110715180D01*
X112439771Y-110810419D02*
X112392152Y-110762800D01*
X112296914Y-110715180D01*
X112058819Y-110715180D01*
X111963580Y-110762800D01*
X111915961Y-110810419D01*
X111868342Y-110905657D01*
X111868342Y-111000895D01*
X111915961Y-111143752D01*
X112487390Y-111715180D01*
X111868342Y-111715180D01*
X169697942Y-120242152D02*
X169745561Y-120194533D01*
X169793180Y-120051676D01*
X169793180Y-119956438D01*
X169745561Y-119813580D01*
X169650323Y-119718342D01*
X169555085Y-119670723D01*
X169364609Y-119623104D01*
X169221752Y-119623104D01*
X169031276Y-119670723D01*
X168936038Y-119718342D01*
X168840800Y-119813580D01*
X168793180Y-119956438D01*
X168793180Y-120051676D01*
X168840800Y-120194533D01*
X168888419Y-120242152D01*
X169793180Y-121194533D02*
X169793180Y-120623104D01*
X169793180Y-120908819D02*
X168793180Y-120908819D01*
X168936038Y-120813580D01*
X169031276Y-120718342D01*
X169078895Y-120623104D01*
X169793180Y-122146914D02*
X169793180Y-121575485D01*
X169793180Y-121861200D02*
X168793180Y-121861200D01*
X168936038Y-121765961D01*
X169031276Y-121670723D01*
X169078895Y-121575485D01*
X169793180Y-123099295D02*
X169793180Y-122527866D01*
X169793180Y-122813580D02*
X168793180Y-122813580D01*
X168936038Y-122718342D01*
X169031276Y-122623104D01*
X169078895Y-122527866D01*
X179371238Y-129008071D02*
X179037904Y-129008071D01*
X178895047Y-129531880D02*
X179371238Y-129531880D01*
X179371238Y-128531880D01*
X178895047Y-128531880D01*
X178514095Y-129484261D02*
X178371238Y-129531880D01*
X178133142Y-129531880D01*
X178037904Y-129484261D01*
X177990285Y-129436642D01*
X177942666Y-129341404D01*
X177942666Y-129246166D01*
X177990285Y-129150928D01*
X178037904Y-129103309D01*
X178133142Y-129055690D01*
X178323619Y-129008071D01*
X178418857Y-128960452D01*
X178466476Y-128912833D01*
X178514095Y-128817595D01*
X178514095Y-128722357D01*
X178466476Y-128627119D01*
X178418857Y-128579500D01*
X178323619Y-128531880D01*
X178085523Y-128531880D01*
X177942666Y-128579500D01*
X177514095Y-129531880D02*
X177514095Y-128531880D01*
X177276000Y-128531880D01*
X177133142Y-128579500D01*
X177037904Y-128674738D01*
X176990285Y-128769976D01*
X176942666Y-128960452D01*
X176942666Y-129103309D01*
X176990285Y-129293785D01*
X177037904Y-129389023D01*
X177133142Y-129484261D01*
X177276000Y-129531880D01*
X177514095Y-129531880D01*
X175990285Y-129531880D02*
X176561714Y-129531880D01*
X176276000Y-129531880D02*
X176276000Y-128531880D01*
X176371238Y-128674738D01*
X176466476Y-128769976D01*
X176561714Y-128817595D01*
X175609333Y-128627119D02*
X175561714Y-128579500D01*
X175466476Y-128531880D01*
X175228380Y-128531880D01*
X175133142Y-128579500D01*
X175085523Y-128627119D01*
X175037904Y-128722357D01*
X175037904Y-128817595D01*
X175085523Y-128960452D01*
X175656952Y-129531880D01*
X175037904Y-129531880D01*
X174418857Y-128531880D02*
X174323619Y-128531880D01*
X174228380Y-128579500D01*
X174180761Y-128627119D01*
X174133142Y-128722357D01*
X174085523Y-128912833D01*
X174085523Y-129150928D01*
X174133142Y-129341404D01*
X174180761Y-129436642D01*
X174228380Y-129484261D01*
X174323619Y-129531880D01*
X174418857Y-129531880D01*
X174514095Y-129484261D01*
X174561714Y-129436642D01*
X174609333Y-129341404D01*
X174656952Y-129150928D01*
X174656952Y-128912833D01*
X174609333Y-128722357D01*
X174561714Y-128627119D01*
X174514095Y-128579500D01*
X174418857Y-128531880D01*
X173133142Y-129531880D02*
X173704571Y-129531880D01*
X173418857Y-129531880D02*
X173418857Y-128531880D01*
X173514095Y-128674738D01*
X173609333Y-128769976D01*
X173704571Y-128817595D01*
X158395847Y-78765942D02*
X158443466Y-78813561D01*
X158586323Y-78861180D01*
X158681561Y-78861180D01*
X158824419Y-78813561D01*
X158919657Y-78718323D01*
X158967276Y-78623085D01*
X159014895Y-78432609D01*
X159014895Y-78289752D01*
X158967276Y-78099276D01*
X158919657Y-78004038D01*
X158824419Y-77908800D01*
X158681561Y-77861180D01*
X158586323Y-77861180D01*
X158443466Y-77908800D01*
X158395847Y-77956419D01*
X157443466Y-78861180D02*
X158014895Y-78861180D01*
X157729180Y-78861180D02*
X157729180Y-77861180D01*
X157824419Y-78004038D01*
X157919657Y-78099276D01*
X158014895Y-78146895D01*
X156491085Y-78861180D02*
X157062514Y-78861180D01*
X156776800Y-78861180D02*
X156776800Y-77861180D01*
X156872038Y-78004038D01*
X156967276Y-78099276D01*
X157062514Y-78146895D01*
X155872038Y-77861180D02*
X155776800Y-77861180D01*
X155681561Y-77908800D01*
X155633942Y-77956419D01*
X155586323Y-78051657D01*
X155538704Y-78242133D01*
X155538704Y-78480228D01*
X155586323Y-78670704D01*
X155633942Y-78765942D01*
X155681561Y-78813561D01*
X155776800Y-78861180D01*
X155872038Y-78861180D01*
X155967276Y-78813561D01*
X156014895Y-78765942D01*
X156062514Y-78670704D01*
X156110133Y-78480228D01*
X156110133Y-78242133D01*
X156062514Y-78051657D01*
X156014895Y-77956419D01*
X155967276Y-77908800D01*
X155872038Y-77861180D01*
X143871819Y-85434419D02*
X143967057Y-85386800D01*
X144062295Y-85291561D01*
X144205152Y-85148704D01*
X144300390Y-85101085D01*
X144395628Y-85101085D01*
X144348009Y-85339180D02*
X144443247Y-85291561D01*
X144538485Y-85196323D01*
X144586104Y-85005847D01*
X144586104Y-84672514D01*
X144538485Y-84482038D01*
X144443247Y-84386800D01*
X144348009Y-84339180D01*
X144157533Y-84339180D01*
X144062295Y-84386800D01*
X143967057Y-84482038D01*
X143919438Y-84672514D01*
X143919438Y-85005847D01*
X143967057Y-85196323D01*
X144062295Y-85291561D01*
X144157533Y-85339180D01*
X144348009Y-85339180D01*
X143443247Y-85339180D02*
X143252771Y-85339180D01*
X143157533Y-85291561D01*
X143109914Y-85243942D01*
X143014676Y-85101085D01*
X142967057Y-84910609D01*
X142967057Y-84529657D01*
X143014676Y-84434419D01*
X143062295Y-84386800D01*
X143157533Y-84339180D01*
X143348009Y-84339180D01*
X143443247Y-84386800D01*
X143490866Y-84434419D01*
X143538485Y-84529657D01*
X143538485Y-84767752D01*
X143490866Y-84862990D01*
X143443247Y-84910609D01*
X143348009Y-84958228D01*
X143157533Y-84958228D01*
X143062295Y-84910609D01*
X143014676Y-84862990D01*
X142967057Y-84767752D01*
X142348009Y-84339180D02*
X142252771Y-84339180D01*
X142157533Y-84386800D01*
X142109914Y-84434419D01*
X142062295Y-84529657D01*
X142014676Y-84720133D01*
X142014676Y-84958228D01*
X142062295Y-85148704D01*
X142109914Y-85243942D01*
X142157533Y-85291561D01*
X142252771Y-85339180D01*
X142348009Y-85339180D01*
X142443247Y-85291561D01*
X142490866Y-85243942D01*
X142538485Y-85148704D01*
X142586104Y-84958228D01*
X142586104Y-84720133D01*
X142538485Y-84529657D01*
X142490866Y-84434419D01*
X142443247Y-84386800D01*
X142348009Y-84339180D01*
X141062295Y-85339180D02*
X141633723Y-85339180D01*
X141348009Y-85339180D02*
X141348009Y-84339180D01*
X141443247Y-84482038D01*
X141538485Y-84577276D01*
X141633723Y-84624895D01*
X154514419Y-87756619D02*
X154609657Y-87709000D01*
X154704895Y-87613761D01*
X154847752Y-87470904D01*
X154942990Y-87423285D01*
X155038228Y-87423285D01*
X154990609Y-87661380D02*
X155085847Y-87613761D01*
X155181085Y-87518523D01*
X155228704Y-87328047D01*
X155228704Y-86994714D01*
X155181085Y-86804238D01*
X155085847Y-86709000D01*
X154990609Y-86661380D01*
X154800133Y-86661380D01*
X154704895Y-86709000D01*
X154609657Y-86804238D01*
X154562038Y-86994714D01*
X154562038Y-87328047D01*
X154609657Y-87518523D01*
X154704895Y-87613761D01*
X154800133Y-87661380D01*
X154990609Y-87661380D01*
X153990609Y-87089952D02*
X154085847Y-87042333D01*
X154133466Y-86994714D01*
X154181085Y-86899476D01*
X154181085Y-86851857D01*
X154133466Y-86756619D01*
X154085847Y-86709000D01*
X153990609Y-86661380D01*
X153800133Y-86661380D01*
X153704895Y-86709000D01*
X153657276Y-86756619D01*
X153609657Y-86851857D01*
X153609657Y-86899476D01*
X153657276Y-86994714D01*
X153704895Y-87042333D01*
X153800133Y-87089952D01*
X153990609Y-87089952D01*
X154085847Y-87137571D01*
X154133466Y-87185190D01*
X154181085Y-87280428D01*
X154181085Y-87470904D01*
X154133466Y-87566142D01*
X154085847Y-87613761D01*
X153990609Y-87661380D01*
X153800133Y-87661380D01*
X153704895Y-87613761D01*
X153657276Y-87566142D01*
X153609657Y-87470904D01*
X153609657Y-87280428D01*
X153657276Y-87185190D01*
X153704895Y-87137571D01*
X153800133Y-87089952D01*
X152990609Y-86661380D02*
X152895371Y-86661380D01*
X152800133Y-86709000D01*
X152752514Y-86756619D01*
X152704895Y-86851857D01*
X152657276Y-87042333D01*
X152657276Y-87280428D01*
X152704895Y-87470904D01*
X152752514Y-87566142D01*
X152800133Y-87613761D01*
X152895371Y-87661380D01*
X152990609Y-87661380D01*
X153085847Y-87613761D01*
X153133466Y-87566142D01*
X153181085Y-87470904D01*
X153228704Y-87280428D01*
X153228704Y-87042333D01*
X153181085Y-86851857D01*
X153133466Y-86756619D01*
X153085847Y-86709000D01*
X152990609Y-86661380D01*
X151704895Y-87661380D02*
X152276323Y-87661380D01*
X151990609Y-87661380D02*
X151990609Y-86661380D01*
X152085847Y-86804238D01*
X152181085Y-86899476D01*
X152276323Y-86947095D01*
X147764119Y-78327380D02*
X147716500Y-78232142D01*
X147621261Y-78136904D01*
X147478404Y-77994047D01*
X147430785Y-77898809D01*
X147430785Y-77803571D01*
X147668880Y-77851190D02*
X147621261Y-77755952D01*
X147526023Y-77660714D01*
X147335547Y-77613095D01*
X147002214Y-77613095D01*
X146811738Y-77660714D01*
X146716500Y-77755952D01*
X146668880Y-77851190D01*
X146668880Y-78041666D01*
X146716500Y-78136904D01*
X146811738Y-78232142D01*
X147002214Y-78279761D01*
X147335547Y-78279761D01*
X147526023Y-78232142D01*
X147621261Y-78136904D01*
X147668880Y-78041666D01*
X147668880Y-77851190D01*
X146668880Y-78613095D02*
X146668880Y-79279761D01*
X147668880Y-78851190D01*
X146668880Y-79851190D02*
X146668880Y-79946428D01*
X146716500Y-80041666D01*
X146764119Y-80089285D01*
X146859357Y-80136904D01*
X147049833Y-80184523D01*
X147287928Y-80184523D01*
X147478404Y-80136904D01*
X147573642Y-80089285D01*
X147621261Y-80041666D01*
X147668880Y-79946428D01*
X147668880Y-79851190D01*
X147621261Y-79755952D01*
X147573642Y-79708333D01*
X147478404Y-79660714D01*
X147287928Y-79613095D01*
X147049833Y-79613095D01*
X146859357Y-79660714D01*
X146764119Y-79708333D01*
X146716500Y-79755952D01*
X146668880Y-79851190D01*
X147668880Y-81136904D02*
X147668880Y-80565476D01*
X147668880Y-80851190D02*
X146668880Y-80851190D01*
X146811738Y-80755952D01*
X146906976Y-80660714D01*
X146954595Y-80565476D01*
X150566380Y-78179752D02*
X150090190Y-77846419D01*
X150566380Y-77608323D02*
X149566380Y-77608323D01*
X149566380Y-77989276D01*
X149614000Y-78084514D01*
X149661619Y-78132133D01*
X149756857Y-78179752D01*
X149899714Y-78179752D01*
X149994952Y-78132133D01*
X150042571Y-78084514D01*
X150090190Y-77989276D01*
X150090190Y-77608323D01*
X149566380Y-78513085D02*
X149566380Y-79179752D01*
X150566380Y-78751180D01*
X149566380Y-79751180D02*
X149566380Y-79846419D01*
X149614000Y-79941657D01*
X149661619Y-79989276D01*
X149756857Y-80036895D01*
X149947333Y-80084514D01*
X150185428Y-80084514D01*
X150375904Y-80036895D01*
X150471142Y-79989276D01*
X150518761Y-79941657D01*
X150566380Y-79846419D01*
X150566380Y-79751180D01*
X150518761Y-79655942D01*
X150471142Y-79608323D01*
X150375904Y-79560704D01*
X150185428Y-79513085D01*
X149947333Y-79513085D01*
X149756857Y-79560704D01*
X149661619Y-79608323D01*
X149614000Y-79655942D01*
X149566380Y-79751180D01*
X150566380Y-81036895D02*
X150566380Y-80465466D01*
X150566380Y-80751180D02*
X149566380Y-80751180D01*
X149709238Y-80655942D01*
X149804476Y-80560704D01*
X149852095Y-80465466D01*
X131374971Y-104928990D02*
X131374971Y-105405180D01*
X131708304Y-104405180D02*
X131374971Y-104928990D01*
X131041638Y-104405180D01*
X130184495Y-105405180D02*
X130755923Y-105405180D01*
X130470209Y-105405180D02*
X130470209Y-104405180D01*
X130565447Y-104548038D01*
X130660685Y-104643276D01*
X130755923Y-104690895D01*
X129565447Y-104405180D02*
X129470209Y-104405180D01*
X129374971Y-104452800D01*
X129327352Y-104500419D01*
X129279733Y-104595657D01*
X129232114Y-104786133D01*
X129232114Y-105024228D01*
X129279733Y-105214704D01*
X129327352Y-105309942D01*
X129374971Y-105357561D01*
X129470209Y-105405180D01*
X129565447Y-105405180D01*
X129660685Y-105357561D01*
X129708304Y-105309942D01*
X129755923Y-105214704D01*
X129803542Y-105024228D01*
X129803542Y-104786133D01*
X129755923Y-104595657D01*
X129708304Y-104500419D01*
X129660685Y-104452800D01*
X129565447Y-104405180D01*
X128279733Y-105405180D02*
X128851161Y-105405180D01*
X128565447Y-105405180D02*
X128565447Y-104405180D01*
X128660685Y-104548038D01*
X128755923Y-104643276D01*
X128851161Y-104690895D01*
X146527638Y-116784380D02*
X146860971Y-116308190D01*
X147099066Y-116784380D02*
X147099066Y-115784380D01*
X146718114Y-115784380D01*
X146622876Y-115832000D01*
X146575257Y-115879619D01*
X146527638Y-115974857D01*
X146527638Y-116117714D01*
X146575257Y-116212952D01*
X146622876Y-116260571D01*
X146718114Y-116308190D01*
X147099066Y-116308190D01*
X145575257Y-116784380D02*
X146146685Y-116784380D01*
X145860971Y-116784380D02*
X145860971Y-115784380D01*
X145956209Y-115927238D01*
X146051447Y-116022476D01*
X146146685Y-116070095D01*
X145194304Y-115879619D02*
X145146685Y-115832000D01*
X145051447Y-115784380D01*
X144813352Y-115784380D01*
X144718114Y-115832000D01*
X144670495Y-115879619D01*
X144622876Y-115974857D01*
X144622876Y-116070095D01*
X144670495Y-116212952D01*
X145241923Y-116784380D01*
X144622876Y-116784380D01*
X144003828Y-115784380D02*
X143908590Y-115784380D01*
X143813352Y-115832000D01*
X143765733Y-115879619D01*
X143718114Y-115974857D01*
X143670495Y-116165333D01*
X143670495Y-116403428D01*
X143718114Y-116593904D01*
X143765733Y-116689142D01*
X143813352Y-116736761D01*
X143908590Y-116784380D01*
X144003828Y-116784380D01*
X144099066Y-116736761D01*
X144146685Y-116689142D01*
X144194304Y-116593904D01*
X144241923Y-116403428D01*
X144241923Y-116165333D01*
X144194304Y-115974857D01*
X144146685Y-115879619D01*
X144099066Y-115832000D01*
X144003828Y-115784380D01*
X143289542Y-115879619D02*
X143241923Y-115832000D01*
X143146685Y-115784380D01*
X142908590Y-115784380D01*
X142813352Y-115832000D01*
X142765733Y-115879619D01*
X142718114Y-115974857D01*
X142718114Y-116070095D01*
X142765733Y-116212952D01*
X143337161Y-116784380D01*
X142718114Y-116784380D01*
X146426038Y-118003580D02*
X146759371Y-117527390D01*
X146997466Y-118003580D02*
X146997466Y-117003580D01*
X146616514Y-117003580D01*
X146521276Y-117051200D01*
X146473657Y-117098819D01*
X146426038Y-117194057D01*
X146426038Y-117336914D01*
X146473657Y-117432152D01*
X146521276Y-117479771D01*
X146616514Y-117527390D01*
X146997466Y-117527390D01*
X145473657Y-118003580D02*
X146045085Y-118003580D01*
X145759371Y-118003580D02*
X145759371Y-117003580D01*
X145854609Y-117146438D01*
X145949847Y-117241676D01*
X146045085Y-117289295D01*
X145092704Y-117098819D02*
X145045085Y-117051200D01*
X144949847Y-117003580D01*
X144711752Y-117003580D01*
X144616514Y-117051200D01*
X144568895Y-117098819D01*
X144521276Y-117194057D01*
X144521276Y-117289295D01*
X144568895Y-117432152D01*
X145140323Y-118003580D01*
X144521276Y-118003580D01*
X143902228Y-117003580D02*
X143806990Y-117003580D01*
X143711752Y-117051200D01*
X143664133Y-117098819D01*
X143616514Y-117194057D01*
X143568895Y-117384533D01*
X143568895Y-117622628D01*
X143616514Y-117813104D01*
X143664133Y-117908342D01*
X143711752Y-117955961D01*
X143806990Y-118003580D01*
X143902228Y-118003580D01*
X143997466Y-117955961D01*
X144045085Y-117908342D01*
X144092704Y-117813104D01*
X144140323Y-117622628D01*
X144140323Y-117384533D01*
X144092704Y-117194057D01*
X144045085Y-117098819D01*
X143997466Y-117051200D01*
X143902228Y-117003580D01*
X142616514Y-118003580D02*
X143187942Y-118003580D01*
X142902228Y-118003580D02*
X142902228Y-117003580D01*
X142997466Y-117146438D01*
X143092704Y-117241676D01*
X143187942Y-117289295D01*
X148153380Y-94765952D02*
X147677190Y-94432619D01*
X148153380Y-94194523D02*
X147153380Y-94194523D01*
X147153380Y-94575476D01*
X147201000Y-94670714D01*
X147248619Y-94718333D01*
X147343857Y-94765952D01*
X147486714Y-94765952D01*
X147581952Y-94718333D01*
X147629571Y-94670714D01*
X147677190Y-94575476D01*
X147677190Y-94194523D01*
X148153380Y-95718333D02*
X148153380Y-95146904D01*
X148153380Y-95432619D02*
X147153380Y-95432619D01*
X147296238Y-95337380D01*
X147391476Y-95242142D01*
X147439095Y-95146904D01*
X148153380Y-96670714D02*
X148153380Y-96099285D01*
X148153380Y-96385000D02*
X147153380Y-96385000D01*
X147296238Y-96289761D01*
X147391476Y-96194523D01*
X147439095Y-96099285D01*
X147153380Y-97527857D02*
X147153380Y-97337380D01*
X147201000Y-97242142D01*
X147248619Y-97194523D01*
X147391476Y-97099285D01*
X147581952Y-97051666D01*
X147962904Y-97051666D01*
X148058142Y-97099285D01*
X148105761Y-97146904D01*
X148153380Y-97242142D01*
X148153380Y-97432619D01*
X148105761Y-97527857D01*
X148058142Y-97575476D01*
X147962904Y-97623095D01*
X147724809Y-97623095D01*
X147629571Y-97575476D01*
X147581952Y-97527857D01*
X147534333Y-97432619D01*
X147534333Y-97242142D01*
X147581952Y-97146904D01*
X147629571Y-97099285D01*
X147724809Y-97051666D01*
X134723047Y-92494380D02*
X135056380Y-92018190D01*
X135294476Y-92494380D02*
X135294476Y-91494380D01*
X134913523Y-91494380D01*
X134818285Y-91542000D01*
X134770666Y-91589619D01*
X134723047Y-91684857D01*
X134723047Y-91827714D01*
X134770666Y-91922952D01*
X134818285Y-91970571D01*
X134913523Y-92018190D01*
X135294476Y-92018190D01*
X133770666Y-92494380D02*
X134342095Y-92494380D01*
X134056380Y-92494380D02*
X134056380Y-91494380D01*
X134151619Y-91637238D01*
X134246857Y-91732476D01*
X134342095Y-91780095D01*
X132818285Y-92494380D02*
X133389714Y-92494380D01*
X133104000Y-92494380D02*
X133104000Y-91494380D01*
X133199238Y-91637238D01*
X133294476Y-91732476D01*
X133389714Y-91780095D01*
X131913523Y-91494380D02*
X132389714Y-91494380D01*
X132437333Y-91970571D01*
X132389714Y-91922952D01*
X132294476Y-91875333D01*
X132056380Y-91875333D01*
X131961142Y-91922952D01*
X131913523Y-91970571D01*
X131865904Y-92065809D01*
X131865904Y-92303904D01*
X131913523Y-92399142D01*
X131961142Y-92446761D01*
X132056380Y-92494380D01*
X132294476Y-92494380D01*
X132389714Y-92446761D01*
X132437333Y-92399142D01*
X156408380Y-100023752D02*
X155932190Y-99690419D01*
X156408380Y-99452323D02*
X155408380Y-99452323D01*
X155408380Y-99833276D01*
X155456000Y-99928514D01*
X155503619Y-99976133D01*
X155598857Y-100023752D01*
X155741714Y-100023752D01*
X155836952Y-99976133D01*
X155884571Y-99928514D01*
X155932190Y-99833276D01*
X155932190Y-99452323D01*
X156408380Y-100976133D02*
X156408380Y-100404704D01*
X156408380Y-100690419D02*
X155408380Y-100690419D01*
X155551238Y-100595180D01*
X155646476Y-100499942D01*
X155694095Y-100404704D01*
X156408380Y-101928514D02*
X156408380Y-101357085D01*
X156408380Y-101642800D02*
X155408380Y-101642800D01*
X155551238Y-101547561D01*
X155646476Y-101452323D01*
X155694095Y-101357085D01*
X155741714Y-102785657D02*
X156408380Y-102785657D01*
X155360761Y-102547561D02*
X156075047Y-102309466D01*
X156075047Y-102928514D01*
X131167047Y-100223580D02*
X131500380Y-99747390D01*
X131738476Y-100223580D02*
X131738476Y-99223580D01*
X131357523Y-99223580D01*
X131262285Y-99271200D01*
X131214666Y-99318819D01*
X131167047Y-99414057D01*
X131167047Y-99556914D01*
X131214666Y-99652152D01*
X131262285Y-99699771D01*
X131357523Y-99747390D01*
X131738476Y-99747390D01*
X130214666Y-100223580D02*
X130786095Y-100223580D01*
X130500380Y-100223580D02*
X130500380Y-99223580D01*
X130595619Y-99366438D01*
X130690857Y-99461676D01*
X130786095Y-99509295D01*
X129262285Y-100223580D02*
X129833714Y-100223580D01*
X129548000Y-100223580D02*
X129548000Y-99223580D01*
X129643238Y-99366438D01*
X129738476Y-99461676D01*
X129833714Y-99509295D01*
X128928952Y-99223580D02*
X128309904Y-99223580D01*
X128643238Y-99604533D01*
X128500380Y-99604533D01*
X128405142Y-99652152D01*
X128357523Y-99699771D01*
X128309904Y-99795009D01*
X128309904Y-100033104D01*
X128357523Y-100128342D01*
X128405142Y-100175961D01*
X128500380Y-100223580D01*
X128786095Y-100223580D01*
X128881333Y-100175961D01*
X128928952Y-100128342D01*
X150769580Y-116228952D02*
X150293390Y-115895619D01*
X150769580Y-115657523D02*
X149769580Y-115657523D01*
X149769580Y-116038476D01*
X149817200Y-116133714D01*
X149864819Y-116181333D01*
X149960057Y-116228952D01*
X150102914Y-116228952D01*
X150198152Y-116181333D01*
X150245771Y-116133714D01*
X150293390Y-116038476D01*
X150293390Y-115657523D01*
X150769580Y-117181333D02*
X150769580Y-116609904D01*
X150769580Y-116895619D02*
X149769580Y-116895619D01*
X149912438Y-116800380D01*
X150007676Y-116705142D01*
X150055295Y-116609904D01*
X150769580Y-118133714D02*
X150769580Y-117562285D01*
X150769580Y-117848000D02*
X149769580Y-117848000D01*
X149912438Y-117752761D01*
X150007676Y-117657523D01*
X150055295Y-117562285D01*
X150769580Y-119086095D02*
X150769580Y-118514666D01*
X150769580Y-118800380D02*
X149769580Y-118800380D01*
X149912438Y-118705142D01*
X150007676Y-118609904D01*
X150055295Y-118514666D01*
X151240904Y-122394671D02*
X151574238Y-122394671D01*
X151574238Y-122918480D02*
X151574238Y-121918480D01*
X151098047Y-121918480D01*
X150193285Y-122918480D02*
X150764714Y-122918480D01*
X150479000Y-122918480D02*
X150479000Y-121918480D01*
X150574238Y-122061338D01*
X150669476Y-122156576D01*
X150764714Y-122204195D01*
X149812333Y-122013719D02*
X149764714Y-121966100D01*
X149669476Y-121918480D01*
X149431380Y-121918480D01*
X149336142Y-121966100D01*
X149288523Y-122013719D01*
X149240904Y-122108957D01*
X149240904Y-122204195D01*
X149288523Y-122347052D01*
X149859952Y-122918480D01*
X149240904Y-122918480D01*
X148621857Y-121918480D02*
X148526619Y-121918480D01*
X148431380Y-121966100D01*
X148383761Y-122013719D01*
X148336142Y-122108957D01*
X148288523Y-122299433D01*
X148288523Y-122537528D01*
X148336142Y-122728004D01*
X148383761Y-122823242D01*
X148431380Y-122870861D01*
X148526619Y-122918480D01*
X148621857Y-122918480D01*
X148717095Y-122870861D01*
X148764714Y-122823242D01*
X148812333Y-122728004D01*
X148859952Y-122537528D01*
X148859952Y-122299433D01*
X148812333Y-122108957D01*
X148764714Y-122013719D01*
X148717095Y-121966100D01*
X148621857Y-121918480D01*
X147336142Y-122918480D02*
X147907571Y-122918480D01*
X147621857Y-122918480D02*
X147621857Y-121918480D01*
X147717095Y-122061338D01*
X147812333Y-122156576D01*
X147907571Y-122204195D01*
X136936171Y-117453161D02*
X136936171Y-117786495D01*
X137459980Y-117929352D02*
X137459980Y-117453161D01*
X136459980Y-117453161D01*
X136459980Y-117929352D01*
X137412361Y-118310304D02*
X137459980Y-118453161D01*
X137459980Y-118691257D01*
X137412361Y-118786495D01*
X137364742Y-118834114D01*
X137269504Y-118881733D01*
X137174266Y-118881733D01*
X137079028Y-118834114D01*
X137031409Y-118786495D01*
X136983790Y-118691257D01*
X136936171Y-118500780D01*
X136888552Y-118405542D01*
X136840933Y-118357923D01*
X136745695Y-118310304D01*
X136650457Y-118310304D01*
X136555219Y-118357923D01*
X136507600Y-118405542D01*
X136459980Y-118500780D01*
X136459980Y-118738876D01*
X136507600Y-118881733D01*
X137459980Y-119310304D02*
X136459980Y-119310304D01*
X136459980Y-119548400D01*
X136507600Y-119691257D01*
X136602838Y-119786495D01*
X136698076Y-119834114D01*
X136888552Y-119881733D01*
X137031409Y-119881733D01*
X137221885Y-119834114D01*
X137317123Y-119786495D01*
X137412361Y-119691257D01*
X137459980Y-119548400D01*
X137459980Y-119310304D01*
X137459980Y-120834114D02*
X137459980Y-120262685D01*
X137459980Y-120548400D02*
X136459980Y-120548400D01*
X136602838Y-120453161D01*
X136698076Y-120357923D01*
X136745695Y-120262685D01*
X137459980Y-121786495D02*
X137459980Y-121215066D01*
X137459980Y-121500780D02*
X136459980Y-121500780D01*
X136602838Y-121405542D01*
X136698076Y-121310304D01*
X136745695Y-121215066D01*
X136459980Y-122405542D02*
X136459980Y-122500780D01*
X136507600Y-122596019D01*
X136555219Y-122643638D01*
X136650457Y-122691257D01*
X136840933Y-122738876D01*
X137079028Y-122738876D01*
X137269504Y-122691257D01*
X137364742Y-122643638D01*
X137412361Y-122596019D01*
X137459980Y-122500780D01*
X137459980Y-122405542D01*
X137412361Y-122310304D01*
X137364742Y-122262685D01*
X137269504Y-122215066D01*
X137079028Y-122167447D01*
X136840933Y-122167447D01*
X136650457Y-122215066D01*
X136555219Y-122262685D01*
X136507600Y-122310304D01*
X136459980Y-122405542D01*
X137459980Y-123691257D02*
X137459980Y-123119828D01*
X137459980Y-123405542D02*
X136459980Y-123405542D01*
X136602838Y-123310304D01*
X136698076Y-123215066D01*
X136745695Y-123119828D01*
X179136347Y-116095471D02*
X178803014Y-116095471D01*
X178660157Y-116619280D02*
X179136347Y-116619280D01*
X179136347Y-115619280D01*
X178660157Y-115619280D01*
X178279204Y-116571661D02*
X178136347Y-116619280D01*
X177898252Y-116619280D01*
X177803014Y-116571661D01*
X177755395Y-116524042D01*
X177707776Y-116428804D01*
X177707776Y-116333566D01*
X177755395Y-116238328D01*
X177803014Y-116190709D01*
X177898252Y-116143090D01*
X178088728Y-116095471D01*
X178183966Y-116047852D01*
X178231585Y-116000233D01*
X178279204Y-115904995D01*
X178279204Y-115809757D01*
X178231585Y-115714519D01*
X178183966Y-115666900D01*
X178088728Y-115619280D01*
X177850633Y-115619280D01*
X177707776Y-115666900D01*
X177279204Y-116619280D02*
X177279204Y-115619280D01*
X177041109Y-115619280D01*
X176898252Y-115666900D01*
X176803014Y-115762138D01*
X176755395Y-115857376D01*
X176707776Y-116047852D01*
X176707776Y-116190709D01*
X176755395Y-116381185D01*
X176803014Y-116476423D01*
X176898252Y-116571661D01*
X177041109Y-116619280D01*
X177279204Y-116619280D01*
X175803014Y-115619280D02*
X176279204Y-115619280D01*
X176326823Y-116095471D01*
X176279204Y-116047852D01*
X176183966Y-116000233D01*
X175945871Y-116000233D01*
X175850633Y-116047852D01*
X175803014Y-116095471D01*
X175755395Y-116190709D01*
X175755395Y-116428804D01*
X175803014Y-116524042D01*
X175850633Y-116571661D01*
X175945871Y-116619280D01*
X176183966Y-116619280D01*
X176279204Y-116571661D01*
X176326823Y-116524042D01*
X175136347Y-115619280D02*
X175041109Y-115619280D01*
X174945871Y-115666900D01*
X174898252Y-115714519D01*
X174850633Y-115809757D01*
X174803014Y-116000233D01*
X174803014Y-116238328D01*
X174850633Y-116428804D01*
X174898252Y-116524042D01*
X174945871Y-116571661D01*
X175041109Y-116619280D01*
X175136347Y-116619280D01*
X175231585Y-116571661D01*
X175279204Y-116524042D01*
X175326823Y-116428804D01*
X175374442Y-116238328D01*
X175374442Y-116000233D01*
X175326823Y-115809757D01*
X175279204Y-115714519D01*
X175231585Y-115666900D01*
X175136347Y-115619280D01*
X173850633Y-116619280D02*
X174422061Y-116619280D01*
X174136347Y-116619280D02*
X174136347Y-115619280D01*
X174231585Y-115762138D01*
X174326823Y-115857376D01*
X174422061Y-115904995D01*
X172572371Y-99374652D02*
X172572371Y-99707985D01*
X173096180Y-99850842D02*
X173096180Y-99374652D01*
X172096180Y-99374652D01*
X172096180Y-99850842D01*
X173048561Y-100231795D02*
X173096180Y-100374652D01*
X173096180Y-100612747D01*
X173048561Y-100707985D01*
X173000942Y-100755604D01*
X172905704Y-100803223D01*
X172810466Y-100803223D01*
X172715228Y-100755604D01*
X172667609Y-100707985D01*
X172619990Y-100612747D01*
X172572371Y-100422271D01*
X172524752Y-100327033D01*
X172477133Y-100279414D01*
X172381895Y-100231795D01*
X172286657Y-100231795D01*
X172191419Y-100279414D01*
X172143800Y-100327033D01*
X172096180Y-100422271D01*
X172096180Y-100660366D01*
X172143800Y-100803223D01*
X173096180Y-101231795D02*
X172096180Y-101231795D01*
X172096180Y-101469890D01*
X172143800Y-101612747D01*
X172239038Y-101707985D01*
X172334276Y-101755604D01*
X172524752Y-101803223D01*
X172667609Y-101803223D01*
X172858085Y-101755604D01*
X172953323Y-101707985D01*
X173048561Y-101612747D01*
X173096180Y-101469890D01*
X173096180Y-101231795D01*
X172429514Y-102660366D02*
X173096180Y-102660366D01*
X172048561Y-102422271D02*
X172762847Y-102184176D01*
X172762847Y-102803223D01*
X172096180Y-103374652D02*
X172096180Y-103469890D01*
X172143800Y-103565128D01*
X172191419Y-103612747D01*
X172286657Y-103660366D01*
X172477133Y-103707985D01*
X172715228Y-103707985D01*
X172905704Y-103660366D01*
X173000942Y-103612747D01*
X173048561Y-103565128D01*
X173096180Y-103469890D01*
X173096180Y-103374652D01*
X173048561Y-103279414D01*
X173000942Y-103231795D01*
X172905704Y-103184176D01*
X172715228Y-103136557D01*
X172477133Y-103136557D01*
X172286657Y-103184176D01*
X172191419Y-103231795D01*
X172143800Y-103279414D01*
X172096180Y-103374652D01*
X173096180Y-104660366D02*
X173096180Y-104088938D01*
X173096180Y-104374652D02*
X172096180Y-104374652D01*
X172239038Y-104279414D01*
X172334276Y-104184176D01*
X172381895Y-104088938D01*
X174134471Y-88122452D02*
X174134471Y-88455785D01*
X174658280Y-88598642D02*
X174658280Y-88122452D01*
X173658280Y-88122452D01*
X173658280Y-88598642D01*
X174610661Y-88979595D02*
X174658280Y-89122452D01*
X174658280Y-89360547D01*
X174610661Y-89455785D01*
X174563042Y-89503404D01*
X174467804Y-89551023D01*
X174372566Y-89551023D01*
X174277328Y-89503404D01*
X174229709Y-89455785D01*
X174182090Y-89360547D01*
X174134471Y-89170071D01*
X174086852Y-89074833D01*
X174039233Y-89027214D01*
X173943995Y-88979595D01*
X173848757Y-88979595D01*
X173753519Y-89027214D01*
X173705900Y-89074833D01*
X173658280Y-89170071D01*
X173658280Y-89408166D01*
X173705900Y-89551023D01*
X174658280Y-89979595D02*
X173658280Y-89979595D01*
X173658280Y-90217690D01*
X173705900Y-90360547D01*
X173801138Y-90455785D01*
X173896376Y-90503404D01*
X174086852Y-90551023D01*
X174229709Y-90551023D01*
X174420185Y-90503404D01*
X174515423Y-90455785D01*
X174610661Y-90360547D01*
X174658280Y-90217690D01*
X174658280Y-89979595D01*
X173658280Y-90884357D02*
X173658280Y-91503404D01*
X174039233Y-91170071D01*
X174039233Y-91312928D01*
X174086852Y-91408166D01*
X174134471Y-91455785D01*
X174229709Y-91503404D01*
X174467804Y-91503404D01*
X174563042Y-91455785D01*
X174610661Y-91408166D01*
X174658280Y-91312928D01*
X174658280Y-91027214D01*
X174610661Y-90931976D01*
X174563042Y-90884357D01*
X173658280Y-92122452D02*
X173658280Y-92217690D01*
X173705900Y-92312928D01*
X173753519Y-92360547D01*
X173848757Y-92408166D01*
X174039233Y-92455785D01*
X174277328Y-92455785D01*
X174467804Y-92408166D01*
X174563042Y-92360547D01*
X174610661Y-92312928D01*
X174658280Y-92217690D01*
X174658280Y-92122452D01*
X174610661Y-92027214D01*
X174563042Y-91979595D01*
X174467804Y-91931976D01*
X174277328Y-91884357D01*
X174039233Y-91884357D01*
X173848757Y-91931976D01*
X173753519Y-91979595D01*
X173705900Y-92027214D01*
X173658280Y-92122452D01*
X174658280Y-93408166D02*
X174658280Y-92836738D01*
X174658280Y-93122452D02*
X173658280Y-93122452D01*
X173801138Y-93027214D01*
X173896376Y-92931976D01*
X173943995Y-92836738D01*
X116171671Y-114043152D02*
X116171671Y-114376485D01*
X116695480Y-114519342D02*
X116695480Y-114043152D01*
X115695480Y-114043152D01*
X115695480Y-114519342D01*
X116647861Y-114900295D02*
X116695480Y-115043152D01*
X116695480Y-115281247D01*
X116647861Y-115376485D01*
X116600242Y-115424104D01*
X116505004Y-115471723D01*
X116409766Y-115471723D01*
X116314528Y-115424104D01*
X116266909Y-115376485D01*
X116219290Y-115281247D01*
X116171671Y-115090771D01*
X116124052Y-114995533D01*
X116076433Y-114947914D01*
X115981195Y-114900295D01*
X115885957Y-114900295D01*
X115790719Y-114947914D01*
X115743100Y-114995533D01*
X115695480Y-115090771D01*
X115695480Y-115328866D01*
X115743100Y-115471723D01*
X116695480Y-115900295D02*
X115695480Y-115900295D01*
X115695480Y-116138390D01*
X115743100Y-116281247D01*
X115838338Y-116376485D01*
X115933576Y-116424104D01*
X116124052Y-116471723D01*
X116266909Y-116471723D01*
X116457385Y-116424104D01*
X116552623Y-116376485D01*
X116647861Y-116281247D01*
X116695480Y-116138390D01*
X116695480Y-115900295D01*
X115790719Y-116852676D02*
X115743100Y-116900295D01*
X115695480Y-116995533D01*
X115695480Y-117233628D01*
X115743100Y-117328866D01*
X115790719Y-117376485D01*
X115885957Y-117424104D01*
X115981195Y-117424104D01*
X116124052Y-117376485D01*
X116695480Y-116805057D01*
X116695480Y-117424104D01*
X115695480Y-118043152D02*
X115695480Y-118138390D01*
X115743100Y-118233628D01*
X115790719Y-118281247D01*
X115885957Y-118328866D01*
X116076433Y-118376485D01*
X116314528Y-118376485D01*
X116505004Y-118328866D01*
X116600242Y-118281247D01*
X116647861Y-118233628D01*
X116695480Y-118138390D01*
X116695480Y-118043152D01*
X116647861Y-117947914D01*
X116600242Y-117900295D01*
X116505004Y-117852676D01*
X116314528Y-117805057D01*
X116076433Y-117805057D01*
X115885957Y-117852676D01*
X115790719Y-117900295D01*
X115743100Y-117947914D01*
X115695480Y-118043152D01*
X116695480Y-119328866D02*
X116695480Y-118757438D01*
X116695480Y-119043152D02*
X115695480Y-119043152D01*
X115838338Y-118947914D01*
X115933576Y-118852676D01*
X115981195Y-118757438D01*
X153157180Y-100029923D02*
X153157180Y-99553733D01*
X152157180Y-99553733D01*
X137020204Y-97547180D02*
X136448776Y-97547180D01*
X136734490Y-98547180D02*
X136734490Y-97547180D01*
X136210680Y-97547180D02*
X135544014Y-98547180D01*
X135544014Y-97547180D02*
X136210680Y-98547180D01*
X149042380Y-116419333D02*
X148566190Y-116086000D01*
X149042380Y-115847904D02*
X148042380Y-115847904D01*
X148042380Y-116228857D01*
X148090000Y-116324095D01*
X148137619Y-116371714D01*
X148232857Y-116419333D01*
X148375714Y-116419333D01*
X148470952Y-116371714D01*
X148518571Y-116324095D01*
X148566190Y-116228857D01*
X148566190Y-115847904D01*
X148042380Y-116752666D02*
X149042380Y-117419333D01*
X148042380Y-117419333D02*
X149042380Y-116752666D01*
X154179542Y-112653961D02*
X154227161Y-112606342D01*
X154274780Y-112463485D01*
X154274780Y-112368247D01*
X154227161Y-112225390D01*
X154131923Y-112130152D01*
X154036685Y-112082533D01*
X153846209Y-112034914D01*
X153703352Y-112034914D01*
X153512876Y-112082533D01*
X153417638Y-112130152D01*
X153322400Y-112225390D01*
X153274780Y-112368247D01*
X153274780Y-112463485D01*
X153322400Y-112606342D01*
X153370019Y-112653961D01*
X154274780Y-113606342D02*
X154274780Y-113034914D01*
X154274780Y-113320628D02*
X153274780Y-113320628D01*
X153417638Y-113225390D01*
X153512876Y-113130152D01*
X153560495Y-113034914D01*
X154274780Y-114558723D02*
X154274780Y-113987295D01*
X154274780Y-114273009D02*
X153274780Y-114273009D01*
X153417638Y-114177771D01*
X153512876Y-114082533D01*
X153560495Y-113987295D01*
X153274780Y-115177771D02*
X153274780Y-115273009D01*
X153322400Y-115368247D01*
X153370019Y-115415866D01*
X153465257Y-115463485D01*
X153655733Y-115511104D01*
X153893828Y-115511104D01*
X154084304Y-115463485D01*
X154179542Y-115415866D01*
X154227161Y-115368247D01*
X154274780Y-115273009D01*
X154274780Y-115177771D01*
X154227161Y-115082533D01*
X154179542Y-115034914D01*
X154084304Y-114987295D01*
X153893828Y-114939676D01*
X153655733Y-114939676D01*
X153465257Y-114987295D01*
X153370019Y-115034914D01*
X153322400Y-115082533D01*
X153274780Y-115177771D01*
X154274780Y-116463485D02*
X154274780Y-115892057D01*
X154274780Y-116177771D02*
X153274780Y-116177771D01*
X153417638Y-116082533D01*
X153512876Y-115987295D01*
X153560495Y-115892057D01*
X134824647Y-101855542D02*
X134872266Y-101903161D01*
X135015123Y-101950780D01*
X135110361Y-101950780D01*
X135253219Y-101903161D01*
X135348457Y-101807923D01*
X135396076Y-101712685D01*
X135443695Y-101522209D01*
X135443695Y-101379352D01*
X135396076Y-101188876D01*
X135348457Y-101093638D01*
X135253219Y-100998400D01*
X135110361Y-100950780D01*
X135015123Y-100950780D01*
X134872266Y-100998400D01*
X134824647Y-101046019D01*
X133872266Y-101950780D02*
X134443695Y-101950780D01*
X134157980Y-101950780D02*
X134157980Y-100950780D01*
X134253219Y-101093638D01*
X134348457Y-101188876D01*
X134443695Y-101236495D01*
X133253219Y-100950780D02*
X133157980Y-100950780D01*
X133062742Y-100998400D01*
X133015123Y-101046019D01*
X132967504Y-101141257D01*
X132919885Y-101331733D01*
X132919885Y-101569828D01*
X132967504Y-101760304D01*
X133015123Y-101855542D01*
X133062742Y-101903161D01*
X133157980Y-101950780D01*
X133253219Y-101950780D01*
X133348457Y-101903161D01*
X133396076Y-101855542D01*
X133443695Y-101760304D01*
X133491314Y-101569828D01*
X133491314Y-101331733D01*
X133443695Y-101141257D01*
X133396076Y-101046019D01*
X133348457Y-100998400D01*
X133253219Y-100950780D01*
X132443695Y-101950780D02*
X132253219Y-101950780D01*
X132157980Y-101903161D01*
X132110361Y-101855542D01*
X132015123Y-101712685D01*
X131967504Y-101522209D01*
X131967504Y-101141257D01*
X132015123Y-101046019D01*
X132062742Y-100998400D01*
X132157980Y-100950780D01*
X132348457Y-100950780D01*
X132443695Y-100998400D01*
X132491314Y-101046019D01*
X132538933Y-101141257D01*
X132538933Y-101379352D01*
X132491314Y-101474590D01*
X132443695Y-101522209D01*
X132348457Y-101569828D01*
X132157980Y-101569828D01*
X132062742Y-101522209D01*
X132015123Y-101474590D01*
X131967504Y-101379352D01*
X166409642Y-83259752D02*
X166457261Y-83212133D01*
X166504880Y-83069276D01*
X166504880Y-82974038D01*
X166457261Y-82831180D01*
X166362023Y-82735942D01*
X166266785Y-82688323D01*
X166076309Y-82640704D01*
X165933452Y-82640704D01*
X165742976Y-82688323D01*
X165647738Y-82735942D01*
X165552500Y-82831180D01*
X165504880Y-82974038D01*
X165504880Y-83069276D01*
X165552500Y-83212133D01*
X165600119Y-83259752D01*
X166504880Y-84212133D02*
X166504880Y-83640704D01*
X166504880Y-83926419D02*
X165504880Y-83926419D01*
X165647738Y-83831180D01*
X165742976Y-83735942D01*
X165790595Y-83640704D01*
X165504880Y-84831180D02*
X165504880Y-84926419D01*
X165552500Y-85021657D01*
X165600119Y-85069276D01*
X165695357Y-85116895D01*
X165885833Y-85164514D01*
X166123928Y-85164514D01*
X166314404Y-85116895D01*
X166409642Y-85069276D01*
X166457261Y-85021657D01*
X166504880Y-84926419D01*
X166504880Y-84831180D01*
X166457261Y-84735942D01*
X166409642Y-84688323D01*
X166314404Y-84640704D01*
X166123928Y-84593085D01*
X165885833Y-84593085D01*
X165695357Y-84640704D01*
X165600119Y-84688323D01*
X165552500Y-84735942D01*
X165504880Y-84831180D01*
X165933452Y-85735942D02*
X165885833Y-85640704D01*
X165838214Y-85593085D01*
X165742976Y-85545466D01*
X165695357Y-85545466D01*
X165600119Y-85593085D01*
X165552500Y-85640704D01*
X165504880Y-85735942D01*
X165504880Y-85926419D01*
X165552500Y-86021657D01*
X165600119Y-86069276D01*
X165695357Y-86116895D01*
X165742976Y-86116895D01*
X165838214Y-86069276D01*
X165885833Y-86021657D01*
X165933452Y-85926419D01*
X165933452Y-85735942D01*
X165981071Y-85640704D01*
X166028690Y-85593085D01*
X166123928Y-85545466D01*
X166314404Y-85545466D01*
X166409642Y-85593085D01*
X166457261Y-85640704D01*
X166504880Y-85735942D01*
X166504880Y-85926419D01*
X166457261Y-86021657D01*
X166409642Y-86069276D01*
X166314404Y-86116895D01*
X166123928Y-86116895D01*
X166028690Y-86069276D01*
X165981071Y-86021657D01*
X165933452Y-85926419D01*
X124372642Y-106284852D02*
X124420261Y-106237233D01*
X124467880Y-106094376D01*
X124467880Y-105999138D01*
X124420261Y-105856280D01*
X124325023Y-105761042D01*
X124229785Y-105713423D01*
X124039309Y-105665804D01*
X123896452Y-105665804D01*
X123705976Y-105713423D01*
X123610738Y-105761042D01*
X123515500Y-105856280D01*
X123467880Y-105999138D01*
X123467880Y-106094376D01*
X123515500Y-106237233D01*
X123563119Y-106284852D01*
X124467880Y-107237233D02*
X124467880Y-106665804D01*
X124467880Y-106951519D02*
X123467880Y-106951519D01*
X123610738Y-106856280D01*
X123705976Y-106761042D01*
X123753595Y-106665804D01*
X123467880Y-107856280D02*
X123467880Y-107951519D01*
X123515500Y-108046757D01*
X123563119Y-108094376D01*
X123658357Y-108141995D01*
X123848833Y-108189614D01*
X124086928Y-108189614D01*
X124277404Y-108141995D01*
X124372642Y-108094376D01*
X124420261Y-108046757D01*
X124467880Y-107951519D01*
X124467880Y-107856280D01*
X124420261Y-107761042D01*
X124372642Y-107713423D01*
X124277404Y-107665804D01*
X124086928Y-107618185D01*
X123848833Y-107618185D01*
X123658357Y-107665804D01*
X123563119Y-107713423D01*
X123515500Y-107761042D01*
X123467880Y-107856280D01*
X123467880Y-108522947D02*
X123467880Y-109189614D01*
X124467880Y-108761042D01*
X153265047Y-109830142D02*
X153312666Y-109877761D01*
X153455523Y-109925380D01*
X153550761Y-109925380D01*
X153693619Y-109877761D01*
X153788857Y-109782523D01*
X153836476Y-109687285D01*
X153884095Y-109496809D01*
X153884095Y-109353952D01*
X153836476Y-109163476D01*
X153788857Y-109068238D01*
X153693619Y-108973000D01*
X153550761Y-108925380D01*
X153455523Y-108925380D01*
X153312666Y-108973000D01*
X153265047Y-109020619D01*
X152312666Y-109925380D02*
X152884095Y-109925380D01*
X152598380Y-109925380D02*
X152598380Y-108925380D01*
X152693619Y-109068238D01*
X152788857Y-109163476D01*
X152884095Y-109211095D01*
X151693619Y-108925380D02*
X151598380Y-108925380D01*
X151503142Y-108973000D01*
X151455523Y-109020619D01*
X151407904Y-109115857D01*
X151360285Y-109306333D01*
X151360285Y-109544428D01*
X151407904Y-109734904D01*
X151455523Y-109830142D01*
X151503142Y-109877761D01*
X151598380Y-109925380D01*
X151693619Y-109925380D01*
X151788857Y-109877761D01*
X151836476Y-109830142D01*
X151884095Y-109734904D01*
X151931714Y-109544428D01*
X151931714Y-109306333D01*
X151884095Y-109115857D01*
X151836476Y-109020619D01*
X151788857Y-108973000D01*
X151693619Y-108925380D01*
X150503142Y-108925380D02*
X150693619Y-108925380D01*
X150788857Y-108973000D01*
X150836476Y-109020619D01*
X150931714Y-109163476D01*
X150979333Y-109353952D01*
X150979333Y-109734904D01*
X150931714Y-109830142D01*
X150884095Y-109877761D01*
X150788857Y-109925380D01*
X150598380Y-109925380D01*
X150503142Y-109877761D01*
X150455523Y-109830142D01*
X150407904Y-109734904D01*
X150407904Y-109496809D01*
X150455523Y-109401571D01*
X150503142Y-109353952D01*
X150598380Y-109306333D01*
X150788857Y-109306333D01*
X150884095Y-109353952D01*
X150931714Y-109401571D01*
X150979333Y-109496809D01*
X134773847Y-111159542D02*
X134821466Y-111207161D01*
X134964323Y-111254780D01*
X135059561Y-111254780D01*
X135202419Y-111207161D01*
X135297657Y-111111923D01*
X135345276Y-111016685D01*
X135392895Y-110826209D01*
X135392895Y-110683352D01*
X135345276Y-110492876D01*
X135297657Y-110397638D01*
X135202419Y-110302400D01*
X135059561Y-110254780D01*
X134964323Y-110254780D01*
X134821466Y-110302400D01*
X134773847Y-110350019D01*
X133821466Y-111254780D02*
X134392895Y-111254780D01*
X134107180Y-111254780D02*
X134107180Y-110254780D01*
X134202419Y-110397638D01*
X134297657Y-110492876D01*
X134392895Y-110540495D01*
X133202419Y-110254780D02*
X133107180Y-110254780D01*
X133011942Y-110302400D01*
X132964323Y-110350019D01*
X132916704Y-110445257D01*
X132869085Y-110635733D01*
X132869085Y-110873828D01*
X132916704Y-111064304D01*
X132964323Y-111159542D01*
X133011942Y-111207161D01*
X133107180Y-111254780D01*
X133202419Y-111254780D01*
X133297657Y-111207161D01*
X133345276Y-111159542D01*
X133392895Y-111064304D01*
X133440514Y-110873828D01*
X133440514Y-110635733D01*
X133392895Y-110445257D01*
X133345276Y-110350019D01*
X133297657Y-110302400D01*
X133202419Y-110254780D01*
X131964323Y-110254780D02*
X132440514Y-110254780D01*
X132488133Y-110730971D01*
X132440514Y-110683352D01*
X132345276Y-110635733D01*
X132107180Y-110635733D01*
X132011942Y-110683352D01*
X131964323Y-110730971D01*
X131916704Y-110826209D01*
X131916704Y-111064304D01*
X131964323Y-111159542D01*
X132011942Y-111207161D01*
X132107180Y-111254780D01*
X132345276Y-111254780D01*
X132440514Y-111207161D01*
X132488133Y-111159542D01*
X141682647Y-116181142D02*
X141730266Y-116228761D01*
X141873123Y-116276380D01*
X141968361Y-116276380D01*
X142111219Y-116228761D01*
X142206457Y-116133523D01*
X142254076Y-116038285D01*
X142301695Y-115847809D01*
X142301695Y-115704952D01*
X142254076Y-115514476D01*
X142206457Y-115419238D01*
X142111219Y-115324000D01*
X141968361Y-115276380D01*
X141873123Y-115276380D01*
X141730266Y-115324000D01*
X141682647Y-115371619D01*
X140730266Y-116276380D02*
X141301695Y-116276380D01*
X141015980Y-116276380D02*
X141015980Y-115276380D01*
X141111219Y-115419238D01*
X141206457Y-115514476D01*
X141301695Y-115562095D01*
X140111219Y-115276380D02*
X140015980Y-115276380D01*
X139920742Y-115324000D01*
X139873123Y-115371619D01*
X139825504Y-115466857D01*
X139777885Y-115657333D01*
X139777885Y-115895428D01*
X139825504Y-116085904D01*
X139873123Y-116181142D01*
X139920742Y-116228761D01*
X140015980Y-116276380D01*
X140111219Y-116276380D01*
X140206457Y-116228761D01*
X140254076Y-116181142D01*
X140301695Y-116085904D01*
X140349314Y-115895428D01*
X140349314Y-115657333D01*
X140301695Y-115466857D01*
X140254076Y-115371619D01*
X140206457Y-115324000D01*
X140111219Y-115276380D01*
X138920742Y-115609714D02*
X138920742Y-116276380D01*
X139158838Y-115228761D02*
X139396933Y-115943047D01*
X138777885Y-115943047D01*
X166625542Y-107465952D02*
X166673161Y-107418333D01*
X166720780Y-107275476D01*
X166720780Y-107180238D01*
X166673161Y-107037380D01*
X166577923Y-106942142D01*
X166482685Y-106894523D01*
X166292209Y-106846904D01*
X166149352Y-106846904D01*
X165958876Y-106894523D01*
X165863638Y-106942142D01*
X165768400Y-107037380D01*
X165720780Y-107180238D01*
X165720780Y-107275476D01*
X165768400Y-107418333D01*
X165816019Y-107465952D01*
X166720780Y-108418333D02*
X166720780Y-107846904D01*
X166720780Y-108132619D02*
X165720780Y-108132619D01*
X165863638Y-108037380D01*
X165958876Y-107942142D01*
X166006495Y-107846904D01*
X165720780Y-109037380D02*
X165720780Y-109132619D01*
X165768400Y-109227857D01*
X165816019Y-109275476D01*
X165911257Y-109323095D01*
X166101733Y-109370714D01*
X166339828Y-109370714D01*
X166530304Y-109323095D01*
X166625542Y-109275476D01*
X166673161Y-109227857D01*
X166720780Y-109132619D01*
X166720780Y-109037380D01*
X166673161Y-108942142D01*
X166625542Y-108894523D01*
X166530304Y-108846904D01*
X166339828Y-108799285D01*
X166101733Y-108799285D01*
X165911257Y-108846904D01*
X165816019Y-108894523D01*
X165768400Y-108942142D01*
X165720780Y-109037380D01*
X165720780Y-109704047D02*
X165720780Y-110323095D01*
X166101733Y-109989761D01*
X166101733Y-110132619D01*
X166149352Y-110227857D01*
X166196971Y-110275476D01*
X166292209Y-110323095D01*
X166530304Y-110323095D01*
X166625542Y-110275476D01*
X166673161Y-110227857D01*
X166720780Y-110132619D01*
X166720780Y-109846904D01*
X166673161Y-109751666D01*
X166625542Y-109704047D01*
X123610642Y-119848452D02*
X123658261Y-119800833D01*
X123705880Y-119657976D01*
X123705880Y-119562738D01*
X123658261Y-119419880D01*
X123563023Y-119324642D01*
X123467785Y-119277023D01*
X123277309Y-119229404D01*
X123134452Y-119229404D01*
X122943976Y-119277023D01*
X122848738Y-119324642D01*
X122753500Y-119419880D01*
X122705880Y-119562738D01*
X122705880Y-119657976D01*
X122753500Y-119800833D01*
X122801119Y-119848452D01*
X123705880Y-120800833D02*
X123705880Y-120229404D01*
X123705880Y-120515119D02*
X122705880Y-120515119D01*
X122848738Y-120419880D01*
X122943976Y-120324642D01*
X122991595Y-120229404D01*
X122705880Y-121419880D02*
X122705880Y-121515119D01*
X122753500Y-121610357D01*
X122801119Y-121657976D01*
X122896357Y-121705595D01*
X123086833Y-121753214D01*
X123324928Y-121753214D01*
X123515404Y-121705595D01*
X123610642Y-121657976D01*
X123658261Y-121610357D01*
X123705880Y-121515119D01*
X123705880Y-121419880D01*
X123658261Y-121324642D01*
X123610642Y-121277023D01*
X123515404Y-121229404D01*
X123324928Y-121181785D01*
X123086833Y-121181785D01*
X122896357Y-121229404D01*
X122801119Y-121277023D01*
X122753500Y-121324642D01*
X122705880Y-121419880D01*
X122801119Y-122134166D02*
X122753500Y-122181785D01*
X122705880Y-122277023D01*
X122705880Y-122515119D01*
X122753500Y-122610357D01*
X122801119Y-122657976D01*
X122896357Y-122705595D01*
X122991595Y-122705595D01*
X123134452Y-122657976D01*
X123705880Y-122086547D01*
X123705880Y-122705595D01*
X166790642Y-95058052D02*
X166838261Y-95010433D01*
X166885880Y-94867576D01*
X166885880Y-94772338D01*
X166838261Y-94629480D01*
X166743023Y-94534242D01*
X166647785Y-94486623D01*
X166457309Y-94439004D01*
X166314452Y-94439004D01*
X166123976Y-94486623D01*
X166028738Y-94534242D01*
X165933500Y-94629480D01*
X165885880Y-94772338D01*
X165885880Y-94867576D01*
X165933500Y-95010433D01*
X165981119Y-95058052D01*
X166885880Y-96010433D02*
X166885880Y-95439004D01*
X166885880Y-95724719D02*
X165885880Y-95724719D01*
X166028738Y-95629480D01*
X166123976Y-95534242D01*
X166171595Y-95439004D01*
X165885880Y-96629480D02*
X165885880Y-96724719D01*
X165933500Y-96819957D01*
X165981119Y-96867576D01*
X166076357Y-96915195D01*
X166266833Y-96962814D01*
X166504928Y-96962814D01*
X166695404Y-96915195D01*
X166790642Y-96867576D01*
X166838261Y-96819957D01*
X166885880Y-96724719D01*
X166885880Y-96629480D01*
X166838261Y-96534242D01*
X166790642Y-96486623D01*
X166695404Y-96439004D01*
X166504928Y-96391385D01*
X166266833Y-96391385D01*
X166076357Y-96439004D01*
X165981119Y-96486623D01*
X165933500Y-96534242D01*
X165885880Y-96629480D01*
X166885880Y-97915195D02*
X166885880Y-97343766D01*
X166885880Y-97629480D02*
X165885880Y-97629480D01*
X166028738Y-97534242D01*
X166123976Y-97439004D01*
X166171595Y-97343766D01*
X179852580Y-104240152D02*
X179376390Y-103906819D01*
X179852580Y-103668723D02*
X178852580Y-103668723D01*
X178852580Y-104049676D01*
X178900200Y-104144914D01*
X178947819Y-104192533D01*
X179043057Y-104240152D01*
X179185914Y-104240152D01*
X179281152Y-104192533D01*
X179328771Y-104144914D01*
X179376390Y-104049676D01*
X179376390Y-103668723D01*
X179852580Y-105192533D02*
X179852580Y-104621104D01*
X179852580Y-104906819D02*
X178852580Y-104906819D01*
X178995438Y-104811580D01*
X179090676Y-104716342D01*
X179138295Y-104621104D01*
X178852580Y-105811580D02*
X178852580Y-105906819D01*
X178900200Y-106002057D01*
X178947819Y-106049676D01*
X179043057Y-106097295D01*
X179233533Y-106144914D01*
X179471628Y-106144914D01*
X179662104Y-106097295D01*
X179757342Y-106049676D01*
X179804961Y-106002057D01*
X179852580Y-105906819D01*
X179852580Y-105811580D01*
X179804961Y-105716342D01*
X179757342Y-105668723D01*
X179662104Y-105621104D01*
X179471628Y-105573485D01*
X179233533Y-105573485D01*
X179043057Y-105621104D01*
X178947819Y-105668723D01*
X178900200Y-105716342D01*
X178852580Y-105811580D01*
X179281152Y-106716342D02*
X179233533Y-106621104D01*
X179185914Y-106573485D01*
X179090676Y-106525866D01*
X179043057Y-106525866D01*
X178947819Y-106573485D01*
X178900200Y-106621104D01*
X178852580Y-106716342D01*
X178852580Y-106906819D01*
X178900200Y-107002057D01*
X178947819Y-107049676D01*
X179043057Y-107097295D01*
X179090676Y-107097295D01*
X179185914Y-107049676D01*
X179233533Y-107002057D01*
X179281152Y-106906819D01*
X179281152Y-106716342D01*
X179328771Y-106621104D01*
X179376390Y-106573485D01*
X179471628Y-106525866D01*
X179662104Y-106525866D01*
X179757342Y-106573485D01*
X179804961Y-106621104D01*
X179852580Y-106716342D01*
X179852580Y-106906819D01*
X179804961Y-107002057D01*
X179757342Y-107049676D01*
X179662104Y-107097295D01*
X179471628Y-107097295D01*
X179376390Y-107049676D01*
X179328771Y-107002057D01*
X179281152Y-106906819D01*
X145029180Y-89101752D02*
X144552990Y-88768419D01*
X145029180Y-88530323D02*
X144029180Y-88530323D01*
X144029180Y-88911276D01*
X144076800Y-89006514D01*
X144124419Y-89054133D01*
X144219657Y-89101752D01*
X144362514Y-89101752D01*
X144457752Y-89054133D01*
X144505371Y-89006514D01*
X144552990Y-88911276D01*
X144552990Y-88530323D01*
X145029180Y-90054133D02*
X145029180Y-89482704D01*
X145029180Y-89768419D02*
X144029180Y-89768419D01*
X144172038Y-89673180D01*
X144267276Y-89577942D01*
X144314895Y-89482704D01*
X144029180Y-90673180D02*
X144029180Y-90768419D01*
X144076800Y-90863657D01*
X144124419Y-90911276D01*
X144219657Y-90958895D01*
X144410133Y-91006514D01*
X144648228Y-91006514D01*
X144838704Y-90958895D01*
X144933942Y-90911276D01*
X144981561Y-90863657D01*
X145029180Y-90768419D01*
X145029180Y-90673180D01*
X144981561Y-90577942D01*
X144933942Y-90530323D01*
X144838704Y-90482704D01*
X144648228Y-90435085D01*
X144410133Y-90435085D01*
X144219657Y-90482704D01*
X144124419Y-90530323D01*
X144076800Y-90577942D01*
X144029180Y-90673180D01*
X144029180Y-91339847D02*
X144029180Y-92006514D01*
X145029180Y-91577942D01*
X142628880Y-89152552D02*
X142152690Y-88819219D01*
X142628880Y-88581123D02*
X141628880Y-88581123D01*
X141628880Y-88962076D01*
X141676500Y-89057314D01*
X141724119Y-89104933D01*
X141819357Y-89152552D01*
X141962214Y-89152552D01*
X142057452Y-89104933D01*
X142105071Y-89057314D01*
X142152690Y-88962076D01*
X142152690Y-88581123D01*
X142628880Y-90104933D02*
X142628880Y-89533504D01*
X142628880Y-89819219D02*
X141628880Y-89819219D01*
X141771738Y-89723980D01*
X141866976Y-89628742D01*
X141914595Y-89533504D01*
X141628880Y-90723980D02*
X141628880Y-90819219D01*
X141676500Y-90914457D01*
X141724119Y-90962076D01*
X141819357Y-91009695D01*
X142009833Y-91057314D01*
X142247928Y-91057314D01*
X142438404Y-91009695D01*
X142533642Y-90962076D01*
X142581261Y-90914457D01*
X142628880Y-90819219D01*
X142628880Y-90723980D01*
X142581261Y-90628742D01*
X142533642Y-90581123D01*
X142438404Y-90533504D01*
X142247928Y-90485885D01*
X142009833Y-90485885D01*
X141819357Y-90533504D01*
X141724119Y-90581123D01*
X141676500Y-90628742D01*
X141628880Y-90723980D01*
X141628880Y-91914457D02*
X141628880Y-91723980D01*
X141676500Y-91628742D01*
X141724119Y-91581123D01*
X141866976Y-91485885D01*
X142057452Y-91438266D01*
X142438404Y-91438266D01*
X142533642Y-91485885D01*
X142581261Y-91533504D01*
X142628880Y-91628742D01*
X142628880Y-91819219D01*
X142581261Y-91914457D01*
X142533642Y-91962076D01*
X142438404Y-92009695D01*
X142200309Y-92009695D01*
X142105071Y-91962076D01*
X142057452Y-91914457D01*
X142009833Y-91819219D01*
X142009833Y-91628742D01*
X142057452Y-91533504D01*
X142105071Y-91485885D01*
X142200309Y-91438266D01*
X177058580Y-104608452D02*
X176582390Y-104275119D01*
X177058580Y-104037023D02*
X176058580Y-104037023D01*
X176058580Y-104417976D01*
X176106200Y-104513214D01*
X176153819Y-104560833D01*
X176249057Y-104608452D01*
X176391914Y-104608452D01*
X176487152Y-104560833D01*
X176534771Y-104513214D01*
X176582390Y-104417976D01*
X176582390Y-104037023D01*
X177058580Y-105560833D02*
X177058580Y-104989404D01*
X177058580Y-105275119D02*
X176058580Y-105275119D01*
X176201438Y-105179880D01*
X176296676Y-105084642D01*
X176344295Y-104989404D01*
X176058580Y-106179880D02*
X176058580Y-106275119D01*
X176106200Y-106370357D01*
X176153819Y-106417976D01*
X176249057Y-106465595D01*
X176439533Y-106513214D01*
X176677628Y-106513214D01*
X176868104Y-106465595D01*
X176963342Y-106417976D01*
X177010961Y-106370357D01*
X177058580Y-106275119D01*
X177058580Y-106179880D01*
X177010961Y-106084642D01*
X176963342Y-106037023D01*
X176868104Y-105989404D01*
X176677628Y-105941785D01*
X176439533Y-105941785D01*
X176249057Y-105989404D01*
X176153819Y-106037023D01*
X176106200Y-106084642D01*
X176058580Y-106179880D01*
X176058580Y-107417976D02*
X176058580Y-106941785D01*
X176534771Y-106894166D01*
X176487152Y-106941785D01*
X176439533Y-107037023D01*
X176439533Y-107275119D01*
X176487152Y-107370357D01*
X176534771Y-107417976D01*
X176630009Y-107465595D01*
X176868104Y-107465595D01*
X176963342Y-107417976D01*
X177010961Y-107370357D01*
X177058580Y-107275119D01*
X177058580Y-107037023D01*
X177010961Y-106941785D01*
X176963342Y-106894166D01*
X179801780Y-92073552D02*
X179325590Y-91740219D01*
X179801780Y-91502123D02*
X178801780Y-91502123D01*
X178801780Y-91883076D01*
X178849400Y-91978314D01*
X178897019Y-92025933D01*
X178992257Y-92073552D01*
X179135114Y-92073552D01*
X179230352Y-92025933D01*
X179277971Y-91978314D01*
X179325590Y-91883076D01*
X179325590Y-91502123D01*
X179801780Y-93025933D02*
X179801780Y-92454504D01*
X179801780Y-92740219D02*
X178801780Y-92740219D01*
X178944638Y-92644980D01*
X179039876Y-92549742D01*
X179087495Y-92454504D01*
X178801780Y-93644980D02*
X178801780Y-93740219D01*
X178849400Y-93835457D01*
X178897019Y-93883076D01*
X178992257Y-93930695D01*
X179182733Y-93978314D01*
X179420828Y-93978314D01*
X179611304Y-93930695D01*
X179706542Y-93883076D01*
X179754161Y-93835457D01*
X179801780Y-93740219D01*
X179801780Y-93644980D01*
X179754161Y-93549742D01*
X179706542Y-93502123D01*
X179611304Y-93454504D01*
X179420828Y-93406885D01*
X179182733Y-93406885D01*
X178992257Y-93454504D01*
X178897019Y-93502123D01*
X178849400Y-93549742D01*
X178801780Y-93644980D01*
X178801780Y-94311647D02*
X178801780Y-94930695D01*
X179182733Y-94597361D01*
X179182733Y-94740219D01*
X179230352Y-94835457D01*
X179277971Y-94883076D01*
X179373209Y-94930695D01*
X179611304Y-94930695D01*
X179706542Y-94883076D01*
X179754161Y-94835457D01*
X179801780Y-94740219D01*
X179801780Y-94454504D01*
X179754161Y-94359266D01*
X179706542Y-94311647D01*
X176842680Y-92187852D02*
X176366490Y-91854519D01*
X176842680Y-91616423D02*
X175842680Y-91616423D01*
X175842680Y-91997376D01*
X175890300Y-92092614D01*
X175937919Y-92140233D01*
X176033157Y-92187852D01*
X176176014Y-92187852D01*
X176271252Y-92140233D01*
X176318871Y-92092614D01*
X176366490Y-91997376D01*
X176366490Y-91616423D01*
X176842680Y-93140233D02*
X176842680Y-92568804D01*
X176842680Y-92854519D02*
X175842680Y-92854519D01*
X175985538Y-92759280D01*
X176080776Y-92664042D01*
X176128395Y-92568804D01*
X175842680Y-93759280D02*
X175842680Y-93854519D01*
X175890300Y-93949757D01*
X175937919Y-93997376D01*
X176033157Y-94044995D01*
X176223633Y-94092614D01*
X176461728Y-94092614D01*
X176652204Y-94044995D01*
X176747442Y-93997376D01*
X176795061Y-93949757D01*
X176842680Y-93854519D01*
X176842680Y-93759280D01*
X176795061Y-93664042D01*
X176747442Y-93616423D01*
X176652204Y-93568804D01*
X176461728Y-93521185D01*
X176223633Y-93521185D01*
X176033157Y-93568804D01*
X175937919Y-93616423D01*
X175890300Y-93664042D01*
X175842680Y-93759280D01*
X175937919Y-94473566D02*
X175890300Y-94521185D01*
X175842680Y-94616423D01*
X175842680Y-94854519D01*
X175890300Y-94949757D01*
X175937919Y-94997376D01*
X176033157Y-95044995D01*
X176128395Y-95044995D01*
X176271252Y-94997376D01*
X176842680Y-94425947D01*
X176842680Y-95044995D01*
X149156680Y-83716952D02*
X148680490Y-83383619D01*
X149156680Y-83145523D02*
X148156680Y-83145523D01*
X148156680Y-83526476D01*
X148204300Y-83621714D01*
X148251919Y-83669333D01*
X148347157Y-83716952D01*
X148490014Y-83716952D01*
X148585252Y-83669333D01*
X148632871Y-83621714D01*
X148680490Y-83526476D01*
X148680490Y-83145523D01*
X148585252Y-84288380D02*
X148537633Y-84193142D01*
X148490014Y-84145523D01*
X148394776Y-84097904D01*
X148347157Y-84097904D01*
X148251919Y-84145523D01*
X148204300Y-84193142D01*
X148156680Y-84288380D01*
X148156680Y-84478857D01*
X148204300Y-84574095D01*
X148251919Y-84621714D01*
X148347157Y-84669333D01*
X148394776Y-84669333D01*
X148490014Y-84621714D01*
X148537633Y-84574095D01*
X148585252Y-84478857D01*
X148585252Y-84288380D01*
X148632871Y-84193142D01*
X148680490Y-84145523D01*
X148775728Y-84097904D01*
X148966204Y-84097904D01*
X149061442Y-84145523D01*
X149109061Y-84193142D01*
X149156680Y-84288380D01*
X149156680Y-84478857D01*
X149109061Y-84574095D01*
X149061442Y-84621714D01*
X148966204Y-84669333D01*
X148775728Y-84669333D01*
X148680490Y-84621714D01*
X148632871Y-84574095D01*
X148585252Y-84478857D01*
X148156680Y-85288380D02*
X148156680Y-85383619D01*
X148204300Y-85478857D01*
X148251919Y-85526476D01*
X148347157Y-85574095D01*
X148537633Y-85621714D01*
X148775728Y-85621714D01*
X148966204Y-85574095D01*
X149061442Y-85526476D01*
X149109061Y-85478857D01*
X149156680Y-85383619D01*
X149156680Y-85288380D01*
X149109061Y-85193142D01*
X149061442Y-85145523D01*
X148966204Y-85097904D01*
X148775728Y-85050285D01*
X148537633Y-85050285D01*
X148347157Y-85097904D01*
X148251919Y-85145523D01*
X148204300Y-85193142D01*
X148156680Y-85288380D01*
X149156680Y-86574095D02*
X149156680Y-86002666D01*
X149156680Y-86288380D02*
X148156680Y-86288380D01*
X148299538Y-86193142D01*
X148394776Y-86097904D01*
X148442395Y-86002666D01*
X140965180Y-89152552D02*
X140488990Y-88819219D01*
X140965180Y-88581123D02*
X139965180Y-88581123D01*
X139965180Y-88962076D01*
X140012800Y-89057314D01*
X140060419Y-89104933D01*
X140155657Y-89152552D01*
X140298514Y-89152552D01*
X140393752Y-89104933D01*
X140441371Y-89057314D01*
X140488990Y-88962076D01*
X140488990Y-88581123D01*
X140965180Y-90104933D02*
X140965180Y-89533504D01*
X140965180Y-89819219D02*
X139965180Y-89819219D01*
X140108038Y-89723980D01*
X140203276Y-89628742D01*
X140250895Y-89533504D01*
X140965180Y-91057314D02*
X140965180Y-90485885D01*
X140965180Y-90771600D02*
X139965180Y-90771600D01*
X140108038Y-90676361D01*
X140203276Y-90581123D01*
X140250895Y-90485885D01*
X140060419Y-91438266D02*
X140012800Y-91485885D01*
X139965180Y-91581123D01*
X139965180Y-91819219D01*
X140012800Y-91914457D01*
X140060419Y-91962076D01*
X140155657Y-92009695D01*
X140250895Y-92009695D01*
X140393752Y-91962076D01*
X140965180Y-91390647D01*
X140965180Y-92009695D01*
X176786780Y-82497752D02*
X176310590Y-82164419D01*
X176786780Y-81926323D02*
X175786780Y-81926323D01*
X175786780Y-82307276D01*
X175834400Y-82402514D01*
X175882019Y-82450133D01*
X175977257Y-82497752D01*
X176120114Y-82497752D01*
X176215352Y-82450133D01*
X176262971Y-82402514D01*
X176310590Y-82307276D01*
X176310590Y-81926323D01*
X176786780Y-83450133D02*
X176786780Y-82878704D01*
X176786780Y-83164419D02*
X175786780Y-83164419D01*
X175929638Y-83069180D01*
X176024876Y-82973942D01*
X176072495Y-82878704D01*
X175786780Y-84069180D02*
X175786780Y-84164419D01*
X175834400Y-84259657D01*
X175882019Y-84307276D01*
X175977257Y-84354895D01*
X176167733Y-84402514D01*
X176405828Y-84402514D01*
X176596304Y-84354895D01*
X176691542Y-84307276D01*
X176739161Y-84259657D01*
X176786780Y-84164419D01*
X176786780Y-84069180D01*
X176739161Y-83973942D01*
X176691542Y-83926323D01*
X176596304Y-83878704D01*
X176405828Y-83831085D01*
X176167733Y-83831085D01*
X175977257Y-83878704D01*
X175882019Y-83926323D01*
X175834400Y-83973942D01*
X175786780Y-84069180D01*
X176120114Y-85259657D02*
X176786780Y-85259657D01*
X175739161Y-85021561D02*
X176453447Y-84783466D01*
X176453447Y-85402514D01*
X136088166Y-75064880D02*
X136088166Y-74064880D01*
X135850071Y-74064880D01*
X135707214Y-74112500D01*
X135611976Y-74207738D01*
X135564357Y-74302976D01*
X135516738Y-74493452D01*
X135516738Y-74636309D01*
X135564357Y-74826785D01*
X135611976Y-74922023D01*
X135707214Y-75017261D01*
X135850071Y-75064880D01*
X136088166Y-75064880D01*
X134564357Y-75064880D02*
X135135785Y-75064880D01*
X134850071Y-75064880D02*
X134850071Y-74064880D01*
X134945309Y-74207738D01*
X135040547Y-74302976D01*
X135135785Y-74350595D01*
X133945309Y-74064880D02*
X133850071Y-74064880D01*
X133754833Y-74112500D01*
X133707214Y-74160119D01*
X133659595Y-74255357D01*
X133611976Y-74445833D01*
X133611976Y-74683928D01*
X133659595Y-74874404D01*
X133707214Y-74969642D01*
X133754833Y-75017261D01*
X133850071Y-75064880D01*
X133945309Y-75064880D01*
X134040547Y-75017261D01*
X134088166Y-74969642D01*
X134135785Y-74874404D01*
X134183404Y-74683928D01*
X134183404Y-74445833D01*
X134135785Y-74255357D01*
X134088166Y-74160119D01*
X134040547Y-74112500D01*
X133945309Y-74064880D01*
X132992928Y-74064880D02*
X132897690Y-74064880D01*
X132802452Y-74112500D01*
X132754833Y-74160119D01*
X132707214Y-74255357D01*
X132659595Y-74445833D01*
X132659595Y-74683928D01*
X132707214Y-74874404D01*
X132754833Y-74969642D01*
X132802452Y-75017261D01*
X132897690Y-75064880D01*
X132992928Y-75064880D01*
X133088166Y-75017261D01*
X133135785Y-74969642D01*
X133183404Y-74874404D01*
X133231023Y-74683928D01*
X133231023Y-74445833D01*
X133183404Y-74255357D01*
X133135785Y-74160119D01*
X133088166Y-74112500D01*
X132992928Y-74064880D01*
X131707214Y-75064880D02*
X132278642Y-75064880D01*
X131992928Y-75064880D02*
X131992928Y-74064880D01*
X132088166Y-74207738D01*
X132183404Y-74302976D01*
X132278642Y-74350595D01*
M02*
