G04 #@! TF.GenerationSoftware,KiCad,Pcbnew,5.1.7-a382d34a8~87~ubuntu20.04.1*
G04 #@! TF.CreationDate,2020-11-13T16:05:12-05:00*
G04 #@! TF.ProjectId,atmega32u4_hub_pcb_1_3,61746d65-6761-4333-9275-345f6875625f,1.3*
G04 #@! TF.SameCoordinates,Original*
G04 #@! TF.FileFunction,Soldermask,Top*
G04 #@! TF.FilePolarity,Negative*
%FSLAX46Y46*%
G04 Gerber Fmt 4.6, Leading zero omitted, Abs format (unit mm)*
G04 Created by KiCad (PCBNEW 5.1.7-a382d34a8~87~ubuntu20.04.1) date 2020-11-13 16:05:12*
%MOMM*%
%LPD*%
G01*
G04 APERTURE LIST*
%ADD10O,1.700000X1.700000*%
%ADD11R,1.700000X1.700000*%
%ADD12C,1.800000*%
%ADD13O,2.000000X1.600000*%
%ADD14C,0.800000*%
%ADD15R,1.800000X1.800000*%
%ADD16C,2.000000*%
%ADD17C,3.500000*%
%ADD18C,1.700000*%
%ADD19O,1.070000X1.800000*%
%ADD20R,1.070000X1.800000*%
%ADD21R,2.000000X2.000000*%
G04 APERTURE END LIST*
D10*
X111455200Y-100330000D03*
X111455200Y-102870000D03*
X111455200Y-105410000D03*
X111455200Y-107950000D03*
X111455200Y-110490000D03*
D11*
X111455200Y-113030000D03*
D12*
X156311600Y-73596500D03*
X158851600Y-73596500D03*
G36*
G01*
X162291600Y-72944900D02*
X162291600Y-74248100D01*
G75*
G02*
X162043200Y-74496500I-248400J0D01*
G01*
X160740000Y-74496500D01*
G75*
G02*
X160491600Y-74248100I0J248400D01*
G01*
X160491600Y-72944900D01*
G75*
G02*
X160740000Y-72696500I248400J0D01*
G01*
X162043200Y-72696500D01*
G75*
G02*
X162291600Y-72944900I0J-248400D01*
G01*
G37*
D13*
X169850000Y-118717000D03*
X170950000Y-123317000D03*
X177950000Y-123317000D03*
D14*
X172550000Y-121017000D03*
X179550000Y-121017000D03*
D13*
X174950000Y-123317000D03*
D11*
X128000000Y-118668800D03*
D10*
X130540000Y-118668800D03*
X128000000Y-121208800D03*
X130540000Y-121208800D03*
X128000000Y-123748800D03*
X130540000Y-123748800D03*
D12*
X145859500Y-75946000D03*
D15*
X143319500Y-75946000D03*
D16*
X131318000Y-89512000D03*
X135818000Y-89512000D03*
X131318000Y-96012000D03*
X135818000Y-96012000D03*
D17*
X138780000Y-125334600D03*
X150820000Y-125334600D03*
D18*
X146050000Y-122624600D03*
X143550000Y-122624600D03*
X143550000Y-120624600D03*
D11*
X146050000Y-120624600D03*
D19*
X140652500Y-93472000D03*
X141922500Y-93472000D03*
X143192500Y-93472000D03*
D20*
X144462500Y-93472000D03*
D13*
X169850000Y-105438800D03*
X170950000Y-110038800D03*
X177950000Y-110038800D03*
D14*
X172550000Y-107738800D03*
X179550000Y-107738800D03*
D13*
X174950000Y-110038800D03*
X169850000Y-93437300D03*
X170950000Y-98037300D03*
X177950000Y-98037300D03*
D14*
X172550000Y-95737300D03*
X179550000Y-95737300D03*
D13*
X174950000Y-98037300D03*
X169850000Y-82032700D03*
X170950000Y-86632700D03*
X177950000Y-86632700D03*
D14*
X172550000Y-84332700D03*
X179550000Y-84332700D03*
D13*
X174950000Y-86632700D03*
X119150000Y-123377100D03*
X118050000Y-118777100D03*
X111050000Y-118777100D03*
D14*
X116450000Y-121077100D03*
X109450000Y-121077100D03*
D13*
X114050000Y-118777100D03*
X119150000Y-86509000D03*
X118050000Y-81909000D03*
X111050000Y-81909000D03*
D14*
X116450000Y-84209000D03*
X109450000Y-84209000D03*
D13*
X114050000Y-81909000D03*
D18*
X135572500Y-77406500D03*
X130492500Y-77406500D03*
X125412500Y-77406500D03*
D11*
X120322500Y-77406500D03*
D16*
X155702800Y-88128000D03*
D21*
X149402800Y-88138000D03*
M02*
