M48
; DRILL file {KiCad 5.1.7-a382d34a8~87~ubuntu20.04.1} date Fri Nov 13 16:05:06 2020
; FORMAT={-:-/ absolute / inch / decimal}
; #@! TF.CreationDate,2020-11-13T16:05:06-05:00
; #@! TF.GenerationSoftware,Kicad,Pcbnew,5.1.7-a382d34a8~87~ubuntu20.04.1
; #@! TF.FileFunction,Plated,1,2,PTH
FMAT,2
INCH
T1C0.0118
T2C0.0157
T3C0.0315
T4C0.0354
T5C0.0362
T6C0.0394
T7C0.0433
T8C0.0917
%
G90
G05
T1
X4.491Y-4.764
X4.61Y-4.178
X4.62Y-4.481
X4.656Y-4.2205
X4.696Y-4.1143
X4.766Y-3.93
X4.77Y-4.256
X4.796Y-3.828
X4.806Y-4.379
X4.822Y-4.298
X4.8837Y-4.445
X4.91Y-3.96
X4.998Y-4.298
X5.01Y-4.121
X5.012Y-4.008
X5.078Y-4.126
X5.138Y-4.39
X5.25Y-4.48
X5.2778Y-4.4249
X5.294Y-4.59
X5.308Y-3.9916
X5.34Y-4.986
X5.348Y-4.394
X5.3739Y-4.0621
X5.394Y-4.514
X5.3986Y-4.0425
X5.405Y-4.45
X5.4332Y-4.214
X5.444Y-3.536
X5.444Y-3.682
X5.456Y-4.622
X5.457Y-4.305
X5.458Y-3.84
X5.4625Y-4.3925
X5.496Y-4.419
X5.528Y-3.17
X5.549Y-4.404
X5.567Y-4.349
X5.5695Y-3.9475
X5.6079Y-4.383
X5.6473Y-3.9299
X5.665Y-3.87
X5.6775Y-4.669
X5.683Y-3.909
X5.7132Y-3.2828
X5.7132Y-3.4348
X5.7329Y-4.3414
X5.7548Y-3.6248
X5.7727Y-3.972
X5.821Y-4.602
X5.8252Y-3.851
X5.843Y-3.6505
X5.849Y-3.928
X5.941Y-4.338
X5.955Y-3.3185
X6.007Y-3.487
X6.064Y-3.931
X6.0825Y-4.3825
X6.084Y-4.21
X6.0976Y-3.5759
X6.1555Y-4.2385
X6.175Y-4.138
X6.2045Y-3.9351
X6.205Y-3.694
X6.2465Y-3.2135
X6.2675Y-4.569
X6.2686Y-4.0001
X6.2955Y-3.8965
X6.36Y-3.54
X6.366Y-4.386
X6.388Y-2.9774
X6.516Y-3.623
X6.56Y-4.172
X6.596Y-4.622
X6.816Y-4.192
X6.834Y-3.623
X6.865Y-4.619
T2
X4.429Y-4.932
X4.86Y-3.992
X5.3366Y-3.9274
X5.34Y-3.68
X5.5091Y-3.9783
X5.584Y-3.2894
X5.805Y-4.312
X5.8084Y-4.0085
X5.895Y-3.1575
X5.9775Y-4.7115
X5.9775Y-4.7465
X5.9775Y-4.7865
X6.01Y-4.7115
X6.01Y-4.7465
X6.01Y-4.7865
X6.147Y-3.3365
T3
X4.7371Y-3.0475
X4.9375Y-3.0475
X5.1375Y-3.0475
X5.3375Y-3.0475
T4
X5.5375Y-3.68
X5.5875Y-3.68
X5.6375Y-3.68
X5.6875Y-3.68
X6.154Y-2.8975
X6.254Y-2.8975
X6.354Y-2.8975
X5.6425Y-2.99
X5.7425Y-2.99
T5
X5.6516Y-4.749
X5.6516Y-4.8277
X5.75Y-4.749
X5.75Y-4.8277
T6
X5.882Y-3.47
X6.13Y-3.4696
X5.0394Y-4.672
X5.0394Y-4.772
X5.0394Y-4.872
X5.1394Y-4.672
X5.1394Y-4.772
X5.1394Y-4.872
X4.388Y-3.95
X4.388Y-4.05
X4.388Y-4.15
X4.388Y-4.25
X4.388Y-4.35
X4.388Y-4.45
T7
X5.17Y-3.5241
X5.17Y-3.78
X5.3472Y-3.5241
X5.3472Y-3.78
T8
X5.4638Y-4.9344
X5.9378Y-4.9344
T4
G00X4.3642Y-3.2248
M15
G01X4.3799Y-3.2248
M16
G05
G00X4.4823Y-3.2248
M15
G01X4.498Y-3.2248
M16
G05
G00X4.6398Y-3.2248
M15
G01X4.6555Y-3.2248
M16
G05
G00X4.6831Y-3.4059
M15
G01X4.6988Y-3.4059
M16
G05
G00X6.6949Y-3.2296
M15
G01X6.6791Y-3.2296
M16
G05
G00X6.7382Y-3.4107
M15
G01X6.7224Y-3.4107
M16
G05
G00X6.8957Y-3.4107
M15
G01X6.8799Y-3.4107
M16
G05
G00X7.0138Y-3.4107
M15
G01X6.998Y-3.4107
M16
G05
G00X6.6949Y-4.1511
M15
G01X6.6791Y-4.1511
M16
G05
G00X6.7382Y-4.3322
M15
G01X6.7224Y-4.3322
M16
G05
G00X6.8957Y-4.3322
M15
G01X6.8799Y-4.3322
M16
G05
G00X7.0138Y-4.3322
M15
G01X6.998Y-4.3322
M16
G05
G00X6.6949Y-3.6786
M15
G01X6.6791Y-3.6786
M16
G05
G00X6.7382Y-3.8597
M15
G01X6.7224Y-3.8597
M16
G05
G00X6.8957Y-3.8597
M15
G01X6.8799Y-3.8597
M16
G05
G00X7.0138Y-3.8597
M15
G01X6.998Y-3.8597
M16
G05
G00X4.3642Y-4.6763
M15
G01X4.3799Y-4.6763
M16
G05
G00X4.4823Y-4.6763
M15
G01X4.498Y-4.6763
M16
G05
G00X4.6398Y-4.6763
M15
G01X4.6555Y-4.6763
M16
G05
G00X4.6831Y-4.8574
M15
G01X4.6988Y-4.8574
M16
G05
G00X6.6949Y-4.6739
M15
G01X6.6791Y-4.6739
M16
G05
G00X6.7382Y-4.855
M15
G01X6.7224Y-4.855
M16
G05
G00X6.8957Y-4.855
M15
G01X6.8799Y-4.855
M16
G05
G00X7.0138Y-4.855
M15
G01X6.998Y-4.855
M16
G05
T0
M30
